<?xml version="1.0" standalone="no"?>
<!DOCTYPE svg PUBLIC "-//W3C//DTD SVG 1.1//EN" "http://www.w3.org/Graphics/SVG/1.1/DTD/svg11.dtd">
<svg opacity="20%" width="30cm" height="30cm" version="1.1" viewBox="0 0 10000 10000" xmlns="http://www.w3.org/2000/svg" xmlns:xlink="http://www.w3.org/1999/xlink">
<desc>DrawTrails of automics data, Mon Aug 08 16:33:07 BST 2011</desc>
<filter id="desaturate"  primitiveUnits="objectBoundingBox">
<feImage x="0%" y="0%" width="100%" height="100%" xlink:href="altontowers-zoom15.png"/>
<feColorMatrix type="matrix" values="0.3333 0.3333 0.3333 0 0 0.3333 0.3333 0.3333 0 0 0.3333 0.3333 0.3333 0 0 0      0      0      1 0"/>
<feColorMatrix type="matrix" values="0.3 0 0 0 0.7 0 0.3 0 0 0.7 0 0 0.3 0 0.7 0      0      0      1 0"/>
</filter>
<rect x="-2643.7028285176257" y="-2643.7028285176257" width="15287.405657035251" height="15287.405657035251" filter="url(#desaturate)"/>
<line x1="3609.8977" y1="2729.1362" x2="3583.1812" y2="2451.4954" stroke="#b8f046" stroke-width="5.0" />
<line x1="3583.1812" y1="2451.4954" x2="3478.541" y2="2313.1353" stroke="#b3f04b" stroke-width="5.0" />
<line x1="3478.541" y1="2313.1353" x2="3317.6843" y2="2372.169" stroke="#b2f04c" stroke-width="5.0" />
<line x1="3317.6843" y1="2372.169" x2="3198.0156" y2="2491.1584" stroke="#b1f04d" stroke-width="5.0" />
<line x1="3198.0156" y1="2491.1584" x2="3099.498" y2="2644.2761" stroke="#b1f04d" stroke-width="5.0" />
<line x1="3099.498" y1="2644.2761" x2="3033.8196" y2="2807.5393" stroke="#b1f04d" stroke-width="5.0" />
<line x1="3033.8196" y1="2807.5393" x2="2759.4167" y2="3436.6045" stroke="#b0f04e" stroke-width="5.0" stroke-dasharray="30 30"/>
<line x1="2759.4167" y1="3436.6045" x2="2624.7205" y2="3539.9102" stroke="#b0f04e" stroke-width="5.0" />
<line x1="2624.7205" y1="3539.9102" x2="2675.3708" y2="3698.5583" stroke="#b0f04e" stroke-width="5.0" />
<line x1="2675.3708" y1="3698.5583" x2="2651.437" y2="3866.4292" stroke="#b0f04e" stroke-width="5.0" />
<line x1="2651.437" y1="3866.4292" x2="2621.9373" y2="4035.2217" stroke="#b0f04e" stroke-width="5.0" />
<line x1="2621.9373" y1="4035.2217" x2="2571.2869" y2="4203.0913" stroke="#aff04f" stroke-width="5.0" />
<line x1="2571.2869" y1="4203.0913" x2="1654.571" y2="5182.6226" stroke="#aef050" stroke-width="5.0" stroke-dasharray="30 30"/>
<line x1="1654.571" y1="5182.6226" x2="1493.1578" y2="5118.9814" stroke="#aef050" stroke-width="5.0" />
<line x1="1493.1578" y1="5118.9814" x2="1326.1785" y2="5138.3506" stroke="#aef050" stroke-width="5.0" />
<line x1="1326.1785" y1="5138.3506" x2="1233.2267" y2="5276.701" stroke="#aef050" stroke-width="5.0" />
<line x1="1233.2267" y1="5276.701" x2="1045.0968" y2="5296.992" stroke="#aef050" stroke-width="5.0" />
<line x1="1045.0968" y1="5296.992" x2="902.0513" y2="5410.439" stroke="#adf051" stroke-width="5.0" />
<line x1="902.0513" y1="5410.439" x2="937.67346" y2="5578.3027" stroke="#adf051" stroke-width="5.0" />
<line x1="937.67346" y1="5578.3027" x2="1107.9923" y2="5558.9336" stroke="#adf051" stroke-width="5.0" />
<line x1="1107.9923" y1="5558.9336" x2="1272.1886" y2="5529.419" stroke="#adf051" stroke-width="5.0" />
<line x1="1272.1886" y1="5529.419" x2="1149.737" y2="5405.827" stroke="#adf051" stroke-width="5.0" />
<line x1="1149.737" y1="5405.827" x2="985.54083" y2="5450.0986" stroke="#adf051" stroke-width="5.0" />
<line x1="985.54083" y1="5450.0986" x2="1077.936" y2="5598.5938" stroke="#adf051" stroke-width="5.0" />
<line x1="1077.936" y1="5598.5938" x2="1138.0486" y2="5439.953" stroke="#acf052" stroke-width="5.0" />
<line x1="1138.0486" y1="5439.953" x2="1215.4156" y2="5593.982" stroke="#aaf054" stroke-width="5.0" />
<line x1="1215.4156" y1="5593.982" x2="1346.7726" y2="5697.282" stroke="#aaf054" stroke-width="5.0" />
<line x1="1346.7726" y1="5697.282" x2="1508.1859" y2="5736.9424" stroke="#aaf054" stroke-width="5.0" />
<line x1="1508.1859" y1="5736.9424" x2="1672.3821" y2="5707.4277" stroke="#a8f056" stroke-width="5.0" />
<line x1="1672.3821" y1="5707.4277" x2="1705.2214" y2="5544.176" stroke="#a8f056" stroke-width="5.0" />
<line x1="1705.2214" y1="5544.176" x2="1603.9207" y2="5410.439" stroke="#a8f056" stroke-width="5.0" />
<line x1="1603.9207" y1="5410.439" x2="1618.3922" y2="5232.4287" stroke="#a7f057" stroke-width="5.0" />
<line x1="1618.3922" y1="5232.4287" x2="1792.0507" y2="5222.283" stroke="#a7f057" stroke-width="5.0" />
<line x1="1792.0507" y1="5222.283" x2="3323.25" y2="6791.142" stroke="#a4f05a" stroke-width="5.0" stroke-dasharray="30 30"/>
<line x1="3323.25" y1="6791.142" x2="3338.2783" y2="6964.5337" stroke="#a4f05a" stroke-width="5.0" />
<line x1="3338.2783" y1="6964.5337" x2="3371.1177" y2="7132.3906" stroke="#a4f05a" stroke-width="5.0" />
<line x1="3371.1177" y1="7132.3906" x2="3302.656" y2="7285.49" stroke="#a4f05a" stroke-width="5.0" />
<line x1="3302.656" y1="7285.49" x2="3460.7297" y2="7345.439" stroke="#a4f05a" stroke-width="5.0" />
<line x1="3460.7297" y1="7345.439" x2="3619.36" y2="7295.6353" stroke="#a4f05a" stroke-width="5.0" />
<line x1="3619.36" y1="7295.6353" x2="4445.907" y2="6988.513" stroke="#a3f05b" stroke-width="5.0" stroke-dasharray="30 30"/>
<line x1="4445.907" y1="6988.513" x2="4610.66" y2="6944.243" stroke="#a3f05b" stroke-width="5.0" />
<line x1="4610.66" y1="6944.243" x2="4765.3945" y2="7028.1714" stroke="#a3f05b" stroke-width="5.0" />
<line x1="4765.3945" y1="7028.1714" x2="4930.147" y2="7097.3438" stroke="#a3f05b" stroke-width="5.0" />
<line x1="4930.147" y1="7097.3438" x2="5097.126" y2="7137.002" stroke="#a2f05c" stroke-width="5.0" />
<line x1="5097.126" y1="7137.002" x2="5162.8047" y2="7354.662" stroke="#a2f05c" stroke-width="5.0" stroke-dasharray="30 30"/>
<line x1="5162.8047" y1="7354.662" x2="4920.6846" y2="7469.0244" stroke="#99f065" stroke-width="5.0" stroke-dasharray="30 30"/>
<line x1="4920.6846" y1="7469.0244" x2="5007.514" y2="7563.0977" stroke="#93f06b" stroke-width="5.0" stroke-dasharray="30 30"/>
<line x1="5007.514" y1="7563.0977" x2="4825.507" y2="7542.807" stroke="#92f06c" stroke-width="5.0" />
<line x1="4825.507" y1="7542.807" x2="4583.3867" y2="7458.8794" stroke="#87f077" stroke-width="5.0" stroke-dasharray="30 30"/>
<line x1="4583.3867" y1="7458.8794" x2="4595.632" y2="7291.0244" stroke="#82f07c" stroke-width="5.0" />
<line x1="4595.632" y1="7291.0244" x2="4762.6113" y2="7315.004" stroke="#81f07d" stroke-width="5.0" />
<line x1="4762.6113" y1="7315.004" x2="4902.874" y2="7211.707" stroke="#81f07d" stroke-width="5.0" />
<line x1="4902.874" y1="7211.707" x2="4900.091" y2="7042.9287" stroke="#81f07d" stroke-width="5.0" />
<line x1="4900.091" y1="7042.9287" x2="4738.6772" y2="6998.658" stroke="#80f07e" stroke-width="5.0" />
<line x1="4738.6772" y1="6998.658" x2="4583.3867" y2="6939.6313" stroke="#80f07e" stroke-width="5.0" />
<line x1="4583.3867" y1="6939.6313" x2="4413.068" y2="6948.8545" stroke="#80f07e" stroke-width="5.0" />
<line x1="4413.068" y1="6948.8545" x2="4254.994" y2="7018.949" stroke="#80f07e" stroke-width="5.0" />
<line x1="4254.994" y1="7018.949" x2="3696.727" y2="6830.801" stroke="#7df081" stroke-width="5.0" stroke-dasharray="30 30"/>
<line x1="3696.727" y1="6830.801" x2="3538.6533" y2="6766.2397" stroke="#7df081" stroke-width="5.0" />
<line x1="3538.6533" y1="6766.2397" x2="3436.796" y2="6899.973" stroke="#7df081" stroke-width="5.0" />
<line x1="3436.796" y1="6899.973" x2="3353.3066" y2="7048.462" stroke="#7df081" stroke-width="5.0" />
<line x1="3353.3066" y1="7048.462" x2="3320.4673" y2="7220.93" stroke="#7cf082" stroke-width="5.0" />
<line x1="3320.4673" y1="7220.93" x2="3269.817" y2="7384.175" stroke="#7cf082" stroke-width="5.0" />
<line x1="3269.817" y1="7384.175" x2="3236.9775" y2="7563.0977" stroke="#7cf082" stroke-width="5.0" />
<line x1="3236.9775" y1="7563.0977" x2="3126.2146" y2="7686.6826" stroke="#7cf082" stroke-width="5.0" />
<line x1="3126.2146" y1="7686.6826" x2="3245.8833" y2="7523.4395" stroke="#6af094" stroke-width="5.0" stroke-dasharray="30 30"/>
<line x1="3245.8833" y1="7523.4395" x2="3317.6843" y2="7354.662" stroke="#6af094" stroke-width="5.0" />
<line x1="3317.6843" y1="7354.662" x2="3362.212" y2="7191.417" stroke="#6af094" stroke-width="5.0" />
<line x1="3362.212" y1="7191.417" x2="3398.3909" y2="7023.56" stroke="#6af094" stroke-width="5.0" />
<line x1="3398.3909" y1="7023.56" x2="3377.24" y2="6825.2666" stroke="#6af094" stroke-width="5.0" />
<line x1="3377.24" y1="6825.2666" x2="3344.401" y2="6662.0205" stroke="#6af094" stroke-width="5.0" />
<line x1="3344.401" y1="6662.0205" x2="3320.4673" y2="6479.4043" stroke="#69f095" stroke-width="5.0" />
<line x1="3320.4673" y1="6479.4043" x2="4643.4995" y2="3723.4622" stroke="#67f097" stroke-width="5.0" stroke-dasharray="30 30"/>
<line x1="4643.4995" y1="3723.4622" x2="4538.859" y2="3871.9631" stroke="#67f097" stroke-width="5.0" />
<line x1="4538.859" y1="3871.9631" x2="4541.6416" y2="3658.8965" stroke="#67f097" stroke-width="5.0" />
<line x1="4541.6416" y1="3658.8965" x2="4422.5303" y2="3777.882" stroke="#67f097" stroke-width="5.0" />
<line x1="4422.5303" y1="3777.882" x2="4511.586" y2="3920.8486" stroke="#66f098" stroke-width="5.0" />
<line x1="4511.586" y1="3920.8486" x2="4341.823" y2="3920.8486" stroke="#65f099" stroke-width="5.0" />
<line x1="4341.823" y1="3920.8486" x2="4317.8896" y2="3733.6084" stroke="#65f099" stroke-width="5.0" />
<line x1="4317.8896" y1="3733.6084" x2="4404.162" y2="3579.5725" stroke="#64f09a" stroke-width="5.0" />
<line x1="4404.162" y1="3579.5725" x2="4574.4814" y2="3560.2026" stroke="#64f09a" stroke-width="5.0" />
<line x1="4574.4814" y1="3560.2026" x2="4571.698" y2="3728.074" stroke="#63f09b" stroke-width="5.0" />
<line x1="4571.698" y1="3728.074" x2="4649.0654" y2="3881.1868" stroke="#62f09c" stroke-width="5.0" />
<line x1="4649.0654" y1="3881.1868" x2="4685.244" y2="3717.9282" stroke="#60f09e" stroke-width="5.0" />
<line x1="4685.244" y1="3717.9282" x2="4765.3945" y2="3564.8145" stroke="#5ff09f" stroke-width="5.0" />
<line x1="4765.3945" y1="3564.8145" x2="4744.8003" y2="3396.9424" stroke="#5ff09f" stroke-width="5.0" />
<line x1="4744.8003" y1="3396.9424" x2="4583.3867" y2="3327.764" stroke="#5ff09f" stroke-width="5.0" />
<line x1="4583.3867" y1="3327.764" x2="4452.03" y2="3213.389" stroke="#5ff09f" stroke-width="5.0" />
<line x1="4452.03" y1="3213.389" x2="3687.8213" y2="2679.3271" stroke="#5ff09f" stroke-width="5.0" stroke-dasharray="30 30"/>
<line x1="3687.8213" y1="2679.3271" x2="3556.4646" y2="2575.0964" stroke="#5ef0a0" stroke-width="5.0" />
<line x1="3556.4646" y1="2575.0964" x2="3559.2476" y2="2397.0737" stroke="#5ef0a0" stroke-width="5.0" />
<line x1="3559.2476" y1="2397.0737" x2="3496.9087" y2="2555.726" stroke="#59f0a5" stroke-width="5.0" />
<line x1="3496.9087" y1="2555.726" x2="3421.7678" y2="2708.8438" stroke="#59f0a5" stroke-width="5.0" />
<line x1="3421.7678" y1="2708.8438" x2="3221.9495" y2="2788.1692" stroke="#59f0a5" stroke-width="5.0" />
<line x1="3221.9495" y1="2788.1692" x2="3057.7534" y2="2861.9604" stroke="#59f0a5" stroke-width="5.0" />
<line x1="3057.7534" y1="2861.9604" x2="2788.9165" y2="3336.9878" stroke="#59f0a5" stroke-width="5.0" stroke-dasharray="30 30"/>
<line x1="2788.9165" y1="3336.9878" x2="2723.2383" y2="3491.0244" stroke="#58f0a6" stroke-width="5.0" />
<line x1="2723.2383" y1="3491.0244" x2="2571.2869" y2="3570.3489" stroke="#58f0a6" stroke-width="5.0" />
<line x1="2571.2869" y1="3570.3489" x2="2407.0908" y2="3445.8281" stroke="#58f0a6" stroke-width="5.0" />
<line x1="2407.0908" y1="3445.8281" x2="2562.3816" y2="3530.6865" stroke="#58f0a6" stroke-width="5.0" />
<line x1="2562.3816" y1="3530.6865" x2="2582.9756" y2="3698.5583" stroke="#58f0a6" stroke-width="5.0" />
<line x1="2582.9756" y1="3698.5583" x2="2550.1362" y2="3535.2983" stroke="#57f0a7" stroke-width="5.0" />
<line x1="2550.1362" y1="3535.2983" x2="2508.3916" y2="3708.704" stroke="#52f0ac" stroke-width="5.0" />
<line x1="2508.3916" y1="3708.704" x2="2346.9783" y2="3663.5083" stroke="#4ef0b0" stroke-width="5.0" />
<line x1="2346.9783" y1="3663.5083" x2="2272.394" y2="3515.9287" stroke="#4bf0b3" stroke-width="5.0" />
<line x1="2272.394" y1="3515.9287" x2="2353.1008" y2="3357.2803" stroke="#49f0b5" stroke-width="5.0" />
<line x1="2353.1008" y1="3357.2803" x2="2505.6084" y2="3426.4585" stroke="#47f0b7" stroke-width="5.0" />
<line x1="2505.6084" y1="3426.4585" x2="2636.9656" y2="3539.9102" stroke="#46f0b8" stroke-width="5.0" />
<line x1="2636.9656" y1="3539.9102" x2="2690.399" y2="3767.7358" stroke="#46f0b8" stroke-width="5.0" />
<line x1="2690.399" y1="3767.7358" x2="2764.983" y2="3916.2368" stroke="#46f0b8" stroke-width="5.0" />
<line x1="2764.983" y1="3916.2368" x2="2938.0847" y2="3901.479" stroke="#37f0c7" stroke-width="5.0" />
<line x1="2938.0847" y1="3901.479" x2="3096.715" y2="3847.0593" stroke="#37f0c7" stroke-width="5.0" />
<line x1="3096.715" y1="3847.0593" x2="3180.2048" y2="3703.1702" stroke="#37f0c7" stroke-width="5.0" />
<line x1="3180.2048" y1="3703.1702" x2="3398.3909" y2="3267.8096" stroke="#36f0c8" stroke-width="5.0" stroke-dasharray="30 30"/>
<line x1="3398.3909" y1="3267.8096" x2="3431.2302" y2="3099.936" stroke="#36f0c8" stroke-width="5.0" />
<line x1="3431.2302" y1="3099.936" x2="3484.6633" y2="2941.2856" stroke="#36f0c8" stroke-width="5.0" />
<line x1="3484.6633" y1="2941.2856" x2="3502.4746" y2="2767.8765" stroke="#36f0c8" stroke-width="5.0" />
<line x1="3502.4746" y1="2767.8765" x2="3514.7195" y2="2595.3892" stroke="#36f0c8" stroke-width="5.0" />
<line x1="3514.7195" y1="2595.3892" x2="3565.37" y2="2417.3667" stroke="#36f0c8" stroke-width="5.0" />
<circle cx="3611.4482" cy="2546.9417" r="124.58623" stroke="#b3f04b" stroke-width="10.0" fill="#0f0" fill-opacity="0.1"/>
<circle cx="2615.3325" cy="3578.4512" r="83.05749" stroke="#b0f04e" stroke-width="10.0" fill="#00f" fill-opacity="0.1"/>
<circle cx="1328.4814" cy="5196.302" r="83.05749" stroke="#aef050" stroke-width="10.0" fill="#00f" fill-opacity="0.1"/>
<circle cx="982.0974" cy="5522.792" r="166.11497" stroke="#aef050" stroke-width="10.0" fill="#f00" fill-opacity="0.1"/>
<circle cx="1566.5935" cy="5710.2646" r="124.58623" stroke="#aaf054" stroke-width="10.0" fill="#ff0" fill-opacity="0.1"/>
<circle cx="1491.4415" cy="5368.615" r="207.64372" stroke="#a8f056" stroke-width="10.0" fill="#00f" fill-opacity="0.1"/>
<circle cx="4743.925" cy="7044.1357" r="83.05749" stroke="#a3f05b" stroke-width="10.0" fill="#00f" fill-opacity="0.1"/>
<circle cx="4901.3677" cy="7503.5254" r="124.58623" stroke="#9cf062" stroke-width="10.0" fill="#f00" fill-opacity="0.1"/>
<circle cx="4887.4717" cy="7493.1387" r="124.58623" stroke="#93f06b" stroke-width="10.0" fill="#f00" fill-opacity="0.1"/>
<circle cx="3441.6694" cy="6788.4775" r="124.58623" stroke="#6af094" stroke-width="10.0" fill="#0f0" fill-opacity="0.1"/>
<circle cx="4679.083" cy="3743.1833" r="124.58623" stroke="#67f097" stroke-width="10.0" fill="#00f" fill-opacity="0.1"/>
<circle cx="4781.8477" cy="3500.1055" r="83.05749" stroke="#5ff09f" stroke-width="10.0" fill="#00f" fill-opacity="0.1"/>
<circle cx="2513.9758" cy="3670.2344" r="83.05749" stroke="#58f0a6" stroke-width="10.0" fill="#f00" fill-opacity="0.1"/>
<circle cx="2266.8047" cy="3459.033" r="83.05749" stroke="#4df0b1" stroke-width="10.0" fill="#ff0" fill-opacity="0.1"/>
<circle cx="3610.1284" cy="3205.5017" r="207.64372" stroke="#36f0c8" stroke-width="10.0" fill="#00f" fill-opacity="0.1"/>
</svg>
