<?xml version="1.0" standalone="no"?>
<!DOCTYPE svg PUBLIC "-//W3C//DTD SVG 1.1//EN" "http://www.w3.org/Graphics/SVG/1.1/DTD/svg11.dtd">
<svg opacity="20%" width="30cm" height="30cm" version="1.1" viewBox="0 0 1000 1000" xmlns="http://www.w3.org/2000/svg" xmlns:xlink="http://www.w3.org/1999/xlink">
<desc>DrawTrails of automics data, Mon Jul 25 12:24:01 BST 2011</desc>
<filter id="desaturate"  primitiveUnits="objectBoundingBox">
<feImage x="0%" y="0%" width="100%" height="100%" xlink:href="altontowers-zoom15.png"/>
<feColorMatrix type="matrix" values="0.3333 0.3333 0.3333 0 0 0.3333 0.3333 0.3333 0 0 0.3333 0.3333 0.3333 0 0 0      0      0      1 0"/>
<feColorMatrix type="matrix" values="0.1 0 0 0 0 0 0.1 0 0 0 0 0 0.1 0 0 0      0      0      1 0"/>
</filter>
<rect x="-264.37028285176257" y="-264.37028285176257" width="1528.7405657035251" height="1528.7405657035251" filter="url(#desaturate)"/>
<line x1="351.138" y1="248.10121" x2="362.2143" y2="263.50522" stroke="#85f079" stroke-width="0.5" />
<line x1="362.2143" y1="263.50522" x2="377.40942" y2="270.88437" stroke="#85f079" stroke-width="0.5" />
<line x1="377.40942" y1="270.88437" x2="392.0479" y2="280.29276" stroke="#85f079" stroke-width="0.5" />
<line x1="392.0479" y1="280.29276" x2="453.8859" y2="323.36813" stroke="#84f07a" stroke-width="0.5" stroke-dasharray="3 3"/>
<line x1="453.8859" y1="323.36813" x2="465.5188" y2="336.7426" stroke="#84f07a" stroke-width="0.5" />
<line x1="465.5188" y1="336.7426" x2="479.82333" y2="346.15088" stroke="#84f07a" stroke-width="0.5" />
<line x1="479.82333" y1="346.15088" x2="472.36493" y2="364.41385" stroke="#83f07b" stroke-width="0.5" />
<line x1="472.36493" y1="364.41385" x2="462.8471" y2="378.2494" stroke="#81f07d" stroke-width="0.5" />
<line x1="462.8471" y1="378.2494" x2="452.66138" y2="392.63828" stroke="#81f07d" stroke-width="0.5" />
<line x1="452.66138" y1="392.63828" x2="459.5632" y2="382.21555" stroke="#7df081" stroke-width="0.5" stroke-dasharray="3 3"/>
<line x1="459.5632" y1="382.21555" x2="464.01596" y2="365.88965" stroke="#7df081" stroke-width="0.5" />
<line x1="464.01596" y1="365.88965" x2="464.34995" y2="382.67673" stroke="#7cf082" stroke-width="0.5" />
<line x1="464.34995" y1="382.67673" x2="455.05475" y2="399.556" stroke="#73f08b" stroke-width="0.5" />
<line x1="455.05475" y1="399.556" x2="458.67264" y2="382.67673" stroke="#73f08b" stroke-width="0.5" />
<line x1="458.67264" y1="382.67673" x2="464.62823" y2="366.90424" stroke="#73f08b" stroke-width="0.5" />
<line x1="464.62823" y1="366.90424" x2="476.2611" y2="352.51526" stroke="#73f08b" stroke-width="0.5" />
<line x1="476.2611" y1="352.51526" x2="482.55066" y2="336.7426" stroke="#73f08b" stroke-width="0.5" />
<line x1="482.55066" y1="336.7426" x2="491.17792" y2="321.3389" stroke="#72f08c" stroke-width="0.5" />
<line x1="491.17792" y1="321.3389" x2="500.4731" y2="306.02734" stroke="#72f08c" stroke-width="0.5" />
<line x1="500.4731" y1="306.02734" x2="509.10037" y2="291.17694" stroke="#72f08c" stroke-width="0.5" />
<line x1="509.10037" y1="291.17694" x2="517.78326" y2="276.78766" stroke="#72f08c" stroke-width="0.5" />
<line x1="517.78326" y1="276.78766" x2="527.9134" y2="263.50522" stroke="#72f08c" stroke-width="0.5" />
<line x1="527.9134" y1="263.50522" x2="544.66693" y2="262.49057" stroke="#72f08c" stroke-width="0.5" />
<line x1="544.66693" y1="262.49057" x2="560.4743" y2="267.9327" stroke="#70f08e" stroke-width="0.5" />
<line x1="560.4743" y1="267.9327" x2="576.8939" y2="271.34555" stroke="#70f08e" stroke-width="0.5" />
<line x1="576.8939" y1="271.34555" x2="593.92584" y2="267.4715" stroke="#70f08e" stroke-width="0.5" />
<line x1="593.92584" y1="267.4715" x2="623.1472" y2="240.26082" stroke="#6ff08f" stroke-width="0.5" stroke-dasharray="3 3"/>
<line x1="623.1472" y1="240.26082" x2="689.15967" y2="251.14511" stroke="#6ef090" stroke-width="0.5" stroke-dasharray="3 3"/>
<line x1="689.15967" y1="251.14511" x2="702.57367" y2="261.47595" stroke="#6ef090" stroke-width="0.5" />
<line x1="702.57367" y1="261.47595" x2="722.61115" y2="247.64001" stroke="#4af0b4" stroke-width="0.5" stroke-dasharray="3 3"/>
<line x1="722.61115" y1="247.64001" x2="736.02515" y2="257.50964" stroke="#4af0b4" stroke-width="0.5" />
<line x1="736.02515" y1="257.50964" x2="741.9807" y2="273.83603" stroke="#4af0b4" stroke-width="0.5" />
<line x1="741.9807" y1="273.83603" x2="756.0627" y2="284.25903" stroke="#49f0b5" stroke-width="0.5" />
<line x1="756.0627" y1="284.25903" x2="776.93506" y2="366.35083" stroke="#48f0b6" stroke-width="0.5" stroke-dasharray="3 3"/>
<line x1="776.93506" y1="366.35083" x2="782.0001" y2="382.21555" stroke="#48f0b6" stroke-width="0.5" />
<line x1="782.0001" y1="382.21555" x2="831.59296" y2="516.78656" stroke="#47f0b7" stroke-width="0.5" stroke-dasharray="3 3"/>
<line x1="831.59296" y1="516.78656" x2="832.14954" y2="499.4466" stroke="#46f0b8" stroke-width="0.5" />
<line x1="832.14954" y1="499.4466" x2="826.1939" y2="480.16965" stroke="#46f0b8" stroke-width="0.5" />
<line x1="826.1939" y1="480.16965" x2="841.1108" y2="468.82483" stroke="#46f0b8" stroke-width="0.5" />
<line x1="841.1108" y1="468.82483" x2="858.47656" y2="472.2375" stroke="#45f0b9" stroke-width="0.5" />
<line x1="858.47656" y1="472.2375" x2="834.5429" y2="500.0" stroke="#44f0ba" stroke-width="0.5" />
<line x1="834.5429" y1="500.0" x2="850.9625" y2="507.3787" stroke="#42f0bc" stroke-width="0.5" />
<line x1="850.9625" y1="507.3787" x2="868.32837" y2="506.45636" stroke="#41f0bd" stroke-width="0.5" />
<line x1="868.32837" y1="506.45636" x2="880.8518" y2="520.2914" stroke="#3ef0c0" stroke-width="0.5" />
<line x1="880.8518" y1="520.2914" x2="888.0319" y2="535.6021" stroke="#3ef0c0" stroke-width="0.5" />
<line x1="888.0319" y1="535.6021" x2="885.30457" y2="518.8157" stroke="#3ef0c0" stroke-width="0.5" />
<line x1="885.30457" y1="518.8157" x2="876.6773" y2="504.42722" stroke="#3cf0c2" stroke-width="0.5" />
<line x1="876.6773" y1="504.42722" x2="873.05945" y2="488.1018" stroke="#3cf0c2" stroke-width="0.5" />
<line x1="873.05945" y1="488.1018" x2="845.89746" y2="527.2089" stroke="#3bf0c3" stroke-width="0.5" stroke-dasharray="3 3"/>
<line x1="845.89746" y1="527.2089" x2="872.1689" y2="533.1118" stroke="#3bf0c3" stroke-width="0.5" />
<line x1="872.1689" y1="533.1118" x2="893.0969" y2="526.19434" stroke="#3bf0c3" stroke-width="0.5" />
<line x1="893.0969" y1="526.19434" x2="909.79486" y2="528.68463" stroke="#3bf0c3" stroke-width="0.5" />
<line x1="909.79486" y1="528.68463" x2="888.0319" y2="558.3836" stroke="#3bf0c3" stroke-width="0.5" stroke-dasharray="3 3"/>
<line x1="888.0319" y1="558.3836" x2="882.3546" y2="542.0584" stroke="#3bf0c3" stroke-width="0.5" />
<line x1="882.3546" y1="542.0584" x2="863.5416" y2="531.6361" stroke="#3bf0c3" stroke-width="0.5" />
<line x1="863.5416" y1="531.6361" x2="868.88495" y2="547.96136" stroke="#3bf0c3" stroke-width="0.5" />
<line x1="868.88495" y1="547.96136" x2="854.5804" y2="539.107" stroke="#39f0c5" stroke-width="0.5" />
<line x1="854.5804" y1="539.107" x2="838.16077" y2="529.6992" stroke="#38f0c6" stroke-width="0.5" />
<line x1="838.16077" y1="529.6992" x2="823.24396" y2="521.30597" stroke="#38f0c6" stroke-width="0.5" />
<line x1="823.24396" y1="521.30597" x2="807.9932" y2="514.2962" stroke="#37f0c7" stroke-width="0.5" />
<line x1="807.9932" y1="514.2962" x2="794.5792" y2="504.42722" stroke="#35f0c9" stroke-width="0.5" />
<line x1="794.5792" y1="504.42722" x2="777.2134" y2="368.38004" stroke="#34f0ca" stroke-width="0.5" stroke-dasharray="3 3"/>
<line x1="777.2134" y1="368.38004" x2="768.3078" y2="353.06866" stroke="#34f0ca" stroke-width="0.5" />
<line x1="768.3078" y1="353.06866" x2="774.8757" y2="337.665" stroke="#34f0ca" stroke-width="0.5" />
<line x1="774.8757" y1="337.665" x2="766.471" y2="299.10947" stroke="#33f0cb" stroke-width="0.5" />
<line x1="766.471" y1="299.10947" x2="726.78564" y2="255.57262" stroke="#33f0cb" stroke-width="0.5" stroke-dasharray="3 3"/>
<line x1="726.78564" y1="255.57262" x2="710.03204" y2="259.5389" stroke="#33f0cb" stroke-width="0.5" />
<line x1="710.03204" y1="259.5389" x2="695.11523" y2="252.06752" stroke="#33f0cb" stroke-width="0.5" />
<line x1="695.11523" y1="252.06752" x2="686.154" y2="237.2169" stroke="#33f0cb" stroke-width="0.5" />
<line x1="686.154" y1="237.2169" x2="594.2041" y2="264.4276" stroke="#32f0cc" stroke-width="0.5" stroke-dasharray="3 3"/>
<line x1="594.2041" y1="264.4276" x2="576.61566" y2="264.98105" stroke="#32f0cc" stroke-width="0.5" />
<line x1="576.61566" y1="264.98105" x2="559.58374" y2="263.9664" stroke="#31f0cd" stroke-width="0.5" />
<line x1="559.58374" y1="263.9664" x2="542.5519" y2="265.90344" stroke="#31f0cd" stroke-width="0.5" />
<line x1="542.5519" y1="265.90344" x2="528.8039" y2="275.86526" stroke="#31f0cd" stroke-width="0.5" />
<line x1="528.8039" y1="275.86526" x2="519.2861" y2="290.16232" stroke="#31f0cd" stroke-width="0.5" />
<line x1="519.2861" y1="290.16232" x2="506.1504" y2="303.0757" stroke="#31f0cd" stroke-width="0.5" />
<line x1="506.1504" y1="303.0757" x2="493.90524" y2="314.9745" stroke="#31f0cd" stroke-width="0.5" />
<line x1="493.90524" y1="314.9745" x2="486.72516" y2="331.3006" stroke="#31f0cd" stroke-width="0.5" />
<line x1="486.72516" y1="331.3006" x2="469.08102" y2="327.33438" stroke="#30f0ce" stroke-width="0.5" />
<line x1="469.08102" y1="327.33438" x2="452.66138" y2="321.89233" stroke="#30f0ce" stroke-width="0.5" />
<line x1="452.66138" y1="321.89233" x2="440.13794" y2="310.4548" stroke="#30f0ce" stroke-width="0.5" />
<line x1="440.13794" y1="310.4548" x2="361.32373" y2="293.2062" stroke="#2ff0cf" stroke-width="0.5" stroke-dasharray="3 3"/>
<line x1="361.32373" y1="293.2062" x2="342.78906" y2="292.65277" stroke="#2ff0cf" stroke-width="0.5" />
<line x1="342.78906" y1="292.65277" x2="325.75717" y2="298.09485" stroke="#2ff0cf" stroke-width="0.5" />
<line x1="325.75717" y1="298.09485" x2="271.71155" y2="346.61206" stroke="#2ff0cf" stroke-width="0.5" stroke-dasharray="3 3"/>
<line x1="271.71155" y1="346.61206" x2="253.51082" y2="345.59744" stroke="#2ef0d0" stroke-width="0.5" />
<line x1="253.51082" y1="345.59744" x2="243.993" y2="331.76178" stroke="#2af0d4" stroke-width="0.5" />
<line x1="243.993" y1="331.76178" x2="229.91109" y2="322.8147" stroke="#28f0d6" stroke-width="0.5" />
<line x1="229.91109" y1="322.8147" x2="221.00552" y2="338.21844" stroke="#21f0dd" stroke-width="0.5" />
<line x1="221.00552" y1="338.21844" x2="237.09119" y2="346.15088" stroke="#1bf0e3" stroke-width="0.5" />
<line x1="237.09119" y1="346.15088" x2="249.33633" y2="334.7134" stroke="#17f0e7" stroke-width="0.5" />
<line x1="249.33633" y1="334.7134" x2="257.407" y2="350.57825" stroke="#14f0ea" stroke-width="0.5" />
<line x1="257.407" y1="350.57825" x2="272.93607" y2="344.12164" stroke="#14f0ea" stroke-width="0.5" />
<line x1="272.93607" y1="344.12164" x2="281.28503" y2="329.73254" stroke="#14f0ea" stroke-width="0.5" />
<line x1="281.28503" y1="329.73254" x2="288.74344" y2="314.9745" stroke="#13f0eb" stroke-width="0.5" />
<line x1="288.74344" y1="314.9745" x2="325.75717" y2="273.37482" stroke="#10f0ee" stroke-width="0.5" stroke-dasharray="3 3"/>
<line x1="325.75717" y1="273.37482" x2="342.1768" y2="270.42316" stroke="#0ff0ef" stroke-width="0.5" />
<line x1="342.1768" y1="270.42316" x2="348.18805" y2="254.55798" stroke="#0ff0ef" stroke-width="0.5" />
<line x1="358.65207" y1="262.95178" x2="373.56888" y2="271.899" stroke="#85f079" stroke-width="0.5" />
<line x1="373.56888" y1="271.899" x2="389.65454" y2="281.30737" stroke="#85f079" stroke-width="0.5" />
<line x1="389.65454" y1="281.30737" x2="449.37747" y2="322.35352" stroke="#84f07a" stroke-width="0.5" stroke-dasharray="3 3"/>
<line x1="449.37747" y1="322.35352" x2="463.12543" y2="332.7764" stroke="#84f07a" stroke-width="0.5" />
<line x1="463.12543" y1="332.7764" x2="478.3762" y2="340.6166" stroke="#84f07a" stroke-width="0.5" />
<line x1="478.3762" y1="340.6166" x2="472.9772" y2="357.49606" stroke="#83f07b" stroke-width="0.5" />
<line x1="472.9772" y1="357.49606" x2="464.34995" y2="371.79282" stroke="#82f07c" stroke-width="0.5" />
<line x1="464.34995" y1="371.79282" x2="455.66702" y2="386.18173" stroke="#81f07d" stroke-width="0.5" />
<line x1="455.66702" y1="386.18173" x2="453.27365" y2="368.84122" stroke="#81f07d" stroke-width="0.5" />
<line x1="453.27365" y1="368.84122" x2="441.0285" y2="380.73978" stroke="#80f07e" stroke-width="0.5" />
<line x1="441.0285" y1="380.73978" x2="450.268" y2="394.57526" stroke="#80f07e" stroke-width="0.5" />
<line x1="450.268" y1="394.57526" x2="435.0729" y2="387.6575" stroke="#7ef080" stroke-width="0.5" />
<line x1="435.0729" y1="387.6575" x2="432.40125" y2="370.87042" stroke="#7df081" stroke-width="0.5" />
<line x1="432.40125" y1="370.87042" x2="444.03412" y2="357.49606" stroke="#7df081" stroke-width="0.5" />
<line x1="444.03412" y1="357.49606" x2="460.11978" y2="361.92343" stroke="#7cf082" stroke-width="0.5" />
<line x1="460.11978" y1="361.92343" x2="453.55194" y2="377.23477" stroke="#7bf083" stroke-width="0.5" />
<line x1="453.55194" y1="377.23477" x2="461.3443" y2="392.08487" stroke="#7bf083" stroke-width="0.5" />
<line x1="461.3443" y1="392.08487" x2="470.58383" y2="364.41385" stroke="#73f08b" stroke-width="0.5" stroke-dasharray="3 3"/>
<line x1="470.58383" y1="364.41385" x2="477.48563" y2="347.62668" stroke="#72f08c" stroke-width="0.5" />
<line x1="477.48563" y1="347.62668" x2="487.3374" y2="332.7764" stroke="#72f08c" stroke-width="0.5" />
<line x1="487.3374" y1="332.7764" x2="494.46185" y2="316.4503" stroke="#72f08c" stroke-width="0.5" />
<line x1="494.46185" y1="316.4503" x2="503.14478" y2="302.0611" stroke="#72f08c" stroke-width="0.5" />
<line x1="503.14478" y1="302.0611" x2="513.27484" y2="287.67188" stroke="#72f08c" stroke-width="0.5" />
<line x1="513.27484" y1="287.67188" x2="521.95776" y2="273.37482" stroke="#72f08c" stroke-width="0.5" />
<line x1="521.95776" y1="273.37482" x2="535.37177" y2="262.95178" stroke="#71f08d" stroke-width="0.5" />
<line x1="535.37177" y1="262.95178" x2="552.68195" y2="263.50522" stroke="#71f08d" stroke-width="0.5" />
<line x1="552.68195" y1="263.50522" x2="568.545" y2="272.3602" stroke="#70f08e" stroke-width="0.5" />
<line x1="568.545" y1="272.3602" x2="586.1335" y2="271.899" stroke="#6ff08f" stroke-width="0.5" />
<line x1="586.1335" y1="271.899" x2="604.0559" y2="268.3939" stroke="#6ff08f" stroke-width="0.5" />
<line x1="604.0559" y1="268.3939" x2="614.5199" y2="254.09679" stroke="#6ff08f" stroke-width="0.5" />
<line x1="614.5199" y1="254.09679" x2="627.32166" y2="238.23154" stroke="#6ff08f" stroke-width="0.5" />
<line x1="627.32166" y1="238.23154" x2="689.15967" y2="249.11584" stroke="#6ef090" stroke-width="0.5" stroke-dasharray="3 3"/>
<line x1="689.15967" y1="249.11584" x2="704.6887" y2="258.98547" stroke="#6ef090" stroke-width="0.5" />
<line x1="704.6887" y1="258.98547" x2="734.8563" y2="292.19156" stroke="#68f096" stroke-width="0.5" stroke-dasharray="3 3"/>
<line x1="734.8563" y1="292.19156" x2="856.97375" y2="515.3108" stroke="#3ef0c0" stroke-width="0.5" stroke-dasharray="3 3"/>
<line x1="856.97375" y1="515.3108" x2="865.601" y2="529.6992" stroke="#3ef0c0" stroke-width="0.5" />
<line x1="865.601" y1="529.6992" x2="870.1095" y2="546.0245" stroke="#3af0c4" stroke-width="0.5" />
<line x1="870.1095" y1="546.0245" x2="853.0776" y2="543.5342" stroke="#39f0c5" stroke-width="0.5" />
<line x1="853.0776" y1="543.5342" x2="839.05133" y2="533.6652" stroke="#38f0c6" stroke-width="0.5" />
<line x1="839.05133" y1="533.6652" x2="830.3684" y2="519.27686" stroke="#37f0c7" stroke-width="0.5" />
<line x1="830.3684" y1="519.27686" x2="813.0582" y2="517.33997" stroke="#37f0c7" stroke-width="0.5" />
<line x1="813.0582" y1="517.33997" x2="801.42535" y2="510.33017" stroke="#35f0c9" stroke-width="0.5" stroke-dasharray="3 3"/>
<line x1="801.42535" y1="510.33017" x2="774.5417" y2="360.90884" stroke="#34f0ca" stroke-width="0.5" stroke-dasharray="3 3"/>
<line x1="774.5417" y1="360.90884" x2="767.0833" y2="346.15088" stroke="#34f0ca" stroke-width="0.5" />
<line x1="767.0833" y1="346.15088" x2="775.76624" y2="329.73254" stroke="#34f0ca" stroke-width="0.5" />
<line x1="775.76624" y1="329.73254" x2="277.7228" y2="337.20383" stroke="#2ef0d0" stroke-width="0.5" stroke-dasharray="3 3"/>
<line x1="277.7228" y1="337.20383" x2="269.65213" y2="352.05405" stroke="#2ef0d0" stroke-width="0.5" />
<line x1="269.65213" y1="352.05405" x2="253.23251" y2="349.10245" stroke="#2ef0d0" stroke-width="0.5" />
<line x1="253.23251" y1="349.10245" x2="243.04678" y2="335.1746" stroke="#2af0d4" stroke-width="0.5" />
<line x1="243.04678" y1="335.1746" x2="239.20627" y2="317.9261" stroke="#29f0d5" stroke-width="0.5" />
<line x1="239.20627" y1="317.9261" x2="233.195" y2="334.2522" stroke="#21f0dd" stroke-width="0.5" />
<line x1="233.195" y1="334.2522" x2="245.16185" y2="347.07324" stroke="#1bf0e3" stroke-width="0.5" />
<line x1="245.16185" y1="347.07324" x2="258.57587" y2="357.03488" stroke="#14f0ea" stroke-width="0.5" />
<line x1="258.57587" y1="357.03488" x2="269.0399" y2="340.6166" stroke="#13f0eb" stroke-width="0.5" />
<line x1="269.0399" y1="340.6166" x2="280.11618" y2="328.25674" stroke="#13f0eb" stroke-width="0.5" />
<line x1="280.11618" y1="328.25674" x2="289.634" y2="313.95984" stroke="#13f0eb" stroke-width="0.5" />
<line x1="289.634" y1="313.95984" x2="322.8072" y2="269.40854" stroke="#13f0eb" stroke-width="0.5" stroke-dasharray="3 3"/>
<line x1="322.8072" y1="269.40854" x2="341.00793" y2="270.42316" stroke="#0ff0ef" stroke-width="0.5" />
<line x1="341.00793" y1="270.42316" x2="352.36252" y2="258.06308" stroke="#0ff0ef" stroke-width="0.5" />
<line x1="352.36252" y1="258.06308" x2="354.42194" y2="240.72202" stroke="#0ff0ef" stroke-width="0.5" />
<line x1="352.36252" y1="247.1788" x2="358.9304" y2="262.95178" stroke="#85f079" stroke-width="0.5" />
<line x1="358.9304" y1="262.95178" x2="377.40942" y2="272.91364" stroke="#85f079" stroke-width="0.5" />
<line x1="377.40942" y1="272.91364" x2="393.27243" y2="281.30737" stroke="#85f079" stroke-width="0.5" />
<line x1="393.27243" y1="281.30737" x2="453.55194" y2="326.31976" stroke="#84f07a" stroke-width="0.5" stroke-dasharray="3 3"/>
<line x1="453.55194" y1="326.31976" x2="465.7971" y2="339.1408" stroke="#84f07a" stroke-width="0.5" />
<line x1="465.7971" y1="339.1408" x2="480.76956" y2="346.61206" stroke="#84f07a" stroke-width="0.5" />
<line x1="480.76956" y1="346.61206" x2="476.2611" y2="362.93805" stroke="#83f07b" stroke-width="0.5" />
<line x1="476.2611" y1="362.93805" x2="462.51315" y2="372.8074" stroke="#82f07c" stroke-width="0.5" />
<line x1="462.51315" y1="372.8074" x2="451.49252" y2="386.18173" stroke="#81f07d" stroke-width="0.5" />
<line x1="451.49252" y1="386.18173" x2="434.73895" y2="387.19632" stroke="#7ef080" stroke-width="0.5" />
<line x1="434.73895" y1="387.19632" x2="431.78897" y2="370.87042" stroke="#7df081" stroke-width="0.5" />
<line x1="431.78897" y1="370.87042" x2="439.85965" y2="356.02026" stroke="#7df081" stroke-width="0.5" />
<line x1="439.85965" y1="356.02026" x2="456.27927" y2="352.51526" stroke="#7cf082" stroke-width="0.5" />
<line x1="456.27927" y1="352.51526" x2="458.0604" y2="369.85583" stroke="#7cf082" stroke-width="0.5" />
<line x1="458.0604" y1="369.85583" x2="460.45377" y2="390.60907" stroke="#7bf083" stroke-width="0.5" />
<line x1="460.45377" y1="390.60907" x2="727.0639" y2="291.63812" stroke="#69f095" stroke-width="0.5" stroke-dasharray="3 3"/>
<line x1="727.0639" y1="291.63812" x2="858.7549" y2="507.9321" stroke="#3ef0c0" stroke-width="0.5" stroke-dasharray="3 3"/>
<line x1="858.7549" y1="507.9321" x2="866.4916" y2="523.24286" stroke="#3ef0c0" stroke-width="0.5" />
<line x1="866.4916" y1="523.24286" x2="245.77411" y2="345.59744" stroke="#26f0d8" stroke-width="0.5" stroke-dasharray="3 3"/>
<line x1="245.77411" y1="345.59744" x2="249.33633" y2="370.87042" stroke="#24f0da" stroke-width="0.5" />
<line x1="249.33633" y1="370.87042" x2="234.69783" y2="358.51068" stroke="#1ef0e0" stroke-width="0.5" />
<line x1="234.69783" y1="358.51068" x2="233.52898" y2="338.67963" stroke="#1cf0e2" stroke-width="0.5" />
<line x1="233.52898" y1="338.67963" x2="230.24504" y2="321.89233" stroke="#1cf0e2" stroke-width="0.5" />
<line x1="230.24504" y1="321.89233" x2="217.7216" y2="334.2522" stroke="#1cf0e2" stroke-width="0.5" />
<line x1="217.7216" y1="334.2522" x2="217.7216" y2="356.48145" stroke="#1cf0e2" stroke-width="0.5" />
<line x1="217.7216" y1="356.48145" x2="235.31007" y2="352.05405" stroke="#1cf0e2" stroke-width="0.5" />
<line x1="235.31007" y1="352.05405" x2="253.23251" y2="348.08786" stroke="#1cf0e2" stroke-width="0.5" />
<line x1="253.23251" y1="348.08786" x2="249.33633" y2="366.35083" stroke="#1cf0e2" stroke-width="0.5" />
<line x1="249.33633" y1="366.35083" x2="232.91672" y2="368.84122" stroke="#1bf0e3" stroke-width="0.5" />
<line x1="232.91672" y1="368.84122" x2="222.17438" y2="344.12164" stroke="#1bf0e3" stroke-width="0.5" />
<line x1="222.17438" y1="344.12164" x2="236.20064" y2="334.7134" stroke="#1bf0e3" stroke-width="0.5" />
<circle cx="475.4418" cy="350.44046" r="8.305749" stroke="#84f07a" stroke-width="1.0" fill="#00f" fill-opacity="0.1"/>
<circle cx="469.1043" cy="370.40118" r="12.458623" stroke="#83f07b" stroke-width="1.0" fill="#00f" fill-opacity="0.1"/>
<circle cx="556.2557" cy="271.22174" r="8.305749" stroke="#72f08c" stroke-width="1.0" fill="#00f" fill-opacity="0.1"/>
<circle cx="718.7535" cy="271.2288" r="12.458623" stroke="#6ef090" stroke-width="1.0" fill="#f00" fill-opacity="0.1"/>
<circle cx="785.1296" cy="341.11694" r="8.305749" stroke="#49f0b5" stroke-width="1.0" fill="#00f" fill-opacity="0.1"/>
<circle cx="834.9926" cy="493.04987" r="8.305749" stroke="#47f0b7" stroke-width="1.0" fill="#f00" fill-opacity="0.1"/>
<circle cx="265.38147" cy="358.33255" r="8.305749" stroke="#2ff0cf" stroke-width="1.0" fill="#00f" fill-opacity="0.1"/>
<circle cx="251.73965" cy="329.16998" r="12.458623" stroke="#29f0d5" stroke-width="1.0" fill="#0f0" fill-opacity="0.1"/>
<circle cx="226.93326" cy="346.12796" r="8.305749" stroke="#21f0dd" stroke-width="1.0" fill="#ff0" fill-opacity="0.1"/>
<circle cx="475.32623" cy="350.14374" r="8.305749" stroke="#84f07a" stroke-width="1.0" fill="#00f" fill-opacity="0.1"/>
<circle cx="467.84952" cy="374.02063" r="12.458623" stroke="#83f07b" stroke-width="1.0" fill="#00f" fill-opacity="0.1"/>
<circle cx="557.65594" cy="267.41925" r="8.305749" stroke="#71f08d" stroke-width="1.0" fill="#00f" fill-opacity="0.1"/>
<circle cx="718.70215" cy="271.77905" r="12.458623" stroke="#6ef090" stroke-width="1.0" fill="#f00" fill-opacity="0.1"/>
<circle cx="834.6249" cy="494.75018" r="8.305749" stroke="#46f0b8" stroke-width="1.0" fill="#f00" fill-opacity="0.1"/>
<circle cx="867.48083" cy="554.3245" r="16.611498" stroke="#3af0c4" stroke-width="1.0" fill="#0f0" fill-opacity="0.1"/>
<circle cx="783.25946" cy="342.1486" r="8.305749" stroke="#34f0ca" stroke-width="1.0" fill="#00f" fill-opacity="0.1"/>
<circle cx="265.6883" cy="359.5965" r="8.305749" stroke="#2ef0d0" stroke-width="1.0" fill="#00f" fill-opacity="0.1"/>
<circle cx="252.86836" cy="330.57135" r="12.458623" stroke="#29f0d5" stroke-width="1.0" fill="#0f0" fill-opacity="0.1"/>
<circle cx="223.85703" cy="341.8601" r="8.305749" stroke="#21f0dd" stroke-width="1.0" fill="#ff0" fill-opacity="0.1"/>
<circle cx="358.3099" cy="256.68777" r="12.458623" stroke="#08f0f6" stroke-width="1.0" fill="#0f0" fill-opacity="0.1"/>
<circle cx="479.11188" cy="349.2707" r="8.305749" stroke="#84f07a" stroke-width="1.0" fill="#00f" fill-opacity="0.1"/>
<circle cx="471.7652" cy="370.32092" r="12.458623" stroke="#83f07b" stroke-width="1.0" fill="#00f" fill-opacity="0.1"/>
<circle cx="719.0279" cy="267.09546" r="12.458623" stroke="#6bf093" stroke-width="1.0" fill="#f00" fill-opacity="0.1"/>
<circle cx="831.3408" cy="495.72952" r="8.305749" stroke="#40f0be" stroke-width="1.0" fill="#f00" fill-opacity="0.1"/>
<circle cx="263.66974" cy="356.23697" r="8.305749" stroke="#28f0d6" stroke-width="1.0" fill="#00f" fill-opacity="0.1"/>
<circle cx="264.69565" cy="360.3216" r="8.305749" stroke="#27f0d7" stroke-width="1.0" fill="#00f" fill-opacity="0.1"/>
<circle cx="250.7684" cy="365.37518" r="8.305749" stroke="#27f0d7" stroke-width="1.0" fill="#f00" fill-opacity="0.1"/>
<circle cx="227.5195" cy="343.11325" r="8.305749" stroke="#1cf0e2" stroke-width="1.0" fill="#ff0" fill-opacity="0.1"/>
</svg>
