<?xml version="1.0" standalone="no"?>
<!DOCTYPE svg PUBLIC "-//W3C//DTD SVG 1.1//EN" "http://www.w3.org/Graphics/SVG/1.1/DTD/svg11.dtd">
<svg opacity="20%" width="30cm" height="30cm" version="1.1" viewBox="0 0 10000 10000" xmlns="http://www.w3.org/2000/svg" xmlns:xlink="http://www.w3.org/1999/xlink">
<desc>DrawTrails of automics data, Mon Jul 25 14:51:47 BST 2011</desc>
<filter id="desaturate"  primitiveUnits="objectBoundingBox">
<feImage x="0%" y="0%" width="100%" height="100%" xlink:href="altontowers-zoom15.png"/>
<feColorMatrix type="matrix" values="0.3333 0.3333 0.3333 0 0 0.3333 0.3333 0.3333 0 0 0.3333 0.3333 0.3333 0 0 0      0      0      1 0"/>
<feColorMatrix type="matrix" values="0.05 0 0 0 0 0 0.05 0 0 0 0 0 0.05 0 0 0      0      0      1 0"/>
</filter>
<rect x="-2643.7028285176257" y="-2643.7028285176257" width="15287.405657035251" height="15287.405657035251" filter="url(#desaturate)"/>
<circle cx="1335.0841" cy="5173.3994" r="83.05749" stroke="#00f" stroke-width="0.0" fill="#00f"  fill-opacity="15%" stroke-opacity="20%"/>
<circle cx="1400.7627" cy="5232.4287" r="83.05749" stroke="#0f0" stroke-width="0.0" fill="#0f0"  fill-opacity="15%" stroke-opacity="20%"/>
<circle cx="964.9468" cy="5544.176" r="166.11497" stroke="#f00" stroke-width="0.0" fill="#f00"  fill-opacity="15%" stroke-opacity="20%"/>
<circle cx="3451.824" cy="6810.5103" r="124.58623" stroke="#0f0" stroke-width="0.0" fill="#0f0"  fill-opacity="15%" stroke-opacity="20%"/>
<circle cx="3386.1455" cy="7513.294" r="83.05749" stroke="#f00" stroke-width="0.0" fill="#f00"  fill-opacity="15%" stroke-opacity="20%"/>
<circle cx="2935.3018" cy="7374.9517" r="83.05749" stroke="#00f" stroke-width="0.0" fill="#00f"  fill-opacity="15%" stroke-opacity="20%"/>
<circle cx="4553.887" cy="6845.557" r="83.05749" stroke="#0f0" stroke-width="0.0" fill="#0f0"  fill-opacity="15%" stroke-opacity="20%"/>
<circle cx="4765.3945" cy="7033.7056" r="83.05749" stroke="#00f" stroke-width="0.0" fill="#00f"  fill-opacity="15%" stroke-opacity="20%"/>
<circle cx="4646.282" cy="7350.05" r="41.528744" stroke="#ff0" stroke-width="0.0" fill="#ff0"  fill-opacity="15%" stroke-opacity="20%"/>
<circle cx="4891.1855" cy="7513.294" r="124.58623" stroke="#f00" stroke-width="0.0" fill="#f00"  fill-opacity="15%" stroke-opacity="20%"/>
<circle cx="4768.734" cy="3485.4905" r="83.05749" stroke="#00f" stroke-width="0.0" fill="#00f"  fill-opacity="15%" stroke-opacity="20%"/>
<circle cx="4696.9326" cy="3723.4622" r="124.58623" stroke="#00f" stroke-width="0.0" fill="#00f"  fill-opacity="15%" stroke-opacity="20%"/>
<circle cx="5097.126" cy="3267.8096" r="124.58623" stroke="#0f0" stroke-width="0.0" fill="#0f0"  fill-opacity="15%" stroke-opacity="20%"/>
<circle cx="4858.3457" cy="3376.6501" r="124.58623" stroke="#0f0" stroke-width="0.0" fill="#0f0"  fill-opacity="15%" stroke-opacity="20%"/>
<circle cx="4771.5166" cy="3149.7449" r="315.61847" stroke="#0f0" stroke-width="0.0" fill="#0f0"  fill-opacity="15%" stroke-opacity="20%"/>
<circle cx="5084.881" cy="3263.1978" r="58.14024" stroke="#0f0" stroke-width="0.0" fill="#0f0"  fill-opacity="15%" stroke-opacity="20%"/>
<circle cx="5255.2" cy="2753.1187" r="166.11497" stroke="#0f0" stroke-width="0.0" fill="#0f0"  fill-opacity="15%" stroke-opacity="20%"/>
<circle cx="7850.0576" cy="3406.166" r="83.05749" stroke="#00f" stroke-width="0.0" fill="#00f"  fill-opacity="15%" stroke-opacity="20%"/>
<circle cx="7196.055" cy="2694.0854" r="124.58623" stroke="#f00" stroke-width="0.0" fill="#f00"  fill-opacity="15%" stroke-opacity="20%"/>
<circle cx="7739.2944" cy="3470.7324" r="166.11497" stroke="#0f0" stroke-width="0.0" fill="#0f0"  fill-opacity="15%" stroke-opacity="20%"/>
<circle cx="8673.821" cy="5529.419" r="166.11497" stroke="#0f0" stroke-width="0.0" fill="#0f0"  fill-opacity="15%" stroke-opacity="20%"/>
<circle cx="8548.587" cy="5356.021" r="83.05749" stroke="#0f0" stroke-width="0.0" fill="#0f0"  fill-opacity="15%" stroke-opacity="20%"/>
<circle cx="8754.528" cy="5860.5327" r="166.11497" stroke="#0f0" stroke-width="0.0" fill="#0f0"  fill-opacity="15%" stroke-opacity="20%"/>
<circle cx="9244.334" cy="5964.755" r="124.58623" stroke="#00f" stroke-width="0.0" fill="#00f"  fill-opacity="15%" stroke-opacity="20%"/>
<circle cx="9232.6455" cy="6657.408" r="166.11497" stroke="#f00" stroke-width="0.0" fill="#f00"  fill-opacity="15%" stroke-opacity="20%"/>
<circle cx="9038.393" cy="6107.714" r="207.64372" stroke="#0f0" stroke-width="0.0" fill="#0f0"  fill-opacity="15%" stroke-opacity="20%"/>
<circle cx="3595.4263" cy="3183.873" r="207.64372" stroke="#00f" stroke-width="0.0" fill="#00f"  fill-opacity="15%" stroke-opacity="20%"/>
<circle cx="2263.4885" cy="3441.2163" r="83.05749" stroke="#ff0" stroke-width="0.0" fill="#ff0"  fill-opacity="15%" stroke-opacity="20%"/>
<circle cx="6414.0356" cy="2763.2646" r="166.11497" stroke="#f00" stroke-width="0.0" fill="#f00"  fill-opacity="15%" stroke-opacity="20%"/>
<circle cx="6712.372" cy="2679.3271" r="83.05749" stroke="#ff0" stroke-width="0.0" fill="#ff0"  fill-opacity="15%" stroke-opacity="20%"/>
<circle cx="1579.9868" cy="5732.33" r="124.58623" stroke="#ff0" stroke-width="0.0" fill="#ff0"  fill-opacity="15%" stroke-opacity="20%"/>
<circle cx="1498.2428" cy="5392.509" r="207.64372" stroke="#00f" stroke-width="0.0" fill="#00f"  fill-opacity="15%" stroke-opacity="20%"/>
<circle cx="2517.1519" cy="3306.4573" r="124.58623" stroke="#0f0" stroke-width="0.0" fill="#0f0"  fill-opacity="15%" stroke-opacity="20%"/>
<circle cx="3596.0352" cy="2551.7507" r="124.58623" stroke="#0f0" stroke-width="0.0" fill="#0f0"  fill-opacity="15%" stroke-opacity="20%"/>
<circle cx="3145.0913" cy="2460.009" r="124.58623" stroke="#0f0" stroke-width="0.0" fill="#0f0"  fill-opacity="15%" stroke-opacity="20%"/>
<circle cx="2636.9656" cy="3579.5725" r="83.05749" stroke="#00f" stroke-width="0.0" fill="#00f"  fill-opacity="15%" stroke-opacity="20%"/>
<circle cx="2900.8867" cy="3955.6956" r="83.05749" stroke="#0f0" stroke-width="0.0" fill="#0f0"  fill-opacity="15%" stroke-opacity="20%"/>
<circle cx="5578.027" cy="2689.4731" r="83.05749" stroke="#00f" stroke-width="0.0" fill="#00f"  fill-opacity="15%" stroke-opacity="20%"/>
<circle cx="8330.958" cy="4945.582" r="83.05749" stroke="#f00" stroke-width="0.0" fill="#f00"  fill-opacity="15%" stroke-opacity="20%"/>
<circle cx="2532.3252" cy="3654.2844" r="83.05749" stroke="#f00" stroke-width="0.0" fill="#f00"  fill-opacity="15%" stroke-opacity="20%"/>
<line x1="3523.6252" y1="2471.788" x2="3589.304" y2="2629.5178" stroke="#85f079" stroke-width="5.0" />
<line x1="3589.304" y1="2629.5178" x2="3774.0942" y2="2729.1362" stroke="#85f079" stroke-width="5.0" />
<line x1="3774.0942" y1="2729.1362" x2="3932.7244" y2="2813.0737" stroke="#85f079" stroke-width="5.0" />
<line x1="3932.7244" y1="2813.0737" x2="4535.5195" y2="3263.1978" stroke="#84f07a" stroke-width="5.0" stroke-dasharray="30 30"/>
<line x1="4535.5195" y1="3263.1978" x2="4657.9707" y2="3391.4082" stroke="#84f07a" stroke-width="5.0" />
<line x1="4657.9707" y1="3391.4082" x2="4807.696" y2="3466.1206" stroke="#84f07a" stroke-width="5.0" />
<line x1="4807.696" y1="3466.1206" x2="4762.6113" y2="3629.3804" stroke="#83f07b" stroke-width="5.0" />
<line x1="4762.6113" y1="3629.3804" x2="4625.1313" y2="3728.074" stroke="#82f07c" stroke-width="5.0" />
<line x1="4625.1313" y1="3728.074" x2="4514.9253" y2="3861.8174" stroke="#81f07d" stroke-width="5.0" />
<line x1="4514.9253" y1="3861.8174" x2="4347.3896" y2="3871.9631" stroke="#7ef080" stroke-width="5.0" />
<line x1="4347.3896" y1="3871.9631" x2="4317.8896" y2="3708.704" stroke="#7df081" stroke-width="5.0" />
<line x1="4317.8896" y1="3708.704" x2="4398.5967" y2="3560.2026" stroke="#7df081" stroke-width="5.0" />
<line x1="4398.5967" y1="3560.2026" x2="4562.7925" y2="3525.1526" stroke="#7cf082" stroke-width="5.0" />
<line x1="4562.7925" y1="3525.1526" x2="4580.604" y2="3698.5583" stroke="#7cf082" stroke-width="5.0" />
<line x1="4580.604" y1="3698.5583" x2="4604.5376" y2="3906.0908" stroke="#7bf083" stroke-width="5.0" />
<line x1="4604.5376" y1="3906.0908" x2="7270.639" y2="2916.3813" stroke="#69f095" stroke-width="5.0" stroke-dasharray="30 30"/>
<line x1="7270.639" y1="2916.3813" x2="8587.549" y2="5079.321" stroke="#3ef0c0" stroke-width="5.0" stroke-dasharray="30 30"/>
<line x1="8587.549" y1="5079.321" x2="8664.916" y2="5232.4287" stroke="#3ef0c0" stroke-width="5.0" />
<line x1="8664.916" y1="5232.4287" x2="2457.7412" y2="3455.9744" stroke="#26f0d8" stroke-width="5.0" stroke-dasharray="30 30"/>
<line x1="2457.7412" y1="3455.9744" x2="2493.3633" y2="3708.704" stroke="#24f0da" stroke-width="5.0" />
<line x1="2493.3633" y1="3708.704" x2="2346.9783" y2="3585.107" stroke="#1ef0e0" stroke-width="5.0" />
<line x1="2346.9783" y1="3585.107" x2="2335.2898" y2="3386.7964" stroke="#1cf0e2" stroke-width="5.0" />
<line x1="2335.2898" y1="3386.7964" x2="2302.4504" y2="3218.9233" stroke="#1cf0e2" stroke-width="5.0" />
<line x1="2302.4504" y1="3218.9233" x2="2177.216" y2="3342.522" stroke="#1cf0e2" stroke-width="5.0" />
<line x1="2177.216" y1="3342.522" x2="2177.216" y2="3564.8145" stroke="#1cf0e2" stroke-width="5.0" />
<line x1="2177.216" y1="3564.8145" x2="2353.1008" y2="3520.5405" stroke="#1cf0e2" stroke-width="5.0" />
<line x1="2353.1008" y1="3520.5405" x2="2532.3252" y2="3480.8787" stroke="#1cf0e2" stroke-width="5.0" />
<line x1="2532.3252" y1="3480.8787" x2="2493.3633" y2="3663.5083" stroke="#1cf0e2" stroke-width="5.0" />
<line x1="2493.3633" y1="3663.5083" x2="2329.1672" y2="3688.412" stroke="#1bf0e3" stroke-width="5.0" />
<line x1="2329.1672" y1="3688.412" x2="2221.7437" y2="3441.2163" stroke="#1bf0e3" stroke-width="5.0" />
<line x1="2221.7437" y1="3441.2163" x2="2362.0063" y2="3347.134" stroke="#1bf0e3" stroke-width="5.0" />
<g transform="translate(4756.7812 3440.714) rotate(26.519160503869113) scale(10.0)">
<path fill-opacity="0%" stroke="#00f" stroke-width="0.5" d="M -5 -10 L 0 0 5 -10 -5 -10"/>
</g>
<g transform="translate(4756.7812 3440.714) rotate(-63.48083949613088)">
<text x="150.0" y="50.0" font-size="100.0" fill="#888"  font-family="sans-serif">mutiny bay wet </text>
</g>
<g transform="translate(4791.917 3523.259) rotate(105.43759371013984) scale(10.0)">
<path fill-opacity="0%" stroke="#00f" stroke-width="0.5" d="M -4 8 L 0 0 4 8 -4 8"/>
</g>
<g transform="translate(4762.2295 3629.6545) rotate(144.3262667175379) scale(10.0)">
<path fill-opacity="0%" stroke="#00f" stroke-width="0.5" d="M -5 -10 L 0 0 5 -10 -5 -10"/>
</g>
<g transform="translate(4762.2295 3629.6545) rotate(54.32626671753789)">
<text x="150.0" y="50.0" font-size="100.0" fill="#888"  font-family="sans-serif">wet people </text>
</g>
<g transform="translate(6585.5786 3170.6895) rotate(-20.365920142751516) scale(10.0)">
<path fill-opacity="0%" stroke="#00f" stroke-width="0.5" d="M -4 8 L 0 0 4 8 -4 8"/>
</g>
<line x1="4668.499" y1="3882.3472" x2="4677.874" y2="3878.867" stroke="#a0a" stroke-width="80.0"  stroke-opacity="100%"/>
<line x1="4668.499" y1="3882.3472" x2="4677.874" y2="3878.867" stroke="#a0a" stroke-width="80.0"  stroke-opacity="100%"/>
<line x1="4668.499" y1="3882.3472" x2="4668.499" y2="3882.3472" stroke="#a0a" stroke-width="80.0"  stroke-opacity="30%"/>
<line x1="4668.499" y1="3882.3472" x2="4668.499" y2="3882.3472" stroke="#a0a" stroke-width="10.0"  stroke-opacity="100%"/>
<line x1="5146.7603" y1="3704.8071" x2="5156.1353" y2="3701.327" stroke="#f00" stroke-width="80.0"  stroke-opacity="100%"/>
<line x1="5146.7603" y1="3704.8071" x2="5156.1353" y2="3701.327" stroke="#f00" stroke-width="80.0"  stroke-opacity="100%"/>
<line x1="5146.7603" y1="3704.8071" x2="5146.7603" y2="3704.8071" stroke="#f00" stroke-width="80.0"  stroke-opacity="30%"/>
<line x1="5146.7603" y1="3704.8071" x2="5146.7603" y2="3704.8071" stroke="#f00" stroke-width="10.0"  stroke-opacity="100%"/>
<line x1="5243.907" y1="3668.744" x2="5253.282" y2="3665.2637" stroke="#f00" stroke-width="80.0"  stroke-opacity="100%"/>
<line x1="5243.907" y1="3668.744" x2="5253.282" y2="3665.2637" stroke="#f00" stroke-width="80.0"  stroke-opacity="100%"/>
<line x1="5243.907" y1="3668.744" x2="5243.907" y2="3668.744" stroke="#f00" stroke-width="80.0"  stroke-opacity="30%"/>
<line x1="5243.907" y1="3668.744" x2="5243.907" y2="3668.744" stroke="#f00" stroke-width="10.0"  stroke-opacity="100%"/>
<line x1="5244.685" y1="3668.4556" x2="5254.0596" y2="3664.9753" stroke="#f00" stroke-width="80.0"  stroke-opacity="100%"/>
<line x1="5244.685" y1="3668.4556" x2="5254.0596" y2="3664.9753" stroke="#f00" stroke-width="80.0"  stroke-opacity="100%"/>
<line x1="5244.685" y1="3668.4556" x2="5244.685" y2="3668.4556" stroke="#f00" stroke-width="80.0"  stroke-opacity="30%"/>
<line x1="5244.685" y1="3668.4556" x2="5244.685" y2="3668.4556" stroke="#f00" stroke-width="10.0"  stroke-opacity="100%"/>
<line x1="5260.504" y1="3662.583" x2="5269.879" y2="3659.1028" stroke="#a0a" stroke-width="80.0"  stroke-opacity="100%"/>
<line x1="5260.504" y1="3662.583" x2="5269.879" y2="3659.1028" stroke="#a0a" stroke-width="80.0"  stroke-opacity="100%"/>
<line x1="5260.504" y1="3662.583" x2="5260.504" y2="3662.583" stroke="#a0a" stroke-width="80.0"  stroke-opacity="30%"/>
<line x1="5260.504" y1="3662.583" x2="5260.504" y2="3662.583" stroke="#a0a" stroke-width="10.0"  stroke-opacity="100%"/>
<line x1="5275.536" y1="3657.003" x2="5284.911" y2="3653.523" stroke="#f00" stroke-width="80.0"  stroke-opacity="100%"/>
<line x1="5275.536" y1="3657.003" x2="5284.911" y2="3653.523" stroke="#f00" stroke-width="80.0"  stroke-opacity="100%"/>
<line x1="5275.536" y1="3657.003" x2="5275.536" y2="3657.003" stroke="#f00" stroke-width="80.0"  stroke-opacity="30%"/>
<line x1="5275.536" y1="3657.003" x2="5275.536" y2="3657.003" stroke="#f00" stroke-width="10.0"  stroke-opacity="100%"/>
<line x1="5280.792" y1="3655.0515" x2="5290.1665" y2="3651.5718" stroke="#a0a" stroke-width="80.0"  stroke-opacity="100%"/>
<line x1="5280.792" y1="3655.0515" x2="5290.1665" y2="3651.5718" stroke="#a0a" stroke-width="80.0"  stroke-opacity="100%"/>
<line x1="5280.792" y1="3655.0515" x2="5280.792" y2="3655.0515" stroke="#a0a" stroke-width="80.0"  stroke-opacity="30%"/>
<line x1="5280.792" y1="3655.0515" x2="5280.792" y2="3655.0515" stroke="#a0a" stroke-width="10.0"  stroke-opacity="100%"/>
<line x1="5283.3696" y1="3654.0947" x2="5292.7446" y2="3650.6147" stroke="#a0a" stroke-width="80.0"  stroke-opacity="100%"/>
<line x1="5283.3696" y1="3654.0947" x2="5292.7446" y2="3650.6147" stroke="#a0a" stroke-width="80.0"  stroke-opacity="100%"/>
<line x1="5283.3696" y1="3654.0947" x2="5283.3696" y2="3654.0947" stroke="#a0a" stroke-width="80.0"  stroke-opacity="30%"/>
<line x1="5283.3696" y1="3654.0947" x2="5283.3696" y2="3654.0947" stroke="#a0a" stroke-width="10.0"  stroke-opacity="100%"/>
<line x1="5306.69" y1="3645.4375" x2="5316.065" y2="3641.9578" stroke="#f00" stroke-width="80.0"  stroke-opacity="100%"/>
<line x1="5306.69" y1="3645.4375" x2="5316.065" y2="3641.9578" stroke="#f00" stroke-width="80.0"  stroke-opacity="100%"/>
<line x1="5306.69" y1="3645.4375" x2="5306.69" y2="3645.4375" stroke="#f00" stroke-width="80.0"  stroke-opacity="30%"/>
<line x1="5306.69" y1="3645.4375" x2="5306.69" y2="3645.4375" stroke="#f00" stroke-width="10.0"  stroke-opacity="100%"/>
<line x1="5366.588" y1="3623.2026" x2="5375.963" y2="3619.7222" stroke="#f00" stroke-width="80.0"  stroke-opacity="100%"/>
<line x1="5366.588" y1="3623.2026" x2="5375.963" y2="3619.7222" stroke="#f00" stroke-width="80.0"  stroke-opacity="100%"/>
<line x1="5366.588" y1="3623.2026" x2="5366.588" y2="3623.2026" stroke="#f00" stroke-width="80.0"  stroke-opacity="30%"/>
<line x1="5366.588" y1="3623.2026" x2="5366.588" y2="3623.2026" stroke="#f00" stroke-width="10.0"  stroke-opacity="100%"/>
<line x1="5526.728" y1="3563.7554" x2="5536.103" y2="3560.2754" stroke="#f00" stroke-width="80.0"  stroke-opacity="100%"/>
<line x1="5639.272" y1="3521.977" x2="5648.647" y2="3518.4966" stroke="#f00" stroke-width="80.0"  stroke-opacity="100%"/>
<line x1="5526.728" y1="3563.7554" x2="5639.272" y2="3521.977" stroke="#f00" stroke-width="80.0"  stroke-opacity="30%"/>
<line x1="5526.728" y1="3563.7554" x2="5639.272" y2="3521.977" stroke="#f00" stroke-width="10.0"  stroke-opacity="100%"/>
<line x1="5654.9863" y1="3516.143" x2="5664.3613" y2="3512.6633" stroke="#f00" stroke-width="80.0"  stroke-opacity="100%"/>
<line x1="5654.9863" y1="3516.143" x2="5664.3613" y2="3512.6633" stroke="#f00" stroke-width="80.0"  stroke-opacity="100%"/>
<line x1="5654.9863" y1="3516.143" x2="5654.9863" y2="3516.143" stroke="#f00" stroke-width="80.0"  stroke-opacity="30%"/>
<line x1="5654.9863" y1="3516.143" x2="5654.9863" y2="3516.143" stroke="#f00" stroke-width="10.0"  stroke-opacity="100%"/>
<g transform="translate(6993.256 3019.3516) rotate(-20.365920142751516) scale(10.0)">
<path fill-opacity="0%" stroke="#f00" stroke-width="0.5" d="M -5 -10 L 0 0 5 -10 -5 -10"/>
</g>
<g transform="translate(6993.256 3019.3516) rotate(-110.36592014275152)">
<text x="150.0" y="50.0" font-size="100.0" fill="#888"  font-family="sans-serif">mine train</text>
</g>
<g transform="translate(7269.446 2916.824) rotate(-20.365920142751516) scale(10.0)">
<path fill-opacity="0%" stroke="#f00" stroke-width="0.5" d="M -4 8 L 0 0 4 8 -4 8"/>
</g>
<line x1="7271.206" y1="2917.312" x2="7276.4062" y2="2925.8535" stroke="#f00" stroke-width="80.0"  stroke-opacity="100%"/>
<line x1="7279.503" y1="2930.9402" x2="7284.704" y2="2939.482" stroke="#f00" stroke-width="80.0"  stroke-opacity="100%"/>
<line x1="7271.206" y1="2917.312" x2="7279.503" y2="2930.9402" stroke="#f00" stroke-width="80.0"  stroke-opacity="30%"/>
<line x1="7271.206" y1="2917.312" x2="7279.503" y2="2930.9402" stroke="#f00" stroke-width="10.0"  stroke-opacity="100%"/>
<line x1="7631.6475" y1="3509.3145" x2="7636.848" y2="3517.856" stroke="#f00" stroke-width="80.0"  stroke-opacity="100%"/>
<line x1="7631.6475" y1="3509.3145" x2="7636.848" y2="3517.856" stroke="#f00" stroke-width="80.0"  stroke-opacity="100%"/>
<line x1="7631.6475" y1="3509.3145" x2="7631.6475" y2="3509.3145" stroke="#f00" stroke-width="80.0"  stroke-opacity="30%"/>
<line x1="7631.6475" y1="3509.3145" x2="7631.6475" y2="3509.3145" stroke="#f00" stroke-width="10.0"  stroke-opacity="100%"/>
<line x1="8000.105" y1="4114.482" x2="8005.305" y2="4123.0234" stroke="#0f0" stroke-width="80.0"  stroke-opacity="100%"/>
<line x1="8000.105" y1="4114.482" x2="8005.305" y2="4123.0234" stroke="#0f0" stroke-width="80.0"  stroke-opacity="100%"/>
<line x1="8000.105" y1="4114.482" x2="8000.105" y2="4114.482" stroke="#0f0" stroke-width="80.0"  stroke-opacity="30%"/>
<line x1="8000.105" y1="4114.482" x2="8000.105" y2="4114.482" stroke="#0f0" stroke-width="10.0"  stroke-opacity="100%"/>
<line x1="8001.802" y1="4117.2686" x2="8007.002" y2="4125.81" stroke="#f00" stroke-width="80.0"  stroke-opacity="100%"/>
<line x1="8001.802" y1="4117.2686" x2="8007.002" y2="4125.81" stroke="#f00" stroke-width="80.0"  stroke-opacity="100%"/>
<line x1="8001.802" y1="4117.2686" x2="8001.802" y2="4117.2686" stroke="#f00" stroke-width="80.0"  stroke-opacity="30%"/>
<line x1="8001.802" y1="4117.2686" x2="8001.802" y2="4117.2686" stroke="#f00" stroke-width="10.0"  stroke-opacity="100%"/>
<line x1="8010.1045" y1="4130.9053" x2="8015.3047" y2="4139.4473" stroke="#f00" stroke-width="80.0"  stroke-opacity="100%"/>
<line x1="8010.1045" y1="4130.9053" x2="8015.3047" y2="4139.4473" stroke="#f00" stroke-width="80.0"  stroke-opacity="100%"/>
<line x1="8010.1045" y1="4130.9053" x2="8010.1045" y2="4130.9053" stroke="#f00" stroke-width="80.0"  stroke-opacity="30%"/>
<line x1="8010.1045" y1="4130.9053" x2="8010.1045" y2="4130.9053" stroke="#f00" stroke-width="10.0"  stroke-opacity="100%"/>
<line x1="8496.144" y1="4929.194" x2="8501.344" y2="4937.7354" stroke="#a0a" stroke-width="80.0"  stroke-opacity="100%"/>
<line x1="8496.144" y1="4929.194" x2="8501.344" y2="4937.7354" stroke="#a0a" stroke-width="80.0"  stroke-opacity="100%"/>
<line x1="8496.144" y1="4929.194" x2="8496.144" y2="4929.194" stroke="#a0a" stroke-width="80.0"  stroke-opacity="30%"/>
<line x1="8496.144" y1="4929.194" x2="8496.144" y2="4929.194" stroke="#a0a" stroke-width="10.0"  stroke-opacity="100%"/>
<g transform="translate(8523.493 4974.1133) rotate(58.66477916229097) scale(10.0)">
<path fill-opacity="0%" stroke="#f00" stroke-width="0.5" d="M -5 -10 L 0 0 5 -10 -5 -10"/>
</g>
<g transform="translate(8523.493 4974.1133) rotate(-31.33522083770903)">
<text x="150.0" y="50.0" font-size="100.0" fill="#888"  font-family="sans-serif">Nemesis q1</text>
</g>
<g transform="translate(8204.507 5100.6626) rotate(-164.02921306720205) scale(10.0)">
<path fill-opacity="0%" stroke="#f00" stroke-width="0.5" d="M -4 8 L 0 0 4 8 -4 8"/>
</g>
<line x1="8201.118" y1="5099.693" x2="8191.504" y2="5096.9414" stroke="#f00" stroke-width="80.0"  stroke-opacity="100%"/>
<line x1="8153.283" y1="5086.0024" x2="8143.669" y2="5083.251" stroke="#f00" stroke-width="80.0"  stroke-opacity="100%"/>
<line x1="8201.118" y1="5099.693" x2="8153.283" y2="5086.0024" stroke="#f00" stroke-width="80.0"  stroke-opacity="30%"/>
<line x1="8201.118" y1="5099.693" x2="8153.283" y2="5086.0024" stroke="#f00" stroke-width="10.0"  stroke-opacity="100%"/>
<line x1="8110.066" y1="5073.634" x2="8100.452" y2="5070.883" stroke="#a0a" stroke-width="80.0"  stroke-opacity="100%"/>
<line x1="8110.066" y1="5073.634" x2="8100.452" y2="5070.883" stroke="#a0a" stroke-width="80.0"  stroke-opacity="100%"/>
<line x1="8110.066" y1="5073.634" x2="8110.066" y2="5073.634" stroke="#a0a" stroke-width="80.0"  stroke-opacity="30%"/>
<line x1="8110.066" y1="5073.634" x2="8110.066" y2="5073.634" stroke="#a0a" stroke-width="10.0"  stroke-opacity="100%"/>
<line x1="7725.9106" y1="4963.6914" x2="7716.297" y2="4960.94" stroke="#a0a" stroke-width="80.0"  stroke-opacity="100%"/>
<line x1="7725.9106" y1="4963.6914" x2="7716.297" y2="4960.94" stroke="#a0a" stroke-width="80.0"  stroke-opacity="100%"/>
<line x1="7725.9106" y1="4963.6914" x2="7725.9106" y2="4963.6914" stroke="#a0a" stroke-width="80.0"  stroke-opacity="30%"/>
<line x1="7725.9106" y1="4963.6914" x2="7725.9106" y2="4963.6914" stroke="#a0a" stroke-width="10.0"  stroke-opacity="100%"/>
<line x1="7477.9746" y1="4892.734" x2="7468.3613" y2="4889.9824" stroke="#f00" stroke-width="80.0"  stroke-opacity="100%"/>
<line x1="7477.9746" y1="4892.734" x2="7468.3613" y2="4889.9824" stroke="#f00" stroke-width="80.0"  stroke-opacity="100%"/>
<line x1="7477.9746" y1="4892.734" x2="7477.9746" y2="4892.734" stroke="#f00" stroke-width="80.0"  stroke-opacity="30%"/>
<line x1="7477.9746" y1="4892.734" x2="7477.9746" y2="4892.734" stroke="#f00" stroke-width="10.0"  stroke-opacity="100%"/>
<line x1="7476.664" y1="4892.3584" x2="7467.05" y2="4889.607" stroke="#f00" stroke-width="80.0"  stroke-opacity="100%"/>
<line x1="7476.664" y1="4892.3584" x2="7467.05" y2="4889.607" stroke="#f00" stroke-width="80.0"  stroke-opacity="100%"/>
<line x1="7476.664" y1="4892.3584" x2="7476.664" y2="4892.3584" stroke="#f00" stroke-width="80.0"  stroke-opacity="30%"/>
<line x1="7476.664" y1="4892.3584" x2="7476.664" y2="4892.3584" stroke="#f00" stroke-width="10.0"  stroke-opacity="100%"/>
<line x1="7316.7705" y1="4846.5977" x2="7307.1562" y2="4843.8467" stroke="#f00" stroke-width="80.0"  stroke-opacity="100%"/>
<line x1="7316.7705" y1="4846.5977" x2="7307.1562" y2="4843.8467" stroke="#f00" stroke-width="80.0"  stroke-opacity="100%"/>
<line x1="7316.7705" y1="4846.5977" x2="7316.7705" y2="4846.5977" stroke="#f00" stroke-width="80.0"  stroke-opacity="30%"/>
<line x1="7316.7705" y1="4846.5977" x2="7316.7705" y2="4846.5977" stroke="#f00" stroke-width="10.0"  stroke-opacity="100%"/>
<line x1="6992.284" y1="4753.732" x2="6982.67" y2="4750.9805" stroke="#f00" stroke-width="80.0"  stroke-opacity="100%"/>
<line x1="6992.284" y1="4753.732" x2="6982.67" y2="4750.9805" stroke="#f00" stroke-width="80.0"  stroke-opacity="100%"/>
<line x1="6992.284" y1="4753.732" x2="6992.284" y2="4753.732" stroke="#f00" stroke-width="80.0"  stroke-opacity="30%"/>
<line x1="6992.284" y1="4753.732" x2="6992.284" y2="4753.732" stroke="#f00" stroke-width="10.0"  stroke-opacity="100%"/>
<line x1="6831.1045" y1="4707.6035" x2="6821.49" y2="4704.852" stroke="#f00" stroke-width="80.0"  stroke-opacity="100%"/>
<line x1="6831.1045" y1="4707.6035" x2="6821.49" y2="4704.852" stroke="#f00" stroke-width="80.0"  stroke-opacity="100%"/>
<line x1="6831.1045" y1="4707.6035" x2="6831.1045" y2="4707.6035" stroke="#f00" stroke-width="80.0"  stroke-opacity="30%"/>
<line x1="6831.1045" y1="4707.6035" x2="6831.1045" y2="4707.6035" stroke="#f00" stroke-width="10.0"  stroke-opacity="100%"/>
<line x1="6556.4546" y1="4629.0" x2="6546.8403" y2="4626.249" stroke="#f00" stroke-width="80.0"  stroke-opacity="100%"/>
<line x1="6556.4546" y1="4629.0" x2="6546.8403" y2="4626.249" stroke="#f00" stroke-width="80.0"  stroke-opacity="100%"/>
<line x1="6556.4546" y1="4629.0" x2="6556.4546" y2="4629.0" stroke="#f00" stroke-width="80.0"  stroke-opacity="30%"/>
<line x1="6556.4546" y1="4629.0" x2="6556.4546" y2="4629.0" stroke="#f00" stroke-width="10.0"  stroke-opacity="100%"/>
<line x1="4709.27" y1="4100.3477" x2="4699.6562" y2="4097.5967" stroke="#a0a" stroke-width="80.0"  stroke-opacity="100%"/>
<line x1="4709.27" y1="4100.3477" x2="4699.6562" y2="4097.5967" stroke="#a0a" stroke-width="80.0"  stroke-opacity="100%"/>
<line x1="4709.27" y1="4100.3477" x2="4709.27" y2="4100.3477" stroke="#a0a" stroke-width="80.0"  stroke-opacity="30%"/>
<line x1="4709.27" y1="4100.3477" x2="4709.27" y2="4100.3477" stroke="#a0a" stroke-width="10.0"  stroke-opacity="100%"/>
<line x1="4670.2026" y1="4089.167" x2="4660.589" y2="4086.4155" stroke="#0f0" stroke-width="80.0"  stroke-opacity="100%"/>
<line x1="4670.2026" y1="4089.167" x2="4660.589" y2="4086.4155" stroke="#0f0" stroke-width="80.0"  stroke-opacity="100%"/>
<line x1="4670.2026" y1="4089.167" x2="4670.2026" y2="4089.167" stroke="#0f0" stroke-width="80.0"  stroke-opacity="30%"/>
<line x1="4670.2026" y1="4089.167" x2="4670.2026" y2="4089.167" stroke="#0f0" stroke-width="10.0"  stroke-opacity="100%"/>
<line x1="4656.082" y1="4085.1257" x2="4646.4683" y2="4082.3743" stroke="#a0a" stroke-width="80.0"  stroke-opacity="100%"/>
<line x1="4656.082" y1="4085.1257" x2="4646.4683" y2="4082.3743" stroke="#a0a" stroke-width="80.0"  stroke-opacity="100%"/>
<line x1="4656.082" y1="4085.1257" x2="4656.082" y2="4085.1257" stroke="#a0a" stroke-width="80.0"  stroke-opacity="30%"/>
<line x1="4656.082" y1="4085.1257" x2="4656.082" y2="4085.1257" stroke="#a0a" stroke-width="10.0"  stroke-opacity="100%"/>
<line x1="4650.799" y1="4083.6135" x2="4641.185" y2="4080.862" stroke="#f00" stroke-width="80.0"  stroke-opacity="100%"/>
<line x1="4427.652" y1="4019.7505" x2="4418.0376" y2="4016.999" stroke="#f00" stroke-width="80.0"  stroke-opacity="100%"/>
<line x1="4650.799" y1="4083.6135" x2="4427.652" y2="4019.7505" stroke="#f00" stroke-width="80.0"  stroke-opacity="30%"/>
<line x1="4650.799" y1="4083.6135" x2="4427.652" y2="4019.7505" stroke="#f00" stroke-width="10.0"  stroke-opacity="100%"/>
<line x1="4408.78" y1="4014.3494" x2="4399.166" y2="4011.598" stroke="#f00" stroke-width="80.0"  stroke-opacity="100%"/>
<line x1="4408.78" y1="4014.3494" x2="4399.166" y2="4011.598" stroke="#f00" stroke-width="80.0"  stroke-opacity="100%"/>
<line x1="4408.78" y1="4014.3494" x2="4408.78" y2="4014.3494" stroke="#f00" stroke-width="80.0"  stroke-opacity="30%"/>
<line x1="4408.78" y1="4014.3494" x2="4408.78" y2="4014.3494" stroke="#f00" stroke-width="10.0"  stroke-opacity="100%"/>
<g transform="translate(2907.1018 3584.5786) rotate(-164.02921306720205) scale(10.0)">
<path fill-opacity="0%" stroke="#00f" stroke-width="0.5" d="M -5 -10 L 0 0 5 -10 -5 -10"/>
</g>
<g transform="translate(2907.1018 3584.5786) rotate(-254.02921306720205)">
<text x="150.0" y="50.0" font-size="100.0" fill="#888"  font-family="sans-serif">sonic </text>
</g>
<g transform="translate(2646.059 3509.8696) rotate(-164.02921306720205) scale(10.0)">
<path fill-opacity="0%" stroke="#00f" stroke-width="0.5" d="M -5 -10 L 0 0 5 -10 -5 -10"/>
</g>
<g transform="translate(2646.059 3509.8696) rotate(-254.02921306720205)">
<text x="150.0" y="50.0" font-size="100.0" fill="#888"  font-family="sans-serif">sonic </text>
</g>
<g transform="translate(2635.7012 3506.9055) rotate(-164.02921306720205) scale(10.0)">
<path fill-opacity="0%" stroke="#00f" stroke-width="0.5" d="M -4 8 L 0 0 4 8 -4 8"/>
</g>
<line x1="2628.2642" y1="3504.7773" x2="2618.6501" y2="3502.0254" stroke="#00f" stroke-width="80.0"  stroke-opacity="100%"/>
<line x1="2504.6765" y1="3469.407" x2="2495.0625" y2="3466.6555" stroke="#00f" stroke-width="80.0"  stroke-opacity="100%"/>
<line x1="2628.2642" y1="3504.7773" x2="2504.6765" y2="3469.407" stroke="#00f" stroke-width="80.0"  stroke-opacity="30%"/>
<line x1="2628.2642" y1="3504.7773" x2="2504.6765" y2="3469.407" stroke="#00f" stroke-width="10.0"  stroke-opacity="100%"/>
<g transform="translate(2620.1616 3502.4583) rotate(-164.02921306720205) scale(10.0)">
<path fill-opacity="0%" stroke="#f00" stroke-width="0.5" d="M -5 -10 L 0 0 5 -10 -5 -10"/>
</g>
<g transform="translate(2620.1616 3502.4583) rotate(-254.02921306720205)">
<text x="150.0" y="50.0" font-size="100.0" fill="#888"  font-family="sans-serif">sonic queue </text>
</g>
<g transform="translate(2476.5938 3589.7285) rotate(81.97701449339566) scale(10.0)">
<path fill-opacity="0%" stroke="#a0a" stroke-width="0.5" d="M 0 -9 L 0 -4"/>
</g>
<g transform="translate(2478.8687 3605.8691) rotate(81.97701449339566) scale(10.0)">
<path fill-opacity="0%" stroke="#a0a" stroke-width="0.5" d="M 0 -9 L 0 -4"/>
</g>
<g transform="translate(2482.8 3633.76) rotate(81.97701449339566) scale(10.0)">
<path fill-opacity="0%" stroke="#a0a" stroke-width="0.5" d="M 0 -9 L 0 -4"/>
</g>
<line x1="2479.6458" y1="3697.122" x2="2472.0051" y2="3690.671" stroke="#a0a" stroke-width="80.0"  stroke-opacity="100%"/>
<line x1="2479.6458" y1="3697.122" x2="2472.0051" y2="3690.671" stroke="#a0a" stroke-width="80.0"  stroke-opacity="100%"/>
<line x1="2479.6458" y1="3697.122" x2="2479.6458" y2="3697.122" stroke="#a0a" stroke-width="80.0"  stroke-opacity="30%"/>
<line x1="2479.6458" y1="3697.122" x2="2479.6458" y2="3697.122" stroke="#a0a" stroke-width="10.0"  stroke-opacity="100%"/>
<line x1="2476.4258" y1="3694.4033" x2="2468.7852" y2="3687.952" stroke="#a0a" stroke-width="80.0"  stroke-opacity="100%"/>
<line x1="2476.4258" y1="3694.4033" x2="2468.7852" y2="3687.952" stroke="#a0a" stroke-width="80.0"  stroke-opacity="100%"/>
<line x1="2476.4258" y1="3694.4033" x2="2476.4258" y2="3694.4033" stroke="#a0a" stroke-width="80.0"  stroke-opacity="30%"/>
<line x1="2476.4258" y1="3694.4033" x2="2476.4258" y2="3694.4033" stroke="#a0a" stroke-width="10.0"  stroke-opacity="100%"/>
<line x1="2471.8423" y1="3690.5334" x2="2464.2017" y2="3684.082" stroke="#f00" stroke-width="80.0"  stroke-opacity="100%"/>
<line x1="2471.8423" y1="3690.5334" x2="2464.2017" y2="3684.082" stroke="#f00" stroke-width="80.0"  stroke-opacity="100%"/>
<line x1="2471.8423" y1="3690.5334" x2="2471.8423" y2="3690.5334" stroke="#f00" stroke-width="80.0"  stroke-opacity="30%"/>
<line x1="2471.8423" y1="3690.5334" x2="2471.8423" y2="3690.5334" stroke="#f00" stroke-width="10.0"  stroke-opacity="100%"/>
<line x1="2469.1582" y1="3688.2668" x2="2461.5176" y2="3681.816" stroke="#a0a" stroke-width="80.0"  stroke-opacity="100%"/>
<line x1="2469.1582" y1="3688.2668" x2="2461.5176" y2="3681.816" stroke="#a0a" stroke-width="80.0"  stroke-opacity="100%"/>
<line x1="2469.1582" y1="3688.2668" x2="2469.1582" y2="3688.2668" stroke="#a0a" stroke-width="80.0"  stroke-opacity="30%"/>
<line x1="2469.1582" y1="3688.2668" x2="2469.1582" y2="3688.2668" stroke="#a0a" stroke-width="10.0"  stroke-opacity="100%"/>
<line x1="2464.0083" y1="3683.9187" x2="2456.3677" y2="3677.4678" stroke="#a0a" stroke-width="80.0"  stroke-opacity="100%"/>
<line x1="2464.0083" y1="3683.9187" x2="2456.3677" y2="3677.4678" stroke="#a0a" stroke-width="80.0"  stroke-opacity="100%"/>
<line x1="2464.0083" y1="3683.9187" x2="2464.0083" y2="3683.9187" stroke="#a0a" stroke-width="80.0"  stroke-opacity="30%"/>
<line x1="2464.0083" y1="3683.9187" x2="2464.0083" y2="3683.9187" stroke="#a0a" stroke-width="10.0"  stroke-opacity="100%"/>
<line x1="2454.3813" y1="3675.7908" x2="2446.7407" y2="3669.3394" stroke="#a0a" stroke-width="80.0"  stroke-opacity="100%"/>
<line x1="2454.3813" y1="3675.7908" x2="2446.7407" y2="3669.3394" stroke="#a0a" stroke-width="80.0"  stroke-opacity="100%"/>
<line x1="2454.3813" y1="3675.7908" x2="2454.3813" y2="3675.7908" stroke="#a0a" stroke-width="80.0"  stroke-opacity="30%"/>
<line x1="2454.3813" y1="3675.7908" x2="2454.3813" y2="3675.7908" stroke="#a0a" stroke-width="10.0"  stroke-opacity="100%"/>
<line x1="2450.5334" y1="3672.5415" x2="2442.8928" y2="3666.0903" stroke="#a0a" stroke-width="80.0"  stroke-opacity="100%"/>
<line x1="2450.5334" y1="3672.5415" x2="2442.8928" y2="3666.0903" stroke="#a0a" stroke-width="80.0"  stroke-opacity="100%"/>
<line x1="2450.5334" y1="3672.5415" x2="2450.5334" y2="3672.5415" stroke="#a0a" stroke-width="80.0"  stroke-opacity="30%"/>
<line x1="2450.5334" y1="3672.5415" x2="2450.5334" y2="3672.5415" stroke="#a0a" stroke-width="10.0"  stroke-opacity="100%"/>
<line x1="2444.6377" y1="3667.5637" x2="2436.997" y2="3661.1123" stroke="#a0a" stroke-width="80.0"  stroke-opacity="100%"/>
<line x1="2444.6377" y1="3667.5637" x2="2436.997" y2="3661.1123" stroke="#a0a" stroke-width="80.0"  stroke-opacity="100%"/>
<line x1="2444.6377" y1="3667.5637" x2="2444.6377" y2="3667.5637" stroke="#a0a" stroke-width="80.0"  stroke-opacity="30%"/>
<line x1="2444.6377" y1="3667.5637" x2="2444.6377" y2="3667.5637" stroke="#a0a" stroke-width="10.0"  stroke-opacity="100%"/>
<line x1="2429.5022" y1="3654.7842" x2="2421.8613" y2="3648.333" stroke="#f00" stroke-width="80.0"  stroke-opacity="100%"/>
<line x1="2429.5022" y1="3654.7842" x2="2421.8613" y2="3648.333" stroke="#f00" stroke-width="80.0"  stroke-opacity="100%"/>
<line x1="2429.5022" y1="3654.7842" x2="2429.5022" y2="3654.7842" stroke="#f00" stroke-width="80.0"  stroke-opacity="30%"/>
<line x1="2429.5022" y1="3654.7842" x2="2429.5022" y2="3654.7842" stroke="#f00" stroke-width="10.0"  stroke-opacity="100%"/>
<line x1="2428.658" y1="3654.0718" x2="2421.0173" y2="3647.62" stroke="#a0a" stroke-width="80.0"  stroke-opacity="100%"/>
<line x1="2428.658" y1="3654.0718" x2="2421.0173" y2="3647.62" stroke="#a0a" stroke-width="80.0"  stroke-opacity="100%"/>
<line x1="2428.658" y1="3654.0718" x2="2428.658" y2="3654.0718" stroke="#a0a" stroke-width="80.0"  stroke-opacity="30%"/>
<line x1="2428.658" y1="3654.0718" x2="2428.658" y2="3654.0718" stroke="#a0a" stroke-width="10.0"  stroke-opacity="100%"/>
<line x1="2425.2317" y1="3651.1787" x2="2417.5908" y2="3644.727" stroke="#f00" stroke-width="80.0"  stroke-opacity="100%"/>
<line x1="2425.2317" y1="3651.1787" x2="2417.5908" y2="3644.727" stroke="#f00" stroke-width="80.0"  stroke-opacity="100%"/>
<line x1="2425.2317" y1="3651.1787" x2="2425.2317" y2="3651.1787" stroke="#f00" stroke-width="80.0"  stroke-opacity="30%"/>
<line x1="2425.2317" y1="3651.1787" x2="2425.2317" y2="3651.1787" stroke="#f00" stroke-width="10.0"  stroke-opacity="100%"/>
<line x1="2425.1223" y1="3651.0862" x2="2417.4814" y2="3644.6348" stroke="#f00" stroke-width="80.0"  stroke-opacity="100%"/>
<line x1="2425.1223" y1="3651.0862" x2="2417.4814" y2="3644.6348" stroke="#f00" stroke-width="80.0"  stroke-opacity="100%"/>
<line x1="2425.1223" y1="3651.0862" x2="2425.1223" y2="3651.0862" stroke="#f00" stroke-width="80.0"  stroke-opacity="30%"/>
<line x1="2425.1223" y1="3651.0862" x2="2425.1223" y2="3651.0862" stroke="#f00" stroke-width="10.0"  stroke-opacity="100%"/>
<g transform="translate(2381.5447 3614.2922) rotate(-139.82456405075808) scale(10.0)">
<path fill-opacity="0%" stroke="#a0a" stroke-width="0.5" d="M 0 -9 L 0 -4"/>
</g>
<g transform="translate(2360.6265 3596.6304) rotate(-139.82456405075808) scale(10.0)">
<path fill-opacity="0%" stroke="#a0a" stroke-width="0.5" d="M 0 -9 L 0 -4"/>
</g>
<g transform="translate(2350.2192 3587.8433) rotate(-139.82456405075808) scale(10.0)">
<path fill-opacity="0%" stroke="#a0a" stroke-width="0.5" d="M 0 -9 L 0 -4"/>
</g>
<g transform="translate(2338.7163 3444.935) rotate(-93.37314369252485) scale(10.0)">
<path fill-opacity="0%" stroke="#a0a" stroke-width="0.5" d="M 0 -9 L 0 -4"/>
</g>
<g transform="translate(2336.5017 3407.3584) rotate(-93.37314369252485) scale(10.0)">
<path fill-opacity="0%" stroke="#aa0" stroke-width="0.5" d="M -5 -10 L 0 0 5 -10 -5 -10"/>
</g>
<g transform="translate(2336.5017 3407.3584) rotate(-183.37314369252485)">
<text x="150.0" y="50.0" font-size="100.0" fill="#888"  font-family="sans-serif">sonic exit </text>
</g>
<g transform="translate(2487.7114 3490.7517) rotate(-12.47829459336361) scale(10.0)">
<path fill-opacity="0%" stroke="#a0a" stroke-width="0.5" d="M 0 -9 L 0 -4"/>
</g>
<g transform="translate(2281.118 3401.3906) rotate(-33.852069839061585) scale(10.0)">
<path fill-opacity="0%" stroke="#a0a" stroke-width="0.5" d="M 0 -9 L 0 -4"/>
</g>
</svg>
