<?xml version="1.0" standalone="no"?>
<!DOCTYPE svg PUBLIC "-//W3C//DTD SVG 1.1//EN" "http://www.w3.org/Graphics/SVG/1.1/DTD/svg11.dtd">
<svg opacity="20%" width="30cm" height="30cm" version="1.1" viewBox="0 0 10000 10000" xmlns="http://www.w3.org/2000/svg" xmlns:xlink="http://www.w3.org/1999/xlink">
<desc>DrawTrails of automics data, Mon Jul 25 14:51:47 BST 2011</desc>
<filter id="desaturate"  primitiveUnits="objectBoundingBox">
<feImage x="0%" y="0%" width="100%" height="100%" xlink:href="altontowers-zoom15.png"/>
<feColorMatrix type="matrix" values="0.3333 0.3333 0.3333 0 0 0.3333 0.3333 0.3333 0 0 0.3333 0.3333 0.3333 0 0 0      0      0      1 0"/>
<feColorMatrix type="matrix" values="0.05 0 0 0 0 0 0.05 0 0 0 0 0 0.05 0 0 0      0      0      1 0"/>
</filter>
<rect x="-2643.7028285176257" y="-2643.7028285176257" width="15287.405657035251" height="15287.405657035251" filter="url(#desaturate)"/>
<line x1="3538.6533" y1="2526.2095" x2="3457.9468" y2="2352.7986" stroke="#b4f04a" stroke-width="5.0" />
<line x1="3457.9468" y1="2352.7986" x2="3290.4111" y2="2377.7034" stroke="#b2f04c" stroke-width="5.0" />
<line x1="3290.4111" y1="2377.7034" x2="3177.4216" y2="2505.9167" stroke="#b2f04c" stroke-width="5.0" />
<line x1="3177.4216" y1="2505.9167" x2="3084.47" y2="2644.2761" stroke="#b2f04c" stroke-width="5.0" />
<line x1="3084.47" y1="2644.2761" x2="3016.0083" y2="2798.3157" stroke="#b1f04d" stroke-width="5.0" />
<line x1="3016.0083" y1="2798.3157" x2="2797.8223" y2="3372.0383" stroke="#b1f04d" stroke-width="5.0" stroke-dasharray="30 30"/>
<line x1="2797.8223" y1="3372.0383" x2="2738.2664" y2="3530.6865" stroke="#b1f04d" stroke-width="5.0" />
<line x1="2738.2664" y1="3530.6865" x2="2660.899" y2="3683.8003" stroke="#b0f04e" stroke-width="5.0" />
<line x1="2660.899" y1="3683.8003" x2="2684.2764" y2="3851.6711" stroke="#b0f04e" stroke-width="5.0" />
<line x1="2684.2764" y1="3851.6711" x2="2624.7205" y2="4014.9297" stroke="#b0f04e" stroke-width="5.0" />
<line x1="2624.7205" y1="4014.9297" x2="2559.042" y2="4178.1875" stroke="#b0f04e" stroke-width="5.0" />
<line x1="2559.042" y1="4178.1875" x2="1672.3821" y2="5213.0596" stroke="#aff04f" stroke-width="5.0" stroke-dasharray="30 30"/>
<line x1="1672.3821" y1="5213.0596" x2="1514.3085" y2="5148.496" stroke="#aef050" stroke-width="5.0" />
<line x1="1514.3085" y1="5148.496" x2="1343.9895" y2="5192.7686" stroke="#aef050" stroke-width="5.0" />
<line x1="1343.9895" y1="5192.7686" x2="1194.8215" y2="5306.2153" stroke="#aef050" stroke-width="5.0" />
<line x1="1194.8215" y1="5306.2153" x2="1006.6916" y2="5316.3613" stroke="#aef050" stroke-width="5.0" />
<line x1="1006.6916" y1="5316.3613" x2="937.67346" y2="5469.468" stroke="#aef050" stroke-width="5.0" />
<line x1="937.67346" y1="5469.468" x2="1107.9923" y2="5499.905" stroke="#aef050" stroke-width="5.0" />
<line x1="1107.9923" y1="5499.905" x2="1060.1249" y2="5321.895" stroke="#adf051" stroke-width="5.0" />
<line x1="1060.1249" y1="5321.895" x2="1090.1812" y2="5489.759" stroke="#adf051" stroke-width="5.0" />
<line x1="1090.1812" y1="5489.759" x2="1245.4719" y2="5558.9336" stroke="#adf051" stroke-width="5.0" />
<line x1="1245.4719" y1="5558.9336" x2="1149.737" y2="5410.439" stroke="#adf051" stroke-width="5.0" />
<line x1="1149.737" y1="5410.439" x2="1182.5764" y2="5578.3027" stroke="#abf053" stroke-width="5.0" />
<line x1="1182.5764" y1="5578.3027" x2="1328.9614" y2="5677.913" stroke="#abf053" stroke-width="5.0" />
<line x1="1328.9614" y1="5677.913" x2="1487.0352" y2="5726.7964" stroke="#aaf054" stroke-width="5.0" />
<line x1="1487.0352" y1="5726.7964" x2="1639.5428" y2="5603.205" stroke="#a8f056" stroke-width="5.0" />
<line x1="1639.5428" y1="5603.205" x2="1639.5428" y2="5435.342" stroke="#a8f056" stroke-width="5.0" />
<line x1="1639.5428" y1="5435.342" x2="1642.3259" y2="5267.4775" stroke="#a8f056" stroke-width="5.0" />
<line x1="1642.3259" y1="5267.4775" x2="1809.8618" y2="5217.6714" stroke="#a8f056" stroke-width="5.0" />
<line x1="1809.8618" y1="5217.6714" x2="3299.873" y2="6622.3613" stroke="#a5f059" stroke-width="5.0" stroke-dasharray="30 30"/>
<line x1="3299.873" y1="6622.3613" x2="3338.2783" y2="6785.608" stroke="#a5f059" stroke-width="5.0" />
<line x1="3338.2783" y1="6785.608" x2="3377.24" y2="6979.29" stroke="#a5f059" stroke-width="5.0" />
<line x1="3377.24" y1="6979.29" x2="3341.6177" y2="7147.1475" stroke="#a4f05a" stroke-width="5.0" />
<line x1="3341.6177" y1="7147.1475" x2="3392.2683" y2="7310.3916" stroke="#a4f05a" stroke-width="5.0" />
<line x1="3392.2683" y1="7310.3916" x2="3559.2476" y2="7285.49" stroke="#a4f05a" stroke-width="5.0" />
<line x1="3559.2476" y1="7285.49" x2="4541.6416" y2="6954.3887" stroke="#a3f05b" stroke-width="5.0" stroke-dasharray="30 30"/>
<line x1="4541.6416" y1="6954.3887" x2="4696.9326" y2="7018.949" stroke="#a3f05b" stroke-width="5.0" />
<line x1="4696.9326" y1="7018.949" x2="4870.0347" y2="7048.462" stroke="#a3f05b" stroke-width="5.0" />
<line x1="4870.0347" y1="7048.462" x2="5040.3535" y2="7067.83" stroke="#a3f05b" stroke-width="5.0" />
<line x1="5040.3535" y1="7067.83" x2="5228.4834" y2="7266.1226" stroke="#a0f05e" stroke-width="5.0" stroke-dasharray="30 30"/>
<line x1="5228.4834" y1="7266.1226" x2="5088.2207" y2="7493.9263" stroke="#9af064" stroke-width="5.0" stroke-dasharray="30 30"/>
<line x1="5088.2207" y1="7493.9263" x2="5043.136" y2="7493.9263" stroke="#94f06a" stroke-width="5.0" stroke-dasharray="30 30"/>
<line x1="5043.136" y1="7493.9263" x2="3374.457" y2="7404.465" stroke="#6bf093" stroke-width="5.0" stroke-dasharray="30 30"/>
<line x1="3374.457" y1="7404.465" x2="3365.5515" y2="7220.93" stroke="#6af094" stroke-width="5.0" />
<line x1="3365.5515" y1="7220.93" x2="3374.457" y2="7048.462" stroke="#6af094" stroke-width="5.0" />
<line x1="3374.457" y1="7048.462" x2="3347.1838" y2="6870.4595" stroke="#6af094" stroke-width="5.0" />
<line x1="3347.1838" y1="6870.4595" x2="3418.9849" y2="6676.777" stroke="#6af094" stroke-width="5.0" />
<line x1="3418.9849" y1="6676.777" x2="3320.4673" y2="6523.675" stroke="#6af094" stroke-width="5.0" />
<line x1="3320.4673" y1="6523.675" x2="4529.953" y2="3851.6711" stroke="#68f096" stroke-width="5.0" stroke-dasharray="30 30"/>
<line x1="4529.953" y1="3851.6711" x2="4488.2085" y2="3688.412" stroke="#67f097" stroke-width="5.0" />
<line x1="4488.2085" y1="3688.412" x2="4488.2085" y2="3866.4292" stroke="#67f097" stroke-width="5.0" />
<line x1="4488.2085" y1="3866.4292" x2="4368.54" y2="3748.3662" stroke="#65f099" stroke-width="5.0" />
<line x1="4368.54" y1="3748.3662" x2="4478.746" y2="3574.9607" stroke="#64f09a" stroke-width="5.0" />
<line x1="4478.746" y1="3574.9607" x2="4553.887" y2="3723.4622" stroke="#64f09a" stroke-width="5.0" />
<line x1="4553.887" y1="3723.4622" x2="4732.5547" y2="3589.7188" stroke="#60f09e" stroke-width="5.0" />
<line x1="4732.5547" y1="3589.7188" x2="4696.9326" y2="3421.8467" stroke="#60f09e" stroke-width="5.0" />
<line x1="4696.9326" y1="3421.8467" x2="4580.604" y2="3282.5674" stroke="#60f09e" stroke-width="5.0" />
<line x1="4580.604" y1="3282.5674" x2="4383.5684" y2="3194.019" stroke="#5ff09f" stroke-width="5.0" />
<line x1="4383.5684" y1="3194.019" x2="3729.5664" y2="2748.5063" stroke="#5ff09f" stroke-width="5.0" stroke-dasharray="30 30"/>
<line x1="3729.5664" y1="2748.5063" x2="3609.8977" y2="2624.9058" stroke="#5ff09f" stroke-width="5.0" />
<line x1="3609.8977" y1="2624.9058" x2="3484.6633" y2="2505.9167" stroke="#5ff09f" stroke-width="5.0" />
<line x1="3484.6633" y1="2505.9167" x2="3580.3982" y2="2367.5571" stroke="#5ff09f" stroke-width="5.0" />
<line x1="3580.3982" y1="2367.5571" x2="3648.8596" y2="2526.2095" stroke="#5ef0a0" stroke-width="5.0" />
<line x1="3648.8596" y1="2526.2095" x2="3663.888" y2="2357.4106" stroke="#5df0a1" stroke-width="5.0" />
<line x1="3663.888" y1="2357.4106" x2="3589.304" y2="2516.0632" stroke="#5df0a1" stroke-width="5.0" />
<line x1="3589.304" y1="2516.0632" x2="3487.4463" y2="2664.5688" stroke="#5af0a4" stroke-width="5.0" />
<line x1="3487.4463" y1="2664.5688" x2="3344.401" y2="2767.8765" stroke="#5af0a4" stroke-width="5.0" />
<line x1="3344.401" y1="2767.8765" x2="3174.082" y2="2783.5574" stroke="#59f0a5" stroke-width="5.0" />
<line x1="3174.082" y1="2783.5574" x2="2801.1619" y2="3313.0059" stroke="#59f0a5" stroke-width="5.0" stroke-dasharray="30 30"/>
<line x1="2801.1619" y1="3313.0059" x2="2738.2664" y2="3470.7324" stroke="#59f0a5" stroke-width="5.0" />
<line x1="2738.2664" y1="3470.7324" x2="2580.1926" y2="3530.6865" stroke="#59f0a5" stroke-width="5.0" />
<line x1="2580.1926" y1="3530.6865" x2="2439.93" y2="3426.4585" stroke="#58f0a6" stroke-width="5.0" />
<line x1="2439.93" y1="3426.4585" x2="2562.3816" y2="3545.4446" stroke="#57f0a7" stroke-width="5.0" />
<line x1="2562.3816" y1="3545.4446" x2="2723.2383" y2="3594.3306" stroke="#55f0a9" stroke-width="5.0" />
<line x1="2723.2383" y1="3594.3306" x2="2666.465" y2="3752.978" stroke="#53f0ab" stroke-width="5.0" />
<line x1="2666.465" y1="3752.978" x2="2651.437" y2="3926.3828" stroke="#53f0ab" stroke-width="5.0" />
<line x1="2651.437" y1="3926.3828" x2="2690.399" y2="4089.6409" stroke="#53f0ab" stroke-width="5.0" />
<line x1="2690.399" y1="4089.6409" x2="2589.0981" y2="4311.929" stroke="#51f0ad" stroke-width="5.0" />
<line x1="2589.0981" y1="4311.929" x2="2660.899" y2="3822.1555" stroke="#50f0ae" stroke-width="5.0" stroke-dasharray="30 30"/>
<line x1="2660.899" y1="3822.1555" x2="2678.7104" y2="3648.7502" stroke="#50f0ae" stroke-width="5.0" />
<line x1="2678.7104" y1="3648.7502" x2="2559.042" y2="3530.6865" stroke="#50f0ae" stroke-width="5.0" />
<line x1="2559.042" y1="3530.6865" x2="2433.8074" y2="3411.7004" stroke="#50f0ae" stroke-width="5.0" />
<line x1="2433.8074" y1="3411.7004" x2="2323.0447" y2="3288.1018" stroke="#4ff0af" stroke-width="5.0" />
<line x1="2323.0447" y1="3288.1018" x2="2478.3352" y2="3351.7458" stroke="#4af0b4" stroke-width="5.0" />
<line x1="2478.3352" y1="3351.7458" x2="2538.4478" y2="3470.7324" stroke="#47f0b7" stroke-width="5.0" stroke-dasharray="30 30"/>
<line x1="2538.4478" y1="3470.7324" x2="2693.7383" y2="3550.0564" stroke="#47f0b7" stroke-width="5.0" />
<line x1="2693.7383" y1="3550.0564" x2="2678.7104" y2="3728.074" stroke="#47f0b7" stroke-width="5.0" />
<line x1="2678.7104" y1="3728.074" x2="2741.0493" y2="3886.7212" stroke="#46f0b8" stroke-width="5.0" />
<circle cx="3581.112" cy="2539.5974" r="124.58623" stroke="#b4f04a" stroke-width="10.0" fill="#0f0" fill-opacity="0.1"/>
<circle cx="2614.745" cy="3562.0767" r="83.05749" stroke="#b1f04d" stroke-width="10.0" fill="#00f" fill-opacity="0.1"/>
<circle cx="1515.8184" cy="5374.661" r="207.64372" stroke="#aff04f" stroke-width="10.0" fill="#00f" fill-opacity="0.1"/>
<circle cx="1356.2974" cy="5162.591" r="83.05749" stroke="#aef050" stroke-width="10.0" fill="#00f" fill-opacity="0.1"/>
<circle cx="978.9144" cy="5535.73" r="166.11497" stroke="#aef050" stroke-width="10.0" fill="#f00" fill-opacity="0.1"/>
<circle cx="1601.6802" cy="5726.773" r="124.58623" stroke="#abf053" stroke-width="10.0" fill="#ff0" fill-opacity="0.1"/>
<circle cx="4756.462" cy="7057.483" r="83.05749" stroke="#a3f05b" stroke-width="10.0" fill="#00f" fill-opacity="0.1"/>
<circle cx="4896.891" cy="7499.452" r="124.58623" stroke="#9df061" stroke-width="10.0" fill="#f00" fill-opacity="0.1"/>
<circle cx="4909.292" cy="7537.7104" r="124.58623" stroke="#9af064" stroke-width="10.0" fill="#f00" fill-opacity="0.1"/>
<circle cx="4903.3423" cy="7528.9307" r="124.58623" stroke="#92f06c" stroke-width="10.0" fill="#f00" fill-opacity="0.1"/>
<circle cx="4874.1123" cy="7513.6274" r="124.58623" stroke="#8ff06f" stroke-width="10.0" fill="#f00" fill-opacity="0.1"/>
<circle cx="4890.3315" cy="7526.958" r="124.58623" stroke="#8ef070" stroke-width="10.0" fill="#f00" fill-opacity="0.1"/>
<circle cx="4682.305" cy="3730.0867" r="124.58623" stroke="#68f096" stroke-width="10.0" fill="#00f" fill-opacity="0.1"/>
<circle cx="4750.1665" cy="3478.015" r="83.05749" stroke="#60f09e" stroke-width="10.0" fill="#00f" fill-opacity="0.1"/>
<circle cx="2631.0376" cy="3569.9116" r="83.05749" stroke="#59f0a5" stroke-width="10.0" fill="#00f" fill-opacity="0.1"/>
<circle cx="2619.442" cy="3575.6956" r="83.05749" stroke="#50f0ae" stroke-width="10.0" fill="#00f" fill-opacity="0.1"/>
<circle cx="2521.9856" cy="3325.8262" r="124.58623" stroke="#4af0b4" stroke-width="10.0" fill="#0f0" fill-opacity="0.1"/>
<circle cx="2643.4421" cy="3575.9443" r="83.05749" stroke="#47f0b7" stroke-width="10.0" fill="#00f" fill-opacity="0.1"/>
<circle cx="3588.4573" cy="2575.929" r="124.58623" stroke="#19f0e5" stroke-width="10.0" fill="#0f0" fill-opacity="0.1"/>
</svg>
