<?xml version="1.0" standalone="no"?>
<!DOCTYPE svg PUBLIC "-//W3C//DTD SVG 1.1//EN" "http://www.w3.org/Graphics/SVG/1.1/DTD/svg11.dtd">
<svg opacity="20%" width="30cm" height="30cm" version="1.1" viewBox="0 0 1000 1000" xmlns="http://www.w3.org/2000/svg" xmlns:xlink="http://www.w3.org/1999/xlink">
<desc>DrawTrails of automics data, Mon Jul 25 13:15:51 BST 2011</desc>
<filter id="desaturate"  primitiveUnits="objectBoundingBox">
<feImage x="0%" y="0%" width="100%" height="100%" xlink:href="altontowers-zoom15.png"/>
<feColorMatrix type="matrix" values="0.3333 0.3333 0.3333 0 0 0.3333 0.3333 0.3333 0 0 0.3333 0.3333 0.3333 0 0 0      0      0      1 0"/>
<feColorMatrix type="matrix" values="0.1 0 0 0 0 0 0.1 0 0 0 0 0 0.1 0 0 0      0      0      1 0"/>
</filter>
<rect x="-264.37028285176257" y="-264.37028285176257" width="1528.7405657035251" height="1528.7405657035251" filter="url(#desaturate)"/>
<line x1="352.36252" y1="247.1788" x2="358.9304" y2="262.95178" stroke="#85f079" stroke-width="0.5" />
<line x1="358.9304" y1="262.95178" x2="377.40942" y2="272.91364" stroke="#85f079" stroke-width="0.5" />
<line x1="377.40942" y1="272.91364" x2="393.27243" y2="281.30737" stroke="#85f079" stroke-width="0.5" />
<line x1="393.27243" y1="281.30737" x2="453.55194" y2="326.31976" stroke="#84f07a" stroke-width="0.5" stroke-dasharray="3 3"/>
<line x1="453.55194" y1="326.31976" x2="465.7971" y2="339.1408" stroke="#84f07a" stroke-width="0.5" />
<line x1="465.7971" y1="339.1408" x2="480.76956" y2="346.61206" stroke="#84f07a" stroke-width="0.5" />
<line x1="480.76956" y1="346.61206" x2="476.2611" y2="362.93805" stroke="#83f07b" stroke-width="0.5" />
<line x1="476.2611" y1="362.93805" x2="462.51315" y2="372.8074" stroke="#82f07c" stroke-width="0.5" />
<line x1="462.51315" y1="372.8074" x2="451.49252" y2="386.18173" stroke="#81f07d" stroke-width="0.5" />
<line x1="451.49252" y1="386.18173" x2="434.73895" y2="387.19632" stroke="#7ef080" stroke-width="0.5" />
<line x1="434.73895" y1="387.19632" x2="431.78897" y2="370.87042" stroke="#7df081" stroke-width="0.5" />
<line x1="431.78897" y1="370.87042" x2="439.85965" y2="356.02026" stroke="#7df081" stroke-width="0.5" />
<line x1="439.85965" y1="356.02026" x2="456.27927" y2="352.51526" stroke="#7cf082" stroke-width="0.5" />
<line x1="456.27927" y1="352.51526" x2="458.0604" y2="369.85583" stroke="#7cf082" stroke-width="0.5" />
<line x1="458.0604" y1="369.85583" x2="460.45377" y2="390.60907" stroke="#7bf083" stroke-width="0.5" />
<line x1="460.45377" y1="390.60907" x2="727.0639" y2="291.63812" stroke="#69f095" stroke-width="0.5" stroke-dasharray="3 3"/>
<line x1="727.0639" y1="291.63812" x2="858.7549" y2="507.9321" stroke="#3ef0c0" stroke-width="0.5" stroke-dasharray="3 3"/>
<line x1="858.7549" y1="507.9321" x2="866.4916" y2="523.24286" stroke="#3ef0c0" stroke-width="0.5" />
<line x1="866.4916" y1="523.24286" x2="245.77411" y2="345.59744" stroke="#26f0d8" stroke-width="0.5" stroke-dasharray="3 3"/>
<line x1="245.77411" y1="345.59744" x2="249.33633" y2="370.87042" stroke="#24f0da" stroke-width="0.5" />
<line x1="249.33633" y1="370.87042" x2="234.69783" y2="358.51068" stroke="#1ef0e0" stroke-width="0.5" />
<line x1="234.69783" y1="358.51068" x2="233.52898" y2="338.67963" stroke="#1cf0e2" stroke-width="0.5" />
<line x1="233.52898" y1="338.67963" x2="230.24504" y2="321.89233" stroke="#1cf0e2" stroke-width="0.5" />
<line x1="230.24504" y1="321.89233" x2="217.7216" y2="334.2522" stroke="#1cf0e2" stroke-width="0.5" />
<line x1="217.7216" y1="334.2522" x2="217.7216" y2="356.48145" stroke="#1cf0e2" stroke-width="0.5" />
<line x1="217.7216" y1="356.48145" x2="235.31007" y2="352.05405" stroke="#1cf0e2" stroke-width="0.5" />
<line x1="235.31007" y1="352.05405" x2="253.23251" y2="348.08786" stroke="#1cf0e2" stroke-width="0.5" />
<line x1="253.23251" y1="348.08786" x2="249.33633" y2="366.35083" stroke="#1cf0e2" stroke-width="0.5" />
<line x1="249.33633" y1="366.35083" x2="232.91672" y2="368.84122" stroke="#1bf0e3" stroke-width="0.5" />
<line x1="232.91672" y1="368.84122" x2="222.17438" y2="344.12164" stroke="#1bf0e3" stroke-width="0.5" />
<line x1="222.17438" y1="344.12164" x2="236.20064" y2="334.7134" stroke="#1bf0e3" stroke-width="0.5" />
<circle cx="479.32147" cy="346.64862" r="8.305749" stroke="#84f07a" stroke-width="1.0" fill="#00f" fill-opacity="0.1"/>
<circle cx="471.30255" cy="373.15756" r="12.458623" stroke="#83f07b" stroke-width="1.0" fill="#00f" fill-opacity="0.1"/>
<circle cx="721.5816" cy="269.51642" r="12.458623" stroke="#6bf093" stroke-width="1.0" fill="#f00" fill-opacity="0.1"/>
<circle cx="830.73413" cy="493.9807" r="8.305749" stroke="#40f0be" stroke-width="1.0" fill="#f00" fill-opacity="0.1"/>
<circle cx="263.22726" cy="359.25586" r="8.305749" stroke="#28f0d6" stroke-width="1.0" fill="#00f" fill-opacity="0.1"/>
<circle cx="264.97525" cy="359.33844" r="8.305749" stroke="#27f0d7" stroke-width="1.0" fill="#00f" fill-opacity="0.1"/>
<circle cx="254.85625" cy="366.48776" r="8.305749" stroke="#27f0d7" stroke-width="1.0" fill="#f00" fill-opacity="0.1"/>
<circle cx="224.72937" cy="345.56305" r="8.305749" stroke="#1cf0e2" stroke-width="1.0" fill="#ff0" fill-opacity="0.1"/>
</svg>
