<?xml version="1.0" standalone="no"?>
<!DOCTYPE svg PUBLIC "-//W3C//DTD SVG 1.1//EN" "http://www.w3.org/Graphics/SVG/1.1/DTD/svg11.dtd">
<svg opacity="20%" width="30cm" height="30cm" version="1.1" viewBox="0 0 1000 1000" xmlns="http://www.w3.org/2000/svg" xmlns:xlink="http://www.w3.org/1999/xlink">
<desc>DrawTrails of automics data, Mon Jul 25 12:24:01 BST 2011</desc>
<filter id="desaturate"  primitiveUnits="objectBoundingBox">
<feImage x="0%" y="0%" width="100%" height="100%" xlink:href="altontowers-zoom15.png"/>
<feColorMatrix type="matrix" values="0.3333 0.3333 0.3333 0 0 0.3333 0.3333 0.3333 0 0 0.3333 0.3333 0.3333 0 0 0      0      0      1 0"/>
<feColorMatrix type="matrix" values="0.1 0 0 0 0 0 0.1 0 0 0 0 0 0.1 0 0 0      0      0      1 0"/>
</filter>
<rect x="-264.37028285176257" y="-264.37028285176257" width="1528.7405657035251" height="1528.7405657035251" filter="url(#desaturate)"/>
<line x1="356.2587" y1="243.2125" x2="346.96353" y2="257.04846" stroke="#9cf062" stroke-width="0.5" />
<line x1="346.96353" y1="257.04846" x2="339.50513" y2="273.83603" stroke="#9cf062" stroke-width="0.5" />
<line x1="339.50513" y1="273.83603" x2="321.58267" y2="279.83157" stroke="#9bf063" stroke-width="0.5" />
<line x1="321.58267" y1="279.83157" x2="305.497" y2="286.74948" stroke="#9bf063" stroke-width="0.5" />
<line x1="305.497" y1="286.74948" x2="282.1756" y2="333.2376" stroke="#9bf063" stroke-width="0.5" stroke-dasharray="3 3"/>
<line x1="282.1756" y1="333.2376" x2="275.60773" y2="348.54904" stroke="#9bf063" stroke-width="0.5" />
<line x1="275.60773" y1="348.54904" x2="270.5427" y2="365.42844" stroke="#9bf063" stroke-width="0.5" />
<line x1="270.5427" y1="365.42844" x2="265.75595" y2="382.21555" stroke="#9bf063" stroke-width="0.5" />
<line x1="265.75595" y1="382.21555" x2="263.69656" y2="399.556" stroke="#9bf063" stroke-width="0.5" />
<line x1="263.69656" y1="399.556" x2="260.69092" y2="416.8964" stroke="#9af064" stroke-width="0.5" />
<line x1="260.69092" y1="416.8964" x2="159.44585" y2="520.2914" stroke="#99f065" stroke-width="0.5" stroke-dasharray="3 3"/>
<line x1="159.44585" y1="520.2914" x2="143.63847" y2="514.2962" stroke="#99f065" stroke-width="0.5" />
<line x1="143.63847" y1="514.2962" x2="129.61223" y2="523.24286" stroke="#98f066" stroke-width="0.5" />
<line x1="129.61223" y1="523.24286" x2="112.580345" y2="530.6215" stroke="#98f066" stroke-width="0.5" />
<line x1="112.580345" y1="530.6215" x2="97.66353" y2="538.0924" stroke="#98f066" stroke-width="0.5" />
<line x1="97.66353" y1="538.0924" x2="111.68979" y2="548.9759" stroke="#98f066" stroke-width="0.5" />
<line x1="111.68979" y1="548.9759" x2="116.476524" y2="532.6507" stroke="#97f067" stroke-width="0.5" />
<line x1="116.476524" y1="532.6507" x2="99.7786" y2="536.0633" stroke="#97f067" stroke-width="0.5" />
<line x1="99.7786" y1="536.0633" x2="102.72857" y2="552.3885" stroke="#97f067" stroke-width="0.5" />
<line x1="102.72857" y1="552.3885" x2="119.14819" y2="555.4322" stroke="#97f067" stroke-width="0.5" />
<line x1="119.14819" y1="555.4322" x2="130.22449" y2="569.267" stroke="#8ef070" stroke-width="0.5" />
<line x1="130.22449" y1="569.267" x2="147.53467" y2="573.23303" stroke="#8ef070" stroke-width="0.5" />
<line x1="147.53467" y1="573.23303" x2="164.23259" y2="571.2039" stroke="#8df071" stroke-width="0.5" />
<line x1="164.23259" y1="571.2039" x2="169.01932" y2="554.8788" stroke="#8cf072" stroke-width="0.5" />
<line x1="169.01932" y1="554.8788" x2="157.99869" y2="542.5196" stroke="#8bf073" stroke-width="0.5" />
<line x1="157.99869" y1="542.5196" x2="153.82422" y2="523.70404" stroke="#8bf073" stroke-width="0.5" />
<line x1="153.82422" y1="523.70404" x2="137.96118" y2="518.26227" stroke="#8bf073" stroke-width="0.5" />
<line x1="137.96118" y1="518.26227" x2="121.541565" y2="522.78174" stroke="#8bf073" stroke-width="0.5" />
<line x1="121.541565" y1="522.78174" x2="105.40024" y2="527.2089" stroke="#8af074" stroke-width="0.5" />
<line x1="105.40024" y1="527.2089" x2="107.515305" y2="510.33017" stroke="#81f07d" stroke-width="0.5" />
<line x1="107.515305" y1="510.33017" x2="124.54719" y2="507.3787" stroke="#7ff07f" stroke-width="0.5" />
<line x1="124.54719" y1="507.3787" x2="141.24512" y2="506.91754" stroke="#7ff07f" stroke-width="0.5" />
<line x1="141.24512" y1="506.91754" x2="156.49588" y2="514.8496" stroke="#7ff07f" stroke-width="0.5" />
<line x1="156.49588" y1="514.8496" x2="171.691" y2="521.76715" stroke="#7ff07f" stroke-width="0.5" />
<line x1="171.691" y1="521.76715" x2="332.04672" y2="674.5949" stroke="#7cf082" stroke-width="0.5" stroke-dasharray="3 3"/>
<line x1="332.04672" y1="674.5949" x2="349.0786" y2="673.6726" stroke="#7cf082" stroke-width="0.5" />
<line x1="349.0786" y1="673.6726" x2="365.77652" y2="676.62396" stroke="#7cf082" stroke-width="0.5" />
<line x1="365.77652" y1="676.62396" x2="378.6339" y2="688.9828" stroke="#7cf082" stroke-width="0.5" />
<line x1="378.6339" y1="688.9828" x2="451.15857" y2="697.3756" stroke="#7bf083" stroke-width="0.5" stroke-dasharray="3 3"/>
<line x1="451.15857" y1="697.3756" x2="468.19046" y2="701.3415" stroke="#7bf083" stroke-width="0.5" />
<line x1="468.19046" y1="701.3415" x2="475.98282" y2="716.65155" stroke="#79f085" stroke-width="0.5" />
<line x1="475.98282" y1="716.65155" x2="478.9328" y2="732.976" stroke="#6ef090" stroke-width="0.5" />
<line x1="478.9328" y1="732.976" x2="465.24048" y2="720.6174" stroke="#6bf093" stroke-width="0.5" />
<line x1="465.24048" y1="720.6174" x2="449.98972" y2="713.7002" stroke="#69f095" stroke-width="0.5" />
<line x1="449.98972" y1="713.7002" x2="434.46066" y2="707.79755" stroke="#66f098" stroke-width="0.5" />
<line x1="434.46066" y1="707.79755" x2="450.602" y2="698.39014" stroke="#61f09d" stroke-width="0.5" stroke-dasharray="3 3"/>
<line x1="450.602" y1="698.39014" x2="467.63385" y2="699.86584" stroke="#61f09d" stroke-width="0.5" />
<line x1="467.63385" y1="699.86584" x2="482.55066" y2="707.33636" stroke="#61f09d" stroke-width="0.5" />
<line x1="482.55066" y1="707.33636" x2="500.7514" y2="710.74884" stroke="#61f09d" stroke-width="0.5" />
<line x1="500.7514" y1="710.74884" x2="486.72516" y2="700.32697" stroke="#60f09e" stroke-width="0.5" />
<line x1="486.72516" y1="700.32697" x2="471.47437" y2="686.49255" stroke="#60f09e" stroke-width="0.5" />
<line x1="471.47437" y1="686.49255" x2="455.05475" y2="683.0801" stroke="#60f09e" stroke-width="0.5" />
<line x1="455.05475" y1="683.0801" x2="440.41623" y2="692.9486" stroke="#60f09e" stroke-width="0.5" />
<line x1="440.41623" y1="692.9486" x2="424.33057" y2="698.8513" stroke="#60f09e" stroke-width="0.5" />
<line x1="424.33057" y1="698.8513" x2="350.58142" y2="733.52936" stroke="#5ff09f" stroke-width="0.5" stroke-dasharray="3 3"/>
<line x1="350.58142" y1="733.52936" x2="333.27124" y2="736.01953" stroke="#5ff09f" stroke-width="0.5" />
<line x1="333.27124" y1="736.01953" x2="329.0411" y2="752.34393" stroke="#5ff09f" stroke-width="0.5" />
<line x1="329.0411" y1="752.34393" x2="347.8541" y2="764.1491" stroke="#5cf0a2" stroke-width="0.5" />
<line x1="347.8541" y1="764.1491" x2="365.49823" y2="755.75635" stroke="#5cf0a2" stroke-width="0.5" />
<line x1="365.49823" y1="755.75635" x2="396.2224" y2="732.51483" stroke="#5cf0a2" stroke-width="0.5" />
<line x1="396.2224" y1="732.51483" x2="454.49817" y2="699.40466" stroke="#5bf0a3" stroke-width="0.5" stroke-dasharray="3 3"/>
<line x1="454.49817" y1="699.40466" x2="466.13104" y2="686.03143" stroke="#5bf0a3" stroke-width="0.5" />
<line x1="466.13104" y1="686.03143" x2="480.1573" y2="677.08514" stroke="#5bf0a3" stroke-width="0.5" />
<line x1="480.1573" y1="677.08514" x2="498.35803" y2="666.7554" stroke="#5bf0a3" stroke-width="0.5" />
<line x1="498.35803" y1="666.7554" x2="506.707" y2="345.59744" stroke="#59f0a5" stroke-width="0.5" stroke-dasharray="3 3"/>
<line x1="506.707" y1="345.59744" x2="495.68637" y2="333.2376" stroke="#59f0a5" stroke-width="0.5" />
<line x1="495.68637" y1="333.2376" x2="481.66013" y2="322.35352" stroke="#59f0a5" stroke-width="0.5" />
<line x1="481.66013" y1="322.35352" x2="465.7971" y2="311.9306" stroke="#59f0a5" stroke-width="0.5" />
<line x1="465.7971" y1="311.9306" x2="451.77084" y2="300.5853" stroke="#59f0a5" stroke-width="0.5" />
<line x1="451.77084" y1="300.5853" x2="511.49374" y2="276.78766" stroke="#57f0a7" stroke-width="0.5" stroke-dasharray="3 3"/>
<line x1="511.49374" y1="276.78766" x2="505.81644" y2="294.682" stroke="#56f0a8" stroke-width="0.5" />
<line x1="505.81644" y1="294.682" x2="498.07974" y2="311.9306" stroke="#56f0a8" stroke-width="0.5" />
<line x1="498.07974" y1="311.9306" x2="479.82333" y2="307.96436" stroke="#56f0a8" stroke-width="0.5" />
<line x1="479.82333" y1="307.96436" x2="466.13104" y2="283.24442" stroke="#55f0a9" stroke-width="0.5" />
<line x1="466.13104" y1="283.24442" x2="488.50626" y2="272.91364" stroke="#4af0b4" stroke-width="0.5" stroke-dasharray="3 3"/>
<line x1="488.50626" y1="272.91364" x2="504.92587" y2="268.3939" stroke="#49f0b5" stroke-width="0.5" />
<line x1="504.92587" y1="268.3939" x2="511.49374" y2="285.73486" stroke="#49f0b5" stroke-width="0.5" />
<line x1="511.49374" y1="285.73486" x2="507.59756" y2="302.0611" stroke="#49f0b5" stroke-width="0.5" />
<line x1="507.59756" y1="302.0611" x2="504.31363" y2="318.3873" stroke="#49f0b5" stroke-width="0.5" />
<line x1="504.31363" y1="318.3873" x2="490.62134" y2="328.81018" stroke="#46f0b8" stroke-width="0.5" />
<line x1="490.62134" y1="328.81018" x2="479.54504" y2="341.17004" stroke="#46f0b8" stroke-width="0.5" />
<line x1="479.54504" y1="341.17004" x2="463.40372" y2="335.72803" stroke="#45f0b9" stroke-width="0.5" />
<line x1="463.40372" y1="335.72803" x2="448.4869" y2="327.33438" stroke="#45f0b9" stroke-width="0.5" />
<line x1="448.4869" y1="327.33438" x2="302.76968" y2="383.23016" stroke="#44f0ba" stroke-width="0.5" stroke-dasharray="3 3"/>
<line x1="302.76968" y1="383.23016" x2="286.68402" y2="389.6867" stroke="#43f0bb" stroke-width="0.5" />
<line x1="286.68402" y1="389.6867" x2="269.65213" y2="390.1479" stroke="#43f0bb" stroke-width="0.5" />
<line x1="269.65213" y1="390.1479" x2="265.75595" y2="373.82202" stroke="#43f0bb" stroke-width="0.5" />
<line x1="265.75595" y1="373.82202" x2="262.47205" y2="357.49606" stroke="#43f0bb" stroke-width="0.5" />
<line x1="262.47205" y1="357.49606" x2="248.72408" y2="347.62668" stroke="#42f0bc" stroke-width="0.5" />
<line x1="248.72408" y1="347.62668" x2="256.79474" y2="363.39923" stroke="#42f0bc" stroke-width="0.5" />
<line x1="256.79474" y1="363.39923" x2="241.59962" y2="372.8074" stroke="#2ef0d0" stroke-width="0.5" />
<line x1="363.99542" y1="240.26082" x2="349.69086" y2="251.14511" stroke="#9cf062" stroke-width="0.5" />
<line x1="349.69086" y1="251.14511" x2="346.40692" y2="269.86972" stroke="#9cf062" stroke-width="0.5" />
<line x1="346.40692" y1="269.86972" x2="331.15616" y2="277.3411" stroke="#9bf063" stroke-width="0.5" />
<line x1="331.15616" y1="277.3411" x2="314.45825" y2="281.7686" stroke="#9bf063" stroke-width="0.5" />
<line x1="314.45825" y1="281.7686" x2="274.43887" y2="340.15543" stroke="#9bf063" stroke-width="0.5" stroke-dasharray="3 3"/>
<line x1="274.43887" y1="340.15543" x2="272.65778" y2="357.49606" stroke="#9bf063" stroke-width="0.5" />
<line x1="272.65778" y1="357.49606" x2="268.42764" y2="374.2832" stroke="#9bf063" stroke-width="0.5" />
<line x1="268.42764" y1="374.2832" x2="265.75595" y2="391.1625" stroke="#9af064" stroke-width="0.5" />
<line x1="265.75595" y1="391.1625" x2="260.69092" y2="408.41068" stroke="#9af064" stroke-width="0.5" />
<line x1="260.69092" y1="408.41068" x2="158.277" y2="512.8205" stroke="#99f065" stroke-width="0.5" stroke-dasharray="3 3"/>
<line x1="158.277" y1="512.8205" x2="140.63286" y2="514.2962" stroke="#99f065" stroke-width="0.5" />
<line x1="140.63286" y1="514.2962" x2="128.44337" y2="525.73315" stroke="#98f066" stroke-width="0.5" />
<line x1="128.44337" y1="525.73315" x2="112.580345" y2="532.1895" stroke="#98f066" stroke-width="0.5" />
<line x1="112.580345" y1="532.1895" x2="96.77297" y2="540.0293" stroke="#98f066" stroke-width="0.5" />
<line x1="96.77297" y1="540.0293" x2="109.63038" y2="552.9419" stroke="#98f066" stroke-width="0.5" />
<line x1="109.63038" y1="552.9419" x2="125.71604" y2="557.3691" stroke="#97f067" stroke-width="0.5" />
<line x1="125.71604" y1="557.3691" x2="123.65663" y2="540.5827" stroke="#97f067" stroke-width="0.5" />
<line x1="123.65663" y1="540.5827" x2="106.34645" y2="539.5682" stroke="#97f067" stroke-width="0.5" />
<line x1="106.34645" y1="539.5682" x2="113.4709" y2="560.3205" stroke="#97f067" stroke-width="0.5" />
<line x1="113.4709" y1="560.3205" x2="131.39334" y2="560.3205" stroke="#96f068" stroke-width="0.5" />
<line x1="131.39334" y1="560.3205" x2="123.32267" y2="542.5196" stroke="#96f068" stroke-width="0.5" />
<line x1="123.32267" y1="542.5196" x2="107.23701" y2="546.9468" stroke="#93f06b" stroke-width="0.5" />
<line x1="107.23701" y1="546.9468" x2="123.32267" y2="560.8739" stroke="#8ef070" stroke-width="0.5" />
<line x1="123.32267" y1="560.8739" x2="140.07626" y2="565.7622" stroke="#8ef070" stroke-width="0.5" />
<line x1="140.07626" y1="565.7622" x2="157.38644" y2="570.7428" stroke="#8cf072" stroke-width="0.5" />
<line x1="157.38644" y1="570.7428" x2="169.01932" y2="558.3836" stroke="#8cf072" stroke-width="0.5" />
<line x1="169.01932" y1="558.3836" x2="163.676" y2="542.5196" stroke="#8bf073" stroke-width="0.5" />
<line x1="163.676" y1="542.5196" x2="157.66473" y2="526.19434" stroke="#8bf073" stroke-width="0.5" />
<line x1="157.66473" y1="526.19434" x2="143.02623" y2="516.3254" stroke="#8bf073" stroke-width="0.5" />
<line x1="143.02623" y1="516.3254" x2="127.21886" y2="521.76715" stroke="#8bf073" stroke-width="0.5" />
<line x1="127.21886" y1="521.76715" x2="111.07753" y2="525.73315" stroke="#8af074" stroke-width="0.5" />
<line x1="111.07753" y1="525.73315" x2="94.37961" y2="527.2089" stroke="#87f077" stroke-width="0.5" />
<line x1="94.37961" y1="527.2089" x2="102.72857" y2="512.8205" stroke="#81f07d" stroke-width="0.5" />
<line x1="102.72857" y1="512.8205" x2="121.87552" y2="507.9321" stroke="#7ff07f" stroke-width="0.5" />
<line x1="121.87552" y1="507.9321" x2="139.464" y2="508.39328" stroke="#7ff07f" stroke-width="0.5" />
<line x1="139.464" y1="508.39328" x2="155.60533" y2="513.8351" stroke="#7ff07f" stroke-width="0.5" />
<line x1="155.60533" y1="513.8351" x2="170.24384" y2="521.76715" stroke="#7ef080" stroke-width="0.5" />
<line x1="170.24384" y1="521.76715" x2="187.22006" y2="523.24286" stroke="#7ef080" stroke-width="0.5" />
<line x1="187.22006" y1="523.24286" x2="335.05234" y2="672.6581" stroke="#7cf082" stroke-width="0.5" stroke-dasharray="3 3"/>
<line x1="335.05234" y1="672.6581" x2="352.08423" y2="675.1483" stroke="#7cf082" stroke-width="0.5" />
<line x1="352.08423" y1="675.1483" x2="367.55765" y2="682.06555" stroke="#7cf082" stroke-width="0.5" />
<line x1="367.55765" y1="682.06555" x2="380.69333" y2="693.4098" stroke="#7cf082" stroke-width="0.5" />
<line x1="380.69333" y1="693.4098" x2="446.9841" y2="694.4243" stroke="#7bf083" stroke-width="0.5" stroke-dasharray="3 3"/>
<line x1="446.9841" y1="694.4243" x2="463.40372" y2="687.5071" stroke="#7bf083" stroke-width="0.5" />
<line x1="463.40372" y1="687.5071" x2="473.58945" y2="700.8804" stroke="#7bf083" stroke-width="0.5" />
<line x1="473.58945" y1="700.8804" x2="477.48563" y2="718.68054" stroke="#79f085" stroke-width="0.5" />
<line x1="477.48563" y1="718.68054" x2="478.3762" y2="735.4662" stroke="#73f08b" stroke-width="0.5" />
<line x1="478.3762" y1="735.4662" x2="462.23486" y2="719.69507" stroke="#6af094" stroke-width="0.5" stroke-dasharray="3 3"/>
<line x1="462.23486" y1="719.69507" x2="447.31805" y2="712.22455" stroke="#68f096" stroke-width="0.5" />
<line x1="447.31805" y1="712.22455" x2="432.0673" y2="704.29285" stroke="#65f099" stroke-width="0.5" />
<line x1="432.0673" y1="704.29285" x2="441.91907" y2="697.3756" stroke="#61f09d" stroke-width="0.5" stroke-dasharray="3 3"/>
<line x1="441.91907" y1="697.3756" x2="458.0604" y2="691.9341" stroke="#61f09d" stroke-width="0.5" />
<line x1="458.0604" y1="691.9341" x2="474.48" y2="698.8513" stroke="#61f09d" stroke-width="0.5" />
<line x1="474.48" y1="698.8513" x2="486.11288" y2="711.21" stroke="#61f09d" stroke-width="0.5" />
<line x1="486.11288" y1="711.21" x2="505.53815" y2="711.21" stroke="#60f09e" stroke-width="0.5" />
<line x1="505.53815" y1="711.21" x2="504.31363" y2="690.91956" stroke="#60f09e" stroke-width="0.5" />
<line x1="504.31363" y1="690.91956" x2="488.78458" y2="696.9145" stroke="#60f09e" stroke-width="0.5" />
<line x1="488.78458" y1="696.9145" x2="472.08664" y2="691.9341" stroke="#60f09e" stroke-width="0.5" />
<line x1="472.08664" y1="691.9341" x2="452.1048" y2="696.9145" stroke="#60f09e" stroke-width="0.5" />
<line x1="452.1048" y1="696.9145" x2="435.0729" y2="698.8513" stroke="#60f09e" stroke-width="0.5" />
<line x1="435.0729" y1="698.8513" x2="418.6533" y2="705.7685" stroke="#60f09e" stroke-width="0.5" />
<line x1="418.6533" y1="705.7685" x2="337.4457" y2="741.461" stroke="#5ff09f" stroke-width="0.5" stroke-dasharray="3 3"/>
<line x1="337.4457" y1="741.461" x2="358.65207" y2="730.02466" stroke="#5cf0a2" stroke-width="0.5" />
<line x1="358.65207" y1="730.02466" x2="467.63385" y2="678.0997" stroke="#5bf0a3" stroke-width="0.5" stroke-dasharray="3 3"/>
<line x1="467.63385" y1="678.0997" x2="482.55066" y2="667.6777" stroke="#5bf0a3" stroke-width="0.5" />
<line x1="482.55066" y1="667.6777" x2="501.0297" y2="665.2797" stroke="#5bf0a3" stroke-width="0.5" />
<line x1="501.0297" y1="665.2797" x2="487.3374" y2="333.2376" stroke="#59f0a5" stroke-width="0.5" stroke-dasharray="3 3"/>
<line x1="487.3374" y1="333.2376" x2="475.98282" y2="319.40192" stroke="#59f0a5" stroke-width="0.5" />
<line x1="475.98282" y1="319.40192" x2="455.66702" y2="305.56616" stroke="#59f0a5" stroke-width="0.5" />
<line x1="455.66702" y1="305.56616" x2="444.03412" y2="293.2062" stroke="#58f0a6" stroke-width="0.5" />
<line x1="444.03412" y1="293.2062" x2="507.04095" y2="268.3939" stroke="#57f0a7" stroke-width="0.5" stroke-dasharray="3 3"/>
<line x1="507.04095" y1="268.3939" x2="517.171" y2="282.7832" stroke="#56f0a8" stroke-width="0.5" />
<line x1="517.171" y1="282.7832" x2="507.04095" y2="297.63364" stroke="#56f0a8" stroke-width="0.5" />
<line x1="507.04095" y1="297.63364" x2="500.13916" y2="313.40643" stroke="#56f0a8" stroke-width="0.5" />
<line x1="500.13916" y1="313.40643" x2="494.7958" y2="330.28598" stroke="#56f0a8" stroke-width="0.5" />
<line x1="494.7958" y1="330.28598" x2="482.2167" y2="318.3873" stroke="#55f0a9" stroke-width="0.5" />
<line x1="482.2167" y1="318.3873" x2="470.58383" y2="306.48856" stroke="#55f0a9" stroke-width="0.5" />
<line x1="470.58383" y1="306.48856" x2="454.49817" y2="298.6483" stroke="#55f0a9" stroke-width="0.5" />
<line x1="454.49817" y1="298.6483" x2="457.78207" y2="282.22977" stroke="#55f0a9" stroke-width="0.5" />
<line x1="457.78207" y1="282.22977" x2="498.07974" y2="279.27814" stroke="#55f0a9" stroke-width="0.5" stroke-dasharray="3 3"/>
<line x1="498.07974" y1="279.27814" x2="510.60318" y2="290.71576" stroke="#49f0b5" stroke-width="0.5" />
<line x1="510.60318" y1="290.71576" x2="504.92587" y2="306.48856" stroke="#49f0b5" stroke-width="0.5" />
<line x1="504.92587" y1="306.48856" x2="500.4731" y2="322.8147" stroke="#48f0b6" stroke-width="0.5" />
<line x1="500.4731" y1="322.8147" x2="487.6157" y2="337.20383" stroke="#46f0b8" stroke-width="0.5" />
<line x1="487.6157" y1="337.20383" x2="471.19608" y2="334.7134" stroke="#45f0b9" stroke-width="0.5" />
<line x1="471.19608" y1="334.7134" x2="456.27927" y2="326.31976" stroke="#45f0b9" stroke-width="0.5" />
<line x1="456.27927" y1="326.31976" x2="441.64075" y2="317.9261" stroke="#45f0b9" stroke-width="0.5" />
<line x1="441.64075" y1="317.9261" x2="296.5358" y2="385.72055" stroke="#43f0bb" stroke-width="0.5" stroke-dasharray="3 3"/>
<line x1="296.5358" y1="385.72055" x2="280.11618" y2="389.1333" stroke="#43f0bb" stroke-width="0.5" />
<line x1="280.11618" y1="389.1333" x2="268.7616" y2="376.3124" stroke="#43f0bb" stroke-width="0.5" />
<line x1="268.7616" y1="376.3124" x2="265.75595" y2="359.98645" stroke="#43f0bb" stroke-width="0.5" />
<line x1="265.75595" y1="359.98645" x2="252.00801" y2="346.15088" stroke="#42f0bc" stroke-width="0.5" />
<line x1="252.00801" y1="346.15088" x2="258.29755" y2="361.92343" stroke="#41f0bd" stroke-width="0.5" />
<line x1="258.29755" y1="361.92343" x2="248.44579" y2="348.54904" stroke="#3df0c1" stroke-width="0.5" />
<line x1="248.44579" y1="348.54904" x2="248.44579" y2="365.42844" stroke="#36f0c8" stroke-width="0.5" />
<line x1="248.44579" y1="365.42844" x2="234.14122" y2="357.03488" stroke="#29f0d5" stroke-width="0.5" />
<line x1="234.14122" y1="357.03488" x2="219.781" y2="348.54904" stroke="#27f0d7" stroke-width="0.5" />
<line x1="219.781" y1="348.54904" x2="229.63278" y2="335.1746" stroke="#20f0de" stroke-width="0.5" />
<line x1="229.63278" y1="335.1746" x2="241.26567" y2="347.07324" stroke="#20f0de" stroke-width="0.5" />
<line x1="241.26567" y1="347.07324" x2="249.67029" y2="331.3006" stroke="#1ef0e0" stroke-width="0.5" />
<line x1="249.67029" y1="331.3006" x2="263.36258" y2="317.37265" stroke="#1ef0e0" stroke-width="0.5" />
<line x1="263.36258" y1="317.37265" x2="274.43887" y2="304.09036" stroke="#1ef0e0" stroke-width="0.5" />
<line x1="274.43887" y1="304.09036" x2="307.89038" y2="258.5243" stroke="#1df0e1" stroke-width="0.5" stroke-dasharray="3 3"/>
<line x1="347.8541" y1="266.45688" x2="331.43445" y2="277.3411" stroke="#9cf062" stroke-width="0.5" />
<line x1="331.43445" y1="277.3411" x2="314.73654" y2="280.75394" stroke="#9cf062" stroke-width="0.5" />
<line x1="314.73654" y1="280.75394" x2="280.39447" y2="332.223" stroke="#9bf063" stroke-width="0.5" stroke-dasharray="3 3"/>
<line x1="280.39447" y1="332.223" x2="274.10492" y2="348.08786" stroke="#9bf063" stroke-width="0.5" />
<line x1="274.10492" y1="348.08786" x2="270.2644" y2="364.41385" stroke="#9bf063" stroke-width="0.5" />
<line x1="270.2644" y1="364.41385" x2="267.53708" y2="384.24475" stroke="#9bf063" stroke-width="0.5" />
<line x1="267.53708" y1="384.24475" x2="265.1437" y2="401.0318" stroke="#9bf063" stroke-width="0.5" />
<line x1="265.1437" y1="401.0318" x2="258.90982" y2="416.8964" stroke="#9bf063" stroke-width="0.5" />
<line x1="258.90982" y1="416.8964" x2="159.7798" y2="521.30597" stroke="#99f065" stroke-width="0.5" stroke-dasharray="3 3"/>
<line x1="159.7798" y1="521.30597" x2="143.02623" y2="515.772" stroke="#99f065" stroke-width="0.5" />
<line x1="143.02623" y1="515.772" x2="128.1094" y2="525.17975" stroke="#99f065" stroke-width="0.5" />
<line x1="128.1094" y1="525.17975" x2="111.68979" y2="534.1264" stroke="#98f066" stroke-width="0.5" />
<line x1="111.68979" y1="534.1264" x2="94.657906" y2="537.6312" stroke="#98f066" stroke-width="0.5" />
<line x1="94.657906" y1="537.6312" x2="95.54846" y2="554.8788" stroke="#98f066" stroke-width="0.5" />
<line x1="95.54846" y1="554.8788" x2="116.476524" y2="558.3836" stroke="#98f066" stroke-width="0.5" />
<line x1="116.476524" y1="558.3836" x2="131.39334" y2="550.4516" stroke="#98f066" stroke-width="0.5" />
<line x1="131.39334" y1="550.4516" x2="119.76045" y2="538.5536" stroke="#98f066" stroke-width="0.5" />
<line x1="119.76045" y1="538.5536" x2="103.06252" y2="542.0584" stroke="#97f067" stroke-width="0.5" />
<line x1="103.06252" y1="542.0584" x2="126.6066" y2="558.8448" stroke="#97f067" stroke-width="0.5" />
<line x1="126.6066" y1="558.8448" x2="122.15382" y2="541.50507" stroke="#96f068" stroke-width="0.5" />
<line x1="122.15382" y1="541.50507" x2="124.21323" y2="558.3836" stroke="#8ff06f" stroke-width="0.5" />
<line x1="124.21323" y1="558.3836" x2="137.07063" y2="569.267" stroke="#8ef070" stroke-width="0.5" />
<line x1="137.07063" y1="569.267" x2="153.82422" y2="572.2185" stroke="#8ef070" stroke-width="0.5" />
<line x1="153.82422" y1="572.2185" x2="167.85046" y2="563.272" stroke="#8cf072" stroke-width="0.5" />
<line x1="167.85046" y1="563.272" x2="163.95428" y2="546.9468" stroke="#8cf072" stroke-width="0.5" />
<line x1="163.95428" y1="546.9468" x2="158.277" y2="530.6215" stroke="#8bf073" stroke-width="0.5" />
<line x1="158.277" y1="530.6215" x2="150.81859" y2="515.3108" stroke="#8bf073" stroke-width="0.5" />
<line x1="150.81859" y1="515.3108" x2="134.065" y2="517.33997" stroke="#8bf073" stroke-width="0.5" />
<line x1="134.065" y1="517.33997" x2="116.19823" y2="520.75256" stroke="#8bf073" stroke-width="0.5" />
<line x1="116.19823" y1="520.75256" x2="99.16634" y2="524.25745" stroke="#88f076" stroke-width="0.5" />
<line x1="99.16634" y1="524.25745" x2="98.27579" y2="506.91754" stroke="#82f07c" stroke-width="0.5" />
<line x1="98.27579" y1="506.91754" x2="114.69541" y2="510.88358" stroke="#80f07e" stroke-width="0.5" />
<line x1="114.69541" y1="510.88358" x2="131.39334" y2="509.86902" stroke="#7ff07f" stroke-width="0.5" />
<line x1="131.39334" y1="509.86902" x2="148.42522" y2="511.34476" stroke="#7ff07f" stroke-width="0.5" />
<line x1="148.42522" y1="511.34476" x2="164.23259" y2="517.8011" stroke="#7ff07f" stroke-width="0.5" />
<line x1="164.23259" y1="517.8011" x2="180.09561" y2="522.78174" stroke="#7ff07f" stroke-width="0.5" />
<line x1="180.09561" y1="522.78174" x2="334.4401" y2="671.64355" stroke="#7cf082" stroke-width="0.5" stroke-dasharray="3 3"/>
<line x1="334.4401" y1="671.64355" x2="354.7559" y2="675.60944" stroke="#7cf082" stroke-width="0.5" />
<line x1="354.7559" y1="675.60944" x2="369.6727" y2="683.0801" stroke="#7cf082" stroke-width="0.5" />
<line x1="369.6727" y1="683.0801" x2="381.91785" y2="694.88544" stroke="#7cf082" stroke-width="0.5" />
<line x1="381.91785" y1="694.88544" x2="452.66138" y2="689.9973" stroke="#7bf083" stroke-width="0.5" stroke-dasharray="3 3"/>
<line x1="452.66138" y1="689.9973" x2="468.19046" y2="700.32697" stroke="#7bf083" stroke-width="0.5" />
<line x1="468.19046" y1="700.32697" x2="478.04224" y2="713.7002" stroke="#7af084" stroke-width="0.5" />
<line x1="478.04224" y1="713.7002" x2="472.9772" y2="729.56354" stroke="#77f087" stroke-width="0.5" />
<line x1="472.9772" y1="729.56354" x2="431.78897" y2="705.7685" stroke="#66f098" stroke-width="0.5" stroke-dasharray="3 3"/>
<line x1="431.78897" y1="705.7685" x2="447.59634" y2="695.43884" stroke="#61f09d" stroke-width="0.5" stroke-dasharray="3 3"/>
<line x1="447.59634" y1="695.43884" x2="465.24048" y2="694.4243" stroke="#61f09d" stroke-width="0.5" />
<line x1="465.24048" y1="694.4243" x2="477.48563" y2="705.7685" stroke="#61f09d" stroke-width="0.5" />
<line x1="477.48563" y1="705.7685" x2="493.293" y2="713.2391" stroke="#61f09d" stroke-width="0.5" />
<line x1="493.293" y1="713.2391" x2="481.32614" y2="700.32697" stroke="#60f09e" stroke-width="0.5" />
<line x1="481.32614" y1="700.32697" x2="467.0216" y2="688.9828" stroke="#60f09e" stroke-width="0.5" />
<line x1="467.0216" y1="688.9828" x2="448.82086" y2="696.45337" stroke="#60f09e" stroke-width="0.5" />
<line x1="448.82086" y1="696.45337" x2="432.40125" y2="699.86584" stroke="#60f09e" stroke-width="0.5" />
<line x1="432.40125" y1="699.86584" x2="342.1768" y2="738.9708" stroke="#5ff09f" stroke-width="0.5" stroke-dasharray="3 3"/>
<line x1="342.1768" y1="738.9708" x2="329.37506" y2="749.85376" stroke="#5ff09f" stroke-width="0.5" />
<line x1="329.37506" y1="749.85376" x2="348.74463" y2="738.9708" stroke="#5cf0a2" stroke-width="0.5" />
<line x1="348.74463" y1="738.9708" x2="365.49823" y2="742.93665" stroke="#5cf0a2" stroke-width="0.5" />
<line x1="365.49823" y1="742.93665" x2="440.13794" y2="697.929" stroke="#5cf0a2" stroke-width="0.5" stroke-dasharray="3 3"/>
<line x1="440.13794" y1="697.929" x2="456.27927" y2="691.47296" stroke="#5cf0a2" stroke-width="0.5" />
<line x1="456.27927" y1="691.47296" x2="474.7583" y2="684.0024" stroke="#5cf0a2" stroke-width="0.5" />
<line x1="474.7583" y1="684.0024" x2="490.28738" y2="674.5949" stroke="#5cf0a2" stroke-width="0.5" />
<line x1="490.28738" y1="674.5949" x2="507.59756" y2="345.13626" stroke="#59f0a5" stroke-width="0.5" stroke-dasharray="3 3"/>
<line x1="507.59756" y1="345.13626" x2="492.68076" y2="335.1746" stroke="#59f0a5" stroke-width="0.5" />
<line x1="492.68076" y1="335.1746" x2="476.87338" y2="320.41653" stroke="#59f0a5" stroke-width="0.5" />
<line x1="476.87338" y1="320.41653" x2="461.95657" y2="309.9936" stroke="#59f0a5" stroke-width="0.5" />
<line x1="461.95657" y1="309.9936" x2="447.59634" y2="296.61902" stroke="#59f0a5" stroke-width="0.5" />
<line x1="447.59634" y1="296.61902" x2="512.3843" y2="271.34555" stroke="#57f0a7" stroke-width="0.5" stroke-dasharray="3 3"/>
<line x1="512.3843" y1="271.34555" x2="513.8871" y2="290.16232" stroke="#57f0a7" stroke-width="0.5" />
<line x1="513.8871" y1="290.16232" x2="506.1504" y2="305.01273" stroke="#57f0a7" stroke-width="0.5" />
<line x1="506.1504" y1="305.01273" x2="497.7458" y2="319.8631" stroke="#56f0a8" stroke-width="0.5" />
<line x1="497.7458" y1="319.8631" x2="481.04785" y2="317.9261" stroke="#56f0a8" stroke-width="0.5" />
<line x1="481.04785" y1="317.9261" x2="467.2999" y2="308.5178" stroke="#56f0a8" stroke-width="0.5" />
<line x1="467.2999" y1="308.5178" x2="450.88028" y2="301.5999" stroke="#55f0a9" stroke-width="0.5" />
<line x1="450.88028" y1="301.5999" x2="453.27365" y2="284.25903" stroke="#55f0a9" stroke-width="0.5" />
<line x1="453.27365" y1="284.25903" x2="508.2098" y2="267.9327" stroke="#4af0b4" stroke-width="0.5" stroke-dasharray="3 3"/>
<line x1="508.2098" y1="267.9327" x2="512.3843" y2="287.21066" stroke="#49f0b5" stroke-width="0.5" />
<line x1="512.3843" y1="287.21066" x2="507.04095" y2="303.0757" stroke="#49f0b5" stroke-width="0.5" />
<line x1="507.04095" y1="303.0757" x2="500.4731" y2="320.41653" stroke="#47f0b7" stroke-width="0.5" />
<line x1="500.4731" y1="320.41653" x2="491.17792" y2="334.7134" stroke="#46f0b8" stroke-width="0.5" />
<line x1="491.17792" y1="334.7134" x2="475.37057" y2="340.15543" stroke="#46f0b8" stroke-width="0.5" />
<line x1="475.37057" y1="340.15543" x2="463.12543" y2="328.25674" stroke="#46f0b8" stroke-width="0.5" />
<line x1="463.12543" y1="328.25674" x2="446.70578" y2="320.41653" stroke="#45f0b9" stroke-width="0.5" />
<line x1="446.70578" y1="320.41653" x2="301.60083" y2="383.23016" stroke="#44f0ba" stroke-width="0.5" stroke-dasharray="3 3"/>
<line x1="301.60083" y1="383.23016" x2="283.6784" y2="388.67212" stroke="#44f0ba" stroke-width="0.5" />
<line x1="283.6784" y1="388.67212" x2="269.37384" y2="378.8028" stroke="#43f0bb" stroke-width="0.5" />
<line x1="269.37384" y1="378.8028" x2="267.87103" y2="360.44766" stroke="#43f0bb" stroke-width="0.5" />
<line x1="267.87103" y1="360.44766" x2="253.84477" y2="350.57825" stroke="#42f0bc" stroke-width="0.5" />
<line x1="253.84477" y1="350.57825" x2="257.407" y2="366.90424" stroke="#42f0bc" stroke-width="0.5" />
<line x1="257.407" y1="366.90424" x2="252.34196" y2="351.03946" stroke="#3df0c1" stroke-width="0.5" />
<line x1="252.34196" y1="351.03946" x2="246.66467" y2="366.90424" stroke="#31f0cd" stroke-width="0.5" />
<line x1="246.66467" y1="366.90424" x2="228.74223" y2="360.90884" stroke="#28f0d6" stroke-width="0.5" />
<line x1="228.74223" y1="360.90884" x2="215.32823" y2="351.03946" stroke="#21f0dd" stroke-width="0.5" />
<line x1="215.32823" y1="351.03946" x2="232.02615" y2="345.59744" stroke="#21f0dd" stroke-width="0.5" />
<line x1="232.02615" y1="345.59744" x2="246.94296" y2="333.2376" stroke="#1ef0e0" stroke-width="0.5" />
<line x1="246.94296" y1="333.2376" x2="260.41263" y2="322.8147" stroke="#1ef0e0" stroke-width="0.5" />
<line x1="260.41263" y1="322.8147" x2="272.93607" y2="311.46942" stroke="#1ef0e0" stroke-width="0.5" />
<line x1="272.93607" y1="311.46942" x2="304.88477" y2="251.14511" stroke="#1df0e1" stroke-width="0.5" stroke-dasharray="3 3"/>
<line x1="304.88477" y1="251.14511" x2="315.01483" y2="237.2169" stroke="#19f0e5" stroke-width="0.5" />
<line x1="315.01483" y1="237.2169" x2="332.65897" y2="237.77034" stroke="#12f0ec" stroke-width="0.5" />
<line x1="332.65897" y1="237.77034" x2="348.18805" y2="243.67369" stroke="#12f0ec" stroke-width="0.5" />
<line x1="346.96353" y1="252.06752" x2="348.46634" y2="269.40854" stroke="#9cf062" stroke-width="0.5" />
<line x1="348.46634" y1="269.40854" x2="331.43445" y2="278.35574" stroke="#9bf063" stroke-width="0.5" />
<line x1="331.43445" y1="278.35574" x2="314.73654" y2="281.7686" stroke="#9bf063" stroke-width="0.5" />
<line x1="314.73654" y1="281.7686" x2="280.39447" y2="331.3006" stroke="#9bf063" stroke-width="0.5" stroke-dasharray="3 3"/>
<line x1="280.39447" y1="331.3006" x2="275.32944" y2="347.62668" stroke="#9bf063" stroke-width="0.5" />
<line x1="275.32944" y1="347.62668" x2="271.15497" y2="364.41385" stroke="#9bf063" stroke-width="0.5" />
<line x1="271.15497" y1="364.41385" x2="268.42764" y2="383.69135" stroke="#9af064" stroke-width="0.5" />
<line x1="268.42764" y1="383.69135" x2="266.98047" y2="401.0318" stroke="#9af064" stroke-width="0.5" />
<line x1="266.98047" y1="401.0318" x2="260.41263" y2="416.34296" stroke="#9af064" stroke-width="0.5" />
<line x1="260.41263" y1="416.34296" x2="160.94865" y2="519.738" stroke="#99f065" stroke-width="0.5" stroke-dasharray="3 3"/>
<line x1="160.94865" y1="519.738" x2="144.52904" y2="515.3108" stroke="#99f065" stroke-width="0.5" />
<line x1="144.52904" y1="515.3108" x2="129.61223" y2="523.24286" stroke="#98f066" stroke-width="0.5" />
<line x1="129.61223" y1="523.24286" x2="117.08878" y2="534.1264" stroke="#98f066" stroke-width="0.5" />
<line x1="117.08878" y1="534.1264" x2="99.16634" y2="535.141" stroke="#98f066" stroke-width="0.5" />
<line x1="99.16634" y1="535.141" x2="99.16634" y2="552.9419" stroke="#98f066" stroke-width="0.5" />
<line x1="99.16634" y1="552.9419" x2="112.9143" y2="562.3496" stroke="#98f066" stroke-width="0.5" />
<line x1="112.9143" y1="562.3496" x2="129.33392" y2="557.3691" stroke="#98f066" stroke-width="0.5" />
<line x1="129.33392" y1="557.3691" x2="124.21323" y2="541.0439" stroke="#97f067" stroke-width="0.5" />
<line x1="124.21323" y1="541.0439" x2="103.06252" y2="538.0924" stroke="#97f067" stroke-width="0.5" />
<line x1="103.06252" y1="538.0924" x2="111.41148" y2="552.9419" stroke="#97f067" stroke-width="0.5" />
<line x1="111.41148" y1="552.9419" x2="125.15945" y2="563.272" stroke="#8ef070" stroke-width="0.5" />
<line x1="125.15945" y1="563.272" x2="140.63286" y2="572.6796" stroke="#8ef070" stroke-width="0.5" />
<line x1="140.63286" y1="572.6796" x2="159.16754" y2="573.6942" stroke="#8ef070" stroke-width="0.5" />
<line x1="159.16754" y1="573.6942" x2="168.74103" y2="557.83026" stroke="#8bf073" stroke-width="0.5" />
<line x1="168.74103" y1="557.83026" x2="157.10814" y2="546.0245" stroke="#8bf073" stroke-width="0.5" />
<line x1="157.10814" y1="546.0245" x2="155.88362" y2="529.1458" stroke="#8bf073" stroke-width="0.5" />
<line x1="155.88362" y1="529.1458" x2="141.24512" y2="520.75256" stroke="#8bf073" stroke-width="0.5" />
<line x1="141.24512" y1="520.75256" x2="124.54719" y2="521.76715" stroke="#8bf073" stroke-width="0.5" />
<line x1="124.54719" y1="521.76715" x2="107.23701" y2="525.73315" stroke="#8af074" stroke-width="0.5" />
<line x1="107.23701" y1="525.73315" x2="110.79923" y2="509.40784" stroke="#80f07e" stroke-width="0.5" />
<line x1="110.79923" y1="509.40784" x2="128.1094" y2="507.9321" stroke="#7ff07f" stroke-width="0.5" />
<line x1="128.1094" y1="507.9321" x2="145.41959" y2="511.89816" stroke="#7ff07f" stroke-width="0.5" />
<line x1="145.41959" y1="511.89816" x2="161.56091" y2="519.27686" stroke="#7ff07f" stroke-width="0.5" />
<line x1="161.56091" y1="519.27686" x2="178.8711" y2="522.22833" stroke="#7ef080" stroke-width="0.5" />
<line x1="178.8711" y1="522.22833" x2="338.00232" y2="671.18243" stroke="#7cf082" stroke-width="0.5" stroke-dasharray="3 3"/>
<line x1="338.00232" y1="671.18243" x2="357.70587" y2="675.60944" stroke="#7cf082" stroke-width="0.5" />
<line x1="357.70587" y1="675.60944" x2="371.78778" y2="685.0169" stroke="#7cf082" stroke-width="0.5" />
<line x1="371.78778" y1="685.0169" x2="458.95093" y2="693.96313" stroke="#7bf083" stroke-width="0.5" stroke-dasharray="3 3"/>
<line x1="458.95093" y1="693.96313" x2="475.09225" y2="704.29285" stroke="#7bf083" stroke-width="0.5" />
<line x1="475.09225" y1="704.29285" x2="475.09225" y2="723.6609" stroke="#78f086" stroke-width="0.5" />
<line x1="475.09225" y1="723.6609" x2="456.83588" y2="716.19037" stroke="#6af094" stroke-width="0.5" stroke-dasharray="3 3"/>
<line x1="456.83588" y1="716.19037" x2="445.81525" y2="703.37054" stroke="#67f097" stroke-width="0.5" />
<line x1="445.81525" y1="703.37054" x2="428.78336" y2="706.3219" stroke="#66f098" stroke-width="0.5" />
<line x1="428.78336" y1="706.3219" x2="448.20862" y2="692.9486" stroke="#61f09d" stroke-width="0.5" stroke-dasharray="3 3"/>
<line x1="448.20862" y1="692.9486" x2="464.62823" y2="695.89996" stroke="#61f09d" stroke-width="0.5" />
<line x1="464.62823" y1="695.89996" x2="478.3762" y2="706.783" stroke="#61f09d" stroke-width="0.5" />
<line x1="478.3762" y1="706.783" x2="494.46185" y2="711.76337" stroke="#61f09d" stroke-width="0.5" />
<line x1="494.46185" y1="711.76337" x2="477.48563" y2="704.8462" stroke="#60f09e" stroke-width="0.5" />
<line x1="477.48563" y1="704.8462" x2="459.8415" y2="699.40466" stroke="#60f09e" stroke-width="0.5" />
<line x1="459.8415" y1="699.40466" x2="442.8096" y2="699.86584" stroke="#60f09e" stroke-width="0.5" />
<line x1="442.8096" y1="699.86584" x2="425.22113" y2="698.8513" stroke="#60f09e" stroke-width="0.5" />
<line x1="425.22113" y1="698.8513" x2="332.9373" y2="743.3978" stroke="#5ef0a0" stroke-width="0.5" stroke-dasharray="3 3"/>
<line x1="332.9373" y1="743.3978" x2="370.84155" y2="758.2465" stroke="#5cf0a2" stroke-width="0.5" />
<line x1="370.84155" y1="758.2465" x2="384.31122" y2="741.461" stroke="#5cf0a2" stroke-width="0.5" />
<line x1="384.31122" y1="741.461" x2="442.8096" y2="701.8949" stroke="#5bf0a3" stroke-width="0.5" stroke-dasharray="3 3"/>
<line x1="442.8096" y1="701.8949" x2="457.44812" y2="690.91956" stroke="#5bf0a3" stroke-width="0.5" />
<line x1="457.44812" y1="690.91956" x2="471.19608" y2="681.051" stroke="#5bf0a3" stroke-width="0.5" />
<line x1="471.19608" y1="681.051" x2="486.72516" y2="673.6726" stroke="#5bf0a3" stroke-width="0.5" />
<line x1="486.72516" y1="673.6726" x2="309.6715" y2="240.26082" stroke="#14f0ea" stroke-width="0.5" stroke-dasharray="3 3"/>
<line x1="309.6715" y1="240.26082" x2="325.47888" y2="235.27986" stroke="#11f0ed" stroke-width="0.5" />
<line x1="325.47888" y1="235.27986" x2="341.8985" y2="239.24619" stroke="#11f0ed" stroke-width="0.5" />
<circle cx="359.04153" cy="252.76949" r="12.458623" stroke="#a4f05a" stroke-width="1.0" fill="#0f0" fill-opacity="0.1"/>
<circle cx="133.12093" cy="516.8768" r="8.305749" stroke="#99f065" stroke-width="1.0" fill="#00f" fill-opacity="0.1"/>
<circle cx="94.602974" cy="555.3712" r="16.611498" stroke="#98f066" stroke-width="1.0" fill="#f00" fill-opacity="0.1"/>
<circle cx="156.05406" cy="574.26306" r="12.458623" stroke="#8ef070" stroke-width="1.0" fill="#ff0" fill-opacity="0.1"/>
<circle cx="148.73564" cy="538.7717" r="20.764372" stroke="#8bf073" stroke-width="1.0" fill="#00f" fill-opacity="0.1"/>
<circle cx="476.73505" cy="702.4808" r="8.305749" stroke="#7bf083" stroke-width="1.0" fill="#00f" fill-opacity="0.1"/>
<circle cx="454.76224" cy="684.97394" r="8.305749" stroke="#5bf0a3" stroke-width="1.0" fill="#0f0" fill-opacity="0.1"/>
<circle cx="474.70944" cy="317.35556" r="31.561846" stroke="#4cf0b2" stroke-width="1.0" fill="#0f0" fill-opacity="0.1"/>
<circle cx="254.69287" cy="364.32443" r="8.305749" stroke="#42f0bc" stroke-width="1.0" fill="#f00" fill-opacity="0.1"/>
<circle cx="361.67136" cy="256.17636" r="12.458623" stroke="#a3f05b" stroke-width="1.0" fill="#0f0" fill-opacity="0.1"/>
<circle cx="131.41528" cy="516.82666" r="8.305749" stroke="#99f065" stroke-width="1.0" fill="#00f" fill-opacity="0.1"/>
<circle cx="96.31197" cy="553.4811" r="16.611498" stroke="#98f066" stroke-width="1.0" fill="#f00" fill-opacity="0.1"/>
<circle cx="150.42322" cy="537.2629" r="20.764372" stroke="#97f067" stroke-width="1.0" fill="#00f" fill-opacity="0.1"/>
<circle cx="156.19727" cy="574.57007" r="12.458623" stroke="#8ef070" stroke-width="1.0" fill="#ff0" fill-opacity="0.1"/>
<circle cx="475.1963" cy="704.1135" r="8.305749" stroke="#7bf083" stroke-width="1.0" fill="#00f" fill-opacity="0.1"/>
<circle cx="477.98788" cy="705.7472" r="8.305749" stroke="#61f09d" stroke-width="1.0" fill="#00f" fill-opacity="0.1"/>
<circle cx="339.7975" cy="753.34814" r="8.305749" stroke="#5ff09f" stroke-width="1.0" fill="#f00" fill-opacity="0.1"/>
<circle cx="474.5223" cy="348.38058" r="8.305749" stroke="#45f0b9" stroke-width="1.0" fill="#00f" fill-opacity="0.1"/>
<circle cx="314.1082" cy="246.54047" r="12.458623" stroke="#18f0e6" stroke-width="1.0" fill="#0f0" fill-opacity="0.1"/>
<circle cx="358.00748" cy="254.20444" r="12.458623" stroke="#a4f05a" stroke-width="1.0" fill="#0f0" fill-opacity="0.1"/>
<circle cx="151.9486" cy="541.61914" r="20.764372" stroke="#99f065" stroke-width="1.0" fill="#00f" fill-opacity="0.1"/>
<circle cx="134.24428" cy="514.8943" r="8.305749" stroke="#99f065" stroke-width="1.0" fill="#00f" fill-opacity="0.1"/>
<circle cx="94.71348" cy="554.81445" r="16.611498" stroke="#98f066" stroke-width="1.0" fill="#f00" fill-opacity="0.1"/>
<circle cx="157.22487" cy="574.82416" r="12.458623" stroke="#8ef070" stroke-width="1.0" fill="#ff0" fill-opacity="0.1"/>
<circle cx="475.29602" cy="704.03613" r="8.305749" stroke="#7bf083" stroke-width="1.0" fill="#00f" fill-opacity="0.1"/>
<circle cx="253.29622" cy="365.6929" r="8.305749" stroke="#42f0bc" stroke-width="1.0" fill="#f00" fill-opacity="0.1"/>
<circle cx="224.62862" cy="344.57962" r="8.305749" stroke="#22f0dc" stroke-width="1.0" fill="#ff0" fill-opacity="0.1"/>
<circle cx="316.966" cy="246.06738" r="12.458623" stroke="#19f0e5" stroke-width="1.0" fill="#0f0" fill-opacity="0.1"/>
<circle cx="358.53702" cy="256.71225" r="12.458623" stroke="#9ff05f" stroke-width="1.0" fill="#0f0" fill-opacity="0.1"/>
<circle cx="135.32513" cy="516.07806" r="8.305749" stroke="#99f065" stroke-width="1.0" fill="#00f" fill-opacity="0.1"/>
<circle cx="98.08033" cy="553.65546" r="16.611498" stroke="#98f066" stroke-width="1.0" fill="#f00" fill-opacity="0.1"/>
<circle cx="148.04855" cy="540.89453" r="20.764372" stroke="#98f066" stroke-width="1.0" fill="#00f" fill-opacity="0.1"/>
<circle cx="156.19148" cy="572.6159" r="12.458623" stroke="#8ef070" stroke-width="1.0" fill="#ff0" fill-opacity="0.1"/>
<circle cx="474.49756" cy="702.1342" r="8.305749" stroke="#7bf083" stroke-width="1.0" fill="#00f" fill-opacity="0.1"/>
<circle cx="477.2313" cy="703.5257" r="8.305749" stroke="#61f09d" stroke-width="1.0" fill="#00f" fill-opacity="0.1"/>
<circle cx="338.89188" cy="753.24774" r="8.305749" stroke="#5ef0a0" stroke-width="1.0" fill="#f00" fill-opacity="0.1"/>
<circle cx="315.07663" cy="246.12308" r="12.458623" stroke="#13f0eb" stroke-width="1.0" fill="#0f0" fill-opacity="0.1"/>
</svg>
