<?xml version="1.0" standalone="no"?>
<!DOCTYPE svg PUBLIC "-//W3C//DTD SVG 1.1//EN" "http://www.w3.org/Graphics/SVG/1.1/DTD/svg11.dtd">
<svg opacity="20%" width="30cm" height="30cm" version="1.1" viewBox="0 0 1000 1000" xmlns="http://www.w3.org/2000/svg" xmlns:xlink="http://www.w3.org/1999/xlink">
<desc>DrawTrails of automics data, Fri Jul 22 15:01:36 BST 2011</desc>
<filter id="desaturate"  primitiveUnits="objectBoundingBox">
<feImage x="0%" y="0%" width="100%" height="100%" xlink:href="altontowers-zoom15.png"/>
<feColorMatrix type="matrix" values="0.3333 0.3333 0.3333 0 0 0.3333 0.3333 0.3333 0 0 0.3333 0.3333 0.3333 0 0 0      0      0      1 0"/>
<feColorMatrix type="matrix" values="0.1 0 0 0 0 0 0.1 0 0 0 0 0 0.1 0 0 0      0      0      1 0"/>
</filter>
<rect x="-264.37028285176257" y="-264.37028285176257" width="1528.7405657035251" height="1528.7405657035251" filter="url(#desaturate)"/>
<line x1="354.14365" y1="242.19786" x2="343.12302" y2="228.36185" stroke="#b3f04b" stroke-width="0.5" />
<line x1="343.12302" y1="228.36185" x2="329.0411" y2="238.23154" stroke="#b2f04c" stroke-width="0.5" />
<line x1="329.0411" y1="238.23154" x2="317.4082" y2="250.59167" stroke="#b1f04d" stroke-width="0.5" />
<line x1="317.4082" y1="250.59167" x2="308.78094" y2="264.98105" stroke="#b1f04d" stroke-width="0.5" />
<line x1="308.78094" y1="264.98105" x2="300.7103" y2="279.83157" stroke="#b1f04d" stroke-width="0.5" />
<line x1="300.7103" y1="279.83157" x2="280.39447" y2="336.1892" stroke="#b1f04d" stroke-width="0.5" stroke-dasharray="3 3"/>
<line x1="280.39447" y1="336.1892" x2="272.65778" y2="351.03946" stroke="#b1f04d" stroke-width="0.5" />
<line x1="272.65778" y1="351.03946" x2="266.36823" y2="370.87042" stroke="#b0f04e" stroke-width="0.5" />
<line x1="266.36823" y1="370.87042" x2="263.0843" y2="387.6575" stroke="#b0f04e" stroke-width="0.5" />
<line x1="263.0843" y1="387.6575" x2="260.41263" y2="404.53677" stroke="#b0f04e" stroke-width="0.5" />
<line x1="260.41263" y1="404.53677" x2="163.06374" y2="520.75256" stroke="#aef050" stroke-width="0.5" stroke-dasharray="3 3"/>
<line x1="163.06374" y1="520.75256" x2="148.14693" y2="511.89816" stroke="#aef050" stroke-width="0.5" />
<line x1="148.14693" y1="511.89816" x2="132.28389" y2="519.27686" stroke="#aef050" stroke-width="0.5" />
<line x1="132.28389" y1="519.27686" x2="117.64538" y2="531.1749" stroke="#aef050" stroke-width="0.5" />
<line x1="117.64538" y1="531.1749" x2="100.94746" y2="536.0633" stroke="#aef050" stroke-width="0.5" />
<line x1="100.94746" y1="536.0633" x2="94.37961" y2="551.92737" stroke="#aef050" stroke-width="0.5" />
<line x1="94.37961" y1="551.92737" x2="120.929306" y2="559.3982" stroke="#adf051" stroke-width="0.5" />
<line x1="120.929306" y1="559.3982" x2="126.6066" y2="543.073" stroke="#adf051" stroke-width="0.5" />
<line x1="126.6066" y1="543.073" x2="100.94746" y2="538.5536" stroke="#adf051" stroke-width="0.5" />
<line x1="100.94746" y1="538.5536" x2="102.72857" y2="555.4322" stroke="#adf051" stroke-width="0.5" />
<line x1="102.72857" y1="555.4322" x2="121.87552" y2="556.3545" stroke="#adf051" stroke-width="0.5" />
<line x1="121.87552" y1="556.3545" x2="110.18697" y2="543.5342" stroke="#adf051" stroke-width="0.5" />
<line x1="110.18697" y1="543.5342" x2="113.1926" y2="559.8594" stroke="#abf053" stroke-width="0.5" />
<line x1="113.1926" y1="559.8594" x2="129.33392" y2="570.2816" stroke="#aaf054" stroke-width="0.5" />
<line x1="129.33392" y1="570.2816" x2="146.6441" y2="573.6942" stroke="#aaf054" stroke-width="0.5" />
<line x1="146.6441" y1="573.6942" x2="162.45148" y2="564.8399" stroke="#a8f056" stroke-width="0.5" />
<line x1="162.45148" y1="564.8399" x2="165.7354" y2="547.96136" stroke="#a8f056" stroke-width="0.5" />
<line x1="165.7354" y1="547.96136" x2="158.277" y2="533.1118" stroke="#a8f056" stroke-width="0.5" />
<line x1="158.277" y1="533.1118" x2="171.691" y2="523.24286" stroke="#a7f057" stroke-width="0.5" />
<line x1="171.691" y1="523.24286" x2="336.83347" y2="675.60944" stroke="#a4f05a" stroke-width="0.5" stroke-dasharray="3 3"/>
<line x1="336.83347" y1="675.60944" x2="339.83908" y2="692.4875" stroke="#a4f05a" stroke-width="0.5" />
<line x1="339.83908" y1="692.4875" x2="341.00793" y2="709.2732" stroke="#a4f05a" stroke-width="0.5" />
<line x1="341.00793" y1="709.2732" x2="338.33627" y2="727.5345" stroke="#a4f05a" stroke-width="0.5" />
<line x1="338.33627" y1="727.5345" x2="355.03418" y2="731.0392" stroke="#a4f05a" stroke-width="0.5" />
<line x1="355.03418" y1="731.0392" x2="370.84155" y2="725.5977" stroke="#a4f05a" stroke-width="0.5" />
<line x1="370.84155" y1="725.5977" x2="452.99533" y2="695.43884" stroke="#a3f05b" stroke-width="0.5" stroke-dasharray="3 3"/>
<line x1="452.99533" y1="695.43884" x2="469.97156" y2="697.929" stroke="#a3f05b" stroke-width="0.5" />
<line x1="469.97156" y1="697.929" x2="487.6157" y2="703.37054" stroke="#a2f05c" stroke-width="0.5" />
<line x1="487.6157" y1="703.37054" x2="504.92587" y2="706.3219" stroke="#a2f05c" stroke-width="0.5" />
<line x1="504.92587" y1="706.3219" x2="477.15167" y2="756.7709" stroke="#8bf073" stroke-width="0.5" stroke-dasharray="3 3"/>
<line x1="477.15167" y1="756.7709" x2="454.77646" y2="751.3294" stroke="#86f078" stroke-width="0.5" />
<line x1="454.77646" y1="751.3294" x2="460.73206" y2="735.005" stroke="#82f07c" stroke-width="0.5" />
<line x1="460.73206" y1="735.005" x2="478.3762" y2="735.4662" stroke="#81f07d" stroke-width="0.5" />
<line x1="478.3762" y1="735.4662" x2="486.11288" y2="720.1562" stroke="#81f07d" stroke-width="0.5" />
<line x1="486.11288" y1="720.1562" x2="481.32614" y2="702.81714" stroke="#81f07d" stroke-width="0.5" />
<line x1="481.32614" y1="702.81714" x2="467.2999" y2="692.9486" stroke="#80f07e" stroke-width="0.5" />
<line x1="467.2999" y1="692.9486" x2="450.602" y2="692.9486" stroke="#80f07e" stroke-width="0.5" />
<line x1="450.602" y1="692.9486" x2="434.73895" y2="697.929" stroke="#80f07e" stroke-width="0.5" />
<line x1="434.73895" y1="697.929" x2="418.6533" y2="702.81714" stroke="#80f07e" stroke-width="0.5" />
<line x1="418.6533" y1="702.81714" x2="368.1699" y2="680.58984" stroke="#7df081" stroke-width="0.5" stroke-dasharray="3 3"/>
<line x1="368.1699" y1="680.58984" x2="352.36252" y2="675.60944" stroke="#7df081" stroke-width="0.5" />
<line x1="352.36252" y1="675.60944" x2="339.50513" y2="687.5071" stroke="#7df081" stroke-width="0.5" />
<line x1="339.50513" y1="687.5071" x2="338.61456" y2="706.3219" stroke="#7df081" stroke-width="0.5" />
<line x1="338.61456" y1="706.3219" x2="337.724" y2="723.6609" stroke="#7df081" stroke-width="0.5" />
<line x1="337.724" y1="723.6609" x2="330.2656" y2="738.4175" stroke="#7cf082" stroke-width="0.5" />
<line x1="330.2656" y1="738.4175" x2="325.75717" y2="758.2465" stroke="#7cf082" stroke-width="0.5" />
<line x1="325.75717" y1="758.2465" x2="315.6271" y2="771.61957" stroke="#7cf082" stroke-width="0.5" />
<line x1="315.6271" y1="771.61957" x2="322.47324" y2="755.2952" stroke="#6af094" stroke-width="0.5" />
<line x1="322.47324" y1="755.2952" x2="328.7628" y2="739.432" stroke="#6af094" stroke-width="0.5" />
<line x1="328.7628" y1="739.432" x2="327.25998" y2="722.093" stroke="#6af094" stroke-width="0.5" />
<line x1="327.25998" y1="722.093" x2="331.76843" y2="703.83167" stroke="#6af094" stroke-width="0.5" />
<line x1="331.76843" y1="703.83167" x2="329.9873" y2="686.03143" stroke="#6af094" stroke-width="0.5" />
<line x1="329.9873" y1="686.03143" x2="337.11176" y2="666.202" stroke="#6af094" stroke-width="0.5" />
<line x1="337.11176" y1="666.202" x2="330.2656" y2="644.43567" stroke="#6af094" stroke-width="0.5" />
<line x1="330.2656" y1="644.43567" x2="462.8471" y2="379.72516" stroke="#68f096" stroke-width="0.5" stroke-dasharray="3 3"/>
<line x1="462.8471" y1="379.72516" x2="447.59634" y2="387.19632" stroke="#67f097" stroke-width="0.5" />
<line x1="447.59634" y1="387.19632" x2="433.2918" y2="376.7736" stroke="#65f099" stroke-width="0.5" />
<line x1="433.2918" y1="376.7736" x2="439.85965" y2="359.98645" stroke="#65f099" stroke-width="0.5" />
<line x1="439.85965" y1="359.98645" x2="456.55756" y2="360.90884" stroke="#64f09a" stroke-width="0.5" />
<line x1="456.55756" y1="360.90884" x2="453.55194" y2="378.2494" stroke="#63f09b" stroke-width="0.5" />
<line x1="453.55194" y1="378.2494" x2="468.8027" y2="370.31702" stroke="#60f09e" stroke-width="0.5" />
<line x1="468.8027" y1="370.31702" x2="477.48563" y2="352.51526" stroke="#60f09e" stroke-width="0.5" />
<line x1="477.48563" y1="352.51526" x2="472.69888" y2="335.1746" stroke="#5ff09f" stroke-width="0.5" />
<line x1="472.69888" y1="335.1746" x2="456.27927" y2="330.74716" stroke="#5ff09f" stroke-width="0.5" />
<line x1="456.27927" y1="330.74716" x2="441.91907" y2="320.87772" stroke="#5ff09f" stroke-width="0.5" />
<line x1="441.91907" y1="320.87772" x2="373.8472" y2="267.9327" stroke="#5ff09f" stroke-width="0.5" stroke-dasharray="3 3"/>
<line x1="373.8472" y1="267.9327" x2="358.3181" y2="260.00012" stroke="#5ff09f" stroke-width="0.5" />
<line x1="358.3181" y1="260.00012" x2="350.58142" y2="244.1349" stroke="#5ef0a0" stroke-width="0.5" />
<line x1="350.58142" y1="244.1349" x2="351.75027" y2="262.49057" stroke="#59f0a5" stroke-width="0.5" />
<line x1="351.75027" y1="262.49057" x2="338.61456" y2="273.83603" stroke="#59f0a5" stroke-width="0.5" />
<line x1="338.61456" y1="273.83603" x2="321.91666" y2="278.35574" stroke="#59f0a5" stroke-width="0.5" />
<line x1="321.91666" y1="278.35574" x2="306.38757" y2="286.74948" stroke="#59f0a5" stroke-width="0.5" />
<line x1="306.38757" y1="286.74948" x2="281.28503" y2="327.79556" stroke="#59f0a5" stroke-width="0.5" stroke-dasharray="3 3"/>
<line x1="281.28503" y1="327.79556" x2="272.65778" y2="342.64584" stroke="#59f0a5" stroke-width="0.5" />
<line x1="272.65778" y1="342.64584" x2="262.806" y2="356.48145" stroke="#58f0a6" stroke-width="0.5" />
<line x1="262.806" y1="356.48145" x2="246.38637" y2="349.56366" stroke="#58f0a6" stroke-width="0.5" />
<line x1="246.38637" y1="349.56366" x2="258.01926" y2="361.46225" stroke="#58f0a6" stroke-width="0.5" />
<line x1="258.01926" y1="361.46225" x2="247.83353" y2="348.08786" stroke="#56f0a8" stroke-width="0.5" />
<line x1="247.83353" y1="348.08786" x2="248.16748" y2="367.36542" stroke="#54f0aa" stroke-width="0.5" />
<line x1="248.16748" y1="367.36542" x2="234.14122" y2="358.51068" stroke="#4df0b1" stroke-width="0.5" />
<line x1="234.14122" y1="358.51068" x2="223.06494" y2="345.59744" stroke="#4af0b4" stroke-width="0.5" />
<line x1="223.06494" y1="345.59744" x2="239.20627" y2="353.99103" stroke="#4af0b4" stroke-width="0.5" />
<line x1="239.20627" y1="353.99103" x2="254.40137" y2="367.36542" stroke="#4af0b4" stroke-width="0.5" />
<line x1="254.40137" y1="367.36542" x2="269.37384" y2="357.95724" stroke="#4af0b4" stroke-width="0.5" />
<line x1="269.37384" y1="357.95724" x2="245.77411" y2="346.61206" stroke="#4af0b4" stroke-width="0.5" />
<line x1="245.77411" y1="346.61206" x2="245.77411" y2="366.90424" stroke="#4af0b4" stroke-width="0.5" />
<line x1="245.77411" y1="366.90424" x2="228.46393" y2="359.43304" stroke="#4af0b4" stroke-width="0.5" />
<line x1="228.46393" y1="359.43304" x2="225.18001" y2="343.10703" stroke="#49f0b5" stroke-width="0.5" />
<line x1="225.18001" y1="343.10703" x2="249.05804" y2="334.2522" stroke="#47f0b7" stroke-width="0.5" stroke-dasharray="3 3"/>
<line x1="249.05804" y1="334.2522" x2="255.90419" y2="349.56366" stroke="#46f0b8" stroke-width="0.5" />
<line x1="255.90419" y1="349.56366" x2="264.86542" y2="363.95267" stroke="#46f0b8" stroke-width="0.5" />
<line x1="264.86542" y1="363.95267" x2="272.93607" y2="378.8028" stroke="#46f0b8" stroke-width="0.5" />
<line x1="272.93607" y1="378.8028" x2="277.11053" y2="395.12866" stroke="#46f0b8" stroke-width="0.5" />
<circle cx="262.33728" cy="356.4249" r="3.0099635" stroke="#b0f04e" stroke-width="1.0" fill="#00f" fill-opacity="0.1"/>
<circle cx="134.43973" cy="515.87006" r="3.0099635" stroke="#aef050" stroke-width="1.0" fill="#00f" fill-opacity="0.1"/>
<circle cx="94.148186" cy="555.4711" r="6.019927" stroke="#aef050" stroke-width="1.0" fill="#f00" fill-opacity="0.1"/>
<circle cx="155.65219" cy="575.7306" r="4.514945" stroke="#aaf054" stroke-width="1.0" fill="#ff0" fill-opacity="0.1"/>
<circle cx="148.3767" cy="537.7152" r="7.5249085" stroke="#a8f056" stroke-width="1.0" fill="#00f" fill-opacity="0.1"/>
<circle cx="474.55945" cy="704.4049" r="3.0099635" stroke="#a3f05b" stroke-width="1.0" fill="#00f" fill-opacity="0.1"/>
<circle cx="487.0191" cy="751.3787" r="4.514945" stroke="#98f066" stroke-width="1.0" fill="#f00" fill-opacity="0.1"/>
<circle cx="465.63086" cy="735.4091" r="1.5049818" stroke="#82f07c" stroke-width="1.0" fill="#ff0" fill-opacity="0.1"/>
<circle cx="469.8821" cy="374.51755" r="4.514945" stroke="#68f096" stroke-width="1.0" fill="#00f" fill-opacity="0.1"/>
<circle cx="477.03992" cy="347.7075" r="3.0099635" stroke="#60f09e" stroke-width="1.0" fill="#00f" fill-opacity="0.1"/>
<circle cx="360.23734" cy="254.47946" r="4.514945" stroke="#59f0a5" stroke-width="1.0" fill="#0f0" fill-opacity="0.1"/>
<circle cx="253.47658" cy="366.76147" r="3.0099635" stroke="#58f0a6" stroke-width="1.0" fill="#f00" fill-opacity="0.1"/>
<circle cx="225.38846" cy="344.96542" r="3.0099635" stroke="#4cf0b2" stroke-width="1.0" fill="#ff0" fill-opacity="0.1"/>
</svg>
