<?xml version="1.0" standalone="no"?>
<!DOCTYPE svg PUBLIC "-//W3C//DTD SVG 1.1//EN" "http://www.w3.org/Graphics/SVG/1.1/DTD/svg11.dtd">
<svg opacity="20%" width="30cm" height="30cm" version="1.1" viewBox="0 0 1000 1000" xmlns="http://www.w3.org/2000/svg" xmlns:xlink="http://www.w3.org/1999/xlink">
<desc>DrawTrails of automics data, Mon Jul 25 12:24:01 BST 2011</desc>
<filter id="desaturate"  primitiveUnits="objectBoundingBox">
<feImage x="0%" y="0%" width="100%" height="100%" xlink:href="altontowers-zoom15.png"/>
<feColorMatrix type="matrix" values="0.3333 0.3333 0.3333 0 0 0.3333 0.3333 0.3333 0 0 0.3333 0.3333 0.3333 0 0 0      0      0      1 0"/>
<feColorMatrix type="matrix" values="0.1 0 0 0 0 0 0.1 0 0 0 0 0 0.1 0 0 0      0      0      1 0"/>
</filter>
<rect x="-264.37028285176257" y="-264.37028285176257" width="1528.7405657035251" height="1528.7405657035251" filter="url(#desaturate)"/>
<line x1="358.65207" y1="262.95178" x2="373.56888" y2="271.899" stroke="#85f079" stroke-width="0.5" />
<line x1="373.56888" y1="271.899" x2="389.65454" y2="281.30737" stroke="#85f079" stroke-width="0.5" />
<line x1="389.65454" y1="281.30737" x2="449.37747" y2="322.35352" stroke="#84f07a" stroke-width="0.5" stroke-dasharray="3 3"/>
<line x1="449.37747" y1="322.35352" x2="463.12543" y2="332.7764" stroke="#84f07a" stroke-width="0.5" />
<line x1="463.12543" y1="332.7764" x2="478.3762" y2="340.6166" stroke="#84f07a" stroke-width="0.5" />
<line x1="478.3762" y1="340.6166" x2="472.9772" y2="357.49606" stroke="#83f07b" stroke-width="0.5" />
<line x1="472.9772" y1="357.49606" x2="464.34995" y2="371.79282" stroke="#82f07c" stroke-width="0.5" />
<line x1="464.34995" y1="371.79282" x2="455.66702" y2="386.18173" stroke="#81f07d" stroke-width="0.5" />
<line x1="455.66702" y1="386.18173" x2="453.27365" y2="368.84122" stroke="#81f07d" stroke-width="0.5" />
<line x1="453.27365" y1="368.84122" x2="441.0285" y2="380.73978" stroke="#80f07e" stroke-width="0.5" />
<line x1="441.0285" y1="380.73978" x2="450.268" y2="394.57526" stroke="#80f07e" stroke-width="0.5" />
<line x1="450.268" y1="394.57526" x2="435.0729" y2="387.6575" stroke="#7ef080" stroke-width="0.5" />
<line x1="435.0729" y1="387.6575" x2="432.40125" y2="370.87042" stroke="#7df081" stroke-width="0.5" />
<line x1="432.40125" y1="370.87042" x2="444.03412" y2="357.49606" stroke="#7df081" stroke-width="0.5" />
<line x1="444.03412" y1="357.49606" x2="460.11978" y2="361.92343" stroke="#7cf082" stroke-width="0.5" />
<line x1="460.11978" y1="361.92343" x2="453.55194" y2="377.23477" stroke="#7bf083" stroke-width="0.5" />
<line x1="453.55194" y1="377.23477" x2="461.3443" y2="392.08487" stroke="#7bf083" stroke-width="0.5" />
<line x1="461.3443" y1="392.08487" x2="470.58383" y2="364.41385" stroke="#73f08b" stroke-width="0.5" stroke-dasharray="3 3"/>
<line x1="470.58383" y1="364.41385" x2="477.48563" y2="347.62668" stroke="#72f08c" stroke-width="0.5" />
<line x1="477.48563" y1="347.62668" x2="487.3374" y2="332.7764" stroke="#72f08c" stroke-width="0.5" />
<line x1="487.3374" y1="332.7764" x2="494.46185" y2="316.4503" stroke="#72f08c" stroke-width="0.5" />
<line x1="494.46185" y1="316.4503" x2="503.14478" y2="302.0611" stroke="#72f08c" stroke-width="0.5" />
<line x1="503.14478" y1="302.0611" x2="513.27484" y2="287.67188" stroke="#72f08c" stroke-width="0.5" />
<line x1="513.27484" y1="287.67188" x2="521.95776" y2="273.37482" stroke="#72f08c" stroke-width="0.5" />
<line x1="521.95776" y1="273.37482" x2="535.37177" y2="262.95178" stroke="#71f08d" stroke-width="0.5" />
<line x1="535.37177" y1="262.95178" x2="552.68195" y2="263.50522" stroke="#71f08d" stroke-width="0.5" />
<line x1="552.68195" y1="263.50522" x2="568.545" y2="272.3602" stroke="#70f08e" stroke-width="0.5" />
<line x1="568.545" y1="272.3602" x2="586.1335" y2="271.899" stroke="#6ff08f" stroke-width="0.5" />
<line x1="586.1335" y1="271.899" x2="604.0559" y2="268.3939" stroke="#6ff08f" stroke-width="0.5" />
<line x1="604.0559" y1="268.3939" x2="614.5199" y2="254.09679" stroke="#6ff08f" stroke-width="0.5" />
<line x1="614.5199" y1="254.09679" x2="627.32166" y2="238.23154" stroke="#6ff08f" stroke-width="0.5" />
<line x1="627.32166" y1="238.23154" x2="689.15967" y2="249.11584" stroke="#6ef090" stroke-width="0.5" stroke-dasharray="3 3"/>
<line x1="689.15967" y1="249.11584" x2="704.6887" y2="258.98547" stroke="#6ef090" stroke-width="0.5" />
<line x1="704.6887" y1="258.98547" x2="734.8563" y2="292.19156" stroke="#68f096" stroke-width="0.5" stroke-dasharray="3 3"/>
<line x1="734.8563" y1="292.19156" x2="856.97375" y2="515.3108" stroke="#3ef0c0" stroke-width="0.5" stroke-dasharray="3 3"/>
<line x1="856.97375" y1="515.3108" x2="865.601" y2="529.6992" stroke="#3ef0c0" stroke-width="0.5" />
<line x1="865.601" y1="529.6992" x2="870.1095" y2="546.0245" stroke="#3af0c4" stroke-width="0.5" />
<line x1="870.1095" y1="546.0245" x2="853.0776" y2="543.5342" stroke="#39f0c5" stroke-width="0.5" />
<line x1="853.0776" y1="543.5342" x2="839.05133" y2="533.6652" stroke="#38f0c6" stroke-width="0.5" />
<line x1="839.05133" y1="533.6652" x2="830.3684" y2="519.27686" stroke="#37f0c7" stroke-width="0.5" />
<line x1="830.3684" y1="519.27686" x2="813.0582" y2="517.33997" stroke="#37f0c7" stroke-width="0.5" />
<line x1="813.0582" y1="517.33997" x2="801.42535" y2="510.33017" stroke="#35f0c9" stroke-width="0.5" stroke-dasharray="3 3"/>
<line x1="801.42535" y1="510.33017" x2="774.5417" y2="360.90884" stroke="#34f0ca" stroke-width="0.5" stroke-dasharray="3 3"/>
<line x1="774.5417" y1="360.90884" x2="767.0833" y2="346.15088" stroke="#34f0ca" stroke-width="0.5" />
<line x1="767.0833" y1="346.15088" x2="775.76624" y2="329.73254" stroke="#34f0ca" stroke-width="0.5" />
<line x1="775.76624" y1="329.73254" x2="277.7228" y2="337.20383" stroke="#2ef0d0" stroke-width="0.5" stroke-dasharray="3 3"/>
<line x1="277.7228" y1="337.20383" x2="269.65213" y2="352.05405" stroke="#2ef0d0" stroke-width="0.5" />
<line x1="269.65213" y1="352.05405" x2="253.23251" y2="349.10245" stroke="#2ef0d0" stroke-width="0.5" />
<line x1="253.23251" y1="349.10245" x2="243.04678" y2="335.1746" stroke="#2af0d4" stroke-width="0.5" />
<line x1="243.04678" y1="335.1746" x2="239.20627" y2="317.9261" stroke="#29f0d5" stroke-width="0.5" />
<line x1="239.20627" y1="317.9261" x2="233.195" y2="334.2522" stroke="#21f0dd" stroke-width="0.5" />
<line x1="233.195" y1="334.2522" x2="245.16185" y2="347.07324" stroke="#1bf0e3" stroke-width="0.5" />
<line x1="245.16185" y1="347.07324" x2="258.57587" y2="357.03488" stroke="#14f0ea" stroke-width="0.5" />
<line x1="258.57587" y1="357.03488" x2="269.0399" y2="340.6166" stroke="#13f0eb" stroke-width="0.5" />
<line x1="269.0399" y1="340.6166" x2="280.11618" y2="328.25674" stroke="#13f0eb" stroke-width="0.5" />
<line x1="280.11618" y1="328.25674" x2="289.634" y2="313.95984" stroke="#13f0eb" stroke-width="0.5" />
<line x1="289.634" y1="313.95984" x2="322.8072" y2="269.40854" stroke="#13f0eb" stroke-width="0.5" stroke-dasharray="3 3"/>
<line x1="322.8072" y1="269.40854" x2="341.00793" y2="270.42316" stroke="#0ff0ef" stroke-width="0.5" />
<line x1="341.00793" y1="270.42316" x2="352.36252" y2="258.06308" stroke="#0ff0ef" stroke-width="0.5" />
<line x1="352.36252" y1="258.06308" x2="354.42194" y2="240.72202" stroke="#0ff0ef" stroke-width="0.5" />
<circle cx="476.1499" cy="349.09268" r="8.305749" stroke="#84f07a" stroke-width="1.0" fill="#00f" fill-opacity="0.1"/>
<circle cx="469.78537" cy="374.1287" r="12.458623" stroke="#83f07b" stroke-width="1.0" fill="#00f" fill-opacity="0.1"/>
<circle cx="555.6723" cy="266.48608" r="8.305749" stroke="#71f08d" stroke-width="1.0" fill="#00f" fill-opacity="0.1"/>
<circle cx="721.0653" cy="269.20187" r="12.458623" stroke="#6ef090" stroke-width="1.0" fill="#f00" fill-opacity="0.1"/>
<circle cx="835.28424" cy="495.71973" r="8.305749" stroke="#46f0b8" stroke-width="1.0" fill="#f00" fill-opacity="0.1"/>
<circle cx="866.09894" cy="552.88934" r="16.611498" stroke="#3af0c4" stroke-width="1.0" fill="#0f0" fill-opacity="0.1"/>
<circle cx="785.45496" cy="338.61295" r="8.305749" stroke="#34f0ca" stroke-width="1.0" fill="#00f" fill-opacity="0.1"/>
<circle cx="264.3491" cy="356.36182" r="8.305749" stroke="#2ef0d0" stroke-width="1.0" fill="#00f" fill-opacity="0.1"/>
<circle cx="251.70967" cy="330.94827" r="12.458623" stroke="#29f0d5" stroke-width="1.0" fill="#0f0" fill-opacity="0.1"/>
<circle cx="224.82973" cy="342.59644" r="8.305749" stroke="#21f0dd" stroke-width="1.0" fill="#ff0" fill-opacity="0.1"/>
<circle cx="357.47412" cy="255.37029" r="12.458623" stroke="#08f0f6" stroke-width="1.0" fill="#0f0" fill-opacity="0.1"/>
</svg>
