<?xml version="1.0" standalone="no"?>
<!DOCTYPE svg PUBLIC "-//W3C//DTD SVG 1.1//EN" "http://www.w3.org/Graphics/SVG/1.1/DTD/svg11.dtd">
<svg opacity="20%" width="30cm" height="30cm" version="1.1" viewBox="0 0 1000 1000" xmlns="http://www.w3.org/2000/svg" xmlns:xlink="http://www.w3.org/1999/xlink">
<desc>DrawTrails of automics data, Mon Jul 25 12:24:01 BST 2011</desc>
<filter id="desaturate"  primitiveUnits="objectBoundingBox">
<feImage x="0%" y="0%" width="100%" height="100%" xlink:href="altontowers-zoom15.png"/>
<feColorMatrix type="matrix" values="0.3333 0.3333 0.3333 0 0 0.3333 0.3333 0.3333 0 0 0.3333 0.3333 0.3333 0 0 0      0      0      1 0"/>
<feColorMatrix type="matrix" values="0.1 0 0 0 0 0 0.1 0 0 0 0 0 0.1 0 0 0      0      0      1 0"/>
</filter>
<rect x="-264.37028285176257" y="-264.37028285176257" width="1528.7405657035251" height="1528.7405657035251" filter="url(#desaturate)"/>
<line x1="361.60205" y1="240.72202" x2="349.0786" y2="228.82304" stroke="#b3f04b" stroke-width="0.5" />
<line x1="349.0786" y1="228.82304" x2="333.82782" y2="235.74106" stroke="#b2f04c" stroke-width="0.5" />
<line x1="333.82782" y1="235.74106" x2="320.41382" y2="249.11584" stroke="#b1f04d" stroke-width="0.5" />
<line x1="320.41382" y1="249.11584" x2="309.6715" y2="263.50522" stroke="#b1f04d" stroke-width="0.5" />
<line x1="309.6715" y1="263.50522" x2="303.38196" y2="279.27814" stroke="#b1f04d" stroke-width="0.5" />
<line x1="303.38196" y1="279.27814" x2="281.619" y2="332.223" stroke="#b1f04d" stroke-width="0.5" stroke-dasharray="3 3"/>
<line x1="281.619" y1="332.223" x2="274.7172" y2="347.62668" stroke="#b0f04e" stroke-width="0.5" />
<line x1="274.7172" y1="347.62668" x2="263.0843" y2="359.43304" stroke="#b0f04e" stroke-width="0.5" />
<line x1="263.0843" y1="359.43304" x2="270.5427" y2="374.8366" stroke="#b0f04e" stroke-width="0.5" />
<line x1="270.5427" y1="374.8366" x2="270.82098" y2="391.6237" stroke="#b0f04e" stroke-width="0.5" />
<line x1="270.82098" y1="391.6237" x2="262.19373" y2="406.01254" stroke="#aff04f" stroke-width="0.5" />
<line x1="262.19373" y1="406.01254" x2="259.1881" y2="422.3383" stroke="#aff04f" stroke-width="0.5" />
<line x1="259.1881" y1="422.3383" x2="160.39206" y2="522.22833" stroke="#aef050" stroke-width="0.5" stroke-dasharray="3 3"/>
<line x1="160.39206" y1="522.22833" x2="144.52904" y2="515.3108" stroke="#aef050" stroke-width="0.5" />
<line x1="144.52904" y1="515.3108" x2="130.22449" y2="524.25745" stroke="#aef050" stroke-width="0.5" />
<line x1="130.22449" y1="524.25745" x2="114.36146" y2="530.6215" stroke="#aef050" stroke-width="0.5" />
<line x1="114.36146" y1="530.6215" x2="97.941826" y2="536.6167" stroke="#adf051" stroke-width="0.5" />
<line x1="97.941826" y1="536.6167" x2="92.598495" y2="553.4031" stroke="#adf051" stroke-width="0.5" />
<line x1="92.598495" y1="553.4031" x2="112.580345" y2="555.8934" stroke="#adf051" stroke-width="0.5" />
<line x1="112.580345" y1="555.8934" x2="129.33392" y2="550.9128" stroke="#adf051" stroke-width="0.5" />
<line x1="129.33392" y1="550.9128" x2="114.36146" y2="536.0633" stroke="#adf051" stroke-width="0.5" />
<line x1="114.36146" y1="536.0633" x2="98.554085" y2="543.5342" stroke="#adf051" stroke-width="0.5" />
<line x1="98.554085" y1="543.5342" x2="111.07753" y2="555.4322" stroke="#adf051" stroke-width="0.5" />
<line x1="111.07753" y1="555.4322" x2="125.15945" y2="568.7137" stroke="#aaf054" stroke-width="0.5" />
<line x1="125.15945" y1="568.7137" x2="143.36018" y2="572.2185" stroke="#aaf054" stroke-width="0.5" />
<line x1="143.36018" y1="572.2185" x2="162.17317" y2="572.2185" stroke="#a8f056" stroke-width="0.5" />
<line x1="162.17317" y1="572.2185" x2="168.12877" y2="552.3885" stroke="#a8f056" stroke-width="0.5" />
<line x1="168.12877" y1="552.3885" x2="157.99869" y2="539.107" stroke="#a8f056" stroke-width="0.5" />
<line x1="157.99869" y1="539.107" x2="163.34203" y2="523.24286" stroke="#a7f057" stroke-width="0.5" />
<line x1="163.34203" y1="523.24286" x2="180.37392" y2="521.76715" stroke="#a7f057" stroke-width="0.5" />
<line x1="180.37392" y1="521.76715" x2="326.09113" y2="659.83813" stroke="#a4f05a" stroke-width="0.5" stroke-dasharray="3 3"/>
<line x1="326.09113" y1="659.83813" x2="332.9373" y2="675.60944" stroke="#a4f05a" stroke-width="0.5" />
<line x1="332.9373" y1="675.60944" x2="335.05234" y2="695.43884" stroke="#a4f05a" stroke-width="0.5" />
<line x1="335.05234" y1="695.43884" x2="334.4401" y2="712.22455" stroke="#a4f05a" stroke-width="0.5" />
<line x1="334.4401" y1="712.22455" x2="337.4457" y2="729.56354" stroke="#a4f05a" stroke-width="0.5" />
<line x1="337.4457" y1="729.56354" x2="354.14365" y2="729.1024" stroke="#a4f05a" stroke-width="0.5" />
<line x1="354.14365" y1="729.1024" x2="373.23492" y2="727.07336" stroke="#a4f05a" stroke-width="0.5" />
<line x1="373.23492" y1="727.07336" x2="437.74457" y2="696.9145" stroke="#a3f05b" stroke-width="0.5" stroke-dasharray="3 3"/>
<line x1="437.74457" y1="696.9145" x2="454.16418" y2="693.4098" stroke="#a3f05b" stroke-width="0.5" />
<line x1="454.16418" y1="693.4098" x2="470.58383" y2="700.32697" stroke="#a3f05b" stroke-width="0.5" />
<line x1="470.58383" y1="700.32697" x2="487.3374" y2="701.8949" stroke="#a2f05c" stroke-width="0.5" />
<line x1="487.3374" y1="701.8949" x2="502.2542" y2="709.2732" stroke="#a2f05c" stroke-width="0.5" />
<line x1="502.2542" y1="709.2732" x2="366.66708" y2="248.10121" stroke="#5df0a1" stroke-width="0.5" stroke-dasharray="3 3"/>
<line x1="366.66708" y1="248.10121" x2="351.47195" y2="255.01918" stroke="#59f0a5" stroke-width="0.5" />
<line x1="351.47195" y1="255.01918" x2="341.28622" y2="268.94733" stroke="#59f0a5" stroke-width="0.5" />
<line x1="341.28622" y1="268.94733" x2="325.20056" y2="274.38947" stroke="#59f0a5" stroke-width="0.5" />
<line x1="325.20056" y1="274.38947" x2="306.38757" y2="283.24442" stroke="#59f0a5" stroke-width="0.5" />
<line x1="306.38757" y1="283.24442" x2="274.7172" y2="338.67963" stroke="#59f0a5" stroke-width="0.5" stroke-dasharray="3 3"/>
<line x1="274.7172" y1="338.67963" x2="269.65213" y2="354.54446" stroke="#58f0a6" stroke-width="0.5" />
<line x1="269.65213" y1="354.54446" x2="253.51082" y2="348.08786" stroke="#58f0a6" stroke-width="0.5" />
<line x1="253.51082" y1="348.08786" x2="260.07867" y2="363.95267" stroke="#58f0a6" stroke-width="0.5" />
<line x1="260.07867" y1="363.95267" x2="249.33633" y2="351.03946" stroke="#56f0a8" stroke-width="0.5" />
<circle cx="265.51807" cy="357.11734" r="8.305749" stroke="#b0f04e" stroke-width="1.0" fill="#00f" fill-opacity="0.1"/>
<circle cx="148.08818" cy="541.5203" r="20.764372" stroke="#aef050" stroke-width="1.0" fill="#00f" fill-opacity="0.1"/>
<circle cx="133.53018" cy="516.13245" r="8.305749" stroke="#aef050" stroke-width="1.0" fill="#00f" fill-opacity="0.1"/>
<circle cx="95.192276" cy="555.2552" r="16.611498" stroke="#adf051" stroke-width="1.0" fill="#f00" fill-opacity="0.1"/>
<circle cx="155.90616" cy="571.05865" r="12.458623" stroke="#aaf054" stroke-width="1.0" fill="#ff0" fill-opacity="0.1"/>
<circle cx="478.02142" cy="702.1556" r="8.305749" stroke="#a3f05b" stroke-width="1.0" fill="#00f" fill-opacity="0.1"/>
<circle cx="253.00523" cy="365.6316" r="8.305749" stroke="#58f0a6" stroke-width="1.0" fill="#f00" fill-opacity="0.1"/>
<circle cx="358.30887" cy="256.16046" r="12.458623" stroke="#1cf0e2" stroke-width="1.0" fill="#0f0" fill-opacity="0.1"/>
</svg>
