<?xml version="1.0" standalone="no"?>
<!DOCTYPE svg PUBLIC "-//W3C//DTD SVG 1.1//EN" "http://www.w3.org/Graphics/SVG/1.1/DTD/svg11.dtd">
<svg opacity="20%" width="30cm" height="30cm" version="1.1" viewBox="0 0 1000 1000" xmlns="http://www.w3.org/2000/svg" xmlns:xlink="http://www.w3.org/1999/xlink">
<desc>DrawTrails of automics data, Mon Jul 25 12:28:30 BST 2011</desc>
<filter id="desaturate"  primitiveUnits="objectBoundingBox">
<feImage x="0%" y="0%" width="100%" height="100%" xlink:href="altontowers-zoom15.png"/>
<feColorMatrix type="matrix" values="0.3333 0.3333 0.3333 0 0 0.3333 0.3333 0.3333 0 0 0.3333 0.3333 0.3333 0 0 0      0      0      1 0"/>
<feColorMatrix type="matrix" values="0.1 0 0 0 0 0 0.1 0 0 0 0 0 0.1 0 0 0      0      0      1 0"/>
</filter>
<rect x="-264.37028285176257" y="-264.37028285176257" width="1528.7405657035251" height="1528.7405657035251" filter="url(#desaturate)"/>
<line x1="353.86533" y1="252.62096" x2="345.79468" y2="235.27986" stroke="#b4f04a" stroke-width="0.5" />
<line x1="345.79468" y1="235.27986" x2="329.0411" y2="237.77034" stroke="#b2f04c" stroke-width="0.5" />
<line x1="329.0411" y1="237.77034" x2="317.74216" y2="250.59167" stroke="#b2f04c" stroke-width="0.5" />
<line x1="317.74216" y1="250.59167" x2="308.447" y2="264.4276" stroke="#b2f04c" stroke-width="0.5" />
<line x1="308.447" y1="264.4276" x2="301.60083" y2="279.83157" stroke="#b1f04d" stroke-width="0.5" />
<line x1="301.60083" y1="279.83157" x2="279.78223" y2="337.20383" stroke="#b1f04d" stroke-width="0.5" stroke-dasharray="3 3"/>
<line x1="279.78223" y1="337.20383" x2="273.82663" y2="353.06866" stroke="#b1f04d" stroke-width="0.5" />
<line x1="273.82663" y1="353.06866" x2="266.0899" y2="368.38004" stroke="#b0f04e" stroke-width="0.5" />
<line x1="266.0899" y1="368.38004" x2="268.42764" y2="385.1671" stroke="#b0f04e" stroke-width="0.5" />
<line x1="268.42764" y1="385.1671" x2="262.47205" y2="401.49298" stroke="#b0f04e" stroke-width="0.5" />
<line x1="262.47205" y1="401.49298" x2="255.90419" y2="417.81873" stroke="#b0f04e" stroke-width="0.5" />
<line x1="255.90419" y1="417.81873" x2="167.2382" y2="521.30597" stroke="#aff04f" stroke-width="0.5" stroke-dasharray="3 3"/>
<line x1="167.2382" y1="521.30597" x2="151.43085" y2="514.8496" stroke="#aef050" stroke-width="0.5" />
<line x1="151.43085" y1="514.8496" x2="134.39896" y2="519.27686" stroke="#aef050" stroke-width="0.5" />
<line x1="134.39896" y1="519.27686" x2="119.48215" y2="530.6215" stroke="#aef050" stroke-width="0.5" />
<line x1="119.48215" y1="530.6215" x2="100.66916" y2="531.6361" stroke="#aef050" stroke-width="0.5" />
<line x1="100.66916" y1="531.6361" x2="93.76735" y2="546.9468" stroke="#aef050" stroke-width="0.5" />
<line x1="93.76735" y1="546.9468" x2="110.79923" y2="549.9905" stroke="#aef050" stroke-width="0.5" />
<line x1="110.79923" y1="549.9905" x2="106.01249" y2="532.1895" stroke="#adf051" stroke-width="0.5" />
<line x1="106.01249" y1="532.1895" x2="109.01812" y2="548.9759" stroke="#adf051" stroke-width="0.5" />
<line x1="109.01812" y1="548.9759" x2="124.54719" y2="555.8934" stroke="#adf051" stroke-width="0.5" />
<line x1="124.54719" y1="555.8934" x2="114.97371" y2="541.0439" stroke="#adf051" stroke-width="0.5" />
<line x1="114.97371" y1="541.0439" x2="118.25764" y2="557.83026" stroke="#abf053" stroke-width="0.5" />
<line x1="118.25764" y1="557.83026" x2="132.89615" y2="567.7913" stroke="#abf053" stroke-width="0.5" />
<line x1="132.89615" y1="567.7913" x2="148.70352" y2="572.6796" stroke="#aaf054" stroke-width="0.5" />
<line x1="148.70352" y1="572.6796" x2="163.95428" y2="560.3205" stroke="#a8f056" stroke-width="0.5" />
<line x1="163.95428" y1="560.3205" x2="163.95428" y2="543.5342" stroke="#a8f056" stroke-width="0.5" />
<line x1="163.95428" y1="543.5342" x2="164.23259" y2="526.74774" stroke="#a8f056" stroke-width="0.5" />
<line x1="164.23259" y1="526.74774" x2="180.98618" y2="521.76715" stroke="#a8f056" stroke-width="0.5" />
<line x1="180.98618" y1="521.76715" x2="329.9873" y2="662.23615" stroke="#a5f059" stroke-width="0.5" stroke-dasharray="3 3"/>
<line x1="329.9873" y1="662.23615" x2="333.82782" y2="678.5608" stroke="#a5f059" stroke-width="0.5" />
<line x1="333.82782" y1="678.5608" x2="337.724" y2="697.929" stroke="#a5f059" stroke-width="0.5" />
<line x1="337.724" y1="697.929" x2="334.16177" y2="714.7147" stroke="#a4f05a" stroke-width="0.5" />
<line x1="334.16177" y1="714.7147" x2="339.22684" y2="731.0392" stroke="#a4f05a" stroke-width="0.5" />
<line x1="339.22684" y1="731.0392" x2="355.92474" y2="728.549" stroke="#a4f05a" stroke-width="0.5" />
<line x1="355.92474" y1="728.549" x2="454.16418" y2="695.43884" stroke="#a3f05b" stroke-width="0.5" stroke-dasharray="3 3"/>
<line x1="454.16418" y1="695.43884" x2="469.69327" y2="701.8949" stroke="#a3f05b" stroke-width="0.5" />
<line x1="469.69327" y1="701.8949" x2="487.00345" y2="704.8462" stroke="#a3f05b" stroke-width="0.5" />
<line x1="487.00345" y1="704.8462" x2="504.03534" y2="706.783" stroke="#a3f05b" stroke-width="0.5" />
<line x1="504.03534" y1="706.783" x2="522.8483" y2="726.61224" stroke="#a0f05e" stroke-width="0.5" stroke-dasharray="3 3"/>
<line x1="522.8483" y1="726.61224" x2="508.82208" y2="749.39264" stroke="#9af064" stroke-width="0.5" stroke-dasharray="3 3"/>
<line x1="508.82208" y1="749.39264" x2="504.31363" y2="749.39264" stroke="#94f06a" stroke-width="0.5" stroke-dasharray="3 3"/>
<line x1="504.31363" y1="749.39264" x2="337.4457" y2="740.4465" stroke="#6bf093" stroke-width="0.5" stroke-dasharray="3 3"/>
<line x1="337.4457" y1="740.4465" x2="336.55515" y2="722.093" stroke="#6af094" stroke-width="0.5" />
<line x1="336.55515" y1="722.093" x2="337.4457" y2="704.8462" stroke="#6af094" stroke-width="0.5" />
<line x1="337.4457" y1="704.8462" x2="334.71838" y2="687.04596" stroke="#6af094" stroke-width="0.5" />
<line x1="334.71838" y1="687.04596" x2="341.8985" y2="667.6777" stroke="#6af094" stroke-width="0.5" />
<line x1="341.8985" y1="667.6777" x2="332.04672" y2="652.3675" stroke="#6af094" stroke-width="0.5" />
<line x1="332.04672" y1="652.3675" x2="452.99533" y2="385.1671" stroke="#68f096" stroke-width="0.5" stroke-dasharray="3 3"/>
<line x1="452.99533" y1="385.1671" x2="448.82086" y2="368.84122" stroke="#67f097" stroke-width="0.5" />
<line x1="448.82086" y1="368.84122" x2="448.82086" y2="386.6429" stroke="#67f097" stroke-width="0.5" />
<line x1="448.82086" y1="386.6429" x2="436.854" y2="374.8366" stroke="#65f099" stroke-width="0.5" />
<line x1="436.854" y1="374.8366" x2="447.87463" y2="357.49606" stroke="#64f09a" stroke-width="0.5" />
<line x1="447.87463" y1="357.49606" x2="455.3887" y2="372.34622" stroke="#64f09a" stroke-width="0.5" />
<line x1="455.3887" y1="372.34622" x2="473.2555" y2="358.97186" stroke="#60f09e" stroke-width="0.5" />
<line x1="473.2555" y1="358.97186" x2="469.69327" y2="342.18466" stroke="#60f09e" stroke-width="0.5" />
<line x1="469.69327" y1="342.18466" x2="458.0604" y2="328.25674" stroke="#60f09e" stroke-width="0.5" />
<line x1="458.0604" y1="328.25674" x2="438.35684" y2="319.40192" stroke="#5ff09f" stroke-width="0.5" />
<line x1="438.35684" y1="319.40192" x2="372.95663" y2="274.85065" stroke="#5ff09f" stroke-width="0.5" stroke-dasharray="3 3"/>
<line x1="372.95663" y1="274.85065" x2="360.98978" y2="262.49057" stroke="#5ff09f" stroke-width="0.5" />
<line x1="360.98978" y1="262.49057" x2="348.46634" y2="250.59167" stroke="#5ff09f" stroke-width="0.5" />
<line x1="348.46634" y1="250.59167" x2="358.03983" y2="236.7557" stroke="#5ff09f" stroke-width="0.5" />
<line x1="358.03983" y1="236.7557" x2="364.88596" y2="252.62096" stroke="#5ef0a0" stroke-width="0.5" />
<line x1="364.88596" y1="252.62096" x2="366.3888" y2="235.74106" stroke="#5df0a1" stroke-width="0.5" />
<line x1="366.3888" y1="235.74106" x2="358.9304" y2="251.60632" stroke="#5df0a1" stroke-width="0.5" />
<line x1="358.9304" y1="251.60632" x2="348.74463" y2="266.45688" stroke="#5af0a4" stroke-width="0.5" />
<line x1="348.74463" y1="266.45688" x2="334.4401" y2="276.78766" stroke="#5af0a4" stroke-width="0.5" />
<line x1="334.4401" y1="276.78766" x2="317.4082" y2="278.35574" stroke="#59f0a5" stroke-width="0.5" />
<line x1="317.4082" y1="278.35574" x2="280.11618" y2="331.3006" stroke="#59f0a5" stroke-width="0.5" stroke-dasharray="3 3"/>
<line x1="280.11618" y1="331.3006" x2="273.82663" y2="347.07324" stroke="#59f0a5" stroke-width="0.5" />
<line x1="273.82663" y1="347.07324" x2="258.01926" y2="353.06866" stroke="#59f0a5" stroke-width="0.5" />
<line x1="258.01926" y1="353.06866" x2="243.993" y2="342.64584" stroke="#58f0a6" stroke-width="0.5" />
<line x1="243.993" y1="342.64584" x2="256.23816" y2="354.54446" stroke="#57f0a7" stroke-width="0.5" />
<line x1="256.23816" y1="354.54446" x2="272.32382" y2="359.43304" stroke="#55f0a9" stroke-width="0.5" />
<line x1="272.32382" y1="359.43304" x2="266.6465" y2="375.2978" stroke="#53f0ab" stroke-width="0.5" />
<line x1="266.6465" y1="375.2978" x2="265.1437" y2="392.63828" stroke="#53f0ab" stroke-width="0.5" />
<line x1="265.1437" y1="392.63828" x2="269.0399" y2="408.96408" stroke="#53f0ab" stroke-width="0.5" />
<line x1="269.0399" y1="408.96408" x2="258.90982" y2="431.1929" stroke="#51f0ad" stroke-width="0.5" />
<line x1="258.90982" y1="431.1929" x2="266.0899" y2="382.21555" stroke="#50f0ae" stroke-width="0.5" stroke-dasharray="3 3"/>
<line x1="266.0899" y1="382.21555" x2="267.87103" y2="364.87503" stroke="#50f0ae" stroke-width="0.5" />
<line x1="267.87103" y1="364.87503" x2="255.90419" y2="353.06866" stroke="#50f0ae" stroke-width="0.5" />
<line x1="255.90419" y1="353.06866" x2="243.38074" y2="341.17004" stroke="#50f0ae" stroke-width="0.5" />
<line x1="243.38074" y1="341.17004" x2="232.30446" y2="328.81018" stroke="#4ff0af" stroke-width="0.5" />
<line x1="232.30446" y1="328.81018" x2="247.83353" y2="335.1746" stroke="#4af0b4" stroke-width="0.5" />
<line x1="247.83353" y1="335.1746" x2="253.84477" y2="347.07324" stroke="#47f0b7" stroke-width="0.5" stroke-dasharray="3 3"/>
<line x1="253.84477" y1="347.07324" x2="269.37384" y2="355.00565" stroke="#47f0b7" stroke-width="0.5" />
<line x1="269.37384" y1="355.00565" x2="267.87103" y2="372.8074" stroke="#47f0b7" stroke-width="0.5" />
<line x1="267.87103" y1="372.8074" x2="274.10492" y2="388.67212" stroke="#46f0b8" stroke-width="0.5" />
<circle cx="358.8698" cy="256.2539" r="12.458623" stroke="#b4f04a" stroke-width="1.0" fill="#0f0" fill-opacity="0.1"/>
<circle cx="264.44818" cy="355.63773" r="8.305749" stroke="#b1f04d" stroke-width="1.0" fill="#00f" fill-opacity="0.1"/>
<circle cx="149.4411" cy="541.1104" r="20.764372" stroke="#aff04f" stroke-width="1.0" fill="#00f" fill-opacity="0.1"/>
<circle cx="131.86946" cy="516.6732" r="8.305749" stroke="#aef050" stroke-width="1.0" fill="#00f" fill-opacity="0.1"/>
<circle cx="96.966194" cy="556.3596" r="16.611498" stroke="#aef050" stroke-width="1.0" fill="#f00" fill-opacity="0.1"/>
<circle cx="159.37242" cy="573.9246" r="12.458623" stroke="#abf053" stroke-width="1.0" fill="#ff0" fill-opacity="0.1"/>
<circle cx="475.8387" cy="704.78705" r="8.305749" stroke="#a3f05b" stroke-width="1.0" fill="#00f" fill-opacity="0.1"/>
<circle cx="489.20505" cy="752.4644" r="12.458623" stroke="#9df061" stroke-width="1.0" fill="#f00" fill-opacity="0.1"/>
<circle cx="490.6967" cy="749.78436" r="12.458623" stroke="#9af064" stroke-width="1.0" fill="#f00" fill-opacity="0.1"/>
<circle cx="490.56912" cy="749.0286" r="12.458623" stroke="#92f06c" stroke-width="1.0" fill="#f00" fill-opacity="0.1"/>
<circle cx="488.79602" cy="749.03766" r="12.458623" stroke="#8ff06f" stroke-width="1.0" fill="#f00" fill-opacity="0.1"/>
<circle cx="486.8436" cy="750.1191" r="12.458623" stroke="#8ef070" stroke-width="1.0" fill="#f00" fill-opacity="0.1"/>
<circle cx="467.8935" cy="372.1126" r="12.458623" stroke="#68f096" stroke-width="1.0" fill="#00f" fill-opacity="0.1"/>
<circle cx="479.26007" cy="349.59207" r="8.305749" stroke="#60f09e" stroke-width="1.0" fill="#00f" fill-opacity="0.1"/>
<circle cx="264.34238" cy="357.5569" r="8.305749" stroke="#59f0a5" stroke-width="1.0" fill="#00f" fill-opacity="0.1"/>
<circle cx="264.11133" cy="358.58524" r="8.305749" stroke="#50f0ae" stroke-width="1.0" fill="#00f" fill-opacity="0.1"/>
<circle cx="251.49318" cy="330.108" r="12.458623" stroke="#4af0b4" stroke-width="1.0" fill="#0f0" fill-opacity="0.1"/>
<circle cx="265.43118" cy="355.56027" r="8.305749" stroke="#47f0b7" stroke-width="1.0" fill="#00f" fill-opacity="0.1"/>
<circle cx="360.74225" cy="255.26077" r="12.458623" stroke="#19f0e5" stroke-width="1.0" fill="#0f0" fill-opacity="0.1"/>
</svg>
