<?xml version="1.0" standalone="no"?>
<!DOCTYPE svg PUBLIC "-//W3C//DTD SVG 1.1//EN" "http://www.w3.org/Graphics/SVG/1.1/DTD/svg11.dtd">
<svg opacity="20%" width="30cm" height="30cm" version="1.1" viewBox="0 0 1000 1000" xmlns="http://www.w3.org/2000/svg" xmlns:xlink="http://www.w3.org/1999/xlink">
<desc>DrawTrails of automics data, Mon Jul 25 13:15:51 BST 2011</desc>
<filter id="desaturate"  primitiveUnits="objectBoundingBox">
<feImage x="0%" y="0%" width="100%" height="100%" xlink:href="altontowers-zoom15.png"/>
<feColorMatrix type="matrix" values="0.3333 0.3333 0.3333 0 0 0.3333 0.3333 0.3333 0 0 0.3333 0.3333 0.3333 0 0 0      0      0      1 0"/>
<feColorMatrix type="matrix" values="0.1 0 0 0 0 0 0.1 0 0 0 0 0 0.1 0 0 0      0      0      1 0"/>
</filter>
<rect x="-264.37028285176257" y="-264.37028285176257" width="1528.7405657035251" height="1528.7405657035251" filter="url(#desaturate)"/>
<circle cx="133.5084" cy="517.33997" r="8.305749" stroke="#00f" stroke-width="0.0" fill="#00f"  fill-opacity="15%" stroke-opacity="20%"/>
<circle cx="140.07626" cy="523.24286" r="8.305749" stroke="#0f0" stroke-width="0.0" fill="#0f0"  fill-opacity="15%" stroke-opacity="20%"/>
<circle cx="96.494675" cy="554.4176" r="16.611498" stroke="#f00" stroke-width="0.0" fill="#f00"  fill-opacity="15%" stroke-opacity="20%"/>
<circle cx="345.1824" cy="681.051" r="12.458623" stroke="#0f0" stroke-width="0.0" fill="#0f0"  fill-opacity="15%" stroke-opacity="20%"/>
<circle cx="338.61456" cy="751.3294" r="8.305749" stroke="#f00" stroke-width="0.0" fill="#f00"  fill-opacity="15%" stroke-opacity="20%"/>
<circle cx="293.53018" cy="737.4952" r="8.305749" stroke="#00f" stroke-width="0.0" fill="#00f"  fill-opacity="15%" stroke-opacity="20%"/>
<circle cx="455.3887" cy="684.5557" r="8.305749" stroke="#0f0" stroke-width="0.0" fill="#0f0"  fill-opacity="15%" stroke-opacity="20%"/>
<circle cx="476.53943" cy="703.37054" r="8.305749" stroke="#00f" stroke-width="0.0" fill="#00f"  fill-opacity="15%" stroke-opacity="20%"/>
<circle cx="464.62823" cy="735.005" r="4.1528745" stroke="#ff0" stroke-width="0.0" fill="#ff0"  fill-opacity="15%" stroke-opacity="20%"/>
<circle cx="489.11853" cy="751.3294" r="12.458623" stroke="#f00" stroke-width="0.0" fill="#f00"  fill-opacity="15%" stroke-opacity="20%"/>
<circle cx="476.87338" cy="348.54904" r="8.305749" stroke="#00f" stroke-width="0.0" fill="#00f"  fill-opacity="15%" stroke-opacity="20%"/>
<circle cx="469.69327" cy="372.34622" r="12.458623" stroke="#00f" stroke-width="0.0" fill="#00f"  fill-opacity="15%" stroke-opacity="20%"/>
<circle cx="509.71262" cy="326.78094" r="12.458623" stroke="#0f0" stroke-width="0.0" fill="#0f0"  fill-opacity="15%" stroke-opacity="20%"/>
<circle cx="485.8346" cy="337.665" r="12.458623" stroke="#0f0" stroke-width="0.0" fill="#0f0"  fill-opacity="15%" stroke-opacity="20%"/>
<circle cx="477.15167" cy="314.9745" r="31.561846" stroke="#0f0" stroke-width="0.0" fill="#0f0"  fill-opacity="15%" stroke-opacity="20%"/>
<circle cx="508.4881" cy="326.31976" r="5.814024" stroke="#0f0" stroke-width="0.0" fill="#0f0"  fill-opacity="15%" stroke-opacity="20%"/>
<circle cx="525.52" cy="275.31186" r="16.611498" stroke="#0f0" stroke-width="0.0" fill="#0f0"  fill-opacity="15%" stroke-opacity="20%"/>
<circle cx="785.00574" cy="340.6166" r="8.305749" stroke="#00f" stroke-width="0.0" fill="#00f"  fill-opacity="15%" stroke-opacity="20%"/>
<circle cx="719.6055" cy="269.40854" r="12.458623" stroke="#f00" stroke-width="0.0" fill="#f00"  fill-opacity="15%" stroke-opacity="20%"/>
<circle cx="773.92944" cy="347.07324" r="16.611498" stroke="#0f0" stroke-width="0.0" fill="#0f0"  fill-opacity="15%" stroke-opacity="20%"/>
<circle cx="867.38214" cy="552.9419" r="16.611498" stroke="#0f0" stroke-width="0.0" fill="#0f0"  fill-opacity="15%" stroke-opacity="20%"/>
<circle cx="854.8587" cy="535.6021" r="8.305749" stroke="#0f0" stroke-width="0.0" fill="#0f0"  fill-opacity="15%" stroke-opacity="20%"/>
<circle cx="875.4528" cy="586.0533" r="16.611498" stroke="#0f0" stroke-width="0.0" fill="#0f0"  fill-opacity="15%" stroke-opacity="20%"/>
<circle cx="924.4334" cy="596.47546" r="12.458623" stroke="#00f" stroke-width="0.0" fill="#00f"  fill-opacity="15%" stroke-opacity="20%"/>
<circle cx="923.2645" cy="665.74084" r="16.611498" stroke="#f00" stroke-width="0.0" fill="#f00"  fill-opacity="15%" stroke-opacity="20%"/>
<circle cx="903.8393" cy="610.77136" r="20.764372" stroke="#0f0" stroke-width="0.0" fill="#0f0"  fill-opacity="15%" stroke-opacity="20%"/>
<circle cx="359.54263" cy="318.3873" r="20.764372" stroke="#00f" stroke-width="0.0" fill="#00f"  fill-opacity="15%" stroke-opacity="20%"/>
<circle cx="226.34886" cy="344.12164" r="8.305749" stroke="#ff0" stroke-width="0.0" fill="#ff0"  fill-opacity="15%" stroke-opacity="20%"/>
<circle cx="641.40356" cy="276.32648" r="16.611498" stroke="#f00" stroke-width="0.0" fill="#f00"  fill-opacity="15%" stroke-opacity="20%"/>
<circle cx="671.2372" cy="267.9327" r="8.305749" stroke="#ff0" stroke-width="0.0" fill="#ff0"  fill-opacity="15%" stroke-opacity="20%"/>
<circle cx="157.99869" cy="573.23303" r="12.458623" stroke="#ff0" stroke-width="0.0" fill="#ff0"  fill-opacity="15%" stroke-opacity="20%"/>
<circle cx="149.82428" cy="539.25085" r="20.764372" stroke="#00f" stroke-width="0.0" fill="#00f"  fill-opacity="15%" stroke-opacity="20%"/>
<circle cx="251.71518" cy="330.64572" r="12.458623" stroke="#0f0" stroke-width="0.0" fill="#0f0"  fill-opacity="15%" stroke-opacity="20%"/>
<circle cx="359.60352" cy="255.17506" r="12.458623" stroke="#0f0" stroke-width="0.0" fill="#0f0"  fill-opacity="15%" stroke-opacity="20%"/>
<circle cx="314.50912" cy="246.0009" r="12.458623" stroke="#0f0" stroke-width="0.0" fill="#0f0"  fill-opacity="15%" stroke-opacity="20%"/>
<circle cx="263.69656" cy="357.95724" r="8.305749" stroke="#00f" stroke-width="0.0" fill="#00f"  fill-opacity="15%" stroke-opacity="20%"/>
<circle cx="290.08868" cy="395.56955" r="8.305749" stroke="#0f0" stroke-width="0.0" fill="#0f0"  fill-opacity="15%" stroke-opacity="20%"/>
<circle cx="557.8027" cy="268.94733" r="8.305749" stroke="#00f" stroke-width="0.0" fill="#00f"  fill-opacity="15%" stroke-opacity="20%"/>
<circle cx="833.09576" cy="494.5582" r="8.305749" stroke="#f00" stroke-width="0.0" fill="#f00"  fill-opacity="15%" stroke-opacity="20%"/>
<circle cx="253.23251" cy="365.42844" r="8.305749" stroke="#f00" stroke-width="0.0" fill="#f00"  fill-opacity="15%" stroke-opacity="20%"/>
<line x1="352.36252" y1="247.1788" x2="358.9304" y2="262.95178" stroke="#85f079" stroke-width="0.5" />
<line x1="358.9304" y1="262.95178" x2="377.40942" y2="272.91364" stroke="#85f079" stroke-width="0.5" />
<line x1="377.40942" y1="272.91364" x2="393.27243" y2="281.30737" stroke="#85f079" stroke-width="0.5" />
<line x1="393.27243" y1="281.30737" x2="453.55194" y2="326.31976" stroke="#84f07a" stroke-width="0.5" stroke-dasharray="3 3"/>
<line x1="453.55194" y1="326.31976" x2="465.7971" y2="339.1408" stroke="#84f07a" stroke-width="0.5" />
<line x1="465.7971" y1="339.1408" x2="480.76956" y2="346.61206" stroke="#84f07a" stroke-width="0.5" />
<line x1="480.76956" y1="346.61206" x2="476.2611" y2="362.93805" stroke="#83f07b" stroke-width="0.5" />
<line x1="476.2611" y1="362.93805" x2="462.51315" y2="372.8074" stroke="#82f07c" stroke-width="0.5" />
<line x1="462.51315" y1="372.8074" x2="451.49252" y2="386.18173" stroke="#81f07d" stroke-width="0.5" />
<line x1="451.49252" y1="386.18173" x2="434.73895" y2="387.19632" stroke="#7ef080" stroke-width="0.5" />
<line x1="434.73895" y1="387.19632" x2="431.78897" y2="370.87042" stroke="#7df081" stroke-width="0.5" />
<line x1="431.78897" y1="370.87042" x2="439.85965" y2="356.02026" stroke="#7df081" stroke-width="0.5" />
<line x1="439.85965" y1="356.02026" x2="456.27927" y2="352.51526" stroke="#7cf082" stroke-width="0.5" />
<line x1="456.27927" y1="352.51526" x2="458.0604" y2="369.85583" stroke="#7cf082" stroke-width="0.5" />
<line x1="458.0604" y1="369.85583" x2="460.45377" y2="390.60907" stroke="#7bf083" stroke-width="0.5" />
<line x1="460.45377" y1="390.60907" x2="727.0639" y2="291.63812" stroke="#69f095" stroke-width="0.5" stroke-dasharray="3 3"/>
<line x1="727.0639" y1="291.63812" x2="858.7549" y2="507.9321" stroke="#3ef0c0" stroke-width="0.5" stroke-dasharray="3 3"/>
<line x1="858.7549" y1="507.9321" x2="866.4916" y2="523.24286" stroke="#3ef0c0" stroke-width="0.5" />
<line x1="866.4916" y1="523.24286" x2="245.77411" y2="345.59744" stroke="#26f0d8" stroke-width="0.5" stroke-dasharray="3 3"/>
<line x1="245.77411" y1="345.59744" x2="249.33633" y2="370.87042" stroke="#24f0da" stroke-width="0.5" />
<line x1="249.33633" y1="370.87042" x2="234.69783" y2="358.51068" stroke="#1ef0e0" stroke-width="0.5" />
<line x1="234.69783" y1="358.51068" x2="233.52898" y2="338.67963" stroke="#1cf0e2" stroke-width="0.5" />
<line x1="233.52898" y1="338.67963" x2="230.24504" y2="321.89233" stroke="#1cf0e2" stroke-width="0.5" />
<line x1="230.24504" y1="321.89233" x2="217.7216" y2="334.2522" stroke="#1cf0e2" stroke-width="0.5" />
<line x1="217.7216" y1="334.2522" x2="217.7216" y2="356.48145" stroke="#1cf0e2" stroke-width="0.5" />
<line x1="217.7216" y1="356.48145" x2="235.31007" y2="352.05405" stroke="#1cf0e2" stroke-width="0.5" />
<line x1="235.31007" y1="352.05405" x2="253.23251" y2="348.08786" stroke="#1cf0e2" stroke-width="0.5" />
<line x1="253.23251" y1="348.08786" x2="249.33633" y2="366.35083" stroke="#1cf0e2" stroke-width="0.5" />
<line x1="249.33633" y1="366.35083" x2="232.91672" y2="368.84122" stroke="#1bf0e3" stroke-width="0.5" />
<line x1="232.91672" y1="368.84122" x2="222.17438" y2="344.12164" stroke="#1bf0e3" stroke-width="0.5" />
<line x1="222.17438" y1="344.12164" x2="236.20064" y2="334.7134" stroke="#1bf0e3" stroke-width="0.5" />
<g transform="translate(475.67808570362575 344.0714179552361) rotate(26.519160503869113)">
<path fill-opacity="0%" stroke="#00f" stroke-width="0.5" d="M -5 -5 L 0 0 -5 5 -5 -5"/>
</g>
<g transform="translate(479.1916708090209 352.3259113865612) rotate(105.43759371013984)">
<path fill-opacity="0%" stroke="#00f" stroke-width="0.5" d="M -5 0 L 0 5 5 0 0 -5 -5 0"/>
</g>
<g transform="translate(476.2229422171926 362.96544797709225) rotate(144.3262667175379)">
<path fill-opacity="0%" stroke="#00f" stroke-width="0.5" d="M -5 -5 L 0 0 -5 5 -5 -5"/>
</g>
<g transform="translate(658.557838905723 317.06892646304715) rotate(-20.365920142751516)">
<path fill-opacity="0%" stroke="#00f" stroke-width="0.5" d="M -5 0 L 0 5 5 0 0 -5 -5 0"/>
</g>
<line x1="466.84988" y1="388.2347" x2="467.78738" y2="387.8867" stroke="#a0a" stroke-width="10.0"  stroke-opacity="100%"/>
<line x1="466.84988" y1="388.2347" x2="467.78738" y2="387.8867" stroke="#a0a" stroke-width="10.0"  stroke-opacity="100%"/>
<line x1="466.84988" y1="388.2347" x2="466.84988" y2="388.2347" stroke="#a0a" stroke-width="10.0"  stroke-opacity="30%"/>
<line x1="466.84988" y1="388.2347" x2="466.84988" y2="388.2347" stroke="#a0a" stroke-width="1.0"  stroke-opacity="100%"/>
<line x1="514.676" y1="370.4807" x2="515.6135" y2="370.1327" stroke="#f00" stroke-width="10.0"  stroke-opacity="100%"/>
<line x1="514.676" y1="370.4807" x2="515.6135" y2="370.1327" stroke="#f00" stroke-width="10.0"  stroke-opacity="100%"/>
<line x1="514.676" y1="370.4807" x2="514.676" y2="370.4807" stroke="#f00" stroke-width="10.0"  stroke-opacity="30%"/>
<line x1="514.676" y1="370.4807" x2="514.676" y2="370.4807" stroke="#f00" stroke-width="1.0"  stroke-opacity="100%"/>
<line x1="524.39075" y1="366.8744" x2="525.32825" y2="366.52637" stroke="#f00" stroke-width="10.0"  stroke-opacity="100%"/>
<line x1="524.39075" y1="366.8744" x2="525.32825" y2="366.52637" stroke="#f00" stroke-width="10.0"  stroke-opacity="100%"/>
<line x1="524.39075" y1="366.8744" x2="524.39075" y2="366.8744" stroke="#f00" stroke-width="10.0"  stroke-opacity="30%"/>
<line x1="524.39075" y1="366.8744" x2="524.39075" y2="366.8744" stroke="#f00" stroke-width="1.0"  stroke-opacity="100%"/>
<line x1="524.4685" y1="366.84555" x2="525.40594" y2="366.49753" stroke="#f00" stroke-width="10.0"  stroke-opacity="100%"/>
<line x1="524.4685" y1="366.84555" x2="525.40594" y2="366.49753" stroke="#f00" stroke-width="10.0"  stroke-opacity="100%"/>
<line x1="524.4685" y1="366.84555" x2="524.4685" y2="366.84555" stroke="#f00" stroke-width="10.0"  stroke-opacity="30%"/>
<line x1="524.4685" y1="366.84555" x2="524.4685" y2="366.84555" stroke="#f00" stroke-width="1.0"  stroke-opacity="100%"/>
<line x1="526.0504" y1="366.2583" x2="526.9879" y2="365.91028" stroke="#a0a" stroke-width="10.0"  stroke-opacity="100%"/>
<line x1="526.0504" y1="366.2583" x2="526.9879" y2="365.91028" stroke="#a0a" stroke-width="10.0"  stroke-opacity="100%"/>
<line x1="526.0504" y1="366.2583" x2="526.0504" y2="366.2583" stroke="#a0a" stroke-width="10.0"  stroke-opacity="30%"/>
<line x1="526.0504" y1="366.2583" x2="526.0504" y2="366.2583" stroke="#a0a" stroke-width="1.0"  stroke-opacity="100%"/>
<line x1="527.5536" y1="365.7003" x2="528.4911" y2="365.3523" stroke="#f00" stroke-width="10.0"  stroke-opacity="100%"/>
<line x1="527.5536" y1="365.7003" x2="528.4911" y2="365.3523" stroke="#f00" stroke-width="10.0"  stroke-opacity="100%"/>
<line x1="527.5536" y1="365.7003" x2="527.5536" y2="365.7003" stroke="#f00" stroke-width="10.0"  stroke-opacity="30%"/>
<line x1="527.5536" y1="365.7003" x2="527.5536" y2="365.7003" stroke="#f00" stroke-width="1.0"  stroke-opacity="100%"/>
<line x1="528.0792" y1="365.50516" x2="529.01666" y2="365.15717" stroke="#a0a" stroke-width="10.0"  stroke-opacity="100%"/>
<line x1="528.0792" y1="365.50516" x2="529.01666" y2="365.15717" stroke="#a0a" stroke-width="10.0"  stroke-opacity="100%"/>
<line x1="528.0792" y1="365.50516" x2="528.0792" y2="365.50516" stroke="#a0a" stroke-width="10.0"  stroke-opacity="30%"/>
<line x1="528.0792" y1="365.50516" x2="528.0792" y2="365.50516" stroke="#a0a" stroke-width="1.0"  stroke-opacity="100%"/>
<line x1="528.337" y1="365.4095" x2="529.2745" y2="365.06146" stroke="#a0a" stroke-width="10.0"  stroke-opacity="100%"/>
<line x1="528.337" y1="365.4095" x2="529.2745" y2="365.06146" stroke="#a0a" stroke-width="10.0"  stroke-opacity="100%"/>
<line x1="528.337" y1="365.4095" x2="528.337" y2="365.4095" stroke="#a0a" stroke-width="10.0"  stroke-opacity="30%"/>
<line x1="528.337" y1="365.4095" x2="528.337" y2="365.4095" stroke="#a0a" stroke-width="1.0"  stroke-opacity="100%"/>
<line x1="530.669" y1="364.54376" x2="531.6065" y2="364.19577" stroke="#f00" stroke-width="10.0"  stroke-opacity="100%"/>
<line x1="530.669" y1="364.54376" x2="531.6065" y2="364.19577" stroke="#f00" stroke-width="10.0"  stroke-opacity="100%"/>
<line x1="530.669" y1="364.54376" x2="530.669" y2="364.54376" stroke="#f00" stroke-width="10.0"  stroke-opacity="30%"/>
<line x1="530.669" y1="364.54376" x2="530.669" y2="364.54376" stroke="#f00" stroke-width="1.0"  stroke-opacity="100%"/>
<line x1="536.6588" y1="362.32025" x2="537.5963" y2="361.97223" stroke="#f00" stroke-width="10.0"  stroke-opacity="100%"/>
<line x1="536.6588" y1="362.32025" x2="537.5963" y2="361.97223" stroke="#f00" stroke-width="10.0"  stroke-opacity="100%"/>
<line x1="536.6588" y1="362.32025" x2="536.6588" y2="362.32025" stroke="#f00" stroke-width="10.0"  stroke-opacity="30%"/>
<line x1="536.6588" y1="362.32025" x2="536.6588" y2="362.32025" stroke="#f00" stroke-width="1.0"  stroke-opacity="100%"/>
<line x1="552.6728" y1="356.37555" x2="553.6103" y2="356.02753" stroke="#f00" stroke-width="10.0"  stroke-opacity="100%"/>
<line x1="563.9272" y1="352.1977" x2="564.8647" y2="351.84967" stroke="#f00" stroke-width="10.0"  stroke-opacity="100%"/>
<line x1="552.6728" y1="356.37555" x2="563.9272" y2="352.1977" stroke="#f00" stroke-width="10.0"  stroke-opacity="30%"/>
<line x1="552.6728" y1="356.37555" x2="563.9272" y2="352.1977" stroke="#f00" stroke-width="1.0"  stroke-opacity="100%"/>
<line x1="565.49866" y1="351.61432" x2="566.43616" y2="351.26633" stroke="#f00" stroke-width="10.0"  stroke-opacity="100%"/>
<line x1="565.49866" y1="351.61432" x2="566.43616" y2="351.26633" stroke="#f00" stroke-width="10.0"  stroke-opacity="100%"/>
<line x1="565.49866" y1="351.61432" x2="565.49866" y2="351.61432" stroke="#f00" stroke-width="10.0"  stroke-opacity="30%"/>
<line x1="565.49866" y1="351.61432" x2="565.49866" y2="351.61432" stroke="#f00" stroke-width="1.0"  stroke-opacity="100%"/>
<g transform="translate(699.3255666934326 301.93514097311555) rotate(-20.365920142751516)">
<path fill-opacity="0%" stroke="#f00" stroke-width="0.5" d="M -5 -5 L 0 0 -5 5 -5 -5"/>
</g>
<g transform="translate(726.9446069071471 291.6824079238589) rotate(-20.365920142751516)">
<path fill-opacity="0%" stroke="#f00" stroke-width="0.5" d="M -5 0 L 0 5 5 0 0 -5 -5 0"/>
</g>
<line x1="727.1206" y1="291.7312" x2="727.6406" y2="292.58536" stroke="#f00" stroke-width="10.0"  stroke-opacity="100%"/>
<line x1="727.9503" y1="293.09402" x2="728.4704" y2="293.94818" stroke="#f00" stroke-width="10.0"  stroke-opacity="100%"/>
<line x1="727.1206" y1="291.7312" x2="727.9503" y2="293.09402" stroke="#f00" stroke-width="10.0"  stroke-opacity="30%"/>
<line x1="727.1206" y1="291.7312" x2="727.9503" y2="293.09402" stroke="#f00" stroke-width="1.0"  stroke-opacity="100%"/>
<line x1="763.16473" y1="350.93146" x2="763.6848" y2="351.78558" stroke="#f00" stroke-width="10.0"  stroke-opacity="100%"/>
<line x1="763.16473" y1="350.93146" x2="763.6848" y2="351.78558" stroke="#f00" stroke-width="10.0"  stroke-opacity="100%"/>
<line x1="763.16473" y1="350.93146" x2="763.16473" y2="350.93146" stroke="#f00" stroke-width="10.0"  stroke-opacity="30%"/>
<line x1="763.16473" y1="350.93146" x2="763.16473" y2="350.93146" stroke="#f00" stroke-width="1.0"  stroke-opacity="100%"/>
<line x1="800.0105" y1="411.4482" x2="800.5305" y2="412.30237" stroke="#0f0" stroke-width="10.0"  stroke-opacity="100%"/>
<line x1="800.0105" y1="411.4482" x2="800.5305" y2="412.30237" stroke="#0f0" stroke-width="10.0"  stroke-opacity="100%"/>
<line x1="800.0105" y1="411.4482" x2="800.0105" y2="411.4482" stroke="#0f0" stroke-width="10.0"  stroke-opacity="30%"/>
<line x1="800.0105" y1="411.4482" x2="800.0105" y2="411.4482" stroke="#0f0" stroke-width="1.0"  stroke-opacity="100%"/>
<line x1="800.1802" y1="411.72687" x2="800.7002" y2="412.581" stroke="#f00" stroke-width="10.0"  stroke-opacity="100%"/>
<line x1="800.1802" y1="411.72687" x2="800.7002" y2="412.581" stroke="#f00" stroke-width="10.0"  stroke-opacity="100%"/>
<line x1="800.1802" y1="411.72687" x2="800.1802" y2="411.72687" stroke="#f00" stroke-width="10.0"  stroke-opacity="30%"/>
<line x1="800.1802" y1="411.72687" x2="800.1802" y2="411.72687" stroke="#f00" stroke-width="1.0"  stroke-opacity="100%"/>
<line x1="801.01044" y1="413.09055" x2="801.53046" y2="413.9447" stroke="#f00" stroke-width="10.0"  stroke-opacity="100%"/>
<line x1="801.01044" y1="413.09055" x2="801.53046" y2="413.9447" stroke="#f00" stroke-width="10.0"  stroke-opacity="100%"/>
<line x1="801.01044" y1="413.09055" x2="801.01044" y2="413.09055" stroke="#f00" stroke-width="10.0"  stroke-opacity="30%"/>
<line x1="801.01044" y1="413.09055" x2="801.01044" y2="413.09055" stroke="#f00" stroke-width="1.0"  stroke-opacity="100%"/>
<line x1="849.6144" y1="492.91937" x2="850.1344" y2="493.77353" stroke="#a0a" stroke-width="10.0"  stroke-opacity="100%"/>
<line x1="849.6144" y1="492.91937" x2="850.1344" y2="493.77353" stroke="#a0a" stroke-width="10.0"  stroke-opacity="100%"/>
<line x1="849.6144" y1="492.91937" x2="849.6144" y2="492.91937" stroke="#a0a" stroke-width="10.0"  stroke-opacity="30%"/>
<line x1="849.6144" y1="492.91937" x2="849.6144" y2="492.91937" stroke="#a0a" stroke-width="1.0"  stroke-opacity="100%"/>
<g transform="translate(852.3492896834439 497.4113230408609) rotate(58.66477916229097)">
<path fill-opacity="0%" stroke="#f00" stroke-width="0.5" d="M -5 -5 L 0 0 -5 5 -5 -5"/>
</g>
<g transform="translate(820.4507048409032 510.0662522271071) rotate(-164.02921306720205)">
<path fill-opacity="0%" stroke="#f00" stroke-width="0.5" d="M -5 0 L 0 5 5 0 0 -5 -5 0"/>
</g>
<line x1="820.1118" y1="509.96927" x2="819.1504" y2="509.69412" stroke="#f00" stroke-width="10.0"  stroke-opacity="100%"/>
<line x1="815.3283" y1="508.60025" x2="814.3669" y2="508.3251" stroke="#f00" stroke-width="10.0"  stroke-opacity="100%"/>
<line x1="820.1118" y1="509.96927" x2="815.3283" y2="508.60025" stroke="#f00" stroke-width="10.0"  stroke-opacity="30%"/>
<line x1="820.1118" y1="509.96927" x2="815.3283" y2="508.60025" stroke="#f00" stroke-width="1.0"  stroke-opacity="100%"/>
<line x1="811.0066" y1="507.3634" x2="810.0452" y2="507.08826" stroke="#a0a" stroke-width="10.0"  stroke-opacity="100%"/>
<line x1="811.0066" y1="507.3634" x2="810.0452" y2="507.08826" stroke="#a0a" stroke-width="10.0"  stroke-opacity="100%"/>
<line x1="811.0066" y1="507.3634" x2="811.0066" y2="507.3634" stroke="#a0a" stroke-width="10.0"  stroke-opacity="30%"/>
<line x1="811.0066" y1="507.3634" x2="811.0066" y2="507.3634" stroke="#a0a" stroke-width="1.0"  stroke-opacity="100%"/>
<line x1="772.59106" y1="496.36914" x2="771.6297" y2="496.094" stroke="#a0a" stroke-width="10.0"  stroke-opacity="100%"/>
<line x1="772.59106" y1="496.36914" x2="771.6297" y2="496.094" stroke="#a0a" stroke-width="10.0"  stroke-opacity="100%"/>
<line x1="772.59106" y1="496.36914" x2="772.59106" y2="496.36914" stroke="#a0a" stroke-width="10.0"  stroke-opacity="30%"/>
<line x1="772.59106" y1="496.36914" x2="772.59106" y2="496.36914" stroke="#a0a" stroke-width="1.0"  stroke-opacity="100%"/>
<line x1="747.7975" y1="489.27338" x2="746.8361" y2="488.99823" stroke="#f00" stroke-width="10.0"  stroke-opacity="100%"/>
<line x1="747.7975" y1="489.27338" x2="746.8361" y2="488.99823" stroke="#f00" stroke-width="10.0"  stroke-opacity="100%"/>
<line x1="747.7975" y1="489.27338" x2="747.7975" y2="489.27338" stroke="#f00" stroke-width="10.0"  stroke-opacity="30%"/>
<line x1="747.7975" y1="489.27338" x2="747.7975" y2="489.27338" stroke="#f00" stroke-width="1.0"  stroke-opacity="100%"/>
<line x1="747.6664" y1="489.23584" x2="746.70496" y2="488.9607" stroke="#f00" stroke-width="10.0"  stroke-opacity="100%"/>
<line x1="747.6664" y1="489.23584" x2="746.70496" y2="488.9607" stroke="#f00" stroke-width="10.0"  stroke-opacity="100%"/>
<line x1="747.6664" y1="489.23584" x2="747.6664" y2="489.23584" stroke="#f00" stroke-width="10.0"  stroke-opacity="30%"/>
<line x1="747.6664" y1="489.23584" x2="747.6664" y2="489.23584" stroke="#f00" stroke-width="1.0"  stroke-opacity="100%"/>
<line x1="731.67706" y1="484.6598" x2="730.71564" y2="484.38464" stroke="#f00" stroke-width="10.0"  stroke-opacity="100%"/>
<line x1="731.67706" y1="484.6598" x2="730.71564" y2="484.38464" stroke="#f00" stroke-width="10.0"  stroke-opacity="100%"/>
<line x1="731.67706" y1="484.6598" x2="731.67706" y2="484.6598" stroke="#f00" stroke-width="10.0"  stroke-opacity="30%"/>
<line x1="731.67706" y1="484.6598" x2="731.67706" y2="484.6598" stroke="#f00" stroke-width="1.0"  stroke-opacity="100%"/>
<line x1="699.2284" y1="475.3732" x2="698.26697" y2="475.09805" stroke="#f00" stroke-width="10.0"  stroke-opacity="100%"/>
<line x1="699.2284" y1="475.3732" x2="698.26697" y2="475.09805" stroke="#f00" stroke-width="10.0"  stroke-opacity="100%"/>
<line x1="699.2284" y1="475.3732" x2="699.2284" y2="475.3732" stroke="#f00" stroke-width="10.0"  stroke-opacity="30%"/>
<line x1="699.2284" y1="475.3732" x2="699.2284" y2="475.3732" stroke="#f00" stroke-width="1.0"  stroke-opacity="100%"/>
<line x1="683.1105" y1="470.76035" x2="682.14905" y2="470.4852" stroke="#f00" stroke-width="10.0"  stroke-opacity="100%"/>
<line x1="683.1105" y1="470.76035" x2="682.14905" y2="470.4852" stroke="#f00" stroke-width="10.0"  stroke-opacity="100%"/>
<line x1="683.1105" y1="470.76035" x2="683.1105" y2="470.76035" stroke="#f00" stroke-width="10.0"  stroke-opacity="30%"/>
<line x1="683.1105" y1="470.76035" x2="683.1105" y2="470.76035" stroke="#f00" stroke-width="1.0"  stroke-opacity="100%"/>
<line x1="655.64545" y1="462.90002" x2="654.684" y2="462.62488" stroke="#f00" stroke-width="10.0"  stroke-opacity="100%"/>
<line x1="655.64545" y1="462.90002" x2="654.684" y2="462.62488" stroke="#f00" stroke-width="10.0"  stroke-opacity="100%"/>
<line x1="655.64545" y1="462.90002" x2="655.64545" y2="462.90002" stroke="#f00" stroke-width="10.0"  stroke-opacity="30%"/>
<line x1="655.64545" y1="462.90002" x2="655.64545" y2="462.90002" stroke="#f00" stroke-width="1.0"  stroke-opacity="100%"/>
<line x1="470.927" y1="410.0348" x2="469.9656" y2="409.75964" stroke="#a0a" stroke-width="10.0"  stroke-opacity="100%"/>
<line x1="470.927" y1="410.0348" x2="469.9656" y2="409.75964" stroke="#a0a" stroke-width="10.0"  stroke-opacity="100%"/>
<line x1="470.927" y1="410.0348" x2="470.927" y2="410.0348" stroke="#a0a" stroke-width="10.0"  stroke-opacity="30%"/>
<line x1="470.927" y1="410.0348" x2="470.927" y2="410.0348" stroke="#a0a" stroke-width="1.0"  stroke-opacity="100%"/>
<line x1="467.02026" y1="408.9167" x2="466.05887" y2="408.64154" stroke="#0f0" stroke-width="10.0"  stroke-opacity="100%"/>
<line x1="467.02026" y1="408.9167" x2="466.05887" y2="408.64154" stroke="#0f0" stroke-width="10.0"  stroke-opacity="100%"/>
<line x1="467.02026" y1="408.9167" x2="467.02026" y2="408.9167" stroke="#0f0" stroke-width="10.0"  stroke-opacity="30%"/>
<line x1="467.02026" y1="408.9167" x2="467.02026" y2="408.9167" stroke="#0f0" stroke-width="1.0"  stroke-opacity="100%"/>
<line x1="465.60822" y1="408.51257" x2="464.64682" y2="408.23743" stroke="#a0a" stroke-width="10.0"  stroke-opacity="100%"/>
<line x1="465.60822" y1="408.51257" x2="464.64682" y2="408.23743" stroke="#a0a" stroke-width="10.0"  stroke-opacity="100%"/>
<line x1="465.60822" y1="408.51257" x2="465.60822" y2="408.51257" stroke="#a0a" stroke-width="10.0"  stroke-opacity="30%"/>
<line x1="465.60822" y1="408.51257" x2="465.60822" y2="408.51257" stroke="#a0a" stroke-width="1.0"  stroke-opacity="100%"/>
<line x1="465.0799" y1="408.36136" x2="464.1185" y2="408.0862" stroke="#f00" stroke-width="10.0"  stroke-opacity="100%"/>
<line x1="442.76517" y1="401.97504" x2="441.80377" y2="401.6999" stroke="#f00" stroke-width="10.0"  stroke-opacity="100%"/>
<line x1="465.0799" y1="408.36136" x2="442.76517" y2="401.97504" stroke="#f00" stroke-width="10.0"  stroke-opacity="30%"/>
<line x1="465.0799" y1="408.36136" x2="442.76517" y2="401.97504" stroke="#f00" stroke-width="1.0"  stroke-opacity="100%"/>
<line x1="440.878" y1="401.43494" x2="439.9166" y2="401.1598" stroke="#f00" stroke-width="10.0"  stroke-opacity="100%"/>
<line x1="440.878" y1="401.43494" x2="439.9166" y2="401.1598" stroke="#f00" stroke-width="10.0"  stroke-opacity="100%"/>
<line x1="440.878" y1="401.43494" x2="440.878" y2="401.43494" stroke="#f00" stroke-width="10.0"  stroke-opacity="30%"/>
<line x1="440.878" y1="401.43494" x2="440.878" y2="401.43494" stroke="#f00" stroke-width="1.0"  stroke-opacity="100%"/>
<g transform="translate(290.7101725684744 358.4578600406532) rotate(-164.02921306720205)">
<path fill-opacity="0%" stroke="#00f" stroke-width="0.5" d="M -5 -5 L 0 0 -5 5 -5 -5"/>
</g>
<g transform="translate(264.60590132853156 350.9869826001262) rotate(-164.02921306720205)">
<path fill-opacity="0%" stroke="#00f" stroke-width="0.5" d="M -5 -5 L 0 0 -5 5 -5 -5"/>
</g>
<g transform="translate(263.5701432418641 350.69055518208415) rotate(-164.02921306720205)">
<path fill-opacity="0%" stroke="#00f" stroke-width="0.5" d="M -5 0 L 0 5 5 0 0 -5 -5 0"/>
</g>
<line x1="262.82642" y1="350.47772" x2="261.86502" y2="350.20255" stroke="#00f" stroke-width="10.0"  stroke-opacity="100%"/>
<line x1="250.46765" y1="346.9407" x2="249.50624" y2="346.66556" stroke="#00f" stroke-width="10.0"  stroke-opacity="100%"/>
<line x1="262.82642" y1="350.47772" x2="250.46765" y2="346.9407" stroke="#00f" stroke-width="10.0"  stroke-opacity="30%"/>
<line x1="262.82642" y1="350.47772" x2="250.46765" y2="346.9407" stroke="#00f" stroke-width="1.0"  stroke-opacity="100%"/>
<g transform="translate(262.0161893662706 350.2458234044344) rotate(-164.02921306720205)">
<path fill-opacity="0%" stroke="#f00" stroke-width="0.5" d="M -5 -5 L 0 0 -5 5 -5 -5"/>
</g>
<line x1="247.96458" y1="369.71222" x2="247.20052" y2="369.06708" stroke="#a0a" stroke-width="10.0"  stroke-opacity="100%"/>
<line x1="247.96458" y1="369.71222" x2="247.20052" y2="369.06708" stroke="#a0a" stroke-width="10.0"  stroke-opacity="100%"/>
<line x1="247.96458" y1="369.71222" x2="247.96458" y2="369.71222" stroke="#a0a" stroke-width="10.0"  stroke-opacity="30%"/>
<line x1="247.96458" y1="369.71222" x2="247.96458" y2="369.71222" stroke="#a0a" stroke-width="1.0"  stroke-opacity="100%"/>
<line x1="247.64258" y1="369.44034" x2="246.87851" y2="368.7952" stroke="#a0a" stroke-width="10.0"  stroke-opacity="100%"/>
<line x1="247.64258" y1="369.44034" x2="246.87851" y2="368.7952" stroke="#a0a" stroke-width="10.0"  stroke-opacity="100%"/>
<line x1="247.64258" y1="369.44034" x2="247.64258" y2="369.44034" stroke="#a0a" stroke-width="10.0"  stroke-opacity="30%"/>
<line x1="247.64258" y1="369.44034" x2="247.64258" y2="369.44034" stroke="#a0a" stroke-width="1.0"  stroke-opacity="100%"/>
<line x1="247.18423" y1="369.05334" x2="246.42017" y2="368.4082" stroke="#f00" stroke-width="10.0"  stroke-opacity="100%"/>
<line x1="247.18423" y1="369.05334" x2="246.42017" y2="368.4082" stroke="#f00" stroke-width="10.0"  stroke-opacity="100%"/>
<line x1="247.18423" y1="369.05334" x2="247.18423" y2="369.05334" stroke="#f00" stroke-width="10.0"  stroke-opacity="30%"/>
<line x1="247.18423" y1="369.05334" x2="247.18423" y2="369.05334" stroke="#f00" stroke-width="1.0"  stroke-opacity="100%"/>
<line x1="246.91582" y1="368.8267" x2="246.15175" y2="368.18158" stroke="#a0a" stroke-width="10.0"  stroke-opacity="100%"/>
<line x1="246.91582" y1="368.8267" x2="246.15175" y2="368.18158" stroke="#a0a" stroke-width="10.0"  stroke-opacity="100%"/>
<line x1="246.91582" y1="368.8267" x2="246.91582" y2="368.8267" stroke="#a0a" stroke-width="10.0"  stroke-opacity="30%"/>
<line x1="246.91582" y1="368.8267" x2="246.91582" y2="368.8267" stroke="#a0a" stroke-width="1.0"  stroke-opacity="100%"/>
<line x1="246.40083" y1="368.39188" x2="245.63676" y2="367.74677" stroke="#a0a" stroke-width="10.0"  stroke-opacity="100%"/>
<line x1="246.40083" y1="368.39188" x2="245.63676" y2="367.74677" stroke="#a0a" stroke-width="10.0"  stroke-opacity="100%"/>
<line x1="246.40083" y1="368.39188" x2="246.40083" y2="368.39188" stroke="#a0a" stroke-width="10.0"  stroke-opacity="30%"/>
<line x1="246.40083" y1="368.39188" x2="246.40083" y2="368.39188" stroke="#a0a" stroke-width="1.0"  stroke-opacity="100%"/>
<line x1="245.43814" y1="367.57907" x2="244.67407" y2="366.93393" stroke="#a0a" stroke-width="10.0"  stroke-opacity="100%"/>
<line x1="245.43814" y1="367.57907" x2="244.67407" y2="366.93393" stroke="#a0a" stroke-width="10.0"  stroke-opacity="100%"/>
<line x1="245.43814" y1="367.57907" x2="245.43814" y2="367.57907" stroke="#a0a" stroke-width="10.0"  stroke-opacity="30%"/>
<line x1="245.43814" y1="367.57907" x2="245.43814" y2="367.57907" stroke="#a0a" stroke-width="1.0"  stroke-opacity="100%"/>
<line x1="245.05334" y1="367.25415" x2="244.28928" y2="366.60904" stroke="#a0a" stroke-width="10.0"  stroke-opacity="100%"/>
<line x1="245.05334" y1="367.25415" x2="244.28928" y2="366.60904" stroke="#a0a" stroke-width="10.0"  stroke-opacity="100%"/>
<line x1="245.05334" y1="367.25415" x2="245.05334" y2="367.25415" stroke="#a0a" stroke-width="10.0"  stroke-opacity="30%"/>
<line x1="245.05334" y1="367.25415" x2="245.05334" y2="367.25415" stroke="#a0a" stroke-width="1.0"  stroke-opacity="100%"/>
<line x1="244.46378" y1="366.75638" x2="243.6997" y2="366.11124" stroke="#a0a" stroke-width="10.0"  stroke-opacity="100%"/>
<line x1="244.46378" y1="366.75638" x2="243.6997" y2="366.11124" stroke="#a0a" stroke-width="10.0"  stroke-opacity="100%"/>
<line x1="244.46378" y1="366.75638" x2="244.46378" y2="366.75638" stroke="#a0a" stroke-width="10.0"  stroke-opacity="30%"/>
<line x1="244.46378" y1="366.75638" x2="244.46378" y2="366.75638" stroke="#a0a" stroke-width="1.0"  stroke-opacity="100%"/>
<line x1="242.95023" y1="365.47842" x2="242.18614" y2="364.8333" stroke="#f00" stroke-width="10.0"  stroke-opacity="100%"/>
<line x1="242.95023" y1="365.47842" x2="242.18614" y2="364.8333" stroke="#f00" stroke-width="10.0"  stroke-opacity="100%"/>
<line x1="242.95023" y1="365.47842" x2="242.95023" y2="365.47842" stroke="#f00" stroke-width="10.0"  stroke-opacity="30%"/>
<line x1="242.95023" y1="365.47842" x2="242.95023" y2="365.47842" stroke="#f00" stroke-width="1.0"  stroke-opacity="100%"/>
<line x1="242.8658" y1="365.40717" x2="242.10173" y2="364.76202" stroke="#a0a" stroke-width="10.0"  stroke-opacity="100%"/>
<line x1="242.8658" y1="365.40717" x2="242.10173" y2="364.76202" stroke="#a0a" stroke-width="10.0"  stroke-opacity="100%"/>
<line x1="242.8658" y1="365.40717" x2="242.8658" y2="365.40717" stroke="#a0a" stroke-width="10.0"  stroke-opacity="30%"/>
<line x1="242.8658" y1="365.40717" x2="242.8658" y2="365.40717" stroke="#a0a" stroke-width="1.0"  stroke-opacity="100%"/>
<line x1="242.52316" y1="365.11786" x2="241.75908" y2="364.47272" stroke="#f00" stroke-width="10.0"  stroke-opacity="100%"/>
<line x1="242.52316" y1="365.11786" x2="241.75908" y2="364.47272" stroke="#f00" stroke-width="10.0"  stroke-opacity="100%"/>
<line x1="242.52316" y1="365.11786" x2="242.52316" y2="365.11786" stroke="#f00" stroke-width="10.0"  stroke-opacity="30%"/>
<line x1="242.52316" y1="365.11786" x2="242.52316" y2="365.11786" stroke="#f00" stroke-width="1.0"  stroke-opacity="100%"/>
<line x1="242.51222" y1="365.1086" x2="241.74815" y2="364.46347" stroke="#f00" stroke-width="10.0"  stroke-opacity="100%"/>
<line x1="242.51222" y1="365.1086" x2="241.74815" y2="364.46347" stroke="#f00" stroke-width="10.0"  stroke-opacity="100%"/>
<line x1="242.51222" y1="365.1086" x2="242.51222" y2="365.1086" stroke="#f00" stroke-width="10.0"  stroke-opacity="30%"/>
<line x1="242.51222" y1="365.1086" x2="242.51222" y2="365.1086" stroke="#f00" stroke-width="1.0"  stroke-opacity="100%"/>
<g transform="translate(233.6501699829335 340.7358253255525) rotate(-93.37314369252485)">
<path fill-opacity="0%" stroke="#aa0" stroke-width="0.5" d="M -5 -5 L 0 0 -5 5 -5 -5"/>
</g>
</svg>
