<?xml version="1.0" standalone="no"?>
<!DOCTYPE svg PUBLIC "-//W3C//DTD SVG 1.1//EN" "http://www.w3.org/Graphics/SVG/1.1/DTD/svg11.dtd">
<svg opacity="20%" width="30cm" height="30cm" version="1.1" viewBox="0 0 10000 10000" xmlns="http://www.w3.org/2000/svg" xmlns:xlink="http://www.w3.org/1999/xlink">
<desc>DrawTrails of automics data, Mon Aug 08 16:33:07 BST 2011</desc>
<filter id="desaturate"  primitiveUnits="objectBoundingBox">
<feImage x="0%" y="0%" width="100%" height="100%" xlink:href="altontowers-zoom15.png"/>
<feColorMatrix type="matrix" values="0.3333 0.3333 0.3333 0 0 0.3333 0.3333 0.3333 0 0 0.3333 0.3333 0.3333 0 0 0      0      0      1 0"/>
<feColorMatrix type="matrix" values="0.3 0 0 0 0.7 0 0.3 0 0 0.7 0 0 0.3 0 0.7 0      0      0      1 0"/>
</filter>
<rect x="-2643.7028285176257" y="-2643.7028285176257" width="15287.405657035251" height="15287.405657035251" filter="url(#desaturate)"/>
<line x1="3616.0205" y1="2407.2202" x2="3490.7861" y2="2288.2305" stroke="#b3f04b" stroke-width="5.0" />
<line x1="3490.7861" y1="2288.2305" x2="3338.2783" y2="2357.4106" stroke="#b2f04c" stroke-width="5.0" />
<line x1="3338.2783" y1="2357.4106" x2="3204.1382" y2="2491.1584" stroke="#b1f04d" stroke-width="5.0" />
<line x1="3204.1382" y1="2491.1584" x2="3096.715" y2="2635.0522" stroke="#b1f04d" stroke-width="5.0" />
<line x1="3096.715" y1="2635.0522" x2="3033.8196" y2="2792.7812" stroke="#b1f04d" stroke-width="5.0" />
<line x1="3033.8196" y1="2792.7812" x2="2816.19" y2="3322.23" stroke="#b1f04d" stroke-width="5.0" stroke-dasharray="30 30"/>
<line x1="2816.19" y1="3322.23" x2="2747.1719" y2="3476.2668" stroke="#b0f04e" stroke-width="5.0" />
<line x1="2747.1719" y1="3476.2668" x2="2630.8428" y2="3594.3306" stroke="#b0f04e" stroke-width="5.0" />
<line x1="2630.8428" y1="3594.3306" x2="2705.427" y2="3748.3662" stroke="#b0f04e" stroke-width="5.0" />
<line x1="2705.427" y1="3748.3662" x2="2708.21" y2="3916.2368" stroke="#b0f04e" stroke-width="5.0" />
<line x1="2708.21" y1="3916.2368" x2="2621.9373" y2="4060.1255" stroke="#aff04f" stroke-width="5.0" />
<line x1="2621.9373" y1="4060.1255" x2="2591.881" y2="4223.383" stroke="#aff04f" stroke-width="5.0" />
<line x1="2591.881" y1="4223.383" x2="1603.9207" y2="5222.283" stroke="#aef050" stroke-width="5.0" stroke-dasharray="30 30"/>
<line x1="1603.9207" y1="5222.283" x2="1445.2904" y2="5153.108" stroke="#aef050" stroke-width="5.0" />
<line x1="1445.2904" y1="5153.108" x2="1302.2449" y2="5242.574" stroke="#aef050" stroke-width="5.0" />
<line x1="1302.2449" y1="5242.574" x2="1143.6146" y2="5306.2153" stroke="#aef050" stroke-width="5.0" />
<line x1="1143.6146" y1="5306.2153" x2="979.4183" y2="5366.167" stroke="#adf051" stroke-width="5.0" />
<line x1="979.4183" y1="5366.167" x2="925.985" y2="5534.031" stroke="#adf051" stroke-width="5.0" />
<line x1="925.985" y1="5534.031" x2="1125.8035" y2="5558.9336" stroke="#adf051" stroke-width="5.0" />
<line x1="1125.8035" y1="5558.9336" x2="1293.3392" y2="5509.128" stroke="#adf051" stroke-width="5.0" />
<line x1="1293.3392" y1="5509.128" x2="1143.6146" y2="5360.633" stroke="#adf051" stroke-width="5.0" />
<line x1="1143.6146" y1="5360.633" x2="985.54083" y2="5435.342" stroke="#adf051" stroke-width="5.0" />
<line x1="985.54083" y1="5435.342" x2="1110.7753" y2="5554.322" stroke="#adf051" stroke-width="5.0" />
<line x1="1110.7753" y1="5554.322" x2="1251.5945" y2="5687.1367" stroke="#aaf054" stroke-width="5.0" />
<line x1="1251.5945" y1="5687.1367" x2="1433.6018" y2="5722.185" stroke="#aaf054" stroke-width="5.0" />
<line x1="1433.6018" y1="5722.185" x2="1621.7317" y2="5722.185" stroke="#a8f056" stroke-width="5.0" />
<line x1="1621.7317" y1="5722.185" x2="1681.2877" y2="5523.885" stroke="#a8f056" stroke-width="5.0" />
<line x1="1681.2877" y1="5523.885" x2="1579.9868" y2="5391.07" stroke="#a8f056" stroke-width="5.0" />
<line x1="1579.9868" y1="5391.07" x2="1633.4203" y2="5232.4287" stroke="#a7f057" stroke-width="5.0" />
<line x1="1633.4203" y1="5232.4287" x2="1803.7391" y2="5217.6714" stroke="#a7f057" stroke-width="5.0" />
<line x1="1803.7391" y1="5217.6714" x2="3260.9111" y2="6598.3813" stroke="#a4f05a" stroke-width="5.0" stroke-dasharray="30 30"/>
<line x1="3260.9111" y1="6598.3813" x2="3329.3728" y2="6756.094" stroke="#a4f05a" stroke-width="5.0" />
<line x1="3329.3728" y1="6756.094" x2="3350.5234" y2="6954.3887" stroke="#a4f05a" stroke-width="5.0" />
<line x1="3350.5234" y1="6954.3887" x2="3344.401" y2="7122.2456" stroke="#a4f05a" stroke-width="5.0" />
<line x1="3344.401" y1="7122.2456" x2="3374.457" y2="7295.6353" stroke="#a4f05a" stroke-width="5.0" />
<line x1="3374.457" y1="7295.6353" x2="3541.4365" y2="7291.0244" stroke="#a4f05a" stroke-width="5.0" />
<line x1="3541.4365" y1="7291.0244" x2="3732.349" y2="7270.7334" stroke="#a4f05a" stroke-width="5.0" />
<line x1="3732.349" y1="7270.7334" x2="4377.446" y2="6969.145" stroke="#a3f05b" stroke-width="5.0" stroke-dasharray="30 30"/>
<line x1="4377.446" y1="6969.145" x2="4541.6416" y2="6934.0977" stroke="#a3f05b" stroke-width="5.0" />
<line x1="4541.6416" y1="6934.0977" x2="4705.8384" y2="7003.2695" stroke="#a3f05b" stroke-width="5.0" />
<line x1="4705.8384" y1="7003.2695" x2="4873.374" y2="7018.949" stroke="#a2f05c" stroke-width="5.0" />
<line x1="4873.374" y1="7018.949" x2="5022.542" y2="7092.732" stroke="#a2f05c" stroke-width="5.0" />
<line x1="5022.542" y1="7092.732" x2="3666.671" y2="2481.0122" stroke="#5df0a1" stroke-width="5.0" stroke-dasharray="30 30"/>
<line x1="3666.671" y1="2481.0122" x2="3514.7195" y2="2550.192" stroke="#59f0a5" stroke-width="5.0" />
<line x1="3514.7195" y1="2550.192" x2="3412.8623" y2="2689.4731" stroke="#59f0a5" stroke-width="5.0" />
<line x1="3412.8623" y1="2689.4731" x2="3252.0056" y2="2743.8945" stroke="#59f0a5" stroke-width="5.0" />
<line x1="3252.0056" y1="2743.8945" x2="3063.8757" y2="2832.444" stroke="#59f0a5" stroke-width="5.0" />
<line x1="3063.8757" y1="2832.444" x2="2747.1719" y2="3386.7964" stroke="#59f0a5" stroke-width="5.0" stroke-dasharray="30 30"/>
<line x1="2747.1719" y1="3386.7964" x2="2696.5212" y2="3545.4446" stroke="#58f0a6" stroke-width="5.0" />
<line x1="2696.5212" y1="3545.4446" x2="2535.1082" y2="3480.8787" stroke="#58f0a6" stroke-width="5.0" />
<line x1="2535.1082" y1="3480.8787" x2="2600.7866" y2="3639.5266" stroke="#58f0a6" stroke-width="5.0" />
<line x1="2600.7866" y1="3639.5266" x2="2493.3633" y2="3510.3945" stroke="#56f0a8" stroke-width="5.0" />
<circle cx="2633.5889" cy="3590.478" r="83.05749" stroke="#b0f04e" stroke-width="10.0" fill="#00f" fill-opacity="0.1"/>
<circle cx="1480.782" cy="5392.7793" r="207.64372" stroke="#aef050" stroke-width="10.0" fill="#00f" fill-opacity="0.1"/>
<circle cx="1334.9697" cy="5192.221" r="83.05749" stroke="#aef050" stroke-width="10.0" fill="#00f" fill-opacity="0.1"/>
<circle cx="950.98425" cy="5537.0674" r="166.11497" stroke="#adf051" stroke-width="10.0" fill="#f00" fill-opacity="0.1"/>
<circle cx="1575.6604" cy="5722.325" r="124.58623" stroke="#aaf054" stroke-width="10.0" fill="#ff0" fill-opacity="0.1"/>
<circle cx="4775.3013" cy="7047.356" r="83.05749" stroke="#a3f05b" stroke-width="10.0" fill="#00f" fill-opacity="0.1"/>
<circle cx="2550.1257" cy="3642.979" r="83.05749" stroke="#58f0a6" stroke-width="10.0" fill="#f00" fill-opacity="0.1"/>
<circle cx="3595.344" cy="2566.4233" r="124.58623" stroke="#1cf0e2" stroke-width="10.0" fill="#0f0" fill-opacity="0.1"/>
</svg>
