<?xml version="1.0" standalone="no"?>
<!DOCTYPE svg PUBLIC "-//W3C//DTD SVG 1.1//EN" "http://www.w3.org/Graphics/SVG/1.1/DTD/svg11.dtd">
<svg opacity="20%" width="30cm" height="30cm" version="1.1" viewBox="0 0 10000 10000" xmlns="http://www.w3.org/2000/svg" xmlns:xlink="http://www.w3.org/1999/xlink">
<desc>DrawTrails of automics data, Mon Aug 08 16:33:07 BST 2011</desc>
<filter id="desaturate"  primitiveUnits="objectBoundingBox">
<feImage x="0%" y="0%" width="100%" height="100%" xlink:href="altontowers-zoom15.png"/>
<feColorMatrix type="matrix" values="0.3333 0.3333 0.3333 0 0 0.3333 0.3333 0.3333 0 0 0.3333 0.3333 0.3333 0 0 0      0      0      1 0"/>
<feColorMatrix type="matrix" values="0.3 0 0 0 0.7 0 0.3 0 0 0.7 0 0 0.3 0 0.7 0      0      0      1 0"/>
</filter>
<rect x="-2643.7028285176257" y="-2643.7028285176257" width="15287.405657035251" height="15287.405657035251" filter="url(#desaturate)"/>
<line x1="3562.587" y1="2432.125" x2="3469.6353" y2="2570.4846" stroke="#9cf062" stroke-width="5.0" />
<line x1="3469.6353" y1="2570.4846" x2="3395.0513" y2="2738.3604" stroke="#9cf062" stroke-width="5.0" />
<line x1="3395.0513" y1="2738.3604" x2="3215.8267" y2="2798.3157" stroke="#9bf063" stroke-width="5.0" />
<line x1="3215.8267" y1="2798.3157" x2="3054.9702" y2="2867.4949" stroke="#9bf063" stroke-width="5.0" />
<line x1="3054.9702" y1="2867.4949" x2="2821.7559" y2="3332.376" stroke="#9bf063" stroke-width="5.0" stroke-dasharray="30 30"/>
<line x1="2821.7559" y1="3332.376" x2="2756.0771" y2="3485.4905" stroke="#9bf063" stroke-width="5.0" />
<line x1="2756.0771" y1="3485.4905" x2="2705.427" y2="3654.2844" stroke="#9bf063" stroke-width="5.0" />
<line x1="2705.427" y1="3654.2844" x2="2657.5596" y2="3822.1555" stroke="#9bf063" stroke-width="5.0" />
<line x1="2657.5596" y1="3822.1555" x2="2636.9656" y2="3995.56" stroke="#9bf063" stroke-width="5.0" />
<line x1="2636.9656" y1="3995.56" x2="2606.9092" y2="4168.964" stroke="#9af064" stroke-width="5.0" />
<line x1="2606.9092" y1="4168.964" x2="1594.4585" y2="5202.914" stroke="#99f065" stroke-width="5.0" stroke-dasharray="30 30"/>
<line x1="1594.4585" y1="5202.914" x2="1436.3848" y2="5142.962" stroke="#99f065" stroke-width="5.0" />
<line x1="1436.3848" y1="5142.962" x2="1296.1223" y2="5232.4287" stroke="#98f066" stroke-width="5.0" />
<line x1="1296.1223" y1="5232.4287" x2="1125.8035" y2="5306.2153" stroke="#98f066" stroke-width="5.0" />
<line x1="1125.8035" y1="5306.2153" x2="976.63525" y2="5380.924" stroke="#98f066" stroke-width="5.0" />
<line x1="976.63525" y1="5380.924" x2="1116.898" y2="5489.759" stroke="#98f066" stroke-width="5.0" />
<line x1="1116.898" y1="5489.759" x2="1164.7653" y2="5326.507" stroke="#97f067" stroke-width="5.0" />
<line x1="1164.7653" y1="5326.507" x2="997.786" y2="5360.633" stroke="#97f067" stroke-width="5.0" />
<line x1="997.786" y1="5360.633" x2="1027.2856" y2="5523.885" stroke="#97f067" stroke-width="5.0" />
<line x1="1027.2856" y1="5523.885" x2="1191.4819" y2="5554.322" stroke="#97f067" stroke-width="5.0" />
<line x1="1191.4819" y1="5554.322" x2="1302.2449" y2="5692.6704" stroke="#8ef070" stroke-width="5.0" />
<line x1="1302.2449" y1="5692.6704" x2="1475.3467" y2="5732.33" stroke="#8ef070" stroke-width="5.0" />
<line x1="1475.3467" y1="5732.33" x2="1642.3259" y2="5712.039" stroke="#8df071" stroke-width="5.0" />
<line x1="1642.3259" y1="5712.039" x2="1690.1931" y2="5548.788" stroke="#8cf072" stroke-width="5.0" />
<line x1="1690.1931" y1="5548.788" x2="1579.9868" y2="5425.196" stroke="#8bf073" stroke-width="5.0" />
<line x1="1579.9868" y1="5425.196" x2="1538.2422" y2="5237.0405" stroke="#8bf073" stroke-width="5.0" />
<line x1="1538.2422" y1="5237.0405" x2="1379.6118" y2="5182.6226" stroke="#8bf073" stroke-width="5.0" />
<line x1="1379.6118" y1="5182.6226" x2="1215.4156" y2="5227.8174" stroke="#8bf073" stroke-width="5.0" />
<line x1="1215.4156" y1="5227.8174" x2="1054.0024" y2="5272.0894" stroke="#8af074" stroke-width="5.0" />
<line x1="1054.0024" y1="5272.0894" x2="1075.1531" y2="5103.302" stroke="#81f07d" stroke-width="5.0" />
<line x1="1075.1531" y1="5103.302" x2="1245.4719" y2="5073.787" stroke="#7ff07f" stroke-width="5.0" />
<line x1="1245.4719" y1="5073.787" x2="1412.4512" y2="5069.1753" stroke="#7ff07f" stroke-width="5.0" />
<line x1="1412.4512" y1="5069.1753" x2="1564.9587" y2="5148.496" stroke="#7ff07f" stroke-width="5.0" />
<line x1="1564.9587" y1="5148.496" x2="1716.9099" y2="5217.6714" stroke="#7ff07f" stroke-width="5.0" />
<line x1="1716.9099" y1="5217.6714" x2="3320.4673" y2="6745.949" stroke="#7cf082" stroke-width="5.0" stroke-dasharray="30 30"/>
<line x1="3320.4673" y1="6745.949" x2="3490.7861" y2="6736.726" stroke="#7cf082" stroke-width="5.0" />
<line x1="3490.7861" y1="6736.726" x2="3657.7651" y2="6766.2397" stroke="#7cf082" stroke-width="5.0" />
<line x1="3657.7651" y1="6766.2397" x2="3786.339" y2="6889.828" stroke="#7cf082" stroke-width="5.0" />
<line x1="3786.339" y1="6889.828" x2="4511.586" y2="6973.756" stroke="#7bf083" stroke-width="5.0" stroke-dasharray="30 30"/>
<line x1="4511.586" y1="6973.756" x2="4681.905" y2="7013.415" stroke="#7bf083" stroke-width="5.0" />
<line x1="4681.905" y1="7013.415" x2="4759.828" y2="7166.5156" stroke="#79f085" stroke-width="5.0" />
<line x1="4759.828" y1="7166.5156" x2="4789.328" y2="7329.7603" stroke="#6ef090" stroke-width="5.0" />
<line x1="4789.328" y1="7329.7603" x2="4652.405" y2="7206.174" stroke="#6bf093" stroke-width="5.0" />
<line x1="4652.405" y1="7206.174" x2="4499.897" y2="7137.002" stroke="#69f095" stroke-width="5.0" />
<line x1="4499.897" y1="7137.002" x2="4344.6064" y2="7077.9756" stroke="#66f098" stroke-width="5.0" />
<line x1="4344.6064" y1="7077.9756" x2="4506.02" y2="6983.9014" stroke="#61f09d" stroke-width="5.0" stroke-dasharray="30 30"/>
<line x1="4506.02" y1="6983.9014" x2="4676.3384" y2="6998.658" stroke="#61f09d" stroke-width="5.0" />
<line x1="4676.3384" y1="6998.658" x2="4825.507" y2="7073.364" stroke="#61f09d" stroke-width="5.0" />
<line x1="4825.507" y1="7073.364" x2="5007.514" y2="7107.4883" stroke="#61f09d" stroke-width="5.0" />
<line x1="5007.514" y1="7107.4883" x2="4867.2515" y2="7003.2695" stroke="#60f09e" stroke-width="5.0" />
<line x1="4867.2515" y1="7003.2695" x2="4714.7437" y2="6864.926" stroke="#60f09e" stroke-width="5.0" />
<line x1="4714.7437" y1="6864.926" x2="4550.5474" y2="6830.801" stroke="#60f09e" stroke-width="5.0" />
<line x1="4550.5474" y1="6830.801" x2="4404.162" y2="6929.4863" stroke="#60f09e" stroke-width="5.0" />
<line x1="4404.162" y1="6929.4863" x2="4243.3057" y2="6988.513" stroke="#60f09e" stroke-width="5.0" />
<line x1="4243.3057" y1="6988.513" x2="3505.8142" y2="7335.2935" stroke="#5ff09f" stroke-width="5.0" stroke-dasharray="30 30"/>
<line x1="3505.8142" y1="7335.2935" x2="3332.7124" y2="7360.1953" stroke="#5ff09f" stroke-width="5.0" />
<line x1="3332.7124" y1="7360.1953" x2="3290.4111" y2="7523.4395" stroke="#5ff09f" stroke-width="5.0" />
<line x1="3290.4111" y1="7523.4395" x2="3478.541" y2="7641.491" stroke="#5cf0a2" stroke-width="5.0" />
<line x1="3478.541" y1="7641.491" x2="3654.9824" y2="7557.5635" stroke="#5cf0a2" stroke-width="5.0" />
<line x1="3654.9824" y1="7557.5635" x2="3962.224" y2="7325.1484" stroke="#5cf0a2" stroke-width="5.0" />
<line x1="3962.224" y1="7325.1484" x2="4544.9814" y2="6994.047" stroke="#5bf0a3" stroke-width="5.0" stroke-dasharray="30 30"/>
<line x1="4544.9814" y1="6994.047" x2="4661.3105" y2="6860.3145" stroke="#5bf0a3" stroke-width="5.0" />
<line x1="4661.3105" y1="6860.3145" x2="4801.5728" y2="6770.8516" stroke="#5bf0a3" stroke-width="5.0" />
<line x1="4801.5728" y1="6770.8516" x2="4983.58" y2="6667.5537" stroke="#5bf0a3" stroke-width="5.0" />
<line x1="4983.58" y1="6667.5537" x2="5067.07" y2="3455.9744" stroke="#59f0a5" stroke-width="5.0" stroke-dasharray="30 30"/>
<line x1="5067.07" y1="3455.9744" x2="4956.864" y2="3332.376" stroke="#59f0a5" stroke-width="5.0" />
<line x1="4956.864" y1="3332.376" x2="4816.601" y2="3223.5352" stroke="#59f0a5" stroke-width="5.0" />
<line x1="4816.601" y1="3223.5352" x2="4657.9707" y2="3119.3062" stroke="#59f0a5" stroke-width="5.0" />
<line x1="4657.9707" y1="3119.3062" x2="4517.7085" y2="3005.853" stroke="#59f0a5" stroke-width="5.0" />
<line x1="4517.7085" y1="3005.853" x2="5114.9375" y2="2767.8765" stroke="#57f0a7" stroke-width="5.0" stroke-dasharray="30 30"/>
<line x1="5114.9375" y1="2767.8765" x2="5058.1646" y2="2946.82" stroke="#56f0a8" stroke-width="5.0" />
<line x1="5058.1646" y1="2946.82" x2="4980.7974" y2="3119.3062" stroke="#56f0a8" stroke-width="5.0" />
<line x1="4980.7974" y1="3119.3062" x2="4798.2334" y2="3079.6436" stroke="#56f0a8" stroke-width="5.0" />
<line x1="4798.2334" y1="3079.6436" x2="4661.3105" y2="2832.444" stroke="#55f0a9" stroke-width="5.0" />
<line x1="4661.3105" y1="2832.444" x2="4885.0625" y2="2729.1362" stroke="#4af0b4" stroke-width="5.0" stroke-dasharray="30 30"/>
<line x1="4885.0625" y1="2729.1362" x2="5049.259" y2="2683.939" stroke="#49f0b5" stroke-width="5.0" />
<line x1="5049.259" y1="2683.939" x2="5114.9375" y2="2857.3486" stroke="#49f0b5" stroke-width="5.0" />
<line x1="5114.9375" y1="2857.3486" x2="5075.9756" y2="3020.6108" stroke="#49f0b5" stroke-width="5.0" />
<line x1="5075.9756" y1="3020.6108" x2="5043.136" y2="3183.873" stroke="#49f0b5" stroke-width="5.0" />
<line x1="5043.136" y1="3183.873" x2="4906.2134" y2="3288.1018" stroke="#46f0b8" stroke-width="5.0" />
<line x1="4906.2134" y1="3288.1018" x2="4795.45" y2="3411.7004" stroke="#46f0b8" stroke-width="5.0" />
<line x1="4795.45" y1="3411.7004" x2="4634.037" y2="3357.2803" stroke="#45f0b9" stroke-width="5.0" />
<line x1="4634.037" y1="3357.2803" x2="4484.869" y2="3273.3438" stroke="#45f0b9" stroke-width="5.0" />
<line x1="4484.869" y1="3273.3438" x2="3027.6968" y2="3832.3018" stroke="#44f0ba" stroke-width="5.0" stroke-dasharray="30 30"/>
<line x1="3027.6968" y1="3832.3018" x2="2866.8403" y2="3896.8672" stroke="#43f0bb" stroke-width="5.0" />
<line x1="2866.8403" y1="3896.8672" x2="2696.5212" y2="3901.479" stroke="#43f0bb" stroke-width="5.0" />
<line x1="2696.5212" y1="3901.479" x2="2657.5596" y2="3738.2202" stroke="#43f0bb" stroke-width="5.0" />
<line x1="2657.5596" y1="3738.2202" x2="2624.7205" y2="3574.9607" stroke="#43f0bb" stroke-width="5.0" />
<line x1="2624.7205" y1="3574.9607" x2="2487.2407" y2="3476.2668" stroke="#42f0bc" stroke-width="5.0" />
<line x1="2487.2407" y1="3476.2668" x2="2567.9473" y2="3633.9922" stroke="#42f0bc" stroke-width="5.0" />
<line x1="2567.9473" y1="3633.9922" x2="2415.9963" y2="3728.074" stroke="#2ef0d0" stroke-width="5.0" />
<circle cx="3619.6829" cy="2551.9155" r="124.58623" stroke="#a4f05a" stroke-width="10.0" fill="#0f0" fill-opacity="0.1"/>
<circle cx="1313.9253" cy="5190.782" r="83.05749" stroke="#99f065" stroke-width="10.0" fill="#00f" fill-opacity="0.1"/>
<circle cx="968.8665" cy="5565.165" r="166.11497" stroke="#98f066" stroke-width="10.0" fill="#f00" fill-opacity="0.1"/>
<circle cx="1578.5745" cy="5735.3228" r="124.58623" stroke="#8ef070" stroke-width="10.0" fill="#ff0" fill-opacity="0.1"/>
<circle cx="1502.9604" cy="5372.166" r="207.64372" stroke="#8bf073" stroke-width="10.0" fill="#00f" fill-opacity="0.1"/>
<circle cx="4769.5" cy="7053.2476" r="83.05749" stroke="#7bf083" stroke-width="10.0" fill="#00f" fill-opacity="0.1"/>
<circle cx="4570.4185" cy="6843.0083" r="83.05749" stroke="#5bf0a3" stroke-width="10.0" fill="#0f0" fill-opacity="0.1"/>
<circle cx="4764.65" cy="3147.5234" r="315.61847" stroke="#4cf0b2" stroke-width="10.0" fill="#0f0" fill-opacity="0.1"/>
<circle cx="2513.814" cy="3674.4775" r="83.05749" stroke="#42f0bc" stroke-width="10.0" fill="#f00" fill-opacity="0.1"/>
</svg>
