<?xml version="1.0" standalone="no"?>
<!DOCTYPE svg PUBLIC "-//W3C//DTD SVG 1.1//EN" "http://www.w3.org/Graphics/SVG/1.1/DTD/svg11.dtd">
<svg opacity="20%" width="30cm" height="30cm" version="1.1" viewBox="0 0 10000 10000" xmlns="http://www.w3.org/2000/svg" xmlns:xlink="http://www.w3.org/1999/xlink">
<desc>DrawTrails of automics data, Mon Aug 08 16:33:07 BST 2011</desc>
<filter id="desaturate"  primitiveUnits="objectBoundingBox">
<feImage x="0%" y="0%" width="100%" height="100%" xlink:href="altontowers-zoom15.png"/>
<feColorMatrix type="matrix" values="0.3333 0.3333 0.3333 0 0 0.3333 0.3333 0.3333 0 0 0.3333 0.3333 0.3333 0 0 0      0      0      1 0"/>
<feColorMatrix type="matrix" values="0.3 0 0 0 0.7 0 0.3 0 0 0.7 0 0 0.3 0 0.7 0      0      0      1 0"/>
</filter>
<rect x="-2643.7028285176257" y="-2643.7028285176257" width="15287.405657035251" height="15287.405657035251" filter="url(#desaturate)"/>
<line x1="3639.954" y1="2402.6082" x2="3496.9087" y2="2511.4512" stroke="#9cf062" stroke-width="5.0" />
<line x1="3496.9087" y1="2511.4512" x2="3464.0693" y2="2698.6973" stroke="#9cf062" stroke-width="5.0" />
<line x1="3464.0693" y1="2698.6973" x2="3311.5615" y2="2773.411" stroke="#9bf063" stroke-width="5.0" />
<line x1="3311.5615" y1="2773.411" x2="3144.5825" y2="2817.6858" stroke="#9bf063" stroke-width="5.0" />
<line x1="3144.5825" y1="2817.6858" x2="2744.3887" y2="3401.5542" stroke="#9bf063" stroke-width="5.0" stroke-dasharray="30 30"/>
<line x1="2744.3887" y1="3401.5542" x2="2726.5776" y2="3574.9607" stroke="#9bf063" stroke-width="5.0" />
<line x1="2726.5776" y1="3574.9607" x2="2684.2764" y2="3742.832" stroke="#9bf063" stroke-width="5.0" />
<line x1="2684.2764" y1="3742.832" x2="2657.5596" y2="3911.625" stroke="#9af064" stroke-width="5.0" />
<line x1="2657.5596" y1="3911.625" x2="2606.9092" y2="4084.1067" stroke="#9af064" stroke-width="5.0" />
<line x1="2606.9092" y1="4084.1067" x2="1582.7699" y2="5128.205" stroke="#99f065" stroke-width="5.0" stroke-dasharray="30 30"/>
<line x1="1582.7699" y1="5128.205" x2="1406.3286" y2="5142.962" stroke="#99f065" stroke-width="5.0" />
<line x1="1406.3286" y1="5142.962" x2="1284.4337" y2="5257.3315" stroke="#98f066" stroke-width="5.0" />
<line x1="1284.4337" y1="5257.3315" x2="1125.8035" y2="5321.895" stroke="#98f066" stroke-width="5.0" />
<line x1="1125.8035" y1="5321.895" x2="967.72974" y2="5400.293" stroke="#98f066" stroke-width="5.0" />
<line x1="967.72974" y1="5400.293" x2="1096.3038" y2="5529.419" stroke="#98f066" stroke-width="5.0" />
<line x1="1096.3038" y1="5529.419" x2="1257.1604" y2="5573.691" stroke="#97f067" stroke-width="5.0" />
<line x1="1257.1604" y1="5573.691" x2="1236.5663" y2="5405.827" stroke="#97f067" stroke-width="5.0" />
<line x1="1236.5663" y1="5405.827" x2="1063.4645" y2="5395.6816" stroke="#97f067" stroke-width="5.0" />
<line x1="1063.4645" y1="5395.6816" x2="1134.709" y2="5603.205" stroke="#97f067" stroke-width="5.0" />
<line x1="1134.709" y1="5603.205" x2="1313.9333" y2="5603.205" stroke="#96f068" stroke-width="5.0" />
<line x1="1313.9333" y1="5603.205" x2="1233.2267" y2="5425.196" stroke="#96f068" stroke-width="5.0" />
<line x1="1233.2267" y1="5425.196" x2="1072.3701" y2="5469.468" stroke="#93f06b" stroke-width="5.0" />
<line x1="1072.3701" y1="5469.468" x2="1233.2267" y2="5608.7393" stroke="#8ef070" stroke-width="5.0" />
<line x1="1233.2267" y1="5608.7393" x2="1400.7627" y2="5657.622" stroke="#8ef070" stroke-width="5.0" />
<line x1="1400.7627" y1="5657.622" x2="1573.8645" y2="5707.4277" stroke="#8cf072" stroke-width="5.0" />
<line x1="1573.8645" y1="5707.4277" x2="1690.1931" y2="5583.836" stroke="#8cf072" stroke-width="5.0" />
<line x1="1690.1931" y1="5583.836" x2="1636.76" y2="5425.196" stroke="#8bf073" stroke-width="5.0" />
<line x1="1636.76" y1="5425.196" x2="1576.6473" y2="5261.9434" stroke="#8bf073" stroke-width="5.0" />
<line x1="1576.6473" y1="5261.9434" x2="1430.2623" y2="5163.254" stroke="#8bf073" stroke-width="5.0" />
<line x1="1430.2623" y1="5163.254" x2="1272.1886" y2="5217.6714" stroke="#8bf073" stroke-width="5.0" />
<line x1="1272.1886" y1="5217.6714" x2="1110.7753" y2="5257.3315" stroke="#8af074" stroke-width="5.0" />
<line x1="1110.7753" y1="5257.3315" x2="943.7961" y2="5272.0894" stroke="#87f077" stroke-width="5.0" />
<line x1="943.7961" y1="5272.0894" x2="1027.2856" y2="5128.205" stroke="#81f07d" stroke-width="5.0" />
<line x1="1027.2856" y1="5128.205" x2="1218.7551" y2="5079.321" stroke="#7ff07f" stroke-width="5.0" />
<line x1="1218.7551" y1="5079.321" x2="1394.64" y2="5083.9326" stroke="#7ff07f" stroke-width="5.0" />
<line x1="1394.64" y1="5083.9326" x2="1556.0533" y2="5138.3506" stroke="#7ff07f" stroke-width="5.0" />
<line x1="1556.0533" y1="5138.3506" x2="1702.4384" y2="5217.6714" stroke="#7ef080" stroke-width="5.0" />
<line x1="1702.4384" y1="5217.6714" x2="1872.2007" y2="5232.4287" stroke="#7ef080" stroke-width="5.0" />
<line x1="1872.2007" y1="5232.4287" x2="3350.5234" y2="6726.581" stroke="#7cf082" stroke-width="5.0" stroke-dasharray="30 30"/>
<line x1="3350.5234" y1="6726.581" x2="3520.8423" y2="6751.4834" stroke="#7cf082" stroke-width="5.0" />
<line x1="3520.8423" y1="6751.4834" x2="3675.5764" y2="6820.6553" stroke="#7cf082" stroke-width="5.0" />
<line x1="3675.5764" y1="6820.6553" x2="3806.9333" y2="6934.0977" stroke="#7cf082" stroke-width="5.0" />
<line x1="3806.9333" y1="6934.0977" x2="4469.841" y2="6944.243" stroke="#7bf083" stroke-width="5.0" stroke-dasharray="30 30"/>
<line x1="4469.841" y1="6944.243" x2="4634.037" y2="6875.071" stroke="#7bf083" stroke-width="5.0" />
<line x1="4634.037" y1="6875.071" x2="4735.8945" y2="7008.8037" stroke="#7bf083" stroke-width="5.0" />
<line x1="4735.8945" y1="7008.8037" x2="4774.8564" y2="7186.8057" stroke="#79f085" stroke-width="5.0" />
<line x1="4774.8564" y1="7186.8057" x2="4783.7617" y2="7354.662" stroke="#73f08b" stroke-width="5.0" />
<line x1="4783.7617" y1="7354.662" x2="4622.3486" y2="7196.9507" stroke="#6af094" stroke-width="5.0" stroke-dasharray="30 30"/>
<line x1="4622.3486" y1="7196.9507" x2="4473.1807" y2="7122.2456" stroke="#68f096" stroke-width="5.0" />
<line x1="4473.1807" y1="7122.2456" x2="4320.673" y2="7042.9287" stroke="#65f099" stroke-width="5.0" />
<line x1="4320.673" y1="7042.9287" x2="4419.1904" y2="6973.756" stroke="#61f09d" stroke-width="5.0" stroke-dasharray="30 30"/>
<line x1="4419.1904" y1="6973.756" x2="4580.604" y2="6919.341" stroke="#61f09d" stroke-width="5.0" />
<line x1="4580.604" y1="6919.341" x2="4744.8003" y2="6988.513" stroke="#61f09d" stroke-width="5.0" />
<line x1="4744.8003" y1="6988.513" x2="4861.129" y2="7112.1" stroke="#61f09d" stroke-width="5.0" />
<line x1="4861.129" y1="7112.1" x2="5055.3813" y2="7112.1" stroke="#60f09e" stroke-width="5.0" />
<line x1="5055.3813" y1="7112.1" x2="5043.136" y2="6909.1953" stroke="#60f09e" stroke-width="5.0" />
<line x1="5043.136" y1="6909.1953" x2="4887.8457" y2="6969.145" stroke="#60f09e" stroke-width="5.0" />
<line x1="4887.8457" y1="6969.145" x2="4720.866" y2="6919.341" stroke="#60f09e" stroke-width="5.0" />
<line x1="4720.866" y1="6919.341" x2="4521.048" y2="6969.145" stroke="#60f09e" stroke-width="5.0" />
<line x1="4521.048" y1="6969.145" x2="4350.729" y2="6988.513" stroke="#60f09e" stroke-width="5.0" />
<line x1="4350.729" y1="6988.513" x2="4186.5327" y2="7057.685" stroke="#60f09e" stroke-width="5.0" />
<line x1="4186.5327" y1="7057.685" x2="3374.457" y2="7414.61" stroke="#5ff09f" stroke-width="5.0" stroke-dasharray="30 30"/>
<line x1="3374.457" y1="7414.61" x2="3586.5208" y2="7300.2466" stroke="#5cf0a2" stroke-width="5.0" />
<line x1="3586.5208" y1="7300.2466" x2="4676.3384" y2="6780.9966" stroke="#5bf0a3" stroke-width="5.0" stroke-dasharray="30 30"/>
<line x1="4676.3384" y1="6780.9966" x2="4825.507" y2="6676.777" stroke="#5bf0a3" stroke-width="5.0" />
<line x1="4825.507" y1="6676.777" x2="5010.297" y2="6652.7974" stroke="#5bf0a3" stroke-width="5.0" />
<line x1="5010.297" y1="6652.7974" x2="4873.374" y2="3332.376" stroke="#59f0a5" stroke-width="5.0" stroke-dasharray="30 30"/>
<line x1="4873.374" y1="3332.376" x2="4759.828" y2="3194.019" stroke="#59f0a5" stroke-width="5.0" />
<line x1="4759.828" y1="3194.019" x2="4556.6704" y2="3055.6616" stroke="#59f0a5" stroke-width="5.0" />
<line x1="4556.6704" y1="3055.6616" x2="4440.3413" y2="2932.062" stroke="#58f0a6" stroke-width="5.0" />
<line x1="4440.3413" y1="2932.062" x2="5070.4097" y2="2683.939" stroke="#57f0a7" stroke-width="5.0" stroke-dasharray="30 30"/>
<line x1="5070.4097" y1="2683.939" x2="5171.71" y2="2827.832" stroke="#56f0a8" stroke-width="5.0" />
<line x1="5171.71" y1="2827.832" x2="5070.4097" y2="2976.3364" stroke="#56f0a8" stroke-width="5.0" />
<line x1="5070.4097" y1="2976.3364" x2="5001.3916" y2="3134.0645" stroke="#56f0a8" stroke-width="5.0" />
<line x1="5001.3916" y1="3134.0645" x2="4947.958" y2="3302.8599" stroke="#56f0a8" stroke-width="5.0" />
<line x1="4947.958" y1="3302.8599" x2="4822.167" y2="3183.873" stroke="#55f0a9" stroke-width="5.0" />
<line x1="4822.167" y1="3183.873" x2="4705.8384" y2="3064.8855" stroke="#55f0a9" stroke-width="5.0" />
<line x1="4705.8384" y1="3064.8855" x2="4544.9814" y2="2986.483" stroke="#55f0a9" stroke-width="5.0" />
<line x1="4544.9814" y1="2986.483" x2="4577.821" y2="2822.2976" stroke="#55f0a9" stroke-width="5.0" />
<line x1="4577.821" y1="2822.2976" x2="4980.7974" y2="2792.7812" stroke="#55f0a9" stroke-width="5.0" stroke-dasharray="30 30"/>
<line x1="4980.7974" y1="2792.7812" x2="5106.0317" y2="2907.1577" stroke="#49f0b5" stroke-width="5.0" />
<line x1="5106.0317" y1="2907.1577" x2="5049.259" y2="3064.8855" stroke="#49f0b5" stroke-width="5.0" />
<line x1="5049.259" y1="3064.8855" x2="5004.731" y2="3228.147" stroke="#48f0b6" stroke-width="5.0" />
<line x1="5004.731" y1="3228.147" x2="4876.1567" y2="3372.0383" stroke="#46f0b8" stroke-width="5.0" />
<line x1="4876.1567" y1="3372.0383" x2="4711.961" y2="3347.134" stroke="#45f0b9" stroke-width="5.0" />
<line x1="4711.961" y1="3347.134" x2="4562.7925" y2="3263.1978" stroke="#45f0b9" stroke-width="5.0" />
<line x1="4562.7925" y1="3263.1978" x2="4416.407" y2="3179.2607" stroke="#45f0b9" stroke-width="5.0" />
<line x1="4416.407" y1="3179.2607" x2="2965.358" y2="3857.2056" stroke="#43f0bb" stroke-width="5.0" stroke-dasharray="30 30"/>
<line x1="2965.358" y1="3857.2056" x2="2801.1619" y2="3891.333" stroke="#43f0bb" stroke-width="5.0" />
<line x1="2801.1619" y1="3891.333" x2="2687.616" y2="3763.124" stroke="#43f0bb" stroke-width="5.0" />
<line x1="2687.616" y1="3763.124" x2="2657.5596" y2="3599.8645" stroke="#43f0bb" stroke-width="5.0" />
<line x1="2657.5596" y1="3599.8645" x2="2520.08" y2="3461.5088" stroke="#42f0bc" stroke-width="5.0" />
<line x1="2520.08" y1="3461.5088" x2="2582.9756" y2="3619.2344" stroke="#41f0bd" stroke-width="5.0" />
<line x1="2582.9756" y1="3619.2344" x2="2484.4578" y2="3485.4905" stroke="#3df0c1" stroke-width="5.0" />
<line x1="2484.4578" y1="3485.4905" x2="2484.4578" y2="3654.2844" stroke="#36f0c8" stroke-width="5.0" />
<line x1="2484.4578" y1="3654.2844" x2="2341.412" y2="3570.3489" stroke="#29f0d5" stroke-width="5.0" />
<line x1="2341.412" y1="3570.3489" x2="2197.81" y2="3485.4905" stroke="#27f0d7" stroke-width="5.0" />
<line x1="2197.81" y1="3485.4905" x2="2296.328" y2="3351.7458" stroke="#20f0de" stroke-width="5.0" />
<line x1="2296.328" y1="3351.7458" x2="2412.6567" y2="3470.7324" stroke="#20f0de" stroke-width="5.0" />
<line x1="2412.6567" y1="3470.7324" x2="2496.703" y2="3313.0059" stroke="#1ef0e0" stroke-width="5.0" />
<line x1="2496.703" y1="3313.0059" x2="2633.6257" y2="3173.7266" stroke="#1ef0e0" stroke-width="5.0" />
<line x1="2633.6257" y1="3173.7266" x2="2744.3887" y2="3040.9036" stroke="#1ef0e0" stroke-width="5.0" />
<line x1="2744.3887" y1="3040.9036" x2="3078.9038" y2="2585.243" stroke="#1df0e1" stroke-width="5.0" stroke-dasharray="30 30"/>
<circle cx="3595.7827" cy="2554.2998" r="124.58623" stroke="#a3f05b" stroke-width="10.0" fill="#0f0" fill-opacity="0.1"/>
<circle cx="1358.4315" cy="5160.513" r="83.05749" stroke="#99f065" stroke-width="10.0" fill="#00f" fill-opacity="0.1"/>
<circle cx="947.47363" cy="5531.2407" r="166.11497" stroke="#98f066" stroke-width="10.0" fill="#f00" fill-opacity="0.1"/>
<circle cx="1473.7163" cy="5390.364" r="207.64372" stroke="#97f067" stroke-width="10.0" fill="#00f" fill-opacity="0.1"/>
<circle cx="1556.6477" cy="5740.5195" r="124.58623" stroke="#8ef070" stroke-width="10.0" fill="#ff0" fill-opacity="0.1"/>
<circle cx="4769.3125" cy="7039.1187" r="83.05749" stroke="#7bf083" stroke-width="10.0" fill="#00f" fill-opacity="0.1"/>
<circle cx="4755.4326" cy="7034.877" r="83.05749" stroke="#61f09d" stroke-width="10.0" fill="#00f" fill-opacity="0.1"/>
<circle cx="3370.4087" cy="7516.155" r="83.05749" stroke="#5ff09f" stroke-width="10.0" fill="#f00" fill-opacity="0.1"/>
<circle cx="4776.3184" cy="3466.7031" r="83.05749" stroke="#45f0b9" stroke-width="10.0" fill="#00f" fill-opacity="0.1"/>
<circle cx="3155.3813" cy="2442.1477" r="124.58623" stroke="#18f0e6" stroke-width="10.0" fill="#0f0" fill-opacity="0.1"/>
</svg>
