<?xml version="1.0" standalone="no"?>
<!DOCTYPE svg PUBLIC "-//W3C//DTD SVG 1.1//EN" "http://www.w3.org/Graphics/SVG/1.1/DTD/svg11.dtd">
<svg opacity="20%" width="30cm" height="30cm" version="1.1" viewBox="0 0 10000 10000" xmlns="http://www.w3.org/2000/svg" xmlns:xlink="http://www.w3.org/1999/xlink">
<desc>DrawTrails of automics data, Mon Aug 08 16:33:07 BST 2011</desc>
<filter id="desaturate"  primitiveUnits="objectBoundingBox">
<feImage x="0%" y="0%" width="100%" height="100%" xlink:href="altontowers-zoom15.png"/>
<feColorMatrix type="matrix" values="0.3333 0.3333 0.3333 0 0 0.3333 0.3333 0.3333 0 0 0.3333 0.3333 0.3333 0 0 0      0      0      1 0"/>
<feColorMatrix type="matrix" values="0.3 0 0 0 0.7 0 0.3 0 0 0.7 0 0 0.3 0 0.7 0      0      0      1 0"/>
</filter>
<rect x="-2643.7028285176257" y="-2643.7028285176257" width="15287.405657035251" height="15287.405657035251" filter="url(#desaturate)"/>
<circle cx="1335.0841" cy="5173.3994" r="83.05749" stroke="#00f" stroke-width="0.0" fill="#00f"  fill-opacity="15%" stroke-opacity="20%"/>
<circle cx="1400.7627" cy="5232.4287" r="83.05749" stroke="#0f0" stroke-width="0.0" fill="#0f0"  fill-opacity="15%" stroke-opacity="20%"/>
<circle cx="964.9468" cy="5544.176" r="166.11497" stroke="#f00" stroke-width="0.0" fill="#f00"  fill-opacity="15%" stroke-opacity="20%"/>
<circle cx="3451.824" cy="6810.5103" r="124.58623" stroke="#0f0" stroke-width="0.0" fill="#0f0"  fill-opacity="15%" stroke-opacity="20%"/>
<circle cx="3386.1455" cy="7513.294" r="83.05749" stroke="#f00" stroke-width="0.0" fill="#f00"  fill-opacity="15%" stroke-opacity="20%"/>
<circle cx="2935.3018" cy="7374.9517" r="83.05749" stroke="#00f" stroke-width="0.0" fill="#00f"  fill-opacity="15%" stroke-opacity="20%"/>
<circle cx="4553.887" cy="6845.557" r="83.05749" stroke="#0f0" stroke-width="0.0" fill="#0f0"  fill-opacity="15%" stroke-opacity="20%"/>
<circle cx="4765.3945" cy="7033.7056" r="83.05749" stroke="#00f" stroke-width="0.0" fill="#00f"  fill-opacity="15%" stroke-opacity="20%"/>
<circle cx="4646.282" cy="7350.05" r="41.528744" stroke="#ff0" stroke-width="0.0" fill="#ff0"  fill-opacity="15%" stroke-opacity="20%"/>
<circle cx="4891.1855" cy="7513.294" r="124.58623" stroke="#f00" stroke-width="0.0" fill="#f00"  fill-opacity="15%" stroke-opacity="20%"/>
<circle cx="4768.734" cy="3485.4905" r="83.05749" stroke="#00f" stroke-width="0.0" fill="#00f"  fill-opacity="15%" stroke-opacity="20%"/>
<circle cx="4696.9326" cy="3723.4622" r="124.58623" stroke="#00f" stroke-width="0.0" fill="#00f"  fill-opacity="15%" stroke-opacity="20%"/>
<circle cx="5097.126" cy="3267.8096" r="124.58623" stroke="#0f0" stroke-width="0.0" fill="#0f0"  fill-opacity="15%" stroke-opacity="20%"/>
<circle cx="4858.3457" cy="3376.6501" r="124.58623" stroke="#0f0" stroke-width="0.0" fill="#0f0"  fill-opacity="15%" stroke-opacity="20%"/>
<circle cx="4771.5166" cy="3149.7449" r="315.61847" stroke="#0f0" stroke-width="0.0" fill="#0f0"  fill-opacity="15%" stroke-opacity="20%"/>
<circle cx="5084.881" cy="3263.1978" r="58.14024" stroke="#0f0" stroke-width="0.0" fill="#0f0"  fill-opacity="15%" stroke-opacity="20%"/>
<circle cx="5255.2" cy="2753.1187" r="166.11497" stroke="#0f0" stroke-width="0.0" fill="#0f0"  fill-opacity="15%" stroke-opacity="20%"/>
<circle cx="7850.0576" cy="3406.166" r="83.05749" stroke="#00f" stroke-width="0.0" fill="#00f"  fill-opacity="15%" stroke-opacity="20%"/>
<circle cx="7196.055" cy="2694.0854" r="124.58623" stroke="#f00" stroke-width="0.0" fill="#f00"  fill-opacity="15%" stroke-opacity="20%"/>
<circle cx="7739.2944" cy="3470.7324" r="166.11497" stroke="#0f0" stroke-width="0.0" fill="#0f0"  fill-opacity="15%" stroke-opacity="20%"/>
<circle cx="8673.821" cy="5529.419" r="166.11497" stroke="#0f0" stroke-width="0.0" fill="#0f0"  fill-opacity="15%" stroke-opacity="20%"/>
<circle cx="8548.587" cy="5356.021" r="83.05749" stroke="#0f0" stroke-width="0.0" fill="#0f0"  fill-opacity="15%" stroke-opacity="20%"/>
<circle cx="8754.528" cy="5860.5327" r="166.11497" stroke="#0f0" stroke-width="0.0" fill="#0f0"  fill-opacity="15%" stroke-opacity="20%"/>
<circle cx="9244.334" cy="5964.755" r="124.58623" stroke="#00f" stroke-width="0.0" fill="#00f"  fill-opacity="15%" stroke-opacity="20%"/>
<circle cx="9232.6455" cy="6657.408" r="166.11497" stroke="#f00" stroke-width="0.0" fill="#f00"  fill-opacity="15%" stroke-opacity="20%"/>
<circle cx="9038.393" cy="6107.714" r="207.64372" stroke="#0f0" stroke-width="0.0" fill="#0f0"  fill-opacity="15%" stroke-opacity="20%"/>
<circle cx="3595.4263" cy="3183.873" r="207.64372" stroke="#00f" stroke-width="0.0" fill="#00f"  fill-opacity="15%" stroke-opacity="20%"/>
<circle cx="2263.4885" cy="3441.2163" r="83.05749" stroke="#ff0" stroke-width="0.0" fill="#ff0"  fill-opacity="15%" stroke-opacity="20%"/>
<circle cx="6414.0356" cy="2763.2646" r="166.11497" stroke="#f00" stroke-width="0.0" fill="#f00"  fill-opacity="15%" stroke-opacity="20%"/>
<circle cx="6712.372" cy="2679.3271" r="83.05749" stroke="#ff0" stroke-width="0.0" fill="#ff0"  fill-opacity="15%" stroke-opacity="20%"/>
<circle cx="1579.9868" cy="5732.33" r="124.58623" stroke="#ff0" stroke-width="0.0" fill="#ff0"  fill-opacity="15%" stroke-opacity="20%"/>
<circle cx="1498.2428" cy="5392.509" r="207.64372" stroke="#00f" stroke-width="0.0" fill="#00f"  fill-opacity="15%" stroke-opacity="20%"/>
<circle cx="2517.1519" cy="3306.4573" r="124.58623" stroke="#0f0" stroke-width="0.0" fill="#0f0"  fill-opacity="15%" stroke-opacity="20%"/>
<circle cx="3596.0352" cy="2551.7507" r="124.58623" stroke="#0f0" stroke-width="0.0" fill="#0f0"  fill-opacity="15%" stroke-opacity="20%"/>
<circle cx="3145.0913" cy="2460.009" r="124.58623" stroke="#0f0" stroke-width="0.0" fill="#0f0"  fill-opacity="15%" stroke-opacity="20%"/>
<circle cx="2636.9656" cy="3579.5725" r="83.05749" stroke="#00f" stroke-width="0.0" fill="#00f"  fill-opacity="15%" stroke-opacity="20%"/>
<circle cx="2900.8867" cy="3955.6956" r="83.05749" stroke="#0f0" stroke-width="0.0" fill="#0f0"  fill-opacity="15%" stroke-opacity="20%"/>
<circle cx="5578.027" cy="2689.4731" r="83.05749" stroke="#00f" stroke-width="0.0" fill="#00f"  fill-opacity="15%" stroke-opacity="20%"/>
<circle cx="8330.958" cy="4945.582" r="83.05749" stroke="#f00" stroke-width="0.0" fill="#f00"  fill-opacity="15%" stroke-opacity="20%"/>
<circle cx="2532.3252" cy="3654.2844" r="83.05749" stroke="#f00" stroke-width="0.0" fill="#f00"  fill-opacity="15%" stroke-opacity="20%"/>
<line x1="3511.38" y1="2481.0122" x2="3622.143" y2="2635.0522" stroke="#85f079" stroke-width="5.0" />
<line x1="3622.143" y1="2635.0522" x2="3774.0942" y2="2708.8438" stroke="#85f079" stroke-width="5.0" />
<line x1="3774.0942" y1="2708.8438" x2="3920.479" y2="2802.9275" stroke="#85f079" stroke-width="5.0" />
<line x1="3920.479" y1="2802.9275" x2="4538.859" y2="3233.6814" stroke="#84f07a" stroke-width="5.0" stroke-dasharray="30 30"/>
<line x1="4538.859" y1="3233.6814" x2="4655.188" y2="3367.4263" stroke="#84f07a" stroke-width="5.0" />
<line x1="4655.188" y1="3367.4263" x2="4798.2334" y2="3461.5088" stroke="#84f07a" stroke-width="5.0" />
<line x1="4798.2334" y1="3461.5088" x2="4723.6494" y2="3644.1384" stroke="#83f07b" stroke-width="5.0" />
<line x1="4723.6494" y1="3644.1384" x2="4628.471" y2="3782.494" stroke="#81f07d" stroke-width="5.0" />
<line x1="4628.471" y1="3782.494" x2="4526.614" y2="3926.3828" stroke="#81f07d" stroke-width="5.0" />
<line x1="4526.614" y1="3926.3828" x2="4595.632" y2="3822.1555" stroke="#7df081" stroke-width="5.0" stroke-dasharray="30 30"/>
<line x1="4595.632" y1="3822.1555" x2="4640.1597" y2="3658.8965" stroke="#7df081" stroke-width="5.0" />
<line x1="4640.1597" y1="3658.8965" x2="4643.4995" y2="3826.7673" stroke="#7cf082" stroke-width="5.0" />
<line x1="4643.4995" y1="3826.7673" x2="4550.5474" y2="3995.56" stroke="#73f08b" stroke-width="5.0" />
<line x1="4550.5474" y1="3995.56" x2="4586.7266" y2="3826.7673" stroke="#73f08b" stroke-width="5.0" />
<line x1="4586.7266" y1="3826.7673" x2="4646.282" y2="3669.0425" stroke="#73f08b" stroke-width="5.0" />
<line x1="4646.282" y1="3669.0425" x2="4762.6113" y2="3525.1526" stroke="#73f08b" stroke-width="5.0" />
<line x1="4762.6113" y1="3525.1526" x2="4825.507" y2="3367.4263" stroke="#73f08b" stroke-width="5.0" />
<line x1="4825.507" y1="3367.4263" x2="4911.7793" y2="3213.389" stroke="#72f08c" stroke-width="5.0" />
<line x1="4911.7793" y1="3213.389" x2="5004.731" y2="3060.2734" stroke="#72f08c" stroke-width="5.0" />
<line x1="5004.731" y1="3060.2734" x2="5091.004" y2="2911.7695" stroke="#72f08c" stroke-width="5.0" />
<line x1="5091.004" y1="2911.7695" x2="5177.8325" y2="2767.8765" stroke="#72f08c" stroke-width="5.0" />
<line x1="5177.8325" y1="2767.8765" x2="5279.134" y2="2635.0522" stroke="#72f08c" stroke-width="5.0" />
<line x1="5279.134" y1="2635.0522" x2="5446.6694" y2="2624.9058" stroke="#72f08c" stroke-width="5.0" />
<line x1="5446.6694" y1="2624.9058" x2="5604.743" y2="2679.3271" stroke="#70f08e" stroke-width="5.0" />
<line x1="5604.743" y1="2679.3271" x2="5768.9395" y2="2713.4556" stroke="#70f08e" stroke-width="5.0" />
<line x1="5768.9395" y1="2713.4556" x2="5939.2583" y2="2674.7148" stroke="#70f08e" stroke-width="5.0" />
<line x1="5939.2583" y1="2674.7148" x2="6231.472" y2="2402.6082" stroke="#6ff08f" stroke-width="5.0" stroke-dasharray="30 30"/>
<line x1="6231.472" y1="2402.6082" x2="6891.5967" y2="2511.4512" stroke="#6ef090" stroke-width="5.0" stroke-dasharray="30 30"/>
<line x1="6891.5967" y1="2511.4512" x2="7025.737" y2="2614.7595" stroke="#6ef090" stroke-width="5.0" />
<line x1="7025.737" y1="2614.7595" x2="7226.1113" y2="2476.4001" stroke="#4af0b4" stroke-width="5.0" stroke-dasharray="30 30"/>
<line x1="7226.1113" y1="2476.4001" x2="7360.2515" y2="2575.0964" stroke="#4af0b4" stroke-width="5.0" />
<line x1="7360.2515" y1="2575.0964" x2="7419.807" y2="2738.3604" stroke="#4af0b4" stroke-width="5.0" />
<line x1="7419.807" y1="2738.3604" x2="7560.627" y2="2842.5903" stroke="#49f0b5" stroke-width="5.0" />
<line x1="7560.627" y1="2842.5903" x2="7769.3506" y2="3663.5083" stroke="#48f0b6" stroke-width="5.0" stroke-dasharray="30 30"/>
<line x1="7769.3506" y1="3663.5083" x2="7820.001" y2="3822.1555" stroke="#48f0b6" stroke-width="5.0" />
<line x1="7820.001" y1="3822.1555" x2="8315.93" y2="5167.8657" stroke="#47f0b7" stroke-width="5.0" stroke-dasharray="30 30"/>
<line x1="8315.93" y1="5167.8657" x2="8321.495" y2="4994.466" stroke="#46f0b8" stroke-width="5.0" />
<line x1="8321.495" y1="4994.466" x2="8261.939" y2="4801.6963" stroke="#46f0b8" stroke-width="5.0" />
<line x1="8261.939" y1="4801.6963" x2="8411.107" y2="4688.248" stroke="#46f0b8" stroke-width="5.0" />
<line x1="8411.107" y1="4688.248" x2="8584.766" y2="4722.375" stroke="#45f0b9" stroke-width="5.0" />
<line x1="8584.766" y1="4722.375" x2="8345.429" y2="5000.0" stroke="#44f0ba" stroke-width="5.0" />
<line x1="8345.429" y1="5000.0" x2="8509.625" y2="5073.787" stroke="#42f0bc" stroke-width="5.0" />
<line x1="8509.625" y1="5073.787" x2="8683.283" y2="5064.5635" stroke="#41f0bd" stroke-width="5.0" />
<line x1="8683.283" y1="5064.5635" x2="8808.518" y2="5202.914" stroke="#3ef0c0" stroke-width="5.0" />
<line x1="8808.518" y1="5202.914" x2="8880.319" y2="5356.021" stroke="#3ef0c0" stroke-width="5.0" />
<line x1="8880.319" y1="5356.021" x2="8853.046" y2="5188.1567" stroke="#3ef0c0" stroke-width="5.0" />
<line x1="8853.046" y1="5188.1567" x2="8766.773" y2="5044.272" stroke="#3cf0c2" stroke-width="5.0" />
<line x1="8766.773" y1="5044.272" x2="8730.595" y2="4881.018" stroke="#3cf0c2" stroke-width="5.0" />
<line x1="8730.595" y1="4881.018" x2="8458.975" y2="5272.0894" stroke="#3bf0c3" stroke-width="5.0" stroke-dasharray="30 30"/>
<line x1="8458.975" y1="5272.0894" x2="8721.688" y2="5331.118" stroke="#3bf0c3" stroke-width="5.0" />
<line x1="8721.688" y1="5331.118" x2="8930.969" y2="5261.9434" stroke="#3bf0c3" stroke-width="5.0" />
<line x1="8930.969" y1="5261.9434" x2="9097.948" y2="5286.846" stroke="#3bf0c3" stroke-width="5.0" />
<line x1="9097.948" y1="5286.846" x2="8880.319" y2="5583.836" stroke="#3bf0c3" stroke-width="5.0" stroke-dasharray="30 30"/>
<line x1="8880.319" y1="5583.836" x2="8823.546" y2="5420.584" stroke="#3bf0c3" stroke-width="5.0" />
<line x1="8823.546" y1="5420.584" x2="8635.416" y2="5316.3613" stroke="#3bf0c3" stroke-width="5.0" />
<line x1="8635.416" y1="5316.3613" x2="8688.85" y2="5479.614" stroke="#3bf0c3" stroke-width="5.0" />
<line x1="8688.85" y1="5479.614" x2="8545.804" y2="5391.07" stroke="#39f0c5" stroke-width="5.0" />
<line x1="8545.804" y1="5391.07" x2="8381.607" y2="5296.992" stroke="#38f0c6" stroke-width="5.0" />
<line x1="8381.607" y1="5296.992" x2="8232.439" y2="5213.0596" stroke="#38f0c6" stroke-width="5.0" />
<line x1="8232.439" y1="5213.0596" x2="8079.932" y2="5142.962" stroke="#37f0c7" stroke-width="5.0" />
<line x1="8079.932" y1="5142.962" x2="7945.792" y2="5044.272" stroke="#35f0c9" stroke-width="5.0" />
<line x1="7945.792" y1="5044.272" x2="7772.134" y2="3683.8003" stroke="#34f0ca" stroke-width="5.0" stroke-dasharray="30 30"/>
<line x1="7772.134" y1="3683.8003" x2="7683.078" y2="3530.6865" stroke="#34f0ca" stroke-width="5.0" />
<line x1="7683.078" y1="3530.6865" x2="7748.757" y2="3376.6501" stroke="#34f0ca" stroke-width="5.0" />
<line x1="7748.757" y1="3376.6501" x2="7664.71" y2="2991.0947" stroke="#33f0cb" stroke-width="5.0" />
<line x1="7664.71" y1="2991.0947" x2="7267.8564" y2="2555.726" stroke="#33f0cb" stroke-width="5.0" stroke-dasharray="30 30"/>
<line x1="7267.8564" y1="2555.726" x2="7100.3203" y2="2595.3892" stroke="#33f0cb" stroke-width="5.0" />
<line x1="7100.3203" y1="2595.3892" x2="6951.1523" y2="2520.6753" stroke="#33f0cb" stroke-width="5.0" />
<line x1="6951.1523" y1="2520.6753" x2="6861.54" y2="2372.169" stroke="#33f0cb" stroke-width="5.0" />
<line x1="6861.54" y1="2372.169" x2="5942.041" y2="2644.2761" stroke="#32f0cc" stroke-width="5.0" stroke-dasharray="30 30"/>
<line x1="5942.041" y1="2644.2761" x2="5766.1567" y2="2649.8105" stroke="#32f0cc" stroke-width="5.0" />
<line x1="5766.1567" y1="2649.8105" x2="5595.8374" y2="2639.664" stroke="#31f0cd" stroke-width="5.0" />
<line x1="5595.8374" y1="2639.664" x2="5425.5186" y2="2659.0344" stroke="#31f0cd" stroke-width="5.0" />
<line x1="5425.5186" y1="2659.0344" x2="5288.039" y2="2758.6526" stroke="#31f0cd" stroke-width="5.0" />
<line x1="5288.039" y1="2758.6526" x2="5192.861" y2="2901.6233" stroke="#31f0cd" stroke-width="5.0" />
<line x1="5192.861" y1="2901.6233" x2="5061.504" y2="3030.757" stroke="#31f0cd" stroke-width="5.0" />
<line x1="5061.504" y1="3030.757" x2="4939.0522" y2="3149.7449" stroke="#31f0cd" stroke-width="5.0" />
<line x1="4939.0522" y1="3149.7449" x2="4867.2515" y2="3313.0059" stroke="#31f0cd" stroke-width="5.0" />
<line x1="4867.2515" y1="3313.0059" x2="4690.81" y2="3273.3438" stroke="#30f0ce" stroke-width="5.0" />
<line x1="4690.81" y1="3273.3438" x2="4526.614" y2="3218.9233" stroke="#30f0ce" stroke-width="5.0" />
<line x1="4526.614" y1="3218.9233" x2="4401.3794" y2="3104.548" stroke="#30f0ce" stroke-width="5.0" />
<line x1="4401.3794" y1="3104.548" x2="3613.2373" y2="2932.062" stroke="#2ff0cf" stroke-width="5.0" stroke-dasharray="30 30"/>
<line x1="3613.2373" y1="2932.062" x2="3427.8906" y2="2926.5278" stroke="#2ff0cf" stroke-width="5.0" />
<line x1="3427.8906" y1="2926.5278" x2="3257.5718" y2="2980.9485" stroke="#2ff0cf" stroke-width="5.0" />
<line x1="3257.5718" y1="2980.9485" x2="2717.1155" y2="3466.1206" stroke="#2ff0cf" stroke-width="5.0" stroke-dasharray="30 30"/>
<line x1="2717.1155" y1="3466.1206" x2="2535.1082" y2="3455.9744" stroke="#2ef0d0" stroke-width="5.0" />
<line x1="2535.1082" y1="3455.9744" x2="2439.93" y2="3317.6177" stroke="#2af0d4" stroke-width="5.0" />
<line x1="2439.93" y1="3317.6177" x2="2299.1108" y2="3228.147" stroke="#28f0d6" stroke-width="5.0" />
<line x1="2299.1108" y1="3228.147" x2="2210.0552" y2="3382.1846" stroke="#21f0dd" stroke-width="5.0" />
<line x1="2210.0552" y1="3382.1846" x2="2370.9119" y2="3461.5088" stroke="#1bf0e3" stroke-width="5.0" />
<line x1="2370.9119" y1="3461.5088" x2="2493.3633" y2="3347.134" stroke="#17f0e7" stroke-width="5.0" />
<line x1="2493.3633" y1="3347.134" x2="2574.07" y2="3505.7825" stroke="#14f0ea" stroke-width="5.0" />
<line x1="2574.07" y1="3505.7825" x2="2729.3606" y2="3441.2163" stroke="#14f0ea" stroke-width="5.0" />
<line x1="2729.3606" y1="3441.2163" x2="2812.8503" y2="3297.3254" stroke="#14f0ea" stroke-width="5.0" />
<line x1="2812.8503" y1="3297.3254" x2="2887.4343" y2="3149.7449" stroke="#13f0eb" stroke-width="5.0" />
<line x1="2887.4343" y1="3149.7449" x2="3257.5718" y2="2733.748" stroke="#10f0ee" stroke-width="5.0" stroke-dasharray="30 30"/>
<line x1="3257.5718" y1="2733.748" x2="3421.7678" y2="2704.2314" stroke="#0ff0ef" stroke-width="5.0" />
<line x1="3421.7678" y1="2704.2314" x2="3481.8804" y2="2545.5798" stroke="#0ff0ef" stroke-width="5.0" />
<g transform="translate(4710.3804 3403.7268) rotate(33.33339916211733) scale(10.0)">
<path fill-opacity="0%" stroke="#00f" stroke-width="0.5" d="M -5 -10 L 0 0 5 -10 -5 -10"/>
</g>
<g transform="translate(4710.3804 3403.7268) rotate(-56.66660083788267)">
<text x="150.0" y="50.0" font-size="100.0" fill="#888"  font-family="sans-serif">mutiny bay wet </text>
</g>
<g transform="translate(4782.6606 3499.6401) rotate(112.21458714630776) scale(10.0)">
<path fill-opacity="0%" stroke="#00f" stroke-width="0.5" d="M -4 8 L 0 0 4 8 -4 8"/>
</g>
<line x1="4776.313" y1="3515.1836" x2="4772.532" y2="3524.4414" stroke="#00f" stroke-width="80.0"  stroke-opacity="100%"/>
<line x1="4776.313" y1="3515.1836" x2="4772.532" y2="3524.4414" stroke="#00f" stroke-width="80.0"  stroke-opacity="100%"/>
<line x1="4776.313" y1="3515.1836" x2="4776.313" y2="3515.1836" stroke="#00f" stroke-width="80.0"  stroke-opacity="30%"/>
<line x1="4776.313" y1="3515.1836" x2="4776.313" y2="3515.1836" stroke="#00f" stroke-width="10.0"  stroke-opacity="100%"/>
<g transform="translate(4723.574 3644.2476) rotate(124.52507708613669) scale(10.0)">
<path fill-opacity="0%" stroke="#00f" stroke-width="0.5" d="M -5 -10 L 0 0 5 -10 -5 -10"/>
</g>
<g transform="translate(4723.574 3644.2476) rotate(34.52507708613669)">
<text x="150.0" y="50.0" font-size="100.0" fill="#888"  font-family="sans-serif">wet people </text>
</g>
<g transform="translate(4696.138 3684.13) rotate(124.52507708613669) scale(10.0)">
<path fill-opacity="0%" stroke="#00f" stroke-width="0.5" d="M -4 8 L 0 0 4 8 -4 8"/>
</g>
<line x1="4695.343" y1="3685.286" x2="4689.6753" y2="3693.525" stroke="#00f" stroke-width="80.0"  stroke-opacity="100%"/>
<line x1="4695.343" y1="3685.286" x2="4689.6753" y2="3693.525" stroke="#00f" stroke-width="80.0"  stroke-opacity="100%"/>
<line x1="4695.343" y1="3685.286" x2="4695.343" y2="3685.286" stroke="#00f" stroke-width="80.0"  stroke-opacity="30%"/>
<line x1="4695.343" y1="3685.286" x2="4695.343" y2="3685.286" stroke="#00f" stroke-width="10.0"  stroke-opacity="100%"/>
<g transform="translate(4692.878 3688.8696) rotate(124.52507708613669) scale(10.0)">
<path fill-opacity="0%" stroke="#a0a" stroke-width="0.5" d="M 0 -9 L 0 -4"/>
</g>
<g transform="translate(4681.2993 3705.7004) rotate(124.52507708613669) scale(10.0)">
<path fill-opacity="0%" stroke="#a0a" stroke-width="0.5" d="M -4 8 L 0 0 4 8 -4 8"/>
</g>
<g transform="translate(4672.162 3718.983) rotate(124.52507708613669) scale(10.0)">
<path fill-opacity="0%" stroke="#a0a" stroke-width="0.5" d="M 0 -9 L 0 -4"/>
</g>
<line x1="4644.6797" y1="3758.9321" x2="4639.012" y2="3767.171" stroke="#0f0" stroke-width="80.0"  stroke-opacity="100%"/>
<line x1="4644.6797" y1="3758.9321" x2="4639.012" y2="3767.171" stroke="#0f0" stroke-width="80.0"  stroke-opacity="100%"/>
<line x1="4644.6797" y1="3758.9321" x2="4644.6797" y2="3758.9321" stroke="#0f0" stroke-width="80.0"  stroke-opacity="30%"/>
<line x1="4644.6797" y1="3758.9321" x2="4644.6797" y2="3758.9321" stroke="#0f0" stroke-width="10.0"  stroke-opacity="100%"/>
<g transform="translate(4622.195 3791.36) rotate(125.29424718177573) scale(10.0)">
<path fill-opacity="0%" stroke="#a0a" stroke-width="0.5" d="M 0 -9 L 0 -4"/>
</g>
<g transform="translate(4530.982 3919.7864) rotate(-56.48788115321993) scale(10.0)">
<path fill-opacity="0%" stroke="#a0a" stroke-width="0.5" d="M 0 -9 L 0 -4"/>
</g>
<g transform="translate(4566.218 3866.5747) rotate(-56.48788115321993) scale(10.0)">
<path fill-opacity="0%" stroke="#a0a" stroke-width="0.5" d="M 0 -9 L 0 -4"/>
</g>
<line x1="4641.0938" y1="3705.8428" x2="4641.2925" y2="3715.8408" stroke="#a0a" stroke-width="80.0"  stroke-opacity="100%"/>
<line x1="4641.0938" y1="3705.8428" x2="4641.2925" y2="3715.8408" stroke="#a0a" stroke-width="80.0"  stroke-opacity="100%"/>
<line x1="4641.0938" y1="3705.8428" x2="4641.0938" y2="3705.8428" stroke="#a0a" stroke-width="80.0"  stroke-opacity="30%"/>
<line x1="4641.0938" y1="3705.8428" x2="4641.0938" y2="3705.8428" stroke="#a0a" stroke-width="10.0"  stroke-opacity="100%"/>
<g transform="translate(4599.5156 3906.6384) rotate(118.84100708887456) scale(10.0)">
<path fill-opacity="0%" stroke="#a0a" stroke-width="0.5" d="M 0 -9 L 0 -4"/>
</g>
<line x1="4587.005" y1="3929.3567" x2="4582.181" y2="3938.1162" stroke="#a0a" stroke-width="80.0"  stroke-opacity="100%"/>
<line x1="4587.005" y1="3929.3567" x2="4582.181" y2="3938.1162" stroke="#a0a" stroke-width="80.0"  stroke-opacity="100%"/>
<line x1="4587.005" y1="3929.3567" x2="4587.005" y2="3929.3567" stroke="#a0a" stroke-width="80.0"  stroke-opacity="30%"/>
<line x1="4587.005" y1="3929.3567" x2="4587.005" y2="3929.3567" stroke="#a0a" stroke-width="10.0"  stroke-opacity="100%"/>
<line x1="4583.834" y1="3935.1147" x2="4579.01" y2="3943.8743" stroke="#0f0" stroke-width="80.0"  stroke-opacity="100%"/>
<line x1="4583.834" y1="3935.1147" x2="4579.01" y2="3943.8743" stroke="#0f0" stroke-width="80.0"  stroke-opacity="100%"/>
<line x1="4583.834" y1="3935.1147" x2="4583.834" y2="3935.1147" stroke="#0f0" stroke-width="80.0"  stroke-opacity="30%"/>
<line x1="4583.834" y1="3935.1147" x2="4583.834" y2="3935.1147" stroke="#0f0" stroke-width="10.0"  stroke-opacity="100%"/>
<line x1="4582.1855" y1="3938.1084" x2="4577.3613" y2="3946.8682" stroke="#0f0" stroke-width="80.0"  stroke-opacity="100%"/>
<line x1="4582.1855" y1="3938.1084" x2="4577.3613" y2="3946.8682" stroke="#0f0" stroke-width="80.0"  stroke-opacity="100%"/>
<line x1="4582.1855" y1="3938.1084" x2="4582.1855" y2="3938.1084" stroke="#0f0" stroke-width="80.0"  stroke-opacity="30%"/>
<line x1="4582.1855" y1="3938.1084" x2="4582.1855" y2="3938.1084" stroke="#0f0" stroke-width="10.0"  stroke-opacity="100%"/>
<line x1="4580.756" y1="3940.7043" x2="4575.932" y2="3949.464" stroke="#0f0" stroke-width="80.0"  stroke-opacity="100%"/>
<line x1="4580.756" y1="3940.7043" x2="4575.932" y2="3949.464" stroke="#0f0" stroke-width="80.0"  stroke-opacity="100%"/>
<line x1="4580.756" y1="3940.7043" x2="4580.756" y2="3940.7043" stroke="#0f0" stroke-width="80.0"  stroke-opacity="30%"/>
<line x1="4580.756" y1="3940.7043" x2="4580.756" y2="3940.7043" stroke="#0f0" stroke-width="10.0"  stroke-opacity="100%"/>
<g transform="translate(4579.24 3943.4565) rotate(118.84100708887456) scale(10.0)">
<path fill-opacity="0%" stroke="#a0a" stroke-width="0.5" d="M 0 -9 L 0 -4"/>
</g>
<line x1="4570.853" y1="3958.687" x2="4566.0293" y2="3967.4468" stroke="#a0a" stroke-width="80.0"  stroke-opacity="100%"/>
<line x1="4570.853" y1="3958.687" x2="4566.0293" y2="3967.4468" stroke="#a0a" stroke-width="80.0"  stroke-opacity="100%"/>
<line x1="4570.853" y1="3958.687" x2="4570.853" y2="3958.687" stroke="#a0a" stroke-width="80.0"  stroke-opacity="30%"/>
<line x1="4570.853" y1="3958.687" x2="4570.853" y2="3958.687" stroke="#a0a" stroke-width="10.0"  stroke-opacity="100%"/>
<g transform="translate(4570.3037 3959.6846) rotate(118.84100708887456) scale(10.0)">
<path fill-opacity="0%" stroke="#a0a" stroke-width="0.5" d="M 0 -9 L 0 -4"/>
</g>
<line x1="4564.0425" y1="3971.0542" x2="4559.2188" y2="3979.8135" stroke="#f00" stroke-width="80.0"  stroke-opacity="100%"/>
<line x1="4558.9263" y1="3980.3447" x2="4554.1025" y2="3989.1045" stroke="#f00" stroke-width="80.0"  stroke-opacity="100%"/>
<line x1="4564.0425" y1="3971.0542" x2="4558.9263" y2="3980.3447" stroke="#f00" stroke-width="80.0"  stroke-opacity="30%"/>
<line x1="4564.0425" y1="3971.0542" x2="4558.9263" y2="3980.3447" stroke="#f00" stroke-width="10.0"  stroke-opacity="100%"/>
<g transform="translate(4560.4155 3977.6401) rotate(118.84100708887456) scale(10.0)">
<path fill-opacity="0%" stroke="#a0a" stroke-width="0.5" d="M 0 -9 L 0 -4"/>
</g>
<g transform="translate(4794.3457 3445.5698) rotate(-68.25970329629106) scale(10.0)">
<path fill-opacity="0%" stroke="#a0a" stroke-width="0.5" d="M 0 -9 L 0 -4"/>
</g>
<g transform="translate(5457.6665 2628.692) rotate(18.997484213697547) scale(10.0)">
<path fill-opacity="0%" stroke="#00f" stroke-width="0.5" d="M -5 -10 L 0 0 5 -10 -5 -10"/>
</g>
<g transform="translate(5457.6665 2628.692) rotate(-71.00251578630245)">
<text x="150.0" y="50.0" font-size="100.0" fill="#888"  font-family="sans-serif">waterfall</text>
</g>
<g transform="translate(5540.457 2657.1948) rotate(18.997484213697547) scale(10.0)">
<path fill-opacity="0%" stroke="#00f" stroke-width="0.5" d="M -4 8 L 0 0 4 8 -4 8"/>
</g>
<line x1="5542.5596" y1="2657.9187" x2="5552.0146" y2="2661.174" stroke="#00f" stroke-width="80.0"  stroke-opacity="100%"/>
<line x1="5565.3657" y1="2665.7703" x2="5574.8213" y2="2669.0256" stroke="#00f" stroke-width="80.0"  stroke-opacity="100%"/>
<line x1="5542.5596" y1="2657.9187" x2="5565.3657" y2="2665.7703" stroke="#00f" stroke-width="80.0"  stroke-opacity="30%"/>
<line x1="5542.5596" y1="2657.9187" x2="5565.3657" y2="2665.7703" stroke="#00f" stroke-width="10.0"  stroke-opacity="100%"/>
<line x1="5475.866" y1="2634.9575" x2="5485.322" y2="2638.213" stroke="#a0a" stroke-width="80.0"  stroke-opacity="100%"/>
<line x1="5475.866" y1="2634.9575" x2="5485.322" y2="2638.213" stroke="#a0a" stroke-width="80.0"  stroke-opacity="100%"/>
<line x1="5475.866" y1="2634.9575" x2="5475.866" y2="2634.9575" stroke="#a0a" stroke-width="80.0"  stroke-opacity="30%"/>
<line x1="5475.866" y1="2634.9575" x2="5475.866" y2="2634.9575" stroke="#a0a" stroke-width="10.0"  stroke-opacity="100%"/>
<g transform="translate(5589.575 2674.1052) rotate(18.997484213697547) scale(10.0)">
<path fill-opacity="0%" stroke="#a0a" stroke-width="0.5" d="M 0 -9 L 0 -4"/>
</g>
<line x1="5600.1177" y1="2677.7346" x2="5609.5728" y2="2680.99" stroke="#f00" stroke-width="80.0"  stroke-opacity="100%"/>
<line x1="5600.1177" y1="2677.7346" x2="5604.743" y2="2679.3271" stroke="#f00" stroke-width="80.0"  stroke-opacity="30%"/>
<line x1="5600.1177" y1="2677.7346" x2="5604.743" y2="2679.3271" stroke="#f00" stroke-width="10.0"  stroke-opacity="100%"/>
<line x1="5681.5957" y1="2695.3008" x2="5691.386" y2="2697.336" stroke="#f00" stroke-width="80.0"  stroke-opacity="100%"/>
<line x1="5604.743" y1="2679.3271" x2="5681.5957" y2="2695.3008" stroke="#f00" stroke-width="80.0"  stroke-opacity="30%"/>
<line x1="5604.743" y1="2679.3271" x2="5681.5957" y2="2695.3008" stroke="#f00" stroke-width="10.0"  stroke-opacity="100%"/>
<g transform="translate(5697.452 2698.5967) rotate(11.741827203284068) scale(10.0)">
<path fill-opacity="0%" stroke="#a0a" stroke-width="0.5" d="M 0 -9 L 0 -4"/>
</g>
<g transform="translate(5698.8916 2698.896) rotate(11.741827203284068) scale(10.0)">
<path fill-opacity="0%" stroke="#a0a" stroke-width="0.5" d="M 0 -9 L 0 -4"/>
</g>
<g transform="translate(5921.4824 2678.7583) rotate(-12.814382590458639) scale(10.0)">
<path fill-opacity="0%" stroke="#a0a" stroke-width="0.5" d="M 0 -9 L 0 -4"/>
</g>
<g transform="translate(7062.3154 2589.5017) rotate(-34.6251961921228) scale(10.0)">
<path fill-opacity="0%" stroke="#a0a" stroke-width="0.5" d="M -4 8 L 0 0 4 8 -4 8"/>
</g>
<g transform="translate(7026.1377 2614.4824) rotate(-34.6251961921228) scale(10.0)">
<path fill-opacity="0%" stroke="#f00" stroke-width="0.5" d="M -5 -10 L 0 0 5 -10 -5 -10"/>
</g>
<g transform="translate(7026.1377 2614.4824) rotate(-124.6251961921228)">
<text x="150.0" y="50.0" font-size="100.0" fill="#888"  font-family="sans-serif">mine train</text>
</g>
<g transform="translate(7028.831 2612.6226) rotate(-34.6251961921228) scale(10.0)">
<path fill-opacity="0%" stroke="#f00" stroke-width="0.5" d="M -4 8 L 0 0 4 8 -4 8"/>
</g>
<line x1="7029.001" y1="2612.5059" x2="7037.2295" y2="2606.8237" stroke="#f00" stroke-width="80.0"  stroke-opacity="100%"/>
<line x1="7031.89" y1="2610.5105" x2="7040.119" y2="2604.8286" stroke="#f00" stroke-width="80.0"  stroke-opacity="100%"/>
<line x1="7029.001" y1="2612.5059" x2="7031.89" y2="2610.5105" stroke="#f00" stroke-width="80.0"  stroke-opacity="30%"/>
<line x1="7029.001" y1="2612.5059" x2="7031.89" y2="2610.5105" stroke="#f00" stroke-width="10.0"  stroke-opacity="100%"/>
<line x1="7047.6143" y1="2599.653" x2="7055.843" y2="2593.971" stroke="#a0a" stroke-width="80.0"  stroke-opacity="100%"/>
<line x1="7047.6143" y1="2599.653" x2="7055.843" y2="2593.971" stroke="#a0a" stroke-width="80.0"  stroke-opacity="100%"/>
<line x1="7047.6143" y1="2599.653" x2="7047.6143" y2="2599.653" stroke="#a0a" stroke-width="80.0"  stroke-opacity="30%"/>
<line x1="7047.6143" y1="2599.653" x2="7047.6143" y2="2599.653" stroke="#a0a" stroke-width="10.0"  stroke-opacity="100%"/>
<line x1="7051.295" y1="2597.1116" x2="7059.524" y2="2591.4294" stroke="#a0a" stroke-width="80.0"  stroke-opacity="100%"/>
<line x1="7051.295" y1="2597.1116" x2="7059.524" y2="2591.4294" stroke="#a0a" stroke-width="80.0"  stroke-opacity="100%"/>
<line x1="7051.295" y1="2597.1116" x2="7051.295" y2="2597.1116" stroke="#a0a" stroke-width="80.0"  stroke-opacity="30%"/>
<line x1="7051.295" y1="2597.1116" x2="7051.295" y2="2597.1116" stroke="#a0a" stroke-width="10.0"  stroke-opacity="100%"/>
<line x1="7075.3193" y1="2580.5227" x2="7083.548" y2="2574.8408" stroke="#a0a" stroke-width="80.0"  stroke-opacity="100%"/>
<line x1="7075.3193" y1="2580.5227" x2="7083.548" y2="2574.8408" stroke="#a0a" stroke-width="80.0"  stroke-opacity="100%"/>
<line x1="7075.3193" y1="2580.5227" x2="7075.3193" y2="2580.5227" stroke="#a0a" stroke-width="80.0"  stroke-opacity="30%"/>
<line x1="7075.3193" y1="2580.5227" x2="7075.3193" y2="2580.5227" stroke="#a0a" stroke-width="10.0"  stroke-opacity="100%"/>
<line x1="7106.661" y1="2558.8809" x2="7114.89" y2="2553.1987" stroke="#a0a" stroke-width="80.0"  stroke-opacity="100%"/>
<line x1="7106.661" y1="2558.8809" x2="7114.89" y2="2553.1987" stroke="#a0a" stroke-width="80.0"  stroke-opacity="100%"/>
<line x1="7106.661" y1="2558.8809" x2="7106.661" y2="2558.8809" stroke="#a0a" stroke-width="80.0"  stroke-opacity="30%"/>
<line x1="7106.661" y1="2558.8809" x2="7106.661" y2="2558.8809" stroke="#a0a" stroke-width="10.0"  stroke-opacity="100%"/>
<line x1="7112.0254" y1="2555.177" x2="7120.254" y2="2549.4949" stroke="#a0a" stroke-width="80.0"  stroke-opacity="100%"/>
<line x1="7112.0254" y1="2555.177" x2="7120.254" y2="2549.4949" stroke="#a0a" stroke-width="80.0"  stroke-opacity="100%"/>
<line x1="7112.0254" y1="2555.177" x2="7112.0254" y2="2555.177" stroke="#a0a" stroke-width="80.0"  stroke-opacity="30%"/>
<line x1="7112.0254" y1="2555.177" x2="7112.0254" y2="2555.177" stroke="#a0a" stroke-width="10.0"  stroke-opacity="100%"/>
<g transform="translate(7636.521 3141.0852) rotate(75.73445211496957) scale(10.0)">
<path fill-opacity="0%" stroke="#00f" stroke-width="0.5" d="M -5 -10 L 0 0 5 -10 -5 -10"/>
</g>
<g transform="translate(7636.521 3141.0852) rotate(-14.26554788503043)">
<text x="150.0" y="50.0" font-size="100.0" fill="#888"  font-family="sans-serif">duel zombie </text>
</g>
<g transform="translate(8429.823 4691.9263) rotate(11.117877443399768) scale(10.0)">
<path fill-opacity="0%" stroke="#00f" stroke-width="0.5" d="M -4 8 L 0 0 4 8 -4 8"/>
</g>
<line x1="8433.577" y1="4692.664" x2="8443.39" y2="4694.5923" stroke="#00f" stroke-width="80.0"  stroke-opacity="100%"/>
<line x1="8485.528" y1="4702.873" x2="8495.341" y2="4704.8013" stroke="#00f" stroke-width="80.0"  stroke-opacity="100%"/>
<line x1="8433.577" y1="4692.664" x2="8485.528" y2="4702.873" stroke="#00f" stroke-width="80.0"  stroke-opacity="30%"/>
<line x1="8433.577" y1="4692.664" x2="8485.528" y2="4702.873" stroke="#00f" stroke-width="10.0"  stroke-opacity="100%"/>
<g transform="translate(8318.565 5085.7583) rotate(-88.16154675703103) scale(10.0)">
<path fill-opacity="0%" stroke="#f00" stroke-width="0.5" d="M -5 -10 L 0 0 5 -10 -5 -10"/>
</g>
<g transform="translate(8318.565 5085.7583) rotate(-178.16154675703103)">
<text x="150.0" y="50.0" font-size="100.0" fill="#888"  font-family="sans-serif">Nemesis q1</text>
</g>
<g transform="translate(8499.465 4705.612) rotate(11.117877443399768) scale(10.0)">
<path fill-opacity="0%" stroke="#a0a" stroke-width="0.5" d="M 0 -9 L 0 -4"/>
</g>
<g transform="translate(8505.829 4706.863) rotate(11.117877443399768) scale(10.0)">
<path fill-opacity="0%" stroke="#a0a" stroke-width="0.5" d="M -4 8 L 0 0 4 8 -4 8"/>
</g>
<line x1="8524.671" y1="4710.5654" x2="8534.483" y2="4712.4937" stroke="#f00" stroke-width="80.0"  stroke-opacity="100%"/>
<line x1="8565.694" y1="4718.627" x2="8575.506" y2="4720.555" stroke="#f00" stroke-width="80.0"  stroke-opacity="100%"/>
<line x1="8524.671" y1="4710.5654" x2="8565.694" y2="4718.627" stroke="#f00" stroke-width="80.0"  stroke-opacity="30%"/>
<line x1="8524.671" y1="4710.5654" x2="8565.694" y2="4718.627" stroke="#f00" stroke-width="10.0"  stroke-opacity="100%"/>
<g transform="translate(8567.347 4718.9517) rotate(11.117877443399768) scale(10.0)">
<path fill-opacity="0%" stroke="#a0a" stroke-width="0.5" d="M 0 -9 L 0 -4"/>
</g>
<g transform="translate(8578.82 4721.2065) rotate(11.117877443399768) scale(10.0)">
<path fill-opacity="0%" stroke="#a0a" stroke-width="0.5" d="M 0 -9 L 0 -4"/>
</g>
<line x1="8581.426" y1="4721.7183" x2="8591.238" y2="4723.647" stroke="#f00" stroke-width="80.0"  stroke-opacity="100%"/>
<line x1="8581.426" y1="4721.7183" x2="8591.238" y2="4723.647" stroke="#f00" stroke-width="80.0"  stroke-opacity="100%"/>
<line x1="8581.426" y1="4721.7183" x2="8581.426" y2="4721.7183" stroke="#f00" stroke-width="80.0"  stroke-opacity="30%"/>
<line x1="8581.426" y1="4721.7183" x2="8581.426" y2="4721.7183" stroke="#f00" stroke-width="10.0"  stroke-opacity="100%"/>
<line x1="8500.475" y1="4820.1504" x2="8493.945" y2="4827.724" stroke="#f00" stroke-width="80.0"  stroke-opacity="100%"/>
<line x1="8430.094" y1="4901.7915" x2="8423.563" y2="4909.3657" stroke="#f00" stroke-width="80.0"  stroke-opacity="100%"/>
<line x1="8500.475" y1="4820.1504" x2="8430.094" y2="4901.7915" stroke="#f00" stroke-width="80.0"  stroke-opacity="30%"/>
<line x1="8500.475" y1="4820.1504" x2="8430.094" y2="4901.7915" stroke="#f00" stroke-width="10.0"  stroke-opacity="100%"/>
<g transform="translate(8497.965 4823.0615) rotate(130.76414341890933) scale(10.0)">
<path fill-opacity="0%" stroke="#a0a" stroke-width="0.5" d="M 0 -9 L 0 -4"/>
</g>
<g transform="translate(8392.086 4945.8784) rotate(130.76414341890933) scale(10.0)">
<path fill-opacity="0%" stroke="#a0a" stroke-width="0.5" d="M 0 -9 L 0 -4"/>
</g>
<g transform="translate(8379.634 4960.323) rotate(130.76414341890933) scale(10.0)">
<path fill-opacity="0%" stroke="#a0a" stroke-width="0.5" d="M 0 -9 L 0 -4"/>
</g>
<g transform="translate(8386.131 5018.2905) rotate(24.198328630777237) scale(10.0)">
<path fill-opacity="0%" stroke="#a0a" stroke-width="0.5" d="M -4 8 L 0 0 4 8 -4 8"/>
</g>
<line x1="8425.921" y1="5036.1714" x2="8435.042" y2="5040.2705" stroke="#a0a" stroke-width="80.0"  stroke-opacity="100%"/>
<line x1="8425.921" y1="5036.1714" x2="8435.042" y2="5040.2705" stroke="#a0a" stroke-width="80.0"  stroke-opacity="100%"/>
<line x1="8425.921" y1="5036.1714" x2="8425.921" y2="5036.1714" stroke="#a0a" stroke-width="80.0"  stroke-opacity="30%"/>
<line x1="8425.921" y1="5036.1714" x2="8425.921" y2="5036.1714" stroke="#a0a" stroke-width="10.0"  stroke-opacity="100%"/>
<g transform="translate(8488.223 5064.169) rotate(24.198328630777237) scale(10.0)">
<path fill-opacity="0%" stroke="#a0a" stroke-width="0.5" d="M 0 -9 L 0 -4"/>
</g>
<line x1="8517.371" y1="5073.3755" x2="8527.356" y2="5072.845" stroke="#a0a" stroke-width="80.0"  stroke-opacity="100%"/>
<line x1="8517.371" y1="5073.3755" x2="8527.356" y2="5072.845" stroke="#a0a" stroke-width="80.0"  stroke-opacity="100%"/>
<line x1="8517.371" y1="5073.3755" x2="8517.371" y2="5073.3755" stroke="#a0a" stroke-width="80.0"  stroke-opacity="30%"/>
<line x1="8517.371" y1="5073.3755" x2="8517.371" y2="5073.3755" stroke="#a0a" stroke-width="10.0"  stroke-opacity="100%"/>
<line x1="8547.787" y1="5071.76" x2="8557.773" y2="5071.2295" stroke="#a0a" stroke-width="80.0"  stroke-opacity="100%"/>
<line x1="8547.787" y1="5071.76" x2="8557.773" y2="5071.2295" stroke="#a0a" stroke-width="80.0"  stroke-opacity="100%"/>
<line x1="8547.787" y1="5071.76" x2="8547.787" y2="5071.76" stroke="#a0a" stroke-width="80.0"  stroke-opacity="30%"/>
<line x1="8547.787" y1="5071.76" x2="8547.787" y2="5071.76" stroke="#a0a" stroke-width="10.0"  stroke-opacity="100%"/>
<line x1="8603.338" y1="5068.8096" x2="8613.324" y2="5068.2793" stroke="#a0a" stroke-width="80.0"  stroke-opacity="100%"/>
<line x1="8603.338" y1="5068.8096" x2="8613.324" y2="5068.2793" stroke="#a0a" stroke-width="80.0"  stroke-opacity="100%"/>
<line x1="8603.338" y1="5068.8096" x2="8603.338" y2="5068.8096" stroke="#a0a" stroke-width="80.0"  stroke-opacity="30%"/>
<line x1="8603.338" y1="5068.8096" x2="8603.338" y2="5068.8096" stroke="#a0a" stroke-width="10.0"  stroke-opacity="100%"/>
<g transform="translate(8777.159 5168.2715) rotate(47.84866132603633) scale(10.0)">
<path fill-opacity="0%" stroke="#a0a" stroke-width="0.5" d="M 0 -9 L 0 -4"/>
</g>
<g transform="translate(8610.047 5430.8354) rotate(-148.2429438522848) scale(10.0)">
<path fill-opacity="0%" stroke="#a0a" stroke-width="0.5" d="M 0 -9 L 0 -4"/>
</g>
<g transform="translate(8601.262 5425.398) rotate(-148.2429438522848) scale(10.0)">
<path fill-opacity="0%" stroke="#a0a" stroke-width="0.5" d="M -4 8 L 0 0 4 8 -4 8"/>
</g>
<line x1="8275.542" y1="5237.312" x2="8266.827" y2="5232.408" stroke="#f00" stroke-width="80.0"  stroke-opacity="100%"/>
<line x1="8275.542" y1="5237.312" x2="8266.827" y2="5232.408" stroke="#f00" stroke-width="80.0"  stroke-opacity="100%"/>
<line x1="8275.542" y1="5237.312" x2="8275.542" y2="5237.312" stroke="#f00" stroke-width="80.0"  stroke-opacity="30%"/>
<line x1="8275.542" y1="5237.312" x2="8275.542" y2="5237.312" stroke="#f00" stroke-width="10.0"  stroke-opacity="100%"/>
<g transform="translate(3059.9595 3158.347) rotate(138.08541024678004) scale(10.0)">
<path fill-opacity="0%" stroke="#a0a" stroke-width="0.5" d="M 0 -9 L 0 -4"/>
</g>
<g transform="translate(2699.9316 3465.1626) rotate(-176.80929171672963) scale(10.0)">
<path fill-opacity="0%" stroke="#00f" stroke-width="0.5" d="M -5 -10 L 0 0 5 -10 -5 -10"/>
</g>
<g transform="translate(2699.9316 3465.1626) rotate(-266.8092917167296)">
<text x="150.0" y="50.0" font-size="100.0" fill="#888"  font-family="sans-serif">sonic </text>
</g>
<g transform="translate(2485.3655 3383.6655) rotate(-124.52484103753555) scale(10.0)">
<path fill-opacity="0%" stroke="#00f" stroke-width="0.5" d="M -4 8 L 0 0 4 8 -4 8"/>
</g>
<line x1="2485.0088" y1="3383.147" x2="2479.341" y2="3374.9082" stroke="#00f" stroke-width="80.0"  stroke-opacity="100%"/>
<line x1="2480.4426" y1="3376.5093" x2="2474.775" y2="3368.2705" stroke="#00f" stroke-width="80.0"  stroke-opacity="100%"/>
<line x1="2485.0088" y1="3383.147" x2="2480.4426" y2="3376.5093" stroke="#00f" stroke-width="80.0"  stroke-opacity="30%"/>
<line x1="2485.0088" y1="3383.147" x2="2480.4426" y2="3376.5093" stroke="#00f" stroke-width="10.0"  stroke-opacity="100%"/>
<line x1="2658.7793" y1="3462.8687" x2="2648.795" y2="3462.312" stroke="#a0a" stroke-width="80.0"  stroke-opacity="100%"/>
<line x1="2658.7793" y1="3462.8687" x2="2648.795" y2="3462.312" stroke="#a0a" stroke-width="80.0"  stroke-opacity="100%"/>
<line x1="2658.7793" y1="3462.8687" x2="2658.7793" y2="3462.8687" stroke="#a0a" stroke-width="80.0"  stroke-opacity="30%"/>
<line x1="2658.7793" y1="3462.8687" x2="2658.7793" y2="3462.8687" stroke="#a0a" stroke-width="10.0"  stroke-opacity="100%"/>
<line x1="2525.3884" y1="3441.8455" x2="2519.7207" y2="3433.6064" stroke="#f00" stroke-width="80.0"  stroke-opacity="100%"/>
<line x1="2525.3884" y1="3441.8455" x2="2519.7207" y2="3433.6064" stroke="#f00" stroke-width="80.0"  stroke-opacity="100%"/>
<line x1="2525.3884" y1="3441.8455" x2="2525.3884" y2="3441.8455" stroke="#f00" stroke-width="80.0"  stroke-opacity="30%"/>
<line x1="2525.3884" y1="3441.8455" x2="2525.3884" y2="3441.8455" stroke="#f00" stroke-width="10.0"  stroke-opacity="100%"/>
<g transform="translate(2525.245 3441.637) rotate(-124.52484103753555) scale(10.0)">
<path fill-opacity="0%" stroke="#a0a" stroke-width="0.5" d="M 0 -9 L 0 -4"/>
</g>
<line x1="2511.0103" y1="3420.9443" x2="2505.3425" y2="3412.7053" stroke="#f00" stroke-width="80.0"  stroke-opacity="100%"/>
<line x1="2495.1729" y1="3397.922" x2="2489.5051" y2="3389.683" stroke="#f00" stroke-width="80.0"  stroke-opacity="100%"/>
<line x1="2511.0103" y1="3420.9443" x2="2495.1729" y2="3397.922" stroke="#f00" stroke-width="80.0"  stroke-opacity="30%"/>
<line x1="2511.0103" y1="3420.9443" x2="2495.1729" y2="3397.922" stroke="#f00" stroke-width="10.0"  stroke-opacity="100%"/>
<g transform="translate(2500.278 3405.3433) rotate(-124.52484103753555) scale(10.0)">
<path fill-opacity="0%" stroke="#a0a" stroke-width="0.5" d="M 0 -9 L 0 -4"/>
</g>
<g transform="translate(2494.7517 3397.31) rotate(-124.52484103753555) scale(10.0)">
<path fill-opacity="0%" stroke="#a0a" stroke-width="0.5" d="M 0 -9 L 0 -4"/>
</g>
<g transform="translate(2487.8064 3387.2139) rotate(-124.52484103753555) scale(10.0)">
<path fill-opacity="0%" stroke="#a0a" stroke-width="0.5" d="M 0 -9 L 0 -4"/>
</g>
<g transform="translate(2460.5806 3347.6367) rotate(-124.52484103753555) scale(10.0)">
<path fill-opacity="0%" stroke="#a0a" stroke-width="0.5" d="M 0 -9 L 0 -4"/>
</g>
<g transform="translate(2438.3596 3316.62) rotate(-147.5697536871849) scale(10.0)">
<path fill-opacity="0%" stroke="#a0a" stroke-width="0.5" d="M 0 -9 L 0 -4"/>
</g>
<g transform="translate(2388.0864 3284.6782) rotate(-147.5697536871849) scale(10.0)">
<path fill-opacity="0%" stroke="#a0a" stroke-width="0.5" d="M 0 -9 L 0 -4"/>
</g>
<g transform="translate(2379.5952 3279.2834) rotate(-147.5697536871849) scale(10.0)">
<path fill-opacity="0%" stroke="#0f0" stroke-width="0.5" d="M -5 -10 L 0 0 5 -10 -5 -10"/>
</g>
<g transform="translate(2379.5952 3279.2834) rotate(-237.5697536871849)">
<text x="150.0" y="50.0" font-size="100.0" fill="#888"  font-family="sans-serif">sonic break zone</text>
</g>
<g transform="translate(2441.8013 3395.2952) rotate(-43.04672667405574) scale(10.0)">
<path fill-opacity="0%" stroke="#0f0" stroke-width="0.5" d="M -4 8 L 0 0 4 8 -4 8"/>
</g>
<line x1="2442.7625" y1="3394.3975" x2="2450.0703" y2="3387.5713" stroke="#0f0" stroke-width="80.0"  stroke-opacity="100%"/>
<line x1="2442.7625" y1="3394.3975" x2="2450.0703" y2="3387.5713" stroke="#0f0" stroke-width="80.0"  stroke-opacity="100%"/>
<line x1="2442.7625" y1="3394.3975" x2="2442.7625" y2="3394.3975" stroke="#0f0" stroke-width="80.0"  stroke-opacity="30%"/>
<line x1="2442.7625" y1="3394.3975" x2="2442.7625" y2="3394.3975" stroke="#0f0" stroke-width="10.0"  stroke-opacity="100%"/>
<g transform="translate(2298.6265 3228.9846) rotate(120.03403815407097) scale(10.0)">
<path fill-opacity="0%" stroke="#a0a" stroke-width="0.5" d="M 0 -9 L 0 -4"/>
</g>
<g transform="translate(2292.9731 3238.7634) rotate(120.03403815407097) scale(10.0)">
<path fill-opacity="0%" stroke="#a0a" stroke-width="0.5" d="M 0 -9 L 0 -4"/>
</g>
<g transform="translate(2291.2327 3241.774) rotate(120.03403815407097) scale(10.0)">
<path fill-opacity="0%" stroke="#a0a" stroke-width="0.5" d="M 0 -9 L 0 -4"/>
</g>
<g transform="translate(2282.438 3256.9858) rotate(120.03403815407097) scale(10.0)">
<path fill-opacity="0%" stroke="#a0a" stroke-width="0.5" d="M 0 -9 L 0 -4"/>
</g>
<g transform="translate(2277.0908 3266.2341) rotate(120.03403815407097) scale(10.0)">
<path fill-opacity="0%" stroke="#a0a" stroke-width="0.5" d="M 0 -9 L 0 -4"/>
</g>
<g transform="translate(2266.129 3285.195) rotate(120.03403815407097) scale(10.0)">
<path fill-opacity="0%" stroke="#a0a" stroke-width="0.5" d="M 0 -9 L 0 -4"/>
</g>
<g transform="translate(2264.7024 3287.6624) rotate(120.03403815407097) scale(10.0)">
<path fill-opacity="0%" stroke="#a0a" stroke-width="0.5" d="M 0 -9 L 0 -4"/>
</g>
<g transform="translate(2243.8457 3323.7375) rotate(120.03403815407097) scale(10.0)">
<path fill-opacity="0%" stroke="#a0a" stroke-width="0.5" d="M 0 -9 L 0 -4"/>
</g>
<g transform="translate(2240.5496 3329.439) rotate(120.03403815407097) scale(10.0)">
<path fill-opacity="0%" stroke="#a0a" stroke-width="0.5" d="M 0 -9 L 0 -4"/>
</g>
<g transform="translate(2235.2104 3338.674) rotate(120.03403815407097) scale(10.0)">
<path fill-opacity="0%" stroke="#a0a" stroke-width="0.5" d="M 0 -9 L 0 -4"/>
</g>
<g transform="translate(2233.3572 3341.8796) rotate(120.03403815407097) scale(10.0)">
<path fill-opacity="0%" stroke="#a0a" stroke-width="0.5" d="M 0 -9 L 0 -4"/>
</g>
<g transform="translate(2229.568 3348.433) rotate(120.03403815407097) scale(10.0)">
<path fill-opacity="0%" stroke="#a0a" stroke-width="0.5" d="M 0 -9 L 0 -4"/>
</g>
<g transform="translate(2219.3657 3366.0803) rotate(120.03403815407097) scale(10.0)">
<path fill-opacity="0%" stroke="#a0a" stroke-width="0.5" d="M 0 -9 L 0 -4"/>
</g>
<g transform="translate(2217.3647 3369.5413) rotate(120.03403815407097) scale(10.0)">
<path fill-opacity="0%" stroke="#a0a" stroke-width="0.5" d="M 0 -9 L 0 -4"/>
</g>
<g transform="translate(2210.5242 3381.3735) rotate(120.03403815407097) scale(10.0)">
<path fill-opacity="0%" stroke="#aa0" stroke-width="0.5" d="M -5 -10 L 0 0 5 -10 -5 -10"/>
</g>
<g transform="translate(2210.5242 3381.3735) rotate(30.03403815407097)">
<text x="150.0" y="50.0" font-size="100.0" fill="#888"  font-family="sans-serif">sonic exit </text>
</g>
<g transform="translate(2230.093 3392.0657) rotate(26.249607552093167) scale(10.0)">
<path fill-opacity="0%" stroke="#a0a" stroke-width="0.5" d="M 0 -9 L 0 -4"/>
</g>
<g transform="translate(2237.175 3395.558) rotate(26.249607552093167) scale(10.0)">
<path fill-opacity="0%" stroke="#a0a" stroke-width="0.5" d="M 0 -9 L 0 -4"/>
</g>
<g transform="translate(2254.4912 3404.0972) rotate(26.249607552093167) scale(10.0)">
<path fill-opacity="0%" stroke="#a0a" stroke-width="0.5" d="M 0 -9 L 0 -4"/>
</g>
<g transform="translate(2266.9128 3410.2231) rotate(26.249607552093167) scale(10.0)">
<path fill-opacity="0%" stroke="#a0a" stroke-width="0.5" d="M 0 -9 L 0 -4"/>
</g>
<g transform="translate(2315.1826 3434.0264) rotate(26.249607552093167) scale(10.0)">
<path fill-opacity="0%" stroke="#a0a" stroke-width="0.5" d="M 0 -9 L 0 -4"/>
</g>
<g transform="translate(2346.911 3449.673) rotate(26.249607552093167) scale(10.0)">
<path fill-opacity="0%" stroke="#a0a" stroke-width="0.5" d="M 0 -9 L 0 -4"/>
</g>
<g transform="translate(2358.8247 3455.548) rotate(26.249607552093167) scale(10.0)">
<path fill-opacity="0%" stroke="#a0a" stroke-width="0.5" d="M 0 -9 L 0 -4"/>
</g>
<line x1="2414.983" y1="3420.3445" x2="2422.2908" y2="3413.5186" stroke="#f00" stroke-width="80.0"  stroke-opacity="100%"/>
<line x1="2414.983" y1="3420.3445" x2="2422.2908" y2="3413.5186" stroke="#f00" stroke-width="80.0"  stroke-opacity="100%"/>
<line x1="2414.983" y1="3420.3445" x2="2414.983" y2="3420.3445" stroke="#f00" stroke-width="80.0"  stroke-opacity="30%"/>
<line x1="2414.983" y1="3420.3445" x2="2414.983" y2="3420.3445" stroke="#f00" stroke-width="10.0"  stroke-opacity="100%"/>
<line x1="2435.7295" y1="3400.9666" x2="2443.0376" y2="3394.1404" stroke="#a0a" stroke-width="80.0"  stroke-opacity="100%"/>
<line x1="2435.7295" y1="3400.9666" x2="2443.0376" y2="3394.1404" stroke="#a0a" stroke-width="80.0"  stroke-opacity="100%"/>
<line x1="2435.7295" y1="3400.9666" x2="2435.7295" y2="3400.9666" stroke="#a0a" stroke-width="80.0"  stroke-opacity="30%"/>
<line x1="2435.7295" y1="3400.9666" x2="2435.7295" y2="3400.9666" stroke="#a0a" stroke-width="10.0"  stroke-opacity="100%"/>
<g transform="translate(2551.4595 3461.336) rotate(63.03688298746904) scale(10.0)">
<path fill-opacity="0%" stroke="#a0a" stroke-width="0.5" d="M 0 -9 L 0 -4"/>
</g>
<g transform="translate(2563.288 3484.5876) rotate(63.03688298746904) scale(10.0)">
<path fill-opacity="0%" stroke="#a0a" stroke-width="0.5" d="M 0 -9 L 0 -4"/>
</g>
<g transform="translate(3018.1077 3002.8818) rotate(-48.33858359385801) scale(10.0)">
<path fill-opacity="0%" stroke="#a0a" stroke-width="0.5" d="M 0 -9 L 0 -4"/>
</g>
</svg>
