<?xml version="1.0" standalone="no"?>
<!DOCTYPE svg PUBLIC "-//W3C//DTD SVG 1.1//EN" "http://www.w3.org/Graphics/SVG/1.1/DTD/svg11.dtd">
<svg opacity="20%" width="30cm" height="30cm" version="1.1" viewBox="0 0 10000 10000" xmlns="http://www.w3.org/2000/svg" xmlns:xlink="http://www.w3.org/1999/xlink">
<desc>DrawTrails of automics data, Mon Aug 08 16:33:06 BST 2011</desc>
<filter id="desaturate"  primitiveUnits="objectBoundingBox">
<feImage x="0%" y="0%" width="100%" height="100%" xlink:href="altontowers-zoom15.png"/>
<feColorMatrix type="matrix" values="0.3333 0.3333 0.3333 0 0 0.3333 0.3333 0.3333 0 0 0.3333 0.3333 0.3333 0 0 0      0      0      1 0"/>
<feColorMatrix type="matrix" values="0.3 0 0 0 0.7 0 0.3 0 0 0.7 0 0 0.3 0 0.7 0      0      0      1 0"/>
</filter>
<rect x="-2643.7028285176257" y="-2643.7028285176257" width="15287.405657035251" height="15287.405657035251" filter="url(#desaturate)"/>
<line x1="3562.587" y1="2432.125" x2="3469.6353" y2="2570.4846" stroke="#9cf062" stroke-width="5.0" />
<line x1="3469.6353" y1="2570.4846" x2="3395.0513" y2="2738.3604" stroke="#9cf062" stroke-width="5.0" />
<line x1="3395.0513" y1="2738.3604" x2="3215.8267" y2="2798.3157" stroke="#9bf063" stroke-width="5.0" />
<line x1="3215.8267" y1="2798.3157" x2="3054.9702" y2="2867.4949" stroke="#9bf063" stroke-width="5.0" />
<line x1="3054.9702" y1="2867.4949" x2="2821.7559" y2="3332.376" stroke="#9bf063" stroke-width="5.0" stroke-dasharray="30 30"/>
<line x1="2821.7559" y1="3332.376" x2="2756.0771" y2="3485.4905" stroke="#9bf063" stroke-width="5.0" />
<line x1="2756.0771" y1="3485.4905" x2="2705.427" y2="3654.2844" stroke="#9bf063" stroke-width="5.0" />
<line x1="2705.427" y1="3654.2844" x2="2657.5596" y2="3822.1555" stroke="#9bf063" stroke-width="5.0" />
<line x1="2657.5596" y1="3822.1555" x2="2636.9656" y2="3995.56" stroke="#9bf063" stroke-width="5.0" />
<line x1="2636.9656" y1="3995.56" x2="2606.9092" y2="4168.964" stroke="#9af064" stroke-width="5.0" />
<line x1="2606.9092" y1="4168.964" x2="1594.4585" y2="5202.914" stroke="#99f065" stroke-width="5.0" stroke-dasharray="30 30"/>
<line x1="1594.4585" y1="5202.914" x2="1436.3848" y2="5142.962" stroke="#99f065" stroke-width="5.0" />
<line x1="1436.3848" y1="5142.962" x2="1296.1223" y2="5232.4287" stroke="#98f066" stroke-width="5.0" />
<line x1="1296.1223" y1="5232.4287" x2="1125.8035" y2="5306.2153" stroke="#98f066" stroke-width="5.0" />
<line x1="1125.8035" y1="5306.2153" x2="976.63525" y2="5380.924" stroke="#98f066" stroke-width="5.0" />
<line x1="976.63525" y1="5380.924" x2="1116.898" y2="5489.759" stroke="#98f066" stroke-width="5.0" />
<line x1="1116.898" y1="5489.759" x2="1164.7653" y2="5326.507" stroke="#97f067" stroke-width="5.0" />
<line x1="1164.7653" y1="5326.507" x2="997.786" y2="5360.633" stroke="#97f067" stroke-width="5.0" />
<line x1="997.786" y1="5360.633" x2="1027.2856" y2="5523.885" stroke="#97f067" stroke-width="5.0" />
<line x1="1027.2856" y1="5523.885" x2="1191.4819" y2="5554.322" stroke="#97f067" stroke-width="5.0" />
<line x1="1191.4819" y1="5554.322" x2="1302.2449" y2="5692.6704" stroke="#8ef070" stroke-width="5.0" />
<line x1="1302.2449" y1="5692.6704" x2="1475.3467" y2="5732.33" stroke="#8ef070" stroke-width="5.0" />
<line x1="1475.3467" y1="5732.33" x2="1642.3259" y2="5712.039" stroke="#8df071" stroke-width="5.0" />
<line x1="1642.3259" y1="5712.039" x2="1690.1931" y2="5548.788" stroke="#8cf072" stroke-width="5.0" />
<line x1="1690.1931" y1="5548.788" x2="1579.9868" y2="5425.196" stroke="#8bf073" stroke-width="5.0" />
<line x1="1579.9868" y1="5425.196" x2="1538.2422" y2="5237.0405" stroke="#8bf073" stroke-width="5.0" />
<line x1="1538.2422" y1="5237.0405" x2="1379.6118" y2="5182.6226" stroke="#8bf073" stroke-width="5.0" />
<line x1="1379.6118" y1="5182.6226" x2="1215.4156" y2="5227.8174" stroke="#8bf073" stroke-width="5.0" />
<line x1="1215.4156" y1="5227.8174" x2="1054.0024" y2="5272.0894" stroke="#8af074" stroke-width="5.0" />
<line x1="1054.0024" y1="5272.0894" x2="1075.1531" y2="5103.302" stroke="#81f07d" stroke-width="5.0" />
<line x1="1075.1531" y1="5103.302" x2="1245.4719" y2="5073.787" stroke="#7ff07f" stroke-width="5.0" />
<line x1="1245.4719" y1="5073.787" x2="1412.4512" y2="5069.1753" stroke="#7ff07f" stroke-width="5.0" />
<line x1="1412.4512" y1="5069.1753" x2="1564.9587" y2="5148.496" stroke="#7ff07f" stroke-width="5.0" />
<line x1="1564.9587" y1="5148.496" x2="1716.9099" y2="5217.6714" stroke="#7ff07f" stroke-width="5.0" />
<line x1="1716.9099" y1="5217.6714" x2="3320.4673" y2="6745.949" stroke="#7cf082" stroke-width="5.0" stroke-dasharray="30 30"/>
<line x1="3320.4673" y1="6745.949" x2="3490.7861" y2="6736.726" stroke="#7cf082" stroke-width="5.0" />
<line x1="3490.7861" y1="6736.726" x2="3657.7651" y2="6766.2397" stroke="#7cf082" stroke-width="5.0" />
<line x1="3657.7651" y1="6766.2397" x2="3786.339" y2="6889.828" stroke="#7cf082" stroke-width="5.0" />
<line x1="3786.339" y1="6889.828" x2="4511.586" y2="6973.756" stroke="#7bf083" stroke-width="5.0" stroke-dasharray="30 30"/>
<line x1="4511.586" y1="6973.756" x2="4681.905" y2="7013.415" stroke="#7bf083" stroke-width="5.0" />
<line x1="4681.905" y1="7013.415" x2="4759.828" y2="7166.5156" stroke="#79f085" stroke-width="5.0" />
<line x1="4759.828" y1="7166.5156" x2="4789.328" y2="7329.7603" stroke="#6ef090" stroke-width="5.0" />
<line x1="4789.328" y1="7329.7603" x2="4652.405" y2="7206.174" stroke="#6bf093" stroke-width="5.0" />
<line x1="4652.405" y1="7206.174" x2="4499.897" y2="7137.002" stroke="#69f095" stroke-width="5.0" />
<line x1="4499.897" y1="7137.002" x2="4344.6064" y2="7077.9756" stroke="#66f098" stroke-width="5.0" />
<line x1="4344.6064" y1="7077.9756" x2="4506.02" y2="6983.9014" stroke="#61f09d" stroke-width="5.0" stroke-dasharray="30 30"/>
<line x1="4506.02" y1="6983.9014" x2="4676.3384" y2="6998.658" stroke="#61f09d" stroke-width="5.0" />
<line x1="4676.3384" y1="6998.658" x2="4825.507" y2="7073.364" stroke="#61f09d" stroke-width="5.0" />
<line x1="4825.507" y1="7073.364" x2="5007.514" y2="7107.4883" stroke="#61f09d" stroke-width="5.0" />
<line x1="5007.514" y1="7107.4883" x2="4867.2515" y2="7003.2695" stroke="#60f09e" stroke-width="5.0" />
<line x1="4867.2515" y1="7003.2695" x2="4714.7437" y2="6864.926" stroke="#60f09e" stroke-width="5.0" />
<line x1="4714.7437" y1="6864.926" x2="4550.5474" y2="6830.801" stroke="#60f09e" stroke-width="5.0" />
<line x1="4550.5474" y1="6830.801" x2="4404.162" y2="6929.4863" stroke="#60f09e" stroke-width="5.0" />
<line x1="4404.162" y1="6929.4863" x2="4243.3057" y2="6988.513" stroke="#60f09e" stroke-width="5.0" />
<line x1="4243.3057" y1="6988.513" x2="3505.8142" y2="7335.2935" stroke="#5ff09f" stroke-width="5.0" stroke-dasharray="30 30"/>
<line x1="3505.8142" y1="7335.2935" x2="3332.7124" y2="7360.1953" stroke="#5ff09f" stroke-width="5.0" />
<line x1="3332.7124" y1="7360.1953" x2="3290.4111" y2="7523.4395" stroke="#5ff09f" stroke-width="5.0" />
<line x1="3290.4111" y1="7523.4395" x2="3478.541" y2="7641.491" stroke="#5cf0a2" stroke-width="5.0" />
<line x1="3478.541" y1="7641.491" x2="3654.9824" y2="7557.5635" stroke="#5cf0a2" stroke-width="5.0" />
<line x1="3654.9824" y1="7557.5635" x2="3962.224" y2="7325.1484" stroke="#5cf0a2" stroke-width="5.0" />
<line x1="3962.224" y1="7325.1484" x2="4544.9814" y2="6994.047" stroke="#5bf0a3" stroke-width="5.0" stroke-dasharray="30 30"/>
<line x1="4544.9814" y1="6994.047" x2="4661.3105" y2="6860.3145" stroke="#5bf0a3" stroke-width="5.0" />
<line x1="4661.3105" y1="6860.3145" x2="4801.5728" y2="6770.8516" stroke="#5bf0a3" stroke-width="5.0" />
<line x1="4801.5728" y1="6770.8516" x2="4983.58" y2="6667.5537" stroke="#5bf0a3" stroke-width="5.0" />
<line x1="4983.58" y1="6667.5537" x2="5067.07" y2="3455.9744" stroke="#59f0a5" stroke-width="5.0" stroke-dasharray="30 30"/>
<line x1="5067.07" y1="3455.9744" x2="4956.864" y2="3332.376" stroke="#59f0a5" stroke-width="5.0" />
<line x1="4956.864" y1="3332.376" x2="4816.601" y2="3223.5352" stroke="#59f0a5" stroke-width="5.0" />
<line x1="4816.601" y1="3223.5352" x2="4657.9707" y2="3119.3062" stroke="#59f0a5" stroke-width="5.0" />
<line x1="4657.9707" y1="3119.3062" x2="4517.7085" y2="3005.853" stroke="#59f0a5" stroke-width="5.0" />
<line x1="4517.7085" y1="3005.853" x2="5114.9375" y2="2767.8765" stroke="#57f0a7" stroke-width="5.0" stroke-dasharray="30 30"/>
<line x1="5114.9375" y1="2767.8765" x2="5058.1646" y2="2946.82" stroke="#56f0a8" stroke-width="5.0" />
<line x1="5058.1646" y1="2946.82" x2="4980.7974" y2="3119.3062" stroke="#56f0a8" stroke-width="5.0" />
<line x1="4980.7974" y1="3119.3062" x2="4798.2334" y2="3079.6436" stroke="#56f0a8" stroke-width="5.0" />
<line x1="4798.2334" y1="3079.6436" x2="4661.3105" y2="2832.444" stroke="#55f0a9" stroke-width="5.0" />
<line x1="4661.3105" y1="2832.444" x2="4885.0625" y2="2729.1362" stroke="#4af0b4" stroke-width="5.0" stroke-dasharray="30 30"/>
<line x1="4885.0625" y1="2729.1362" x2="5049.259" y2="2683.939" stroke="#49f0b5" stroke-width="5.0" />
<line x1="5049.259" y1="2683.939" x2="5114.9375" y2="2857.3486" stroke="#49f0b5" stroke-width="5.0" />
<line x1="5114.9375" y1="2857.3486" x2="5075.9756" y2="3020.6108" stroke="#49f0b5" stroke-width="5.0" />
<line x1="5075.9756" y1="3020.6108" x2="5043.136" y2="3183.873" stroke="#49f0b5" stroke-width="5.0" />
<line x1="5043.136" y1="3183.873" x2="4906.2134" y2="3288.1018" stroke="#46f0b8" stroke-width="5.0" />
<line x1="4906.2134" y1="3288.1018" x2="4795.45" y2="3411.7004" stroke="#46f0b8" stroke-width="5.0" />
<line x1="4795.45" y1="3411.7004" x2="4634.037" y2="3357.2803" stroke="#45f0b9" stroke-width="5.0" />
<line x1="4634.037" y1="3357.2803" x2="4484.869" y2="3273.3438" stroke="#45f0b9" stroke-width="5.0" />
<line x1="4484.869" y1="3273.3438" x2="3027.6968" y2="3832.3018" stroke="#44f0ba" stroke-width="5.0" stroke-dasharray="30 30"/>
<line x1="3027.6968" y1="3832.3018" x2="2866.8403" y2="3896.8672" stroke="#43f0bb" stroke-width="5.0" />
<line x1="2866.8403" y1="3896.8672" x2="2696.5212" y2="3901.479" stroke="#43f0bb" stroke-width="5.0" />
<line x1="2696.5212" y1="3901.479" x2="2657.5596" y2="3738.2202" stroke="#43f0bb" stroke-width="5.0" />
<line x1="2657.5596" y1="3738.2202" x2="2624.7205" y2="3574.9607" stroke="#43f0bb" stroke-width="5.0" />
<line x1="2624.7205" y1="3574.9607" x2="2487.2407" y2="3476.2668" stroke="#42f0bc" stroke-width="5.0" />
<line x1="2487.2407" y1="3476.2668" x2="2567.9473" y2="3633.9922" stroke="#42f0bc" stroke-width="5.0" />
<line x1="2567.9473" y1="3633.9922" x2="2415.9963" y2="3728.074" stroke="#2ef0d0" stroke-width="5.0" />
<line x1="3639.954" y1="2402.6082" x2="3496.9087" y2="2511.4512" stroke="#9cf062" stroke-width="5.0" />
<line x1="3496.9087" y1="2511.4512" x2="3464.0693" y2="2698.6973" stroke="#9cf062" stroke-width="5.0" />
<line x1="3464.0693" y1="2698.6973" x2="3311.5615" y2="2773.411" stroke="#9bf063" stroke-width="5.0" />
<line x1="3311.5615" y1="2773.411" x2="3144.5825" y2="2817.6858" stroke="#9bf063" stroke-width="5.0" />
<line x1="3144.5825" y1="2817.6858" x2="2744.3887" y2="3401.5542" stroke="#9bf063" stroke-width="5.0" stroke-dasharray="30 30"/>
<line x1="2744.3887" y1="3401.5542" x2="2726.5776" y2="3574.9607" stroke="#9bf063" stroke-width="5.0" />
<line x1="2726.5776" y1="3574.9607" x2="2684.2764" y2="3742.832" stroke="#9bf063" stroke-width="5.0" />
<line x1="2684.2764" y1="3742.832" x2="2657.5596" y2="3911.625" stroke="#9af064" stroke-width="5.0" />
<line x1="2657.5596" y1="3911.625" x2="2606.9092" y2="4084.1067" stroke="#9af064" stroke-width="5.0" />
<line x1="2606.9092" y1="4084.1067" x2="1582.7699" y2="5128.205" stroke="#99f065" stroke-width="5.0" stroke-dasharray="30 30"/>
<line x1="1582.7699" y1="5128.205" x2="1406.3286" y2="5142.962" stroke="#99f065" stroke-width="5.0" />
<line x1="1406.3286" y1="5142.962" x2="1284.4337" y2="5257.3315" stroke="#98f066" stroke-width="5.0" />
<line x1="1284.4337" y1="5257.3315" x2="1125.8035" y2="5321.895" stroke="#98f066" stroke-width="5.0" />
<line x1="1125.8035" y1="5321.895" x2="967.72974" y2="5400.293" stroke="#98f066" stroke-width="5.0" />
<line x1="967.72974" y1="5400.293" x2="1096.3038" y2="5529.419" stroke="#98f066" stroke-width="5.0" />
<line x1="1096.3038" y1="5529.419" x2="1257.1604" y2="5573.691" stroke="#97f067" stroke-width="5.0" />
<line x1="1257.1604" y1="5573.691" x2="1236.5663" y2="5405.827" stroke="#97f067" stroke-width="5.0" />
<line x1="1236.5663" y1="5405.827" x2="1063.4645" y2="5395.6816" stroke="#97f067" stroke-width="5.0" />
<line x1="1063.4645" y1="5395.6816" x2="1134.709" y2="5603.205" stroke="#97f067" stroke-width="5.0" />
<line x1="1134.709" y1="5603.205" x2="1313.9333" y2="5603.205" stroke="#96f068" stroke-width="5.0" />
<line x1="1313.9333" y1="5603.205" x2="1233.2267" y2="5425.196" stroke="#96f068" stroke-width="5.0" />
<line x1="1233.2267" y1="5425.196" x2="1072.3701" y2="5469.468" stroke="#93f06b" stroke-width="5.0" />
<line x1="1072.3701" y1="5469.468" x2="1233.2267" y2="5608.7393" stroke="#8ef070" stroke-width="5.0" />
<line x1="1233.2267" y1="5608.7393" x2="1400.7627" y2="5657.622" stroke="#8ef070" stroke-width="5.0" />
<line x1="1400.7627" y1="5657.622" x2="1573.8645" y2="5707.4277" stroke="#8cf072" stroke-width="5.0" />
<line x1="1573.8645" y1="5707.4277" x2="1690.1931" y2="5583.836" stroke="#8cf072" stroke-width="5.0" />
<line x1="1690.1931" y1="5583.836" x2="1636.76" y2="5425.196" stroke="#8bf073" stroke-width="5.0" />
<line x1="1636.76" y1="5425.196" x2="1576.6473" y2="5261.9434" stroke="#8bf073" stroke-width="5.0" />
<line x1="1576.6473" y1="5261.9434" x2="1430.2623" y2="5163.254" stroke="#8bf073" stroke-width="5.0" />
<line x1="1430.2623" y1="5163.254" x2="1272.1886" y2="5217.6714" stroke="#8bf073" stroke-width="5.0" />
<line x1="1272.1886" y1="5217.6714" x2="1110.7753" y2="5257.3315" stroke="#8af074" stroke-width="5.0" />
<line x1="1110.7753" y1="5257.3315" x2="943.7961" y2="5272.0894" stroke="#87f077" stroke-width="5.0" />
<line x1="943.7961" y1="5272.0894" x2="1027.2856" y2="5128.205" stroke="#81f07d" stroke-width="5.0" />
<line x1="1027.2856" y1="5128.205" x2="1218.7551" y2="5079.321" stroke="#7ff07f" stroke-width="5.0" />
<line x1="1218.7551" y1="5079.321" x2="1394.64" y2="5083.9326" stroke="#7ff07f" stroke-width="5.0" />
<line x1="1394.64" y1="5083.9326" x2="1556.0533" y2="5138.3506" stroke="#7ff07f" stroke-width="5.0" />
<line x1="1556.0533" y1="5138.3506" x2="1702.4384" y2="5217.6714" stroke="#7ef080" stroke-width="5.0" />
<line x1="1702.4384" y1="5217.6714" x2="1872.2007" y2="5232.4287" stroke="#7ef080" stroke-width="5.0" />
<line x1="1872.2007" y1="5232.4287" x2="3350.5234" y2="6726.581" stroke="#7cf082" stroke-width="5.0" stroke-dasharray="30 30"/>
<line x1="3350.5234" y1="6726.581" x2="3520.8423" y2="6751.4834" stroke="#7cf082" stroke-width="5.0" />
<line x1="3520.8423" y1="6751.4834" x2="3675.5764" y2="6820.6553" stroke="#7cf082" stroke-width="5.0" />
<line x1="3675.5764" y1="6820.6553" x2="3806.9333" y2="6934.0977" stroke="#7cf082" stroke-width="5.0" />
<line x1="3806.9333" y1="6934.0977" x2="4469.841" y2="6944.243" stroke="#7bf083" stroke-width="5.0" stroke-dasharray="30 30"/>
<line x1="4469.841" y1="6944.243" x2="4634.037" y2="6875.071" stroke="#7bf083" stroke-width="5.0" />
<line x1="4634.037" y1="6875.071" x2="4735.8945" y2="7008.8037" stroke="#7bf083" stroke-width="5.0" />
<line x1="4735.8945" y1="7008.8037" x2="4774.8564" y2="7186.8057" stroke="#79f085" stroke-width="5.0" />
<line x1="4774.8564" y1="7186.8057" x2="4783.7617" y2="7354.662" stroke="#73f08b" stroke-width="5.0" />
<line x1="4783.7617" y1="7354.662" x2="4622.3486" y2="7196.9507" stroke="#6af094" stroke-width="5.0" stroke-dasharray="30 30"/>
<line x1="4622.3486" y1="7196.9507" x2="4473.1807" y2="7122.2456" stroke="#68f096" stroke-width="5.0" />
<line x1="4473.1807" y1="7122.2456" x2="4320.673" y2="7042.9287" stroke="#65f099" stroke-width="5.0" />
<line x1="4320.673" y1="7042.9287" x2="4419.1904" y2="6973.756" stroke="#61f09d" stroke-width="5.0" stroke-dasharray="30 30"/>
<line x1="4419.1904" y1="6973.756" x2="4580.604" y2="6919.341" stroke="#61f09d" stroke-width="5.0" />
<line x1="4580.604" y1="6919.341" x2="4744.8003" y2="6988.513" stroke="#61f09d" stroke-width="5.0" />
<line x1="4744.8003" y1="6988.513" x2="4861.129" y2="7112.1" stroke="#61f09d" stroke-width="5.0" />
<line x1="4861.129" y1="7112.1" x2="5055.3813" y2="7112.1" stroke="#60f09e" stroke-width="5.0" />
<line x1="5055.3813" y1="7112.1" x2="5043.136" y2="6909.1953" stroke="#60f09e" stroke-width="5.0" />
<line x1="5043.136" y1="6909.1953" x2="4887.8457" y2="6969.145" stroke="#60f09e" stroke-width="5.0" />
<line x1="4887.8457" y1="6969.145" x2="4720.866" y2="6919.341" stroke="#60f09e" stroke-width="5.0" />
<line x1="4720.866" y1="6919.341" x2="4521.048" y2="6969.145" stroke="#60f09e" stroke-width="5.0" />
<line x1="4521.048" y1="6969.145" x2="4350.729" y2="6988.513" stroke="#60f09e" stroke-width="5.0" />
<line x1="4350.729" y1="6988.513" x2="4186.5327" y2="7057.685" stroke="#60f09e" stroke-width="5.0" />
<line x1="4186.5327" y1="7057.685" x2="3374.457" y2="7414.61" stroke="#5ff09f" stroke-width="5.0" stroke-dasharray="30 30"/>
<line x1="3374.457" y1="7414.61" x2="3586.5208" y2="7300.2466" stroke="#5cf0a2" stroke-width="5.0" />
<line x1="3586.5208" y1="7300.2466" x2="4676.3384" y2="6780.9966" stroke="#5bf0a3" stroke-width="5.0" stroke-dasharray="30 30"/>
<line x1="4676.3384" y1="6780.9966" x2="4825.507" y2="6676.777" stroke="#5bf0a3" stroke-width="5.0" />
<line x1="4825.507" y1="6676.777" x2="5010.297" y2="6652.7974" stroke="#5bf0a3" stroke-width="5.0" />
<line x1="5010.297" y1="6652.7974" x2="4873.374" y2="3332.376" stroke="#59f0a5" stroke-width="5.0" stroke-dasharray="30 30"/>
<line x1="4873.374" y1="3332.376" x2="4759.828" y2="3194.019" stroke="#59f0a5" stroke-width="5.0" />
<line x1="4759.828" y1="3194.019" x2="4556.6704" y2="3055.6616" stroke="#59f0a5" stroke-width="5.0" />
<line x1="4556.6704" y1="3055.6616" x2="4440.3413" y2="2932.062" stroke="#58f0a6" stroke-width="5.0" />
<line x1="4440.3413" y1="2932.062" x2="5070.4097" y2="2683.939" stroke="#57f0a7" stroke-width="5.0" stroke-dasharray="30 30"/>
<line x1="5070.4097" y1="2683.939" x2="5171.71" y2="2827.832" stroke="#56f0a8" stroke-width="5.0" />
<line x1="5171.71" y1="2827.832" x2="5070.4097" y2="2976.3364" stroke="#56f0a8" stroke-width="5.0" />
<line x1="5070.4097" y1="2976.3364" x2="5001.3916" y2="3134.0645" stroke="#56f0a8" stroke-width="5.0" />
<line x1="5001.3916" y1="3134.0645" x2="4947.958" y2="3302.8599" stroke="#56f0a8" stroke-width="5.0" />
<line x1="4947.958" y1="3302.8599" x2="4822.167" y2="3183.873" stroke="#55f0a9" stroke-width="5.0" />
<line x1="4822.167" y1="3183.873" x2="4705.8384" y2="3064.8855" stroke="#55f0a9" stroke-width="5.0" />
<line x1="4705.8384" y1="3064.8855" x2="4544.9814" y2="2986.483" stroke="#55f0a9" stroke-width="5.0" />
<line x1="4544.9814" y1="2986.483" x2="4577.821" y2="2822.2976" stroke="#55f0a9" stroke-width="5.0" />
<line x1="4577.821" y1="2822.2976" x2="4980.7974" y2="2792.7812" stroke="#55f0a9" stroke-width="5.0" stroke-dasharray="30 30"/>
<line x1="4980.7974" y1="2792.7812" x2="5106.0317" y2="2907.1577" stroke="#49f0b5" stroke-width="5.0" />
<line x1="5106.0317" y1="2907.1577" x2="5049.259" y2="3064.8855" stroke="#49f0b5" stroke-width="5.0" />
<line x1="5049.259" y1="3064.8855" x2="5004.731" y2="3228.147" stroke="#48f0b6" stroke-width="5.0" />
<line x1="5004.731" y1="3228.147" x2="4876.1567" y2="3372.0383" stroke="#46f0b8" stroke-width="5.0" />
<line x1="4876.1567" y1="3372.0383" x2="4711.961" y2="3347.134" stroke="#45f0b9" stroke-width="5.0" />
<line x1="4711.961" y1="3347.134" x2="4562.7925" y2="3263.1978" stroke="#45f0b9" stroke-width="5.0" />
<line x1="4562.7925" y1="3263.1978" x2="4416.407" y2="3179.2607" stroke="#45f0b9" stroke-width="5.0" />
<line x1="4416.407" y1="3179.2607" x2="2965.358" y2="3857.2056" stroke="#43f0bb" stroke-width="5.0" stroke-dasharray="30 30"/>
<line x1="2965.358" y1="3857.2056" x2="2801.1619" y2="3891.333" stroke="#43f0bb" stroke-width="5.0" />
<line x1="2801.1619" y1="3891.333" x2="2687.616" y2="3763.124" stroke="#43f0bb" stroke-width="5.0" />
<line x1="2687.616" y1="3763.124" x2="2657.5596" y2="3599.8645" stroke="#43f0bb" stroke-width="5.0" />
<line x1="2657.5596" y1="3599.8645" x2="2520.08" y2="3461.5088" stroke="#42f0bc" stroke-width="5.0" />
<line x1="2520.08" y1="3461.5088" x2="2582.9756" y2="3619.2344" stroke="#41f0bd" stroke-width="5.0" />
<line x1="2582.9756" y1="3619.2344" x2="2484.4578" y2="3485.4905" stroke="#3df0c1" stroke-width="5.0" />
<line x1="2484.4578" y1="3485.4905" x2="2484.4578" y2="3654.2844" stroke="#36f0c8" stroke-width="5.0" />
<line x1="2484.4578" y1="3654.2844" x2="2341.412" y2="3570.3489" stroke="#29f0d5" stroke-width="5.0" />
<line x1="2341.412" y1="3570.3489" x2="2197.81" y2="3485.4905" stroke="#27f0d7" stroke-width="5.0" />
<line x1="2197.81" y1="3485.4905" x2="2296.328" y2="3351.7458" stroke="#20f0de" stroke-width="5.0" />
<line x1="2296.328" y1="3351.7458" x2="2412.6567" y2="3470.7324" stroke="#20f0de" stroke-width="5.0" />
<line x1="2412.6567" y1="3470.7324" x2="2496.703" y2="3313.0059" stroke="#1ef0e0" stroke-width="5.0" />
<line x1="2496.703" y1="3313.0059" x2="2633.6257" y2="3173.7266" stroke="#1ef0e0" stroke-width="5.0" />
<line x1="2633.6257" y1="3173.7266" x2="2744.3887" y2="3040.9036" stroke="#1ef0e0" stroke-width="5.0" />
<line x1="2744.3887" y1="3040.9036" x2="3078.9038" y2="2585.243" stroke="#1df0e1" stroke-width="5.0" stroke-dasharray="30 30"/>
<line x1="3478.541" y1="2664.5688" x2="3314.3445" y2="2773.411" stroke="#9cf062" stroke-width="5.0" />
<line x1="3314.3445" y1="2773.411" x2="3147.3655" y2="2807.5393" stroke="#9cf062" stroke-width="5.0" />
<line x1="3147.3655" y1="2807.5393" x2="2803.9448" y2="3322.23" stroke="#9bf063" stroke-width="5.0" stroke-dasharray="30 30"/>
<line x1="2803.9448" y1="3322.23" x2="2741.0493" y2="3480.8787" stroke="#9bf063" stroke-width="5.0" />
<line x1="2741.0493" y1="3480.8787" x2="2702.644" y2="3644.1384" stroke="#9bf063" stroke-width="5.0" />
<line x1="2702.644" y1="3644.1384" x2="2675.3708" y2="3842.4475" stroke="#9bf063" stroke-width="5.0" />
<line x1="2675.3708" y1="3842.4475" x2="2651.437" y2="4010.3179" stroke="#9bf063" stroke-width="5.0" />
<line x1="2651.437" y1="4010.3179" x2="2589.0981" y2="4168.964" stroke="#9bf063" stroke-width="5.0" />
<line x1="2589.0981" y1="4168.964" x2="1597.798" y2="5213.0596" stroke="#99f065" stroke-width="5.0" stroke-dasharray="30 30"/>
<line x1="1597.798" y1="5213.0596" x2="1430.2623" y2="5157.7197" stroke="#99f065" stroke-width="5.0" />
<line x1="1430.2623" y1="5157.7197" x2="1281.094" y2="5251.7974" stroke="#99f065" stroke-width="5.0" />
<line x1="1281.094" y1="5251.7974" x2="1116.898" y2="5341.264" stroke="#98f066" stroke-width="5.0" />
<line x1="1116.898" y1="5341.264" x2="946.57904" y2="5376.3125" stroke="#98f066" stroke-width="5.0" />
<line x1="946.57904" y1="5376.3125" x2="955.4846" y2="5548.788" stroke="#98f066" stroke-width="5.0" />
<line x1="955.4846" y1="5548.788" x2="1164.7653" y2="5583.836" stroke="#98f066" stroke-width="5.0" />
<line x1="1164.7653" y1="5583.836" x2="1313.9333" y2="5504.516" stroke="#98f066" stroke-width="5.0" />
<line x1="1313.9333" y1="5504.516" x2="1197.6045" y2="5385.536" stroke="#98f066" stroke-width="5.0" />
<line x1="1197.6045" y1="5385.536" x2="1030.6252" y2="5420.584" stroke="#97f067" stroke-width="5.0" />
<line x1="1030.6252" y1="5420.584" x2="1266.0659" y2="5588.4478" stroke="#97f067" stroke-width="5.0" />
<line x1="1266.0659" y1="5588.4478" x2="1221.5382" y2="5415.051" stroke="#96f068" stroke-width="5.0" />
<line x1="1221.5382" y1="5415.051" x2="1242.1323" y2="5583.836" stroke="#8ff06f" stroke-width="5.0" />
<line x1="1242.1323" y1="5583.836" x2="1370.7063" y2="5692.6704" stroke="#8ef070" stroke-width="5.0" />
<line x1="1370.7063" y1="5692.6704" x2="1538.2422" y2="5722.185" stroke="#8ef070" stroke-width="5.0" />
<line x1="1538.2422" y1="5722.185" x2="1678.5046" y2="5632.7197" stroke="#8cf072" stroke-width="5.0" />
<line x1="1678.5046" y1="5632.7197" x2="1639.5428" y2="5469.468" stroke="#8cf072" stroke-width="5.0" />
<line x1="1639.5428" y1="5469.468" x2="1582.7699" y2="5306.2153" stroke="#8bf073" stroke-width="5.0" />
<line x1="1582.7699" y1="5306.2153" x2="1508.1859" y2="5153.108" stroke="#8bf073" stroke-width="5.0" />
<line x1="1508.1859" y1="5153.108" x2="1340.65" y2="5173.3994" stroke="#8bf073" stroke-width="5.0" />
<line x1="1340.65" y1="5173.3994" x2="1161.9823" y2="5207.5254" stroke="#8bf073" stroke-width="5.0" />
<line x1="1161.9823" y1="5207.5254" x2="991.66345" y2="5242.574" stroke="#88f076" stroke-width="5.0" />
<line x1="991.66345" y1="5242.574" x2="982.7579" y2="5069.1753" stroke="#82f07c" stroke-width="5.0" />
<line x1="982.7579" y1="5069.1753" x2="1146.9541" y2="5108.836" stroke="#80f07e" stroke-width="5.0" />
<line x1="1146.9541" y1="5108.836" x2="1313.9333" y2="5098.6904" stroke="#7ff07f" stroke-width="5.0" />
<line x1="1313.9333" y1="5098.6904" x2="1484.2522" y2="5113.4478" stroke="#7ff07f" stroke-width="5.0" />
<line x1="1484.2522" y1="5113.4478" x2="1642.3259" y2="5178.0107" stroke="#7ff07f" stroke-width="5.0" />
<line x1="1642.3259" y1="5178.0107" x2="1800.956" y2="5227.8174" stroke="#7ff07f" stroke-width="5.0" />
<line x1="1800.956" y1="5227.8174" x2="3344.401" y2="6716.4355" stroke="#7cf082" stroke-width="5.0" stroke-dasharray="30 30"/>
<line x1="3344.401" y1="6716.4355" x2="3547.5588" y2="6756.094" stroke="#7cf082" stroke-width="5.0" />
<line x1="3547.5588" y1="6756.094" x2="3696.727" y2="6830.801" stroke="#7cf082" stroke-width="5.0" />
<line x1="3696.727" y1="6830.801" x2="3819.1785" y2="6948.8545" stroke="#7cf082" stroke-width="5.0" />
<line x1="3819.1785" y1="6948.8545" x2="4526.614" y2="6899.973" stroke="#7bf083" stroke-width="5.0" stroke-dasharray="30 30"/>
<line x1="4526.614" y1="6899.973" x2="4681.905" y2="7003.2695" stroke="#7bf083" stroke-width="5.0" />
<line x1="4681.905" y1="7003.2695" x2="4780.4224" y2="7137.002" stroke="#7af084" stroke-width="5.0" />
<line x1="4780.4224" y1="7137.002" x2="4729.772" y2="7295.6353" stroke="#77f087" stroke-width="5.0" />
<line x1="4729.772" y1="7295.6353" x2="4317.8896" y2="7057.685" stroke="#66f098" stroke-width="5.0" stroke-dasharray="30 30"/>
<line x1="4317.8896" y1="7057.685" x2="4475.9634" y2="6954.3887" stroke="#61f09d" stroke-width="5.0" stroke-dasharray="30 30"/>
<line x1="4475.9634" y1="6954.3887" x2="4652.405" y2="6944.243" stroke="#61f09d" stroke-width="5.0" />
<line x1="4652.405" y1="6944.243" x2="4774.8564" y2="7057.685" stroke="#61f09d" stroke-width="5.0" />
<line x1="4774.8564" y1="7057.685" x2="4932.93" y2="7132.3906" stroke="#61f09d" stroke-width="5.0" />
<line x1="4932.93" y1="7132.3906" x2="4813.261" y2="7003.2695" stroke="#60f09e" stroke-width="5.0" />
<line x1="4813.261" y1="7003.2695" x2="4670.216" y2="6889.828" stroke="#60f09e" stroke-width="5.0" />
<line x1="4670.216" y1="6889.828" x2="4488.2085" y2="6964.5337" stroke="#60f09e" stroke-width="5.0" />
<line x1="4488.2085" y1="6964.5337" x2="4324.0127" y2="6998.658" stroke="#60f09e" stroke-width="5.0" />
<line x1="4324.0127" y1="6998.658" x2="3421.7678" y2="7389.708" stroke="#5ff09f" stroke-width="5.0" stroke-dasharray="30 30"/>
<line x1="3421.7678" y1="7389.708" x2="3293.7505" y2="7498.5376" stroke="#5ff09f" stroke-width="5.0" />
<line x1="3293.7505" y1="7498.5376" x2="3487.4463" y2="7389.708" stroke="#5cf0a2" stroke-width="5.0" />
<line x1="3487.4463" y1="7389.708" x2="3654.9824" y2="7429.366" stroke="#5cf0a2" stroke-width="5.0" />
<line x1="3654.9824" y1="7429.366" x2="4401.3794" y2="6979.29" stroke="#5cf0a2" stroke-width="5.0" stroke-dasharray="30 30"/>
<line x1="4401.3794" y1="6979.29" x2="4562.7925" y2="6914.7295" stroke="#5cf0a2" stroke-width="5.0" />
<line x1="4562.7925" y1="6914.7295" x2="4747.583" y2="6840.024" stroke="#5cf0a2" stroke-width="5.0" />
<line x1="4747.583" y1="6840.024" x2="4902.874" y2="6745.949" stroke="#5cf0a2" stroke-width="5.0" />
<line x1="4902.874" y1="6745.949" x2="5075.9756" y2="3451.3625" stroke="#59f0a5" stroke-width="5.0" stroke-dasharray="30 30"/>
<line x1="5075.9756" y1="3451.3625" x2="4926.8076" y2="3351.7458" stroke="#59f0a5" stroke-width="5.0" />
<line x1="4926.8076" y1="3351.7458" x2="4768.734" y2="3204.1653" stroke="#59f0a5" stroke-width="5.0" />
<line x1="4768.734" y1="3204.1653" x2="4619.566" y2="3099.936" stroke="#59f0a5" stroke-width="5.0" />
<line x1="4619.566" y1="3099.936" x2="4475.9634" y2="2966.1902" stroke="#59f0a5" stroke-width="5.0" />
<line x1="4475.9634" y1="2966.1902" x2="5123.843" y2="2713.4556" stroke="#57f0a7" stroke-width="5.0" stroke-dasharray="30 30"/>
<line x1="5123.843" y1="2713.4556" x2="5138.871" y2="2901.6233" stroke="#57f0a7" stroke-width="5.0" />
<line x1="5138.871" y1="2901.6233" x2="5061.504" y2="3050.1272" stroke="#57f0a7" stroke-width="5.0" />
<line x1="5061.504" y1="3050.1272" x2="4977.458" y2="3198.6309" stroke="#56f0a8" stroke-width="5.0" />
<line x1="4977.458" y1="3198.6309" x2="4810.4785" y2="3179.2607" stroke="#56f0a8" stroke-width="5.0" />
<line x1="4810.4785" y1="3179.2607" x2="4672.999" y2="3085.178" stroke="#56f0a8" stroke-width="5.0" />
<line x1="4672.999" y1="3085.178" x2="4508.8027" y2="3015.999" stroke="#55f0a9" stroke-width="5.0" />
<line x1="4508.8027" y1="3015.999" x2="4532.7363" y2="2842.5903" stroke="#55f0a9" stroke-width="5.0" />
<line x1="4532.7363" y1="2842.5903" x2="5082.098" y2="2679.3271" stroke="#4af0b4" stroke-width="5.0" stroke-dasharray="30 30"/>
<line x1="5082.098" y1="2679.3271" x2="5123.843" y2="2872.1067" stroke="#49f0b5" stroke-width="5.0" />
<line x1="5123.843" y1="2872.1067" x2="5070.4097" y2="3030.757" stroke="#49f0b5" stroke-width="5.0" />
<line x1="5070.4097" y1="3030.757" x2="5004.731" y2="3204.1653" stroke="#47f0b7" stroke-width="5.0" />
<line x1="5004.731" y1="3204.1653" x2="4911.7793" y2="3347.134" stroke="#46f0b8" stroke-width="5.0" />
<line x1="4911.7793" y1="3347.134" x2="4753.7056" y2="3401.5542" stroke="#46f0b8" stroke-width="5.0" />
<line x1="4753.7056" y1="3401.5542" x2="4631.2544" y2="3282.5674" stroke="#46f0b8" stroke-width="5.0" />
<line x1="4631.2544" y1="3282.5674" x2="4467.0576" y2="3204.1653" stroke="#45f0b9" stroke-width="5.0" />
<line x1="4467.0576" y1="3204.1653" x2="3016.0083" y2="3832.3018" stroke="#44f0ba" stroke-width="5.0" stroke-dasharray="30 30"/>
<line x1="3016.0083" y1="3832.3018" x2="2836.7842" y2="3886.7212" stroke="#44f0ba" stroke-width="5.0" />
<line x1="2836.7842" y1="3886.7212" x2="2693.7383" y2="3788.0278" stroke="#43f0bb" stroke-width="5.0" />
<line x1="2693.7383" y1="3788.0278" x2="2678.7104" y2="3604.4766" stroke="#43f0bb" stroke-width="5.0" />
<line x1="2678.7104" y1="3604.4766" x2="2538.4478" y2="3505.7825" stroke="#42f0bc" stroke-width="5.0" />
<line x1="2538.4478" y1="3505.7825" x2="2574.07" y2="3669.0425" stroke="#42f0bc" stroke-width="5.0" />
<line x1="2574.07" y1="3669.0425" x2="2523.4197" y2="3510.3945" stroke="#3df0c1" stroke-width="5.0" />
<line x1="2523.4197" y1="3510.3945" x2="2466.6467" y2="3669.0425" stroke="#31f0cd" stroke-width="5.0" />
<line x1="2466.6467" y1="3669.0425" x2="2287.4224" y2="3609.0884" stroke="#28f0d6" stroke-width="5.0" />
<line x1="2287.4224" y1="3609.0884" x2="2153.2822" y2="3510.3945" stroke="#21f0dd" stroke-width="5.0" />
<line x1="2153.2822" y1="3510.3945" x2="2320.2615" y2="3455.9744" stroke="#21f0dd" stroke-width="5.0" />
<line x1="2320.2615" y1="3455.9744" x2="2469.4297" y2="3332.376" stroke="#1ef0e0" stroke-width="5.0" />
<line x1="2469.4297" y1="3332.376" x2="2604.1262" y2="3228.147" stroke="#1ef0e0" stroke-width="5.0" />
<line x1="2604.1262" y1="3228.147" x2="2729.3606" y2="3114.6943" stroke="#1ef0e0" stroke-width="5.0" />
<line x1="2729.3606" y1="3114.6943" x2="3048.8477" y2="2511.4512" stroke="#1df0e1" stroke-width="5.0" stroke-dasharray="30 30"/>
<line x1="3048.8477" y1="2511.4512" x2="3150.1484" y2="2372.169" stroke="#19f0e5" stroke-width="5.0" />
<line x1="3150.1484" y1="2372.169" x2="3326.5896" y2="2377.7034" stroke="#12f0ec" stroke-width="5.0" />
<line x1="3326.5896" y1="2377.7034" x2="3481.8804" y2="2436.7368" stroke="#12f0ec" stroke-width="5.0" />
<line x1="3469.6353" y1="2520.6753" x2="3484.6633" y2="2694.0854" stroke="#9cf062" stroke-width="5.0" />
<line x1="3484.6633" y1="2694.0854" x2="3314.3445" y2="2783.5574" stroke="#9bf063" stroke-width="5.0" />
<line x1="3314.3445" y1="2783.5574" x2="3147.3655" y2="2817.6858" stroke="#9bf063" stroke-width="5.0" />
<line x1="3147.3655" y1="2817.6858" x2="2803.9448" y2="3313.0059" stroke="#9bf063" stroke-width="5.0" stroke-dasharray="30 30"/>
<line x1="2803.9448" y1="3313.0059" x2="2753.2944" y2="3476.2668" stroke="#9bf063" stroke-width="5.0" />
<line x1="2753.2944" y1="3476.2668" x2="2711.5498" y2="3644.1384" stroke="#9bf063" stroke-width="5.0" />
<line x1="2711.5498" y1="3644.1384" x2="2684.2764" y2="3836.9136" stroke="#9af064" stroke-width="5.0" />
<line x1="2684.2764" y1="3836.9136" x2="2669.8047" y2="4010.3179" stroke="#9af064" stroke-width="5.0" />
<line x1="2669.8047" y1="4010.3179" x2="2604.1262" y2="4163.4297" stroke="#9af064" stroke-width="5.0" />
<line x1="2604.1262" y1="4163.4297" x2="1609.4866" y2="5197.38" stroke="#99f065" stroke-width="5.0" stroke-dasharray="30 30"/>
<line x1="1609.4866" y1="5197.38" x2="1445.2904" y2="5153.108" stroke="#99f065" stroke-width="5.0" />
<line x1="1445.2904" y1="5153.108" x2="1296.1223" y2="5232.4287" stroke="#98f066" stroke-width="5.0" />
<line x1="1296.1223" y1="5232.4287" x2="1170.8878" y2="5341.264" stroke="#98f066" stroke-width="5.0" />
<line x1="1170.8878" y1="5341.264" x2="991.66345" y2="5351.41" stroke="#98f066" stroke-width="5.0" />
<line x1="991.66345" y1="5351.41" x2="991.66345" y2="5529.419" stroke="#98f066" stroke-width="5.0" />
<line x1="991.66345" y1="5529.419" x2="1129.143" y2="5623.496" stroke="#98f066" stroke-width="5.0" />
<line x1="1129.143" y1="5623.496" x2="1293.3392" y2="5573.691" stroke="#98f066" stroke-width="5.0" />
<line x1="1293.3392" y1="5573.691" x2="1242.1323" y2="5410.439" stroke="#97f067" stroke-width="5.0" />
<line x1="1242.1323" y1="5410.439" x2="1030.6252" y2="5380.924" stroke="#97f067" stroke-width="5.0" />
<line x1="1030.6252" y1="5380.924" x2="1114.1149" y2="5529.419" stroke="#97f067" stroke-width="5.0" />
<line x1="1114.1149" y1="5529.419" x2="1251.5945" y2="5632.7197" stroke="#8ef070" stroke-width="5.0" />
<line x1="1251.5945" y1="5632.7197" x2="1406.3286" y2="5726.7964" stroke="#8ef070" stroke-width="5.0" />
<line x1="1406.3286" y1="5726.7964" x2="1591.6754" y2="5736.9424" stroke="#8ef070" stroke-width="5.0" />
<line x1="1591.6754" y1="5736.9424" x2="1687.4103" y2="5578.3027" stroke="#8bf073" stroke-width="5.0" />
<line x1="1687.4103" y1="5578.3027" x2="1571.0814" y2="5460.2446" stroke="#8bf073" stroke-width="5.0" />
<line x1="1571.0814" y1="5460.2446" x2="1558.8362" y2="5291.458" stroke="#8bf073" stroke-width="5.0" />
<line x1="1558.8362" y1="5291.458" x2="1412.4512" y2="5207.5254" stroke="#8bf073" stroke-width="5.0" />
<line x1="1412.4512" y1="5207.5254" x2="1245.4719" y2="5217.6714" stroke="#8bf073" stroke-width="5.0" />
<line x1="1245.4719" y1="5217.6714" x2="1072.3701" y2="5257.3315" stroke="#8af074" stroke-width="5.0" />
<line x1="1072.3701" y1="5257.3315" x2="1107.9923" y2="5094.078" stroke="#80f07e" stroke-width="5.0" />
<line x1="1107.9923" y1="5094.078" x2="1281.094" y2="5079.321" stroke="#7ff07f" stroke-width="5.0" />
<line x1="1281.094" y1="5079.321" x2="1454.1958" y2="5118.9814" stroke="#7ff07f" stroke-width="5.0" />
<line x1="1454.1958" y1="5118.9814" x2="1615.6091" y2="5192.7686" stroke="#7ff07f" stroke-width="5.0" />
<line x1="1615.6091" y1="5192.7686" x2="1788.7109" y2="5222.283" stroke="#7ef080" stroke-width="5.0" />
<line x1="1788.7109" y1="5222.283" x2="3380.0232" y2="6711.824" stroke="#7cf082" stroke-width="5.0" stroke-dasharray="30 30"/>
<line x1="3380.0232" y1="6711.824" x2="3577.0586" y2="6756.094" stroke="#7cf082" stroke-width="5.0" />
<line x1="3577.0586" y1="6756.094" x2="3717.878" y2="6850.169" stroke="#7cf082" stroke-width="5.0" />
<line x1="3717.878" y1="6850.169" x2="4589.5093" y2="6939.6313" stroke="#7bf083" stroke-width="5.0" stroke-dasharray="30 30"/>
<line x1="4589.5093" y1="6939.6313" x2="4750.9224" y2="7042.9287" stroke="#7bf083" stroke-width="5.0" />
<line x1="4750.9224" y1="7042.9287" x2="4750.9224" y2="7236.609" stroke="#78f086" stroke-width="5.0" />
<line x1="4750.9224" y1="7236.609" x2="4568.359" y2="7161.904" stroke="#6af094" stroke-width="5.0" stroke-dasharray="30 30"/>
<line x1="4568.359" y1="7161.904" x2="4458.1523" y2="7033.7056" stroke="#67f097" stroke-width="5.0" />
<line x1="4458.1523" y1="7033.7056" x2="4287.8335" y2="7063.2188" stroke="#66f098" stroke-width="5.0" />
<line x1="4287.8335" y1="7063.2188" x2="4482.086" y2="6929.4863" stroke="#61f09d" stroke-width="5.0" stroke-dasharray="30 30"/>
<line x1="4482.086" y1="6929.4863" x2="4646.282" y2="6958.9995" stroke="#61f09d" stroke-width="5.0" />
<line x1="4646.282" y1="6958.9995" x2="4783.7617" y2="7067.83" stroke="#61f09d" stroke-width="5.0" />
<line x1="4783.7617" y1="7067.83" x2="4944.6187" y2="7117.634" stroke="#61f09d" stroke-width="5.0" />
<line x1="4944.6187" y1="7117.634" x2="4774.8564" y2="7048.462" stroke="#60f09e" stroke-width="5.0" />
<line x1="4774.8564" y1="7048.462" x2="4598.415" y2="6994.047" stroke="#60f09e" stroke-width="5.0" />
<line x1="4598.415" y1="6994.047" x2="4428.096" y2="6998.658" stroke="#60f09e" stroke-width="5.0" />
<line x1="4428.096" y1="6998.658" x2="4252.2114" y2="6988.513" stroke="#60f09e" stroke-width="5.0" />
<line x1="4252.2114" y1="6988.513" x2="3329.3728" y2="7433.9785" stroke="#5ef0a0" stroke-width="5.0" stroke-dasharray="30 30"/>
<line x1="3329.3728" y1="7433.9785" x2="3708.4155" y2="7582.4653" stroke="#5cf0a2" stroke-width="5.0" />
<line x1="3708.4155" y1="7582.4653" x2="3843.1123" y2="7414.61" stroke="#5cf0a2" stroke-width="5.0" />
<line x1="3843.1123" y1="7414.61" x2="4428.096" y2="7018.949" stroke="#5bf0a3" stroke-width="5.0" stroke-dasharray="30 30"/>
<line x1="4428.096" y1="7018.949" x2="4574.4814" y2="6909.1953" stroke="#5bf0a3" stroke-width="5.0" />
<line x1="4574.4814" y1="6909.1953" x2="4711.961" y2="6810.5103" stroke="#5bf0a3" stroke-width="5.0" />
<line x1="4711.961" y1="6810.5103" x2="4867.2515" y2="6736.726" stroke="#5bf0a3" stroke-width="5.0" />
<line x1="4867.2515" y1="6736.726" x2="3096.715" y2="2402.6082" stroke="#14f0ea" stroke-width="5.0" stroke-dasharray="30 30"/>
<line x1="3096.715" y1="2402.6082" x2="3254.7888" y2="2352.7986" stroke="#11f0ed" stroke-width="5.0" />
<line x1="3254.7888" y1="2352.7986" x2="3418.9849" y2="2392.462" stroke="#11f0ed" stroke-width="5.0" />
<circle cx="3619.613" cy="2571.0928" r="124.58623" stroke="#a4f05a" stroke-width="10.0" fill="#0f0" fill-opacity="0.1"/>
<circle cx="1325.9963" cy="5161.828" r="83.05749" stroke="#99f065" stroke-width="10.0" fill="#00f" fill-opacity="0.1"/>
<circle cx="951.3195" cy="5554.444" r="166.11497" stroke="#98f066" stroke-width="10.0" fill="#f00" fill-opacity="0.1"/>
<circle cx="1600.3126" cy="5736.934" r="124.58623" stroke="#8ef070" stroke-width="10.0" fill="#ff0" fill-opacity="0.1"/>
<circle cx="1522.4529" cy="5397.6084" r="207.64372" stroke="#8bf073" stroke-width="10.0" fill="#00f" fill-opacity="0.1"/>
<circle cx="4781.372" cy="7044.3633" r="83.05749" stroke="#7bf083" stroke-width="10.0" fill="#00f" fill-opacity="0.1"/>
<circle cx="4560.746" cy="6866.103" r="83.05749" stroke="#5bf0a3" stroke-width="10.0" fill="#0f0" fill-opacity="0.1"/>
<circle cx="4758.826" cy="3133.3257" r="315.61847" stroke="#4cf0b2" stroke-width="10.0" fill="#0f0" fill-opacity="0.1"/>
<circle cx="2546.179" cy="3646.707" r="83.05749" stroke="#42f0bc" stroke-width="10.0" fill="#f00" fill-opacity="0.1"/>
<circle cx="3586.2007" cy="2550.5361" r="124.58623" stroke="#a3f05b" stroke-width="10.0" fill="#0f0" fill-opacity="0.1"/>
<circle cx="1337.0985" cy="5185.2266" r="83.05749" stroke="#99f065" stroke-width="10.0" fill="#00f" fill-opacity="0.1"/>
<circle cx="946.188" cy="5566.2207" r="166.11497" stroke="#98f066" stroke-width="10.0" fill="#f00" fill-opacity="0.1"/>
<circle cx="1501.5533" cy="5377.325" r="207.64372" stroke="#97f067" stroke-width="10.0" fill="#00f" fill-opacity="0.1"/>
<circle cx="1583.6741" cy="5730.813" r="124.58623" stroke="#8ef070" stroke-width="10.0" fill="#ff0" fill-opacity="0.1"/>
<circle cx="4768.1113" cy="7043.706" r="83.05749" stroke="#7bf083" stroke-width="10.0" fill="#00f" fill-opacity="0.1"/>
<circle cx="4742.474" cy="7052.952" r="83.05749" stroke="#61f09d" stroke-width="10.0" fill="#00f" fill-opacity="0.1"/>
<circle cx="3374.6643" cy="7503.036" r="83.05749" stroke="#5ff09f" stroke-width="10.0" fill="#f00" fill-opacity="0.1"/>
<circle cx="4749.168" cy="3482.227" r="83.05749" stroke="#45f0b9" stroke-width="10.0" fill="#00f" fill-opacity="0.1"/>
<circle cx="3163.258" cy="2442.359" r="124.58623" stroke="#18f0e6" stroke-width="10.0" fill="#0f0" fill-opacity="0.1"/>
<circle cx="3611.2637" cy="2576.5881" r="124.58623" stroke="#a4f05a" stroke-width="10.0" fill="#0f0" fill-opacity="0.1"/>
<circle cx="1499.4725" cy="5407.1" r="207.64372" stroke="#99f065" stroke-width="10.0" fill="#00f" fill-opacity="0.1"/>
<circle cx="1351.604" cy="5164.8477" r="83.05749" stroke="#99f065" stroke-width="10.0" fill="#00f" fill-opacity="0.1"/>
<circle cx="982.19226" cy="5550.301" r="166.11497" stroke="#98f066" stroke-width="10.0" fill="#f00" fill-opacity="0.1"/>
<circle cx="1574.1176" cy="5729.133" r="124.58623" stroke="#8ef070" stroke-width="10.0" fill="#ff0" fill-opacity="0.1"/>
<circle cx="4775.749" cy="7043.7593" r="83.05749" stroke="#7bf083" stroke-width="10.0" fill="#00f" fill-opacity="0.1"/>
<circle cx="2514.9614" cy="3666.8438" r="83.05749" stroke="#42f0bc" stroke-width="10.0" fill="#f00" fill-opacity="0.1"/>
<circle cx="2247.9612" cy="3437.9138" r="83.05749" stroke="#22f0dc" stroke-width="10.0" fill="#ff0" fill-opacity="0.1"/>
<circle cx="3153.4976" cy="2453.4568" r="124.58623" stroke="#19f0e5" stroke-width="10.0" fill="#0f0" fill-opacity="0.1"/>
<circle cx="3608.4998" cy="2552.6348" r="124.58623" stroke="#9ff05f" stroke-width="10.0" fill="#0f0" fill-opacity="0.1"/>
<circle cx="1329.3981" cy="5148.777" r="83.05749" stroke="#99f065" stroke-width="10.0" fill="#00f" fill-opacity="0.1"/>
<circle cx="985.23816" cy="5560.7715" r="166.11497" stroke="#98f066" stroke-width="10.0" fill="#f00" fill-opacity="0.1"/>
<circle cx="1516.1359" cy="5403.857" r="207.64372" stroke="#98f066" stroke-width="10.0" fill="#00f" fill-opacity="0.1"/>
<circle cx="1592.4042" cy="5738.974" r="124.58623" stroke="#8ef070" stroke-width="10.0" fill="#ff0" fill-opacity="0.1"/>
<circle cx="4782.095" cy="7042.9536" r="83.05749" stroke="#7bf083" stroke-width="10.0" fill="#00f" fill-opacity="0.1"/>
<circle cx="4783.302" cy="7032.9004" r="83.05749" stroke="#61f09d" stroke-width="10.0" fill="#00f" fill-opacity="0.1"/>
<circle cx="3381.5793" cy="7506.964" r="83.05749" stroke="#5ef0a0" stroke-width="10.0" fill="#f00" fill-opacity="0.1"/>
<circle cx="3152.6794" cy="2477.4346" r="124.58623" stroke="#13f0eb" stroke-width="10.0" fill="#0f0" fill-opacity="0.1"/>
</svg>
