<?xml version="1.0" standalone="no"?>
<!DOCTYPE svg PUBLIC "-//W3C//DTD SVG 1.1//EN" "http://www.w3.org/Graphics/SVG/1.1/DTD/svg11.dtd">
<svg opacity="20%" width="30cm" height="30cm" version="1.1" viewBox="0 0 1000 1000" xmlns="http://www.w3.org/2000/svg" xmlns:xlink="http://www.w3.org/1999/xlink">
<desc>DrawTrails of automics data, Mon Jul 25 12:28:30 BST 2011</desc>
<filter id="desaturate"  primitiveUnits="objectBoundingBox">
<feImage x="0%" y="0%" width="100%" height="100%" xlink:href="altontowers-zoom15.png"/>
<feColorMatrix type="matrix" values="0.3333 0.3333 0.3333 0 0 0.3333 0.3333 0.3333 0 0 0.3333 0.3333 0.3333 0 0 0      0      0      1 0"/>
<feColorMatrix type="matrix" values="0.1 0 0 0 0 0 0.1 0 0 0 0 0 0.1 0 0 0      0      0      1 0"/>
</filter>
<rect x="-264.37028285176257" y="-264.37028285176257" width="1528.7405657035251" height="1528.7405657035251" filter="url(#desaturate)"/>
<circle cx="133.5084" cy="517.33997" r="8.305749" stroke="#00f" stroke-width="0.0" fill="#00f"  fill-opacity="15%" stroke-opacity="20%"/>
<circle cx="140.07626" cy="523.24286" r="8.305749" stroke="#0f0" stroke-width="0.0" fill="#0f0"  fill-opacity="15%" stroke-opacity="20%"/>
<circle cx="96.494675" cy="554.4176" r="16.611498" stroke="#f00" stroke-width="0.0" fill="#f00"  fill-opacity="15%" stroke-opacity="20%"/>
<circle cx="345.1824" cy="681.051" r="12.458623" stroke="#0f0" stroke-width="0.0" fill="#0f0"  fill-opacity="15%" stroke-opacity="20%"/>
<circle cx="338.61456" cy="751.3294" r="8.305749" stroke="#f00" stroke-width="0.0" fill="#f00"  fill-opacity="15%" stroke-opacity="20%"/>
<circle cx="293.53018" cy="737.4952" r="8.305749" stroke="#00f" stroke-width="0.0" fill="#00f"  fill-opacity="15%" stroke-opacity="20%"/>
<circle cx="455.3887" cy="684.5557" r="8.305749" stroke="#0f0" stroke-width="0.0" fill="#0f0"  fill-opacity="15%" stroke-opacity="20%"/>
<circle cx="476.53943" cy="703.37054" r="8.305749" stroke="#00f" stroke-width="0.0" fill="#00f"  fill-opacity="15%" stroke-opacity="20%"/>
<circle cx="464.62823" cy="735.005" r="4.1528745" stroke="#ff0" stroke-width="0.0" fill="#ff0"  fill-opacity="15%" stroke-opacity="20%"/>
<circle cx="489.11853" cy="751.3294" r="12.458623" stroke="#f00" stroke-width="0.0" fill="#f00"  fill-opacity="15%" stroke-opacity="20%"/>
<circle cx="476.87338" cy="348.54904" r="8.305749" stroke="#00f" stroke-width="0.0" fill="#00f"  fill-opacity="15%" stroke-opacity="20%"/>
<circle cx="469.69327" cy="372.34622" r="12.458623" stroke="#00f" stroke-width="0.0" fill="#00f"  fill-opacity="15%" stroke-opacity="20%"/>
<circle cx="509.71262" cy="326.78094" r="12.458623" stroke="#0f0" stroke-width="0.0" fill="#0f0"  fill-opacity="15%" stroke-opacity="20%"/>
<circle cx="485.8346" cy="337.665" r="12.458623" stroke="#0f0" stroke-width="0.0" fill="#0f0"  fill-opacity="15%" stroke-opacity="20%"/>
<circle cx="477.15167" cy="314.9745" r="31.561846" stroke="#0f0" stroke-width="0.0" fill="#0f0"  fill-opacity="15%" stroke-opacity="20%"/>
<circle cx="508.4881" cy="326.31976" r="5.814024" stroke="#0f0" stroke-width="0.0" fill="#0f0"  fill-opacity="15%" stroke-opacity="20%"/>
<circle cx="525.52" cy="275.31186" r="16.611498" stroke="#0f0" stroke-width="0.0" fill="#0f0"  fill-opacity="15%" stroke-opacity="20%"/>
<circle cx="785.00574" cy="340.6166" r="8.305749" stroke="#00f" stroke-width="0.0" fill="#00f"  fill-opacity="15%" stroke-opacity="20%"/>
<circle cx="719.6055" cy="269.40854" r="12.458623" stroke="#f00" stroke-width="0.0" fill="#f00"  fill-opacity="15%" stroke-opacity="20%"/>
<circle cx="773.92944" cy="347.07324" r="16.611498" stroke="#0f0" stroke-width="0.0" fill="#0f0"  fill-opacity="15%" stroke-opacity="20%"/>
<circle cx="867.38214" cy="552.9419" r="16.611498" stroke="#0f0" stroke-width="0.0" fill="#0f0"  fill-opacity="15%" stroke-opacity="20%"/>
<circle cx="854.8587" cy="535.6021" r="8.305749" stroke="#0f0" stroke-width="0.0" fill="#0f0"  fill-opacity="15%" stroke-opacity="20%"/>
<circle cx="875.4528" cy="586.0533" r="16.611498" stroke="#0f0" stroke-width="0.0" fill="#0f0"  fill-opacity="15%" stroke-opacity="20%"/>
<circle cx="924.4334" cy="596.47546" r="12.458623" stroke="#00f" stroke-width="0.0" fill="#00f"  fill-opacity="15%" stroke-opacity="20%"/>
<circle cx="923.2645" cy="665.74084" r="16.611498" stroke="#f00" stroke-width="0.0" fill="#f00"  fill-opacity="15%" stroke-opacity="20%"/>
<circle cx="903.8393" cy="610.77136" r="20.764372" stroke="#0f0" stroke-width="0.0" fill="#0f0"  fill-opacity="15%" stroke-opacity="20%"/>
<circle cx="359.54263" cy="318.3873" r="20.764372" stroke="#00f" stroke-width="0.0" fill="#00f"  fill-opacity="15%" stroke-opacity="20%"/>
<circle cx="226.34886" cy="344.12164" r="8.305749" stroke="#ff0" stroke-width="0.0" fill="#ff0"  fill-opacity="15%" stroke-opacity="20%"/>
<circle cx="641.40356" cy="276.32648" r="16.611498" stroke="#f00" stroke-width="0.0" fill="#f00"  fill-opacity="15%" stroke-opacity="20%"/>
<circle cx="671.2372" cy="267.9327" r="8.305749" stroke="#ff0" stroke-width="0.0" fill="#ff0"  fill-opacity="15%" stroke-opacity="20%"/>
<circle cx="157.99869" cy="573.23303" r="12.458623" stroke="#ff0" stroke-width="0.0" fill="#ff0"  fill-opacity="15%" stroke-opacity="20%"/>
<circle cx="149.82428" cy="539.25085" r="20.764372" stroke="#00f" stroke-width="0.0" fill="#00f"  fill-opacity="15%" stroke-opacity="20%"/>
<circle cx="251.71518" cy="330.64572" r="12.458623" stroke="#0f0" stroke-width="0.0" fill="#0f0"  fill-opacity="15%" stroke-opacity="20%"/>
<circle cx="359.60352" cy="255.17506" r="12.458623" stroke="#0f0" stroke-width="0.0" fill="#0f0"  fill-opacity="15%" stroke-opacity="20%"/>
<circle cx="314.50912" cy="246.0009" r="12.458623" stroke="#0f0" stroke-width="0.0" fill="#0f0"  fill-opacity="15%" stroke-opacity="20%"/>
<circle cx="263.69656" cy="357.95724" r="8.305749" stroke="#00f" stroke-width="0.0" fill="#00f"  fill-opacity="15%" stroke-opacity="20%"/>
<circle cx="290.08868" cy="395.56955" r="8.305749" stroke="#0f0" stroke-width="0.0" fill="#0f0"  fill-opacity="15%" stroke-opacity="20%"/>
<circle cx="557.8027" cy="268.94733" r="8.305749" stroke="#00f" stroke-width="0.0" fill="#00f"  fill-opacity="15%" stroke-opacity="20%"/>
<circle cx="833.09576" cy="494.5582" r="8.305749" stroke="#f00" stroke-width="0.0" fill="#f00"  fill-opacity="15%" stroke-opacity="20%"/>
<circle cx="253.23251" cy="365.42844" r="8.305749" stroke="#f00" stroke-width="0.0" fill="#f00"  fill-opacity="15%" stroke-opacity="20%"/>
<line x1="360.98978" y1="272.91364" x2="358.3181" y2="245.14954" stroke="#b8f046" stroke-width="0.5" />
<line x1="358.3181" y1="245.14954" x2="347.8541" y2="231.31354" stroke="#b3f04b" stroke-width="0.5" />
<line x1="347.8541" y1="231.31354" x2="331.76843" y2="237.2169" stroke="#b2f04c" stroke-width="0.5" />
<line x1="331.76843" y1="237.2169" x2="319.80157" y2="249.11584" stroke="#b1f04d" stroke-width="0.5" />
<line x1="319.80157" y1="249.11584" x2="309.9498" y2="264.4276" stroke="#b1f04d" stroke-width="0.5" />
<line x1="309.9498" y1="264.4276" x2="303.38196" y2="280.75394" stroke="#b1f04d" stroke-width="0.5" />
<line x1="303.38196" y1="280.75394" x2="275.94168" y2="343.66046" stroke="#b0f04e" stroke-width="0.5" stroke-dasharray="3 3"/>
<line x1="275.94168" y1="343.66046" x2="262.47205" y2="353.99103" stroke="#b0f04e" stroke-width="0.5" />
<line x1="262.47205" y1="353.99103" x2="267.53708" y2="369.85583" stroke="#b0f04e" stroke-width="0.5" />
<line x1="267.53708" y1="369.85583" x2="265.1437" y2="386.6429" stroke="#b0f04e" stroke-width="0.5" />
<line x1="265.1437" y1="386.6429" x2="262.19373" y2="403.52216" stroke="#b0f04e" stroke-width="0.5" />
<line x1="262.19373" y1="403.52216" x2="257.1287" y2="420.3091" stroke="#aff04f" stroke-width="0.5" />
<line x1="257.1287" y1="420.3091" x2="165.4571" y2="518.26227" stroke="#aef050" stroke-width="0.5" stroke-dasharray="3 3"/>
<line x1="165.4571" y1="518.26227" x2="149.31578" y2="511.89816" stroke="#aef050" stroke-width="0.5" />
<line x1="149.31578" y1="511.89816" x2="132.61784" y2="513.8351" stroke="#aef050" stroke-width="0.5" />
<line x1="132.61784" y1="513.8351" x2="123.32267" y2="527.6701" stroke="#aef050" stroke-width="0.5" />
<line x1="123.32267" y1="527.6701" x2="104.50968" y2="529.6992" stroke="#aef050" stroke-width="0.5" />
<line x1="104.50968" y1="529.6992" x2="90.205124" y2="541.0439" stroke="#adf051" stroke-width="0.5" />
<line x1="90.205124" y1="541.0439" x2="93.76735" y2="557.83026" stroke="#adf051" stroke-width="0.5" />
<line x1="93.76735" y1="557.83026" x2="110.79923" y2="555.8934" stroke="#adf051" stroke-width="0.5" />
<line x1="110.79923" y1="555.8934" x2="127.21886" y2="552.9419" stroke="#adf051" stroke-width="0.5" />
<line x1="127.21886" y1="552.9419" x2="114.97371" y2="540.5827" stroke="#adf051" stroke-width="0.5" />
<line x1="114.97371" y1="540.5827" x2="98.554085" y2="545.0099" stroke="#adf051" stroke-width="0.5" />
<line x1="98.554085" y1="545.0099" x2="107.7936" y2="559.8594" stroke="#adf051" stroke-width="0.5" />
<line x1="107.7936" y1="559.8594" x2="113.804855" y2="543.9953" stroke="#acf052" stroke-width="0.5" />
<line x1="113.804855" y1="543.9953" x2="121.541565" y2="559.3982" stroke="#aaf054" stroke-width="0.5" />
<line x1="121.541565" y1="559.3982" x2="134.67726" y2="569.7282" stroke="#aaf054" stroke-width="0.5" />
<line x1="134.67726" y1="569.7282" x2="150.81859" y2="573.6942" stroke="#aaf054" stroke-width="0.5" />
<line x1="150.81859" y1="573.6942" x2="167.2382" y2="570.7428" stroke="#a8f056" stroke-width="0.5" />
<line x1="167.2382" y1="570.7428" x2="170.52214" y2="554.4176" stroke="#a8f056" stroke-width="0.5" />
<line x1="170.52214" y1="554.4176" x2="160.39206" y2="541.0439" stroke="#a8f056" stroke-width="0.5" />
<line x1="160.39206" y1="541.0439" x2="161.83922" y2="523.24286" stroke="#a7f057" stroke-width="0.5" />
<line x1="161.83922" y1="523.24286" x2="179.20506" y2="522.22833" stroke="#a7f057" stroke-width="0.5" />
<line x1="179.20506" y1="522.22833" x2="332.325" y2="679.1142" stroke="#a4f05a" stroke-width="0.5" stroke-dasharray="3 3"/>
<line x1="332.325" y1="679.1142" x2="333.82782" y2="696.45337" stroke="#a4f05a" stroke-width="0.5" />
<line x1="333.82782" y1="696.45337" x2="337.11176" y2="713.2391" stroke="#a4f05a" stroke-width="0.5" />
<line x1="337.11176" y1="713.2391" x2="330.2656" y2="728.549" stroke="#a4f05a" stroke-width="0.5" />
<line x1="330.2656" y1="728.549" x2="346.07297" y2="734.5439" stroke="#a4f05a" stroke-width="0.5" />
<line x1="346.07297" y1="734.5439" x2="361.936" y2="729.56354" stroke="#a4f05a" stroke-width="0.5" />
<line x1="361.936" y1="729.56354" x2="444.59073" y2="698.8513" stroke="#a3f05b" stroke-width="0.5" stroke-dasharray="3 3"/>
<line x1="444.59073" y1="698.8513" x2="461.066" y2="694.4243" stroke="#a3f05b" stroke-width="0.5" />
<line x1="461.066" y1="694.4243" x2="476.53943" y2="702.81714" stroke="#a3f05b" stroke-width="0.5" />
<line x1="476.53943" y1="702.81714" x2="493.0147" y2="709.7344" stroke="#a3f05b" stroke-width="0.5" />
<line x1="493.0147" y1="709.7344" x2="509.71262" y2="713.7002" stroke="#a2f05c" stroke-width="0.5" />
<line x1="509.71262" y1="713.7002" x2="516.28046" y2="735.4662" stroke="#a2f05c" stroke-width="0.5" stroke-dasharray="3 3"/>
<line x1="516.28046" y1="735.4662" x2="492.06848" y2="746.90247" stroke="#99f065" stroke-width="0.5" stroke-dasharray="3 3"/>
<line x1="492.06848" y1="746.90247" x2="500.7514" y2="756.30975" stroke="#93f06b" stroke-width="0.5" stroke-dasharray="3 3"/>
<line x1="500.7514" y1="756.30975" x2="482.55066" y2="754.2807" stroke="#92f06c" stroke-width="0.5" />
<line x1="482.55066" y1="754.2807" x2="458.33868" y2="745.88794" stroke="#87f077" stroke-width="0.5" stroke-dasharray="3 3"/>
<line x1="458.33868" y1="745.88794" x2="459.5632" y2="729.1024" stroke="#82f07c" stroke-width="0.5" />
<line x1="459.5632" y1="729.1024" x2="476.2611" y2="731.50037" stroke="#81f07d" stroke-width="0.5" />
<line x1="476.2611" y1="731.50037" x2="490.28738" y2="721.1707" stroke="#81f07d" stroke-width="0.5" />
<line x1="490.28738" y1="721.1707" x2="490.00906" y2="704.29285" stroke="#81f07d" stroke-width="0.5" />
<line x1="490.00906" y1="704.29285" x2="473.86774" y2="699.86584" stroke="#80f07e" stroke-width="0.5" />
<line x1="473.86774" y1="699.86584" x2="458.33868" y2="693.96313" stroke="#80f07e" stroke-width="0.5" />
<line x1="458.33868" y1="693.96313" x2="441.3068" y2="694.88544" stroke="#80f07e" stroke-width="0.5" />
<line x1="441.3068" y1="694.88544" x2="425.49942" y2="701.8949" stroke="#80f07e" stroke-width="0.5" />
<line x1="425.49942" y1="701.8949" x2="369.6727" y2="683.0801" stroke="#7df081" stroke-width="0.5" stroke-dasharray="3 3"/>
<line x1="369.6727" y1="683.0801" x2="353.86533" y2="676.62396" stroke="#7df081" stroke-width="0.5" />
<line x1="353.86533" y1="676.62396" x2="343.6796" y2="689.9973" stroke="#7df081" stroke-width="0.5" />
<line x1="343.6796" y1="689.9973" x2="335.33066" y2="704.8462" stroke="#7df081" stroke-width="0.5" />
<line x1="335.33066" y1="704.8462" x2="332.04672" y2="722.093" stroke="#7cf082" stroke-width="0.5" />
<line x1="332.04672" y1="722.093" x2="326.9817" y2="738.4175" stroke="#7cf082" stroke-width="0.5" />
<line x1="326.9817" y1="738.4175" x2="323.69775" y2="756.30975" stroke="#7cf082" stroke-width="0.5" />
<line x1="323.69775" y1="756.30975" x2="312.62146" y2="768.6683" stroke="#7cf082" stroke-width="0.5" />
<line x1="312.62146" y1="768.6683" x2="324.58832" y2="752.34393" stroke="#6af094" stroke-width="0.5" stroke-dasharray="3 3"/>
<line x1="324.58832" y1="752.34393" x2="331.76843" y2="735.4662" stroke="#6af094" stroke-width="0.5" />
<line x1="331.76843" y1="735.4662" x2="336.2212" y2="719.1417" stroke="#6af094" stroke-width="0.5" />
<line x1="336.2212" y1="719.1417" x2="339.83908" y2="702.356" stroke="#6af094" stroke-width="0.5" />
<line x1="339.83908" y1="702.356" x2="337.724" y2="682.5267" stroke="#6af094" stroke-width="0.5" />
<line x1="337.724" y1="682.5267" x2="334.4401" y2="666.202" stroke="#6af094" stroke-width="0.5" />
<line x1="334.4401" y1="666.202" x2="332.04672" y2="647.9404" stroke="#69f095" stroke-width="0.5" />
<line x1="332.04672" y1="647.9404" x2="464.34995" y2="372.34622" stroke="#67f097" stroke-width="0.5" stroke-dasharray="3 3"/>
<line x1="464.34995" y1="372.34622" x2="453.8859" y2="387.19632" stroke="#67f097" stroke-width="0.5" />
<line x1="453.8859" y1="387.19632" x2="454.16418" y2="365.88965" stroke="#67f097" stroke-width="0.5" />
<line x1="454.16418" y1="365.88965" x2="442.25302" y2="377.7882" stroke="#67f097" stroke-width="0.5" />
<line x1="442.25302" y1="377.7882" x2="451.15857" y2="392.08487" stroke="#66f098" stroke-width="0.5" />
<line x1="451.15857" y1="392.08487" x2="434.18234" y2="392.08487" stroke="#65f099" stroke-width="0.5" />
<line x1="434.18234" y1="392.08487" x2="431.78897" y2="373.36084" stroke="#65f099" stroke-width="0.5" />
<line x1="431.78897" y1="373.36084" x2="440.41623" y2="357.95724" stroke="#64f09a" stroke-width="0.5" />
<line x1="440.41623" y1="357.95724" x2="457.44812" y2="356.02026" stroke="#64f09a" stroke-width="0.5" />
<line x1="457.44812" y1="356.02026" x2="457.16983" y2="372.8074" stroke="#63f09b" stroke-width="0.5" />
<line x1="457.16983" y1="372.8074" x2="464.90652" y2="388.11868" stroke="#62f09c" stroke-width="0.5" />
<line x1="464.90652" y1="388.11868" x2="468.5244" y2="371.79282" stroke="#60f09e" stroke-width="0.5" />
<line x1="468.5244" y1="371.79282" x2="476.53943" y2="356.48145" stroke="#5ff09f" stroke-width="0.5" />
<line x1="476.53943" y1="356.48145" x2="474.48" y2="339.69424" stroke="#5ff09f" stroke-width="0.5" />
<line x1="474.48" y1="339.69424" x2="458.33868" y2="332.7764" stroke="#5ff09f" stroke-width="0.5" />
<line x1="458.33868" y1="332.7764" x2="445.20297" y2="321.3389" stroke="#5ff09f" stroke-width="0.5" />
<line x1="445.20297" y1="321.3389" x2="368.78214" y2="267.9327" stroke="#5ff09f" stroke-width="0.5" stroke-dasharray="3 3"/>
<line x1="368.78214" y1="267.9327" x2="355.64645" y2="257.50964" stroke="#5ef0a0" stroke-width="0.5" />
<line x1="355.64645" y1="257.50964" x2="355.92474" y2="239.70738" stroke="#5ef0a0" stroke-width="0.5" />
<line x1="355.92474" y1="239.70738" x2="349.69086" y2="255.57262" stroke="#59f0a5" stroke-width="0.5" />
<line x1="349.69086" y1="255.57262" x2="342.1768" y2="270.88437" stroke="#59f0a5" stroke-width="0.5" />
<line x1="342.1768" y1="270.88437" x2="322.19495" y2="278.81693" stroke="#59f0a5" stroke-width="0.5" />
<line x1="322.19495" y1="278.81693" x2="305.77533" y2="286.19604" stroke="#59f0a5" stroke-width="0.5" />
<line x1="305.77533" y1="286.19604" x2="278.89166" y2="333.6988" stroke="#59f0a5" stroke-width="0.5" stroke-dasharray="3 3"/>
<line x1="278.89166" y1="333.6988" x2="272.32382" y2="349.10245" stroke="#58f0a6" stroke-width="0.5" />
<line x1="272.32382" y1="349.10245" x2="257.1287" y2="357.03488" stroke="#58f0a6" stroke-width="0.5" />
<line x1="257.1287" y1="357.03488" x2="240.70908" y2="344.58282" stroke="#58f0a6" stroke-width="0.5" />
<line x1="240.70908" y1="344.58282" x2="256.23816" y2="353.06866" stroke="#58f0a6" stroke-width="0.5" />
<line x1="256.23816" y1="353.06866" x2="258.29755" y2="369.85583" stroke="#58f0a6" stroke-width="0.5" />
<line x1="258.29755" y1="369.85583" x2="255.01363" y2="353.52985" stroke="#57f0a7" stroke-width="0.5" />
<line x1="255.01363" y1="353.52985" x2="250.83916" y2="370.87042" stroke="#52f0ac" stroke-width="0.5" />
<line x1="250.83916" y1="370.87042" x2="234.69783" y2="366.35083" stroke="#4ef0b0" stroke-width="0.5" />
<line x1="234.69783" y1="366.35083" x2="227.23941" y2="351.59286" stroke="#4bf0b3" stroke-width="0.5" />
<line x1="227.23941" y1="351.59286" x2="235.31007" y2="335.72803" stroke="#49f0b5" stroke-width="0.5" />
<line x1="235.31007" y1="335.72803" x2="250.56085" y2="342.64584" stroke="#47f0b7" stroke-width="0.5" />
<line x1="250.56085" y1="342.64584" x2="263.69656" y2="353.99103" stroke="#46f0b8" stroke-width="0.5" />
<line x1="263.69656" y1="353.99103" x2="269.0399" y2="376.7736" stroke="#46f0b8" stroke-width="0.5" />
<line x1="269.0399" y1="376.7736" x2="276.4983" y2="391.6237" stroke="#46f0b8" stroke-width="0.5" />
<line x1="276.4983" y1="391.6237" x2="293.80847" y2="390.1479" stroke="#37f0c7" stroke-width="0.5" />
<line x1="293.80847" y1="390.1479" x2="309.6715" y2="384.70593" stroke="#37f0c7" stroke-width="0.5" />
<line x1="309.6715" y1="384.70593" x2="318.02048" y2="370.31702" stroke="#37f0c7" stroke-width="0.5" />
<line x1="318.02048" y1="370.31702" x2="339.83908" y2="326.78094" stroke="#36f0c8" stroke-width="0.5" stroke-dasharray="3 3"/>
<line x1="339.83908" y1="326.78094" x2="343.12302" y2="309.9936" stroke="#36f0c8" stroke-width="0.5" />
<line x1="343.12302" y1="309.9936" x2="348.46634" y2="294.12857" stroke="#36f0c8" stroke-width="0.5" />
<line x1="348.46634" y1="294.12857" x2="350.24747" y2="276.78766" stroke="#36f0c8" stroke-width="0.5" />
<line x1="350.24747" y1="276.78766" x2="351.47195" y2="259.5389" stroke="#36f0c8" stroke-width="0.5" />
<line x1="351.47195" y1="259.5389" x2="356.53702" y2="241.73666" stroke="#36f0c8" stroke-width="0.5" />
<line x1="53331.723" y1="1747401.0" x2="53331.695" y2="1747400.0" stroke="#f0f" stroke-width="10.0"  stroke-opacity="100%"/>
<line x1="53331.723" y1="1747401.0" x2="53331.695" y2="1747400.0" stroke="#f0f" stroke-width="10.0"  stroke-opacity="100%"/>
<line x1="53331.723" y1="1747401.0" x2="53331.723" y2="1747401.0" stroke="#f0f" stroke-width="10.0"  stroke-opacity="30%"/>
<line x1="53331.723" y1="1747401.0" x2="53331.723" y2="1747401.0" stroke="#f0f" stroke-width="1.0"  stroke-opacity="100%"/>
<line x1="358.13065" y1="244.90164" x2="357.52744" y2="244.10406" stroke="#f00" stroke-width="10.0"  stroke-opacity="100%"/>
<line x1="358.13065" y1="244.90164" x2="357.52744" y2="244.10406" stroke="#f00" stroke-width="10.0"  stroke-opacity="100%"/>
<line x1="358.13065" y1="244.90164" x2="358.13065" y2="244.90164" stroke="#f00" stroke-width="10.0"  stroke-opacity="30%"/>
<line x1="358.13065" y1="244.90164" x2="358.13065" y2="244.90164" stroke="#f00" stroke-width="1.0"  stroke-opacity="100%"/>
<line x1="357.21365" y1="243.6892" x2="356.61047" y2="242.8916" stroke="#f00" stroke-width="10.0"  stroke-opacity="100%"/>
<line x1="357.21365" y1="243.6892" x2="356.61047" y2="242.8916" stroke="#f00" stroke-width="10.0"  stroke-opacity="100%"/>
<line x1="357.21365" y1="243.6892" x2="357.21365" y2="243.6892" stroke="#f00" stroke-width="10.0"  stroke-opacity="30%"/>
<line x1="357.21365" y1="243.6892" x2="357.21365" y2="243.6892" stroke="#f00" stroke-width="1.0"  stroke-opacity="100%"/>
<line x1="356.21063" y1="242.36293" x2="355.60742" y2="241.56534" stroke="#f00" stroke-width="10.0"  stroke-opacity="100%"/>
<line x1="356.21063" y1="242.36293" x2="355.60742" y2="241.56534" stroke="#f00" stroke-width="10.0"  stroke-opacity="100%"/>
<line x1="356.21063" y1="242.36293" x2="356.21063" y2="242.36293" stroke="#f00" stroke-width="10.0"  stroke-opacity="30%"/>
<line x1="356.21063" y1="242.36293" x2="356.21063" y2="242.36293" stroke="#f00" stroke-width="1.0"  stroke-opacity="100%"/>
<g transform="translate(349.2993198293557 233.224478392938) rotate(-127.09983211233214)">
<path fill-opacity="0%" stroke="#0f0" stroke-width="0.5" d="M -5 -5 L 0 0 -5 5 -5 -5"/>
</g>
<g transform="translate(212.34663643902098 468.1597492559546) rotate(133.10269529420728)">
<path fill-opacity="0%" stroke="#0f0" stroke-width="0.5" d="M -5 0 L 0 5 5 0 0 -5 -5 0"/>
</g>
<line x1="348.9674" y1="232.78563" x2="348.36423" y2="231.98804" stroke="#f0f" stroke-width="10.0"  stroke-opacity="100%"/>
<line x1="348.9674" y1="232.78563" x2="348.36423" y2="231.98804" stroke="#f0f" stroke-width="10.0"  stroke-opacity="100%"/>
<line x1="348.9674" y1="232.78563" x2="348.9674" y2="232.78563" stroke="#f0f" stroke-width="10.0"  stroke-opacity="30%"/>
<line x1="348.9674" y1="232.78563" x2="348.9674" y2="232.78563" stroke="#f0f" stroke-width="1.0"  stroke-opacity="100%"/>
<line x1="330.62833" y1="238.35054" x2="329.91922" y2="239.05563" stroke="#f0f" stroke-width="10.0"  stroke-opacity="100%"/>
<line x1="330.62833" y1="238.35054" x2="329.91922" y2="239.05563" stroke="#f0f" stroke-width="10.0"  stroke-opacity="100%"/>
<line x1="330.62833" y1="238.35054" x2="330.62833" y2="238.35054" stroke="#f0f" stroke-width="10.0"  stroke-opacity="30%"/>
<line x1="330.62833" y1="238.35054" x2="330.62833" y2="238.35054" stroke="#f0f" stroke-width="1.0"  stroke-opacity="100%"/>
<g transform="translate(264.08514287295776 352.7538595343809) rotate(142.51351769976495)">
<path fill-opacity="0%" stroke="#00f" stroke-width="0.5" d="M -5 -5 L 0 0 -5 5 -5 -5"/>
</g>
<g transform="translate(208.1108249583266 472.68580932501413) rotate(133.10269529420728)">
<path fill-opacity="0%" stroke="#00f" stroke-width="0.5" d="M -5 0 L 0 5 5 0 0 -5 -5 0"/>
</g>
<line x1="263.08487" y1="398.42325" x2="262.9127" y2="399.40833" stroke="#f0f" stroke-width="10.0"  stroke-opacity="100%"/>
<line x1="263.08487" y1="398.42325" x2="262.9127" y2="399.40833" stroke="#f0f" stroke-width="10.0"  stroke-opacity="100%"/>
<line x1="263.08487" y1="398.42325" x2="263.08487" y2="398.42325" stroke="#f0f" stroke-width="10.0"  stroke-opacity="30%"/>
<line x1="263.08487" y1="398.42325" x2="263.08487" y2="398.42325" stroke="#f0f" stroke-width="1.0"  stroke-opacity="100%"/>
<line x1="240.94879" y1="437.5977" x2="240.26549" y2="438.32782" stroke="#f0f" stroke-width="10.0"  stroke-opacity="100%"/>
<line x1="240.94879" y1="437.5977" x2="240.26549" y2="438.32782" stroke="#f0f" stroke-width="10.0"  stroke-opacity="100%"/>
<line x1="240.94879" y1="437.5977" x2="240.94879" y2="437.5977" stroke="#f0f" stroke-width="10.0"  stroke-opacity="30%"/>
<line x1="240.94879" y1="437.5977" x2="240.94879" y2="437.5977" stroke="#f0f" stroke-width="1.0"  stroke-opacity="100%"/>
<g transform="translate(137.46999060166357 513.2722457354416) rotate(173.38339931759043)">
<path fill-opacity="0%" stroke="#00f" stroke-width="0.5" d="M -5 -5 L 0 0 -5 5 -5 -5"/>
</g>
<g transform="translate(96.90979517031887 535.726540387448) rotate(141.58275260240617)">
<path fill-opacity="0%" stroke="#f00" stroke-width="0.5" d="M -5 -5 L 0 0 -5 5 -5 -5"/>
</g>
<g transform="translate(510.9338296949605 737.9916111401145) rotate(154.71676998312847)">
<path fill-opacity="0%" stroke="#f00" stroke-width="0.5" d="M -5 0 L 0 5 5 0 0 -5 -5 0"/>
</g>
<line x1="510.89157" y1="738.0116" x2="509.98737" y2="738.43866" stroke="#f00" stroke-width="10.0"  stroke-opacity="100%"/>
<line x1="510.89157" y1="738.0116" x2="509.98737" y2="738.43866" stroke="#f00" stroke-width="10.0"  stroke-opacity="100%"/>
<line x1="510.89157" y1="738.0116" x2="510.89157" y2="738.0116" stroke="#f00" stroke-width="10.0"  stroke-opacity="30%"/>
<line x1="510.89157" y1="738.0116" x2="510.89157" y2="738.0116" stroke="#f00" stroke-width="1.0"  stroke-opacity="100%"/>
<g transform="translate(146.52220688169513 572.6385718298424) rotate(13.804396289482039)">
<path fill-opacity="0%" stroke="#ff0" stroke-width="0.5" d="M -5 -5 L 0 0 -5 5 -5 -5"/>
</g>
<g transform="translate(164.34709960250666 546.2653226297638) rotate(-127.14253932701523)">
<path fill-opacity="0%" stroke="#00f" stroke-width="0.5" d="M -5 -5 L 0 0 -5 5 -5 -5"/>
</g>
<g transform="translate(210.58458097265793 554.3796154798318) rotate(45.69598829559861)">
<path fill-opacity="0%" stroke="#00f" stroke-width="0.5" d="M -5 0 L 0 5 5 0 0 -5 -5 0"/>
</g>
<line x1="160.50417" y1="539.665" x2="160.58519" y2="538.6683" stroke="#f0f" stroke-width="10.0"  stroke-opacity="100%"/>
<line x1="160.50417" y1="539.665" x2="160.58519" y2="538.6683" stroke="#f0f" stroke-width="10.0"  stroke-opacity="100%"/>
<line x1="160.50417" y1="539.665" x2="160.50417" y2="539.665" stroke="#f0f" stroke-width="10.0"  stroke-opacity="30%"/>
<line x1="160.50417" y1="539.665" x2="160.50417" y2="539.665" stroke="#f0f" stroke-width="1.0"  stroke-opacity="100%"/>
<line x1="196.98508" y1="540.4456" x2="197.68353" y2="541.16125" stroke="#f0f" stroke-width="10.0"  stroke-opacity="100%"/>
<line x1="196.98508" y1="540.4456" x2="197.68353" y2="541.16125" stroke="#f0f" stroke-width="10.0"  stroke-opacity="100%"/>
<line x1="196.98508" y1="540.4456" x2="196.98508" y2="540.4456" stroke="#f0f" stroke-width="10.0"  stroke-opacity="30%"/>
<line x1="196.98508" y1="540.4456" x2="196.98508" y2="540.4456" stroke="#f0f" stroke-width="1.0"  stroke-opacity="100%"/>
<g transform="translate(468.9009883420966 698.6740290192939) rotate(28.475517778975185)">
<path fill-opacity="0%" stroke="#00f" stroke-width="0.5" d="M -5 -5 L 0 0 -5 5 -5 -5"/>
</g>
<g transform="translate(515.0056486152179 736.068329035679) rotate(154.71676998312847)">
<path fill-opacity="0%" stroke="#00f" stroke-width="0.5" d="M -5 0 L 0 5 5 0 0 -5 -5 0"/>
</g>
<line x1="511.7633" y1="737.5998" x2="510.8591" y2="738.0269" stroke="#f0f" stroke-width="10.0"  stroke-opacity="100%"/>
<line x1="511.7633" y1="737.5998" x2="510.8591" y2="738.0269" stroke="#f0f" stroke-width="10.0"  stroke-opacity="100%"/>
<line x1="511.7633" y1="737.5998" x2="511.7633" y2="737.5998" stroke="#f0f" stroke-width="10.0"  stroke-opacity="30%"/>
<line x1="511.7633" y1="737.5998" x2="511.7633" y2="737.5998" stroke="#f0f" stroke-width="1.0"  stroke-opacity="100%"/>
<line x1="511.39172" y1="737.7753" x2="510.48752" y2="738.20245" stroke="#f0f" stroke-width="10.0"  stroke-opacity="100%"/>
<line x1="511.39172" y1="737.7753" x2="510.48752" y2="738.20245" stroke="#f0f" stroke-width="10.0"  stroke-opacity="100%"/>
<line x1="511.39172" y1="737.7753" x2="511.39172" y2="737.7753" stroke="#f0f" stroke-width="10.0"  stroke-opacity="30%"/>
<line x1="511.39172" y1="737.7753" x2="511.39172" y2="737.7753" stroke="#f0f" stroke-width="1.0"  stroke-opacity="100%"/>
<g transform="translate(500.73754509321486 742.8077220945355) rotate(154.71676998312847)">
<path fill-opacity="0%" stroke="#f00" stroke-width="0.5" d="M -5 -5 L 0 0 -5 5 -5 -5"/>
</g>
<line x1="498.99588" y1="754.4078" x2="499.67413" y2="755.14264" stroke="#f00" stroke-width="10.0"  stroke-opacity="100%"/>
<line x1="498.99588" y1="754.4078" x2="499.67413" y2="755.14264" stroke="#f00" stroke-width="10.0"  stroke-opacity="100%"/>
<line x1="498.99588" y1="754.4078" x2="498.99588" y2="754.4078" stroke="#f00" stroke-width="10.0"  stroke-opacity="30%"/>
<line x1="498.99588" y1="754.4078" x2="498.99588" y2="754.4078" stroke="#f00" stroke-width="1.0"  stroke-opacity="100%"/>
<g transform="translate(500.5779260495984 756.2904137959687) rotate(-173.63882622022211)">
<path fill-opacity="0%" stroke="#f00" stroke-width="0.5" d="M -5 -5 L 0 0 -5 5 -5 -5"/>
</g>
<g transform="translate(480.1691616359793 753.4551860291851) rotate(-160.88180204545614)">
<path fill-opacity="0%" stroke="#f00" stroke-width="0.5" d="M -5 0 L 0 5 5 0 0 -5 -5 0"/>
</g>
<line x1="480.1509" y1="753.44885" x2="479.2061" y2="753.12134" stroke="#f00" stroke-width="10.0"  stroke-opacity="100%"/>
<line x1="477.0721" y1="752.38165" x2="476.1273" y2="752.05414" stroke="#f00" stroke-width="10.0"  stroke-opacity="100%"/>
<line x1="480.1509" y1="753.44885" x2="477.0721" y2="752.38165" stroke="#f00" stroke-width="10.0"  stroke-opacity="30%"/>
<line x1="480.1509" y1="753.44885" x2="477.0721" y2="752.38165" stroke="#f00" stroke-width="1.0"  stroke-opacity="100%"/>
<line x1="469.7087" y1="749.8292" x2="468.7639" y2="749.5017" stroke="#f0f" stroke-width="10.0"  stroke-opacity="100%"/>
<line x1="469.7087" y1="749.8292" x2="468.7639" y2="749.5017" stroke="#f0f" stroke-width="10.0"  stroke-opacity="100%"/>
<line x1="469.7087" y1="749.8292" x2="469.7087" y2="749.8292" stroke="#f0f" stroke-width="10.0"  stroke-opacity="30%"/>
<line x1="469.7087" y1="749.8292" x2="469.7087" y2="749.8292" stroke="#f0f" stroke-width="1.0"  stroke-opacity="100%"/>
<line x1="468.9813" y1="749.577" x2="468.03644" y2="749.2495" stroke="#f0f" stroke-width="10.0"  stroke-opacity="100%"/>
<line x1="468.9813" y1="749.577" x2="468.03644" y2="749.2495" stroke="#f0f" stroke-width="10.0"  stroke-opacity="100%"/>
<line x1="468.9813" y1="749.577" x2="468.9813" y2="749.577" stroke="#f0f" stroke-width="10.0"  stroke-opacity="30%"/>
<line x1="468.9813" y1="749.577" x2="468.9813" y2="749.577" stroke="#f0f" stroke-width="1.0"  stroke-opacity="100%"/>
<line x1="468.46857" y1="749.39935" x2="467.5237" y2="749.07184" stroke="#f0f" stroke-width="10.0"  stroke-opacity="100%"/>
<line x1="468.46857" y1="749.39935" x2="467.5237" y2="749.07184" stroke="#f0f" stroke-width="10.0"  stroke-opacity="100%"/>
<line x1="468.46857" y1="749.39935" x2="468.46857" y2="749.39935" stroke="#f0f" stroke-width="10.0"  stroke-opacity="30%"/>
<line x1="468.46857" y1="749.39935" x2="468.46857" y2="749.39935" stroke="#f0f" stroke-width="1.0"  stroke-opacity="100%"/>
<line x1="377.76666" y1="685.8079" x2="376.81903" y2="685.4885" stroke="#f0f" stroke-width="10.0"  stroke-opacity="100%"/>
<line x1="377.76666" y1="685.8079" x2="376.81903" y2="685.4885" stroke="#f0f" stroke-width="10.0"  stroke-opacity="100%"/>
<line x1="377.76666" y1="685.8079" x2="377.76666" y2="685.8079" stroke="#f0f" stroke-width="10.0"  stroke-opacity="30%"/>
<line x1="377.76666" y1="685.8079" x2="377.76666" y2="685.8079" stroke="#f0f" stroke-width="1.0"  stroke-opacity="100%"/>
<line x1="371.79623" y1="683.7958" x2="370.84863" y2="683.4764" stroke="#f0f" stroke-width="10.0"  stroke-opacity="100%"/>
<line x1="371.79623" y1="683.7958" x2="370.84863" y2="683.4764" stroke="#f0f" stroke-width="10.0"  stroke-opacity="100%"/>
<line x1="371.79623" y1="683.7958" x2="371.79623" y2="683.7958" stroke="#f0f" stroke-width="10.0"  stroke-opacity="30%"/>
<line x1="371.79623" y1="683.7958" x2="371.79623" y2="683.7958" stroke="#f0f" stroke-width="1.0"  stroke-opacity="100%"/>
<line x1="314.42197" y1="766.21216" x2="315.01318" y2="765.40564" stroke="#f0f" stroke-width="10.0"  stroke-opacity="100%"/>
<line x1="314.42197" y1="766.21216" x2="315.01318" y2="765.40564" stroke="#f0f" stroke-width="10.0"  stroke-opacity="100%"/>
<line x1="314.42197" y1="766.21216" x2="314.42197" y2="766.21216" stroke="#f0f" stroke-width="10.0"  stroke-opacity="30%"/>
<line x1="314.42197" y1="766.21216" x2="314.42197" y2="766.21216" stroke="#f0f" stroke-width="1.0"  stroke-opacity="100%"/>
<line x1="314.83792" y1="765.6447" x2="315.42914" y2="764.8382" stroke="#f0f" stroke-width="10.0"  stroke-opacity="100%"/>
<line x1="314.83792" y1="765.6447" x2="315.42914" y2="764.8382" stroke="#f0f" stroke-width="10.0"  stroke-opacity="100%"/>
<line x1="314.83792" y1="765.6447" x2="314.83792" y2="765.6447" stroke="#f0f" stroke-width="10.0"  stroke-opacity="30%"/>
<line x1="314.83792" y1="765.6447" x2="314.83792" y2="765.6447" stroke="#f0f" stroke-width="1.0"  stroke-opacity="100%"/>
<line x1="318.04977" y1="761.26337" x2="318.641" y2="760.45685" stroke="#f0f" stroke-width="10.0"  stroke-opacity="100%"/>
<line x1="318.04977" y1="761.26337" x2="318.641" y2="760.45685" stroke="#f0f" stroke-width="10.0"  stroke-opacity="100%"/>
<line x1="318.04977" y1="761.26337" x2="318.04977" y2="761.26337" stroke="#f0f" stroke-width="10.0"  stroke-opacity="30%"/>
<line x1="318.04977" y1="761.26337" x2="318.04977" y2="761.26337" stroke="#f0f" stroke-width="1.0"  stroke-opacity="100%"/>
<line x1="318.16473" y1="761.10657" x2="318.75595" y2="760.30005" stroke="#f0f" stroke-width="10.0"  stroke-opacity="100%"/>
<line x1="318.16473" y1="761.10657" x2="318.75595" y2="760.30005" stroke="#f0f" stroke-width="10.0"  stroke-opacity="100%"/>
<line x1="318.16473" y1="761.10657" x2="318.16473" y2="761.10657" stroke="#f0f" stroke-width="10.0"  stroke-opacity="30%"/>
<line x1="318.16473" y1="761.10657" x2="318.16473" y2="761.10657" stroke="#f0f" stroke-width="1.0"  stroke-opacity="100%"/>
<line x1="318.28735" y1="760.9393" x2="318.87857" y2="760.13275" stroke="#f0f" stroke-width="10.0"  stroke-opacity="100%"/>
<line x1="318.28735" y1="760.9393" x2="318.87857" y2="760.13275" stroke="#f0f" stroke-width="10.0"  stroke-opacity="100%"/>
<line x1="318.28735" y1="760.9393" x2="318.28735" y2="760.9393" stroke="#f0f" stroke-width="10.0"  stroke-opacity="30%"/>
<line x1="318.28735" y1="760.9393" x2="318.28735" y2="760.9393" stroke="#f0f" stroke-width="1.0"  stroke-opacity="100%"/>
<line x1="318.8029" y1="760.236" x2="319.3941" y2="759.4295" stroke="#f0f" stroke-width="10.0"  stroke-opacity="100%"/>
<line x1="318.8029" y1="760.236" x2="319.3941" y2="759.4295" stroke="#f0f" stroke-width="10.0"  stroke-opacity="100%"/>
<line x1="318.8029" y1="760.236" x2="318.8029" y2="760.236" stroke="#f0f" stroke-width="10.0"  stroke-opacity="30%"/>
<line x1="318.8029" y1="760.236" x2="318.8029" y2="760.236" stroke="#f0f" stroke-width="1.0"  stroke-opacity="100%"/>
<line x1="318.9772" y1="759.9982" x2="319.56842" y2="759.1917" stroke="#f00" stroke-width="10.0"  stroke-opacity="100%"/>
<line x1="318.9772" y1="759.9982" x2="319.56842" y2="759.1917" stroke="#f00" stroke-width="10.0"  stroke-opacity="100%"/>
<line x1="318.9772" y1="759.9982" x2="318.9772" y2="759.9982" stroke="#f00" stroke-width="10.0"  stroke-opacity="30%"/>
<line x1="318.9772" y1="759.9982" x2="318.9772" y2="759.9982" stroke="#f00" stroke-width="1.0"  stroke-opacity="100%"/>
<line x1="319.09976" y1="759.83105" x2="319.69098" y2="759.02454" stroke="#f00" stroke-width="10.0"  stroke-opacity="100%"/>
<line x1="319.62314" y1="759.11707" x2="320.21436" y2="758.3106" stroke="#f00" stroke-width="10.0"  stroke-opacity="100%"/>
<line x1="319.09976" y1="759.83105" x2="319.62314" y2="759.11707" stroke="#f00" stroke-width="10.0"  stroke-opacity="30%"/>
<line x1="319.09976" y1="759.83105" x2="319.62314" y2="759.11707" stroke="#f00" stroke-width="1.0"  stroke-opacity="100%"/>
<line x1="320.12692" y1="758.4299" x2="320.71814" y2="757.62335" stroke="#f0f" stroke-width="10.0"  stroke-opacity="100%"/>
<line x1="320.12692" y1="758.4299" x2="320.71814" y2="757.62335" stroke="#f0f" stroke-width="10.0"  stroke-opacity="100%"/>
<line x1="320.12692" y1="758.4299" x2="320.12692" y2="758.4299" stroke="#f0f" stroke-width="10.0"  stroke-opacity="30%"/>
<line x1="320.12692" y1="758.4299" x2="320.12692" y2="758.4299" stroke="#f0f" stroke-width="1.0"  stroke-opacity="100%"/>
<line x1="322.8778" y1="754.6773" x2="323.46902" y2="753.8708" stroke="#f0f" stroke-width="10.0"  stroke-opacity="100%"/>
<line x1="322.8778" y1="754.6773" x2="323.46902" y2="753.8708" stroke="#f0f" stroke-width="10.0"  stroke-opacity="100%"/>
<line x1="322.8778" y1="754.6773" x2="322.8778" y2="754.6773" stroke="#f0f" stroke-width="10.0"  stroke-opacity="30%"/>
<line x1="322.8778" y1="754.6773" x2="322.8778" y2="754.6773" stroke="#f0f" stroke-width="1.0"  stroke-opacity="100%"/>
<g transform="translate(338.39047280873314 688.7750071422208) rotate(-96.0883898177167)">
<path fill-opacity="0%" stroke="#0f0" stroke-width="0.5" d="M -5 -5 L 0 0 -5 5 -5 -5"/>
</g>
<g transform="translate(351.64228099562786 250.60624463200767) rotate(111.45122793298368)">
<path fill-opacity="0%" stroke="#0f0" stroke-width="0.5" d="M -5 0 L 0 5 5 0 0 -5 -5 0"/>
</g>
<line x1="351.6141" y1="250.67795" x2="351.24838" y2="251.60869" stroke="#0f0" stroke-width="10.0"  stroke-opacity="100%"/>
<line x1="351.6141" y1="250.67795" x2="351.24838" y2="251.60869" stroke="#0f0" stroke-width="10.0"  stroke-opacity="100%"/>
<line x1="351.6141" y1="250.67795" x2="351.6141" y2="250.67795" stroke="#0f0" stroke-width="10.0"  stroke-opacity="30%"/>
<line x1="351.6141" y1="250.67795" x2="351.6141" y2="250.67795" stroke="#0f0" stroke-width="1.0"  stroke-opacity="100%"/>
<g transform="translate(460.82971596303867 379.679034624454) rotate(-64.35595232186002)">
<path fill-opacity="0%" stroke="#00f" stroke-width="0.5" d="M -5 -5 L 0 0 -5 5 -5 -5"/>
</g>
<line x1="453.90747" y1="385.54486" x2="453.92053" y2="384.54492" stroke="#f0f" stroke-width="10.0"  stroke-opacity="100%"/>
<line x1="453.90747" y1="385.54486" x2="453.92053" y2="384.54492" stroke="#f0f" stroke-width="10.0"  stroke-opacity="100%"/>
<line x1="453.90747" y1="385.54486" x2="453.90747" y2="385.54486" stroke="#f0f" stroke-width="10.0"  stroke-opacity="30%"/>
<line x1="453.90747" y1="385.54486" x2="453.90747" y2="385.54486" stroke="#f0f" stroke-width="1.0"  stroke-opacity="100%"/>
<line x1="453.9976" y1="378.6439" x2="454.01065" y2="377.64398" stroke="#f0f" stroke-width="10.0"  stroke-opacity="100%"/>
<line x1="453.9976" y1="378.6439" x2="454.01065" y2="377.64398" stroke="#f0f" stroke-width="10.0"  stroke-opacity="100%"/>
<line x1="453.9976" y1="378.6439" x2="453.9976" y2="378.6439" stroke="#f0f" stroke-width="10.0"  stroke-opacity="30%"/>
<line x1="453.9976" y1="378.6439" x2="453.9976" y2="378.6439" stroke="#f0f" stroke-width="1.0"  stroke-opacity="100%"/>
<line x1="454.0902" y1="371.55325" x2="454.10327" y2="370.5533" stroke="#f0f" stroke-width="10.0"  stroke-opacity="100%"/>
<line x1="454.0902" y1="371.55325" x2="454.10327" y2="370.5533" stroke="#f0f" stroke-width="10.0"  stroke-opacity="100%"/>
<line x1="454.0902" y1="371.55325" x2="454.0902" y2="371.55325" stroke="#f0f" stroke-width="10.0"  stroke-opacity="30%"/>
<line x1="454.0902" y1="371.55325" x2="454.0902" y2="371.55325" stroke="#f0f" stroke-width="1.0"  stroke-opacity="100%"/>
<g transform="translate(476.52225847978576 356.3414833626366) rotate(-96.99397666959527)">
<path fill-opacity="0%" stroke="#00f" stroke-width="0.5" d="M -5 -5 L 0 0 -5 5 -5 -5"/>
</g>
<g transform="translate(355.4169620491981 240.9996857855595) rotate(111.45122793298368)">
<path fill-opacity="0%" stroke="#00f" stroke-width="0.5" d="M -5 0 L 0 5 5 0 0 -5 -5 0"/>
</g>
<line x1="352.7085" y1="247.8927" x2="352.3428" y2="248.82344" stroke="#0f0" stroke-width="10.0"  stroke-opacity="100%"/>
<line x1="352.7085" y1="247.8927" x2="352.3428" y2="248.82344" stroke="#0f0" stroke-width="10.0"  stroke-opacity="100%"/>
<line x1="352.7085" y1="247.8927" x2="352.7085" y2="247.8927" stroke="#0f0" stroke-width="10.0"  stroke-opacity="30%"/>
<line x1="352.7085" y1="247.8927" x2="352.7085" y2="247.8927" stroke="#0f0" stroke-width="1.0"  stroke-opacity="100%"/>
<line x1="255.31348" y1="355.6583" x2="254.5167" y2="355.05402" stroke="#f0f" stroke-width="10.0"  stroke-opacity="100%"/>
<line x1="255.31348" y1="355.6583" x2="254.5167" y2="355.05402" stroke="#f0f" stroke-width="10.0"  stroke-opacity="100%"/>
<line x1="255.31348" y1="355.6583" x2="255.31348" y2="355.6583" stroke="#f0f" stroke-width="10.0"  stroke-opacity="30%"/>
<line x1="255.31348" y1="355.6583" x2="255.31348" y2="355.6583" stroke="#f0f" stroke-width="1.0"  stroke-opacity="100%"/>
<g transform="translate(258.03327309276926 367.7016015048702) rotate(83.00611335620752)">
<path fill-opacity="0%" stroke="#f00" stroke-width="0.5" d="M -5 -5 L 0 0 -5 5 -5 -5"/>
</g>
<g transform="translate(256.98298261168594 363.3204895367868) rotate(-101.3730977631409)">
<path fill-opacity="0%" stroke="#f00" stroke-width="0.5" d="M -5 0 L 0 5 5 0 0 -5 -5 0"/>
</g>
<line x1="254.69681" y1="354.84592" x2="254.46275" y2="355.81815" stroke="#f00" stroke-width="10.0"  stroke-opacity="100%"/>
<line x1="254.69681" y1="354.84592" x2="254.46275" y2="355.81815" stroke="#f00" stroke-width="10.0"  stroke-opacity="100%"/>
<line x1="254.69681" y1="354.84592" x2="254.69681" y2="354.84592" stroke="#f00" stroke-width="10.0"  stroke-opacity="30%"/>
<line x1="254.69681" y1="354.84592" x2="254.69681" y2="354.84592" stroke="#f00" stroke-width="1.0"  stroke-opacity="100%"/>
<line x1="254.0718" y1="357.4422" x2="253.83774" y2="358.4144" stroke="#f00" stroke-width="10.0"  stroke-opacity="100%"/>
<line x1="254.0718" y1="357.4422" x2="253.83774" y2="358.4144" stroke="#f00" stroke-width="10.0"  stroke-opacity="100%"/>
<line x1="254.0718" y1="357.4422" x2="254.0718" y2="357.4422" stroke="#f00" stroke-width="10.0"  stroke-opacity="30%"/>
<line x1="254.0718" y1="357.4422" x2="254.0718" y2="357.4422" stroke="#f00" stroke-width="1.0"  stroke-opacity="100%"/>
<line x1="254.02289" y1="357.64536" x2="253.78883" y2="358.61758" stroke="#f0f" stroke-width="10.0"  stroke-opacity="100%"/>
<line x1="254.02289" y1="357.64536" x2="253.78883" y2="358.61758" stroke="#f0f" stroke-width="10.0"  stroke-opacity="100%"/>
<line x1="254.02289" y1="357.64536" x2="254.02289" y2="357.64536" stroke="#f0f" stroke-width="10.0"  stroke-opacity="30%"/>
<line x1="254.02289" y1="357.64536" x2="254.02289" y2="357.64536" stroke="#f0f" stroke-width="1.0"  stroke-opacity="100%"/>
<line x1="253.43732" y1="360.0778" x2="253.20326" y2="361.05002" stroke="#f0f" stroke-width="10.0"  stroke-opacity="100%"/>
<line x1="253.43732" y1="360.0778" x2="253.20326" y2="361.05002" stroke="#f0f" stroke-width="10.0"  stroke-opacity="100%"/>
<line x1="253.43732" y1="360.0778" x2="253.43732" y2="360.0778" stroke="#f0f" stroke-width="10.0"  stroke-opacity="30%"/>
<line x1="253.43732" y1="360.0778" x2="253.43732" y2="360.0778" stroke="#f0f" stroke-width="1.0"  stroke-opacity="100%"/>
<line x1="253.28825" y1="360.697" x2="253.0542" y2="361.66922" stroke="#f0f" stroke-width="10.0"  stroke-opacity="100%"/>
<line x1="253.28825" y1="360.697" x2="253.0542" y2="361.66922" stroke="#f0f" stroke-width="10.0"  stroke-opacity="100%"/>
<line x1="253.28825" y1="360.697" x2="253.28825" y2="360.697" stroke="#f0f" stroke-width="10.0"  stroke-opacity="30%"/>
<line x1="253.28825" y1="360.697" x2="253.28825" y2="360.697" stroke="#f0f" stroke-width="1.0"  stroke-opacity="100%"/>
<line x1="253.20392" y1="361.04727" x2="252.96988" y2="362.0195" stroke="#f0f" stroke-width="10.0"  stroke-opacity="100%"/>
<line x1="253.20392" y1="361.04727" x2="252.96988" y2="362.0195" stroke="#f0f" stroke-width="10.0"  stroke-opacity="100%"/>
<line x1="253.20392" y1="361.04727" x2="253.20392" y2="361.04727" stroke="#f0f" stroke-width="10.0"  stroke-opacity="30%"/>
<line x1="253.20392" y1="361.04727" x2="253.20392" y2="361.04727" stroke="#f0f" stroke-width="1.0"  stroke-opacity="100%"/>
<line x1="253.11551" y1="361.41458" x2="252.88145" y2="362.38678" stroke="#f00" stroke-width="10.0"  stroke-opacity="100%"/>
<line x1="253.11551" y1="361.41458" x2="252.88145" y2="362.38678" stroke="#f00" stroke-width="10.0"  stroke-opacity="100%"/>
<line x1="253.11551" y1="361.41458" x2="253.11551" y2="361.41458" stroke="#f00" stroke-width="10.0"  stroke-opacity="30%"/>
<line x1="253.11551" y1="361.41458" x2="253.11551" y2="361.41458" stroke="#f00" stroke-width="1.0"  stroke-opacity="100%"/>
<line x1="253.11241" y1="361.4274" x2="252.87836" y2="362.39963" stroke="#f00" stroke-width="10.0"  stroke-opacity="100%"/>
<line x1="253.11241" y1="361.4274" x2="252.87836" y2="362.39963" stroke="#f00" stroke-width="10.0"  stroke-opacity="100%"/>
<line x1="253.11241" y1="361.4274" x2="253.11241" y2="361.4274" stroke="#f00" stroke-width="10.0"  stroke-opacity="30%"/>
<line x1="253.11241" y1="361.4274" x2="253.11241" y2="361.4274" stroke="#f00" stroke-width="1.0"  stroke-opacity="100%"/>
<line x1="252.65968" y1="363.30804" x2="252.42563" y2="364.28027" stroke="#f0f" stroke-width="10.0"  stroke-opacity="100%"/>
<line x1="252.65968" y1="363.30804" x2="252.42563" y2="364.28027" stroke="#f0f" stroke-width="10.0"  stroke-opacity="100%"/>
<line x1="252.65968" y1="363.30804" x2="252.65968" y2="363.30804" stroke="#f0f" stroke-width="10.0"  stroke-opacity="30%"/>
<line x1="252.65968" y1="363.30804" x2="252.65968" y2="363.30804" stroke="#f0f" stroke-width="1.0"  stroke-opacity="100%"/>
<line x1="247.14981" y1="369.8374" x2="246.18684" y2="369.56778" stroke="#f00" stroke-width="10.0"  stroke-opacity="100%"/>
<line x1="244.46738" y1="369.0863" x2="243.50441" y2="368.81668" stroke="#f00" stroke-width="10.0"  stroke-opacity="100%"/>
<line x1="247.14981" y1="369.8374" x2="244.46738" y2="369.0863" stroke="#f00" stroke-width="10.0"  stroke-opacity="30%"/>
<line x1="247.14981" y1="369.8374" x2="244.46738" y2="369.0863" stroke="#f00" stroke-width="1.0"  stroke-opacity="100%"/>
<line x1="239.8276" y1="367.78717" x2="238.86464" y2="367.51755" stroke="#f00" stroke-width="10.0"  stroke-opacity="100%"/>
<line x1="237.86296" y1="367.23706" x2="236.90001" y2="366.96744" stroke="#f00" stroke-width="10.0"  stroke-opacity="100%"/>
<line x1="239.8276" y1="367.78717" x2="237.86296" y2="367.23706" stroke="#f00" stroke-width="10.0"  stroke-opacity="30%"/>
<line x1="239.8276" y1="367.78717" x2="237.86296" y2="367.23706" stroke="#f00" stroke-width="1.0"  stroke-opacity="100%"/>
<line x1="237.64433" y1="367.17584" x2="236.68137" y2="366.90622" stroke="#0f0" stroke-width="10.0"  stroke-opacity="100%"/>
<line x1="237.64433" y1="367.17584" x2="236.68137" y2="366.90622" stroke="#0f0" stroke-width="10.0"  stroke-opacity="100%"/>
<line x1="237.64433" y1="367.17584" x2="237.64433" y2="367.17584" stroke="#0f0" stroke-width="10.0"  stroke-opacity="30%"/>
<line x1="237.64433" y1="367.17584" x2="237.64433" y2="367.17584" stroke="#0f0" stroke-width="1.0"  stroke-opacity="100%"/>
<g transform="translate(232.73963711634585 362.4761560932206) rotate(-116.81124300946328)">
<path fill-opacity="0%" stroke="#ff0" stroke-width="0.5" d="M -5 -5 L 0 0 -5 5 -5 -5"/>
</g>
<line x1="278.4941" y1="391.45352" x2="279.4905" y2="391.3686" stroke="#0f0" stroke-width="10.0"  stroke-opacity="100%"/>
<line x1="278.4941" y1="391.45352" x2="279.4905" y2="391.3686" stroke="#0f0" stroke-width="10.0"  stroke-opacity="100%"/>
<line x1="278.4941" y1="391.45352" x2="278.4941" y2="391.45352" stroke="#0f0" stroke-width="10.0"  stroke-opacity="30%"/>
<line x1="278.4941" y1="391.45352" x2="278.4941" y2="391.45352" stroke="#0f0" stroke-width="1.0"  stroke-opacity="100%"/>
<line x1="281.024" y1="391.23785" x2="282.02036" y2="391.1529" stroke="#0f0" stroke-width="10.0"  stroke-opacity="100%"/>
<line x1="281.024" y1="391.23785" x2="282.02036" y2="391.1529" stroke="#0f0" stroke-width="10.0"  stroke-opacity="100%"/>
<line x1="281.024" y1="391.23785" x2="281.024" y2="391.23785" stroke="#0f0" stroke-width="10.0"  stroke-opacity="30%"/>
<line x1="281.024" y1="391.23785" x2="281.024" y2="391.23785" stroke="#0f0" stroke-width="1.0"  stroke-opacity="100%"/>
<g transform="translate(340.13569888933563 325.26464449594624) rotate(-78.9315944222077)">
<path fill-opacity="0%" stroke="#00f" stroke-width="0.5" d="M -5 -5 L 0 0 -5 5 -5 -5"/>
</g>
</svg>
