<?xml version="1.0" standalone="no"?>
<!DOCTYPE svg PUBLIC "-//W3C//DTD SVG 1.1//EN" "http://www.w3.org/Graphics/SVG/1.1/DTD/svg11.dtd">
<svg opacity="20%" width="30cm" height="30cm" version="1.1" viewBox="0 0 1000 1000" xmlns="http://www.w3.org/2000/svg" xmlns:xlink="http://www.w3.org/1999/xlink">
<desc>DrawTrails of automics data, Mon Jul 25 12:28:30 BST 2011</desc>
<filter id="desaturate"  primitiveUnits="objectBoundingBox">
<feImage x="0%" y="0%" width="100%" height="100%" xlink:href="altontowers-zoom15.png"/>
<feColorMatrix type="matrix" values="0.3333 0.3333 0.3333 0 0 0.3333 0.3333 0.3333 0 0 0.3333 0.3333 0.3333 0 0 0      0      0      1 0"/>
<feColorMatrix type="matrix" values="0.1 0 0 0 0 0 0.1 0 0 0 0 0 0.1 0 0 0      0      0      1 0"/>
</filter>
<rect x="-264.37028285176257" y="-264.37028285176257" width="1528.7405657035251" height="1528.7405657035251" filter="url(#desaturate)"/>
<line x1="363.99542" y1="240.26082" x2="349.69086" y2="251.14511" stroke="#9cf062" stroke-width="0.5" />
<line x1="349.69086" y1="251.14511" x2="346.40692" y2="269.86972" stroke="#9cf062" stroke-width="0.5" />
<line x1="346.40692" y1="269.86972" x2="331.15616" y2="277.3411" stroke="#9bf063" stroke-width="0.5" />
<line x1="331.15616" y1="277.3411" x2="314.45825" y2="281.7686" stroke="#9bf063" stroke-width="0.5" />
<line x1="314.45825" y1="281.7686" x2="274.43887" y2="340.15543" stroke="#9bf063" stroke-width="0.5" stroke-dasharray="3 3"/>
<line x1="274.43887" y1="340.15543" x2="272.65778" y2="357.49606" stroke="#9bf063" stroke-width="0.5" />
<line x1="272.65778" y1="357.49606" x2="268.42764" y2="374.2832" stroke="#9bf063" stroke-width="0.5" />
<line x1="268.42764" y1="374.2832" x2="265.75595" y2="391.1625" stroke="#9af064" stroke-width="0.5" />
<line x1="265.75595" y1="391.1625" x2="260.69092" y2="408.41068" stroke="#9af064" stroke-width="0.5" />
<line x1="260.69092" y1="408.41068" x2="158.277" y2="512.8205" stroke="#99f065" stroke-width="0.5" stroke-dasharray="3 3"/>
<line x1="158.277" y1="512.8205" x2="140.63286" y2="514.2962" stroke="#99f065" stroke-width="0.5" />
<line x1="140.63286" y1="514.2962" x2="128.44337" y2="525.73315" stroke="#98f066" stroke-width="0.5" />
<line x1="128.44337" y1="525.73315" x2="112.580345" y2="532.1895" stroke="#98f066" stroke-width="0.5" />
<line x1="112.580345" y1="532.1895" x2="96.77297" y2="540.0293" stroke="#98f066" stroke-width="0.5" />
<line x1="96.77297" y1="540.0293" x2="109.63038" y2="552.9419" stroke="#98f066" stroke-width="0.5" />
<line x1="109.63038" y1="552.9419" x2="125.71604" y2="557.3691" stroke="#97f067" stroke-width="0.5" />
<line x1="125.71604" y1="557.3691" x2="123.65663" y2="540.5827" stroke="#97f067" stroke-width="0.5" />
<line x1="123.65663" y1="540.5827" x2="106.34645" y2="539.5682" stroke="#97f067" stroke-width="0.5" />
<line x1="106.34645" y1="539.5682" x2="113.4709" y2="560.3205" stroke="#97f067" stroke-width="0.5" />
<line x1="113.4709" y1="560.3205" x2="131.39334" y2="560.3205" stroke="#96f068" stroke-width="0.5" />
<line x1="131.39334" y1="560.3205" x2="123.32267" y2="542.5196" stroke="#96f068" stroke-width="0.5" />
<line x1="123.32267" y1="542.5196" x2="107.23701" y2="546.9468" stroke="#93f06b" stroke-width="0.5" />
<line x1="107.23701" y1="546.9468" x2="123.32267" y2="560.8739" stroke="#8ef070" stroke-width="0.5" />
<line x1="123.32267" y1="560.8739" x2="140.07626" y2="565.7622" stroke="#8ef070" stroke-width="0.5" />
<line x1="140.07626" y1="565.7622" x2="157.38644" y2="570.7428" stroke="#8cf072" stroke-width="0.5" />
<line x1="157.38644" y1="570.7428" x2="169.01932" y2="558.3836" stroke="#8cf072" stroke-width="0.5" />
<line x1="169.01932" y1="558.3836" x2="163.676" y2="542.5196" stroke="#8bf073" stroke-width="0.5" />
<line x1="163.676" y1="542.5196" x2="157.66473" y2="526.19434" stroke="#8bf073" stroke-width="0.5" />
<line x1="157.66473" y1="526.19434" x2="143.02623" y2="516.3254" stroke="#8bf073" stroke-width="0.5" />
<line x1="143.02623" y1="516.3254" x2="127.21886" y2="521.76715" stroke="#8bf073" stroke-width="0.5" />
<line x1="127.21886" y1="521.76715" x2="111.07753" y2="525.73315" stroke="#8af074" stroke-width="0.5" />
<line x1="111.07753" y1="525.73315" x2="94.37961" y2="527.2089" stroke="#87f077" stroke-width="0.5" />
<line x1="94.37961" y1="527.2089" x2="102.72857" y2="512.8205" stroke="#81f07d" stroke-width="0.5" />
<line x1="102.72857" y1="512.8205" x2="121.87552" y2="507.9321" stroke="#7ff07f" stroke-width="0.5" />
<line x1="121.87552" y1="507.9321" x2="139.464" y2="508.39328" stroke="#7ff07f" stroke-width="0.5" />
<line x1="139.464" y1="508.39328" x2="155.60533" y2="513.8351" stroke="#7ff07f" stroke-width="0.5" />
<line x1="155.60533" y1="513.8351" x2="170.24384" y2="521.76715" stroke="#7ef080" stroke-width="0.5" />
<line x1="170.24384" y1="521.76715" x2="187.22006" y2="523.24286" stroke="#7ef080" stroke-width="0.5" />
<line x1="187.22006" y1="523.24286" x2="335.05234" y2="672.6581" stroke="#7cf082" stroke-width="0.5" stroke-dasharray="3 3"/>
<line x1="335.05234" y1="672.6581" x2="352.08423" y2="675.1483" stroke="#7cf082" stroke-width="0.5" />
<line x1="352.08423" y1="675.1483" x2="367.55765" y2="682.06555" stroke="#7cf082" stroke-width="0.5" />
<line x1="367.55765" y1="682.06555" x2="380.69333" y2="693.4098" stroke="#7cf082" stroke-width="0.5" />
<line x1="380.69333" y1="693.4098" x2="446.9841" y2="694.4243" stroke="#7bf083" stroke-width="0.5" stroke-dasharray="3 3"/>
<line x1="446.9841" y1="694.4243" x2="463.40372" y2="687.5071" stroke="#7bf083" stroke-width="0.5" />
<line x1="463.40372" y1="687.5071" x2="473.58945" y2="700.8804" stroke="#7bf083" stroke-width="0.5" />
<line x1="473.58945" y1="700.8804" x2="477.48563" y2="718.68054" stroke="#79f085" stroke-width="0.5" />
<line x1="477.48563" y1="718.68054" x2="478.3762" y2="735.4662" stroke="#73f08b" stroke-width="0.5" />
<line x1="478.3762" y1="735.4662" x2="462.23486" y2="719.69507" stroke="#6af094" stroke-width="0.5" stroke-dasharray="3 3"/>
<line x1="462.23486" y1="719.69507" x2="447.31805" y2="712.22455" stroke="#68f096" stroke-width="0.5" />
<line x1="447.31805" y1="712.22455" x2="432.0673" y2="704.29285" stroke="#65f099" stroke-width="0.5" />
<line x1="432.0673" y1="704.29285" x2="441.91907" y2="697.3756" stroke="#61f09d" stroke-width="0.5" stroke-dasharray="3 3"/>
<line x1="441.91907" y1="697.3756" x2="458.0604" y2="691.9341" stroke="#61f09d" stroke-width="0.5" />
<line x1="458.0604" y1="691.9341" x2="474.48" y2="698.8513" stroke="#61f09d" stroke-width="0.5" />
<line x1="474.48" y1="698.8513" x2="486.11288" y2="711.21" stroke="#61f09d" stroke-width="0.5" />
<line x1="486.11288" y1="711.21" x2="505.53815" y2="711.21" stroke="#60f09e" stroke-width="0.5" />
<line x1="505.53815" y1="711.21" x2="504.31363" y2="690.91956" stroke="#60f09e" stroke-width="0.5" />
<line x1="504.31363" y1="690.91956" x2="488.78458" y2="696.9145" stroke="#60f09e" stroke-width="0.5" />
<line x1="488.78458" y1="696.9145" x2="472.08664" y2="691.9341" stroke="#60f09e" stroke-width="0.5" />
<line x1="472.08664" y1="691.9341" x2="452.1048" y2="696.9145" stroke="#60f09e" stroke-width="0.5" />
<line x1="452.1048" y1="696.9145" x2="435.0729" y2="698.8513" stroke="#60f09e" stroke-width="0.5" />
<line x1="435.0729" y1="698.8513" x2="418.6533" y2="705.7685" stroke="#60f09e" stroke-width="0.5" />
<line x1="418.6533" y1="705.7685" x2="337.4457" y2="741.461" stroke="#5ff09f" stroke-width="0.5" stroke-dasharray="3 3"/>
<line x1="337.4457" y1="741.461" x2="358.65207" y2="730.02466" stroke="#5cf0a2" stroke-width="0.5" />
<line x1="358.65207" y1="730.02466" x2="467.63385" y2="678.0997" stroke="#5bf0a3" stroke-width="0.5" stroke-dasharray="3 3"/>
<line x1="467.63385" y1="678.0997" x2="482.55066" y2="667.6777" stroke="#5bf0a3" stroke-width="0.5" />
<line x1="482.55066" y1="667.6777" x2="501.0297" y2="665.2797" stroke="#5bf0a3" stroke-width="0.5" />
<line x1="501.0297" y1="665.2797" x2="487.3374" y2="333.2376" stroke="#59f0a5" stroke-width="0.5" stroke-dasharray="3 3"/>
<line x1="487.3374" y1="333.2376" x2="475.98282" y2="319.40192" stroke="#59f0a5" stroke-width="0.5" />
<line x1="475.98282" y1="319.40192" x2="455.66702" y2="305.56616" stroke="#59f0a5" stroke-width="0.5" />
<line x1="455.66702" y1="305.56616" x2="444.03412" y2="293.2062" stroke="#58f0a6" stroke-width="0.5" />
<line x1="444.03412" y1="293.2062" x2="507.04095" y2="268.3939" stroke="#57f0a7" stroke-width="0.5" stroke-dasharray="3 3"/>
<line x1="507.04095" y1="268.3939" x2="517.171" y2="282.7832" stroke="#56f0a8" stroke-width="0.5" />
<line x1="517.171" y1="282.7832" x2="507.04095" y2="297.63364" stroke="#56f0a8" stroke-width="0.5" />
<line x1="507.04095" y1="297.63364" x2="500.13916" y2="313.40643" stroke="#56f0a8" stroke-width="0.5" />
<line x1="500.13916" y1="313.40643" x2="494.7958" y2="330.28598" stroke="#56f0a8" stroke-width="0.5" />
<line x1="494.7958" y1="330.28598" x2="482.2167" y2="318.3873" stroke="#55f0a9" stroke-width="0.5" />
<line x1="482.2167" y1="318.3873" x2="470.58383" y2="306.48856" stroke="#55f0a9" stroke-width="0.5" />
<line x1="470.58383" y1="306.48856" x2="454.49817" y2="298.6483" stroke="#55f0a9" stroke-width="0.5" />
<line x1="454.49817" y1="298.6483" x2="457.78207" y2="282.22977" stroke="#55f0a9" stroke-width="0.5" />
<line x1="457.78207" y1="282.22977" x2="498.07974" y2="279.27814" stroke="#55f0a9" stroke-width="0.5" stroke-dasharray="3 3"/>
<line x1="498.07974" y1="279.27814" x2="510.60318" y2="290.71576" stroke="#49f0b5" stroke-width="0.5" />
<line x1="510.60318" y1="290.71576" x2="504.92587" y2="306.48856" stroke="#49f0b5" stroke-width="0.5" />
<line x1="504.92587" y1="306.48856" x2="500.4731" y2="322.8147" stroke="#48f0b6" stroke-width="0.5" />
<line x1="500.4731" y1="322.8147" x2="487.6157" y2="337.20383" stroke="#46f0b8" stroke-width="0.5" />
<line x1="487.6157" y1="337.20383" x2="471.19608" y2="334.7134" stroke="#45f0b9" stroke-width="0.5" />
<line x1="471.19608" y1="334.7134" x2="456.27927" y2="326.31976" stroke="#45f0b9" stroke-width="0.5" />
<line x1="456.27927" y1="326.31976" x2="441.64075" y2="317.9261" stroke="#45f0b9" stroke-width="0.5" />
<line x1="441.64075" y1="317.9261" x2="296.5358" y2="385.72055" stroke="#43f0bb" stroke-width="0.5" stroke-dasharray="3 3"/>
<line x1="296.5358" y1="385.72055" x2="280.11618" y2="389.1333" stroke="#43f0bb" stroke-width="0.5" />
<line x1="280.11618" y1="389.1333" x2="268.7616" y2="376.3124" stroke="#43f0bb" stroke-width="0.5" />
<line x1="268.7616" y1="376.3124" x2="265.75595" y2="359.98645" stroke="#43f0bb" stroke-width="0.5" />
<line x1="265.75595" y1="359.98645" x2="252.00801" y2="346.15088" stroke="#42f0bc" stroke-width="0.5" />
<line x1="252.00801" y1="346.15088" x2="258.29755" y2="361.92343" stroke="#41f0bd" stroke-width="0.5" />
<line x1="258.29755" y1="361.92343" x2="248.44579" y2="348.54904" stroke="#3df0c1" stroke-width="0.5" />
<line x1="248.44579" y1="348.54904" x2="248.44579" y2="365.42844" stroke="#36f0c8" stroke-width="0.5" />
<line x1="248.44579" y1="365.42844" x2="234.14122" y2="357.03488" stroke="#29f0d5" stroke-width="0.5" />
<line x1="234.14122" y1="357.03488" x2="219.781" y2="348.54904" stroke="#27f0d7" stroke-width="0.5" />
<line x1="219.781" y1="348.54904" x2="229.63278" y2="335.1746" stroke="#20f0de" stroke-width="0.5" />
<line x1="229.63278" y1="335.1746" x2="241.26567" y2="347.07324" stroke="#20f0de" stroke-width="0.5" />
<line x1="241.26567" y1="347.07324" x2="249.67029" y2="331.3006" stroke="#1ef0e0" stroke-width="0.5" />
<line x1="249.67029" y1="331.3006" x2="263.36258" y2="317.37265" stroke="#1ef0e0" stroke-width="0.5" />
<line x1="263.36258" y1="317.37265" x2="274.43887" y2="304.09036" stroke="#1ef0e0" stroke-width="0.5" />
<line x1="274.43887" y1="304.09036" x2="307.89038" y2="258.5243" stroke="#1df0e1" stroke-width="0.5" stroke-dasharray="3 3"/>
<circle cx="360.97754" cy="253.44028" r="12.458623" stroke="#a3f05b" stroke-width="1.0" fill="#0f0" fill-opacity="0.1"/>
<circle cx="131.92862" cy="517.64825" r="8.305749" stroke="#99f065" stroke-width="1.0" fill="#00f" fill-opacity="0.1"/>
<circle cx="95.66004" cy="554.4804" r="16.611498" stroke="#98f066" stroke-width="1.0" fill="#f00" fill-opacity="0.1"/>
<circle cx="150.18588" cy="539.32404" r="20.764372" stroke="#97f067" stroke-width="1.0" fill="#00f" fill-opacity="0.1"/>
<circle cx="160.45868" cy="572.615" r="12.458623" stroke="#8ef070" stroke-width="1.0" fill="#ff0" fill-opacity="0.1"/>
<circle cx="474.54263" cy="703.1341" r="8.305749" stroke="#7bf083" stroke-width="1.0" fill="#00f" fill-opacity="0.1"/>
<circle cx="474.57547" cy="702.7787" r="8.305749" stroke="#61f09d" stroke-width="1.0" fill="#00f" fill-opacity="0.1"/>
<circle cx="339.259" cy="752.65875" r="8.305749" stroke="#5ff09f" stroke-width="1.0" fill="#f00" fill-opacity="0.1"/>
<circle cx="475.58212" cy="346.36942" r="8.305749" stroke="#45f0b9" stroke-width="1.0" fill="#00f" fill-opacity="0.1"/>
<circle cx="312.22443" cy="248.43681" r="12.458623" stroke="#18f0e6" stroke-width="1.0" fill="#0f0" fill-opacity="0.1"/>
</svg>
