<?xml version="1.0" standalone="no"?>
<!DOCTYPE svg PUBLIC "-//W3C//DTD SVG 1.1//EN" "http://www.w3.org/Graphics/SVG/1.1/DTD/svg11.dtd">
<svg opacity="20%" width="30cm" height="30cm" version="1.1" viewBox="0 0 10000 10000" xmlns="http://www.w3.org/2000/svg" xmlns:xlink="http://www.w3.org/1999/xlink">
<desc>DrawTrails of automics data, Mon Jul 25 14:51:47 BST 2011</desc>
<filter id="desaturate"  primitiveUnits="objectBoundingBox">
<feImage x="0%" y="0%" width="100%" height="100%" xlink:href="altontowers-zoom15.png"/>
<feColorMatrix type="matrix" values="0.3333 0.3333 0.3333 0 0 0.3333 0.3333 0.3333 0 0 0.3333 0.3333 0.3333 0 0 0      0      0      1 0"/>
<feColorMatrix type="matrix" values="0.05 0 0 0 0 0 0.05 0 0 0 0 0 0.05 0 0 0      0      0      1 0"/>
</filter>
<rect x="-2643.7028285176257" y="-2643.7028285176257" width="15287.405657035251" height="15287.405657035251" filter="url(#desaturate)"/>
<line x1="3609.8977" y1="2729.1362" x2="3583.1812" y2="2451.4954" stroke="#b8f046" stroke-width="5.0" />
<line x1="3583.1812" y1="2451.4954" x2="3478.541" y2="2313.1353" stroke="#b3f04b" stroke-width="5.0" />
<line x1="3478.541" y1="2313.1353" x2="3317.6843" y2="2372.169" stroke="#b2f04c" stroke-width="5.0" />
<line x1="3317.6843" y1="2372.169" x2="3198.0156" y2="2491.1584" stroke="#b1f04d" stroke-width="5.0" />
<line x1="3198.0156" y1="2491.1584" x2="3099.498" y2="2644.2761" stroke="#b1f04d" stroke-width="5.0" />
<line x1="3099.498" y1="2644.2761" x2="3033.8196" y2="2807.5393" stroke="#b1f04d" stroke-width="5.0" />
<line x1="3033.8196" y1="2807.5393" x2="2759.4167" y2="3436.6045" stroke="#b0f04e" stroke-width="5.0" stroke-dasharray="30 30"/>
<line x1="2759.4167" y1="3436.6045" x2="2624.7205" y2="3539.9102" stroke="#b0f04e" stroke-width="5.0" />
<line x1="2624.7205" y1="3539.9102" x2="2675.3708" y2="3698.5583" stroke="#b0f04e" stroke-width="5.0" />
<line x1="2675.3708" y1="3698.5583" x2="2651.437" y2="3866.4292" stroke="#b0f04e" stroke-width="5.0" />
<line x1="2651.437" y1="3866.4292" x2="2621.9373" y2="4035.2217" stroke="#b0f04e" stroke-width="5.0" />
<line x1="2621.9373" y1="4035.2217" x2="2571.2869" y2="4203.0913" stroke="#aff04f" stroke-width="5.0" />
<line x1="2571.2869" y1="4203.0913" x2="1654.571" y2="5182.6226" stroke="#aef050" stroke-width="5.0" stroke-dasharray="30 30"/>
<line x1="1654.571" y1="5182.6226" x2="1493.1578" y2="5118.9814" stroke="#aef050" stroke-width="5.0" />
<line x1="1493.1578" y1="5118.9814" x2="1326.1785" y2="5138.3506" stroke="#aef050" stroke-width="5.0" />
<line x1="1326.1785" y1="5138.3506" x2="1233.2267" y2="5276.701" stroke="#aef050" stroke-width="5.0" />
<line x1="1233.2267" y1="5276.701" x2="1045.0968" y2="5296.992" stroke="#aef050" stroke-width="5.0" />
<line x1="1045.0968" y1="5296.992" x2="902.0513" y2="5410.439" stroke="#adf051" stroke-width="5.0" />
<line x1="902.0513" y1="5410.439" x2="937.67346" y2="5578.3027" stroke="#adf051" stroke-width="5.0" />
<line x1="937.67346" y1="5578.3027" x2="1107.9923" y2="5558.9336" stroke="#adf051" stroke-width="5.0" />
<line x1="1107.9923" y1="5558.9336" x2="1272.1886" y2="5529.419" stroke="#adf051" stroke-width="5.0" />
<line x1="1272.1886" y1="5529.419" x2="1149.737" y2="5405.827" stroke="#adf051" stroke-width="5.0" />
<line x1="1149.737" y1="5405.827" x2="985.54083" y2="5450.0986" stroke="#adf051" stroke-width="5.0" />
<line x1="985.54083" y1="5450.0986" x2="1077.936" y2="5598.5938" stroke="#adf051" stroke-width="5.0" />
<line x1="1077.936" y1="5598.5938" x2="1138.0486" y2="5439.953" stroke="#acf052" stroke-width="5.0" />
<line x1="1138.0486" y1="5439.953" x2="1215.4156" y2="5593.982" stroke="#aaf054" stroke-width="5.0" />
<line x1="1215.4156" y1="5593.982" x2="1346.7726" y2="5697.282" stroke="#aaf054" stroke-width="5.0" />
<line x1="1346.7726" y1="5697.282" x2="1508.1859" y2="5736.9424" stroke="#aaf054" stroke-width="5.0" />
<line x1="1508.1859" y1="5736.9424" x2="1672.3821" y2="5707.4277" stroke="#a8f056" stroke-width="5.0" />
<line x1="1672.3821" y1="5707.4277" x2="1705.2214" y2="5544.176" stroke="#a8f056" stroke-width="5.0" />
<line x1="1705.2214" y1="5544.176" x2="1603.9207" y2="5410.439" stroke="#a8f056" stroke-width="5.0" />
<line x1="1603.9207" y1="5410.439" x2="1618.3922" y2="5232.4287" stroke="#a7f057" stroke-width="5.0" />
<line x1="1618.3922" y1="5232.4287" x2="1792.0507" y2="5222.283" stroke="#a7f057" stroke-width="5.0" />
<line x1="1792.0507" y1="5222.283" x2="3323.25" y2="6791.142" stroke="#a4f05a" stroke-width="5.0" stroke-dasharray="30 30"/>
<line x1="3323.25" y1="6791.142" x2="3338.2783" y2="6964.5337" stroke="#a4f05a" stroke-width="5.0" />
<line x1="3338.2783" y1="6964.5337" x2="3371.1177" y2="7132.3906" stroke="#a4f05a" stroke-width="5.0" />
<line x1="3371.1177" y1="7132.3906" x2="3302.656" y2="7285.49" stroke="#a4f05a" stroke-width="5.0" />
<line x1="3302.656" y1="7285.49" x2="3460.7297" y2="7345.439" stroke="#a4f05a" stroke-width="5.0" />
<line x1="3460.7297" y1="7345.439" x2="3619.36" y2="7295.6353" stroke="#a4f05a" stroke-width="5.0" />
<line x1="3619.36" y1="7295.6353" x2="4445.907" y2="6988.513" stroke="#a3f05b" stroke-width="5.0" stroke-dasharray="30 30"/>
<line x1="4445.907" y1="6988.513" x2="4610.66" y2="6944.243" stroke="#a3f05b" stroke-width="5.0" />
<line x1="4610.66" y1="6944.243" x2="4765.3945" y2="7028.1714" stroke="#a3f05b" stroke-width="5.0" />
<line x1="4765.3945" y1="7028.1714" x2="4930.147" y2="7097.3438" stroke="#a3f05b" stroke-width="5.0" />
<line x1="4930.147" y1="7097.3438" x2="5097.126" y2="7137.002" stroke="#a2f05c" stroke-width="5.0" />
<line x1="5097.126" y1="7137.002" x2="5162.8047" y2="7354.662" stroke="#a2f05c" stroke-width="5.0" stroke-dasharray="30 30"/>
<line x1="5162.8047" y1="7354.662" x2="4920.6846" y2="7469.0244" stroke="#99f065" stroke-width="5.0" stroke-dasharray="30 30"/>
<line x1="4920.6846" y1="7469.0244" x2="5007.514" y2="7563.0977" stroke="#93f06b" stroke-width="5.0" stroke-dasharray="30 30"/>
<line x1="5007.514" y1="7563.0977" x2="4825.507" y2="7542.807" stroke="#92f06c" stroke-width="5.0" />
<line x1="4825.507" y1="7542.807" x2="4583.3867" y2="7458.8794" stroke="#87f077" stroke-width="5.0" stroke-dasharray="30 30"/>
<line x1="4583.3867" y1="7458.8794" x2="4595.632" y2="7291.0244" stroke="#82f07c" stroke-width="5.0" />
<line x1="4595.632" y1="7291.0244" x2="4762.6113" y2="7315.004" stroke="#81f07d" stroke-width="5.0" />
<line x1="4762.6113" y1="7315.004" x2="4902.874" y2="7211.707" stroke="#81f07d" stroke-width="5.0" />
<line x1="4902.874" y1="7211.707" x2="4900.091" y2="7042.9287" stroke="#81f07d" stroke-width="5.0" />
<line x1="4900.091" y1="7042.9287" x2="4738.6772" y2="6998.658" stroke="#80f07e" stroke-width="5.0" />
<line x1="4738.6772" y1="6998.658" x2="4583.3867" y2="6939.6313" stroke="#80f07e" stroke-width="5.0" />
<line x1="4583.3867" y1="6939.6313" x2="4413.068" y2="6948.8545" stroke="#80f07e" stroke-width="5.0" />
<line x1="4413.068" y1="6948.8545" x2="4254.994" y2="7018.949" stroke="#80f07e" stroke-width="5.0" />
<line x1="4254.994" y1="7018.949" x2="3696.727" y2="6830.801" stroke="#7df081" stroke-width="5.0" stroke-dasharray="30 30"/>
<line x1="3696.727" y1="6830.801" x2="3538.6533" y2="6766.2397" stroke="#7df081" stroke-width="5.0" />
<line x1="3538.6533" y1="6766.2397" x2="3436.796" y2="6899.973" stroke="#7df081" stroke-width="5.0" />
<line x1="3436.796" y1="6899.973" x2="3353.3066" y2="7048.462" stroke="#7df081" stroke-width="5.0" />
<line x1="3353.3066" y1="7048.462" x2="3320.4673" y2="7220.93" stroke="#7cf082" stroke-width="5.0" />
<line x1="3320.4673" y1="7220.93" x2="3269.817" y2="7384.175" stroke="#7cf082" stroke-width="5.0" />
<line x1="3269.817" y1="7384.175" x2="3236.9775" y2="7563.0977" stroke="#7cf082" stroke-width="5.0" />
<line x1="3236.9775" y1="7563.0977" x2="3126.2146" y2="7686.6826" stroke="#7cf082" stroke-width="5.0" />
<line x1="3126.2146" y1="7686.6826" x2="3245.8833" y2="7523.4395" stroke="#6af094" stroke-width="5.0" stroke-dasharray="30 30"/>
<line x1="3245.8833" y1="7523.4395" x2="3317.6843" y2="7354.662" stroke="#6af094" stroke-width="5.0" />
<line x1="3317.6843" y1="7354.662" x2="3362.212" y2="7191.417" stroke="#6af094" stroke-width="5.0" />
<line x1="3362.212" y1="7191.417" x2="3398.3909" y2="7023.56" stroke="#6af094" stroke-width="5.0" />
<line x1="3398.3909" y1="7023.56" x2="3377.24" y2="6825.2666" stroke="#6af094" stroke-width="5.0" />
<line x1="3377.24" y1="6825.2666" x2="3344.401" y2="6662.0205" stroke="#6af094" stroke-width="5.0" />
<line x1="3344.401" y1="6662.0205" x2="3320.4673" y2="6479.4043" stroke="#69f095" stroke-width="5.0" />
<line x1="3320.4673" y1="6479.4043" x2="4643.4995" y2="3723.4622" stroke="#67f097" stroke-width="5.0" stroke-dasharray="30 30"/>
<line x1="4643.4995" y1="3723.4622" x2="4538.859" y2="3871.9631" stroke="#67f097" stroke-width="5.0" />
<line x1="4538.859" y1="3871.9631" x2="4541.6416" y2="3658.8965" stroke="#67f097" stroke-width="5.0" />
<line x1="4541.6416" y1="3658.8965" x2="4422.5303" y2="3777.882" stroke="#67f097" stroke-width="5.0" />
<line x1="4422.5303" y1="3777.882" x2="4511.586" y2="3920.8486" stroke="#66f098" stroke-width="5.0" />
<line x1="4511.586" y1="3920.8486" x2="4341.823" y2="3920.8486" stroke="#65f099" stroke-width="5.0" />
<line x1="4341.823" y1="3920.8486" x2="4317.8896" y2="3733.6084" stroke="#65f099" stroke-width="5.0" />
<line x1="4317.8896" y1="3733.6084" x2="4404.162" y2="3579.5725" stroke="#64f09a" stroke-width="5.0" />
<line x1="4404.162" y1="3579.5725" x2="4574.4814" y2="3560.2026" stroke="#64f09a" stroke-width="5.0" />
<line x1="4574.4814" y1="3560.2026" x2="4571.698" y2="3728.074" stroke="#63f09b" stroke-width="5.0" />
<line x1="4571.698" y1="3728.074" x2="4649.0654" y2="3881.1868" stroke="#62f09c" stroke-width="5.0" />
<line x1="4649.0654" y1="3881.1868" x2="4685.244" y2="3717.9282" stroke="#60f09e" stroke-width="5.0" />
<line x1="4685.244" y1="3717.9282" x2="4765.3945" y2="3564.8145" stroke="#5ff09f" stroke-width="5.0" />
<line x1="4765.3945" y1="3564.8145" x2="4744.8003" y2="3396.9424" stroke="#5ff09f" stroke-width="5.0" />
<line x1="4744.8003" y1="3396.9424" x2="4583.3867" y2="3327.764" stroke="#5ff09f" stroke-width="5.0" />
<line x1="4583.3867" y1="3327.764" x2="4452.03" y2="3213.389" stroke="#5ff09f" stroke-width="5.0" />
<line x1="4452.03" y1="3213.389" x2="3687.8213" y2="2679.3271" stroke="#5ff09f" stroke-width="5.0" stroke-dasharray="30 30"/>
<line x1="3687.8213" y1="2679.3271" x2="3556.4646" y2="2575.0964" stroke="#5ef0a0" stroke-width="5.0" />
<line x1="3556.4646" y1="2575.0964" x2="3559.2476" y2="2397.0737" stroke="#5ef0a0" stroke-width="5.0" />
<line x1="3559.2476" y1="2397.0737" x2="3496.9087" y2="2555.726" stroke="#59f0a5" stroke-width="5.0" />
<line x1="3496.9087" y1="2555.726" x2="3421.7678" y2="2708.8438" stroke="#59f0a5" stroke-width="5.0" />
<line x1="3421.7678" y1="2708.8438" x2="3221.9495" y2="2788.1692" stroke="#59f0a5" stroke-width="5.0" />
<line x1="3221.9495" y1="2788.1692" x2="3057.7534" y2="2861.9604" stroke="#59f0a5" stroke-width="5.0" />
<line x1="3057.7534" y1="2861.9604" x2="2788.9165" y2="3336.9878" stroke="#59f0a5" stroke-width="5.0" stroke-dasharray="30 30"/>
<line x1="2788.9165" y1="3336.9878" x2="2723.2383" y2="3491.0244" stroke="#58f0a6" stroke-width="5.0" />
<line x1="2723.2383" y1="3491.0244" x2="2571.2869" y2="3570.3489" stroke="#58f0a6" stroke-width="5.0" />
<line x1="2571.2869" y1="3570.3489" x2="2407.0908" y2="3445.8281" stroke="#58f0a6" stroke-width="5.0" />
<line x1="2407.0908" y1="3445.8281" x2="2562.3816" y2="3530.6865" stroke="#58f0a6" stroke-width="5.0" />
<line x1="2562.3816" y1="3530.6865" x2="2582.9756" y2="3698.5583" stroke="#58f0a6" stroke-width="5.0" />
<line x1="2582.9756" y1="3698.5583" x2="2550.1362" y2="3535.2983" stroke="#57f0a7" stroke-width="5.0" />
<line x1="2550.1362" y1="3535.2983" x2="2508.3916" y2="3708.704" stroke="#52f0ac" stroke-width="5.0" />
<line x1="2508.3916" y1="3708.704" x2="2346.9783" y2="3663.5083" stroke="#4ef0b0" stroke-width="5.0" />
<line x1="2346.9783" y1="3663.5083" x2="2272.394" y2="3515.9287" stroke="#4bf0b3" stroke-width="5.0" />
<line x1="2272.394" y1="3515.9287" x2="2353.1008" y2="3357.2803" stroke="#49f0b5" stroke-width="5.0" />
<line x1="2353.1008" y1="3357.2803" x2="2505.6084" y2="3426.4585" stroke="#47f0b7" stroke-width="5.0" />
<line x1="2505.6084" y1="3426.4585" x2="2636.9656" y2="3539.9102" stroke="#46f0b8" stroke-width="5.0" />
<line x1="2636.9656" y1="3539.9102" x2="2690.399" y2="3767.7358" stroke="#46f0b8" stroke-width="5.0" />
<line x1="2690.399" y1="3767.7358" x2="2764.983" y2="3916.2368" stroke="#46f0b8" stroke-width="5.0" />
<line x1="2764.983" y1="3916.2368" x2="2938.0847" y2="3901.479" stroke="#37f0c7" stroke-width="5.0" />
<line x1="2938.0847" y1="3901.479" x2="3096.715" y2="3847.0593" stroke="#37f0c7" stroke-width="5.0" />
<line x1="3096.715" y1="3847.0593" x2="3180.2048" y2="3703.1702" stroke="#37f0c7" stroke-width="5.0" />
<line x1="3180.2048" y1="3703.1702" x2="3398.3909" y2="3267.8096" stroke="#36f0c8" stroke-width="5.0" stroke-dasharray="30 30"/>
<line x1="3398.3909" y1="3267.8096" x2="3431.2302" y2="3099.936" stroke="#36f0c8" stroke-width="5.0" />
<line x1="3431.2302" y1="3099.936" x2="3484.6633" y2="2941.2856" stroke="#36f0c8" stroke-width="5.0" />
<line x1="3484.6633" y1="2941.2856" x2="3502.4746" y2="2767.8765" stroke="#36f0c8" stroke-width="5.0" />
<line x1="3502.4746" y1="2767.8765" x2="3514.7195" y2="2595.3892" stroke="#36f0c8" stroke-width="5.0" />
<line x1="3514.7195" y1="2595.3892" x2="3565.37" y2="2417.3667" stroke="#36f0c8" stroke-width="5.0" />
<line x1="3538.6533" y1="2526.2095" x2="3457.9468" y2="2352.7986" stroke="#b4f04a" stroke-width="5.0" />
<line x1="3457.9468" y1="2352.7986" x2="3290.4111" y2="2377.7034" stroke="#b2f04c" stroke-width="5.0" />
<line x1="3290.4111" y1="2377.7034" x2="3177.4216" y2="2505.9167" stroke="#b2f04c" stroke-width="5.0" />
<line x1="3177.4216" y1="2505.9167" x2="3084.47" y2="2644.2761" stroke="#b2f04c" stroke-width="5.0" />
<line x1="3084.47" y1="2644.2761" x2="3016.0083" y2="2798.3157" stroke="#b1f04d" stroke-width="5.0" />
<line x1="3016.0083" y1="2798.3157" x2="2797.8223" y2="3372.0383" stroke="#b1f04d" stroke-width="5.0" stroke-dasharray="30 30"/>
<line x1="2797.8223" y1="3372.0383" x2="2738.2664" y2="3530.6865" stroke="#b1f04d" stroke-width="5.0" />
<line x1="2738.2664" y1="3530.6865" x2="2660.899" y2="3683.8003" stroke="#b0f04e" stroke-width="5.0" />
<line x1="2660.899" y1="3683.8003" x2="2684.2764" y2="3851.6711" stroke="#b0f04e" stroke-width="5.0" />
<line x1="2684.2764" y1="3851.6711" x2="2624.7205" y2="4014.9297" stroke="#b0f04e" stroke-width="5.0" />
<line x1="2624.7205" y1="4014.9297" x2="2559.042" y2="4178.1875" stroke="#b0f04e" stroke-width="5.0" />
<line x1="2559.042" y1="4178.1875" x2="1672.3821" y2="5213.0596" stroke="#aff04f" stroke-width="5.0" stroke-dasharray="30 30"/>
<line x1="1672.3821" y1="5213.0596" x2="1514.3085" y2="5148.496" stroke="#aef050" stroke-width="5.0" />
<line x1="1514.3085" y1="5148.496" x2="1343.9895" y2="5192.7686" stroke="#aef050" stroke-width="5.0" />
<line x1="1343.9895" y1="5192.7686" x2="1194.8215" y2="5306.2153" stroke="#aef050" stroke-width="5.0" />
<line x1="1194.8215" y1="5306.2153" x2="1006.6916" y2="5316.3613" stroke="#aef050" stroke-width="5.0" />
<line x1="1006.6916" y1="5316.3613" x2="937.67346" y2="5469.468" stroke="#aef050" stroke-width="5.0" />
<line x1="937.67346" y1="5469.468" x2="1107.9923" y2="5499.905" stroke="#aef050" stroke-width="5.0" />
<line x1="1107.9923" y1="5499.905" x2="1060.1249" y2="5321.895" stroke="#adf051" stroke-width="5.0" />
<line x1="1060.1249" y1="5321.895" x2="1090.1812" y2="5489.759" stroke="#adf051" stroke-width="5.0" />
<line x1="1090.1812" y1="5489.759" x2="1245.4719" y2="5558.9336" stroke="#adf051" stroke-width="5.0" />
<line x1="1245.4719" y1="5558.9336" x2="1149.737" y2="5410.439" stroke="#adf051" stroke-width="5.0" />
<line x1="1149.737" y1="5410.439" x2="1182.5764" y2="5578.3027" stroke="#abf053" stroke-width="5.0" />
<line x1="1182.5764" y1="5578.3027" x2="1328.9614" y2="5677.913" stroke="#abf053" stroke-width="5.0" />
<line x1="1328.9614" y1="5677.913" x2="1487.0352" y2="5726.7964" stroke="#aaf054" stroke-width="5.0" />
<line x1="1487.0352" y1="5726.7964" x2="1639.5428" y2="5603.205" stroke="#a8f056" stroke-width="5.0" />
<line x1="1639.5428" y1="5603.205" x2="1639.5428" y2="5435.342" stroke="#a8f056" stroke-width="5.0" />
<line x1="1639.5428" y1="5435.342" x2="1642.3259" y2="5267.4775" stroke="#a8f056" stroke-width="5.0" />
<line x1="1642.3259" y1="5267.4775" x2="1809.8618" y2="5217.6714" stroke="#a8f056" stroke-width="5.0" />
<line x1="1809.8618" y1="5217.6714" x2="3299.873" y2="6622.3613" stroke="#a5f059" stroke-width="5.0" stroke-dasharray="30 30"/>
<line x1="3299.873" y1="6622.3613" x2="3338.2783" y2="6785.608" stroke="#a5f059" stroke-width="5.0" />
<line x1="3338.2783" y1="6785.608" x2="3377.24" y2="6979.29" stroke="#a5f059" stroke-width="5.0" />
<line x1="3377.24" y1="6979.29" x2="3341.6177" y2="7147.1475" stroke="#a4f05a" stroke-width="5.0" />
<line x1="3341.6177" y1="7147.1475" x2="3392.2683" y2="7310.3916" stroke="#a4f05a" stroke-width="5.0" />
<line x1="3392.2683" y1="7310.3916" x2="3559.2476" y2="7285.49" stroke="#a4f05a" stroke-width="5.0" />
<line x1="3559.2476" y1="7285.49" x2="4541.6416" y2="6954.3887" stroke="#a3f05b" stroke-width="5.0" stroke-dasharray="30 30"/>
<line x1="4541.6416" y1="6954.3887" x2="4696.9326" y2="7018.949" stroke="#a3f05b" stroke-width="5.0" />
<line x1="4696.9326" y1="7018.949" x2="4870.0347" y2="7048.462" stroke="#a3f05b" stroke-width="5.0" />
<line x1="4870.0347" y1="7048.462" x2="5040.3535" y2="7067.83" stroke="#a3f05b" stroke-width="5.0" />
<line x1="5040.3535" y1="7067.83" x2="5228.4834" y2="7266.1226" stroke="#a0f05e" stroke-width="5.0" stroke-dasharray="30 30"/>
<line x1="5228.4834" y1="7266.1226" x2="5088.2207" y2="7493.9263" stroke="#9af064" stroke-width="5.0" stroke-dasharray="30 30"/>
<line x1="5088.2207" y1="7493.9263" x2="5043.136" y2="7493.9263" stroke="#94f06a" stroke-width="5.0" stroke-dasharray="30 30"/>
<line x1="5043.136" y1="7493.9263" x2="3374.457" y2="7404.465" stroke="#6bf093" stroke-width="5.0" stroke-dasharray="30 30"/>
<line x1="3374.457" y1="7404.465" x2="3365.5515" y2="7220.93" stroke="#6af094" stroke-width="5.0" />
<line x1="3365.5515" y1="7220.93" x2="3374.457" y2="7048.462" stroke="#6af094" stroke-width="5.0" />
<line x1="3374.457" y1="7048.462" x2="3347.1838" y2="6870.4595" stroke="#6af094" stroke-width="5.0" />
<line x1="3347.1838" y1="6870.4595" x2="3418.9849" y2="6676.777" stroke="#6af094" stroke-width="5.0" />
<line x1="3418.9849" y1="6676.777" x2="3320.4673" y2="6523.675" stroke="#6af094" stroke-width="5.0" />
<line x1="3320.4673" y1="6523.675" x2="4529.953" y2="3851.6711" stroke="#68f096" stroke-width="5.0" stroke-dasharray="30 30"/>
<line x1="4529.953" y1="3851.6711" x2="4488.2085" y2="3688.412" stroke="#67f097" stroke-width="5.0" />
<line x1="4488.2085" y1="3688.412" x2="4488.2085" y2="3866.4292" stroke="#67f097" stroke-width="5.0" />
<line x1="4488.2085" y1="3866.4292" x2="4368.54" y2="3748.3662" stroke="#65f099" stroke-width="5.0" />
<line x1="4368.54" y1="3748.3662" x2="4478.746" y2="3574.9607" stroke="#64f09a" stroke-width="5.0" />
<line x1="4478.746" y1="3574.9607" x2="4553.887" y2="3723.4622" stroke="#64f09a" stroke-width="5.0" />
<line x1="4553.887" y1="3723.4622" x2="4732.5547" y2="3589.7188" stroke="#60f09e" stroke-width="5.0" />
<line x1="4732.5547" y1="3589.7188" x2="4696.9326" y2="3421.8467" stroke="#60f09e" stroke-width="5.0" />
<line x1="4696.9326" y1="3421.8467" x2="4580.604" y2="3282.5674" stroke="#60f09e" stroke-width="5.0" />
<line x1="4580.604" y1="3282.5674" x2="4383.5684" y2="3194.019" stroke="#5ff09f" stroke-width="5.0" />
<line x1="4383.5684" y1="3194.019" x2="3729.5664" y2="2748.5063" stroke="#5ff09f" stroke-width="5.0" stroke-dasharray="30 30"/>
<line x1="3729.5664" y1="2748.5063" x2="3609.8977" y2="2624.9058" stroke="#5ff09f" stroke-width="5.0" />
<line x1="3609.8977" y1="2624.9058" x2="3484.6633" y2="2505.9167" stroke="#5ff09f" stroke-width="5.0" />
<line x1="3484.6633" y1="2505.9167" x2="3580.3982" y2="2367.5571" stroke="#5ff09f" stroke-width="5.0" />
<line x1="3580.3982" y1="2367.5571" x2="3648.8596" y2="2526.2095" stroke="#5ef0a0" stroke-width="5.0" />
<line x1="3648.8596" y1="2526.2095" x2="3663.888" y2="2357.4106" stroke="#5df0a1" stroke-width="5.0" />
<line x1="3663.888" y1="2357.4106" x2="3589.304" y2="2516.0632" stroke="#5df0a1" stroke-width="5.0" />
<line x1="3589.304" y1="2516.0632" x2="3487.4463" y2="2664.5688" stroke="#5af0a4" stroke-width="5.0" />
<line x1="3487.4463" y1="2664.5688" x2="3344.401" y2="2767.8765" stroke="#5af0a4" stroke-width="5.0" />
<line x1="3344.401" y1="2767.8765" x2="3174.082" y2="2783.5574" stroke="#59f0a5" stroke-width="5.0" />
<line x1="3174.082" y1="2783.5574" x2="2801.1619" y2="3313.0059" stroke="#59f0a5" stroke-width="5.0" stroke-dasharray="30 30"/>
<line x1="2801.1619" y1="3313.0059" x2="2738.2664" y2="3470.7324" stroke="#59f0a5" stroke-width="5.0" />
<line x1="2738.2664" y1="3470.7324" x2="2580.1926" y2="3530.6865" stroke="#59f0a5" stroke-width="5.0" />
<line x1="2580.1926" y1="3530.6865" x2="2439.93" y2="3426.4585" stroke="#58f0a6" stroke-width="5.0" />
<line x1="2439.93" y1="3426.4585" x2="2562.3816" y2="3545.4446" stroke="#57f0a7" stroke-width="5.0" />
<line x1="2562.3816" y1="3545.4446" x2="2723.2383" y2="3594.3306" stroke="#55f0a9" stroke-width="5.0" />
<line x1="2723.2383" y1="3594.3306" x2="2666.465" y2="3752.978" stroke="#53f0ab" stroke-width="5.0" />
<line x1="2666.465" y1="3752.978" x2="2651.437" y2="3926.3828" stroke="#53f0ab" stroke-width="5.0" />
<line x1="2651.437" y1="3926.3828" x2="2690.399" y2="4089.6409" stroke="#53f0ab" stroke-width="5.0" />
<line x1="2690.399" y1="4089.6409" x2="2589.0981" y2="4311.929" stroke="#51f0ad" stroke-width="5.0" />
<line x1="2589.0981" y1="4311.929" x2="2660.899" y2="3822.1555" stroke="#50f0ae" stroke-width="5.0" stroke-dasharray="30 30"/>
<line x1="2660.899" y1="3822.1555" x2="2678.7104" y2="3648.7502" stroke="#50f0ae" stroke-width="5.0" />
<line x1="2678.7104" y1="3648.7502" x2="2559.042" y2="3530.6865" stroke="#50f0ae" stroke-width="5.0" />
<line x1="2559.042" y1="3530.6865" x2="2433.8074" y2="3411.7004" stroke="#50f0ae" stroke-width="5.0" />
<line x1="2433.8074" y1="3411.7004" x2="2323.0447" y2="3288.1018" stroke="#4ff0af" stroke-width="5.0" />
<line x1="2323.0447" y1="3288.1018" x2="2478.3352" y2="3351.7458" stroke="#4af0b4" stroke-width="5.0" />
<line x1="2478.3352" y1="3351.7458" x2="2538.4478" y2="3470.7324" stroke="#47f0b7" stroke-width="5.0" stroke-dasharray="30 30"/>
<line x1="2538.4478" y1="3470.7324" x2="2693.7383" y2="3550.0564" stroke="#47f0b7" stroke-width="5.0" />
<line x1="2693.7383" y1="3550.0564" x2="2678.7104" y2="3728.074" stroke="#47f0b7" stroke-width="5.0" />
<line x1="2678.7104" y1="3728.074" x2="2741.0493" y2="3886.7212" stroke="#46f0b8" stroke-width="5.0" />
<line x1="3616.0205" y1="2407.2202" x2="3490.7861" y2="2288.2305" stroke="#b3f04b" stroke-width="5.0" />
<line x1="3490.7861" y1="2288.2305" x2="3338.2783" y2="2357.4106" stroke="#b2f04c" stroke-width="5.0" />
<line x1="3338.2783" y1="2357.4106" x2="3204.1382" y2="2491.1584" stroke="#b1f04d" stroke-width="5.0" />
<line x1="3204.1382" y1="2491.1584" x2="3096.715" y2="2635.0522" stroke="#b1f04d" stroke-width="5.0" />
<line x1="3096.715" y1="2635.0522" x2="3033.8196" y2="2792.7812" stroke="#b1f04d" stroke-width="5.0" />
<line x1="3033.8196" y1="2792.7812" x2="2816.19" y2="3322.23" stroke="#b1f04d" stroke-width="5.0" stroke-dasharray="30 30"/>
<line x1="2816.19" y1="3322.23" x2="2747.1719" y2="3476.2668" stroke="#b0f04e" stroke-width="5.0" />
<line x1="2747.1719" y1="3476.2668" x2="2630.8428" y2="3594.3306" stroke="#b0f04e" stroke-width="5.0" />
<line x1="2630.8428" y1="3594.3306" x2="2705.427" y2="3748.3662" stroke="#b0f04e" stroke-width="5.0" />
<line x1="2705.427" y1="3748.3662" x2="2708.21" y2="3916.2368" stroke="#b0f04e" stroke-width="5.0" />
<line x1="2708.21" y1="3916.2368" x2="2621.9373" y2="4060.1255" stroke="#aff04f" stroke-width="5.0" />
<line x1="2621.9373" y1="4060.1255" x2="2591.881" y2="4223.383" stroke="#aff04f" stroke-width="5.0" />
<line x1="2591.881" y1="4223.383" x2="1603.9207" y2="5222.283" stroke="#aef050" stroke-width="5.0" stroke-dasharray="30 30"/>
<line x1="1603.9207" y1="5222.283" x2="1445.2904" y2="5153.108" stroke="#aef050" stroke-width="5.0" />
<line x1="1445.2904" y1="5153.108" x2="1302.2449" y2="5242.574" stroke="#aef050" stroke-width="5.0" />
<line x1="1302.2449" y1="5242.574" x2="1143.6146" y2="5306.2153" stroke="#aef050" stroke-width="5.0" />
<line x1="1143.6146" y1="5306.2153" x2="979.4183" y2="5366.167" stroke="#adf051" stroke-width="5.0" />
<line x1="979.4183" y1="5366.167" x2="925.985" y2="5534.031" stroke="#adf051" stroke-width="5.0" />
<line x1="925.985" y1="5534.031" x2="1125.8035" y2="5558.9336" stroke="#adf051" stroke-width="5.0" />
<line x1="1125.8035" y1="5558.9336" x2="1293.3392" y2="5509.128" stroke="#adf051" stroke-width="5.0" />
<line x1="1293.3392" y1="5509.128" x2="1143.6146" y2="5360.633" stroke="#adf051" stroke-width="5.0" />
<line x1="1143.6146" y1="5360.633" x2="985.54083" y2="5435.342" stroke="#adf051" stroke-width="5.0" />
<line x1="985.54083" y1="5435.342" x2="1110.7753" y2="5554.322" stroke="#adf051" stroke-width="5.0" />
<line x1="1110.7753" y1="5554.322" x2="1251.5945" y2="5687.1367" stroke="#aaf054" stroke-width="5.0" />
<line x1="1251.5945" y1="5687.1367" x2="1433.6018" y2="5722.185" stroke="#aaf054" stroke-width="5.0" />
<line x1="1433.6018" y1="5722.185" x2="1621.7317" y2="5722.185" stroke="#a8f056" stroke-width="5.0" />
<line x1="1621.7317" y1="5722.185" x2="1681.2877" y2="5523.885" stroke="#a8f056" stroke-width="5.0" />
<line x1="1681.2877" y1="5523.885" x2="1579.9868" y2="5391.07" stroke="#a8f056" stroke-width="5.0" />
<line x1="1579.9868" y1="5391.07" x2="1633.4203" y2="5232.4287" stroke="#a7f057" stroke-width="5.0" />
<line x1="1633.4203" y1="5232.4287" x2="1803.7391" y2="5217.6714" stroke="#a7f057" stroke-width="5.0" />
<line x1="1803.7391" y1="5217.6714" x2="3260.9111" y2="6598.3813" stroke="#a4f05a" stroke-width="5.0" stroke-dasharray="30 30"/>
<line x1="3260.9111" y1="6598.3813" x2="3329.3728" y2="6756.094" stroke="#a4f05a" stroke-width="5.0" />
<line x1="3329.3728" y1="6756.094" x2="3350.5234" y2="6954.3887" stroke="#a4f05a" stroke-width="5.0" />
<line x1="3350.5234" y1="6954.3887" x2="3344.401" y2="7122.2456" stroke="#a4f05a" stroke-width="5.0" />
<line x1="3344.401" y1="7122.2456" x2="3374.457" y2="7295.6353" stroke="#a4f05a" stroke-width="5.0" />
<line x1="3374.457" y1="7295.6353" x2="3541.4365" y2="7291.0244" stroke="#a4f05a" stroke-width="5.0" />
<line x1="3541.4365" y1="7291.0244" x2="3732.349" y2="7270.7334" stroke="#a4f05a" stroke-width="5.0" />
<line x1="3732.349" y1="7270.7334" x2="4377.446" y2="6969.145" stroke="#a3f05b" stroke-width="5.0" stroke-dasharray="30 30"/>
<line x1="4377.446" y1="6969.145" x2="4541.6416" y2="6934.0977" stroke="#a3f05b" stroke-width="5.0" />
<line x1="4541.6416" y1="6934.0977" x2="4705.8384" y2="7003.2695" stroke="#a3f05b" stroke-width="5.0" />
<line x1="4705.8384" y1="7003.2695" x2="4873.374" y2="7018.949" stroke="#a2f05c" stroke-width="5.0" />
<line x1="4873.374" y1="7018.949" x2="5022.542" y2="7092.732" stroke="#a2f05c" stroke-width="5.0" />
<line x1="5022.542" y1="7092.732" x2="3666.671" y2="2481.0122" stroke="#5df0a1" stroke-width="5.0" stroke-dasharray="30 30"/>
<line x1="3666.671" y1="2481.0122" x2="3514.7195" y2="2550.192" stroke="#59f0a5" stroke-width="5.0" />
<line x1="3514.7195" y1="2550.192" x2="3412.8623" y2="2689.4731" stroke="#59f0a5" stroke-width="5.0" />
<line x1="3412.8623" y1="2689.4731" x2="3252.0056" y2="2743.8945" stroke="#59f0a5" stroke-width="5.0" />
<line x1="3252.0056" y1="2743.8945" x2="3063.8757" y2="2832.444" stroke="#59f0a5" stroke-width="5.0" />
<line x1="3063.8757" y1="2832.444" x2="2747.1719" y2="3386.7964" stroke="#59f0a5" stroke-width="5.0" stroke-dasharray="30 30"/>
<line x1="2747.1719" y1="3386.7964" x2="2696.5212" y2="3545.4446" stroke="#58f0a6" stroke-width="5.0" />
<line x1="2696.5212" y1="3545.4446" x2="2535.1082" y2="3480.8787" stroke="#58f0a6" stroke-width="5.0" />
<line x1="2535.1082" y1="3480.8787" x2="2600.7866" y2="3639.5266" stroke="#58f0a6" stroke-width="5.0" />
<line x1="2600.7866" y1="3639.5266" x2="2493.3633" y2="3510.3945" stroke="#56f0a8" stroke-width="5.0" />
<line x1="3541.4365" y1="2421.9785" x2="3431.2302" y2="2283.6184" stroke="#b3f04b" stroke-width="5.0" />
<line x1="3431.2302" y1="2283.6184" x2="3290.4111" y2="2382.3154" stroke="#b2f04c" stroke-width="5.0" />
<line x1="3290.4111" y1="2382.3154" x2="3174.082" y2="2505.9167" stroke="#b1f04d" stroke-width="5.0" />
<line x1="3174.082" y1="2505.9167" x2="3087.8096" y2="2649.8105" stroke="#b1f04d" stroke-width="5.0" />
<line x1="3087.8096" y1="2649.8105" x2="3007.103" y2="2798.3157" stroke="#b1f04d" stroke-width="5.0" />
<line x1="3007.103" y1="2798.3157" x2="2803.9448" y2="3361.892" stroke="#b1f04d" stroke-width="5.0" stroke-dasharray="30 30"/>
<line x1="2803.9448" y1="3361.892" x2="2726.5776" y2="3510.3945" stroke="#b1f04d" stroke-width="5.0" />
<line x1="2726.5776" y1="3510.3945" x2="2663.6821" y2="3708.704" stroke="#b0f04e" stroke-width="5.0" />
<line x1="2663.6821" y1="3708.704" x2="2630.8428" y2="3876.575" stroke="#b0f04e" stroke-width="5.0" />
<line x1="2630.8428" y1="3876.575" x2="2604.1262" y2="4045.3677" stroke="#b0f04e" stroke-width="5.0" />
<line x1="2604.1262" y1="4045.3677" x2="1630.6373" y2="5207.5254" stroke="#aef050" stroke-width="5.0" stroke-dasharray="30 30"/>
<line x1="1630.6373" y1="5207.5254" x2="1481.4692" y2="5118.9814" stroke="#aef050" stroke-width="5.0" />
<line x1="1481.4692" y1="5118.9814" x2="1322.8389" y2="5192.7686" stroke="#aef050" stroke-width="5.0" />
<line x1="1322.8389" y1="5192.7686" x2="1176.4537" y2="5311.749" stroke="#aef050" stroke-width="5.0" />
<line x1="1176.4537" y1="5311.749" x2="1009.47455" y2="5360.633" stroke="#aef050" stroke-width="5.0" />
<line x1="1009.47455" y1="5360.633" x2="943.7961" y2="5519.2734" stroke="#aef050" stroke-width="5.0" />
<line x1="943.7961" y1="5519.2734" x2="1209.2931" y2="5593.982" stroke="#adf051" stroke-width="5.0" />
<line x1="1209.2931" y1="5593.982" x2="1266.0659" y2="5430.73" stroke="#adf051" stroke-width="5.0" />
<line x1="1266.0659" y1="5430.73" x2="1009.47455" y2="5385.536" stroke="#adf051" stroke-width="5.0" />
<line x1="1009.47455" y1="5385.536" x2="1027.2856" y2="5554.322" stroke="#adf051" stroke-width="5.0" />
<line x1="1027.2856" y1="5554.322" x2="1218.7551" y2="5563.545" stroke="#adf051" stroke-width="5.0" />
<line x1="1218.7551" y1="5563.545" x2="1101.8698" y2="5435.342" stroke="#adf051" stroke-width="5.0" />
<line x1="1101.8698" y1="5435.342" x2="1131.926" y2="5598.5938" stroke="#abf053" stroke-width="5.0" />
<line x1="1131.926" y1="5598.5938" x2="1293.3392" y2="5702.8164" stroke="#aaf054" stroke-width="5.0" />
<line x1="1293.3392" y1="5702.8164" x2="1466.441" y2="5736.9424" stroke="#aaf054" stroke-width="5.0" />
<line x1="1466.441" y1="5736.9424" x2="1624.5148" y2="5648.399" stroke="#a8f056" stroke-width="5.0" />
<line x1="1624.5148" y1="5648.399" x2="1657.354" y2="5479.614" stroke="#a8f056" stroke-width="5.0" />
<line x1="1657.354" y1="5479.614" x2="1582.7699" y2="5331.118" stroke="#a8f056" stroke-width="5.0" />
<line x1="1582.7699" y1="5331.118" x2="1716.9099" y2="5232.4287" stroke="#a7f057" stroke-width="5.0" />
<line x1="1716.9099" y1="5232.4287" x2="3368.3347" y2="6756.094" stroke="#a4f05a" stroke-width="5.0" stroke-dasharray="30 30"/>
<line x1="3368.3347" y1="6756.094" x2="3398.3909" y2="6924.875" stroke="#a4f05a" stroke-width="5.0" />
<line x1="3398.3909" y1="6924.875" x2="3410.0793" y2="7092.732" stroke="#a4f05a" stroke-width="5.0" />
<line x1="3410.0793" y1="7092.732" x2="3383.3628" y2="7275.3447" stroke="#a4f05a" stroke-width="5.0" />
<line x1="3383.3628" y1="7275.3447" x2="3550.3418" y2="7310.3916" stroke="#a4f05a" stroke-width="5.0" />
<line x1="3550.3418" y1="7310.3916" x2="3708.4155" y2="7255.977" stroke="#a4f05a" stroke-width="5.0" />
<line x1="3708.4155" y1="7255.977" x2="4529.953" y2="6954.3887" stroke="#a3f05b" stroke-width="5.0" stroke-dasharray="30 30"/>
<line x1="4529.953" y1="6954.3887" x2="4699.716" y2="6979.29" stroke="#a3f05b" stroke-width="5.0" />
<line x1="4699.716" y1="6979.29" x2="4876.1567" y2="7033.7056" stroke="#a2f05c" stroke-width="5.0" />
<line x1="4876.1567" y1="7033.7056" x2="5049.259" y2="7063.2188" stroke="#a2f05c" stroke-width="5.0" />
<line x1="5049.259" y1="7063.2188" x2="4771.5166" y2="7567.709" stroke="#8bf073" stroke-width="5.0" stroke-dasharray="30 30"/>
<line x1="4771.5166" y1="7567.709" x2="4547.7646" y2="7513.294" stroke="#86f078" stroke-width="5.0" />
<line x1="4547.7646" y1="7513.294" x2="4607.3203" y2="7350.05" stroke="#82f07c" stroke-width="5.0" />
<line x1="4607.3203" y1="7350.05" x2="4783.7617" y2="7354.662" stroke="#81f07d" stroke-width="5.0" />
<line x1="4783.7617" y1="7354.662" x2="4861.129" y2="7201.562" stroke="#81f07d" stroke-width="5.0" />
<line x1="4861.129" y1="7201.562" x2="4813.261" y2="7028.1714" stroke="#81f07d" stroke-width="5.0" />
<line x1="4813.261" y1="7028.1714" x2="4672.999" y2="6929.4863" stroke="#80f07e" stroke-width="5.0" />
<line x1="4672.999" y1="6929.4863" x2="4506.02" y2="6929.4863" stroke="#80f07e" stroke-width="5.0" />
<line x1="4506.02" y1="6929.4863" x2="4347.3896" y2="6979.29" stroke="#80f07e" stroke-width="5.0" />
<line x1="4347.3896" y1="6979.29" x2="4186.5327" y2="7028.1714" stroke="#80f07e" stroke-width="5.0" />
<line x1="4186.5327" y1="7028.1714" x2="3681.699" y2="6805.8984" stroke="#7df081" stroke-width="5.0" stroke-dasharray="30 30"/>
<line x1="3681.699" y1="6805.8984" x2="3523.6252" y2="6756.094" stroke="#7df081" stroke-width="5.0" />
<line x1="3523.6252" y1="6756.094" x2="3395.0513" y2="6875.071" stroke="#7df081" stroke-width="5.0" />
<line x1="3395.0513" y1="6875.071" x2="3386.1455" y2="7063.2188" stroke="#7df081" stroke-width="5.0" />
<line x1="3386.1455" y1="7063.2188" x2="3377.24" y2="7236.609" stroke="#7df081" stroke-width="5.0" />
<line x1="3377.24" y1="7236.609" x2="3302.656" y2="7384.175" stroke="#7cf082" stroke-width="5.0" />
<line x1="3302.656" y1="7384.175" x2="3257.5718" y2="7582.4653" stroke="#7cf082" stroke-width="5.0" />
<line x1="3257.5718" y1="7582.4653" x2="3156.271" y2="7716.196" stroke="#7cf082" stroke-width="5.0" />
<line x1="3156.271" y1="7716.196" x2="3224.7324" y2="7552.952" stroke="#6af094" stroke-width="5.0" />
<line x1="3224.7324" y1="7552.952" x2="3287.628" y2="7394.3203" stroke="#6af094" stroke-width="5.0" />
<line x1="3287.628" y1="7394.3203" x2="3272.5999" y2="7220.93" stroke="#6af094" stroke-width="5.0" />
<line x1="3272.5999" y1="7220.93" x2="3317.6843" y2="7038.3164" stroke="#6af094" stroke-width="5.0" />
<line x1="3317.6843" y1="7038.3164" x2="3299.873" y2="6860.3145" stroke="#6af094" stroke-width="5.0" />
<line x1="3299.873" y1="6860.3145" x2="3371.1177" y2="6662.0205" stroke="#6af094" stroke-width="5.0" />
<line x1="3371.1177" y1="6662.0205" x2="3302.656" y2="6444.3564" stroke="#6af094" stroke-width="5.0" />
<line x1="3302.656" y1="6444.3564" x2="4628.471" y2="3797.2515" stroke="#68f096" stroke-width="5.0" stroke-dasharray="30 30"/>
<line x1="4628.471" y1="3797.2515" x2="4475.9634" y2="3871.9631" stroke="#67f097" stroke-width="5.0" />
<line x1="4475.9634" y1="3871.9631" x2="4332.918" y2="3767.7358" stroke="#65f099" stroke-width="5.0" />
<line x1="4332.918" y1="3767.7358" x2="4398.5967" y2="3599.8645" stroke="#65f099" stroke-width="5.0" />
<line x1="4398.5967" y1="3599.8645" x2="4565.5757" y2="3609.0884" stroke="#64f09a" stroke-width="5.0" />
<line x1="4565.5757" y1="3609.0884" x2="4535.5195" y2="3782.494" stroke="#63f09b" stroke-width="5.0" />
<line x1="4535.5195" y1="3782.494" x2="4688.027" y2="3703.1702" stroke="#60f09e" stroke-width="5.0" />
<line x1="4688.027" y1="3703.1702" x2="4774.8564" y2="3525.1526" stroke="#60f09e" stroke-width="5.0" />
<line x1="4774.8564" y1="3525.1526" x2="4726.989" y2="3351.7458" stroke="#5ff09f" stroke-width="5.0" />
<line x1="4726.989" y1="3351.7458" x2="4562.7925" y2="3307.4717" stroke="#5ff09f" stroke-width="5.0" />
<line x1="4562.7925" y1="3307.4717" x2="4419.1904" y2="3208.777" stroke="#5ff09f" stroke-width="5.0" />
<line x1="4419.1904" y1="3208.777" x2="3738.472" y2="2679.3271" stroke="#5ff09f" stroke-width="5.0" stroke-dasharray="30 30"/>
<line x1="3738.472" y1="2679.3271" x2="3583.1812" y2="2600.0012" stroke="#5ff09f" stroke-width="5.0" />
<line x1="3583.1812" y1="2600.0012" x2="3505.8142" y2="2441.349" stroke="#5ef0a0" stroke-width="5.0" />
<line x1="3505.8142" y1="2441.349" x2="3517.5027" y2="2624.9058" stroke="#59f0a5" stroke-width="5.0" />
<line x1="3517.5027" y1="2624.9058" x2="3386.1455" y2="2738.3604" stroke="#59f0a5" stroke-width="5.0" />
<line x1="3386.1455" y1="2738.3604" x2="3219.1665" y2="2783.5574" stroke="#59f0a5" stroke-width="5.0" />
<line x1="3219.1665" y1="2783.5574" x2="3063.8757" y2="2867.4949" stroke="#59f0a5" stroke-width="5.0" />
<line x1="3063.8757" y1="2867.4949" x2="2812.8503" y2="3277.9556" stroke="#59f0a5" stroke-width="5.0" stroke-dasharray="30 30"/>
<line x1="2812.8503" y1="3277.9556" x2="2726.5776" y2="3426.4585" stroke="#59f0a5" stroke-width="5.0" />
<line x1="2726.5776" y1="3426.4585" x2="2628.06" y2="3564.8145" stroke="#58f0a6" stroke-width="5.0" />
<line x1="2628.06" y1="3564.8145" x2="2463.8638" y2="3495.6367" stroke="#58f0a6" stroke-width="5.0" />
<line x1="2463.8638" y1="3495.6367" x2="2580.1926" y2="3614.6226" stroke="#58f0a6" stroke-width="5.0" />
<line x1="2580.1926" y1="3614.6226" x2="2478.3352" y2="3480.8787" stroke="#56f0a8" stroke-width="5.0" />
<line x1="2478.3352" y1="3480.8787" x2="2481.6748" y2="3673.6543" stroke="#54f0aa" stroke-width="5.0" />
<line x1="2481.6748" y1="3673.6543" x2="2341.412" y2="3585.107" stroke="#4df0b1" stroke-width="5.0" />
<line x1="2341.412" y1="3585.107" x2="2230.6494" y2="3455.9744" stroke="#4af0b4" stroke-width="5.0" />
<line x1="2230.6494" y1="3455.9744" x2="2392.0627" y2="3539.9102" stroke="#4af0b4" stroke-width="5.0" />
<line x1="2392.0627" y1="3539.9102" x2="2544.0137" y2="3673.6543" stroke="#4af0b4" stroke-width="5.0" />
<line x1="2544.0137" y1="3673.6543" x2="2693.7383" y2="3579.5725" stroke="#4af0b4" stroke-width="5.0" />
<line x1="2693.7383" y1="3579.5725" x2="2457.7412" y2="3466.1206" stroke="#4af0b4" stroke-width="5.0" />
<line x1="2457.7412" y1="3466.1206" x2="2457.7412" y2="3669.0425" stroke="#4af0b4" stroke-width="5.0" />
<line x1="2457.7412" y1="3669.0425" x2="2284.6392" y2="3594.3306" stroke="#4af0b4" stroke-width="5.0" />
<line x1="2284.6392" y1="3594.3306" x2="2251.8" y2="3431.0703" stroke="#49f0b5" stroke-width="5.0" />
<line x1="2251.8" y1="3431.0703" x2="2490.5806" y2="3342.522" stroke="#47f0b7" stroke-width="5.0" stroke-dasharray="30 30"/>
<line x1="2490.5806" y1="3342.522" x2="2559.042" y2="3495.6367" stroke="#46f0b8" stroke-width="5.0" />
<line x1="2559.042" y1="3495.6367" x2="2648.6543" y2="3639.5266" stroke="#46f0b8" stroke-width="5.0" />
<line x1="2648.6543" y1="3639.5266" x2="2729.3606" y2="3788.0278" stroke="#46f0b8" stroke-width="5.0" />
<line x1="2729.3606" y1="3788.0278" x2="2771.1055" y2="3951.2866" stroke="#46f0b8" stroke-width="5.0" />
<circle cx="3575.7212" cy="2575.1965" r="124.58623" stroke="#b3f04b" stroke-width="10.0" fill="#0f0" fill-opacity="0.1"/>
<circle cx="2657.6553" cy="3588.212" r="83.05749" stroke="#b0f04e" stroke-width="10.0" fill="#00f" fill-opacity="0.1"/>
<circle cx="1333.5027" cy="5186.069" r="83.05749" stroke="#aef050" stroke-width="10.0" fill="#00f" fill-opacity="0.1"/>
<circle cx="976.41724" cy="5529.4316" r="166.11497" stroke="#aef050" stroke-width="10.0" fill="#f00" fill-opacity="0.1"/>
<circle cx="1559.846" cy="5716.2344" r="124.58623" stroke="#aaf054" stroke-width="10.0" fill="#ff0" fill-opacity="0.1"/>
<circle cx="1479.0892" cy="5374.863" r="207.64372" stroke="#a8f056" stroke-width="10.0" fill="#00f" fill-opacity="0.1"/>
<circle cx="4782.8535" cy="7030.661" r="83.05749" stroke="#a3f05b" stroke-width="10.0" fill="#00f" fill-opacity="0.1"/>
<circle cx="4880.4487" cy="7538.2383" r="124.58623" stroke="#9cf062" stroke-width="10.0" fill="#f00" fill-opacity="0.1"/>
<circle cx="4877.523" cy="7491.924" r="124.58623" stroke="#93f06b" stroke-width="10.0" fill="#f00" fill-opacity="0.1"/>
<circle cx="3469.9624" cy="6805.499" r="124.58623" stroke="#6af094" stroke-width="10.0" fill="#0f0" fill-opacity="0.1"/>
<circle cx="4689.1084" cy="3724.73" r="124.58623" stroke="#67f097" stroke-width="10.0" fill="#00f" fill-opacity="0.1"/>
<circle cx="4771.977" cy="3497.6584" r="83.05749" stroke="#5ff09f" stroke-width="10.0" fill="#00f" fill-opacity="0.1"/>
<circle cx="2514.3816" cy="3666.4858" r="83.05749" stroke="#58f0a6" stroke-width="10.0" fill="#f00" fill-opacity="0.1"/>
<circle cx="2277.6855" cy="3431.4048" r="83.05749" stroke="#4df0b1" stroke-width="10.0" fill="#ff0" fill-opacity="0.1"/>
<circle cx="3597.9062" cy="3203.725" r="207.64372" stroke="#36f0c8" stroke-width="10.0" fill="#00f" fill-opacity="0.1"/>
<circle cx="3587.5535" cy="2539.238" r="124.58623" stroke="#b4f04a" stroke-width="10.0" fill="#0f0" fill-opacity="0.1"/>
<circle cx="2642.0815" cy="3601.5073" r="83.05749" stroke="#b1f04d" stroke-width="10.0" fill="#00f" fill-opacity="0.1"/>
<circle cx="1498.2429" cy="5406.6885" r="207.64372" stroke="#aff04f" stroke-width="10.0" fill="#00f" fill-opacity="0.1"/>
<circle cx="1327.7446" cy="5153.435" r="83.05749" stroke="#aef050" stroke-width="10.0" fill="#00f" fill-opacity="0.1"/>
<circle cx="971.00195" cy="5558.357" r="166.11497" stroke="#aef050" stroke-width="10.0" fill="#f00" fill-opacity="0.1"/>
<circle cx="1595.5879" cy="5735.008" r="124.58623" stroke="#abf053" stroke-width="10.0" fill="#ff0" fill-opacity="0.1"/>
<circle cx="4752.505" cy="7046.293" r="83.05749" stroke="#a3f05b" stroke-width="10.0" fill="#00f" fill-opacity="0.1"/>
<circle cx="4866.83" cy="7509.2227" r="124.58623" stroke="#9df061" stroke-width="10.0" fill="#f00" fill-opacity="0.1"/>
<circle cx="4874.323" cy="7516.8916" r="124.58623" stroke="#9af064" stroke-width="10.0" fill="#f00" fill-opacity="0.1"/>
<circle cx="4904.299" cy="7489.875" r="124.58623" stroke="#92f06c" stroke-width="10.0" fill="#f00" fill-opacity="0.1"/>
<circle cx="4895.1543" cy="7516.8086" r="124.58623" stroke="#8ff06f" stroke-width="10.0" fill="#f00" fill-opacity="0.1"/>
<circle cx="4894.877" cy="7531.277" r="124.58623" stroke="#8ef070" stroke-width="10.0" fill="#f00" fill-opacity="0.1"/>
<circle cx="4708.1016" cy="3730.187" r="124.58623" stroke="#68f096" stroke-width="10.0" fill="#00f" fill-opacity="0.1"/>
<circle cx="4783.316" cy="3498.2153" r="83.05749" stroke="#60f09e" stroke-width="10.0" fill="#00f" fill-opacity="0.1"/>
<circle cx="2636.9055" cy="3589.4824" r="83.05749" stroke="#59f0a5" stroke-width="10.0" fill="#00f" fill-opacity="0.1"/>
<circle cx="2658.3047" cy="3569.105" r="83.05749" stroke="#50f0ae" stroke-width="10.0" fill="#00f" fill-opacity="0.1"/>
<circle cx="2531.912" cy="3317.6877" r="124.58623" stroke="#4af0b4" stroke-width="10.0" fill="#0f0" fill-opacity="0.1"/>
<circle cx="2651.395" cy="3593.5576" r="83.05749" stroke="#47f0b7" stroke-width="10.0" fill="#00f" fill-opacity="0.1"/>
<circle cx="3588.341" cy="2548.472" r="124.58623" stroke="#19f0e5" stroke-width="10.0" fill="#0f0" fill-opacity="0.1"/>
<circle cx="2615.894" cy="3563.5256" r="83.05749" stroke="#b0f04e" stroke-width="10.0" fill="#00f" fill-opacity="0.1"/>
<circle cx="1484.7943" cy="5388.2363" r="207.64372" stroke="#aef050" stroke-width="10.0" fill="#00f" fill-opacity="0.1"/>
<circle cx="1346.7383" cy="5174.419" r="83.05749" stroke="#aef050" stroke-width="10.0" fill="#00f" fill-opacity="0.1"/>
<circle cx="958.8495" cy="5565.0195" r="166.11497" stroke="#adf051" stroke-width="10.0" fill="#f00" fill-opacity="0.1"/>
<circle cx="1577.5062" cy="5740.906" r="124.58623" stroke="#aaf054" stroke-width="10.0" fill="#ff0" fill-opacity="0.1"/>
<circle cx="4776.107" cy="7039.2393" r="83.05749" stroke="#a3f05b" stroke-width="10.0" fill="#00f" fill-opacity="0.1"/>
<circle cx="2533.2383" cy="3640.0454" r="83.05749" stroke="#58f0a6" stroke-width="10.0" fill="#f00" fill-opacity="0.1"/>
<circle cx="3617.6282" cy="2566.124" r="124.58623" stroke="#1cf0e2" stroke-width="10.0" fill="#0f0" fill-opacity="0.1"/>
<circle cx="2625.4885" cy="3603.5503" r="83.05749" stroke="#b0f04e" stroke-width="10.0" fill="#00f" fill-opacity="0.1"/>
<circle cx="1319.6483" cy="5150.0737" r="83.05749" stroke="#aef050" stroke-width="10.0" fill="#00f" fill-opacity="0.1"/>
<circle cx="952.10583" cy="5533.476" r="166.11497" stroke="#aef050" stroke-width="10.0" fill="#f00" fill-opacity="0.1"/>
<circle cx="1578.2615" cy="5716.503" r="124.58623" stroke="#aaf054" stroke-width="10.0" fill="#ff0" fill-opacity="0.1"/>
<circle cx="1492.112" cy="5382.3096" r="207.64372" stroke="#a8f056" stroke-width="10.0" fill="#00f" fill-opacity="0.1"/>
<circle cx="4772.664" cy="7031.0864" r="83.05749" stroke="#a3f05b" stroke-width="10.0" fill="#00f" fill-opacity="0.1"/>
<circle cx="4887.1016" cy="7534.827" r="124.58623" stroke="#98f066" stroke-width="10.0" fill="#f00" fill-opacity="0.1"/>
<circle cx="4669.898" cy="7373.3027" r="41.528744" stroke="#82f07c" stroke-width="10.0" fill="#ff0" fill-opacity="0.1"/>
<circle cx="4671.9624" cy="3734.1685" r="124.58623" stroke="#68f096" stroke-width="10.0" fill="#00f" fill-opacity="0.1"/>
<circle cx="4785.7734" cy="3494.3557" r="83.05749" stroke="#60f09e" stroke-width="10.0" fill="#00f" fill-opacity="0.1"/>
<circle cx="3609.7925" cy="2554.2202" r="124.58623" stroke="#59f0a5" stroke-width="10.0" fill="#0f0" fill-opacity="0.1"/>
<circle cx="2533.5408" cy="3646.273" r="83.05749" stroke="#58f0a6" stroke-width="10.0" fill="#f00" fill-opacity="0.1"/>
<circle cx="2255.2031" cy="3459.8389" r="83.05749" stroke="#4cf0b2" stroke-width="10.0" fill="#ff0" fill-opacity="0.1"/>
</svg>
