<?xml version="1.0" standalone="no"?>
<!DOCTYPE svg PUBLIC "-//W3C//DTD SVG 1.1//EN" "http://www.w3.org/Graphics/SVG/1.1/DTD/svg11.dtd">
<svg opacity="20%" width="30cm" height="30cm" version="1.1" viewBox="0 0 10000 10000" xmlns="http://www.w3.org/2000/svg" xmlns:xlink="http://www.w3.org/1999/xlink">
<desc>DrawTrails of automics data, Mon Jul 25 14:51:47 BST 2011</desc>
<filter id="desaturate"  primitiveUnits="objectBoundingBox">
<feImage x="0%" y="0%" width="100%" height="100%" xlink:href="altontowers-zoom15.png"/>
<feColorMatrix type="matrix" values="0.3333 0.3333 0.3333 0 0 0.3333 0.3333 0.3333 0 0 0.3333 0.3333 0.3333 0 0 0      0      0      1 0"/>
<feColorMatrix type="matrix" values="0.05 0 0 0 0 0 0.05 0 0 0 0 0 0.05 0 0 0      0      0      1 0"/>
</filter>
<rect x="-2643.7028285176257" y="-2643.7028285176257" width="15287.405657035251" height="15287.405657035251" filter="url(#desaturate)"/>
<line x1="3511.38" y1="2481.0122" x2="3622.143" y2="2635.0522" stroke="#85f079" stroke-width="5.0" />
<line x1="3622.143" y1="2635.0522" x2="3774.0942" y2="2708.8438" stroke="#85f079" stroke-width="5.0" />
<line x1="3774.0942" y1="2708.8438" x2="3920.479" y2="2802.9275" stroke="#85f079" stroke-width="5.0" />
<line x1="3920.479" y1="2802.9275" x2="4538.859" y2="3233.6814" stroke="#84f07a" stroke-width="5.0" stroke-dasharray="30 30"/>
<line x1="4538.859" y1="3233.6814" x2="4655.188" y2="3367.4263" stroke="#84f07a" stroke-width="5.0" />
<line x1="4655.188" y1="3367.4263" x2="4798.2334" y2="3461.5088" stroke="#84f07a" stroke-width="5.0" />
<line x1="4798.2334" y1="3461.5088" x2="4723.6494" y2="3644.1384" stroke="#83f07b" stroke-width="5.0" />
<line x1="4723.6494" y1="3644.1384" x2="4628.471" y2="3782.494" stroke="#81f07d" stroke-width="5.0" />
<line x1="4628.471" y1="3782.494" x2="4526.614" y2="3926.3828" stroke="#81f07d" stroke-width="5.0" />
<line x1="4526.614" y1="3926.3828" x2="4595.632" y2="3822.1555" stroke="#7df081" stroke-width="5.0" stroke-dasharray="30 30"/>
<line x1="4595.632" y1="3822.1555" x2="4640.1597" y2="3658.8965" stroke="#7df081" stroke-width="5.0" />
<line x1="4640.1597" y1="3658.8965" x2="4643.4995" y2="3826.7673" stroke="#7cf082" stroke-width="5.0" />
<line x1="4643.4995" y1="3826.7673" x2="4550.5474" y2="3995.56" stroke="#73f08b" stroke-width="5.0" />
<line x1="4550.5474" y1="3995.56" x2="4586.7266" y2="3826.7673" stroke="#73f08b" stroke-width="5.0" />
<line x1="4586.7266" y1="3826.7673" x2="4646.282" y2="3669.0425" stroke="#73f08b" stroke-width="5.0" />
<line x1="4646.282" y1="3669.0425" x2="4762.6113" y2="3525.1526" stroke="#73f08b" stroke-width="5.0" />
<line x1="4762.6113" y1="3525.1526" x2="4825.507" y2="3367.4263" stroke="#73f08b" stroke-width="5.0" />
<line x1="4825.507" y1="3367.4263" x2="4911.7793" y2="3213.389" stroke="#72f08c" stroke-width="5.0" />
<line x1="4911.7793" y1="3213.389" x2="5004.731" y2="3060.2734" stroke="#72f08c" stroke-width="5.0" />
<line x1="5004.731" y1="3060.2734" x2="5091.004" y2="2911.7695" stroke="#72f08c" stroke-width="5.0" />
<line x1="5091.004" y1="2911.7695" x2="5177.8325" y2="2767.8765" stroke="#72f08c" stroke-width="5.0" />
<line x1="5177.8325" y1="2767.8765" x2="5279.134" y2="2635.0522" stroke="#72f08c" stroke-width="5.0" />
<line x1="5279.134" y1="2635.0522" x2="5446.6694" y2="2624.9058" stroke="#72f08c" stroke-width="5.0" />
<line x1="5446.6694" y1="2624.9058" x2="5604.743" y2="2679.3271" stroke="#70f08e" stroke-width="5.0" />
<line x1="5604.743" y1="2679.3271" x2="5768.9395" y2="2713.4556" stroke="#70f08e" stroke-width="5.0" />
<line x1="5768.9395" y1="2713.4556" x2="5939.2583" y2="2674.7148" stroke="#70f08e" stroke-width="5.0" />
<line x1="5939.2583" y1="2674.7148" x2="6231.472" y2="2402.6082" stroke="#6ff08f" stroke-width="5.0" stroke-dasharray="30 30"/>
<line x1="6231.472" y1="2402.6082" x2="6891.5967" y2="2511.4512" stroke="#6ef090" stroke-width="5.0" stroke-dasharray="30 30"/>
<line x1="6891.5967" y1="2511.4512" x2="7025.737" y2="2614.7595" stroke="#6ef090" stroke-width="5.0" />
<line x1="7025.737" y1="2614.7595" x2="7226.1113" y2="2476.4001" stroke="#4af0b4" stroke-width="5.0" stroke-dasharray="30 30"/>
<line x1="7226.1113" y1="2476.4001" x2="7360.2515" y2="2575.0964" stroke="#4af0b4" stroke-width="5.0" />
<line x1="7360.2515" y1="2575.0964" x2="7419.807" y2="2738.3604" stroke="#4af0b4" stroke-width="5.0" />
<line x1="7419.807" y1="2738.3604" x2="7560.627" y2="2842.5903" stroke="#49f0b5" stroke-width="5.0" />
<line x1="7560.627" y1="2842.5903" x2="7769.3506" y2="3663.5083" stroke="#48f0b6" stroke-width="5.0" stroke-dasharray="30 30"/>
<line x1="7769.3506" y1="3663.5083" x2="7820.001" y2="3822.1555" stroke="#48f0b6" stroke-width="5.0" />
<line x1="7820.001" y1="3822.1555" x2="8315.93" y2="5167.8657" stroke="#47f0b7" stroke-width="5.0" stroke-dasharray="30 30"/>
<line x1="8315.93" y1="5167.8657" x2="8321.495" y2="4994.466" stroke="#46f0b8" stroke-width="5.0" />
<line x1="8321.495" y1="4994.466" x2="8261.939" y2="4801.6963" stroke="#46f0b8" stroke-width="5.0" />
<line x1="8261.939" y1="4801.6963" x2="8411.107" y2="4688.248" stroke="#46f0b8" stroke-width="5.0" />
<line x1="8411.107" y1="4688.248" x2="8584.766" y2="4722.375" stroke="#45f0b9" stroke-width="5.0" />
<line x1="8584.766" y1="4722.375" x2="8345.429" y2="5000.0" stroke="#44f0ba" stroke-width="5.0" />
<line x1="8345.429" y1="5000.0" x2="8509.625" y2="5073.787" stroke="#42f0bc" stroke-width="5.0" />
<line x1="8509.625" y1="5073.787" x2="8683.283" y2="5064.5635" stroke="#41f0bd" stroke-width="5.0" />
<line x1="8683.283" y1="5064.5635" x2="8808.518" y2="5202.914" stroke="#3ef0c0" stroke-width="5.0" />
<line x1="8808.518" y1="5202.914" x2="8880.319" y2="5356.021" stroke="#3ef0c0" stroke-width="5.0" />
<line x1="8880.319" y1="5356.021" x2="8853.046" y2="5188.1567" stroke="#3ef0c0" stroke-width="5.0" />
<line x1="8853.046" y1="5188.1567" x2="8766.773" y2="5044.272" stroke="#3cf0c2" stroke-width="5.0" />
<line x1="8766.773" y1="5044.272" x2="8730.595" y2="4881.018" stroke="#3cf0c2" stroke-width="5.0" />
<line x1="8730.595" y1="4881.018" x2="8458.975" y2="5272.0894" stroke="#3bf0c3" stroke-width="5.0" stroke-dasharray="30 30"/>
<line x1="8458.975" y1="5272.0894" x2="8721.688" y2="5331.118" stroke="#3bf0c3" stroke-width="5.0" />
<line x1="8721.688" y1="5331.118" x2="8930.969" y2="5261.9434" stroke="#3bf0c3" stroke-width="5.0" />
<line x1="8930.969" y1="5261.9434" x2="9097.948" y2="5286.846" stroke="#3bf0c3" stroke-width="5.0" />
<line x1="9097.948" y1="5286.846" x2="8880.319" y2="5583.836" stroke="#3bf0c3" stroke-width="5.0" stroke-dasharray="30 30"/>
<line x1="8880.319" y1="5583.836" x2="8823.546" y2="5420.584" stroke="#3bf0c3" stroke-width="5.0" />
<line x1="8823.546" y1="5420.584" x2="8635.416" y2="5316.3613" stroke="#3bf0c3" stroke-width="5.0" />
<line x1="8635.416" y1="5316.3613" x2="8688.85" y2="5479.614" stroke="#3bf0c3" stroke-width="5.0" />
<line x1="8688.85" y1="5479.614" x2="8545.804" y2="5391.07" stroke="#39f0c5" stroke-width="5.0" />
<line x1="8545.804" y1="5391.07" x2="8381.607" y2="5296.992" stroke="#38f0c6" stroke-width="5.0" />
<line x1="8381.607" y1="5296.992" x2="8232.439" y2="5213.0596" stroke="#38f0c6" stroke-width="5.0" />
<line x1="8232.439" y1="5213.0596" x2="8079.932" y2="5142.962" stroke="#37f0c7" stroke-width="5.0" />
<line x1="8079.932" y1="5142.962" x2="7945.792" y2="5044.272" stroke="#35f0c9" stroke-width="5.0" />
<line x1="7945.792" y1="5044.272" x2="7772.134" y2="3683.8003" stroke="#34f0ca" stroke-width="5.0" stroke-dasharray="30 30"/>
<line x1="7772.134" y1="3683.8003" x2="7683.078" y2="3530.6865" stroke="#34f0ca" stroke-width="5.0" />
<line x1="7683.078" y1="3530.6865" x2="7748.757" y2="3376.6501" stroke="#34f0ca" stroke-width="5.0" />
<line x1="7748.757" y1="3376.6501" x2="7664.71" y2="2991.0947" stroke="#33f0cb" stroke-width="5.0" />
<line x1="7664.71" y1="2991.0947" x2="7267.8564" y2="2555.726" stroke="#33f0cb" stroke-width="5.0" stroke-dasharray="30 30"/>
<line x1="7267.8564" y1="2555.726" x2="7100.3203" y2="2595.3892" stroke="#33f0cb" stroke-width="5.0" />
<line x1="7100.3203" y1="2595.3892" x2="6951.1523" y2="2520.6753" stroke="#33f0cb" stroke-width="5.0" />
<line x1="6951.1523" y1="2520.6753" x2="6861.54" y2="2372.169" stroke="#33f0cb" stroke-width="5.0" />
<line x1="6861.54" y1="2372.169" x2="5942.041" y2="2644.2761" stroke="#32f0cc" stroke-width="5.0" stroke-dasharray="30 30"/>
<line x1="5942.041" y1="2644.2761" x2="5766.1567" y2="2649.8105" stroke="#32f0cc" stroke-width="5.0" />
<line x1="5766.1567" y1="2649.8105" x2="5595.8374" y2="2639.664" stroke="#31f0cd" stroke-width="5.0" />
<line x1="5595.8374" y1="2639.664" x2="5425.5186" y2="2659.0344" stroke="#31f0cd" stroke-width="5.0" />
<line x1="5425.5186" y1="2659.0344" x2="5288.039" y2="2758.6526" stroke="#31f0cd" stroke-width="5.0" />
<line x1="5288.039" y1="2758.6526" x2="5192.861" y2="2901.6233" stroke="#31f0cd" stroke-width="5.0" />
<line x1="5192.861" y1="2901.6233" x2="5061.504" y2="3030.757" stroke="#31f0cd" stroke-width="5.0" />
<line x1="5061.504" y1="3030.757" x2="4939.0522" y2="3149.7449" stroke="#31f0cd" stroke-width="5.0" />
<line x1="4939.0522" y1="3149.7449" x2="4867.2515" y2="3313.0059" stroke="#31f0cd" stroke-width="5.0" />
<line x1="4867.2515" y1="3313.0059" x2="4690.81" y2="3273.3438" stroke="#30f0ce" stroke-width="5.0" />
<line x1="4690.81" y1="3273.3438" x2="4526.614" y2="3218.9233" stroke="#30f0ce" stroke-width="5.0" />
<line x1="4526.614" y1="3218.9233" x2="4401.3794" y2="3104.548" stroke="#30f0ce" stroke-width="5.0" />
<line x1="4401.3794" y1="3104.548" x2="3613.2373" y2="2932.062" stroke="#2ff0cf" stroke-width="5.0" stroke-dasharray="30 30"/>
<line x1="3613.2373" y1="2932.062" x2="3427.8906" y2="2926.5278" stroke="#2ff0cf" stroke-width="5.0" />
<line x1="3427.8906" y1="2926.5278" x2="3257.5718" y2="2980.9485" stroke="#2ff0cf" stroke-width="5.0" />
<line x1="3257.5718" y1="2980.9485" x2="2717.1155" y2="3466.1206" stroke="#2ff0cf" stroke-width="5.0" stroke-dasharray="30 30"/>
<line x1="2717.1155" y1="3466.1206" x2="2535.1082" y2="3455.9744" stroke="#2ef0d0" stroke-width="5.0" />
<line x1="2535.1082" y1="3455.9744" x2="2439.93" y2="3317.6177" stroke="#2af0d4" stroke-width="5.0" />
<line x1="2439.93" y1="3317.6177" x2="2299.1108" y2="3228.147" stroke="#28f0d6" stroke-width="5.0" />
<line x1="2299.1108" y1="3228.147" x2="2210.0552" y2="3382.1846" stroke="#21f0dd" stroke-width="5.0" />
<line x1="2210.0552" y1="3382.1846" x2="2370.9119" y2="3461.5088" stroke="#1bf0e3" stroke-width="5.0" />
<line x1="2370.9119" y1="3461.5088" x2="2493.3633" y2="3347.134" stroke="#17f0e7" stroke-width="5.0" />
<line x1="2493.3633" y1="3347.134" x2="2574.07" y2="3505.7825" stroke="#14f0ea" stroke-width="5.0" />
<line x1="2574.07" y1="3505.7825" x2="2729.3606" y2="3441.2163" stroke="#14f0ea" stroke-width="5.0" />
<line x1="2729.3606" y1="3441.2163" x2="2812.8503" y2="3297.3254" stroke="#14f0ea" stroke-width="5.0" />
<line x1="2812.8503" y1="3297.3254" x2="2887.4343" y2="3149.7449" stroke="#13f0eb" stroke-width="5.0" />
<line x1="2887.4343" y1="3149.7449" x2="3257.5718" y2="2733.748" stroke="#10f0ee" stroke-width="5.0" stroke-dasharray="30 30"/>
<line x1="3257.5718" y1="2733.748" x2="3421.7678" y2="2704.2314" stroke="#0ff0ef" stroke-width="5.0" />
<line x1="3421.7678" y1="2704.2314" x2="3481.8804" y2="2545.5798" stroke="#0ff0ef" stroke-width="5.0" />
<line x1="3586.5208" y1="2629.5178" x2="3735.6887" y2="2718.9897" stroke="#85f079" stroke-width="5.0" />
<line x1="3735.6887" y1="2718.9897" x2="3896.5454" y2="2813.0737" stroke="#85f079" stroke-width="5.0" />
<line x1="3896.5454" y1="2813.0737" x2="4493.775" y2="3223.5352" stroke="#84f07a" stroke-width="5.0" stroke-dasharray="30 30"/>
<line x1="4493.775" y1="3223.5352" x2="4631.2544" y2="3327.764" stroke="#84f07a" stroke-width="5.0" />
<line x1="4631.2544" y1="3327.764" x2="4783.7617" y2="3406.166" stroke="#84f07a" stroke-width="5.0" />
<line x1="4783.7617" y1="3406.166" x2="4729.772" y2="3574.9607" stroke="#83f07b" stroke-width="5.0" />
<line x1="4729.772" y1="3574.9607" x2="4643.4995" y2="3717.9282" stroke="#82f07c" stroke-width="5.0" />
<line x1="4643.4995" y1="3717.9282" x2="4556.6704" y2="3861.8174" stroke="#81f07d" stroke-width="5.0" />
<line x1="4556.6704" y1="3861.8174" x2="4532.7363" y2="3688.412" stroke="#81f07d" stroke-width="5.0" />
<line x1="4532.7363" y1="3688.412" x2="4410.285" y2="3807.3977" stroke="#80f07e" stroke-width="5.0" />
<line x1="4410.285" y1="3807.3977" x2="4502.68" y2="3945.7524" stroke="#80f07e" stroke-width="5.0" />
<line x1="4502.68" y1="3945.7524" x2="4350.729" y2="3876.575" stroke="#7ef080" stroke-width="5.0" />
<line x1="4350.729" y1="3876.575" x2="4324.0127" y2="3708.704" stroke="#7df081" stroke-width="5.0" />
<line x1="4324.0127" y1="3708.704" x2="4440.3413" y2="3574.9607" stroke="#7df081" stroke-width="5.0" />
<line x1="4440.3413" y1="3574.9607" x2="4601.1978" y2="3619.2344" stroke="#7cf082" stroke-width="5.0" />
<line x1="4601.1978" y1="3619.2344" x2="4535.5195" y2="3772.3477" stroke="#7bf083" stroke-width="5.0" />
<line x1="4535.5195" y1="3772.3477" x2="4613.443" y2="3920.8486" stroke="#7bf083" stroke-width="5.0" />
<line x1="4613.443" y1="3920.8486" x2="4705.8384" y2="3644.1384" stroke="#73f08b" stroke-width="5.0" stroke-dasharray="30 30"/>
<line x1="4705.8384" y1="3644.1384" x2="4774.8564" y2="3476.2668" stroke="#72f08c" stroke-width="5.0" />
<line x1="4774.8564" y1="3476.2668" x2="4873.374" y2="3327.764" stroke="#72f08c" stroke-width="5.0" />
<line x1="4873.374" y1="3327.764" x2="4944.6187" y2="3164.503" stroke="#72f08c" stroke-width="5.0" />
<line x1="4944.6187" y1="3164.503" x2="5031.4478" y2="3020.6108" stroke="#72f08c" stroke-width="5.0" />
<line x1="5031.4478" y1="3020.6108" x2="5132.7485" y2="2876.7188" stroke="#72f08c" stroke-width="5.0" />
<line x1="5132.7485" y1="2876.7188" x2="5219.5776" y2="2733.748" stroke="#72f08c" stroke-width="5.0" />
<line x1="5219.5776" y1="2733.748" x2="5353.718" y2="2629.5178" stroke="#71f08d" stroke-width="5.0" />
<line x1="5353.718" y1="2629.5178" x2="5526.8193" y2="2635.0522" stroke="#71f08d" stroke-width="5.0" />
<line x1="5526.8193" y1="2635.0522" x2="5685.4497" y2="2723.602" stroke="#70f08e" stroke-width="5.0" />
<line x1="5685.4497" y1="2723.602" x2="5861.335" y2="2718.9897" stroke="#6ff08f" stroke-width="5.0" />
<line x1="5861.335" y1="2718.9897" x2="6040.559" y2="2683.939" stroke="#6ff08f" stroke-width="5.0" />
<line x1="6040.559" y1="2683.939" x2="6145.199" y2="2540.9678" stroke="#6ff08f" stroke-width="5.0" />
<line x1="6145.199" y1="2540.9678" x2="6273.217" y2="2382.3154" stroke="#6ff08f" stroke-width="5.0" />
<line x1="6273.217" y1="2382.3154" x2="6891.5967" y2="2491.1584" stroke="#6ef090" stroke-width="5.0" stroke-dasharray="30 30"/>
<line x1="6891.5967" y1="2491.1584" x2="7046.887" y2="2589.8547" stroke="#6ef090" stroke-width="5.0" />
<line x1="7046.887" y1="2589.8547" x2="7348.5635" y2="2921.9155" stroke="#68f096" stroke-width="5.0" stroke-dasharray="30 30"/>
<line x1="7348.5635" y1="2921.9155" x2="8569.737" y2="5153.108" stroke="#3ef0c0" stroke-width="5.0" stroke-dasharray="30 30"/>
<line x1="8569.737" y1="5153.108" x2="8656.01" y2="5296.992" stroke="#3ef0c0" stroke-width="5.0" />
<line x1="8656.01" y1="5296.992" x2="8701.095" y2="5460.2446" stroke="#3af0c4" stroke-width="5.0" />
<line x1="8701.095" y1="5460.2446" x2="8530.775" y2="5435.342" stroke="#39f0c5" stroke-width="5.0" />
<line x1="8530.775" y1="5435.342" x2="8390.514" y2="5336.6523" stroke="#38f0c6" stroke-width="5.0" />
<line x1="8390.514" y1="5336.6523" x2="8303.684" y2="5192.7686" stroke="#37f0c7" stroke-width="5.0" />
<line x1="8303.684" y1="5192.7686" x2="8130.582" y2="5173.3994" stroke="#37f0c7" stroke-width="5.0" />
<line x1="8130.582" y1="5173.3994" x2="8014.2534" y2="5103.302" stroke="#35f0c9" stroke-width="5.0" stroke-dasharray="30 30"/>
<line x1="8014.2534" y1="5103.302" x2="7745.417" y2="3609.0884" stroke="#34f0ca" stroke-width="5.0" stroke-dasharray="30 30"/>
<line x1="7745.417" y1="3609.0884" x2="7670.833" y2="3461.5088" stroke="#34f0ca" stroke-width="5.0" />
<line x1="7670.833" y1="3461.5088" x2="7757.662" y2="3297.3254" stroke="#34f0ca" stroke-width="5.0" />
<line x1="7757.662" y1="3297.3254" x2="2777.228" y2="3372.0383" stroke="#2ef0d0" stroke-width="5.0" stroke-dasharray="30 30"/>
<line x1="2777.228" y1="3372.0383" x2="2696.5212" y2="3520.5405" stroke="#2ef0d0" stroke-width="5.0" />
<line x1="2696.5212" y1="3520.5405" x2="2532.3252" y2="3491.0244" stroke="#2ef0d0" stroke-width="5.0" />
<line x1="2532.3252" y1="3491.0244" x2="2430.4678" y2="3351.7458" stroke="#2af0d4" stroke-width="5.0" />
<line x1="2430.4678" y1="3351.7458" x2="2392.0627" y2="3179.2607" stroke="#29f0d5" stroke-width="5.0" />
<line x1="2392.0627" y1="3179.2607" x2="2331.9502" y2="3342.522" stroke="#21f0dd" stroke-width="5.0" />
<line x1="2331.9502" y1="3342.522" x2="2451.6184" y2="3470.7324" stroke="#1bf0e3" stroke-width="5.0" />
<line x1="2451.6184" y1="3470.7324" x2="2585.7588" y2="3570.3489" stroke="#14f0ea" stroke-width="5.0" />
<line x1="2585.7588" y1="3570.3489" x2="2690.399" y2="3406.166" stroke="#13f0eb" stroke-width="5.0" />
<line x1="2690.399" y1="3406.166" x2="2801.1619" y2="3282.5674" stroke="#13f0eb" stroke-width="5.0" />
<line x1="2801.1619" y1="3282.5674" x2="2896.34" y2="3139.5984" stroke="#13f0eb" stroke-width="5.0" />
<line x1="2896.34" y1="3139.5984" x2="3228.0718" y2="2694.0854" stroke="#13f0eb" stroke-width="5.0" stroke-dasharray="30 30"/>
<line x1="3228.0718" y1="2694.0854" x2="3410.0793" y2="2704.2314" stroke="#0ff0ef" stroke-width="5.0" />
<line x1="3410.0793" y1="2704.2314" x2="3523.6252" y2="2580.6309" stroke="#0ff0ef" stroke-width="5.0" />
<line x1="3523.6252" y1="2580.6309" x2="3544.2192" y2="2407.2202" stroke="#0ff0ef" stroke-width="5.0" />
<line x1="3523.6252" y1="2471.788" x2="3589.304" y2="2629.5178" stroke="#85f079" stroke-width="5.0" />
<line x1="3589.304" y1="2629.5178" x2="3774.0942" y2="2729.1362" stroke="#85f079" stroke-width="5.0" />
<line x1="3774.0942" y1="2729.1362" x2="3932.7244" y2="2813.0737" stroke="#85f079" stroke-width="5.0" />
<line x1="3932.7244" y1="2813.0737" x2="4535.5195" y2="3263.1978" stroke="#84f07a" stroke-width="5.0" stroke-dasharray="30 30"/>
<line x1="4535.5195" y1="3263.1978" x2="4657.9707" y2="3391.4082" stroke="#84f07a" stroke-width="5.0" />
<line x1="4657.9707" y1="3391.4082" x2="4807.696" y2="3466.1206" stroke="#84f07a" stroke-width="5.0" />
<line x1="4807.696" y1="3466.1206" x2="4762.6113" y2="3629.3804" stroke="#83f07b" stroke-width="5.0" />
<line x1="4762.6113" y1="3629.3804" x2="4625.1313" y2="3728.074" stroke="#82f07c" stroke-width="5.0" />
<line x1="4625.1313" y1="3728.074" x2="4514.9253" y2="3861.8174" stroke="#81f07d" stroke-width="5.0" />
<line x1="4514.9253" y1="3861.8174" x2="4347.3896" y2="3871.9631" stroke="#7ef080" stroke-width="5.0" />
<line x1="4347.3896" y1="3871.9631" x2="4317.8896" y2="3708.704" stroke="#7df081" stroke-width="5.0" />
<line x1="4317.8896" y1="3708.704" x2="4398.5967" y2="3560.2026" stroke="#7df081" stroke-width="5.0" />
<line x1="4398.5967" y1="3560.2026" x2="4562.7925" y2="3525.1526" stroke="#7cf082" stroke-width="5.0" />
<line x1="4562.7925" y1="3525.1526" x2="4580.604" y2="3698.5583" stroke="#7cf082" stroke-width="5.0" />
<line x1="4580.604" y1="3698.5583" x2="4604.5376" y2="3906.0908" stroke="#7bf083" stroke-width="5.0" />
<line x1="4604.5376" y1="3906.0908" x2="7270.639" y2="2916.3813" stroke="#69f095" stroke-width="5.0" stroke-dasharray="30 30"/>
<line x1="7270.639" y1="2916.3813" x2="8587.549" y2="5079.321" stroke="#3ef0c0" stroke-width="5.0" stroke-dasharray="30 30"/>
<line x1="8587.549" y1="5079.321" x2="8664.916" y2="5232.4287" stroke="#3ef0c0" stroke-width="5.0" />
<line x1="8664.916" y1="5232.4287" x2="2457.7412" y2="3455.9744" stroke="#26f0d8" stroke-width="5.0" stroke-dasharray="30 30"/>
<line x1="2457.7412" y1="3455.9744" x2="2493.3633" y2="3708.704" stroke="#24f0da" stroke-width="5.0" />
<line x1="2493.3633" y1="3708.704" x2="2346.9783" y2="3585.107" stroke="#1ef0e0" stroke-width="5.0" />
<line x1="2346.9783" y1="3585.107" x2="2335.2898" y2="3386.7964" stroke="#1cf0e2" stroke-width="5.0" />
<line x1="2335.2898" y1="3386.7964" x2="2302.4504" y2="3218.9233" stroke="#1cf0e2" stroke-width="5.0" />
<line x1="2302.4504" y1="3218.9233" x2="2177.216" y2="3342.522" stroke="#1cf0e2" stroke-width="5.0" />
<line x1="2177.216" y1="3342.522" x2="2177.216" y2="3564.8145" stroke="#1cf0e2" stroke-width="5.0" />
<line x1="2177.216" y1="3564.8145" x2="2353.1008" y2="3520.5405" stroke="#1cf0e2" stroke-width="5.0" />
<line x1="2353.1008" y1="3520.5405" x2="2532.3252" y2="3480.8787" stroke="#1cf0e2" stroke-width="5.0" />
<line x1="2532.3252" y1="3480.8787" x2="2493.3633" y2="3663.5083" stroke="#1cf0e2" stroke-width="5.0" />
<line x1="2493.3633" y1="3663.5083" x2="2329.1672" y2="3688.412" stroke="#1bf0e3" stroke-width="5.0" />
<line x1="2329.1672" y1="3688.412" x2="2221.7437" y2="3441.2163" stroke="#1bf0e3" stroke-width="5.0" />
<line x1="2221.7437" y1="3441.2163" x2="2362.0063" y2="3347.134" stroke="#1bf0e3" stroke-width="5.0" />
<circle cx="4754.6963" cy="3494.9172" r="83.05749" stroke="#84f07a" stroke-width="10.0" fill="#00f" fill-opacity="0.1"/>
<circle cx="4703.553" cy="3703.7783" r="124.58623" stroke="#83f07b" stroke-width="10.0" fill="#00f" fill-opacity="0.1"/>
<circle cx="5601.739" cy="2682.1382" r="83.05749" stroke="#72f08c" stroke-width="10.0" fill="#00f" fill-opacity="0.1"/>
<circle cx="7203.7505" cy="2712.7544" r="124.58623" stroke="#6ef090" stroke-width="10.0" fill="#f00" fill-opacity="0.1"/>
<circle cx="7872.366" cy="3420.3481" r="83.05749" stroke="#49f0b5" stroke-width="10.0" fill="#00f" fill-opacity="0.1"/>
<circle cx="8343.861" cy="4944.0864" r="83.05749" stroke="#47f0b7" stroke-width="10.0" fill="#f00" fill-opacity="0.1"/>
<circle cx="2644.443" cy="3600.396" r="83.05749" stroke="#2ff0cf" stroke-width="10.0" fill="#00f" fill-opacity="0.1"/>
<circle cx="2537.119" cy="3329.9043" r="124.58623" stroke="#29f0d5" stroke-width="10.0" fill="#0f0" fill-opacity="0.1"/>
<circle cx="2271.087" cy="3438.293" r="83.05749" stroke="#21f0dd" stroke-width="10.0" fill="#ff0" fill-opacity="0.1"/>
<circle cx="4772.7275" cy="3497.1096" r="83.05749" stroke="#84f07a" stroke-width="10.0" fill="#00f" fill-opacity="0.1"/>
<circle cx="4702.8706" cy="3745.1191" r="124.58623" stroke="#83f07b" stroke-width="10.0" fill="#00f" fill-opacity="0.1"/>
<circle cx="5585.237" cy="2678.2505" r="83.05749" stroke="#71f08d" stroke-width="10.0" fill="#00f" fill-opacity="0.1"/>
<circle cx="7173.9834" cy="2715.9143" r="124.58623" stroke="#6ef090" stroke-width="10.0" fill="#f00" fill-opacity="0.1"/>
<circle cx="8312.939" cy="4945.473" r="83.05749" stroke="#46f0b8" stroke-width="10.0" fill="#f00" fill-opacity="0.1"/>
<circle cx="8663.946" cy="5543.1934" r="166.11497" stroke="#3af0c4" stroke-width="10.0" fill="#0f0" fill-opacity="0.1"/>
<circle cx="7858.3745" cy="3424.5044" r="83.05749" stroke="#34f0ca" stroke-width="10.0" fill="#00f" fill-opacity="0.1"/>
<circle cx="2620.2087" cy="3575.857" r="83.05749" stroke="#2ef0d0" stroke-width="10.0" fill="#00f" fill-opacity="0.1"/>
<circle cx="2539.4868" cy="3318.0652" r="124.58623" stroke="#29f0d5" stroke-width="10.0" fill="#0f0" fill-opacity="0.1"/>
<circle cx="2272.4553" cy="3449.2893" r="83.05749" stroke="#21f0dd" stroke-width="10.0" fill="#ff0" fill-opacity="0.1"/>
<circle cx="3580.0396" cy="2542.967" r="124.58623" stroke="#08f0f6" stroke-width="10.0" fill="#0f0" fill-opacity="0.1"/>
<circle cx="4757.848" cy="3501.5645" r="83.05749" stroke="#84f07a" stroke-width="10.0" fill="#00f" fill-opacity="0.1"/>
<circle cx="4677.838" cy="3705.8564" r="124.58623" stroke="#83f07b" stroke-width="10.0" fill="#00f" fill-opacity="0.1"/>
<circle cx="7212.239" cy="2717.333" r="124.58623" stroke="#6bf093" stroke-width="10.0" fill="#f00" fill-opacity="0.1"/>
<circle cx="8340.651" cy="4941.611" r="83.05749" stroke="#40f0be" stroke-width="10.0" fill="#f00" fill-opacity="0.1"/>
<circle cx="2653.2578" cy="3599.1794" r="83.05749" stroke="#28f0d6" stroke-width="10.0" fill="#00f" fill-opacity="0.1"/>
<circle cx="2635.4834" cy="3600.9084" r="83.05749" stroke="#27f0d7" stroke-width="10.0" fill="#00f" fill-opacity="0.1"/>
<circle cx="2531.4329" cy="3653.7397" r="83.05749" stroke="#27f0d7" stroke-width="10.0" fill="#f00" fill-opacity="0.1"/>
<circle cx="2245.194" cy="3423.9915" r="83.05749" stroke="#1cf0e2" stroke-width="10.0" fill="#ff0" fill-opacity="0.1"/>
</svg>
