<?xml version="1.0" standalone="no"?>
<!DOCTYPE svg PUBLIC "-//W3C//DTD SVG 1.1//EN" "http://www.w3.org/Graphics/SVG/1.1/DTD/svg11.dtd">
<svg opacity="20%" width="30cm" height="30cm" version="1.1" viewBox="0 0 10000 10000" xmlns="http://www.w3.org/2000/svg" xmlns:xlink="http://www.w3.org/1999/xlink">
<desc>DrawTrails of automics data, Mon Jul 25 14:51:47 BST 2011</desc>
<filter id="desaturate"  primitiveUnits="objectBoundingBox">
<feImage x="0%" y="0%" width="100%" height="100%" xlink:href="altontowers-zoom15.png"/>
<feColorMatrix type="matrix" values="0.3333 0.3333 0.3333 0 0 0.3333 0.3333 0.3333 0 0 0.3333 0.3333 0.3333 0 0 0      0      0      1 0"/>
<feColorMatrix type="matrix" values="0.05 0 0 0 0 0 0.05 0 0 0 0 0 0.05 0 0 0      0      0      1 0"/>
</filter>
<rect x="-2643.7028285176257" y="-2643.7028285176257" width="15287.405657035251" height="15287.405657035251" filter="url(#desaturate)"/>
<line x1="3523.6252" y1="2471.788" x2="3589.304" y2="2629.5178" stroke="#85f079" stroke-width="5.0" />
<line x1="3589.304" y1="2629.5178" x2="3774.0942" y2="2729.1362" stroke="#85f079" stroke-width="5.0" />
<line x1="3774.0942" y1="2729.1362" x2="3932.7244" y2="2813.0737" stroke="#85f079" stroke-width="5.0" />
<line x1="3932.7244" y1="2813.0737" x2="4535.5195" y2="3263.1978" stroke="#84f07a" stroke-width="5.0" stroke-dasharray="30 30"/>
<line x1="4535.5195" y1="3263.1978" x2="4657.9707" y2="3391.4082" stroke="#84f07a" stroke-width="5.0" />
<line x1="4657.9707" y1="3391.4082" x2="4807.696" y2="3466.1206" stroke="#84f07a" stroke-width="5.0" />
<line x1="4807.696" y1="3466.1206" x2="4762.6113" y2="3629.3804" stroke="#83f07b" stroke-width="5.0" />
<line x1="4762.6113" y1="3629.3804" x2="4625.1313" y2="3728.074" stroke="#82f07c" stroke-width="5.0" />
<line x1="4625.1313" y1="3728.074" x2="4514.9253" y2="3861.8174" stroke="#81f07d" stroke-width="5.0" />
<line x1="4514.9253" y1="3861.8174" x2="4347.3896" y2="3871.9631" stroke="#7ef080" stroke-width="5.0" />
<line x1="4347.3896" y1="3871.9631" x2="4317.8896" y2="3708.704" stroke="#7df081" stroke-width="5.0" />
<line x1="4317.8896" y1="3708.704" x2="4398.5967" y2="3560.2026" stroke="#7df081" stroke-width="5.0" />
<line x1="4398.5967" y1="3560.2026" x2="4562.7925" y2="3525.1526" stroke="#7cf082" stroke-width="5.0" />
<line x1="4562.7925" y1="3525.1526" x2="4580.604" y2="3698.5583" stroke="#7cf082" stroke-width="5.0" />
<line x1="4580.604" y1="3698.5583" x2="4604.5376" y2="3906.0908" stroke="#7bf083" stroke-width="5.0" />
<line x1="4604.5376" y1="3906.0908" x2="7270.639" y2="2916.3813" stroke="#69f095" stroke-width="5.0" stroke-dasharray="30 30"/>
<line x1="7270.639" y1="2916.3813" x2="8587.549" y2="5079.321" stroke="#3ef0c0" stroke-width="5.0" stroke-dasharray="30 30"/>
<line x1="8587.549" y1="5079.321" x2="8664.916" y2="5232.4287" stroke="#3ef0c0" stroke-width="5.0" />
<line x1="8664.916" y1="5232.4287" x2="2457.7412" y2="3455.9744" stroke="#26f0d8" stroke-width="5.0" stroke-dasharray="30 30"/>
<line x1="2457.7412" y1="3455.9744" x2="2493.3633" y2="3708.704" stroke="#24f0da" stroke-width="5.0" />
<line x1="2493.3633" y1="3708.704" x2="2346.9783" y2="3585.107" stroke="#1ef0e0" stroke-width="5.0" />
<line x1="2346.9783" y1="3585.107" x2="2335.2898" y2="3386.7964" stroke="#1cf0e2" stroke-width="5.0" />
<line x1="2335.2898" y1="3386.7964" x2="2302.4504" y2="3218.9233" stroke="#1cf0e2" stroke-width="5.0" />
<line x1="2302.4504" y1="3218.9233" x2="2177.216" y2="3342.522" stroke="#1cf0e2" stroke-width="5.0" />
<line x1="2177.216" y1="3342.522" x2="2177.216" y2="3564.8145" stroke="#1cf0e2" stroke-width="5.0" />
<line x1="2177.216" y1="3564.8145" x2="2353.1008" y2="3520.5405" stroke="#1cf0e2" stroke-width="5.0" />
<line x1="2353.1008" y1="3520.5405" x2="2532.3252" y2="3480.8787" stroke="#1cf0e2" stroke-width="5.0" />
<line x1="2532.3252" y1="3480.8787" x2="2493.3633" y2="3663.5083" stroke="#1cf0e2" stroke-width="5.0" />
<line x1="2493.3633" y1="3663.5083" x2="2329.1672" y2="3688.412" stroke="#1bf0e3" stroke-width="5.0" />
<line x1="2329.1672" y1="3688.412" x2="2221.7437" y2="3441.2163" stroke="#1bf0e3" stroke-width="5.0" />
<line x1="2221.7437" y1="3441.2163" x2="2362.0063" y2="3347.134" stroke="#1bf0e3" stroke-width="5.0" />
<circle cx="4763.6494" cy="3463.4934" r="83.05749" stroke="#84f07a" stroke-width="10.0" fill="#00f" fill-opacity="0.1"/>
<circle cx="4719.8794" cy="3746.3809" r="124.58623" stroke="#83f07b" stroke-width="10.0" fill="#00f" fill-opacity="0.1"/>
<circle cx="7211.4697" cy="2694.9143" r="124.58623" stroke="#6bf093" stroke-width="10.0" fill="#f00" fill-opacity="0.1"/>
<circle cx="8320.453" cy="4954.992" r="83.05749" stroke="#40f0be" stroke-width="10.0" fill="#f00" fill-opacity="0.1"/>
<circle cx="2632.8088" cy="3581.9038" r="83.05749" stroke="#28f0d6" stroke-width="10.0" fill="#00f" fill-opacity="0.1"/>
<circle cx="2640.4375" cy="3563.657" r="83.05749" stroke="#27f0d7" stroke-width="10.0" fill="#00f" fill-opacity="0.1"/>
<circle cx="2524.0188" cy="3644.1042" r="83.05749" stroke="#27f0d7" stroke-width="10.0" fill="#f00" fill-opacity="0.1"/>
<circle cx="2267.4167" cy="3422.3125" r="83.05749" stroke="#1cf0e2" stroke-width="10.0" fill="#ff0" fill-opacity="0.1"/>
</svg>
