<?xml version="1.0" standalone="no"?>
<!DOCTYPE svg PUBLIC "-//W3C//DTD SVG 1.1//EN" "http://www.w3.org/Graphics/SVG/1.1/DTD/svg11.dtd">
<svg opacity="20%" width="30cm" height="30cm" version="1.1" viewBox="0 0 1000 1000" xmlns="http://www.w3.org/2000/svg" xmlns:xlink="http://www.w3.org/1999/xlink">
<desc>DrawTrails of automics data, Fri Jul 22 15:01:36 BST 2011</desc>
<filter id="desaturate"  primitiveUnits="objectBoundingBox">
<feImage x="0%" y="0%" width="100%" height="100%" xlink:href="altontowers-zoom15.png"/>
<feColorMatrix type="matrix" values="0.3333 0.3333 0.3333 0 0 0.3333 0.3333 0.3333 0 0 0.3333 0.3333 0.3333 0 0 0      0      0      1 0"/>
<feColorMatrix type="matrix" values="0.1 0 0 0 0 0 0.1 0 0 0 0 0 0.1 0 0 0      0      0      1 0"/>
</filter>
<rect x="-264.37028285176257" y="-264.37028285176257" width="1528.7405657035251" height="1528.7405657035251" filter="url(#desaturate)"/>
<line x1="356.2587" y1="243.2125" x2="346.96353" y2="257.04846" stroke="#9cf062" stroke-width="0.5" />
<line x1="346.96353" y1="257.04846" x2="339.50513" y2="273.83603" stroke="#9cf062" stroke-width="0.5" />
<line x1="339.50513" y1="273.83603" x2="321.58267" y2="279.83157" stroke="#9bf063" stroke-width="0.5" />
<line x1="321.58267" y1="279.83157" x2="305.497" y2="286.74948" stroke="#9bf063" stroke-width="0.5" />
<line x1="305.497" y1="286.74948" x2="282.1756" y2="333.2376" stroke="#9bf063" stroke-width="0.5" stroke-dasharray="3 3"/>
<line x1="282.1756" y1="333.2376" x2="275.60773" y2="348.54904" stroke="#9bf063" stroke-width="0.5" />
<line x1="275.60773" y1="348.54904" x2="270.5427" y2="365.42844" stroke="#9bf063" stroke-width="0.5" />
<line x1="270.5427" y1="365.42844" x2="265.75595" y2="382.21555" stroke="#9bf063" stroke-width="0.5" />
<line x1="265.75595" y1="382.21555" x2="263.69656" y2="399.556" stroke="#9bf063" stroke-width="0.5" />
<line x1="263.69656" y1="399.556" x2="260.69092" y2="416.8964" stroke="#9af064" stroke-width="0.5" />
<line x1="260.69092" y1="416.8964" x2="159.44585" y2="520.2914" stroke="#99f065" stroke-width="0.5" stroke-dasharray="3 3"/>
<line x1="159.44585" y1="520.2914" x2="143.63847" y2="514.2962" stroke="#99f065" stroke-width="0.5" />
<line x1="143.63847" y1="514.2962" x2="129.61223" y2="523.24286" stroke="#98f066" stroke-width="0.5" />
<line x1="129.61223" y1="523.24286" x2="112.580345" y2="530.6215" stroke="#98f066" stroke-width="0.5" />
<line x1="112.580345" y1="530.6215" x2="97.66353" y2="538.0924" stroke="#98f066" stroke-width="0.5" />
<line x1="97.66353" y1="538.0924" x2="111.68979" y2="548.9759" stroke="#98f066" stroke-width="0.5" />
<line x1="111.68979" y1="548.9759" x2="116.476524" y2="532.6507" stroke="#97f067" stroke-width="0.5" />
<line x1="116.476524" y1="532.6507" x2="99.7786" y2="536.0633" stroke="#97f067" stroke-width="0.5" />
<line x1="99.7786" y1="536.0633" x2="102.72857" y2="552.3885" stroke="#97f067" stroke-width="0.5" />
<line x1="102.72857" y1="552.3885" x2="119.14819" y2="555.4322" stroke="#97f067" stroke-width="0.5" />
<line x1="119.14819" y1="555.4322" x2="130.22449" y2="569.267" stroke="#8ef070" stroke-width="0.5" />
<line x1="130.22449" y1="569.267" x2="147.53467" y2="573.23303" stroke="#8ef070" stroke-width="0.5" />
<line x1="147.53467" y1="573.23303" x2="164.23259" y2="571.2039" stroke="#8df071" stroke-width="0.5" />
<line x1="164.23259" y1="571.2039" x2="169.01932" y2="554.8788" stroke="#8cf072" stroke-width="0.5" />
<line x1="169.01932" y1="554.8788" x2="157.99869" y2="542.5196" stroke="#8bf073" stroke-width="0.5" />
<line x1="157.99869" y1="542.5196" x2="153.82422" y2="523.70404" stroke="#8bf073" stroke-width="0.5" />
<line x1="153.82422" y1="523.70404" x2="137.96118" y2="518.26227" stroke="#8bf073" stroke-width="0.5" />
<line x1="137.96118" y1="518.26227" x2="121.541565" y2="522.78174" stroke="#8bf073" stroke-width="0.5" />
<line x1="121.541565" y1="522.78174" x2="105.40024" y2="527.2089" stroke="#8af074" stroke-width="0.5" />
<line x1="105.40024" y1="527.2089" x2="107.515305" y2="510.33017" stroke="#81f07d" stroke-width="0.5" />
<line x1="107.515305" y1="510.33017" x2="124.54719" y2="507.3787" stroke="#7ff07f" stroke-width="0.5" />
<line x1="124.54719" y1="507.3787" x2="141.24512" y2="506.91754" stroke="#7ff07f" stroke-width="0.5" />
<line x1="141.24512" y1="506.91754" x2="156.49588" y2="514.8496" stroke="#7ff07f" stroke-width="0.5" />
<line x1="156.49588" y1="514.8496" x2="171.691" y2="521.76715" stroke="#7ff07f" stroke-width="0.5" />
<line x1="171.691" y1="521.76715" x2="332.04672" y2="674.5949" stroke="#7cf082" stroke-width="0.5" stroke-dasharray="3 3"/>
<line x1="332.04672" y1="674.5949" x2="349.0786" y2="673.6726" stroke="#7cf082" stroke-width="0.5" />
<line x1="349.0786" y1="673.6726" x2="365.77652" y2="676.62396" stroke="#7cf082" stroke-width="0.5" />
<line x1="365.77652" y1="676.62396" x2="378.6339" y2="688.9828" stroke="#7cf082" stroke-width="0.5" />
<line x1="378.6339" y1="688.9828" x2="451.15857" y2="697.3756" stroke="#7bf083" stroke-width="0.5" stroke-dasharray="3 3"/>
<line x1="451.15857" y1="697.3756" x2="468.19046" y2="701.3415" stroke="#7bf083" stroke-width="0.5" />
<line x1="468.19046" y1="701.3415" x2="475.98282" y2="716.65155" stroke="#79f085" stroke-width="0.5" />
<line x1="475.98282" y1="716.65155" x2="478.9328" y2="732.976" stroke="#6ef090" stroke-width="0.5" />
<line x1="478.9328" y1="732.976" x2="465.24048" y2="720.6174" stroke="#6bf093" stroke-width="0.5" />
<line x1="465.24048" y1="720.6174" x2="449.98972" y2="713.7002" stroke="#69f095" stroke-width="0.5" />
<line x1="449.98972" y1="713.7002" x2="434.46066" y2="707.79755" stroke="#66f098" stroke-width="0.5" />
<line x1="434.46066" y1="707.79755" x2="450.602" y2="698.39014" stroke="#61f09d" stroke-width="0.5" stroke-dasharray="3 3"/>
<line x1="450.602" y1="698.39014" x2="467.63385" y2="699.86584" stroke="#61f09d" stroke-width="0.5" />
<line x1="467.63385" y1="699.86584" x2="482.55066" y2="707.33636" stroke="#61f09d" stroke-width="0.5" />
<line x1="482.55066" y1="707.33636" x2="500.7514" y2="710.74884" stroke="#61f09d" stroke-width="0.5" />
<line x1="500.7514" y1="710.74884" x2="486.72516" y2="700.32697" stroke="#60f09e" stroke-width="0.5" />
<line x1="486.72516" y1="700.32697" x2="471.47437" y2="686.49255" stroke="#60f09e" stroke-width="0.5" />
<line x1="471.47437" y1="686.49255" x2="455.05475" y2="683.0801" stroke="#60f09e" stroke-width="0.5" />
<line x1="455.05475" y1="683.0801" x2="440.41623" y2="692.9486" stroke="#60f09e" stroke-width="0.5" />
<line x1="440.41623" y1="692.9486" x2="424.33057" y2="698.8513" stroke="#60f09e" stroke-width="0.5" />
<line x1="424.33057" y1="698.8513" x2="350.58142" y2="733.52936" stroke="#5ff09f" stroke-width="0.5" stroke-dasharray="3 3"/>
<line x1="350.58142" y1="733.52936" x2="333.27124" y2="736.01953" stroke="#5ff09f" stroke-width="0.5" />
<line x1="333.27124" y1="736.01953" x2="329.0411" y2="752.34393" stroke="#5ff09f" stroke-width="0.5" />
<line x1="329.0411" y1="752.34393" x2="347.8541" y2="764.1491" stroke="#5cf0a2" stroke-width="0.5" />
<line x1="347.8541" y1="764.1491" x2="365.49823" y2="755.75635" stroke="#5cf0a2" stroke-width="0.5" />
<line x1="365.49823" y1="755.75635" x2="396.2224" y2="732.51483" stroke="#5cf0a2" stroke-width="0.5" />
<line x1="396.2224" y1="732.51483" x2="454.49817" y2="699.40466" stroke="#5bf0a3" stroke-width="0.5" stroke-dasharray="3 3"/>
<line x1="454.49817" y1="699.40466" x2="466.13104" y2="686.03143" stroke="#5bf0a3" stroke-width="0.5" />
<line x1="466.13104" y1="686.03143" x2="480.1573" y2="677.08514" stroke="#5bf0a3" stroke-width="0.5" />
<line x1="480.1573" y1="677.08514" x2="498.35803" y2="666.7554" stroke="#5bf0a3" stroke-width="0.5" />
<line x1="498.35803" y1="666.7554" x2="506.707" y2="345.59744" stroke="#59f0a5" stroke-width="0.5" stroke-dasharray="3 3"/>
<line x1="506.707" y1="345.59744" x2="495.68637" y2="333.2376" stroke="#59f0a5" stroke-width="0.5" />
<line x1="495.68637" y1="333.2376" x2="481.66013" y2="322.35352" stroke="#59f0a5" stroke-width="0.5" />
<line x1="481.66013" y1="322.35352" x2="465.7971" y2="311.9306" stroke="#59f0a5" stroke-width="0.5" />
<line x1="465.7971" y1="311.9306" x2="451.77084" y2="300.5853" stroke="#59f0a5" stroke-width="0.5" />
<line x1="451.77084" y1="300.5853" x2="511.49374" y2="276.78766" stroke="#57f0a7" stroke-width="0.5" stroke-dasharray="3 3"/>
<line x1="511.49374" y1="276.78766" x2="505.81644" y2="294.682" stroke="#56f0a8" stroke-width="0.5" />
<line x1="505.81644" y1="294.682" x2="498.07974" y2="311.9306" stroke="#56f0a8" stroke-width="0.5" />
<line x1="498.07974" y1="311.9306" x2="479.82333" y2="307.96436" stroke="#56f0a8" stroke-width="0.5" />
<line x1="479.82333" y1="307.96436" x2="466.13104" y2="283.24442" stroke="#55f0a9" stroke-width="0.5" />
<line x1="466.13104" y1="283.24442" x2="488.50626" y2="272.91364" stroke="#4af0b4" stroke-width="0.5" stroke-dasharray="3 3"/>
<line x1="488.50626" y1="272.91364" x2="504.92587" y2="268.3939" stroke="#49f0b5" stroke-width="0.5" />
<line x1="504.92587" y1="268.3939" x2="511.49374" y2="285.73486" stroke="#49f0b5" stroke-width="0.5" />
<line x1="511.49374" y1="285.73486" x2="507.59756" y2="302.0611" stroke="#49f0b5" stroke-width="0.5" />
<line x1="507.59756" y1="302.0611" x2="504.31363" y2="318.3873" stroke="#49f0b5" stroke-width="0.5" />
<line x1="504.31363" y1="318.3873" x2="490.62134" y2="328.81018" stroke="#46f0b8" stroke-width="0.5" />
<line x1="490.62134" y1="328.81018" x2="479.54504" y2="341.17004" stroke="#46f0b8" stroke-width="0.5" />
<line x1="479.54504" y1="341.17004" x2="463.40372" y2="335.72803" stroke="#45f0b9" stroke-width="0.5" />
<line x1="463.40372" y1="335.72803" x2="448.4869" y2="327.33438" stroke="#45f0b9" stroke-width="0.5" />
<line x1="448.4869" y1="327.33438" x2="302.76968" y2="383.23016" stroke="#44f0ba" stroke-width="0.5" stroke-dasharray="3 3"/>
<line x1="302.76968" y1="383.23016" x2="286.68402" y2="389.6867" stroke="#43f0bb" stroke-width="0.5" />
<line x1="286.68402" y1="389.6867" x2="269.65213" y2="390.1479" stroke="#43f0bb" stroke-width="0.5" />
<line x1="269.65213" y1="390.1479" x2="265.75595" y2="373.82202" stroke="#43f0bb" stroke-width="0.5" />
<line x1="265.75595" y1="373.82202" x2="262.47205" y2="357.49606" stroke="#43f0bb" stroke-width="0.5" />
<line x1="262.47205" y1="357.49606" x2="248.72408" y2="347.62668" stroke="#42f0bc" stroke-width="0.5" />
<line x1="248.72408" y1="347.62668" x2="256.79474" y2="363.39923" stroke="#42f0bc" stroke-width="0.5" />
<line x1="256.79474" y1="363.39923" x2="241.59962" y2="372.8074" stroke="#2ef0d0" stroke-width="0.5" />
<circle cx="357.41052" cy="254.00832" r="4.514945" stroke="#a4f05a" stroke-width="1.0" fill="#0f0" fill-opacity="0.1"/>
<circle cx="131.7042" cy="515.1917" r="3.0099635" stroke="#99f065" stroke-width="1.0" fill="#00f" fill-opacity="0.1"/>
<circle cx="98.52141" cy="553.05176" r="6.019927" stroke="#98f066" stroke-width="1.0" fill="#f00" fill-opacity="0.1"/>
<circle cx="156.95128" cy="570.81445" r="4.514945" stroke="#8ef070" stroke-width="1.0" fill="#ff0" fill-opacity="0.1"/>
<circle cx="147.78653" cy="538.6644" r="7.5249085" stroke="#8bf073" stroke-width="1.0" fill="#00f" fill-opacity="0.1"/>
<circle cx="476.7949" cy="705.249" r="3.0099635" stroke="#7bf083" stroke-width="1.0" fill="#00f" fill-opacity="0.1"/>
<circle cx="453.44223" cy="685.7003" r="3.0099635" stroke="#5bf0a3" stroke-width="1.0" fill="#0f0" fill-opacity="0.1"/>
<circle cx="476.65332" cy="314.71426" r="11.437861" stroke="#4cf0b2" stroke-width="1.0" fill="#0f0" fill-opacity="0.1"/>
<circle cx="251.58423" cy="366.30188" r="3.0099635" stroke="#42f0bc" stroke-width="1.0" fill="#f00" fill-opacity="0.1"/>
</svg>
