<?xml version="1.0" standalone="no"?>
<!DOCTYPE svg PUBLIC "-//W3C//DTD SVG 1.1//EN" "http://www.w3.org/Graphics/SVG/1.1/DTD/svg11.dtd">
<svg opacity="20%" width="30cm" height="30cm" version="1.1" viewBox="0 0 1000 1000" xmlns="http://www.w3.org/2000/svg" xmlns:xlink="http://www.w3.org/1999/xlink">
<desc>DrawTrails of automics data, Mon Jul 25 12:28:30 BST 2011</desc>
<filter id="desaturate"  primitiveUnits="objectBoundingBox">
<feImage x="0%" y="0%" width="100%" height="100%" xlink:href="altontowers-zoom15.png"/>
<feColorMatrix type="matrix" values="0.3333 0.3333 0.3333 0 0 0.3333 0.3333 0.3333 0 0 0.3333 0.3333 0.3333 0 0 0      0      0      1 0"/>
<feColorMatrix type="matrix" values="0.1 0 0 0 0 0 0.1 0 0 0 0 0 0.1 0 0 0      0      0      1 0"/>
</filter>
<rect x="-264.37028285176257" y="-264.37028285176257" width="1528.7405657035251" height="1528.7405657035251" filter="url(#desaturate)"/>
<line x1="360.98978" y1="272.91364" x2="358.3181" y2="245.14954" stroke="#b8f046" stroke-width="0.5" />
<line x1="358.3181" y1="245.14954" x2="347.8541" y2="231.31354" stroke="#b3f04b" stroke-width="0.5" />
<line x1="347.8541" y1="231.31354" x2="331.76843" y2="237.2169" stroke="#b2f04c" stroke-width="0.5" />
<line x1="331.76843" y1="237.2169" x2="319.80157" y2="249.11584" stroke="#b1f04d" stroke-width="0.5" />
<line x1="319.80157" y1="249.11584" x2="309.9498" y2="264.4276" stroke="#b1f04d" stroke-width="0.5" />
<line x1="309.9498" y1="264.4276" x2="303.38196" y2="280.75394" stroke="#b1f04d" stroke-width="0.5" />
<line x1="303.38196" y1="280.75394" x2="275.94168" y2="343.66046" stroke="#b0f04e" stroke-width="0.5" stroke-dasharray="3 3"/>
<line x1="275.94168" y1="343.66046" x2="262.47205" y2="353.99103" stroke="#b0f04e" stroke-width="0.5" />
<line x1="262.47205" y1="353.99103" x2="267.53708" y2="369.85583" stroke="#b0f04e" stroke-width="0.5" />
<line x1="267.53708" y1="369.85583" x2="265.1437" y2="386.6429" stroke="#b0f04e" stroke-width="0.5" />
<line x1="265.1437" y1="386.6429" x2="262.19373" y2="403.52216" stroke="#b0f04e" stroke-width="0.5" />
<line x1="262.19373" y1="403.52216" x2="257.1287" y2="420.3091" stroke="#aff04f" stroke-width="0.5" />
<line x1="257.1287" y1="420.3091" x2="165.4571" y2="518.26227" stroke="#aef050" stroke-width="0.5" stroke-dasharray="3 3"/>
<line x1="165.4571" y1="518.26227" x2="149.31578" y2="511.89816" stroke="#aef050" stroke-width="0.5" />
<line x1="149.31578" y1="511.89816" x2="132.61784" y2="513.8351" stroke="#aef050" stroke-width="0.5" />
<line x1="132.61784" y1="513.8351" x2="123.32267" y2="527.6701" stroke="#aef050" stroke-width="0.5" />
<line x1="123.32267" y1="527.6701" x2="104.50968" y2="529.6992" stroke="#aef050" stroke-width="0.5" />
<line x1="104.50968" y1="529.6992" x2="90.205124" y2="541.0439" stroke="#adf051" stroke-width="0.5" />
<line x1="90.205124" y1="541.0439" x2="93.76735" y2="557.83026" stroke="#adf051" stroke-width="0.5" />
<line x1="93.76735" y1="557.83026" x2="110.79923" y2="555.8934" stroke="#adf051" stroke-width="0.5" />
<line x1="110.79923" y1="555.8934" x2="127.21886" y2="552.9419" stroke="#adf051" stroke-width="0.5" />
<line x1="127.21886" y1="552.9419" x2="114.97371" y2="540.5827" stroke="#adf051" stroke-width="0.5" />
<line x1="114.97371" y1="540.5827" x2="98.554085" y2="545.0099" stroke="#adf051" stroke-width="0.5" />
<line x1="98.554085" y1="545.0099" x2="107.7936" y2="559.8594" stroke="#adf051" stroke-width="0.5" />
<line x1="107.7936" y1="559.8594" x2="113.804855" y2="543.9953" stroke="#acf052" stroke-width="0.5" />
<line x1="113.804855" y1="543.9953" x2="121.541565" y2="559.3982" stroke="#aaf054" stroke-width="0.5" />
<line x1="121.541565" y1="559.3982" x2="134.67726" y2="569.7282" stroke="#aaf054" stroke-width="0.5" />
<line x1="134.67726" y1="569.7282" x2="150.81859" y2="573.6942" stroke="#aaf054" stroke-width="0.5" />
<line x1="150.81859" y1="573.6942" x2="167.2382" y2="570.7428" stroke="#a8f056" stroke-width="0.5" />
<line x1="167.2382" y1="570.7428" x2="170.52214" y2="554.4176" stroke="#a8f056" stroke-width="0.5" />
<line x1="170.52214" y1="554.4176" x2="160.39206" y2="541.0439" stroke="#a8f056" stroke-width="0.5" />
<line x1="160.39206" y1="541.0439" x2="161.83922" y2="523.24286" stroke="#a7f057" stroke-width="0.5" />
<line x1="161.83922" y1="523.24286" x2="179.20506" y2="522.22833" stroke="#a7f057" stroke-width="0.5" />
<line x1="179.20506" y1="522.22833" x2="332.325" y2="679.1142" stroke="#a4f05a" stroke-width="0.5" stroke-dasharray="3 3"/>
<line x1="332.325" y1="679.1142" x2="333.82782" y2="696.45337" stroke="#a4f05a" stroke-width="0.5" />
<line x1="333.82782" y1="696.45337" x2="337.11176" y2="713.2391" stroke="#a4f05a" stroke-width="0.5" />
<line x1="337.11176" y1="713.2391" x2="330.2656" y2="728.549" stroke="#a4f05a" stroke-width="0.5" />
<line x1="330.2656" y1="728.549" x2="346.07297" y2="734.5439" stroke="#a4f05a" stroke-width="0.5" />
<line x1="346.07297" y1="734.5439" x2="361.936" y2="729.56354" stroke="#a4f05a" stroke-width="0.5" />
<line x1="361.936" y1="729.56354" x2="444.59073" y2="698.8513" stroke="#a3f05b" stroke-width="0.5" stroke-dasharray="3 3"/>
<line x1="444.59073" y1="698.8513" x2="461.066" y2="694.4243" stroke="#a3f05b" stroke-width="0.5" />
<line x1="461.066" y1="694.4243" x2="476.53943" y2="702.81714" stroke="#a3f05b" stroke-width="0.5" />
<line x1="476.53943" y1="702.81714" x2="493.0147" y2="709.7344" stroke="#a3f05b" stroke-width="0.5" />
<line x1="493.0147" y1="709.7344" x2="509.71262" y2="713.7002" stroke="#a2f05c" stroke-width="0.5" />
<line x1="509.71262" y1="713.7002" x2="516.28046" y2="735.4662" stroke="#a2f05c" stroke-width="0.5" stroke-dasharray="3 3"/>
<line x1="516.28046" y1="735.4662" x2="492.06848" y2="746.90247" stroke="#99f065" stroke-width="0.5" stroke-dasharray="3 3"/>
<line x1="492.06848" y1="746.90247" x2="500.7514" y2="756.30975" stroke="#93f06b" stroke-width="0.5" stroke-dasharray="3 3"/>
<line x1="500.7514" y1="756.30975" x2="482.55066" y2="754.2807" stroke="#92f06c" stroke-width="0.5" />
<line x1="482.55066" y1="754.2807" x2="458.33868" y2="745.88794" stroke="#87f077" stroke-width="0.5" stroke-dasharray="3 3"/>
<line x1="458.33868" y1="745.88794" x2="459.5632" y2="729.1024" stroke="#82f07c" stroke-width="0.5" />
<line x1="459.5632" y1="729.1024" x2="476.2611" y2="731.50037" stroke="#81f07d" stroke-width="0.5" />
<line x1="476.2611" y1="731.50037" x2="490.28738" y2="721.1707" stroke="#81f07d" stroke-width="0.5" />
<line x1="490.28738" y1="721.1707" x2="490.00906" y2="704.29285" stroke="#81f07d" stroke-width="0.5" />
<line x1="490.00906" y1="704.29285" x2="473.86774" y2="699.86584" stroke="#80f07e" stroke-width="0.5" />
<line x1="473.86774" y1="699.86584" x2="458.33868" y2="693.96313" stroke="#80f07e" stroke-width="0.5" />
<line x1="458.33868" y1="693.96313" x2="441.3068" y2="694.88544" stroke="#80f07e" stroke-width="0.5" />
<line x1="441.3068" y1="694.88544" x2="425.49942" y2="701.8949" stroke="#80f07e" stroke-width="0.5" />
<line x1="425.49942" y1="701.8949" x2="369.6727" y2="683.0801" stroke="#7df081" stroke-width="0.5" stroke-dasharray="3 3"/>
<line x1="369.6727" y1="683.0801" x2="353.86533" y2="676.62396" stroke="#7df081" stroke-width="0.5" />
<line x1="353.86533" y1="676.62396" x2="343.6796" y2="689.9973" stroke="#7df081" stroke-width="0.5" />
<line x1="343.6796" y1="689.9973" x2="335.33066" y2="704.8462" stroke="#7df081" stroke-width="0.5" />
<line x1="335.33066" y1="704.8462" x2="332.04672" y2="722.093" stroke="#7cf082" stroke-width="0.5" />
<line x1="332.04672" y1="722.093" x2="326.9817" y2="738.4175" stroke="#7cf082" stroke-width="0.5" />
<line x1="326.9817" y1="738.4175" x2="323.69775" y2="756.30975" stroke="#7cf082" stroke-width="0.5" />
<line x1="323.69775" y1="756.30975" x2="312.62146" y2="768.6683" stroke="#7cf082" stroke-width="0.5" />
<line x1="312.62146" y1="768.6683" x2="324.58832" y2="752.34393" stroke="#6af094" stroke-width="0.5" stroke-dasharray="3 3"/>
<line x1="324.58832" y1="752.34393" x2="331.76843" y2="735.4662" stroke="#6af094" stroke-width="0.5" />
<line x1="331.76843" y1="735.4662" x2="336.2212" y2="719.1417" stroke="#6af094" stroke-width="0.5" />
<line x1="336.2212" y1="719.1417" x2="339.83908" y2="702.356" stroke="#6af094" stroke-width="0.5" />
<line x1="339.83908" y1="702.356" x2="337.724" y2="682.5267" stroke="#6af094" stroke-width="0.5" />
<line x1="337.724" y1="682.5267" x2="334.4401" y2="666.202" stroke="#6af094" stroke-width="0.5" />
<line x1="334.4401" y1="666.202" x2="332.04672" y2="647.9404" stroke="#69f095" stroke-width="0.5" />
<line x1="332.04672" y1="647.9404" x2="464.34995" y2="372.34622" stroke="#67f097" stroke-width="0.5" stroke-dasharray="3 3"/>
<line x1="464.34995" y1="372.34622" x2="453.8859" y2="387.19632" stroke="#67f097" stroke-width="0.5" />
<line x1="453.8859" y1="387.19632" x2="454.16418" y2="365.88965" stroke="#67f097" stroke-width="0.5" />
<line x1="454.16418" y1="365.88965" x2="442.25302" y2="377.7882" stroke="#67f097" stroke-width="0.5" />
<line x1="442.25302" y1="377.7882" x2="451.15857" y2="392.08487" stroke="#66f098" stroke-width="0.5" />
<line x1="451.15857" y1="392.08487" x2="434.18234" y2="392.08487" stroke="#65f099" stroke-width="0.5" />
<line x1="434.18234" y1="392.08487" x2="431.78897" y2="373.36084" stroke="#65f099" stroke-width="0.5" />
<line x1="431.78897" y1="373.36084" x2="440.41623" y2="357.95724" stroke="#64f09a" stroke-width="0.5" />
<line x1="440.41623" y1="357.95724" x2="457.44812" y2="356.02026" stroke="#64f09a" stroke-width="0.5" />
<line x1="457.44812" y1="356.02026" x2="457.16983" y2="372.8074" stroke="#63f09b" stroke-width="0.5" />
<line x1="457.16983" y1="372.8074" x2="464.90652" y2="388.11868" stroke="#62f09c" stroke-width="0.5" />
<line x1="464.90652" y1="388.11868" x2="468.5244" y2="371.79282" stroke="#60f09e" stroke-width="0.5" />
<line x1="468.5244" y1="371.79282" x2="476.53943" y2="356.48145" stroke="#5ff09f" stroke-width="0.5" />
<line x1="476.53943" y1="356.48145" x2="474.48" y2="339.69424" stroke="#5ff09f" stroke-width="0.5" />
<line x1="474.48" y1="339.69424" x2="458.33868" y2="332.7764" stroke="#5ff09f" stroke-width="0.5" />
<line x1="458.33868" y1="332.7764" x2="445.20297" y2="321.3389" stroke="#5ff09f" stroke-width="0.5" />
<line x1="445.20297" y1="321.3389" x2="368.78214" y2="267.9327" stroke="#5ff09f" stroke-width="0.5" stroke-dasharray="3 3"/>
<line x1="368.78214" y1="267.9327" x2="355.64645" y2="257.50964" stroke="#5ef0a0" stroke-width="0.5" />
<line x1="355.64645" y1="257.50964" x2="355.92474" y2="239.70738" stroke="#5ef0a0" stroke-width="0.5" />
<line x1="355.92474" y1="239.70738" x2="349.69086" y2="255.57262" stroke="#59f0a5" stroke-width="0.5" />
<line x1="349.69086" y1="255.57262" x2="342.1768" y2="270.88437" stroke="#59f0a5" stroke-width="0.5" />
<line x1="342.1768" y1="270.88437" x2="322.19495" y2="278.81693" stroke="#59f0a5" stroke-width="0.5" />
<line x1="322.19495" y1="278.81693" x2="305.77533" y2="286.19604" stroke="#59f0a5" stroke-width="0.5" />
<line x1="305.77533" y1="286.19604" x2="278.89166" y2="333.6988" stroke="#59f0a5" stroke-width="0.5" stroke-dasharray="3 3"/>
<line x1="278.89166" y1="333.6988" x2="272.32382" y2="349.10245" stroke="#58f0a6" stroke-width="0.5" />
<line x1="272.32382" y1="349.10245" x2="257.1287" y2="357.03488" stroke="#58f0a6" stroke-width="0.5" />
<line x1="257.1287" y1="357.03488" x2="240.70908" y2="344.58282" stroke="#58f0a6" stroke-width="0.5" />
<line x1="240.70908" y1="344.58282" x2="256.23816" y2="353.06866" stroke="#58f0a6" stroke-width="0.5" />
<line x1="256.23816" y1="353.06866" x2="258.29755" y2="369.85583" stroke="#58f0a6" stroke-width="0.5" />
<line x1="258.29755" y1="369.85583" x2="255.01363" y2="353.52985" stroke="#57f0a7" stroke-width="0.5" />
<line x1="255.01363" y1="353.52985" x2="250.83916" y2="370.87042" stroke="#52f0ac" stroke-width="0.5" />
<line x1="250.83916" y1="370.87042" x2="234.69783" y2="366.35083" stroke="#4ef0b0" stroke-width="0.5" />
<line x1="234.69783" y1="366.35083" x2="227.23941" y2="351.59286" stroke="#4bf0b3" stroke-width="0.5" />
<line x1="227.23941" y1="351.59286" x2="235.31007" y2="335.72803" stroke="#49f0b5" stroke-width="0.5" />
<line x1="235.31007" y1="335.72803" x2="250.56085" y2="342.64584" stroke="#47f0b7" stroke-width="0.5" />
<line x1="250.56085" y1="342.64584" x2="263.69656" y2="353.99103" stroke="#46f0b8" stroke-width="0.5" />
<line x1="263.69656" y1="353.99103" x2="269.0399" y2="376.7736" stroke="#46f0b8" stroke-width="0.5" />
<line x1="269.0399" y1="376.7736" x2="276.4983" y2="391.6237" stroke="#46f0b8" stroke-width="0.5" />
<line x1="276.4983" y1="391.6237" x2="293.80847" y2="390.1479" stroke="#37f0c7" stroke-width="0.5" />
<line x1="293.80847" y1="390.1479" x2="309.6715" y2="384.70593" stroke="#37f0c7" stroke-width="0.5" />
<line x1="309.6715" y1="384.70593" x2="318.02048" y2="370.31702" stroke="#37f0c7" stroke-width="0.5" />
<line x1="318.02048" y1="370.31702" x2="339.83908" y2="326.78094" stroke="#36f0c8" stroke-width="0.5" stroke-dasharray="3 3"/>
<line x1="339.83908" y1="326.78094" x2="343.12302" y2="309.9936" stroke="#36f0c8" stroke-width="0.5" />
<line x1="343.12302" y1="309.9936" x2="348.46634" y2="294.12857" stroke="#36f0c8" stroke-width="0.5" />
<line x1="348.46634" y1="294.12857" x2="350.24747" y2="276.78766" stroke="#36f0c8" stroke-width="0.5" />
<line x1="350.24747" y1="276.78766" x2="351.47195" y2="259.5389" stroke="#36f0c8" stroke-width="0.5" />
<line x1="351.47195" y1="259.5389" x2="356.53702" y2="241.73666" stroke="#36f0c8" stroke-width="0.5" />
<line x1="353.86533" y1="252.62096" x2="345.79468" y2="235.27986" stroke="#b4f04a" stroke-width="0.5" />
<line x1="345.79468" y1="235.27986" x2="329.0411" y2="237.77034" stroke="#b2f04c" stroke-width="0.5" />
<line x1="329.0411" y1="237.77034" x2="317.74216" y2="250.59167" stroke="#b2f04c" stroke-width="0.5" />
<line x1="317.74216" y1="250.59167" x2="308.447" y2="264.4276" stroke="#b2f04c" stroke-width="0.5" />
<line x1="308.447" y1="264.4276" x2="301.60083" y2="279.83157" stroke="#b1f04d" stroke-width="0.5" />
<line x1="301.60083" y1="279.83157" x2="279.78223" y2="337.20383" stroke="#b1f04d" stroke-width="0.5" stroke-dasharray="3 3"/>
<line x1="279.78223" y1="337.20383" x2="273.82663" y2="353.06866" stroke="#b1f04d" stroke-width="0.5" />
<line x1="273.82663" y1="353.06866" x2="266.0899" y2="368.38004" stroke="#b0f04e" stroke-width="0.5" />
<line x1="266.0899" y1="368.38004" x2="268.42764" y2="385.1671" stroke="#b0f04e" stroke-width="0.5" />
<line x1="268.42764" y1="385.1671" x2="262.47205" y2="401.49298" stroke="#b0f04e" stroke-width="0.5" />
<line x1="262.47205" y1="401.49298" x2="255.90419" y2="417.81873" stroke="#b0f04e" stroke-width="0.5" />
<line x1="255.90419" y1="417.81873" x2="167.2382" y2="521.30597" stroke="#aff04f" stroke-width="0.5" stroke-dasharray="3 3"/>
<line x1="167.2382" y1="521.30597" x2="151.43085" y2="514.8496" stroke="#aef050" stroke-width="0.5" />
<line x1="151.43085" y1="514.8496" x2="134.39896" y2="519.27686" stroke="#aef050" stroke-width="0.5" />
<line x1="134.39896" y1="519.27686" x2="119.48215" y2="530.6215" stroke="#aef050" stroke-width="0.5" />
<line x1="119.48215" y1="530.6215" x2="100.66916" y2="531.6361" stroke="#aef050" stroke-width="0.5" />
<line x1="100.66916" y1="531.6361" x2="93.76735" y2="546.9468" stroke="#aef050" stroke-width="0.5" />
<line x1="93.76735" y1="546.9468" x2="110.79923" y2="549.9905" stroke="#aef050" stroke-width="0.5" />
<line x1="110.79923" y1="549.9905" x2="106.01249" y2="532.1895" stroke="#adf051" stroke-width="0.5" />
<line x1="106.01249" y1="532.1895" x2="109.01812" y2="548.9759" stroke="#adf051" stroke-width="0.5" />
<line x1="109.01812" y1="548.9759" x2="124.54719" y2="555.8934" stroke="#adf051" stroke-width="0.5" />
<line x1="124.54719" y1="555.8934" x2="114.97371" y2="541.0439" stroke="#adf051" stroke-width="0.5" />
<line x1="114.97371" y1="541.0439" x2="118.25764" y2="557.83026" stroke="#abf053" stroke-width="0.5" />
<line x1="118.25764" y1="557.83026" x2="132.89615" y2="567.7913" stroke="#abf053" stroke-width="0.5" />
<line x1="132.89615" y1="567.7913" x2="148.70352" y2="572.6796" stroke="#aaf054" stroke-width="0.5" />
<line x1="148.70352" y1="572.6796" x2="163.95428" y2="560.3205" stroke="#a8f056" stroke-width="0.5" />
<line x1="163.95428" y1="560.3205" x2="163.95428" y2="543.5342" stroke="#a8f056" stroke-width="0.5" />
<line x1="163.95428" y1="543.5342" x2="164.23259" y2="526.74774" stroke="#a8f056" stroke-width="0.5" />
<line x1="164.23259" y1="526.74774" x2="180.98618" y2="521.76715" stroke="#a8f056" stroke-width="0.5" />
<line x1="180.98618" y1="521.76715" x2="329.9873" y2="662.23615" stroke="#a5f059" stroke-width="0.5" stroke-dasharray="3 3"/>
<line x1="329.9873" y1="662.23615" x2="333.82782" y2="678.5608" stroke="#a5f059" stroke-width="0.5" />
<line x1="333.82782" y1="678.5608" x2="337.724" y2="697.929" stroke="#a5f059" stroke-width="0.5" />
<line x1="337.724" y1="697.929" x2="334.16177" y2="714.7147" stroke="#a4f05a" stroke-width="0.5" />
<line x1="334.16177" y1="714.7147" x2="339.22684" y2="731.0392" stroke="#a4f05a" stroke-width="0.5" />
<line x1="339.22684" y1="731.0392" x2="355.92474" y2="728.549" stroke="#a4f05a" stroke-width="0.5" />
<line x1="355.92474" y1="728.549" x2="454.16418" y2="695.43884" stroke="#a3f05b" stroke-width="0.5" stroke-dasharray="3 3"/>
<line x1="454.16418" y1="695.43884" x2="469.69327" y2="701.8949" stroke="#a3f05b" stroke-width="0.5" />
<line x1="469.69327" y1="701.8949" x2="487.00345" y2="704.8462" stroke="#a3f05b" stroke-width="0.5" />
<line x1="487.00345" y1="704.8462" x2="504.03534" y2="706.783" stroke="#a3f05b" stroke-width="0.5" />
<line x1="504.03534" y1="706.783" x2="522.8483" y2="726.61224" stroke="#a0f05e" stroke-width="0.5" stroke-dasharray="3 3"/>
<line x1="522.8483" y1="726.61224" x2="508.82208" y2="749.39264" stroke="#9af064" stroke-width="0.5" stroke-dasharray="3 3"/>
<line x1="508.82208" y1="749.39264" x2="504.31363" y2="749.39264" stroke="#94f06a" stroke-width="0.5" stroke-dasharray="3 3"/>
<line x1="504.31363" y1="749.39264" x2="337.4457" y2="740.4465" stroke="#6bf093" stroke-width="0.5" stroke-dasharray="3 3"/>
<line x1="337.4457" y1="740.4465" x2="336.55515" y2="722.093" stroke="#6af094" stroke-width="0.5" />
<line x1="336.55515" y1="722.093" x2="337.4457" y2="704.8462" stroke="#6af094" stroke-width="0.5" />
<line x1="337.4457" y1="704.8462" x2="334.71838" y2="687.04596" stroke="#6af094" stroke-width="0.5" />
<line x1="334.71838" y1="687.04596" x2="341.8985" y2="667.6777" stroke="#6af094" stroke-width="0.5" />
<line x1="341.8985" y1="667.6777" x2="332.04672" y2="652.3675" stroke="#6af094" stroke-width="0.5" />
<line x1="332.04672" y1="652.3675" x2="452.99533" y2="385.1671" stroke="#68f096" stroke-width="0.5" stroke-dasharray="3 3"/>
<line x1="452.99533" y1="385.1671" x2="448.82086" y2="368.84122" stroke="#67f097" stroke-width="0.5" />
<line x1="448.82086" y1="368.84122" x2="448.82086" y2="386.6429" stroke="#67f097" stroke-width="0.5" />
<line x1="448.82086" y1="386.6429" x2="436.854" y2="374.8366" stroke="#65f099" stroke-width="0.5" />
<line x1="436.854" y1="374.8366" x2="447.87463" y2="357.49606" stroke="#64f09a" stroke-width="0.5" />
<line x1="447.87463" y1="357.49606" x2="455.3887" y2="372.34622" stroke="#64f09a" stroke-width="0.5" />
<line x1="455.3887" y1="372.34622" x2="473.2555" y2="358.97186" stroke="#60f09e" stroke-width="0.5" />
<line x1="473.2555" y1="358.97186" x2="469.69327" y2="342.18466" stroke="#60f09e" stroke-width="0.5" />
<line x1="469.69327" y1="342.18466" x2="458.0604" y2="328.25674" stroke="#60f09e" stroke-width="0.5" />
<line x1="458.0604" y1="328.25674" x2="438.35684" y2="319.40192" stroke="#5ff09f" stroke-width="0.5" />
<line x1="438.35684" y1="319.40192" x2="372.95663" y2="274.85065" stroke="#5ff09f" stroke-width="0.5" stroke-dasharray="3 3"/>
<line x1="372.95663" y1="274.85065" x2="360.98978" y2="262.49057" stroke="#5ff09f" stroke-width="0.5" />
<line x1="360.98978" y1="262.49057" x2="348.46634" y2="250.59167" stroke="#5ff09f" stroke-width="0.5" />
<line x1="348.46634" y1="250.59167" x2="358.03983" y2="236.7557" stroke="#5ff09f" stroke-width="0.5" />
<line x1="358.03983" y1="236.7557" x2="364.88596" y2="252.62096" stroke="#5ef0a0" stroke-width="0.5" />
<line x1="364.88596" y1="252.62096" x2="366.3888" y2="235.74106" stroke="#5df0a1" stroke-width="0.5" />
<line x1="366.3888" y1="235.74106" x2="358.9304" y2="251.60632" stroke="#5df0a1" stroke-width="0.5" />
<line x1="358.9304" y1="251.60632" x2="348.74463" y2="266.45688" stroke="#5af0a4" stroke-width="0.5" />
<line x1="348.74463" y1="266.45688" x2="334.4401" y2="276.78766" stroke="#5af0a4" stroke-width="0.5" />
<line x1="334.4401" y1="276.78766" x2="317.4082" y2="278.35574" stroke="#59f0a5" stroke-width="0.5" />
<line x1="317.4082" y1="278.35574" x2="280.11618" y2="331.3006" stroke="#59f0a5" stroke-width="0.5" stroke-dasharray="3 3"/>
<line x1="280.11618" y1="331.3006" x2="273.82663" y2="347.07324" stroke="#59f0a5" stroke-width="0.5" />
<line x1="273.82663" y1="347.07324" x2="258.01926" y2="353.06866" stroke="#59f0a5" stroke-width="0.5" />
<line x1="258.01926" y1="353.06866" x2="243.993" y2="342.64584" stroke="#58f0a6" stroke-width="0.5" />
<line x1="243.993" y1="342.64584" x2="256.23816" y2="354.54446" stroke="#57f0a7" stroke-width="0.5" />
<line x1="256.23816" y1="354.54446" x2="272.32382" y2="359.43304" stroke="#55f0a9" stroke-width="0.5" />
<line x1="272.32382" y1="359.43304" x2="266.6465" y2="375.2978" stroke="#53f0ab" stroke-width="0.5" />
<line x1="266.6465" y1="375.2978" x2="265.1437" y2="392.63828" stroke="#53f0ab" stroke-width="0.5" />
<line x1="265.1437" y1="392.63828" x2="269.0399" y2="408.96408" stroke="#53f0ab" stroke-width="0.5" />
<line x1="269.0399" y1="408.96408" x2="258.90982" y2="431.1929" stroke="#51f0ad" stroke-width="0.5" />
<line x1="258.90982" y1="431.1929" x2="266.0899" y2="382.21555" stroke="#50f0ae" stroke-width="0.5" stroke-dasharray="3 3"/>
<line x1="266.0899" y1="382.21555" x2="267.87103" y2="364.87503" stroke="#50f0ae" stroke-width="0.5" />
<line x1="267.87103" y1="364.87503" x2="255.90419" y2="353.06866" stroke="#50f0ae" stroke-width="0.5" />
<line x1="255.90419" y1="353.06866" x2="243.38074" y2="341.17004" stroke="#50f0ae" stroke-width="0.5" />
<line x1="243.38074" y1="341.17004" x2="232.30446" y2="328.81018" stroke="#4ff0af" stroke-width="0.5" />
<line x1="232.30446" y1="328.81018" x2="247.83353" y2="335.1746" stroke="#4af0b4" stroke-width="0.5" />
<line x1="247.83353" y1="335.1746" x2="253.84477" y2="347.07324" stroke="#47f0b7" stroke-width="0.5" stroke-dasharray="3 3"/>
<line x1="253.84477" y1="347.07324" x2="269.37384" y2="355.00565" stroke="#47f0b7" stroke-width="0.5" />
<line x1="269.37384" y1="355.00565" x2="267.87103" y2="372.8074" stroke="#47f0b7" stroke-width="0.5" />
<line x1="267.87103" y1="372.8074" x2="274.10492" y2="388.67212" stroke="#46f0b8" stroke-width="0.5" />
<line x1="361.60205" y1="240.72202" x2="349.0786" y2="228.82304" stroke="#b3f04b" stroke-width="0.5" />
<line x1="349.0786" y1="228.82304" x2="333.82782" y2="235.74106" stroke="#b2f04c" stroke-width="0.5" />
<line x1="333.82782" y1="235.74106" x2="320.41382" y2="249.11584" stroke="#b1f04d" stroke-width="0.5" />
<line x1="320.41382" y1="249.11584" x2="309.6715" y2="263.50522" stroke="#b1f04d" stroke-width="0.5" />
<line x1="309.6715" y1="263.50522" x2="303.38196" y2="279.27814" stroke="#b1f04d" stroke-width="0.5" />
<line x1="303.38196" y1="279.27814" x2="281.619" y2="332.223" stroke="#b1f04d" stroke-width="0.5" stroke-dasharray="3 3"/>
<line x1="281.619" y1="332.223" x2="274.7172" y2="347.62668" stroke="#b0f04e" stroke-width="0.5" />
<line x1="274.7172" y1="347.62668" x2="263.0843" y2="359.43304" stroke="#b0f04e" stroke-width="0.5" />
<line x1="263.0843" y1="359.43304" x2="270.5427" y2="374.8366" stroke="#b0f04e" stroke-width="0.5" />
<line x1="270.5427" y1="374.8366" x2="270.82098" y2="391.6237" stroke="#b0f04e" stroke-width="0.5" />
<line x1="270.82098" y1="391.6237" x2="262.19373" y2="406.01254" stroke="#aff04f" stroke-width="0.5" />
<line x1="262.19373" y1="406.01254" x2="259.1881" y2="422.3383" stroke="#aff04f" stroke-width="0.5" />
<line x1="259.1881" y1="422.3383" x2="160.39206" y2="522.22833" stroke="#aef050" stroke-width="0.5" stroke-dasharray="3 3"/>
<line x1="160.39206" y1="522.22833" x2="144.52904" y2="515.3108" stroke="#aef050" stroke-width="0.5" />
<line x1="144.52904" y1="515.3108" x2="130.22449" y2="524.25745" stroke="#aef050" stroke-width="0.5" />
<line x1="130.22449" y1="524.25745" x2="114.36146" y2="530.6215" stroke="#aef050" stroke-width="0.5" />
<line x1="114.36146" y1="530.6215" x2="97.941826" y2="536.6167" stroke="#adf051" stroke-width="0.5" />
<line x1="97.941826" y1="536.6167" x2="92.598495" y2="553.4031" stroke="#adf051" stroke-width="0.5" />
<line x1="92.598495" y1="553.4031" x2="112.580345" y2="555.8934" stroke="#adf051" stroke-width="0.5" />
<line x1="112.580345" y1="555.8934" x2="129.33392" y2="550.9128" stroke="#adf051" stroke-width="0.5" />
<line x1="129.33392" y1="550.9128" x2="114.36146" y2="536.0633" stroke="#adf051" stroke-width="0.5" />
<line x1="114.36146" y1="536.0633" x2="98.554085" y2="543.5342" stroke="#adf051" stroke-width="0.5" />
<line x1="98.554085" y1="543.5342" x2="111.07753" y2="555.4322" stroke="#adf051" stroke-width="0.5" />
<line x1="111.07753" y1="555.4322" x2="125.15945" y2="568.7137" stroke="#aaf054" stroke-width="0.5" />
<line x1="125.15945" y1="568.7137" x2="143.36018" y2="572.2185" stroke="#aaf054" stroke-width="0.5" />
<line x1="143.36018" y1="572.2185" x2="162.17317" y2="572.2185" stroke="#a8f056" stroke-width="0.5" />
<line x1="162.17317" y1="572.2185" x2="168.12877" y2="552.3885" stroke="#a8f056" stroke-width="0.5" />
<line x1="168.12877" y1="552.3885" x2="157.99869" y2="539.107" stroke="#a8f056" stroke-width="0.5" />
<line x1="157.99869" y1="539.107" x2="163.34203" y2="523.24286" stroke="#a7f057" stroke-width="0.5" />
<line x1="163.34203" y1="523.24286" x2="180.37392" y2="521.76715" stroke="#a7f057" stroke-width="0.5" />
<line x1="180.37392" y1="521.76715" x2="326.09113" y2="659.83813" stroke="#a4f05a" stroke-width="0.5" stroke-dasharray="3 3"/>
<line x1="326.09113" y1="659.83813" x2="332.9373" y2="675.60944" stroke="#a4f05a" stroke-width="0.5" />
<line x1="332.9373" y1="675.60944" x2="335.05234" y2="695.43884" stroke="#a4f05a" stroke-width="0.5" />
<line x1="335.05234" y1="695.43884" x2="334.4401" y2="712.22455" stroke="#a4f05a" stroke-width="0.5" />
<line x1="334.4401" y1="712.22455" x2="337.4457" y2="729.56354" stroke="#a4f05a" stroke-width="0.5" />
<line x1="337.4457" y1="729.56354" x2="354.14365" y2="729.1024" stroke="#a4f05a" stroke-width="0.5" />
<line x1="354.14365" y1="729.1024" x2="373.23492" y2="727.07336" stroke="#a4f05a" stroke-width="0.5" />
<line x1="373.23492" y1="727.07336" x2="437.74457" y2="696.9145" stroke="#a3f05b" stroke-width="0.5" stroke-dasharray="3 3"/>
<line x1="437.74457" y1="696.9145" x2="454.16418" y2="693.4098" stroke="#a3f05b" stroke-width="0.5" />
<line x1="454.16418" y1="693.4098" x2="470.58383" y2="700.32697" stroke="#a3f05b" stroke-width="0.5" />
<line x1="470.58383" y1="700.32697" x2="487.3374" y2="701.8949" stroke="#a2f05c" stroke-width="0.5" />
<line x1="487.3374" y1="701.8949" x2="502.2542" y2="709.2732" stroke="#a2f05c" stroke-width="0.5" />
<line x1="502.2542" y1="709.2732" x2="366.66708" y2="248.10121" stroke="#5df0a1" stroke-width="0.5" stroke-dasharray="3 3"/>
<line x1="366.66708" y1="248.10121" x2="351.47195" y2="255.01918" stroke="#59f0a5" stroke-width="0.5" />
<line x1="351.47195" y1="255.01918" x2="341.28622" y2="268.94733" stroke="#59f0a5" stroke-width="0.5" />
<line x1="341.28622" y1="268.94733" x2="325.20056" y2="274.38947" stroke="#59f0a5" stroke-width="0.5" />
<line x1="325.20056" y1="274.38947" x2="306.38757" y2="283.24442" stroke="#59f0a5" stroke-width="0.5" />
<line x1="306.38757" y1="283.24442" x2="274.7172" y2="338.67963" stroke="#59f0a5" stroke-width="0.5" stroke-dasharray="3 3"/>
<line x1="274.7172" y1="338.67963" x2="269.65213" y2="354.54446" stroke="#58f0a6" stroke-width="0.5" />
<line x1="269.65213" y1="354.54446" x2="253.51082" y2="348.08786" stroke="#58f0a6" stroke-width="0.5" />
<line x1="253.51082" y1="348.08786" x2="260.07867" y2="363.95267" stroke="#58f0a6" stroke-width="0.5" />
<line x1="260.07867" y1="363.95267" x2="249.33633" y2="351.03946" stroke="#56f0a8" stroke-width="0.5" />
<line x1="354.14365" y1="242.19786" x2="343.12302" y2="228.36185" stroke="#b3f04b" stroke-width="0.5" />
<line x1="343.12302" y1="228.36185" x2="329.0411" y2="238.23154" stroke="#b2f04c" stroke-width="0.5" />
<line x1="329.0411" y1="238.23154" x2="317.4082" y2="250.59167" stroke="#b1f04d" stroke-width="0.5" />
<line x1="317.4082" y1="250.59167" x2="308.78094" y2="264.98105" stroke="#b1f04d" stroke-width="0.5" />
<line x1="308.78094" y1="264.98105" x2="300.7103" y2="279.83157" stroke="#b1f04d" stroke-width="0.5" />
<line x1="300.7103" y1="279.83157" x2="280.39447" y2="336.1892" stroke="#b1f04d" stroke-width="0.5" stroke-dasharray="3 3"/>
<line x1="280.39447" y1="336.1892" x2="272.65778" y2="351.03946" stroke="#b1f04d" stroke-width="0.5" />
<line x1="272.65778" y1="351.03946" x2="266.36823" y2="370.87042" stroke="#b0f04e" stroke-width="0.5" />
<line x1="266.36823" y1="370.87042" x2="263.0843" y2="387.6575" stroke="#b0f04e" stroke-width="0.5" />
<line x1="263.0843" y1="387.6575" x2="260.41263" y2="404.53677" stroke="#b0f04e" stroke-width="0.5" />
<line x1="260.41263" y1="404.53677" x2="163.06374" y2="520.75256" stroke="#aef050" stroke-width="0.5" stroke-dasharray="3 3"/>
<line x1="163.06374" y1="520.75256" x2="148.14693" y2="511.89816" stroke="#aef050" stroke-width="0.5" />
<line x1="148.14693" y1="511.89816" x2="132.28389" y2="519.27686" stroke="#aef050" stroke-width="0.5" />
<line x1="132.28389" y1="519.27686" x2="117.64538" y2="531.1749" stroke="#aef050" stroke-width="0.5" />
<line x1="117.64538" y1="531.1749" x2="100.94746" y2="536.0633" stroke="#aef050" stroke-width="0.5" />
<line x1="100.94746" y1="536.0633" x2="94.37961" y2="551.92737" stroke="#aef050" stroke-width="0.5" />
<line x1="94.37961" y1="551.92737" x2="120.929306" y2="559.3982" stroke="#adf051" stroke-width="0.5" />
<line x1="120.929306" y1="559.3982" x2="126.6066" y2="543.073" stroke="#adf051" stroke-width="0.5" />
<line x1="126.6066" y1="543.073" x2="100.94746" y2="538.5536" stroke="#adf051" stroke-width="0.5" />
<line x1="100.94746" y1="538.5536" x2="102.72857" y2="555.4322" stroke="#adf051" stroke-width="0.5" />
<line x1="102.72857" y1="555.4322" x2="121.87552" y2="556.3545" stroke="#adf051" stroke-width="0.5" />
<line x1="121.87552" y1="556.3545" x2="110.18697" y2="543.5342" stroke="#adf051" stroke-width="0.5" />
<line x1="110.18697" y1="543.5342" x2="113.1926" y2="559.8594" stroke="#abf053" stroke-width="0.5" />
<line x1="113.1926" y1="559.8594" x2="129.33392" y2="570.2816" stroke="#aaf054" stroke-width="0.5" />
<line x1="129.33392" y1="570.2816" x2="146.6441" y2="573.6942" stroke="#aaf054" stroke-width="0.5" />
<line x1="146.6441" y1="573.6942" x2="162.45148" y2="564.8399" stroke="#a8f056" stroke-width="0.5" />
<line x1="162.45148" y1="564.8399" x2="165.7354" y2="547.96136" stroke="#a8f056" stroke-width="0.5" />
<line x1="165.7354" y1="547.96136" x2="158.277" y2="533.1118" stroke="#a8f056" stroke-width="0.5" />
<line x1="158.277" y1="533.1118" x2="171.691" y2="523.24286" stroke="#a7f057" stroke-width="0.5" />
<line x1="171.691" y1="523.24286" x2="336.83347" y2="675.60944" stroke="#a4f05a" stroke-width="0.5" stroke-dasharray="3 3"/>
<line x1="336.83347" y1="675.60944" x2="339.83908" y2="692.4875" stroke="#a4f05a" stroke-width="0.5" />
<line x1="339.83908" y1="692.4875" x2="341.00793" y2="709.2732" stroke="#a4f05a" stroke-width="0.5" />
<line x1="341.00793" y1="709.2732" x2="338.33627" y2="727.5345" stroke="#a4f05a" stroke-width="0.5" />
<line x1="338.33627" y1="727.5345" x2="355.03418" y2="731.0392" stroke="#a4f05a" stroke-width="0.5" />
<line x1="355.03418" y1="731.0392" x2="370.84155" y2="725.5977" stroke="#a4f05a" stroke-width="0.5" />
<line x1="370.84155" y1="725.5977" x2="452.99533" y2="695.43884" stroke="#a3f05b" stroke-width="0.5" stroke-dasharray="3 3"/>
<line x1="452.99533" y1="695.43884" x2="469.97156" y2="697.929" stroke="#a3f05b" stroke-width="0.5" />
<line x1="469.97156" y1="697.929" x2="487.6157" y2="703.37054" stroke="#a2f05c" stroke-width="0.5" />
<line x1="487.6157" y1="703.37054" x2="504.92587" y2="706.3219" stroke="#a2f05c" stroke-width="0.5" />
<line x1="504.92587" y1="706.3219" x2="477.15167" y2="756.7709" stroke="#8bf073" stroke-width="0.5" stroke-dasharray="3 3"/>
<line x1="477.15167" y1="756.7709" x2="454.77646" y2="751.3294" stroke="#86f078" stroke-width="0.5" />
<line x1="454.77646" y1="751.3294" x2="460.73206" y2="735.005" stroke="#82f07c" stroke-width="0.5" />
<line x1="460.73206" y1="735.005" x2="478.3762" y2="735.4662" stroke="#81f07d" stroke-width="0.5" />
<line x1="478.3762" y1="735.4662" x2="486.11288" y2="720.1562" stroke="#81f07d" stroke-width="0.5" />
<line x1="486.11288" y1="720.1562" x2="481.32614" y2="702.81714" stroke="#81f07d" stroke-width="0.5" />
<line x1="481.32614" y1="702.81714" x2="467.2999" y2="692.9486" stroke="#80f07e" stroke-width="0.5" />
<line x1="467.2999" y1="692.9486" x2="450.602" y2="692.9486" stroke="#80f07e" stroke-width="0.5" />
<line x1="450.602" y1="692.9486" x2="434.73895" y2="697.929" stroke="#80f07e" stroke-width="0.5" />
<line x1="434.73895" y1="697.929" x2="418.6533" y2="702.81714" stroke="#80f07e" stroke-width="0.5" />
<line x1="418.6533" y1="702.81714" x2="368.1699" y2="680.58984" stroke="#7df081" stroke-width="0.5" stroke-dasharray="3 3"/>
<line x1="368.1699" y1="680.58984" x2="352.36252" y2="675.60944" stroke="#7df081" stroke-width="0.5" />
<line x1="352.36252" y1="675.60944" x2="339.50513" y2="687.5071" stroke="#7df081" stroke-width="0.5" />
<line x1="339.50513" y1="687.5071" x2="338.61456" y2="706.3219" stroke="#7df081" stroke-width="0.5" />
<line x1="338.61456" y1="706.3219" x2="337.724" y2="723.6609" stroke="#7df081" stroke-width="0.5" />
<line x1="337.724" y1="723.6609" x2="330.2656" y2="738.4175" stroke="#7cf082" stroke-width="0.5" />
<line x1="330.2656" y1="738.4175" x2="325.75717" y2="758.2465" stroke="#7cf082" stroke-width="0.5" />
<line x1="325.75717" y1="758.2465" x2="315.6271" y2="771.61957" stroke="#7cf082" stroke-width="0.5" />
<line x1="315.6271" y1="771.61957" x2="322.47324" y2="755.2952" stroke="#6af094" stroke-width="0.5" />
<line x1="322.47324" y1="755.2952" x2="328.7628" y2="739.432" stroke="#6af094" stroke-width="0.5" />
<line x1="328.7628" y1="739.432" x2="327.25998" y2="722.093" stroke="#6af094" stroke-width="0.5" />
<line x1="327.25998" y1="722.093" x2="331.76843" y2="703.83167" stroke="#6af094" stroke-width="0.5" />
<line x1="331.76843" y1="703.83167" x2="329.9873" y2="686.03143" stroke="#6af094" stroke-width="0.5" />
<line x1="329.9873" y1="686.03143" x2="337.11176" y2="666.202" stroke="#6af094" stroke-width="0.5" />
<line x1="337.11176" y1="666.202" x2="330.2656" y2="644.43567" stroke="#6af094" stroke-width="0.5" />
<line x1="330.2656" y1="644.43567" x2="462.8471" y2="379.72516" stroke="#68f096" stroke-width="0.5" stroke-dasharray="3 3"/>
<line x1="462.8471" y1="379.72516" x2="447.59634" y2="387.19632" stroke="#67f097" stroke-width="0.5" />
<line x1="447.59634" y1="387.19632" x2="433.2918" y2="376.7736" stroke="#65f099" stroke-width="0.5" />
<line x1="433.2918" y1="376.7736" x2="439.85965" y2="359.98645" stroke="#65f099" stroke-width="0.5" />
<line x1="439.85965" y1="359.98645" x2="456.55756" y2="360.90884" stroke="#64f09a" stroke-width="0.5" />
<line x1="456.55756" y1="360.90884" x2="453.55194" y2="378.2494" stroke="#63f09b" stroke-width="0.5" />
<line x1="453.55194" y1="378.2494" x2="468.8027" y2="370.31702" stroke="#60f09e" stroke-width="0.5" />
<line x1="468.8027" y1="370.31702" x2="477.48563" y2="352.51526" stroke="#60f09e" stroke-width="0.5" />
<line x1="477.48563" y1="352.51526" x2="472.69888" y2="335.1746" stroke="#5ff09f" stroke-width="0.5" />
<line x1="472.69888" y1="335.1746" x2="456.27927" y2="330.74716" stroke="#5ff09f" stroke-width="0.5" />
<line x1="456.27927" y1="330.74716" x2="441.91907" y2="320.87772" stroke="#5ff09f" stroke-width="0.5" />
<line x1="441.91907" y1="320.87772" x2="373.8472" y2="267.9327" stroke="#5ff09f" stroke-width="0.5" stroke-dasharray="3 3"/>
<line x1="373.8472" y1="267.9327" x2="358.3181" y2="260.00012" stroke="#5ff09f" stroke-width="0.5" />
<line x1="358.3181" y1="260.00012" x2="350.58142" y2="244.1349" stroke="#5ef0a0" stroke-width="0.5" />
<line x1="350.58142" y1="244.1349" x2="351.75027" y2="262.49057" stroke="#59f0a5" stroke-width="0.5" />
<line x1="351.75027" y1="262.49057" x2="338.61456" y2="273.83603" stroke="#59f0a5" stroke-width="0.5" />
<line x1="338.61456" y1="273.83603" x2="321.91666" y2="278.35574" stroke="#59f0a5" stroke-width="0.5" />
<line x1="321.91666" y1="278.35574" x2="306.38757" y2="286.74948" stroke="#59f0a5" stroke-width="0.5" />
<line x1="306.38757" y1="286.74948" x2="281.28503" y2="327.79556" stroke="#59f0a5" stroke-width="0.5" stroke-dasharray="3 3"/>
<line x1="281.28503" y1="327.79556" x2="272.65778" y2="342.64584" stroke="#59f0a5" stroke-width="0.5" />
<line x1="272.65778" y1="342.64584" x2="262.806" y2="356.48145" stroke="#58f0a6" stroke-width="0.5" />
<line x1="262.806" y1="356.48145" x2="246.38637" y2="349.56366" stroke="#58f0a6" stroke-width="0.5" />
<line x1="246.38637" y1="349.56366" x2="258.01926" y2="361.46225" stroke="#58f0a6" stroke-width="0.5" />
<line x1="258.01926" y1="361.46225" x2="247.83353" y2="348.08786" stroke="#56f0a8" stroke-width="0.5" />
<line x1="247.83353" y1="348.08786" x2="248.16748" y2="367.36542" stroke="#54f0aa" stroke-width="0.5" />
<line x1="248.16748" y1="367.36542" x2="234.14122" y2="358.51068" stroke="#4df0b1" stroke-width="0.5" />
<line x1="234.14122" y1="358.51068" x2="223.06494" y2="345.59744" stroke="#4af0b4" stroke-width="0.5" />
<line x1="223.06494" y1="345.59744" x2="239.20627" y2="353.99103" stroke="#4af0b4" stroke-width="0.5" />
<line x1="239.20627" y1="353.99103" x2="254.40137" y2="367.36542" stroke="#4af0b4" stroke-width="0.5" />
<line x1="254.40137" y1="367.36542" x2="269.37384" y2="357.95724" stroke="#4af0b4" stroke-width="0.5" />
<line x1="269.37384" y1="357.95724" x2="245.77411" y2="346.61206" stroke="#4af0b4" stroke-width="0.5" />
<line x1="245.77411" y1="346.61206" x2="245.77411" y2="366.90424" stroke="#4af0b4" stroke-width="0.5" />
<line x1="245.77411" y1="366.90424" x2="228.46393" y2="359.43304" stroke="#4af0b4" stroke-width="0.5" />
<line x1="228.46393" y1="359.43304" x2="225.18001" y2="343.10703" stroke="#49f0b5" stroke-width="0.5" />
<line x1="225.18001" y1="343.10703" x2="249.05804" y2="334.2522" stroke="#47f0b7" stroke-width="0.5" stroke-dasharray="3 3"/>
<line x1="249.05804" y1="334.2522" x2="255.90419" y2="349.56366" stroke="#46f0b8" stroke-width="0.5" />
<line x1="255.90419" y1="349.56366" x2="264.86542" y2="363.95267" stroke="#46f0b8" stroke-width="0.5" />
<line x1="264.86542" y1="363.95267" x2="272.93607" y2="378.8028" stroke="#46f0b8" stroke-width="0.5" />
<line x1="272.93607" y1="378.8028" x2="277.11053" y2="395.12866" stroke="#46f0b8" stroke-width="0.5" />
<circle cx="357.24484" cy="254.33209" r="12.458623" stroke="#b3f04b" stroke-width="1.0" fill="#0f0" fill-opacity="0.1"/>
<circle cx="261.26218" cy="360.42377" r="8.305749" stroke="#b0f04e" stroke-width="1.0" fill="#00f" fill-opacity="0.1"/>
<circle cx="134.99406" cy="515.3584" r="8.305749" stroke="#aef050" stroke-width="1.0" fill="#00f" fill-opacity="0.1"/>
<circle cx="97.840904" cy="554.75555" r="16.611498" stroke="#aef050" stroke-width="1.0" fill="#f00" fill-opacity="0.1"/>
<circle cx="157.0399" cy="572.1806" r="12.458623" stroke="#aaf054" stroke-width="1.0" fill="#ff0" fill-opacity="0.1"/>
<circle cx="151.48529" cy="541.0598" r="20.764372" stroke="#a8f056" stroke-width="1.0" fill="#00f" fill-opacity="0.1"/>
<circle cx="478.349" cy="702.82764" r="8.305749" stroke="#a3f05b" stroke-width="1.0" fill="#00f" fill-opacity="0.1"/>
<circle cx="489.35687" cy="751.8494" r="12.458623" stroke="#9cf062" stroke-width="1.0" fill="#f00" fill-opacity="0.1"/>
<circle cx="486.78415" cy="753.23126" r="12.458623" stroke="#93f06b" stroke-width="1.0" fill="#f00" fill-opacity="0.1"/>
<circle cx="343.02307" cy="679.08044" r="12.458623" stroke="#6af094" stroke-width="1.0" fill="#0f0" fill-opacity="0.1"/>
<circle cx="470.55856" cy="373.68085" r="12.458623" stroke="#67f097" stroke-width="1.0" fill="#00f" fill-opacity="0.1"/>
<circle cx="475.46463" cy="350.74136" r="8.305749" stroke="#5ff09f" stroke-width="1.0" fill="#00f" fill-opacity="0.1"/>
<circle cx="254.02835" cy="367.67767" r="8.305749" stroke="#58f0a6" stroke-width="1.0" fill="#f00" fill-opacity="0.1"/>
<circle cx="226.76723" cy="341.988" r="8.305749" stroke="#4df0b1" stroke-width="1.0" fill="#ff0" fill-opacity="0.1"/>
<circle cx="358.21994" cy="318.32245" r="20.764372" stroke="#36f0c8" stroke-width="1.0" fill="#00f" fill-opacity="0.1"/>
<circle cx="359.13223" cy="255.97379" r="12.458623" stroke="#b4f04a" stroke-width="1.0" fill="#0f0" fill-opacity="0.1"/>
<circle cx="263.66003" cy="359.32794" r="8.305749" stroke="#b1f04d" stroke-width="1.0" fill="#00f" fill-opacity="0.1"/>
<circle cx="150.57729" cy="540.0162" r="20.764372" stroke="#aff04f" stroke-width="1.0" fill="#00f" fill-opacity="0.1"/>
<circle cx="134.2708" cy="515.40796" r="8.305749" stroke="#aef050" stroke-width="1.0" fill="#00f" fill-opacity="0.1"/>
<circle cx="95.563" cy="555.4544" r="16.611498" stroke="#aef050" stroke-width="1.0" fill="#f00" fill-opacity="0.1"/>
<circle cx="157.19742" cy="572.2822" r="12.458623" stroke="#abf053" stroke-width="1.0" fill="#ff0" fill-opacity="0.1"/>
<circle cx="477.13486" cy="701.3973" r="8.305749" stroke="#a3f05b" stroke-width="1.0" fill="#00f" fill-opacity="0.1"/>
<circle cx="491.39285" cy="752.51044" r="12.458623" stroke="#9df061" stroke-width="1.0" fill="#f00" fill-opacity="0.1"/>
<circle cx="488.01132" cy="748.8704" r="12.458623" stroke="#9af064" stroke-width="1.0" fill="#f00" fill-opacity="0.1"/>
<circle cx="489.5664" cy="752.7534" r="12.458623" stroke="#92f06c" stroke-width="1.0" fill="#f00" fill-opacity="0.1"/>
<circle cx="488.5445" cy="753.7221" r="12.458623" stroke="#8ff06f" stroke-width="1.0" fill="#f00" fill-opacity="0.1"/>
<circle cx="489.9701" cy="752.4934" r="12.458623" stroke="#8ef070" stroke-width="1.0" fill="#f00" fill-opacity="0.1"/>
<circle cx="471.3698" cy="372.61823" r="12.458623" stroke="#68f096" stroke-width="1.0" fill="#00f" fill-opacity="0.1"/>
<circle cx="477.66278" cy="350.23184" r="8.305749" stroke="#60f09e" stroke-width="1.0" fill="#00f" fill-opacity="0.1"/>
<circle cx="263.17078" cy="358.6263" r="8.305749" stroke="#59f0a5" stroke-width="1.0" fill="#00f" fill-opacity="0.1"/>
<circle cx="264.61795" cy="359.9584" r="8.305749" stroke="#50f0ae" stroke-width="1.0" fill="#00f" fill-opacity="0.1"/>
<circle cx="252.49922" cy="330.98007" r="12.458623" stroke="#4af0b4" stroke-width="1.0" fill="#0f0" fill-opacity="0.1"/>
<circle cx="266.0238" cy="358.7347" r="8.305749" stroke="#47f0b7" stroke-width="1.0" fill="#00f" fill-opacity="0.1"/>
<circle cx="357.96585" cy="253.40753" r="12.458623" stroke="#19f0e5" stroke-width="1.0" fill="#0f0" fill-opacity="0.1"/>
<circle cx="262.16122" cy="355.6414" r="8.305749" stroke="#b0f04e" stroke-width="1.0" fill="#00f" fill-opacity="0.1"/>
<circle cx="152.23024" cy="537.447" r="20.764372" stroke="#aef050" stroke-width="1.0" fill="#00f" fill-opacity="0.1"/>
<circle cx="135.39879" cy="519.03864" r="8.305749" stroke="#aef050" stroke-width="1.0" fill="#00f" fill-opacity="0.1"/>
<circle cx="97.05806" cy="554.9355" r="16.611498" stroke="#adf051" stroke-width="1.0" fill="#f00" fill-opacity="0.1"/>
<circle cx="159.49352" cy="572.2773" r="12.458623" stroke="#aaf054" stroke-width="1.0" fill="#ff0" fill-opacity="0.1"/>
<circle cx="475.98947" cy="700.903" r="8.305749" stroke="#a3f05b" stroke-width="1.0" fill="#00f" fill-opacity="0.1"/>
<circle cx="252.15" cy="367.52267" r="8.305749" stroke="#58f0a6" stroke-width="1.0" fill="#f00" fill-opacity="0.1"/>
<circle cx="359.71967" cy="253.01114" r="12.458623" stroke="#1cf0e2" stroke-width="1.0" fill="#0f0" fill-opacity="0.1"/>
<circle cx="261.452" cy="360.37268" r="8.305749" stroke="#b0f04e" stroke-width="1.0" fill="#00f" fill-opacity="0.1"/>
<circle cx="131.26102" cy="516.5055" r="8.305749" stroke="#aef050" stroke-width="1.0" fill="#00f" fill-opacity="0.1"/>
<circle cx="97.65025" cy="555.68365" r="16.611498" stroke="#aef050" stroke-width="1.0" fill="#f00" fill-opacity="0.1"/>
<circle cx="156.28633" cy="574.35034" r="12.458623" stroke="#aaf054" stroke-width="1.0" fill="#ff0" fill-opacity="0.1"/>
<circle cx="152.21404" cy="538.538" r="20.764372" stroke="#a8f056" stroke-width="1.0" fill="#00f" fill-opacity="0.1"/>
<circle cx="477.967" cy="704.19495" r="8.305749" stroke="#a3f05b" stroke-width="1.0" fill="#00f" fill-opacity="0.1"/>
<circle cx="488.17023" cy="750.16113" r="12.458623" stroke="#98f066" stroke-width="1.0" fill="#f00" fill-opacity="0.1"/>
<circle cx="465.75314" cy="737.435" r="4.1528745" stroke="#82f07c" stroke-width="1.0" fill="#ff0" fill-opacity="0.1"/>
<circle cx="469.2799" cy="374.70438" r="12.458623" stroke="#68f096" stroke-width="1.0" fill="#00f" fill-opacity="0.1"/>
<circle cx="477.29224" cy="348.2455" r="8.305749" stroke="#60f09e" stroke-width="1.0" fill="#00f" fill-opacity="0.1"/>
<circle cx="360.56982" cy="253.7603" r="12.458623" stroke="#59f0a5" stroke-width="1.0" fill="#0f0" fill-opacity="0.1"/>
<circle cx="251.31992" cy="365.79962" r="8.305749" stroke="#58f0a6" stroke-width="1.0" fill="#f00" fill-opacity="0.1"/>
<circle cx="224.80515" cy="343.77176" r="8.305749" stroke="#4cf0b2" stroke-width="1.0" fill="#ff0" fill-opacity="0.1"/>
</svg>
