<?xml version="1.0" standalone="no"?>
<!DOCTYPE svg PUBLIC "-//W3C//DTD SVG 1.1//EN" "http://www.w3.org/Graphics/SVG/1.1/DTD/svg11.dtd">
<svg opacity="20%" width="30cm" height="30cm" version="1.1" viewBox="0 0 10000 10000" xmlns="http://www.w3.org/2000/svg" xmlns:xlink="http://www.w3.org/1999/xlink">
<desc>DrawTrails of automics data, Mon Aug 08 16:33:07 BST 2011</desc>
<filter id="desaturate"  primitiveUnits="objectBoundingBox">
<feImage x="0%" y="0%" width="100%" height="100%" xlink:href="altontowers-zoom15.png"/>
<feColorMatrix type="matrix" values="0.3333 0.3333 0.3333 0 0 0.3333 0.3333 0.3333 0 0 0.3333 0.3333 0.3333 0 0 0      0      0      1 0"/>
<feColorMatrix type="matrix" values="0.3 0 0 0 0.7 0 0.3 0 0 0.7 0 0 0.3 0 0.7 0      0      0      1 0"/>
</filter>
<rect x="-2643.7028285176257" y="-2643.7028285176257" width="15287.405657035251" height="15287.405657035251" filter="url(#desaturate)"/>
<line x1="3478.541" y1="2664.5688" x2="3314.3445" y2="2773.411" stroke="#9cf062" stroke-width="5.0" />
<line x1="3314.3445" y1="2773.411" x2="3147.3655" y2="2807.5393" stroke="#9cf062" stroke-width="5.0" />
<line x1="3147.3655" y1="2807.5393" x2="2803.9448" y2="3322.23" stroke="#9bf063" stroke-width="5.0" stroke-dasharray="30 30"/>
<line x1="2803.9448" y1="3322.23" x2="2741.0493" y2="3480.8787" stroke="#9bf063" stroke-width="5.0" />
<line x1="2741.0493" y1="3480.8787" x2="2702.644" y2="3644.1384" stroke="#9bf063" stroke-width="5.0" />
<line x1="2702.644" y1="3644.1384" x2="2675.3708" y2="3842.4475" stroke="#9bf063" stroke-width="5.0" />
<line x1="2675.3708" y1="3842.4475" x2="2651.437" y2="4010.3179" stroke="#9bf063" stroke-width="5.0" />
<line x1="2651.437" y1="4010.3179" x2="2589.0981" y2="4168.964" stroke="#9bf063" stroke-width="5.0" />
<line x1="2589.0981" y1="4168.964" x2="1597.798" y2="5213.0596" stroke="#99f065" stroke-width="5.0" stroke-dasharray="30 30"/>
<line x1="1597.798" y1="5213.0596" x2="1430.2623" y2="5157.7197" stroke="#99f065" stroke-width="5.0" />
<line x1="1430.2623" y1="5157.7197" x2="1281.094" y2="5251.7974" stroke="#99f065" stroke-width="5.0" />
<line x1="1281.094" y1="5251.7974" x2="1116.898" y2="5341.264" stroke="#98f066" stroke-width="5.0" />
<line x1="1116.898" y1="5341.264" x2="946.57904" y2="5376.3125" stroke="#98f066" stroke-width="5.0" />
<line x1="946.57904" y1="5376.3125" x2="955.4846" y2="5548.788" stroke="#98f066" stroke-width="5.0" />
<line x1="955.4846" y1="5548.788" x2="1164.7653" y2="5583.836" stroke="#98f066" stroke-width="5.0" />
<line x1="1164.7653" y1="5583.836" x2="1313.9333" y2="5504.516" stroke="#98f066" stroke-width="5.0" />
<line x1="1313.9333" y1="5504.516" x2="1197.6045" y2="5385.536" stroke="#98f066" stroke-width="5.0" />
<line x1="1197.6045" y1="5385.536" x2="1030.6252" y2="5420.584" stroke="#97f067" stroke-width="5.0" />
<line x1="1030.6252" y1="5420.584" x2="1266.0659" y2="5588.4478" stroke="#97f067" stroke-width="5.0" />
<line x1="1266.0659" y1="5588.4478" x2="1221.5382" y2="5415.051" stroke="#96f068" stroke-width="5.0" />
<line x1="1221.5382" y1="5415.051" x2="1242.1323" y2="5583.836" stroke="#8ff06f" stroke-width="5.0" />
<line x1="1242.1323" y1="5583.836" x2="1370.7063" y2="5692.6704" stroke="#8ef070" stroke-width="5.0" />
<line x1="1370.7063" y1="5692.6704" x2="1538.2422" y2="5722.185" stroke="#8ef070" stroke-width="5.0" />
<line x1="1538.2422" y1="5722.185" x2="1678.5046" y2="5632.7197" stroke="#8cf072" stroke-width="5.0" />
<line x1="1678.5046" y1="5632.7197" x2="1639.5428" y2="5469.468" stroke="#8cf072" stroke-width="5.0" />
<line x1="1639.5428" y1="5469.468" x2="1582.7699" y2="5306.2153" stroke="#8bf073" stroke-width="5.0" />
<line x1="1582.7699" y1="5306.2153" x2="1508.1859" y2="5153.108" stroke="#8bf073" stroke-width="5.0" />
<line x1="1508.1859" y1="5153.108" x2="1340.65" y2="5173.3994" stroke="#8bf073" stroke-width="5.0" />
<line x1="1340.65" y1="5173.3994" x2="1161.9823" y2="5207.5254" stroke="#8bf073" stroke-width="5.0" />
<line x1="1161.9823" y1="5207.5254" x2="991.66345" y2="5242.574" stroke="#88f076" stroke-width="5.0" />
<line x1="991.66345" y1="5242.574" x2="982.7579" y2="5069.1753" stroke="#82f07c" stroke-width="5.0" />
<line x1="982.7579" y1="5069.1753" x2="1146.9541" y2="5108.836" stroke="#80f07e" stroke-width="5.0" />
<line x1="1146.9541" y1="5108.836" x2="1313.9333" y2="5098.6904" stroke="#7ff07f" stroke-width="5.0" />
<line x1="1313.9333" y1="5098.6904" x2="1484.2522" y2="5113.4478" stroke="#7ff07f" stroke-width="5.0" />
<line x1="1484.2522" y1="5113.4478" x2="1642.3259" y2="5178.0107" stroke="#7ff07f" stroke-width="5.0" />
<line x1="1642.3259" y1="5178.0107" x2="1800.956" y2="5227.8174" stroke="#7ff07f" stroke-width="5.0" />
<line x1="1800.956" y1="5227.8174" x2="3344.401" y2="6716.4355" stroke="#7cf082" stroke-width="5.0" stroke-dasharray="30 30"/>
<line x1="3344.401" y1="6716.4355" x2="3547.5588" y2="6756.094" stroke="#7cf082" stroke-width="5.0" />
<line x1="3547.5588" y1="6756.094" x2="3696.727" y2="6830.801" stroke="#7cf082" stroke-width="5.0" />
<line x1="3696.727" y1="6830.801" x2="3819.1785" y2="6948.8545" stroke="#7cf082" stroke-width="5.0" />
<line x1="3819.1785" y1="6948.8545" x2="4526.614" y2="6899.973" stroke="#7bf083" stroke-width="5.0" stroke-dasharray="30 30"/>
<line x1="4526.614" y1="6899.973" x2="4681.905" y2="7003.2695" stroke="#7bf083" stroke-width="5.0" />
<line x1="4681.905" y1="7003.2695" x2="4780.4224" y2="7137.002" stroke="#7af084" stroke-width="5.0" />
<line x1="4780.4224" y1="7137.002" x2="4729.772" y2="7295.6353" stroke="#77f087" stroke-width="5.0" />
<line x1="4729.772" y1="7295.6353" x2="4317.8896" y2="7057.685" stroke="#66f098" stroke-width="5.0" stroke-dasharray="30 30"/>
<line x1="4317.8896" y1="7057.685" x2="4475.9634" y2="6954.3887" stroke="#61f09d" stroke-width="5.0" stroke-dasharray="30 30"/>
<line x1="4475.9634" y1="6954.3887" x2="4652.405" y2="6944.243" stroke="#61f09d" stroke-width="5.0" />
<line x1="4652.405" y1="6944.243" x2="4774.8564" y2="7057.685" stroke="#61f09d" stroke-width="5.0" />
<line x1="4774.8564" y1="7057.685" x2="4932.93" y2="7132.3906" stroke="#61f09d" stroke-width="5.0" />
<line x1="4932.93" y1="7132.3906" x2="4813.261" y2="7003.2695" stroke="#60f09e" stroke-width="5.0" />
<line x1="4813.261" y1="7003.2695" x2="4670.216" y2="6889.828" stroke="#60f09e" stroke-width="5.0" />
<line x1="4670.216" y1="6889.828" x2="4488.2085" y2="6964.5337" stroke="#60f09e" stroke-width="5.0" />
<line x1="4488.2085" y1="6964.5337" x2="4324.0127" y2="6998.658" stroke="#60f09e" stroke-width="5.0" />
<line x1="4324.0127" y1="6998.658" x2="3421.7678" y2="7389.708" stroke="#5ff09f" stroke-width="5.0" stroke-dasharray="30 30"/>
<line x1="3421.7678" y1="7389.708" x2="3293.7505" y2="7498.5376" stroke="#5ff09f" stroke-width="5.0" />
<line x1="3293.7505" y1="7498.5376" x2="3487.4463" y2="7389.708" stroke="#5cf0a2" stroke-width="5.0" />
<line x1="3487.4463" y1="7389.708" x2="3654.9824" y2="7429.366" stroke="#5cf0a2" stroke-width="5.0" />
<line x1="3654.9824" y1="7429.366" x2="4401.3794" y2="6979.29" stroke="#5cf0a2" stroke-width="5.0" stroke-dasharray="30 30"/>
<line x1="4401.3794" y1="6979.29" x2="4562.7925" y2="6914.7295" stroke="#5cf0a2" stroke-width="5.0" />
<line x1="4562.7925" y1="6914.7295" x2="4747.583" y2="6840.024" stroke="#5cf0a2" stroke-width="5.0" />
<line x1="4747.583" y1="6840.024" x2="4902.874" y2="6745.949" stroke="#5cf0a2" stroke-width="5.0" />
<line x1="4902.874" y1="6745.949" x2="5075.9756" y2="3451.3625" stroke="#59f0a5" stroke-width="5.0" stroke-dasharray="30 30"/>
<line x1="5075.9756" y1="3451.3625" x2="4926.8076" y2="3351.7458" stroke="#59f0a5" stroke-width="5.0" />
<line x1="4926.8076" y1="3351.7458" x2="4768.734" y2="3204.1653" stroke="#59f0a5" stroke-width="5.0" />
<line x1="4768.734" y1="3204.1653" x2="4619.566" y2="3099.936" stroke="#59f0a5" stroke-width="5.0" />
<line x1="4619.566" y1="3099.936" x2="4475.9634" y2="2966.1902" stroke="#59f0a5" stroke-width="5.0" />
<line x1="4475.9634" y1="2966.1902" x2="5123.843" y2="2713.4556" stroke="#57f0a7" stroke-width="5.0" stroke-dasharray="30 30"/>
<line x1="5123.843" y1="2713.4556" x2="5138.871" y2="2901.6233" stroke="#57f0a7" stroke-width="5.0" />
<line x1="5138.871" y1="2901.6233" x2="5061.504" y2="3050.1272" stroke="#57f0a7" stroke-width="5.0" />
<line x1="5061.504" y1="3050.1272" x2="4977.458" y2="3198.6309" stroke="#56f0a8" stroke-width="5.0" />
<line x1="4977.458" y1="3198.6309" x2="4810.4785" y2="3179.2607" stroke="#56f0a8" stroke-width="5.0" />
<line x1="4810.4785" y1="3179.2607" x2="4672.999" y2="3085.178" stroke="#56f0a8" stroke-width="5.0" />
<line x1="4672.999" y1="3085.178" x2="4508.8027" y2="3015.999" stroke="#55f0a9" stroke-width="5.0" />
<line x1="4508.8027" y1="3015.999" x2="4532.7363" y2="2842.5903" stroke="#55f0a9" stroke-width="5.0" />
<line x1="4532.7363" y1="2842.5903" x2="5082.098" y2="2679.3271" stroke="#4af0b4" stroke-width="5.0" stroke-dasharray="30 30"/>
<line x1="5082.098" y1="2679.3271" x2="5123.843" y2="2872.1067" stroke="#49f0b5" stroke-width="5.0" />
<line x1="5123.843" y1="2872.1067" x2="5070.4097" y2="3030.757" stroke="#49f0b5" stroke-width="5.0" />
<line x1="5070.4097" y1="3030.757" x2="5004.731" y2="3204.1653" stroke="#47f0b7" stroke-width="5.0" />
<line x1="5004.731" y1="3204.1653" x2="4911.7793" y2="3347.134" stroke="#46f0b8" stroke-width="5.0" />
<line x1="4911.7793" y1="3347.134" x2="4753.7056" y2="3401.5542" stroke="#46f0b8" stroke-width="5.0" />
<line x1="4753.7056" y1="3401.5542" x2="4631.2544" y2="3282.5674" stroke="#46f0b8" stroke-width="5.0" />
<line x1="4631.2544" y1="3282.5674" x2="4467.0576" y2="3204.1653" stroke="#45f0b9" stroke-width="5.0" />
<line x1="4467.0576" y1="3204.1653" x2="3016.0083" y2="3832.3018" stroke="#44f0ba" stroke-width="5.0" stroke-dasharray="30 30"/>
<line x1="3016.0083" y1="3832.3018" x2="2836.7842" y2="3886.7212" stroke="#44f0ba" stroke-width="5.0" />
<line x1="2836.7842" y1="3886.7212" x2="2693.7383" y2="3788.0278" stroke="#43f0bb" stroke-width="5.0" />
<line x1="2693.7383" y1="3788.0278" x2="2678.7104" y2="3604.4766" stroke="#43f0bb" stroke-width="5.0" />
<line x1="2678.7104" y1="3604.4766" x2="2538.4478" y2="3505.7825" stroke="#42f0bc" stroke-width="5.0" />
<line x1="2538.4478" y1="3505.7825" x2="2574.07" y2="3669.0425" stroke="#42f0bc" stroke-width="5.0" />
<line x1="2574.07" y1="3669.0425" x2="2523.4197" y2="3510.3945" stroke="#3df0c1" stroke-width="5.0" />
<line x1="2523.4197" y1="3510.3945" x2="2466.6467" y2="3669.0425" stroke="#31f0cd" stroke-width="5.0" />
<line x1="2466.6467" y1="3669.0425" x2="2287.4224" y2="3609.0884" stroke="#28f0d6" stroke-width="5.0" />
<line x1="2287.4224" y1="3609.0884" x2="2153.2822" y2="3510.3945" stroke="#21f0dd" stroke-width="5.0" />
<line x1="2153.2822" y1="3510.3945" x2="2320.2615" y2="3455.9744" stroke="#21f0dd" stroke-width="5.0" />
<line x1="2320.2615" y1="3455.9744" x2="2469.4297" y2="3332.376" stroke="#1ef0e0" stroke-width="5.0" />
<line x1="2469.4297" y1="3332.376" x2="2604.1262" y2="3228.147" stroke="#1ef0e0" stroke-width="5.0" />
<line x1="2604.1262" y1="3228.147" x2="2729.3606" y2="3114.6943" stroke="#1ef0e0" stroke-width="5.0" />
<line x1="2729.3606" y1="3114.6943" x2="3048.8477" y2="2511.4512" stroke="#1df0e1" stroke-width="5.0" stroke-dasharray="30 30"/>
<line x1="3048.8477" y1="2511.4512" x2="3150.1484" y2="2372.169" stroke="#19f0e5" stroke-width="5.0" />
<line x1="3150.1484" y1="2372.169" x2="3326.5896" y2="2377.7034" stroke="#12f0ec" stroke-width="5.0" />
<line x1="3326.5896" y1="2377.7034" x2="3481.8804" y2="2436.7368" stroke="#12f0ec" stroke-width="5.0" />
<circle cx="3581.1829" cy="2555.344" r="124.58623" stroke="#a4f05a" stroke-width="10.0" fill="#0f0" fill-opacity="0.1"/>
<circle cx="1487.984" cy="5416.3945" r="207.64372" stroke="#99f065" stroke-width="10.0" fill="#00f" fill-opacity="0.1"/>
<circle cx="1349.1865" cy="5197.068" r="83.05749" stroke="#99f065" stroke-width="10.0" fill="#00f" fill-opacity="0.1"/>
<circle cx="982.3718" cy="5522.4873" r="166.11497" stroke="#98f066" stroke-width="10.0" fill="#f00" fill-opacity="0.1"/>
<circle cx="1600.4763" cy="5735.3394" r="124.58623" stroke="#8ef070" stroke-width="10.0" fill="#ff0" fill-opacity="0.1"/>
<circle cx="4774.1606" cy="7052.1577" r="83.05749" stroke="#7bf083" stroke-width="10.0" fill="#00f" fill-opacity="0.1"/>
<circle cx="2510.3242" cy="3662.4707" r="83.05749" stroke="#42f0bc" stroke-width="10.0" fill="#f00" fill-opacity="0.1"/>
<circle cx="2241.0056" cy="3430.0386" r="83.05749" stroke="#22f0dc" stroke-width="10.0" fill="#ff0" fill-opacity="0.1"/>
<circle cx="3157.4858" cy="2454.2654" r="124.58623" stroke="#19f0e5" stroke-width="10.0" fill="#0f0" fill-opacity="0.1"/>
</svg>
