<?xml version="1.0" standalone="no"?>
<!DOCTYPE svg PUBLIC "-//W3C//DTD SVG 1.1//EN" "http://www.w3.org/Graphics/SVG/1.1/DTD/svg11.dtd">
<svg opacity="20%" width="30cm" height="30cm" version="1.1" viewBox="0 0 10000 10000" xmlns="http://www.w3.org/2000/svg" xmlns:xlink="http://www.w3.org/1999/xlink">
<desc>DrawTrails of automics data, Mon Aug 08 16:33:07 BST 2011</desc>
<filter id="desaturate"  primitiveUnits="objectBoundingBox">
<feImage x="0%" y="0%" width="100%" height="100%" xlink:href="altontowers-zoom15.png"/>
<feColorMatrix type="matrix" values="0.3333 0.3333 0.3333 0 0 0.3333 0.3333 0.3333 0 0 0.3333 0.3333 0.3333 0 0 0      0      0      1 0"/>
<feColorMatrix type="matrix" values="0.3 0 0 0 0.7 0 0.3 0 0 0.7 0 0 0.3 0 0.7 0      0      0      1 0"/>
</filter>
<rect x="-2643.7028285176257" y="-2643.7028285176257" width="15287.405657035251" height="15287.405657035251" filter="url(#desaturate)"/>
<line x1="3586.5208" y1="2629.5178" x2="3735.6887" y2="2718.9897" stroke="#85f079" stroke-width="5.0" />
<line x1="3735.6887" y1="2718.9897" x2="3896.5454" y2="2813.0737" stroke="#85f079" stroke-width="5.0" />
<line x1="3896.5454" y1="2813.0737" x2="4493.775" y2="3223.5352" stroke="#84f07a" stroke-width="5.0" stroke-dasharray="30 30"/>
<line x1="4493.775" y1="3223.5352" x2="4631.2544" y2="3327.764" stroke="#84f07a" stroke-width="5.0" />
<line x1="4631.2544" y1="3327.764" x2="4783.7617" y2="3406.166" stroke="#84f07a" stroke-width="5.0" />
<line x1="4783.7617" y1="3406.166" x2="4729.772" y2="3574.9607" stroke="#83f07b" stroke-width="5.0" />
<line x1="4729.772" y1="3574.9607" x2="4643.4995" y2="3717.9282" stroke="#82f07c" stroke-width="5.0" />
<line x1="4643.4995" y1="3717.9282" x2="4556.6704" y2="3861.8174" stroke="#81f07d" stroke-width="5.0" />
<line x1="4556.6704" y1="3861.8174" x2="4532.7363" y2="3688.412" stroke="#81f07d" stroke-width="5.0" />
<line x1="4532.7363" y1="3688.412" x2="4410.285" y2="3807.3977" stroke="#80f07e" stroke-width="5.0" />
<line x1="4410.285" y1="3807.3977" x2="4502.68" y2="3945.7524" stroke="#80f07e" stroke-width="5.0" />
<line x1="4502.68" y1="3945.7524" x2="4350.729" y2="3876.575" stroke="#7ef080" stroke-width="5.0" />
<line x1="4350.729" y1="3876.575" x2="4324.0127" y2="3708.704" stroke="#7df081" stroke-width="5.0" />
<line x1="4324.0127" y1="3708.704" x2="4440.3413" y2="3574.9607" stroke="#7df081" stroke-width="5.0" />
<line x1="4440.3413" y1="3574.9607" x2="4601.1978" y2="3619.2344" stroke="#7cf082" stroke-width="5.0" />
<line x1="4601.1978" y1="3619.2344" x2="4535.5195" y2="3772.3477" stroke="#7bf083" stroke-width="5.0" />
<line x1="4535.5195" y1="3772.3477" x2="4613.443" y2="3920.8486" stroke="#7bf083" stroke-width="5.0" />
<line x1="4613.443" y1="3920.8486" x2="4705.8384" y2="3644.1384" stroke="#73f08b" stroke-width="5.0" stroke-dasharray="30 30"/>
<line x1="4705.8384" y1="3644.1384" x2="4774.8564" y2="3476.2668" stroke="#72f08c" stroke-width="5.0" />
<line x1="4774.8564" y1="3476.2668" x2="4873.374" y2="3327.764" stroke="#72f08c" stroke-width="5.0" />
<line x1="4873.374" y1="3327.764" x2="4944.6187" y2="3164.503" stroke="#72f08c" stroke-width="5.0" />
<line x1="4944.6187" y1="3164.503" x2="5031.4478" y2="3020.6108" stroke="#72f08c" stroke-width="5.0" />
<line x1="5031.4478" y1="3020.6108" x2="5132.7485" y2="2876.7188" stroke="#72f08c" stroke-width="5.0" />
<line x1="5132.7485" y1="2876.7188" x2="5219.5776" y2="2733.748" stroke="#72f08c" stroke-width="5.0" />
<line x1="5219.5776" y1="2733.748" x2="5353.718" y2="2629.5178" stroke="#71f08d" stroke-width="5.0" />
<line x1="5353.718" y1="2629.5178" x2="5526.8193" y2="2635.0522" stroke="#71f08d" stroke-width="5.0" />
<line x1="5526.8193" y1="2635.0522" x2="5685.4497" y2="2723.602" stroke="#70f08e" stroke-width="5.0" />
<line x1="5685.4497" y1="2723.602" x2="5861.335" y2="2718.9897" stroke="#6ff08f" stroke-width="5.0" />
<line x1="5861.335" y1="2718.9897" x2="6040.559" y2="2683.939" stroke="#6ff08f" stroke-width="5.0" />
<line x1="6040.559" y1="2683.939" x2="6145.199" y2="2540.9678" stroke="#6ff08f" stroke-width="5.0" />
<line x1="6145.199" y1="2540.9678" x2="6273.217" y2="2382.3154" stroke="#6ff08f" stroke-width="5.0" />
<line x1="6273.217" y1="2382.3154" x2="6891.5967" y2="2491.1584" stroke="#6ef090" stroke-width="5.0" stroke-dasharray="30 30"/>
<line x1="6891.5967" y1="2491.1584" x2="7046.887" y2="2589.8547" stroke="#6ef090" stroke-width="5.0" />
<line x1="7046.887" y1="2589.8547" x2="7348.5635" y2="2921.9155" stroke="#68f096" stroke-width="5.0" stroke-dasharray="30 30"/>
<line x1="7348.5635" y1="2921.9155" x2="8569.737" y2="5153.108" stroke="#3ef0c0" stroke-width="5.0" stroke-dasharray="30 30"/>
<line x1="8569.737" y1="5153.108" x2="8656.01" y2="5296.992" stroke="#3ef0c0" stroke-width="5.0" />
<line x1="8656.01" y1="5296.992" x2="8701.095" y2="5460.2446" stroke="#3af0c4" stroke-width="5.0" />
<line x1="8701.095" y1="5460.2446" x2="8530.775" y2="5435.342" stroke="#39f0c5" stroke-width="5.0" />
<line x1="8530.775" y1="5435.342" x2="8390.514" y2="5336.6523" stroke="#38f0c6" stroke-width="5.0" />
<line x1="8390.514" y1="5336.6523" x2="8303.684" y2="5192.7686" stroke="#37f0c7" stroke-width="5.0" />
<line x1="8303.684" y1="5192.7686" x2="8130.582" y2="5173.3994" stroke="#37f0c7" stroke-width="5.0" />
<line x1="8130.582" y1="5173.3994" x2="8014.2534" y2="5103.302" stroke="#35f0c9" stroke-width="5.0" stroke-dasharray="30 30"/>
<line x1="8014.2534" y1="5103.302" x2="7745.417" y2="3609.0884" stroke="#34f0ca" stroke-width="5.0" stroke-dasharray="30 30"/>
<line x1="7745.417" y1="3609.0884" x2="7670.833" y2="3461.5088" stroke="#34f0ca" stroke-width="5.0" />
<line x1="7670.833" y1="3461.5088" x2="7757.662" y2="3297.3254" stroke="#34f0ca" stroke-width="5.0" />
<line x1="7757.662" y1="3297.3254" x2="2777.228" y2="3372.0383" stroke="#2ef0d0" stroke-width="5.0" stroke-dasharray="30 30"/>
<line x1="2777.228" y1="3372.0383" x2="2696.5212" y2="3520.5405" stroke="#2ef0d0" stroke-width="5.0" />
<line x1="2696.5212" y1="3520.5405" x2="2532.3252" y2="3491.0244" stroke="#2ef0d0" stroke-width="5.0" />
<line x1="2532.3252" y1="3491.0244" x2="2430.4678" y2="3351.7458" stroke="#2af0d4" stroke-width="5.0" />
<line x1="2430.4678" y1="3351.7458" x2="2392.0627" y2="3179.2607" stroke="#29f0d5" stroke-width="5.0" />
<line x1="2392.0627" y1="3179.2607" x2="2331.9502" y2="3342.522" stroke="#21f0dd" stroke-width="5.0" />
<line x1="2331.9502" y1="3342.522" x2="2451.6184" y2="3470.7324" stroke="#1bf0e3" stroke-width="5.0" />
<line x1="2451.6184" y1="3470.7324" x2="2585.7588" y2="3570.3489" stroke="#14f0ea" stroke-width="5.0" />
<line x1="2585.7588" y1="3570.3489" x2="2690.399" y2="3406.166" stroke="#13f0eb" stroke-width="5.0" />
<line x1="2690.399" y1="3406.166" x2="2801.1619" y2="3282.5674" stroke="#13f0eb" stroke-width="5.0" />
<line x1="2801.1619" y1="3282.5674" x2="2896.34" y2="3139.5984" stroke="#13f0eb" stroke-width="5.0" />
<line x1="2896.34" y1="3139.5984" x2="3228.0718" y2="2694.0854" stroke="#13f0eb" stroke-width="5.0" stroke-dasharray="30 30"/>
<line x1="3228.0718" y1="2694.0854" x2="3410.0793" y2="2704.2314" stroke="#0ff0ef" stroke-width="5.0" />
<line x1="3410.0793" y1="2704.2314" x2="3523.6252" y2="2580.6309" stroke="#0ff0ef" stroke-width="5.0" />
<line x1="3523.6252" y1="2580.6309" x2="3544.2192" y2="2407.2202" stroke="#0ff0ef" stroke-width="5.0" />
<circle cx="4761.571" cy="3501.672" r="83.05749" stroke="#84f07a" stroke-width="10.0" fill="#00f" fill-opacity="0.1"/>
<circle cx="4684.703" cy="3718.709" r="124.58623" stroke="#83f07b" stroke-width="10.0" fill="#00f" fill-opacity="0.1"/>
<circle cx="5567.8374" cy="2673.7065" r="83.05749" stroke="#71f08d" stroke-width="10.0" fill="#00f" fill-opacity="0.1"/>
<circle cx="7188.049" cy="2673.2935" r="124.58623" stroke="#6ef090" stroke-width="10.0" fill="#f00" fill-opacity="0.1"/>
<circle cx="8353.449" cy="4922.7812" r="83.05749" stroke="#46f0b8" stroke-width="10.0" fill="#f00" fill-opacity="0.1"/>
<circle cx="8664.927" cy="5536.2695" r="166.11497" stroke="#3af0c4" stroke-width="10.0" fill="#0f0" fill-opacity="0.1"/>
<circle cx="7834.0947" cy="3423.6086" r="83.05749" stroke="#34f0ca" stroke-width="10.0" fill="#00f" fill-opacity="0.1"/>
<circle cx="2661.7896" cy="3568.2627" r="83.05749" stroke="#2ef0d0" stroke-width="10.0" fill="#00f" fill-opacity="0.1"/>
<circle cx="2531.0195" cy="3297.2402" r="124.58623" stroke="#29f0d5" stroke-width="10.0" fill="#0f0" fill-opacity="0.1"/>
<circle cx="2239.4146" cy="3465.7432" r="83.05749" stroke="#21f0dd" stroke-width="10.0" fill="#ff0" fill-opacity="0.1"/>
<circle cx="3575.1182" cy="2574.402" r="124.58623" stroke="#08f0f6" stroke-width="10.0" fill="#0f0" fill-opacity="0.1"/>
</svg>
