<?xml version="1.0" standalone="no"?>
<!DOCTYPE svg PUBLIC "-//W3C//DTD SVG 1.1//EN" "http://www.w3.org/Graphics/SVG/1.1/DTD/svg11.dtd">
<svg opacity="20%" width="30cm" height="30cm" version="1.1" viewBox="0 0 10000 10000" xmlns="http://www.w3.org/2000/svg" xmlns:xlink="http://www.w3.org/1999/xlink">
<desc>DrawTrails of automics data, Mon Aug 08 16:33:07 BST 2011</desc>
<filter id="desaturate"  primitiveUnits="objectBoundingBox">
<feImage x="0%" y="0%" width="100%" height="100%" xlink:href="altontowers-zoom15.png"/>
<feColorMatrix type="matrix" values="0.3333 0.3333 0.3333 0 0 0.3333 0.3333 0.3333 0 0 0.3333 0.3333 0.3333 0 0 0      0      0      1 0"/>
<feColorMatrix type="matrix" values="0.3 0 0 0 0.7 0 0.3 0 0 0.7 0 0 0.3 0 0.7 0      0      0      1 0"/>
</filter>
<rect x="-2643.7028285176257" y="-2643.7028285176257" width="15287.405657035251" height="15287.405657035251" filter="url(#desaturate)"/>
<line x1="3541.4365" y1="2421.9785" x2="3431.2302" y2="2283.6184" stroke="#b3f04b" stroke-width="5.0" />
<line x1="3431.2302" y1="2283.6184" x2="3290.4111" y2="2382.3154" stroke="#b2f04c" stroke-width="5.0" />
<line x1="3290.4111" y1="2382.3154" x2="3174.082" y2="2505.9167" stroke="#b1f04d" stroke-width="5.0" />
<line x1="3174.082" y1="2505.9167" x2="3087.8096" y2="2649.8105" stroke="#b1f04d" stroke-width="5.0" />
<line x1="3087.8096" y1="2649.8105" x2="3007.103" y2="2798.3157" stroke="#b1f04d" stroke-width="5.0" />
<line x1="3007.103" y1="2798.3157" x2="2803.9448" y2="3361.892" stroke="#b1f04d" stroke-width="5.0" stroke-dasharray="30 30"/>
<line x1="2803.9448" y1="3361.892" x2="2726.5776" y2="3510.3945" stroke="#b1f04d" stroke-width="5.0" />
<line x1="2726.5776" y1="3510.3945" x2="2663.6821" y2="3708.704" stroke="#b0f04e" stroke-width="5.0" />
<line x1="2663.6821" y1="3708.704" x2="2630.8428" y2="3876.575" stroke="#b0f04e" stroke-width="5.0" />
<line x1="2630.8428" y1="3876.575" x2="2604.1262" y2="4045.3677" stroke="#b0f04e" stroke-width="5.0" />
<line x1="2604.1262" y1="4045.3677" x2="1630.6373" y2="5207.5254" stroke="#aef050" stroke-width="5.0" stroke-dasharray="30 30"/>
<line x1="1630.6373" y1="5207.5254" x2="1481.4692" y2="5118.9814" stroke="#aef050" stroke-width="5.0" />
<line x1="1481.4692" y1="5118.9814" x2="1322.8389" y2="5192.7686" stroke="#aef050" stroke-width="5.0" />
<line x1="1322.8389" y1="5192.7686" x2="1176.4537" y2="5311.749" stroke="#aef050" stroke-width="5.0" />
<line x1="1176.4537" y1="5311.749" x2="1009.47455" y2="5360.633" stroke="#aef050" stroke-width="5.0" />
<line x1="1009.47455" y1="5360.633" x2="943.7961" y2="5519.2734" stroke="#aef050" stroke-width="5.0" />
<line x1="943.7961" y1="5519.2734" x2="1209.2931" y2="5593.982" stroke="#adf051" stroke-width="5.0" />
<line x1="1209.2931" y1="5593.982" x2="1266.0659" y2="5430.73" stroke="#adf051" stroke-width="5.0" />
<line x1="1266.0659" y1="5430.73" x2="1009.47455" y2="5385.536" stroke="#adf051" stroke-width="5.0" />
<line x1="1009.47455" y1="5385.536" x2="1027.2856" y2="5554.322" stroke="#adf051" stroke-width="5.0" />
<line x1="1027.2856" y1="5554.322" x2="1218.7551" y2="5563.545" stroke="#adf051" stroke-width="5.0" />
<line x1="1218.7551" y1="5563.545" x2="1101.8698" y2="5435.342" stroke="#adf051" stroke-width="5.0" />
<line x1="1101.8698" y1="5435.342" x2="1131.926" y2="5598.5938" stroke="#abf053" stroke-width="5.0" />
<line x1="1131.926" y1="5598.5938" x2="1293.3392" y2="5702.8164" stroke="#aaf054" stroke-width="5.0" />
<line x1="1293.3392" y1="5702.8164" x2="1466.441" y2="5736.9424" stroke="#aaf054" stroke-width="5.0" />
<line x1="1466.441" y1="5736.9424" x2="1624.5148" y2="5648.399" stroke="#a8f056" stroke-width="5.0" />
<line x1="1624.5148" y1="5648.399" x2="1657.354" y2="5479.614" stroke="#a8f056" stroke-width="5.0" />
<line x1="1657.354" y1="5479.614" x2="1582.7699" y2="5331.118" stroke="#a8f056" stroke-width="5.0" />
<line x1="1582.7699" y1="5331.118" x2="1716.9099" y2="5232.4287" stroke="#a7f057" stroke-width="5.0" />
<line x1="1716.9099" y1="5232.4287" x2="3368.3347" y2="6756.094" stroke="#a4f05a" stroke-width="5.0" stroke-dasharray="30 30"/>
<line x1="3368.3347" y1="6756.094" x2="3398.3909" y2="6924.875" stroke="#a4f05a" stroke-width="5.0" />
<line x1="3398.3909" y1="6924.875" x2="3410.0793" y2="7092.732" stroke="#a4f05a" stroke-width="5.0" />
<line x1="3410.0793" y1="7092.732" x2="3383.3628" y2="7275.3447" stroke="#a4f05a" stroke-width="5.0" />
<line x1="3383.3628" y1="7275.3447" x2="3550.3418" y2="7310.3916" stroke="#a4f05a" stroke-width="5.0" />
<line x1="3550.3418" y1="7310.3916" x2="3708.4155" y2="7255.977" stroke="#a4f05a" stroke-width="5.0" />
<line x1="3708.4155" y1="7255.977" x2="4529.953" y2="6954.3887" stroke="#a3f05b" stroke-width="5.0" stroke-dasharray="30 30"/>
<line x1="4529.953" y1="6954.3887" x2="4699.716" y2="6979.29" stroke="#a3f05b" stroke-width="5.0" />
<line x1="4699.716" y1="6979.29" x2="4876.1567" y2="7033.7056" stroke="#a2f05c" stroke-width="5.0" />
<line x1="4876.1567" y1="7033.7056" x2="5049.259" y2="7063.2188" stroke="#a2f05c" stroke-width="5.0" />
<line x1="5049.259" y1="7063.2188" x2="4771.5166" y2="7567.709" stroke="#8bf073" stroke-width="5.0" stroke-dasharray="30 30"/>
<line x1="4771.5166" y1="7567.709" x2="4547.7646" y2="7513.294" stroke="#86f078" stroke-width="5.0" />
<line x1="4547.7646" y1="7513.294" x2="4607.3203" y2="7350.05" stroke="#82f07c" stroke-width="5.0" />
<line x1="4607.3203" y1="7350.05" x2="4783.7617" y2="7354.662" stroke="#81f07d" stroke-width="5.0" />
<line x1="4783.7617" y1="7354.662" x2="4861.129" y2="7201.562" stroke="#81f07d" stroke-width="5.0" />
<line x1="4861.129" y1="7201.562" x2="4813.261" y2="7028.1714" stroke="#81f07d" stroke-width="5.0" />
<line x1="4813.261" y1="7028.1714" x2="4672.999" y2="6929.4863" stroke="#80f07e" stroke-width="5.0" />
<line x1="4672.999" y1="6929.4863" x2="4506.02" y2="6929.4863" stroke="#80f07e" stroke-width="5.0" />
<line x1="4506.02" y1="6929.4863" x2="4347.3896" y2="6979.29" stroke="#80f07e" stroke-width="5.0" />
<line x1="4347.3896" y1="6979.29" x2="4186.5327" y2="7028.1714" stroke="#80f07e" stroke-width="5.0" />
<line x1="4186.5327" y1="7028.1714" x2="3681.699" y2="6805.8984" stroke="#7df081" stroke-width="5.0" stroke-dasharray="30 30"/>
<line x1="3681.699" y1="6805.8984" x2="3523.6252" y2="6756.094" stroke="#7df081" stroke-width="5.0" />
<line x1="3523.6252" y1="6756.094" x2="3395.0513" y2="6875.071" stroke="#7df081" stroke-width="5.0" />
<line x1="3395.0513" y1="6875.071" x2="3386.1455" y2="7063.2188" stroke="#7df081" stroke-width="5.0" />
<line x1="3386.1455" y1="7063.2188" x2="3377.24" y2="7236.609" stroke="#7df081" stroke-width="5.0" />
<line x1="3377.24" y1="7236.609" x2="3302.656" y2="7384.175" stroke="#7cf082" stroke-width="5.0" />
<line x1="3302.656" y1="7384.175" x2="3257.5718" y2="7582.4653" stroke="#7cf082" stroke-width="5.0" />
<line x1="3257.5718" y1="7582.4653" x2="3156.271" y2="7716.196" stroke="#7cf082" stroke-width="5.0" />
<line x1="3156.271" y1="7716.196" x2="3224.7324" y2="7552.952" stroke="#6af094" stroke-width="5.0" />
<line x1="3224.7324" y1="7552.952" x2="3287.628" y2="7394.3203" stroke="#6af094" stroke-width="5.0" />
<line x1="3287.628" y1="7394.3203" x2="3272.5999" y2="7220.93" stroke="#6af094" stroke-width="5.0" />
<line x1="3272.5999" y1="7220.93" x2="3317.6843" y2="7038.3164" stroke="#6af094" stroke-width="5.0" />
<line x1="3317.6843" y1="7038.3164" x2="3299.873" y2="6860.3145" stroke="#6af094" stroke-width="5.0" />
<line x1="3299.873" y1="6860.3145" x2="3371.1177" y2="6662.0205" stroke="#6af094" stroke-width="5.0" />
<line x1="3371.1177" y1="6662.0205" x2="3302.656" y2="6444.3564" stroke="#6af094" stroke-width="5.0" />
<line x1="3302.656" y1="6444.3564" x2="4628.471" y2="3797.2515" stroke="#68f096" stroke-width="5.0" stroke-dasharray="30 30"/>
<line x1="4628.471" y1="3797.2515" x2="4475.9634" y2="3871.9631" stroke="#67f097" stroke-width="5.0" />
<line x1="4475.9634" y1="3871.9631" x2="4332.918" y2="3767.7358" stroke="#65f099" stroke-width="5.0" />
<line x1="4332.918" y1="3767.7358" x2="4398.5967" y2="3599.8645" stroke="#65f099" stroke-width="5.0" />
<line x1="4398.5967" y1="3599.8645" x2="4565.5757" y2="3609.0884" stroke="#64f09a" stroke-width="5.0" />
<line x1="4565.5757" y1="3609.0884" x2="4535.5195" y2="3782.494" stroke="#63f09b" stroke-width="5.0" />
<line x1="4535.5195" y1="3782.494" x2="4688.027" y2="3703.1702" stroke="#60f09e" stroke-width="5.0" />
<line x1="4688.027" y1="3703.1702" x2="4774.8564" y2="3525.1526" stroke="#60f09e" stroke-width="5.0" />
<line x1="4774.8564" y1="3525.1526" x2="4726.989" y2="3351.7458" stroke="#5ff09f" stroke-width="5.0" />
<line x1="4726.989" y1="3351.7458" x2="4562.7925" y2="3307.4717" stroke="#5ff09f" stroke-width="5.0" />
<line x1="4562.7925" y1="3307.4717" x2="4419.1904" y2="3208.777" stroke="#5ff09f" stroke-width="5.0" />
<line x1="4419.1904" y1="3208.777" x2="3738.472" y2="2679.3271" stroke="#5ff09f" stroke-width="5.0" stroke-dasharray="30 30"/>
<line x1="3738.472" y1="2679.3271" x2="3583.1812" y2="2600.0012" stroke="#5ff09f" stroke-width="5.0" />
<line x1="3583.1812" y1="2600.0012" x2="3505.8142" y2="2441.349" stroke="#5ef0a0" stroke-width="5.0" />
<line x1="3505.8142" y1="2441.349" x2="3517.5027" y2="2624.9058" stroke="#59f0a5" stroke-width="5.0" />
<line x1="3517.5027" y1="2624.9058" x2="3386.1455" y2="2738.3604" stroke="#59f0a5" stroke-width="5.0" />
<line x1="3386.1455" y1="2738.3604" x2="3219.1665" y2="2783.5574" stroke="#59f0a5" stroke-width="5.0" />
<line x1="3219.1665" y1="2783.5574" x2="3063.8757" y2="2867.4949" stroke="#59f0a5" stroke-width="5.0" />
<line x1="3063.8757" y1="2867.4949" x2="2812.8503" y2="3277.9556" stroke="#59f0a5" stroke-width="5.0" stroke-dasharray="30 30"/>
<line x1="2812.8503" y1="3277.9556" x2="2726.5776" y2="3426.4585" stroke="#59f0a5" stroke-width="5.0" />
<line x1="2726.5776" y1="3426.4585" x2="2628.06" y2="3564.8145" stroke="#58f0a6" stroke-width="5.0" />
<line x1="2628.06" y1="3564.8145" x2="2463.8638" y2="3495.6367" stroke="#58f0a6" stroke-width="5.0" />
<line x1="2463.8638" y1="3495.6367" x2="2580.1926" y2="3614.6226" stroke="#58f0a6" stroke-width="5.0" />
<line x1="2580.1926" y1="3614.6226" x2="2478.3352" y2="3480.8787" stroke="#56f0a8" stroke-width="5.0" />
<line x1="2478.3352" y1="3480.8787" x2="2481.6748" y2="3673.6543" stroke="#54f0aa" stroke-width="5.0" />
<line x1="2481.6748" y1="3673.6543" x2="2341.412" y2="3585.107" stroke="#4df0b1" stroke-width="5.0" />
<line x1="2341.412" y1="3585.107" x2="2230.6494" y2="3455.9744" stroke="#4af0b4" stroke-width="5.0" />
<line x1="2230.6494" y1="3455.9744" x2="2392.0627" y2="3539.9102" stroke="#4af0b4" stroke-width="5.0" />
<line x1="2392.0627" y1="3539.9102" x2="2544.0137" y2="3673.6543" stroke="#4af0b4" stroke-width="5.0" />
<line x1="2544.0137" y1="3673.6543" x2="2693.7383" y2="3579.5725" stroke="#4af0b4" stroke-width="5.0" />
<line x1="2693.7383" y1="3579.5725" x2="2457.7412" y2="3466.1206" stroke="#4af0b4" stroke-width="5.0" />
<line x1="2457.7412" y1="3466.1206" x2="2457.7412" y2="3669.0425" stroke="#4af0b4" stroke-width="5.0" />
<line x1="2457.7412" y1="3669.0425" x2="2284.6392" y2="3594.3306" stroke="#4af0b4" stroke-width="5.0" />
<line x1="2284.6392" y1="3594.3306" x2="2251.8" y2="3431.0703" stroke="#49f0b5" stroke-width="5.0" />
<line x1="2251.8" y1="3431.0703" x2="2490.5806" y2="3342.522" stroke="#47f0b7" stroke-width="5.0" stroke-dasharray="30 30"/>
<line x1="2490.5806" y1="3342.522" x2="2559.042" y2="3495.6367" stroke="#46f0b8" stroke-width="5.0" />
<line x1="2559.042" y1="3495.6367" x2="2648.6543" y2="3639.5266" stroke="#46f0b8" stroke-width="5.0" />
<line x1="2648.6543" y1="3639.5266" x2="2729.3606" y2="3788.0278" stroke="#46f0b8" stroke-width="5.0" />
<line x1="2729.3606" y1="3788.0278" x2="2771.1055" y2="3951.2866" stroke="#46f0b8" stroke-width="5.0" />
<circle cx="2640.1306" cy="3559.277" r="83.05749" stroke="#b0f04e" stroke-width="10.0" fill="#00f" fill-opacity="0.1"/>
<circle cx="1325.7112" cy="5174.756" r="83.05749" stroke="#aef050" stroke-width="10.0" fill="#00f" fill-opacity="0.1"/>
<circle cx="943.0077" cy="5545.0264" r="166.11497" stroke="#aef050" stroke-width="10.0" fill="#f00" fill-opacity="0.1"/>
<circle cx="1594.9232" cy="5752.771" r="124.58623" stroke="#aaf054" stroke-width="10.0" fill="#ff0" fill-opacity="0.1"/>
<circle cx="1481.7522" cy="5405.1875" r="207.64372" stroke="#a8f056" stroke-width="10.0" fill="#00f" fill-opacity="0.1"/>
<circle cx="4782.3174" cy="7016.583" r="83.05749" stroke="#a3f05b" stroke-width="10.0" fill="#00f" fill-opacity="0.1"/>
<circle cx="4882.2603" cy="7512.7285" r="124.58623" stroke="#98f066" stroke-width="10.0" fill="#f00" fill-opacity="0.1"/>
<circle cx="4671.1226" cy="7339.3643" r="41.528744" stroke="#82f07c" stroke-width="10.0" fill="#ff0" fill-opacity="0.1"/>
<circle cx="4690.243" cy="3723.861" r="124.58623" stroke="#68f096" stroke-width="10.0" fill="#00f" fill-opacity="0.1"/>
<circle cx="4768.6294" cy="3482.8408" r="83.05749" stroke="#60f09e" stroke-width="10.0" fill="#00f" fill-opacity="0.1"/>
<circle cx="3614.4814" cy="2552.671" r="124.58623" stroke="#59f0a5" stroke-width="10.0" fill="#0f0" fill-opacity="0.1"/>
<circle cx="2526.436" cy="3665.6628" r="83.05749" stroke="#58f0a6" stroke-width="10.0" fill="#f00" fill-opacity="0.1"/>
<circle cx="2280.717" cy="3449.2124" r="83.05749" stroke="#4cf0b2" stroke-width="10.0" fill="#ff0" fill-opacity="0.1"/>
</svg>
