<?xml version="1.0" standalone="no"?>
<!DOCTYPE svg PUBLIC "-//W3C//DTD SVG 1.1//EN" "http://www.w3.org/Graphics/SVG/1.1/DTD/svg11.dtd">
<svg opacity="20%" width="30cm" height="30cm" version="1.1" viewBox="0 0 10000 10000" xmlns="http://www.w3.org/2000/svg" xmlns:xlink="http://www.w3.org/1999/xlink">
<desc>DrawTrails of automics data, Mon Jul 25 14:51:47 BST 2011</desc>
<filter id="desaturate"  primitiveUnits="objectBoundingBox">
<feImage x="0%" y="0%" width="100%" height="100%" xlink:href="altontowers-zoom15.png"/>
<feColorMatrix type="matrix" values="0.3333 0.3333 0.3333 0 0 0.3333 0.3333 0.3333 0 0 0.3333 0.3333 0.3333 0 0 0      0      0      1 0"/>
<feColorMatrix type="matrix" values="0.05 0 0 0 0 0 0.05 0 0 0 0 0 0.05 0 0 0      0      0      1 0"/>
</filter>
<rect x="-2643.7028285176257" y="-2643.7028285176257" width="15287.405657035251" height="15287.405657035251" filter="url(#desaturate)"/>
<line x1="3511.38" y1="2481.0122" x2="3622.143" y2="2635.0522" stroke="#85f079" stroke-width="5.0" />
<line x1="3622.143" y1="2635.0522" x2="3774.0942" y2="2708.8438" stroke="#85f079" stroke-width="5.0" />
<line x1="3774.0942" y1="2708.8438" x2="3920.479" y2="2802.9275" stroke="#85f079" stroke-width="5.0" />
<line x1="3920.479" y1="2802.9275" x2="4538.859" y2="3233.6814" stroke="#84f07a" stroke-width="5.0" stroke-dasharray="30 30"/>
<line x1="4538.859" y1="3233.6814" x2="4655.188" y2="3367.4263" stroke="#84f07a" stroke-width="5.0" />
<line x1="4655.188" y1="3367.4263" x2="4798.2334" y2="3461.5088" stroke="#84f07a" stroke-width="5.0" />
<line x1="4798.2334" y1="3461.5088" x2="4723.6494" y2="3644.1384" stroke="#83f07b" stroke-width="5.0" />
<line x1="4723.6494" y1="3644.1384" x2="4628.471" y2="3782.494" stroke="#81f07d" stroke-width="5.0" />
<line x1="4628.471" y1="3782.494" x2="4526.614" y2="3926.3828" stroke="#81f07d" stroke-width="5.0" />
<line x1="4526.614" y1="3926.3828" x2="4595.632" y2="3822.1555" stroke="#7df081" stroke-width="5.0" stroke-dasharray="30 30"/>
<line x1="4595.632" y1="3822.1555" x2="4640.1597" y2="3658.8965" stroke="#7df081" stroke-width="5.0" />
<line x1="4640.1597" y1="3658.8965" x2="4643.4995" y2="3826.7673" stroke="#7cf082" stroke-width="5.0" />
<line x1="4643.4995" y1="3826.7673" x2="4550.5474" y2="3995.56" stroke="#73f08b" stroke-width="5.0" />
<line x1="4550.5474" y1="3995.56" x2="4586.7266" y2="3826.7673" stroke="#73f08b" stroke-width="5.0" />
<line x1="4586.7266" y1="3826.7673" x2="4646.282" y2="3669.0425" stroke="#73f08b" stroke-width="5.0" />
<line x1="4646.282" y1="3669.0425" x2="4762.6113" y2="3525.1526" stroke="#73f08b" stroke-width="5.0" />
<line x1="4762.6113" y1="3525.1526" x2="4825.507" y2="3367.4263" stroke="#73f08b" stroke-width="5.0" />
<line x1="4825.507" y1="3367.4263" x2="4911.7793" y2="3213.389" stroke="#72f08c" stroke-width="5.0" />
<line x1="4911.7793" y1="3213.389" x2="5004.731" y2="3060.2734" stroke="#72f08c" stroke-width="5.0" />
<line x1="5004.731" y1="3060.2734" x2="5091.004" y2="2911.7695" stroke="#72f08c" stroke-width="5.0" />
<line x1="5091.004" y1="2911.7695" x2="5177.8325" y2="2767.8765" stroke="#72f08c" stroke-width="5.0" />
<line x1="5177.8325" y1="2767.8765" x2="5279.134" y2="2635.0522" stroke="#72f08c" stroke-width="5.0" />
<line x1="5279.134" y1="2635.0522" x2="5446.6694" y2="2624.9058" stroke="#72f08c" stroke-width="5.0" />
<line x1="5446.6694" y1="2624.9058" x2="5604.743" y2="2679.3271" stroke="#70f08e" stroke-width="5.0" />
<line x1="5604.743" y1="2679.3271" x2="5768.9395" y2="2713.4556" stroke="#70f08e" stroke-width="5.0" />
<line x1="5768.9395" y1="2713.4556" x2="5939.2583" y2="2674.7148" stroke="#70f08e" stroke-width="5.0" />
<line x1="5939.2583" y1="2674.7148" x2="6231.472" y2="2402.6082" stroke="#6ff08f" stroke-width="5.0" stroke-dasharray="30 30"/>
<line x1="6231.472" y1="2402.6082" x2="6891.5967" y2="2511.4512" stroke="#6ef090" stroke-width="5.0" stroke-dasharray="30 30"/>
<line x1="6891.5967" y1="2511.4512" x2="7025.737" y2="2614.7595" stroke="#6ef090" stroke-width="5.0" />
<line x1="7025.737" y1="2614.7595" x2="7226.1113" y2="2476.4001" stroke="#4af0b4" stroke-width="5.0" stroke-dasharray="30 30"/>
<line x1="7226.1113" y1="2476.4001" x2="7360.2515" y2="2575.0964" stroke="#4af0b4" stroke-width="5.0" />
<line x1="7360.2515" y1="2575.0964" x2="7419.807" y2="2738.3604" stroke="#4af0b4" stroke-width="5.0" />
<line x1="7419.807" y1="2738.3604" x2="7560.627" y2="2842.5903" stroke="#49f0b5" stroke-width="5.0" />
<line x1="7560.627" y1="2842.5903" x2="7769.3506" y2="3663.5083" stroke="#48f0b6" stroke-width="5.0" stroke-dasharray="30 30"/>
<line x1="7769.3506" y1="3663.5083" x2="7820.001" y2="3822.1555" stroke="#48f0b6" stroke-width="5.0" />
<line x1="7820.001" y1="3822.1555" x2="8315.93" y2="5167.8657" stroke="#47f0b7" stroke-width="5.0" stroke-dasharray="30 30"/>
<line x1="8315.93" y1="5167.8657" x2="8321.495" y2="4994.466" stroke="#46f0b8" stroke-width="5.0" />
<line x1="8321.495" y1="4994.466" x2="8261.939" y2="4801.6963" stroke="#46f0b8" stroke-width="5.0" />
<line x1="8261.939" y1="4801.6963" x2="8411.107" y2="4688.248" stroke="#46f0b8" stroke-width="5.0" />
<line x1="8411.107" y1="4688.248" x2="8584.766" y2="4722.375" stroke="#45f0b9" stroke-width="5.0" />
<line x1="8584.766" y1="4722.375" x2="8345.429" y2="5000.0" stroke="#44f0ba" stroke-width="5.0" />
<line x1="8345.429" y1="5000.0" x2="8509.625" y2="5073.787" stroke="#42f0bc" stroke-width="5.0" />
<line x1="8509.625" y1="5073.787" x2="8683.283" y2="5064.5635" stroke="#41f0bd" stroke-width="5.0" />
<line x1="8683.283" y1="5064.5635" x2="8808.518" y2="5202.914" stroke="#3ef0c0" stroke-width="5.0" />
<line x1="8808.518" y1="5202.914" x2="8880.319" y2="5356.021" stroke="#3ef0c0" stroke-width="5.0" />
<line x1="8880.319" y1="5356.021" x2="8853.046" y2="5188.1567" stroke="#3ef0c0" stroke-width="5.0" />
<line x1="8853.046" y1="5188.1567" x2="8766.773" y2="5044.272" stroke="#3cf0c2" stroke-width="5.0" />
<line x1="8766.773" y1="5044.272" x2="8730.595" y2="4881.018" stroke="#3cf0c2" stroke-width="5.0" />
<line x1="8730.595" y1="4881.018" x2="8458.975" y2="5272.0894" stroke="#3bf0c3" stroke-width="5.0" stroke-dasharray="30 30"/>
<line x1="8458.975" y1="5272.0894" x2="8721.688" y2="5331.118" stroke="#3bf0c3" stroke-width="5.0" />
<line x1="8721.688" y1="5331.118" x2="8930.969" y2="5261.9434" stroke="#3bf0c3" stroke-width="5.0" />
<line x1="8930.969" y1="5261.9434" x2="9097.948" y2="5286.846" stroke="#3bf0c3" stroke-width="5.0" />
<line x1="9097.948" y1="5286.846" x2="8880.319" y2="5583.836" stroke="#3bf0c3" stroke-width="5.0" stroke-dasharray="30 30"/>
<line x1="8880.319" y1="5583.836" x2="8823.546" y2="5420.584" stroke="#3bf0c3" stroke-width="5.0" />
<line x1="8823.546" y1="5420.584" x2="8635.416" y2="5316.3613" stroke="#3bf0c3" stroke-width="5.0" />
<line x1="8635.416" y1="5316.3613" x2="8688.85" y2="5479.614" stroke="#3bf0c3" stroke-width="5.0" />
<line x1="8688.85" y1="5479.614" x2="8545.804" y2="5391.07" stroke="#39f0c5" stroke-width="5.0" />
<line x1="8545.804" y1="5391.07" x2="8381.607" y2="5296.992" stroke="#38f0c6" stroke-width="5.0" />
<line x1="8381.607" y1="5296.992" x2="8232.439" y2="5213.0596" stroke="#38f0c6" stroke-width="5.0" />
<line x1="8232.439" y1="5213.0596" x2="8079.932" y2="5142.962" stroke="#37f0c7" stroke-width="5.0" />
<line x1="8079.932" y1="5142.962" x2="7945.792" y2="5044.272" stroke="#35f0c9" stroke-width="5.0" />
<line x1="7945.792" y1="5044.272" x2="7772.134" y2="3683.8003" stroke="#34f0ca" stroke-width="5.0" stroke-dasharray="30 30"/>
<line x1="7772.134" y1="3683.8003" x2="7683.078" y2="3530.6865" stroke="#34f0ca" stroke-width="5.0" />
<line x1="7683.078" y1="3530.6865" x2="7748.757" y2="3376.6501" stroke="#34f0ca" stroke-width="5.0" />
<line x1="7748.757" y1="3376.6501" x2="7664.71" y2="2991.0947" stroke="#33f0cb" stroke-width="5.0" />
<line x1="7664.71" y1="2991.0947" x2="7267.8564" y2="2555.726" stroke="#33f0cb" stroke-width="5.0" stroke-dasharray="30 30"/>
<line x1="7267.8564" y1="2555.726" x2="7100.3203" y2="2595.3892" stroke="#33f0cb" stroke-width="5.0" />
<line x1="7100.3203" y1="2595.3892" x2="6951.1523" y2="2520.6753" stroke="#33f0cb" stroke-width="5.0" />
<line x1="6951.1523" y1="2520.6753" x2="6861.54" y2="2372.169" stroke="#33f0cb" stroke-width="5.0" />
<line x1="6861.54" y1="2372.169" x2="5942.041" y2="2644.2761" stroke="#32f0cc" stroke-width="5.0" stroke-dasharray="30 30"/>
<line x1="5942.041" y1="2644.2761" x2="5766.1567" y2="2649.8105" stroke="#32f0cc" stroke-width="5.0" />
<line x1="5766.1567" y1="2649.8105" x2="5595.8374" y2="2639.664" stroke="#31f0cd" stroke-width="5.0" />
<line x1="5595.8374" y1="2639.664" x2="5425.5186" y2="2659.0344" stroke="#31f0cd" stroke-width="5.0" />
<line x1="5425.5186" y1="2659.0344" x2="5288.039" y2="2758.6526" stroke="#31f0cd" stroke-width="5.0" />
<line x1="5288.039" y1="2758.6526" x2="5192.861" y2="2901.6233" stroke="#31f0cd" stroke-width="5.0" />
<line x1="5192.861" y1="2901.6233" x2="5061.504" y2="3030.757" stroke="#31f0cd" stroke-width="5.0" />
<line x1="5061.504" y1="3030.757" x2="4939.0522" y2="3149.7449" stroke="#31f0cd" stroke-width="5.0" />
<line x1="4939.0522" y1="3149.7449" x2="4867.2515" y2="3313.0059" stroke="#31f0cd" stroke-width="5.0" />
<line x1="4867.2515" y1="3313.0059" x2="4690.81" y2="3273.3438" stroke="#30f0ce" stroke-width="5.0" />
<line x1="4690.81" y1="3273.3438" x2="4526.614" y2="3218.9233" stroke="#30f0ce" stroke-width="5.0" />
<line x1="4526.614" y1="3218.9233" x2="4401.3794" y2="3104.548" stroke="#30f0ce" stroke-width="5.0" />
<line x1="4401.3794" y1="3104.548" x2="3613.2373" y2="2932.062" stroke="#2ff0cf" stroke-width="5.0" stroke-dasharray="30 30"/>
<line x1="3613.2373" y1="2932.062" x2="3427.8906" y2="2926.5278" stroke="#2ff0cf" stroke-width="5.0" />
<line x1="3427.8906" y1="2926.5278" x2="3257.5718" y2="2980.9485" stroke="#2ff0cf" stroke-width="5.0" />
<line x1="3257.5718" y1="2980.9485" x2="2717.1155" y2="3466.1206" stroke="#2ff0cf" stroke-width="5.0" stroke-dasharray="30 30"/>
<line x1="2717.1155" y1="3466.1206" x2="2535.1082" y2="3455.9744" stroke="#2ef0d0" stroke-width="5.0" />
<line x1="2535.1082" y1="3455.9744" x2="2439.93" y2="3317.6177" stroke="#2af0d4" stroke-width="5.0" />
<line x1="2439.93" y1="3317.6177" x2="2299.1108" y2="3228.147" stroke="#28f0d6" stroke-width="5.0" />
<line x1="2299.1108" y1="3228.147" x2="2210.0552" y2="3382.1846" stroke="#21f0dd" stroke-width="5.0" />
<line x1="2210.0552" y1="3382.1846" x2="2370.9119" y2="3461.5088" stroke="#1bf0e3" stroke-width="5.0" />
<line x1="2370.9119" y1="3461.5088" x2="2493.3633" y2="3347.134" stroke="#17f0e7" stroke-width="5.0" />
<line x1="2493.3633" y1="3347.134" x2="2574.07" y2="3505.7825" stroke="#14f0ea" stroke-width="5.0" />
<line x1="2574.07" y1="3505.7825" x2="2729.3606" y2="3441.2163" stroke="#14f0ea" stroke-width="5.0" />
<line x1="2729.3606" y1="3441.2163" x2="2812.8503" y2="3297.3254" stroke="#14f0ea" stroke-width="5.0" />
<line x1="2812.8503" y1="3297.3254" x2="2887.4343" y2="3149.7449" stroke="#13f0eb" stroke-width="5.0" />
<line x1="2887.4343" y1="3149.7449" x2="3257.5718" y2="2733.748" stroke="#10f0ee" stroke-width="5.0" stroke-dasharray="30 30"/>
<line x1="3257.5718" y1="2733.748" x2="3421.7678" y2="2704.2314" stroke="#0ff0ef" stroke-width="5.0" />
<line x1="3421.7678" y1="2704.2314" x2="3481.8804" y2="2545.5798" stroke="#0ff0ef" stroke-width="5.0" />
<circle cx="4789.53" cy="3495.0876" r="83.05749" stroke="#84f07a" stroke-width="10.0" fill="#00f" fill-opacity="0.1"/>
<circle cx="4702.985" cy="3741.035" r="124.58623" stroke="#83f07b" stroke-width="10.0" fill="#00f" fill-opacity="0.1"/>
<circle cx="5600.41" cy="2679.1343" r="83.05749" stroke="#72f08c" stroke-width="10.0" fill="#00f" fill-opacity="0.1"/>
<circle cx="7219.6265" cy="2683.9878" r="124.58623" stroke="#6ef090" stroke-width="10.0" fill="#f00" fill-opacity="0.1"/>
<circle cx="7872.797" cy="3396.0352" r="83.05749" stroke="#49f0b5" stroke-width="10.0" fill="#00f" fill-opacity="0.1"/>
<circle cx="8352.523" cy="4957.6" r="83.05749" stroke="#47f0b7" stroke-width="10.0" fill="#f00" fill-opacity="0.1"/>
<circle cx="2656.1968" cy="3578.922" r="83.05749" stroke="#2ff0cf" stroke-width="10.0" fill="#00f" fill-opacity="0.1"/>
<circle cx="2517.8445" cy="3314.9888" r="124.58623" stroke="#29f0d5" stroke-width="10.0" fill="#0f0" fill-opacity="0.1"/>
<circle cx="2284.2563" cy="3427.105" r="83.05749" stroke="#21f0dd" stroke-width="10.0" fill="#ff0" fill-opacity="0.1"/>
</svg>
