<?xml version="1.0" standalone="no"?>
<!DOCTYPE svg PUBLIC "-//W3C//DTD SVG 1.1//EN" "http://www.w3.org/Graphics/SVG/1.1/DTD/svg11.dtd">
<svg opacity="20%" width="30cm" height="30cm" version="1.1" viewBox="0 0 1000 1000" xmlns="http://www.w3.org/2000/svg" xmlns:xlink="http://www.w3.org/1999/xlink">
<desc>DrawTrails of automics data, Mon Jul 25 12:28:30 BST 2011</desc>
<filter id="desaturate"  primitiveUnits="objectBoundingBox">
<feImage x="0%" y="0%" width="100%" height="100%" xlink:href="altontowers-zoom15.png"/>
<feColorMatrix type="matrix" values="0.3333 0.3333 0.3333 0 0 0.3333 0.3333 0.3333 0 0 0.3333 0.3333 0.3333 0 0 0      0      0      1 0"/>
<feColorMatrix type="matrix" values="0.1 0 0 0 0 0 0.1 0 0 0 0 0 0.1 0 0 0      0      0      1 0"/>
</filter>
<rect x="-264.37028285176257" y="-264.37028285176257" width="1528.7405657035251" height="1528.7405657035251" filter="url(#desaturate)"/>
<circle cx="133.5084" cy="517.33997" r="8.305749" stroke="#00f" stroke-width="0.0" fill="#00f"  fill-opacity="15%" stroke-opacity="20%"/>
<circle cx="140.07626" cy="523.24286" r="8.305749" stroke="#0f0" stroke-width="0.0" fill="#0f0"  fill-opacity="15%" stroke-opacity="20%"/>
<circle cx="96.494675" cy="554.4176" r="16.611498" stroke="#f00" stroke-width="0.0" fill="#f00"  fill-opacity="15%" stroke-opacity="20%"/>
<circle cx="345.1824" cy="681.051" r="12.458623" stroke="#0f0" stroke-width="0.0" fill="#0f0"  fill-opacity="15%" stroke-opacity="20%"/>
<circle cx="338.61456" cy="751.3294" r="8.305749" stroke="#f00" stroke-width="0.0" fill="#f00"  fill-opacity="15%" stroke-opacity="20%"/>
<circle cx="293.53018" cy="737.4952" r="8.305749" stroke="#00f" stroke-width="0.0" fill="#00f"  fill-opacity="15%" stroke-opacity="20%"/>
<circle cx="455.3887" cy="684.5557" r="8.305749" stroke="#0f0" stroke-width="0.0" fill="#0f0"  fill-opacity="15%" stroke-opacity="20%"/>
<circle cx="476.53943" cy="703.37054" r="8.305749" stroke="#00f" stroke-width="0.0" fill="#00f"  fill-opacity="15%" stroke-opacity="20%"/>
<circle cx="464.62823" cy="735.005" r="4.1528745" stroke="#ff0" stroke-width="0.0" fill="#ff0"  fill-opacity="15%" stroke-opacity="20%"/>
<circle cx="489.11853" cy="751.3294" r="12.458623" stroke="#f00" stroke-width="0.0" fill="#f00"  fill-opacity="15%" stroke-opacity="20%"/>
<circle cx="476.87338" cy="348.54904" r="8.305749" stroke="#00f" stroke-width="0.0" fill="#00f"  fill-opacity="15%" stroke-opacity="20%"/>
<circle cx="469.69327" cy="372.34622" r="12.458623" stroke="#00f" stroke-width="0.0" fill="#00f"  fill-opacity="15%" stroke-opacity="20%"/>
<circle cx="509.71262" cy="326.78094" r="12.458623" stroke="#0f0" stroke-width="0.0" fill="#0f0"  fill-opacity="15%" stroke-opacity="20%"/>
<circle cx="485.8346" cy="337.665" r="12.458623" stroke="#0f0" stroke-width="0.0" fill="#0f0"  fill-opacity="15%" stroke-opacity="20%"/>
<circle cx="477.15167" cy="314.9745" r="31.561846" stroke="#0f0" stroke-width="0.0" fill="#0f0"  fill-opacity="15%" stroke-opacity="20%"/>
<circle cx="508.4881" cy="326.31976" r="5.814024" stroke="#0f0" stroke-width="0.0" fill="#0f0"  fill-opacity="15%" stroke-opacity="20%"/>
<circle cx="525.52" cy="275.31186" r="16.611498" stroke="#0f0" stroke-width="0.0" fill="#0f0"  fill-opacity="15%" stroke-opacity="20%"/>
<circle cx="785.00574" cy="340.6166" r="8.305749" stroke="#00f" stroke-width="0.0" fill="#00f"  fill-opacity="15%" stroke-opacity="20%"/>
<circle cx="719.6055" cy="269.40854" r="12.458623" stroke="#f00" stroke-width="0.0" fill="#f00"  fill-opacity="15%" stroke-opacity="20%"/>
<circle cx="773.92944" cy="347.07324" r="16.611498" stroke="#0f0" stroke-width="0.0" fill="#0f0"  fill-opacity="15%" stroke-opacity="20%"/>
<circle cx="867.38214" cy="552.9419" r="16.611498" stroke="#0f0" stroke-width="0.0" fill="#0f0"  fill-opacity="15%" stroke-opacity="20%"/>
<circle cx="854.8587" cy="535.6021" r="8.305749" stroke="#0f0" stroke-width="0.0" fill="#0f0"  fill-opacity="15%" stroke-opacity="20%"/>
<circle cx="875.4528" cy="586.0533" r="16.611498" stroke="#0f0" stroke-width="0.0" fill="#0f0"  fill-opacity="15%" stroke-opacity="20%"/>
<circle cx="924.4334" cy="596.47546" r="12.458623" stroke="#00f" stroke-width="0.0" fill="#00f"  fill-opacity="15%" stroke-opacity="20%"/>
<circle cx="923.2645" cy="665.74084" r="16.611498" stroke="#f00" stroke-width="0.0" fill="#f00"  fill-opacity="15%" stroke-opacity="20%"/>
<circle cx="903.8393" cy="610.77136" r="20.764372" stroke="#0f0" stroke-width="0.0" fill="#0f0"  fill-opacity="15%" stroke-opacity="20%"/>
<circle cx="359.54263" cy="318.3873" r="20.764372" stroke="#00f" stroke-width="0.0" fill="#00f"  fill-opacity="15%" stroke-opacity="20%"/>
<circle cx="226.34886" cy="344.12164" r="8.305749" stroke="#ff0" stroke-width="0.0" fill="#ff0"  fill-opacity="15%" stroke-opacity="20%"/>
<circle cx="641.40356" cy="276.32648" r="16.611498" stroke="#f00" stroke-width="0.0" fill="#f00"  fill-opacity="15%" stroke-opacity="20%"/>
<circle cx="671.2372" cy="267.9327" r="8.305749" stroke="#ff0" stroke-width="0.0" fill="#ff0"  fill-opacity="15%" stroke-opacity="20%"/>
<circle cx="157.99869" cy="573.23303" r="12.458623" stroke="#ff0" stroke-width="0.0" fill="#ff0"  fill-opacity="15%" stroke-opacity="20%"/>
<circle cx="149.82428" cy="539.25085" r="20.764372" stroke="#00f" stroke-width="0.0" fill="#00f"  fill-opacity="15%" stroke-opacity="20%"/>
<circle cx="251.71518" cy="330.64572" r="12.458623" stroke="#0f0" stroke-width="0.0" fill="#0f0"  fill-opacity="15%" stroke-opacity="20%"/>
<circle cx="359.60352" cy="255.17506" r="12.458623" stroke="#0f0" stroke-width="0.0" fill="#0f0"  fill-opacity="15%" stroke-opacity="20%"/>
<circle cx="314.50912" cy="246.0009" r="12.458623" stroke="#0f0" stroke-width="0.0" fill="#0f0"  fill-opacity="15%" stroke-opacity="20%"/>
<circle cx="263.69656" cy="357.95724" r="8.305749" stroke="#00f" stroke-width="0.0" fill="#00f"  fill-opacity="15%" stroke-opacity="20%"/>
<circle cx="290.08868" cy="395.56955" r="8.305749" stroke="#0f0" stroke-width="0.0" fill="#0f0"  fill-opacity="15%" stroke-opacity="20%"/>
<circle cx="557.8027" cy="268.94733" r="8.305749" stroke="#00f" stroke-width="0.0" fill="#00f"  fill-opacity="15%" stroke-opacity="20%"/>
<circle cx="833.09576" cy="494.5582" r="8.305749" stroke="#f00" stroke-width="0.0" fill="#f00"  fill-opacity="15%" stroke-opacity="20%"/>
<circle cx="253.23251" cy="365.42844" r="8.305749" stroke="#f00" stroke-width="0.0" fill="#f00"  fill-opacity="15%" stroke-opacity="20%"/>
<line x1="347.8541" y1="266.45688" x2="331.43445" y2="277.3411" stroke="#9cf062" stroke-width="0.5" />
<line x1="331.43445" y1="277.3411" x2="314.73654" y2="280.75394" stroke="#9cf062" stroke-width="0.5" />
<line x1="314.73654" y1="280.75394" x2="280.39447" y2="332.223" stroke="#9bf063" stroke-width="0.5" stroke-dasharray="3 3"/>
<line x1="280.39447" y1="332.223" x2="274.10492" y2="348.08786" stroke="#9bf063" stroke-width="0.5" />
<line x1="274.10492" y1="348.08786" x2="270.2644" y2="364.41385" stroke="#9bf063" stroke-width="0.5" />
<line x1="270.2644" y1="364.41385" x2="267.53708" y2="384.24475" stroke="#9bf063" stroke-width="0.5" />
<line x1="267.53708" y1="384.24475" x2="265.1437" y2="401.0318" stroke="#9bf063" stroke-width="0.5" />
<line x1="265.1437" y1="401.0318" x2="258.90982" y2="416.8964" stroke="#9bf063" stroke-width="0.5" />
<line x1="258.90982" y1="416.8964" x2="159.7798" y2="521.30597" stroke="#99f065" stroke-width="0.5" stroke-dasharray="3 3"/>
<line x1="159.7798" y1="521.30597" x2="143.02623" y2="515.772" stroke="#99f065" stroke-width="0.5" />
<line x1="143.02623" y1="515.772" x2="128.1094" y2="525.17975" stroke="#99f065" stroke-width="0.5" />
<line x1="128.1094" y1="525.17975" x2="111.68979" y2="534.1264" stroke="#98f066" stroke-width="0.5" />
<line x1="111.68979" y1="534.1264" x2="94.657906" y2="537.6312" stroke="#98f066" stroke-width="0.5" />
<line x1="94.657906" y1="537.6312" x2="95.54846" y2="554.8788" stroke="#98f066" stroke-width="0.5" />
<line x1="95.54846" y1="554.8788" x2="116.476524" y2="558.3836" stroke="#98f066" stroke-width="0.5" />
<line x1="116.476524" y1="558.3836" x2="131.39334" y2="550.4516" stroke="#98f066" stroke-width="0.5" />
<line x1="131.39334" y1="550.4516" x2="119.76045" y2="538.5536" stroke="#98f066" stroke-width="0.5" />
<line x1="119.76045" y1="538.5536" x2="103.06252" y2="542.0584" stroke="#97f067" stroke-width="0.5" />
<line x1="103.06252" y1="542.0584" x2="126.6066" y2="558.8448" stroke="#97f067" stroke-width="0.5" />
<line x1="126.6066" y1="558.8448" x2="122.15382" y2="541.50507" stroke="#96f068" stroke-width="0.5" />
<line x1="122.15382" y1="541.50507" x2="124.21323" y2="558.3836" stroke="#8ff06f" stroke-width="0.5" />
<line x1="124.21323" y1="558.3836" x2="137.07063" y2="569.267" stroke="#8ef070" stroke-width="0.5" />
<line x1="137.07063" y1="569.267" x2="153.82422" y2="572.2185" stroke="#8ef070" stroke-width="0.5" />
<line x1="153.82422" y1="572.2185" x2="167.85046" y2="563.272" stroke="#8cf072" stroke-width="0.5" />
<line x1="167.85046" y1="563.272" x2="163.95428" y2="546.9468" stroke="#8cf072" stroke-width="0.5" />
<line x1="163.95428" y1="546.9468" x2="158.277" y2="530.6215" stroke="#8bf073" stroke-width="0.5" />
<line x1="158.277" y1="530.6215" x2="150.81859" y2="515.3108" stroke="#8bf073" stroke-width="0.5" />
<line x1="150.81859" y1="515.3108" x2="134.065" y2="517.33997" stroke="#8bf073" stroke-width="0.5" />
<line x1="134.065" y1="517.33997" x2="116.19823" y2="520.75256" stroke="#8bf073" stroke-width="0.5" />
<line x1="116.19823" y1="520.75256" x2="99.16634" y2="524.25745" stroke="#88f076" stroke-width="0.5" />
<line x1="99.16634" y1="524.25745" x2="98.27579" y2="506.91754" stroke="#82f07c" stroke-width="0.5" />
<line x1="98.27579" y1="506.91754" x2="114.69541" y2="510.88358" stroke="#80f07e" stroke-width="0.5" />
<line x1="114.69541" y1="510.88358" x2="131.39334" y2="509.86902" stroke="#7ff07f" stroke-width="0.5" />
<line x1="131.39334" y1="509.86902" x2="148.42522" y2="511.34476" stroke="#7ff07f" stroke-width="0.5" />
<line x1="148.42522" y1="511.34476" x2="164.23259" y2="517.8011" stroke="#7ff07f" stroke-width="0.5" />
<line x1="164.23259" y1="517.8011" x2="180.09561" y2="522.78174" stroke="#7ff07f" stroke-width="0.5" />
<line x1="180.09561" y1="522.78174" x2="334.4401" y2="671.64355" stroke="#7cf082" stroke-width="0.5" stroke-dasharray="3 3"/>
<line x1="334.4401" y1="671.64355" x2="354.7559" y2="675.60944" stroke="#7cf082" stroke-width="0.5" />
<line x1="354.7559" y1="675.60944" x2="369.6727" y2="683.0801" stroke="#7cf082" stroke-width="0.5" />
<line x1="369.6727" y1="683.0801" x2="381.91785" y2="694.88544" stroke="#7cf082" stroke-width="0.5" />
<line x1="381.91785" y1="694.88544" x2="452.66138" y2="689.9973" stroke="#7bf083" stroke-width="0.5" stroke-dasharray="3 3"/>
<line x1="452.66138" y1="689.9973" x2="468.19046" y2="700.32697" stroke="#7bf083" stroke-width="0.5" />
<line x1="468.19046" y1="700.32697" x2="478.04224" y2="713.7002" stroke="#7af084" stroke-width="0.5" />
<line x1="478.04224" y1="713.7002" x2="472.9772" y2="729.56354" stroke="#77f087" stroke-width="0.5" />
<line x1="472.9772" y1="729.56354" x2="431.78897" y2="705.7685" stroke="#66f098" stroke-width="0.5" stroke-dasharray="3 3"/>
<line x1="431.78897" y1="705.7685" x2="447.59634" y2="695.43884" stroke="#61f09d" stroke-width="0.5" stroke-dasharray="3 3"/>
<line x1="447.59634" y1="695.43884" x2="465.24048" y2="694.4243" stroke="#61f09d" stroke-width="0.5" />
<line x1="465.24048" y1="694.4243" x2="477.48563" y2="705.7685" stroke="#61f09d" stroke-width="0.5" />
<line x1="477.48563" y1="705.7685" x2="493.293" y2="713.2391" stroke="#61f09d" stroke-width="0.5" />
<line x1="493.293" y1="713.2391" x2="481.32614" y2="700.32697" stroke="#60f09e" stroke-width="0.5" />
<line x1="481.32614" y1="700.32697" x2="467.0216" y2="688.9828" stroke="#60f09e" stroke-width="0.5" />
<line x1="467.0216" y1="688.9828" x2="448.82086" y2="696.45337" stroke="#60f09e" stroke-width="0.5" />
<line x1="448.82086" y1="696.45337" x2="432.40125" y2="699.86584" stroke="#60f09e" stroke-width="0.5" />
<line x1="432.40125" y1="699.86584" x2="342.1768" y2="738.9708" stroke="#5ff09f" stroke-width="0.5" stroke-dasharray="3 3"/>
<line x1="342.1768" y1="738.9708" x2="329.37506" y2="749.85376" stroke="#5ff09f" stroke-width="0.5" />
<line x1="329.37506" y1="749.85376" x2="348.74463" y2="738.9708" stroke="#5cf0a2" stroke-width="0.5" />
<line x1="348.74463" y1="738.9708" x2="365.49823" y2="742.93665" stroke="#5cf0a2" stroke-width="0.5" />
<line x1="365.49823" y1="742.93665" x2="440.13794" y2="697.929" stroke="#5cf0a2" stroke-width="0.5" stroke-dasharray="3 3"/>
<line x1="440.13794" y1="697.929" x2="456.27927" y2="691.47296" stroke="#5cf0a2" stroke-width="0.5" />
<line x1="456.27927" y1="691.47296" x2="474.7583" y2="684.0024" stroke="#5cf0a2" stroke-width="0.5" />
<line x1="474.7583" y1="684.0024" x2="490.28738" y2="674.5949" stroke="#5cf0a2" stroke-width="0.5" />
<line x1="490.28738" y1="674.5949" x2="507.59756" y2="345.13626" stroke="#59f0a5" stroke-width="0.5" stroke-dasharray="3 3"/>
<line x1="507.59756" y1="345.13626" x2="492.68076" y2="335.1746" stroke="#59f0a5" stroke-width="0.5" />
<line x1="492.68076" y1="335.1746" x2="476.87338" y2="320.41653" stroke="#59f0a5" stroke-width="0.5" />
<line x1="476.87338" y1="320.41653" x2="461.95657" y2="309.9936" stroke="#59f0a5" stroke-width="0.5" />
<line x1="461.95657" y1="309.9936" x2="447.59634" y2="296.61902" stroke="#59f0a5" stroke-width="0.5" />
<line x1="447.59634" y1="296.61902" x2="512.3843" y2="271.34555" stroke="#57f0a7" stroke-width="0.5" stroke-dasharray="3 3"/>
<line x1="512.3843" y1="271.34555" x2="513.8871" y2="290.16232" stroke="#57f0a7" stroke-width="0.5" />
<line x1="513.8871" y1="290.16232" x2="506.1504" y2="305.01273" stroke="#57f0a7" stroke-width="0.5" />
<line x1="506.1504" y1="305.01273" x2="497.7458" y2="319.8631" stroke="#56f0a8" stroke-width="0.5" />
<line x1="497.7458" y1="319.8631" x2="481.04785" y2="317.9261" stroke="#56f0a8" stroke-width="0.5" />
<line x1="481.04785" y1="317.9261" x2="467.2999" y2="308.5178" stroke="#56f0a8" stroke-width="0.5" />
<line x1="467.2999" y1="308.5178" x2="450.88028" y2="301.5999" stroke="#55f0a9" stroke-width="0.5" />
<line x1="450.88028" y1="301.5999" x2="453.27365" y2="284.25903" stroke="#55f0a9" stroke-width="0.5" />
<line x1="453.27365" y1="284.25903" x2="508.2098" y2="267.9327" stroke="#4af0b4" stroke-width="0.5" stroke-dasharray="3 3"/>
<line x1="508.2098" y1="267.9327" x2="512.3843" y2="287.21066" stroke="#49f0b5" stroke-width="0.5" />
<line x1="512.3843" y1="287.21066" x2="507.04095" y2="303.0757" stroke="#49f0b5" stroke-width="0.5" />
<line x1="507.04095" y1="303.0757" x2="500.4731" y2="320.41653" stroke="#47f0b7" stroke-width="0.5" />
<line x1="500.4731" y1="320.41653" x2="491.17792" y2="334.7134" stroke="#46f0b8" stroke-width="0.5" />
<line x1="491.17792" y1="334.7134" x2="475.37057" y2="340.15543" stroke="#46f0b8" stroke-width="0.5" />
<line x1="475.37057" y1="340.15543" x2="463.12543" y2="328.25674" stroke="#46f0b8" stroke-width="0.5" />
<line x1="463.12543" y1="328.25674" x2="446.70578" y2="320.41653" stroke="#45f0b9" stroke-width="0.5" />
<line x1="446.70578" y1="320.41653" x2="301.60083" y2="383.23016" stroke="#44f0ba" stroke-width="0.5" stroke-dasharray="3 3"/>
<line x1="301.60083" y1="383.23016" x2="283.6784" y2="388.67212" stroke="#44f0ba" stroke-width="0.5" />
<line x1="283.6784" y1="388.67212" x2="269.37384" y2="378.8028" stroke="#43f0bb" stroke-width="0.5" />
<line x1="269.37384" y1="378.8028" x2="267.87103" y2="360.44766" stroke="#43f0bb" stroke-width="0.5" />
<line x1="267.87103" y1="360.44766" x2="253.84477" y2="350.57825" stroke="#42f0bc" stroke-width="0.5" />
<line x1="253.84477" y1="350.57825" x2="257.407" y2="366.90424" stroke="#42f0bc" stroke-width="0.5" />
<line x1="257.407" y1="366.90424" x2="252.34196" y2="351.03946" stroke="#3df0c1" stroke-width="0.5" />
<line x1="252.34196" y1="351.03946" x2="246.66467" y2="366.90424" stroke="#31f0cd" stroke-width="0.5" />
<line x1="246.66467" y1="366.90424" x2="228.74223" y2="360.90884" stroke="#28f0d6" stroke-width="0.5" />
<line x1="228.74223" y1="360.90884" x2="215.32823" y2="351.03946" stroke="#21f0dd" stroke-width="0.5" />
<line x1="215.32823" y1="351.03946" x2="232.02615" y2="345.59744" stroke="#21f0dd" stroke-width="0.5" />
<line x1="232.02615" y1="345.59744" x2="246.94296" y2="333.2376" stroke="#1ef0e0" stroke-width="0.5" />
<line x1="246.94296" y1="333.2376" x2="260.41263" y2="322.8147" stroke="#1ef0e0" stroke-width="0.5" />
<line x1="260.41263" y1="322.8147" x2="272.93607" y2="311.46942" stroke="#1ef0e0" stroke-width="0.5" />
<line x1="272.93607" y1="311.46942" x2="304.88477" y2="251.14511" stroke="#1df0e1" stroke-width="0.5" stroke-dasharray="3 3"/>
<line x1="304.88477" y1="251.14511" x2="315.01483" y2="237.2169" stroke="#19f0e5" stroke-width="0.5" />
<line x1="315.01483" y1="237.2169" x2="332.65897" y2="237.77034" stroke="#12f0ec" stroke-width="0.5" />
<line x1="332.65897" y1="237.77034" x2="348.18805" y2="243.67369" stroke="#12f0ec" stroke-width="0.5" />
<line x1="10784.544" y1="344456.5" x2="10784.514" y2="344455.5" stroke="#f0f" stroke-width="10.0"  stroke-opacity="100%"/>
<line x1="10784.544" y1="344456.5" x2="10784.514" y2="344455.5" stroke="#f0f" stroke-width="10.0"  stroke-opacity="100%"/>
<line x1="10784.544" y1="344456.5" x2="10784.544" y2="344456.5" stroke="#f0f" stroke-width="10.0"  stroke-opacity="30%"/>
<line x1="10784.544" y1="344456.5" x2="10784.544" y2="344456.5" stroke="#f0f" stroke-width="1.0"  stroke-opacity="100%"/>
<line x1="10184.155" y1="324656.38" x2="10184.125" y2="324655.38" stroke="#f00" stroke-width="10.0"  stroke-opacity="100%"/>
<line x1="9207.751" y1="292455.72" x2="9207.721" y2="292454.72" stroke="#f00" stroke-width="10.0"  stroke-opacity="100%"/>
<line x1="10184.155" y1="324656.38" x2="9207.751" y2="292455.72" stroke="#f00" stroke-width="10.0"  stroke-opacity="30%"/>
<line x1="10184.155" y1="324656.38" x2="9207.751" y2="292455.72" stroke="#f00" stroke-width="1.0"  stroke-opacity="100%"/>
<line x1="9005.821" y1="285796.28" x2="9005.791" y2="285795.28" stroke="#f0f" stroke-width="10.0"  stroke-opacity="100%"/>
<line x1="9005.821" y1="285796.28" x2="9005.791" y2="285795.28" stroke="#f0f" stroke-width="10.0"  stroke-opacity="100%"/>
<line x1="9005.821" y1="285796.28" x2="9005.821" y2="285796.28" stroke="#f0f" stroke-width="10.0"  stroke-opacity="30%"/>
<line x1="9005.821" y1="285796.28" x2="9005.821" y2="285796.28" stroke="#f0f" stroke-width="1.0"  stroke-opacity="100%"/>
<g transform="translate(8424.904185758729 266638.32031094655) rotate(-91.7368176139108)">
<path fill-opacity="0%" stroke="#0f0" stroke-width="0.5" d="M -5 -5 L 0 0 -5 5 -5 -5"/>
</g>
<line x1="8354.853" y1="264328.1" x2="8354.822" y2="264327.1" stroke="#f0f" stroke-width="10.0"  stroke-opacity="100%"/>
<line x1="8354.853" y1="264328.1" x2="8354.822" y2="264327.1" stroke="#f0f" stroke-width="10.0"  stroke-opacity="100%"/>
<line x1="8354.853" y1="264328.1" x2="8354.853" y2="264328.1" stroke="#f0f" stroke-width="10.0"  stroke-opacity="30%"/>
<line x1="8354.853" y1="264328.1" x2="8354.853" y2="264328.1" stroke="#f0f" stroke-width="1.0"  stroke-opacity="100%"/>
<g transform="translate(159.19551434394552 521.112969357484) rotate(-161.72070965445837)">
<path fill-opacity="0%" stroke="#00f" stroke-width="0.5" d="M -5 -5 L 0 0 -5 5 -5 -5"/>
</g>
<g transform="translate(142.26793467596676 516.2502159447259) rotate(147.76109872372666)">
<path fill-opacity="0%" stroke="#00f" stroke-width="0.5" d="M -5 0 L 0 5 5 0 0 -5 -5 0"/>
</g>
<line x1="140.8142" y1="517.16705" x2="139.96837" y2="517.7005" stroke="#00f" stroke-width="10.0"  stroke-opacity="100%"/>
<line x1="139.01012" y1="518.3049" x2="138.16429" y2="518.8383" stroke="#00f" stroke-width="10.0"  stroke-opacity="100%"/>
<line x1="140.8142" y1="517.16705" x2="139.01012" y2="518.3049" stroke="#00f" stroke-width="10.0"  stroke-opacity="30%"/>
<line x1="140.8142" y1="517.16705" x2="139.01012" y2="518.3049" stroke="#00f" stroke-width="1.0"  stroke-opacity="100%"/>
<g transform="translate(142.14921463205573 516.325090565485) rotate(147.76109872372666)">
<path fill-opacity="0%" stroke="#00f" stroke-width="0.5" d="M -5 -5 L 0 0 -5 5 -5 -5"/>
</g>
<g transform="translate(122.59651491711051 545.1333416308572) rotate(83.04352526988127)">
<path fill-opacity="0%" stroke="#00f" stroke-width="0.5" d="M -5 0 L 0 5 5 0 0 -5 -5 0"/>
</g>
<line x1="122.63721" y1="545.46686" x2="122.75832" y2="546.4595" stroke="#00f" stroke-width="10.0"  stroke-opacity="100%"/>
<line x1="122.66703" y1="545.7113" x2="122.78815" y2="546.7039" stroke="#00f" stroke-width="10.0"  stroke-opacity="100%"/>
<line x1="122.63721" y1="545.46686" x2="122.66703" y2="545.7113" stroke="#00f" stroke-width="10.0"  stroke-opacity="30%"/>
<line x1="122.63721" y1="545.46686" x2="122.66703" y2="545.7113" stroke="#00f" stroke-width="1.0"  stroke-opacity="100%"/>
<line x1="134.35501" y1="521.2408" x2="133.50919" y2="521.77423" stroke="#f0f" stroke-width="10.0"  stroke-opacity="100%"/>
<line x1="134.35501" y1="521.2408" x2="133.50919" y2="521.77423" stroke="#f0f" stroke-width="10.0"  stroke-opacity="100%"/>
<line x1="134.35501" y1="521.2408" x2="134.35501" y2="521.2408" stroke="#f0f" stroke-width="10.0"  stroke-opacity="30%"/>
<line x1="134.35501" y1="521.2408" x2="134.35501" y2="521.2408" stroke="#f0f" stroke-width="1.0"  stroke-opacity="100%"/>
<line x1="131.41669" y1="523.09393" x2="130.57086" y2="523.6274" stroke="#f0f" stroke-width="10.0"  stroke-opacity="100%"/>
<line x1="131.41669" y1="523.09393" x2="130.57086" y2="523.6274" stroke="#f0f" stroke-width="10.0"  stroke-opacity="100%"/>
<line x1="131.41669" y1="523.09393" x2="131.41669" y2="523.09393" stroke="#f0f" stroke-width="10.0"  stroke-opacity="30%"/>
<line x1="131.41669" y1="523.09393" x2="131.41669" y2="523.09393" stroke="#f0f" stroke-width="1.0"  stroke-opacity="100%"/>
<g transform="translate(104.6102270511087 535.5832363799918) rotate(168.37198931252738)">
<path fill-opacity="0%" stroke="#f00" stroke-width="0.5" d="M -5 -5 L 0 0 -5 5 -5 -5"/>
</g>
<g transform="translate(119.09751877160033 553.4909891255836) rotate(35.487984292256094)">
<path fill-opacity="0%" stroke="#f00" stroke-width="0.5" d="M -5 0 L 0 5 5 0 0 -5 -5 0"/>
</g>
<line x1="120.10627" y1="554.2102" x2="120.92051" y2="554.7907" stroke="#f00" stroke-width="10.0"  stroke-opacity="100%"/>
<line x1="120.10627" y1="554.2102" x2="120.92051" y2="554.7907" stroke="#f00" stroke-width="10.0"  stroke-opacity="100%"/>
<line x1="120.10627" y1="554.2102" x2="120.10627" y2="554.2102" stroke="#f00" stroke-width="10.0"  stroke-opacity="30%"/>
<line x1="120.10627" y1="554.2102" x2="120.10627" y2="554.2102" stroke="#f00" stroke-width="1.0"  stroke-opacity="100%"/>
<line x1="124.63492" y1="551.1668" x2="124.38619" y2="550.19824" stroke="#f0f" stroke-width="10.0"  stroke-opacity="100%"/>
<line x1="124.63492" y1="551.1668" x2="124.38619" y2="550.19824" stroke="#f0f" stroke-width="10.0"  stroke-opacity="100%"/>
<line x1="124.63492" y1="551.1668" x2="124.63492" y2="551.1668" stroke="#f0f" stroke-width="10.0"  stroke-opacity="30%"/>
<line x1="124.63492" y1="551.1668" x2="124.63492" y2="551.1668" stroke="#f0f" stroke-width="1.0"  stroke-opacity="100%"/>
<line x1="123.03786" y1="544.94763" x2="122.78913" y2="543.97906" stroke="#f0f" stroke-width="10.0"  stroke-opacity="100%"/>
<line x1="123.03786" y1="544.94763" x2="122.78913" y2="543.97906" stroke="#f0f" stroke-width="10.0"  stroke-opacity="100%"/>
<line x1="123.03786" y1="544.94763" x2="123.03786" y2="544.94763" stroke="#f0f" stroke-width="10.0"  stroke-opacity="30%"/>
<line x1="123.03786" y1="544.94763" x2="123.03786" y2="544.94763" stroke="#f0f" stroke-width="1.0"  stroke-opacity="100%"/>
<line x1="122.163574" y1="541.585" x2="122.28469" y2="542.5777" stroke="#f0f" stroke-width="10.0"  stroke-opacity="100%"/>
<line x1="122.163574" y1="541.585" x2="122.28469" y2="542.5777" stroke="#f0f" stroke-width="10.0"  stroke-opacity="100%"/>
<line x1="122.163574" y1="541.585" x2="122.163574" y2="541.585" stroke="#f0f" stroke-width="10.0"  stroke-opacity="30%"/>
<line x1="122.163574" y1="541.585" x2="122.163574" y2="541.585" stroke="#f0f" stroke-width="1.0"  stroke-opacity="100%"/>
<line x1="122.53375" y1="544.61896" x2="122.65487" y2="545.6116" stroke="#f0f" stroke-width="10.0"  stroke-opacity="100%"/>
<line x1="122.53375" y1="544.61896" x2="122.65487" y2="545.6116" stroke="#f0f" stroke-width="10.0"  stroke-opacity="100%"/>
<line x1="122.53375" y1="544.61896" x2="122.53375" y2="544.61896" stroke="#f0f" stroke-width="10.0"  stroke-opacity="30%"/>
<line x1="122.53375" y1="544.61896" x2="122.53375" y2="544.61896" stroke="#f0f" stroke-width="1.0"  stroke-opacity="100%"/>
<line x1="122.68578" y1="545.865" x2="122.8069" y2="546.8576" stroke="#f0f" stroke-width="10.0"  stroke-opacity="100%"/>
<line x1="122.68578" y1="545.865" x2="122.8069" y2="546.8576" stroke="#f0f" stroke-width="10.0"  stroke-opacity="100%"/>
<line x1="122.68578" y1="545.865" x2="122.68578" y2="545.865" stroke="#f0f" stroke-width="10.0"  stroke-opacity="30%"/>
<line x1="122.68578" y1="545.865" x2="122.68578" y2="545.865" stroke="#f0f" stroke-width="1.0"  stroke-opacity="100%"/>
<g transform="translate(144.474560578311 570.5713777859942) rotate(9.991269473770574)">
<path fill-opacity="0%" stroke="#ff0" stroke-width="0.5" d="M -5 -5 L 0 0 -5 5 -5 -5"/>
</g>
<line x1="162.28955" y1="566.819" x2="163.13266" y2="566.2812" stroke="#f0f" stroke-width="10.0"  stroke-opacity="100%"/>
<line x1="162.28955" y1="566.819" x2="163.13266" y2="566.2812" stroke="#f0f" stroke-width="10.0"  stroke-opacity="100%"/>
<line x1="162.28955" y1="566.819" x2="162.28955" y2="566.819" stroke="#f0f" stroke-width="10.0"  stroke-opacity="30%"/>
<line x1="162.28955" y1="566.819" x2="162.28955" y2="566.819" stroke="#f0f" stroke-width="1.0"  stroke-opacity="100%"/>
<line x1="99.12968" y1="523.5435" x2="99.078384" y2="522.54486" stroke="#f00" stroke-width="10.0"  stroke-opacity="100%"/>
<line x1="98.96523" y1="520.34174" x2="98.91395" y2="519.343" stroke="#f00" stroke-width="10.0"  stroke-opacity="100%"/>
<line x1="99.12968" y1="523.5435" x2="98.96523" y2="520.34174" stroke="#f00" stroke-width="10.0"  stroke-opacity="30%"/>
<line x1="99.12968" y1="523.5435" x2="98.96523" y2="520.34174" stroke="#f00" stroke-width="1.0"  stroke-opacity="100%"/>
<line x1="98.92143" y1="519.4888" x2="98.87014" y2="518.4901" stroke="#f00" stroke-width="10.0"  stroke-opacity="100%"/>
<line x1="98.86775" y1="518.4436" x2="98.81646" y2="517.44495" stroke="#f00" stroke-width="10.0"  stroke-opacity="100%"/>
<line x1="98.92143" y1="519.4888" x2="98.86775" y2="518.4436" stroke="#f00" stroke-width="10.0"  stroke-opacity="30%"/>
<line x1="98.92143" y1="519.4888" x2="98.86775" y2="518.4436" stroke="#f00" stroke-width="1.0"  stroke-opacity="100%"/>
<line x1="98.68823" y1="514.9482" x2="98.63694" y2="513.9495" stroke="#f00" stroke-width="10.0"  stroke-opacity="100%"/>
<line x1="98.68823" y1="514.9482" x2="98.63694" y2="513.9495" stroke="#f00" stroke-width="10.0"  stroke-opacity="100%"/>
<line x1="98.68823" y1="514.9482" x2="98.68823" y2="514.9482" stroke="#f00" stroke-width="10.0"  stroke-opacity="30%"/>
<line x1="98.68823" y1="514.9482" x2="98.68823" y2="514.9482" stroke="#f00" stroke-width="1.0"  stroke-opacity="100%"/>
<g transform="translate(468.28485149380316 700.4550961783382) rotate(53.62170979567367)">
<path fill-opacity="0%" stroke="#00f" stroke-width="0.5" d="M -5 -5 L 0 0 -5 5 -5 -5"/>
</g>
<g transform="translate(469.190850546749 701.6849387514746) rotate(53.62170979567367)">
<path fill-opacity="0%" stroke="#00f" stroke-width="0.5" d="M -5 0 L 0 5 5 0 0 -5 -5 0"/>
</g>
<line x1="469.45908" y1="702.0491" x2="470.0522" y2="702.8542" stroke="#00f" stroke-width="10.0"  stroke-opacity="100%"/>
<line x1="469.45908" y1="702.0491" x2="470.0522" y2="702.8542" stroke="#00f" stroke-width="10.0"  stroke-opacity="100%"/>
<line x1="469.45908" y1="702.0491" x2="469.45908" y2="702.0491" stroke="#00f" stroke-width="10.0"  stroke-opacity="30%"/>
<line x1="469.45908" y1="702.0491" x2="469.45908" y2="702.0491" stroke="#00f" stroke-width="1.0"  stroke-opacity="100%"/>
<line x1="472.39938" y1="729.22974" x2="471.5335" y2="728.7295" stroke="#f00" stroke-width="10.0"  stroke-opacity="100%"/>
<line x1="472.39938" y1="729.22974" x2="471.5335" y2="728.7295" stroke="#f00" stroke-width="10.0"  stroke-opacity="100%"/>
<line x1="472.39938" y1="729.22974" x2="472.39938" y2="729.22974" stroke="#f00" stroke-width="10.0"  stroke-opacity="30%"/>
<line x1="472.39938" y1="729.22974" x2="472.39938" y2="729.22974" stroke="#f00" stroke-width="1.0"  stroke-opacity="100%"/>
<line x1="467.85828" y1="726.60626" x2="466.9924" y2="726.106" stroke="#f00" stroke-width="10.0"  stroke-opacity="100%"/>
<line x1="467.85828" y1="726.60626" x2="466.9924" y2="726.106" stroke="#f00" stroke-width="10.0"  stroke-opacity="100%"/>
<line x1="467.85828" y1="726.60626" x2="467.85828" y2="726.60626" stroke="#f00" stroke-width="10.0"  stroke-opacity="30%"/>
<line x1="467.85828" y1="726.60626" x2="467.85828" y2="726.60626" stroke="#f00" stroke-width="1.0"  stroke-opacity="100%"/>
<line x1="457.86304" y1="720.83185" x2="456.99716" y2="720.33167" stroke="#f0f" stroke-width="10.0"  stroke-opacity="100%"/>
<line x1="457.86304" y1="720.83185" x2="456.99716" y2="720.33167" stroke="#f0f" stroke-width="10.0"  stroke-opacity="100%"/>
<line x1="457.86304" y1="720.83185" x2="457.86304" y2="720.83185" stroke="#f0f" stroke-width="10.0"  stroke-opacity="30%"/>
<line x1="457.86304" y1="720.83185" x2="457.86304" y2="720.83185" stroke="#f0f" stroke-width="1.0"  stroke-opacity="100%"/>
<line x1="358.1374" y1="741.1942" x2="359.11047" y2="741.42456" stroke="#f0f" stroke-width="10.0"  stroke-opacity="100%"/>
<line x1="358.1374" y1="741.1942" x2="359.11047" y2="741.42456" stroke="#f0f" stroke-width="10.0"  stroke-opacity="100%"/>
<line x1="358.1374" y1="741.1942" x2="358.1374" y2="741.1942" stroke="#f0f" stroke-width="10.0"  stroke-opacity="30%"/>
<line x1="358.1374" y1="741.1942" x2="358.1374" y2="741.1942" stroke="#f0f" stroke-width="1.0"  stroke-opacity="100%"/>
<line x1="428.72586" y1="704.8105" x2="429.5822" y2="704.29407" stroke="#f0f" stroke-width="10.0"  stroke-opacity="100%"/>
<line x1="428.72586" y1="704.8105" x2="429.5822" y2="704.29407" stroke="#f0f" stroke-width="10.0"  stroke-opacity="100%"/>
<line x1="428.72586" y1="704.8105" x2="428.72586" y2="704.8105" stroke="#f0f" stroke-width="10.0"  stroke-opacity="30%"/>
<line x1="428.72586" y1="704.8105" x2="428.72586" y2="704.8105" stroke="#f0f" stroke-width="1.0"  stroke-opacity="100%"/>
<line x1="491.2863" y1="655.5829" x2="491.33878" y2="654.5843" stroke="#f0f" stroke-width="10.0"  stroke-opacity="100%"/>
<line x1="491.2863" y1="655.5829" x2="491.33878" y2="654.5843" stroke="#f0f" stroke-width="10.0"  stroke-opacity="100%"/>
<line x1="491.2863" y1="655.5829" x2="491.2863" y2="655.5829" stroke="#f0f" stroke-width="10.0"  stroke-opacity="30%"/>
<line x1="491.2863" y1="655.5829" x2="491.2863" y2="655.5829" stroke="#f0f" stroke-width="1.0"  stroke-opacity="100%"/>
<line x1="493.12292" y1="620.6272" x2="493.17538" y2="619.62854" stroke="#f0f" stroke-width="10.0"  stroke-opacity="100%"/>
<line x1="493.12292" y1="620.6272" x2="493.17538" y2="619.62854" stroke="#f0f" stroke-width="10.0"  stroke-opacity="100%"/>
<line x1="493.12292" y1="620.6272" x2="493.12292" y2="620.6272" stroke="#f0f" stroke-width="10.0"  stroke-opacity="30%"/>
<line x1="493.12292" y1="620.6272" x2="493.12292" y2="620.6272" stroke="#f0f" stroke-width="1.0"  stroke-opacity="100%"/>
<line x1="496.77957" y1="551.0312" x2="496.83206" y2="550.0326" stroke="#f0f" stroke-width="10.0"  stroke-opacity="100%"/>
<line x1="496.77957" y1="551.0312" x2="496.83206" y2="550.0326" stroke="#f0f" stroke-width="10.0"  stroke-opacity="100%"/>
<line x1="496.77957" y1="551.0312" x2="496.77957" y2="551.0312" stroke="#f0f" stroke-width="10.0"  stroke-opacity="30%"/>
<line x1="496.77957" y1="551.0312" x2="496.77957" y2="551.0312" stroke="#f0f" stroke-width="1.0"  stroke-opacity="100%"/>
<line x1="498.0892" y1="526.1056" x2="498.14166" y2="525.107" stroke="#f0f" stroke-width="10.0"  stroke-opacity="100%"/>
<line x1="498.0892" y1="526.1056" x2="498.14166" y2="525.107" stroke="#f0f" stroke-width="10.0"  stroke-opacity="100%"/>
<line x1="498.0892" y1="526.1056" x2="498.0892" y2="526.1056" stroke="#f0f" stroke-width="10.0"  stroke-opacity="30%"/>
<line x1="498.0892" y1="526.1056" x2="498.0892" y2="526.1056" stroke="#f0f" stroke-width="1.0"  stroke-opacity="100%"/>
<g transform="translate(257.23899058902754 366.1341780830412) rotate(77.69129177981853)">
<path fill-opacity="0%" stroke="#f00" stroke-width="0.5" d="M -5 -5 L 0 0 -5 5 -5 -5"/>
</g>
<g transform="translate(256.86072132273694 365.1931377236538) rotate(-107.70639830441448)">
<path fill-opacity="0%" stroke="#f00" stroke-width="0.5" d="M -5 0 L 0 5 5 0 0 -5 -5 0"/>
</g>
<line x1="256.83667" y1="365.1178" x2="256.53253" y2="364.1652" stroke="#f00" stroke-width="10.0"  stroke-opacity="100%"/>
<line x1="256.24036" y1="363.25003" x2="255.93622" y2="362.2974" stroke="#f00" stroke-width="10.0"  stroke-opacity="100%"/>
<line x1="256.83667" y1="365.1178" x2="256.24036" y2="363.25003" stroke="#f00" stroke-width="10.0"  stroke-opacity="30%"/>
<line x1="256.83667" y1="365.1178" x2="256.24036" y2="363.25003" stroke="#f00" stroke-width="1.0"  stroke-opacity="100%"/>
<line x1="254.60089" y1="358.1149" x2="254.29675" y2="357.16226" stroke="#0f0" stroke-width="10.0"  stroke-opacity="100%"/>
<line x1="254.60089" y1="358.1149" x2="252.34196" y2="351.03946" stroke="#0f0" stroke-width="10.0"  stroke-opacity="30%"/>
<line x1="254.60089" y1="358.1149" x2="252.34196" y2="351.03946" stroke="#0f0" stroke-width="1.0"  stroke-opacity="100%"/>
<line x1="252.14145" y1="351.5998" x2="251.80452" y2="352.54132" stroke="#0f0" stroke-width="10.0"  stroke-opacity="100%"/>
<line x1="252.34196" y1="351.03946" x2="252.14145" y2="351.5998" stroke="#0f0" stroke-width="10.0"  stroke-opacity="30%"/>
<line x1="252.34196" y1="351.03946" x2="252.14145" y2="351.5998" stroke="#0f0" stroke-width="1.0"  stroke-opacity="100%"/>
<line x1="250.70697" y1="355.60834" x2="250.37004" y2="356.54987" stroke="#f0f" stroke-width="10.0"  stroke-opacity="100%"/>
<line x1="250.70697" y1="355.60834" x2="250.37004" y2="356.54987" stroke="#f0f" stroke-width="10.0"  stroke-opacity="100%"/>
<line x1="250.70697" y1="355.60834" x2="250.70697" y2="355.60834" stroke="#f0f" stroke-width="10.0"  stroke-opacity="30%"/>
<line x1="250.70697" y1="355.60834" x2="250.70697" y2="355.60834" stroke="#f0f" stroke-width="1.0"  stroke-opacity="100%"/>
<line x1="250.641" y1="355.79266" x2="250.30408" y2="356.73422" stroke="#f0f" stroke-width="10.0"  stroke-opacity="100%"/>
<line x1="250.641" y1="355.79266" x2="250.30408" y2="356.73422" stroke="#f0f" stroke-width="10.0"  stroke-opacity="100%"/>
<line x1="250.641" y1="355.79266" x2="250.641" y2="355.79266" stroke="#f0f" stroke-width="10.0"  stroke-opacity="30%"/>
<line x1="250.641" y1="355.79266" x2="250.641" y2="355.79266" stroke="#f0f" stroke-width="1.0"  stroke-opacity="100%"/>
<line x1="250.56091" y1="356.01648" x2="250.22398" y2="356.958" stroke="#f0f" stroke-width="10.0"  stroke-opacity="100%"/>
<line x1="250.56091" y1="356.01648" x2="250.22398" y2="356.958" stroke="#f0f" stroke-width="10.0"  stroke-opacity="100%"/>
<line x1="250.56091" y1="356.01648" x2="250.56091" y2="356.01648" stroke="#f0f" stroke-width="10.0"  stroke-opacity="30%"/>
<line x1="250.56091" y1="356.01648" x2="250.56091" y2="356.01648" stroke="#f0f" stroke-width="1.0"  stroke-opacity="100%"/>
<line x1="250.38876" y1="356.49756" x2="250.05183" y2="357.4391" stroke="#f0f" stroke-width="10.0"  stroke-opacity="100%"/>
<line x1="250.38876" y1="356.49756" x2="250.05183" y2="357.4391" stroke="#f0f" stroke-width="10.0"  stroke-opacity="100%"/>
<line x1="250.38876" y1="356.49756" x2="250.38876" y2="356.49756" stroke="#f0f" stroke-width="10.0"  stroke-opacity="30%"/>
<line x1="250.38876" y1="356.49756" x2="250.38876" y2="356.49756" stroke="#f0f" stroke-width="1.0"  stroke-opacity="100%"/>
<line x1="250.12413" y1="357.23703" x2="249.7872" y2="358.17856" stroke="#f0f" stroke-width="10.0"  stroke-opacity="100%"/>
<line x1="250.12413" y1="357.23703" x2="249.7872" y2="358.17856" stroke="#f0f" stroke-width="10.0"  stroke-opacity="100%"/>
<line x1="250.12413" y1="357.23703" x2="250.12413" y2="357.23703" stroke="#f0f" stroke-width="10.0"  stroke-opacity="30%"/>
<line x1="250.12413" y1="357.23703" x2="250.12413" y2="357.23703" stroke="#f0f" stroke-width="1.0"  stroke-opacity="100%"/>
<line x1="249.8927" y1="357.88376" x2="249.55577" y2="358.8253" stroke="#f0f" stroke-width="10.0"  stroke-opacity="100%"/>
<line x1="249.8927" y1="357.88376" x2="249.55577" y2="358.8253" stroke="#f0f" stroke-width="10.0"  stroke-opacity="100%"/>
<line x1="249.8927" y1="357.88376" x2="249.8927" y2="357.88376" stroke="#f0f" stroke-width="10.0"  stroke-opacity="30%"/>
<line x1="249.8927" y1="357.88376" x2="249.8927" y2="357.88376" stroke="#f0f" stroke-width="1.0"  stroke-opacity="100%"/>
<line x1="249.67862" y1="358.482" x2="249.34169" y2="359.42352" stroke="#0f0" stroke-width="10.0"  stroke-opacity="100%"/>
<line x1="249.67862" y1="358.482" x2="249.34169" y2="359.42352" stroke="#0f0" stroke-width="10.0"  stroke-opacity="100%"/>
<line x1="249.67862" y1="358.482" x2="249.67862" y2="358.482" stroke="#0f0" stroke-width="10.0"  stroke-opacity="30%"/>
<line x1="249.67862" y1="358.482" x2="249.67862" y2="358.482" stroke="#0f0" stroke-width="1.0"  stroke-opacity="100%"/>
<line x1="247.814" y1="363.69254" x2="247.47707" y2="364.63406" stroke="#f0f" stroke-width="10.0"  stroke-opacity="100%"/>
<line x1="247.814" y1="363.69254" x2="247.47707" y2="364.63406" stroke="#f0f" stroke-width="10.0"  stroke-opacity="100%"/>
<line x1="247.814" y1="363.69254" x2="247.814" y2="363.69254" stroke="#f0f" stroke-width="10.0"  stroke-opacity="30%"/>
<line x1="247.814" y1="363.69254" x2="247.814" y2="363.69254" stroke="#f0f" stroke-width="1.0"  stroke-opacity="100%"/>
<line x1="244.02667" y1="366.0218" x2="243.07832" y2="365.70453" stroke="#f0f" stroke-width="10.0"  stroke-opacity="100%"/>
<line x1="244.02667" y1="366.0218" x2="243.07832" y2="365.70453" stroke="#f0f" stroke-width="10.0"  stroke-opacity="100%"/>
<line x1="244.02667" y1="366.0218" x2="244.02667" y2="366.0218" stroke="#f0f" stroke-width="10.0"  stroke-opacity="30%"/>
<line x1="244.02667" y1="366.0218" x2="244.02667" y2="366.0218" stroke="#f0f" stroke-width="1.0"  stroke-opacity="100%"/>
<line x1="243.69504" y1="365.91083" x2="242.74669" y2="365.5936" stroke="#f0f" stroke-width="10.0"  stroke-opacity="100%"/>
<line x1="243.69504" y1="365.91083" x2="242.74669" y2="365.5936" stroke="#f0f" stroke-width="10.0"  stroke-opacity="100%"/>
<line x1="243.69504" y1="365.91083" x2="243.69504" y2="365.91083" stroke="#f0f" stroke-width="10.0"  stroke-opacity="30%"/>
<line x1="243.69504" y1="365.91083" x2="243.69504" y2="365.91083" stroke="#f0f" stroke-width="1.0"  stroke-opacity="100%"/>
<line x1="235.21225" y1="363.07318" x2="234.2639" y2="362.75595" stroke="#f00" stroke-width="10.0"  stroke-opacity="100%"/>
<line x1="235.21225" y1="363.07318" x2="234.2639" y2="362.75595" stroke="#f00" stroke-width="10.0"  stroke-opacity="100%"/>
<line x1="235.21225" y1="363.07318" x2="235.21225" y2="363.07318" stroke="#f00" stroke-width="10.0"  stroke-opacity="30%"/>
<line x1="235.21225" y1="363.07318" x2="235.21225" y2="363.07318" stroke="#f00" stroke-width="1.0"  stroke-opacity="100%"/>
<line x1="234.20065" y1="362.7348" x2="233.2523" y2="362.41754" stroke="#f00" stroke-width="10.0"  stroke-opacity="100%"/>
<line x1="234.20065" y1="362.7348" x2="233.2523" y2="362.41754" stroke="#f00" stroke-width="10.0"  stroke-opacity="100%"/>
<line x1="234.20065" y1="362.7348" x2="234.20065" y2="362.7348" stroke="#f00" stroke-width="10.0"  stroke-opacity="30%"/>
<line x1="234.20065" y1="362.7348" x2="234.20065" y2="362.7348" stroke="#f00" stroke-width="1.0"  stroke-opacity="100%"/>
<line x1="233.9792" y1="362.6607" x2="233.03085" y2="362.34348" stroke="#f00" stroke-width="10.0"  stroke-opacity="100%"/>
<line x1="233.9792" y1="362.6607" x2="233.03085" y2="362.34348" stroke="#f00" stroke-width="10.0"  stroke-opacity="100%"/>
<line x1="233.9792" y1="362.6607" x2="233.9792" y2="362.6607" stroke="#f00" stroke-width="10.0"  stroke-opacity="30%"/>
<line x1="233.9792" y1="362.6607" x2="233.9792" y2="362.6607" stroke="#f00" stroke-width="1.0"  stroke-opacity="100%"/>
<g transform="translate(216.6749278488065 352.03029416983594) rotate(-143.65613187720058)">
<path fill-opacity="0%" stroke="#ff0" stroke-width="0.5" d="M -5 -5 L 0 0 -5 5 -5 -5"/>
</g>
<line x1="241.68805" y1="337.59174" x2="242.45807" y2="336.95374" stroke="#f0f" stroke-width="10.0"  stroke-opacity="100%"/>
<line x1="241.68805" y1="337.59174" x2="242.45807" y2="336.95374" stroke="#f0f" stroke-width="10.0"  stroke-opacity="100%"/>
<line x1="241.68805" y1="337.59174" x2="241.68805" y2="337.59174" stroke="#f0f" stroke-width="10.0"  stroke-opacity="30%"/>
<line x1="241.68805" y1="337.59174" x2="241.68805" y2="337.59174" stroke="#f0f" stroke-width="1.0"  stroke-opacity="100%"/>
<line x1="243.30385" y1="336.25293" x2="244.07385" y2="335.6149" stroke="#f00" stroke-width="10.0"  stroke-opacity="100%"/>
<line x1="243.30385" y1="336.25293" x2="246.94296" y2="333.2376" stroke="#f00" stroke-width="10.0"  stroke-opacity="30%"/>
<line x1="243.30385" y1="336.25293" x2="246.94296" y2="333.2376" stroke="#f00" stroke-width="1.0"  stroke-opacity="100%"/>
<line x1="246.94296" y1="333.2376" x2="260.41263" y2="322.8147" stroke="#f00" stroke-width="10.0"  stroke-opacity="30%"/>
<line x1="246.94296" y1="333.2376" x2="260.41263" y2="322.8147" stroke="#f00" stroke-width="1.0"  stroke-opacity="100%"/>
<line x1="260.41263" y1="322.8147" x2="272.93607" y2="311.46942" stroke="#f00" stroke-width="10.0"  stroke-opacity="30%"/>
<line x1="260.41263" y1="322.8147" x2="272.93607" y2="311.46942" stroke="#f00" stroke-width="1.0"  stroke-opacity="100%"/>
<line x1="272.93607" y1="311.46942" x2="304.88477" y2="251.14511" stroke="#f00" stroke-width="10.0"  stroke-opacity="30%"/>
<line x1="272.93607" y1="311.46942" x2="304.88477" y2="251.14511" stroke="#f00" stroke-width="1.0"  stroke-opacity="100%"/>
<line x1="304.88477" y1="251.14511" x2="315.01483" y2="237.2169" stroke="#f00" stroke-width="10.0"  stroke-opacity="30%"/>
<line x1="304.88477" y1="251.14511" x2="315.01483" y2="237.2169" stroke="#f00" stroke-width="1.0"  stroke-opacity="100%"/>
<line x1="322.09708" y1="237.43906" x2="323.0966" y2="237.4704" stroke="#f00" stroke-width="10.0"  stroke-opacity="100%"/>
<line x1="315.01483" y1="237.2169" x2="322.09708" y2="237.43906" stroke="#f00" stroke-width="10.0"  stroke-opacity="30%"/>
<line x1="315.01483" y1="237.2169" x2="322.09708" y2="237.43906" stroke="#f00" stroke-width="1.0"  stroke-opacity="100%"/>
<line x1="280.173" y1="297.8049" x2="280.64102" y2="296.9212" stroke="#f0f" stroke-width="10.0"  stroke-opacity="100%"/>
<line x1="280.173" y1="297.8049" x2="280.64102" y2="296.9212" stroke="#f0f" stroke-width="10.0"  stroke-opacity="100%"/>
<line x1="280.173" y1="297.8049" x2="280.173" y2="297.8049" stroke="#f0f" stroke-width="10.0"  stroke-opacity="30%"/>
<line x1="280.173" y1="297.8049" x2="280.173" y2="297.8049" stroke="#f0f" stroke-width="1.0"  stroke-opacity="100%"/>
<g transform="translate(314.14792188977674 238.408850268342) rotate(-53.971387533927945)">
<path fill-opacity="0%" stroke="#0f0" stroke-width="0.5" d="M -5 -5 L 0 0 -5 5 -5 -5"/>
</g>
<line x1="315.01596" y1="237.21693" x2="316.01547" y2="237.24829" stroke="#0f0" stroke-width="10.0"  stroke-opacity="100%"/>
<line x1="315.01596" y1="237.21693" x2="316.01547" y2="237.24829" stroke="#0f0" stroke-width="10.0"  stroke-opacity="100%"/>
<line x1="315.01596" y1="237.21693" x2="315.01596" y2="237.21693" stroke="#0f0" stroke-width="10.0"  stroke-opacity="30%"/>
<line x1="315.01596" y1="237.21693" x2="315.01596" y2="237.21693" stroke="#0f0" stroke-width="1.0"  stroke-opacity="100%"/>
<line x1="317.78604" y1="237.30383" x2="318.78555" y2="237.33517" stroke="#0f0" stroke-width="10.0"  stroke-opacity="100%"/>
<line x1="317.78604" y1="237.30383" x2="318.78555" y2="237.33517" stroke="#0f0" stroke-width="10.0"  stroke-opacity="100%"/>
<line x1="317.78604" y1="237.30383" x2="317.78604" y2="237.30383" stroke="#0f0" stroke-width="10.0"  stroke-opacity="30%"/>
<line x1="317.78604" y1="237.30383" x2="317.78604" y2="237.30383" stroke="#0f0" stroke-width="1.0"  stroke-opacity="100%"/>
<line x1="318.703" y1="237.3326" x2="319.7025" y2="237.36394" stroke="#0f0" stroke-width="10.0"  stroke-opacity="100%"/>
<line x1="318.703" y1="237.3326" x2="319.7025" y2="237.36394" stroke="#0f0" stroke-width="10.0"  stroke-opacity="100%"/>
<line x1="318.703" y1="237.3326" x2="318.703" y2="237.3326" stroke="#0f0" stroke-width="10.0"  stroke-opacity="30%"/>
<line x1="318.703" y1="237.3326" x2="318.703" y2="237.3326" stroke="#0f0" stroke-width="1.0"  stroke-opacity="100%"/>
<line x1="319.51358" y1="237.35802" x2="320.5131" y2="237.38936" stroke="#0f0" stroke-width="10.0"  stroke-opacity="100%"/>
<line x1="319.51358" y1="237.35802" x2="320.5131" y2="237.38936" stroke="#0f0" stroke-width="10.0"  stroke-opacity="100%"/>
<line x1="319.51358" y1="237.35802" x2="319.51358" y2="237.35802" stroke="#0f0" stroke-width="10.0"  stroke-opacity="30%"/>
<line x1="319.51358" y1="237.35802" x2="319.51358" y2="237.35802" stroke="#0f0" stroke-width="1.0"  stroke-opacity="100%"/>
<line x1="320.65268" y1="237.39374" x2="321.6522" y2="237.4251" stroke="#f0f" stroke-width="10.0"  stroke-opacity="100%"/>
<line x1="320.65268" y1="237.39374" x2="321.6522" y2="237.4251" stroke="#f0f" stroke-width="10.0"  stroke-opacity="100%"/>
<line x1="320.65268" y1="237.39374" x2="320.65268" y2="237.39374" stroke="#f0f" stroke-width="10.0"  stroke-opacity="30%"/>
<line x1="320.65268" y1="237.39374" x2="320.65268" y2="237.39374" stroke="#f0f" stroke-width="1.0"  stroke-opacity="100%"/>
<line x1="321.38428" y1="237.41669" x2="322.3838" y2="237.44804" stroke="#0f0" stroke-width="10.0"  stroke-opacity="100%"/>
<line x1="321.38428" y1="237.41669" x2="322.3838" y2="237.44804" stroke="#0f0" stroke-width="10.0"  stroke-opacity="100%"/>
<line x1="321.38428" y1="237.41669" x2="321.38428" y2="237.41669" stroke="#0f0" stroke-width="10.0"  stroke-opacity="30%"/>
<line x1="321.38428" y1="237.41669" x2="321.38428" y2="237.41669" stroke="#0f0" stroke-width="1.0"  stroke-opacity="100%"/>
<line x1="322.1536" y1="237.44083" x2="323.1531" y2="237.47217" stroke="#0f0" stroke-width="10.0"  stroke-opacity="100%"/>
<line x1="322.87152" y1="237.46335" x2="323.87103" y2="237.49469" stroke="#0f0" stroke-width="10.0"  stroke-opacity="100%"/>
<line x1="322.1536" y1="237.44083" x2="322.87152" y2="237.46335" stroke="#0f0" stroke-width="10.0"  stroke-opacity="30%"/>
<line x1="322.1536" y1="237.44083" x2="322.87152" y2="237.46335" stroke="#0f0" stroke-width="1.0"  stroke-opacity="100%"/>
<line x1="329.13907" y1="237.65993" x2="330.13858" y2="237.69128" stroke="#f00" stroke-width="10.0"  stroke-opacity="100%"/>
<line x1="329.13907" y1="237.65993" x2="330.13858" y2="237.69128" stroke="#f00" stroke-width="10.0"  stroke-opacity="100%"/>
<line x1="329.13907" y1="237.65993" x2="329.13907" y2="237.65993" stroke="#f00" stroke-width="10.0"  stroke-opacity="30%"/>
<line x1="329.13907" y1="237.65993" x2="329.13907" y2="237.65993" stroke="#f00" stroke-width="1.0"  stroke-opacity="100%"/>
<line x1="329.94373" y1="237.68517" x2="330.94324" y2="237.71652" stroke="#f00" stroke-width="10.0"  stroke-opacity="100%"/>
<line x1="329.94373" y1="237.68517" x2="330.94324" y2="237.71652" stroke="#f00" stroke-width="10.0"  stroke-opacity="100%"/>
<line x1="329.94373" y1="237.68517" x2="329.94373" y2="237.68517" stroke="#f00" stroke-width="10.0"  stroke-opacity="30%"/>
<line x1="329.94373" y1="237.68517" x2="329.94373" y2="237.68517" stroke="#f00" stroke-width="1.0"  stroke-opacity="100%"/>
<line x1="330.14197" y1="237.69139" x2="331.14148" y2="237.72275" stroke="#f00" stroke-width="10.0"  stroke-opacity="100%"/>
<line x1="330.14197" y1="237.69139" x2="331.14148" y2="237.72275" stroke="#f00" stroke-width="10.0"  stroke-opacity="100%"/>
<line x1="330.14197" y1="237.69139" x2="330.14197" y2="237.69139" stroke="#f00" stroke-width="10.0"  stroke-opacity="30%"/>
<line x1="330.14197" y1="237.69139" x2="330.14197" y2="237.69139" stroke="#f00" stroke-width="1.0"  stroke-opacity="100%"/>
</svg>
