<?xml version="1.0" standalone="no"?>
<!DOCTYPE svg PUBLIC "-//W3C//DTD SVG 1.1//EN" "http://www.w3.org/Graphics/SVG/1.1/DTD/svg11.dtd">
<svg opacity="20%" width="30cm" height="30cm" version="1.1" viewBox="0 0 1000 1000" xmlns="http://www.w3.org/2000/svg" xmlns:xlink="http://www.w3.org/1999/xlink">
<desc>DrawTrails of automics data, Mon Jul 25 12:24:01 BST 2011</desc>
<filter id="desaturate"  primitiveUnits="objectBoundingBox">
<feImage x="0%" y="0%" width="100%" height="100%" xlink:href="altontowers-zoom15.png"/>
<feColorMatrix type="matrix" values="0.3333 0.3333 0.3333 0 0 0.3333 0.3333 0.3333 0 0 0.3333 0.3333 0.3333 0 0 0      0      0      1 0"/>
<feColorMatrix type="matrix" values="0.1 0 0 0 0 0 0.1 0 0 0 0 0 0.1 0 0 0      0      0      1 0"/>
</filter>
<rect x="-264.37028285176257" y="-264.37028285176257" width="1528.7405657035251" height="1528.7405657035251" filter="url(#desaturate)"/>
<line x1="360.98978" y1="272.91364" x2="358.3181" y2="245.14954" stroke="#b8f046" stroke-width="0.5" />
<line x1="358.3181" y1="245.14954" x2="347.8541" y2="231.31354" stroke="#b3f04b" stroke-width="0.5" />
<line x1="347.8541" y1="231.31354" x2="331.76843" y2="237.2169" stroke="#b2f04c" stroke-width="0.5" />
<line x1="331.76843" y1="237.2169" x2="319.80157" y2="249.11584" stroke="#b1f04d" stroke-width="0.5" />
<line x1="319.80157" y1="249.11584" x2="309.9498" y2="264.4276" stroke="#b1f04d" stroke-width="0.5" />
<line x1="309.9498" y1="264.4276" x2="303.38196" y2="280.75394" stroke="#b1f04d" stroke-width="0.5" />
<line x1="303.38196" y1="280.75394" x2="275.94168" y2="343.66046" stroke="#b0f04e" stroke-width="0.5" stroke-dasharray="3 3"/>
<line x1="275.94168" y1="343.66046" x2="262.47205" y2="353.99103" stroke="#b0f04e" stroke-width="0.5" />
<line x1="262.47205" y1="353.99103" x2="267.53708" y2="369.85583" stroke="#b0f04e" stroke-width="0.5" />
<line x1="267.53708" y1="369.85583" x2="265.1437" y2="386.6429" stroke="#b0f04e" stroke-width="0.5" />
<line x1="265.1437" y1="386.6429" x2="262.19373" y2="403.52216" stroke="#b0f04e" stroke-width="0.5" />
<line x1="262.19373" y1="403.52216" x2="257.1287" y2="420.3091" stroke="#aff04f" stroke-width="0.5" />
<line x1="257.1287" y1="420.3091" x2="165.4571" y2="518.26227" stroke="#aef050" stroke-width="0.5" stroke-dasharray="3 3"/>
<line x1="165.4571" y1="518.26227" x2="149.31578" y2="511.89816" stroke="#aef050" stroke-width="0.5" />
<line x1="149.31578" y1="511.89816" x2="132.61784" y2="513.8351" stroke="#aef050" stroke-width="0.5" />
<line x1="132.61784" y1="513.8351" x2="123.32267" y2="527.6701" stroke="#aef050" stroke-width="0.5" />
<line x1="123.32267" y1="527.6701" x2="104.50968" y2="529.6992" stroke="#aef050" stroke-width="0.5" />
<line x1="104.50968" y1="529.6992" x2="90.205124" y2="541.0439" stroke="#adf051" stroke-width="0.5" />
<line x1="90.205124" y1="541.0439" x2="93.76735" y2="557.83026" stroke="#adf051" stroke-width="0.5" />
<line x1="93.76735" y1="557.83026" x2="110.79923" y2="555.8934" stroke="#adf051" stroke-width="0.5" />
<line x1="110.79923" y1="555.8934" x2="127.21886" y2="552.9419" stroke="#adf051" stroke-width="0.5" />
<line x1="127.21886" y1="552.9419" x2="114.97371" y2="540.5827" stroke="#adf051" stroke-width="0.5" />
<line x1="114.97371" y1="540.5827" x2="98.554085" y2="545.0099" stroke="#adf051" stroke-width="0.5" />
<line x1="98.554085" y1="545.0099" x2="107.7936" y2="559.8594" stroke="#adf051" stroke-width="0.5" />
<line x1="107.7936" y1="559.8594" x2="113.804855" y2="543.9953" stroke="#acf052" stroke-width="0.5" />
<line x1="113.804855" y1="543.9953" x2="121.541565" y2="559.3982" stroke="#aaf054" stroke-width="0.5" />
<line x1="121.541565" y1="559.3982" x2="134.67726" y2="569.7282" stroke="#aaf054" stroke-width="0.5" />
<line x1="134.67726" y1="569.7282" x2="150.81859" y2="573.6942" stroke="#aaf054" stroke-width="0.5" />
<line x1="150.81859" y1="573.6942" x2="167.2382" y2="570.7428" stroke="#a8f056" stroke-width="0.5" />
<line x1="167.2382" y1="570.7428" x2="170.52214" y2="554.4176" stroke="#a8f056" stroke-width="0.5" />
<line x1="170.52214" y1="554.4176" x2="160.39206" y2="541.0439" stroke="#a8f056" stroke-width="0.5" />
<line x1="160.39206" y1="541.0439" x2="161.83922" y2="523.24286" stroke="#a7f057" stroke-width="0.5" />
<line x1="161.83922" y1="523.24286" x2="179.20506" y2="522.22833" stroke="#a7f057" stroke-width="0.5" />
<line x1="179.20506" y1="522.22833" x2="332.325" y2="679.1142" stroke="#a4f05a" stroke-width="0.5" stroke-dasharray="3 3"/>
<line x1="332.325" y1="679.1142" x2="333.82782" y2="696.45337" stroke="#a4f05a" stroke-width="0.5" />
<line x1="333.82782" y1="696.45337" x2="337.11176" y2="713.2391" stroke="#a4f05a" stroke-width="0.5" />
<line x1="337.11176" y1="713.2391" x2="330.2656" y2="728.549" stroke="#a4f05a" stroke-width="0.5" />
<line x1="330.2656" y1="728.549" x2="346.07297" y2="734.5439" stroke="#a4f05a" stroke-width="0.5" />
<line x1="346.07297" y1="734.5439" x2="361.936" y2="729.56354" stroke="#a4f05a" stroke-width="0.5" />
<line x1="361.936" y1="729.56354" x2="444.59073" y2="698.8513" stroke="#a3f05b" stroke-width="0.5" stroke-dasharray="3 3"/>
<line x1="444.59073" y1="698.8513" x2="461.066" y2="694.4243" stroke="#a3f05b" stroke-width="0.5" />
<line x1="461.066" y1="694.4243" x2="476.53943" y2="702.81714" stroke="#a3f05b" stroke-width="0.5" />
<line x1="476.53943" y1="702.81714" x2="493.0147" y2="709.7344" stroke="#a3f05b" stroke-width="0.5" />
<line x1="493.0147" y1="709.7344" x2="509.71262" y2="713.7002" stroke="#a2f05c" stroke-width="0.5" />
<line x1="509.71262" y1="713.7002" x2="516.28046" y2="735.4662" stroke="#a2f05c" stroke-width="0.5" stroke-dasharray="3 3"/>
<line x1="516.28046" y1="735.4662" x2="492.06848" y2="746.90247" stroke="#99f065" stroke-width="0.5" stroke-dasharray="3 3"/>
<line x1="492.06848" y1="746.90247" x2="500.7514" y2="756.30975" stroke="#93f06b" stroke-width="0.5" stroke-dasharray="3 3"/>
<line x1="500.7514" y1="756.30975" x2="482.55066" y2="754.2807" stroke="#92f06c" stroke-width="0.5" />
<line x1="482.55066" y1="754.2807" x2="458.33868" y2="745.88794" stroke="#87f077" stroke-width="0.5" stroke-dasharray="3 3"/>
<line x1="458.33868" y1="745.88794" x2="459.5632" y2="729.1024" stroke="#82f07c" stroke-width="0.5" />
<line x1="459.5632" y1="729.1024" x2="476.2611" y2="731.50037" stroke="#81f07d" stroke-width="0.5" />
<line x1="476.2611" y1="731.50037" x2="490.28738" y2="721.1707" stroke="#81f07d" stroke-width="0.5" />
<line x1="490.28738" y1="721.1707" x2="490.00906" y2="704.29285" stroke="#81f07d" stroke-width="0.5" />
<line x1="490.00906" y1="704.29285" x2="473.86774" y2="699.86584" stroke="#80f07e" stroke-width="0.5" />
<line x1="473.86774" y1="699.86584" x2="458.33868" y2="693.96313" stroke="#80f07e" stroke-width="0.5" />
<line x1="458.33868" y1="693.96313" x2="441.3068" y2="694.88544" stroke="#80f07e" stroke-width="0.5" />
<line x1="441.3068" y1="694.88544" x2="425.49942" y2="701.8949" stroke="#80f07e" stroke-width="0.5" />
<line x1="425.49942" y1="701.8949" x2="369.6727" y2="683.0801" stroke="#7df081" stroke-width="0.5" stroke-dasharray="3 3"/>
<line x1="369.6727" y1="683.0801" x2="353.86533" y2="676.62396" stroke="#7df081" stroke-width="0.5" />
<line x1="353.86533" y1="676.62396" x2="343.6796" y2="689.9973" stroke="#7df081" stroke-width="0.5" />
<line x1="343.6796" y1="689.9973" x2="335.33066" y2="704.8462" stroke="#7df081" stroke-width="0.5" />
<line x1="335.33066" y1="704.8462" x2="332.04672" y2="722.093" stroke="#7cf082" stroke-width="0.5" />
<line x1="332.04672" y1="722.093" x2="326.9817" y2="738.4175" stroke="#7cf082" stroke-width="0.5" />
<line x1="326.9817" y1="738.4175" x2="323.69775" y2="756.30975" stroke="#7cf082" stroke-width="0.5" />
<line x1="323.69775" y1="756.30975" x2="312.62146" y2="768.6683" stroke="#7cf082" stroke-width="0.5" />
<line x1="312.62146" y1="768.6683" x2="324.58832" y2="752.34393" stroke="#6af094" stroke-width="0.5" stroke-dasharray="3 3"/>
<line x1="324.58832" y1="752.34393" x2="331.76843" y2="735.4662" stroke="#6af094" stroke-width="0.5" />
<line x1="331.76843" y1="735.4662" x2="336.2212" y2="719.1417" stroke="#6af094" stroke-width="0.5" />
<line x1="336.2212" y1="719.1417" x2="339.83908" y2="702.356" stroke="#6af094" stroke-width="0.5" />
<line x1="339.83908" y1="702.356" x2="337.724" y2="682.5267" stroke="#6af094" stroke-width="0.5" />
<line x1="337.724" y1="682.5267" x2="334.4401" y2="666.202" stroke="#6af094" stroke-width="0.5" />
<line x1="334.4401" y1="666.202" x2="332.04672" y2="647.9404" stroke="#69f095" stroke-width="0.5" />
<line x1="332.04672" y1="647.9404" x2="464.34995" y2="372.34622" stroke="#67f097" stroke-width="0.5" stroke-dasharray="3 3"/>
<line x1="464.34995" y1="372.34622" x2="453.8859" y2="387.19632" stroke="#67f097" stroke-width="0.5" />
<line x1="453.8859" y1="387.19632" x2="454.16418" y2="365.88965" stroke="#67f097" stroke-width="0.5" />
<line x1="454.16418" y1="365.88965" x2="442.25302" y2="377.7882" stroke="#67f097" stroke-width="0.5" />
<line x1="442.25302" y1="377.7882" x2="451.15857" y2="392.08487" stroke="#66f098" stroke-width="0.5" />
<line x1="451.15857" y1="392.08487" x2="434.18234" y2="392.08487" stroke="#65f099" stroke-width="0.5" />
<line x1="434.18234" y1="392.08487" x2="431.78897" y2="373.36084" stroke="#65f099" stroke-width="0.5" />
<line x1="431.78897" y1="373.36084" x2="440.41623" y2="357.95724" stroke="#64f09a" stroke-width="0.5" />
<line x1="440.41623" y1="357.95724" x2="457.44812" y2="356.02026" stroke="#64f09a" stroke-width="0.5" />
<line x1="457.44812" y1="356.02026" x2="457.16983" y2="372.8074" stroke="#63f09b" stroke-width="0.5" />
<line x1="457.16983" y1="372.8074" x2="464.90652" y2="388.11868" stroke="#62f09c" stroke-width="0.5" />
<line x1="464.90652" y1="388.11868" x2="468.5244" y2="371.79282" stroke="#60f09e" stroke-width="0.5" />
<line x1="468.5244" y1="371.79282" x2="476.53943" y2="356.48145" stroke="#5ff09f" stroke-width="0.5" />
<line x1="476.53943" y1="356.48145" x2="474.48" y2="339.69424" stroke="#5ff09f" stroke-width="0.5" />
<line x1="474.48" y1="339.69424" x2="458.33868" y2="332.7764" stroke="#5ff09f" stroke-width="0.5" />
<line x1="458.33868" y1="332.7764" x2="445.20297" y2="321.3389" stroke="#5ff09f" stroke-width="0.5" />
<line x1="445.20297" y1="321.3389" x2="368.78214" y2="267.9327" stroke="#5ff09f" stroke-width="0.5" stroke-dasharray="3 3"/>
<line x1="368.78214" y1="267.9327" x2="355.64645" y2="257.50964" stroke="#5ef0a0" stroke-width="0.5" />
<line x1="355.64645" y1="257.50964" x2="355.92474" y2="239.70738" stroke="#5ef0a0" stroke-width="0.5" />
<line x1="355.92474" y1="239.70738" x2="349.69086" y2="255.57262" stroke="#59f0a5" stroke-width="0.5" />
<line x1="349.69086" y1="255.57262" x2="342.1768" y2="270.88437" stroke="#59f0a5" stroke-width="0.5" />
<line x1="342.1768" y1="270.88437" x2="322.19495" y2="278.81693" stroke="#59f0a5" stroke-width="0.5" />
<line x1="322.19495" y1="278.81693" x2="305.77533" y2="286.19604" stroke="#59f0a5" stroke-width="0.5" />
<line x1="305.77533" y1="286.19604" x2="278.89166" y2="333.6988" stroke="#59f0a5" stroke-width="0.5" stroke-dasharray="3 3"/>
<line x1="278.89166" y1="333.6988" x2="272.32382" y2="349.10245" stroke="#58f0a6" stroke-width="0.5" />
<line x1="272.32382" y1="349.10245" x2="257.1287" y2="357.03488" stroke="#58f0a6" stroke-width="0.5" />
<line x1="257.1287" y1="357.03488" x2="240.70908" y2="344.58282" stroke="#58f0a6" stroke-width="0.5" />
<line x1="240.70908" y1="344.58282" x2="256.23816" y2="353.06866" stroke="#58f0a6" stroke-width="0.5" />
<line x1="256.23816" y1="353.06866" x2="258.29755" y2="369.85583" stroke="#58f0a6" stroke-width="0.5" />
<line x1="258.29755" y1="369.85583" x2="255.01363" y2="353.52985" stroke="#57f0a7" stroke-width="0.5" />
<line x1="255.01363" y1="353.52985" x2="250.83916" y2="370.87042" stroke="#52f0ac" stroke-width="0.5" />
<line x1="250.83916" y1="370.87042" x2="234.69783" y2="366.35083" stroke="#4ef0b0" stroke-width="0.5" />
<line x1="234.69783" y1="366.35083" x2="227.23941" y2="351.59286" stroke="#4bf0b3" stroke-width="0.5" />
<line x1="227.23941" y1="351.59286" x2="235.31007" y2="335.72803" stroke="#49f0b5" stroke-width="0.5" />
<line x1="235.31007" y1="335.72803" x2="250.56085" y2="342.64584" stroke="#47f0b7" stroke-width="0.5" />
<line x1="250.56085" y1="342.64584" x2="263.69656" y2="353.99103" stroke="#46f0b8" stroke-width="0.5" />
<line x1="263.69656" y1="353.99103" x2="269.0399" y2="376.7736" stroke="#46f0b8" stroke-width="0.5" />
<line x1="269.0399" y1="376.7736" x2="276.4983" y2="391.6237" stroke="#46f0b8" stroke-width="0.5" />
<line x1="276.4983" y1="391.6237" x2="293.80847" y2="390.1479" stroke="#37f0c7" stroke-width="0.5" />
<line x1="293.80847" y1="390.1479" x2="309.6715" y2="384.70593" stroke="#37f0c7" stroke-width="0.5" />
<line x1="309.6715" y1="384.70593" x2="318.02048" y2="370.31702" stroke="#37f0c7" stroke-width="0.5" />
<line x1="318.02048" y1="370.31702" x2="339.83908" y2="326.78094" stroke="#36f0c8" stroke-width="0.5" stroke-dasharray="3 3"/>
<line x1="339.83908" y1="326.78094" x2="343.12302" y2="309.9936" stroke="#36f0c8" stroke-width="0.5" />
<line x1="343.12302" y1="309.9936" x2="348.46634" y2="294.12857" stroke="#36f0c8" stroke-width="0.5" />
<line x1="348.46634" y1="294.12857" x2="350.24747" y2="276.78766" stroke="#36f0c8" stroke-width="0.5" />
<line x1="350.24747" y1="276.78766" x2="351.47195" y2="259.5389" stroke="#36f0c8" stroke-width="0.5" />
<line x1="351.47195" y1="259.5389" x2="356.53702" y2="241.73666" stroke="#36f0c8" stroke-width="0.5" />
<circle cx="361.24493" cy="257.12234" r="12.458623" stroke="#b3f04b" stroke-width="1.0" fill="#0f0" fill-opacity="0.1"/>
<circle cx="266.06122" cy="356.3756" r="8.305749" stroke="#b0f04e" stroke-width="1.0" fill="#00f" fill-opacity="0.1"/>
<circle cx="131.67578" cy="516.9448" r="8.305749" stroke="#aef050" stroke-width="1.0" fill="#00f" fill-opacity="0.1"/>
<circle cx="95.21983" cy="552.4809" r="16.611498" stroke="#aef050" stroke-width="1.0" fill="#f00" fill-opacity="0.1"/>
<circle cx="157.65419" cy="573.6807" r="12.458623" stroke="#aaf054" stroke-width="1.0" fill="#ff0" fill-opacity="0.1"/>
<circle cx="148.73314" cy="539.79236" r="20.764372" stroke="#a8f056" stroke-width="1.0" fill="#00f" fill-opacity="0.1"/>
<circle cx="478.42184" cy="700.99365" r="8.305749" stroke="#a3f05b" stroke-width="1.0" fill="#00f" fill-opacity="0.1"/>
<circle cx="486.77258" cy="753.6112" r="12.458623" stroke="#9cf062" stroke-width="1.0" fill="#f00" fill-opacity="0.1"/>
<circle cx="486.91025" cy="750.5136" r="12.458623" stroke="#93f06b" stroke-width="1.0" fill="#f00" fill-opacity="0.1"/>
<circle cx="343.9279" cy="681.3216" r="12.458623" stroke="#6af094" stroke-width="1.0" fill="#0f0" fill-opacity="0.1"/>
<circle cx="472.05457" cy="372.84564" r="12.458623" stroke="#67f097" stroke-width="1.0" fill="#00f" fill-opacity="0.1"/>
<circle cx="476.36972" cy="350.72577" r="8.305749" stroke="#5ff09f" stroke-width="1.0" fill="#00f" fill-opacity="0.1"/>
<circle cx="250.9419" cy="362.99683" r="8.305749" stroke="#58f0a6" stroke-width="1.0" fill="#f00" fill-opacity="0.1"/>
<circle cx="227.47972" cy="346.55414" r="8.305749" stroke="#4df0b1" stroke-width="1.0" fill="#ff0" fill-opacity="0.1"/>
<circle cx="357.22733" cy="319.5769" r="20.764372" stroke="#36f0c8" stroke-width="1.0" fill="#00f" fill-opacity="0.1"/>
</svg>
