<?xml version="1.0" standalone="no"?>
<!DOCTYPE svg PUBLIC "-//W3C//DTD SVG 1.1//EN" "http://www.w3.org/Graphics/SVG/1.1/DTD/svg11.dtd">
<svg opacity="20%" width="30cm" height="30cm" version="1.1" viewBox="0 0 1000 1000" xmlns="http://www.w3.org/2000/svg" xmlns:xlink="http://www.w3.org/1999/xlink">
<desc>DrawTrails of automics data, Mon Jul 25 12:28:30 BST 2011</desc>
<filter id="desaturate"  primitiveUnits="objectBoundingBox">
<feImage x="0%" y="0%" width="100%" height="100%" xlink:href="altontowers-zoom15.png"/>
<feColorMatrix type="matrix" values="0.3333 0.3333 0.3333 0 0 0.3333 0.3333 0.3333 0 0 0.3333 0.3333 0.3333 0 0 0      0      0      1 0"/>
<feColorMatrix type="matrix" values="0.1 0 0 0 0 0 0.1 0 0 0 0 0 0.1 0 0 0      0      0      1 0"/>
</filter>
<rect x="-264.37028285176257" y="-264.37028285176257" width="1528.7405657035251" height="1528.7405657035251" filter="url(#desaturate)"/>
<line x1="347.8541" y1="266.45688" x2="331.43445" y2="277.3411" stroke="#9cf062" stroke-width="0.5" />
<line x1="331.43445" y1="277.3411" x2="314.73654" y2="280.75394" stroke="#9cf062" stroke-width="0.5" />
<line x1="314.73654" y1="280.75394" x2="280.39447" y2="332.223" stroke="#9bf063" stroke-width="0.5" stroke-dasharray="3 3"/>
<line x1="280.39447" y1="332.223" x2="274.10492" y2="348.08786" stroke="#9bf063" stroke-width="0.5" />
<line x1="274.10492" y1="348.08786" x2="270.2644" y2="364.41385" stroke="#9bf063" stroke-width="0.5" />
<line x1="270.2644" y1="364.41385" x2="267.53708" y2="384.24475" stroke="#9bf063" stroke-width="0.5" />
<line x1="267.53708" y1="384.24475" x2="265.1437" y2="401.0318" stroke="#9bf063" stroke-width="0.5" />
<line x1="265.1437" y1="401.0318" x2="258.90982" y2="416.8964" stroke="#9bf063" stroke-width="0.5" />
<line x1="258.90982" y1="416.8964" x2="159.7798" y2="521.30597" stroke="#99f065" stroke-width="0.5" stroke-dasharray="3 3"/>
<line x1="159.7798" y1="521.30597" x2="143.02623" y2="515.772" stroke="#99f065" stroke-width="0.5" />
<line x1="143.02623" y1="515.772" x2="128.1094" y2="525.17975" stroke="#99f065" stroke-width="0.5" />
<line x1="128.1094" y1="525.17975" x2="111.68979" y2="534.1264" stroke="#98f066" stroke-width="0.5" />
<line x1="111.68979" y1="534.1264" x2="94.657906" y2="537.6312" stroke="#98f066" stroke-width="0.5" />
<line x1="94.657906" y1="537.6312" x2="95.54846" y2="554.8788" stroke="#98f066" stroke-width="0.5" />
<line x1="95.54846" y1="554.8788" x2="116.476524" y2="558.3836" stroke="#98f066" stroke-width="0.5" />
<line x1="116.476524" y1="558.3836" x2="131.39334" y2="550.4516" stroke="#98f066" stroke-width="0.5" />
<line x1="131.39334" y1="550.4516" x2="119.76045" y2="538.5536" stroke="#98f066" stroke-width="0.5" />
<line x1="119.76045" y1="538.5536" x2="103.06252" y2="542.0584" stroke="#97f067" stroke-width="0.5" />
<line x1="103.06252" y1="542.0584" x2="126.6066" y2="558.8448" stroke="#97f067" stroke-width="0.5" />
<line x1="126.6066" y1="558.8448" x2="122.15382" y2="541.50507" stroke="#96f068" stroke-width="0.5" />
<line x1="122.15382" y1="541.50507" x2="124.21323" y2="558.3836" stroke="#8ff06f" stroke-width="0.5" />
<line x1="124.21323" y1="558.3836" x2="137.07063" y2="569.267" stroke="#8ef070" stroke-width="0.5" />
<line x1="137.07063" y1="569.267" x2="153.82422" y2="572.2185" stroke="#8ef070" stroke-width="0.5" />
<line x1="153.82422" y1="572.2185" x2="167.85046" y2="563.272" stroke="#8cf072" stroke-width="0.5" />
<line x1="167.85046" y1="563.272" x2="163.95428" y2="546.9468" stroke="#8cf072" stroke-width="0.5" />
<line x1="163.95428" y1="546.9468" x2="158.277" y2="530.6215" stroke="#8bf073" stroke-width="0.5" />
<line x1="158.277" y1="530.6215" x2="150.81859" y2="515.3108" stroke="#8bf073" stroke-width="0.5" />
<line x1="150.81859" y1="515.3108" x2="134.065" y2="517.33997" stroke="#8bf073" stroke-width="0.5" />
<line x1="134.065" y1="517.33997" x2="116.19823" y2="520.75256" stroke="#8bf073" stroke-width="0.5" />
<line x1="116.19823" y1="520.75256" x2="99.16634" y2="524.25745" stroke="#88f076" stroke-width="0.5" />
<line x1="99.16634" y1="524.25745" x2="98.27579" y2="506.91754" stroke="#82f07c" stroke-width="0.5" />
<line x1="98.27579" y1="506.91754" x2="114.69541" y2="510.88358" stroke="#80f07e" stroke-width="0.5" />
<line x1="114.69541" y1="510.88358" x2="131.39334" y2="509.86902" stroke="#7ff07f" stroke-width="0.5" />
<line x1="131.39334" y1="509.86902" x2="148.42522" y2="511.34476" stroke="#7ff07f" stroke-width="0.5" />
<line x1="148.42522" y1="511.34476" x2="164.23259" y2="517.8011" stroke="#7ff07f" stroke-width="0.5" />
<line x1="164.23259" y1="517.8011" x2="180.09561" y2="522.78174" stroke="#7ff07f" stroke-width="0.5" />
<line x1="180.09561" y1="522.78174" x2="334.4401" y2="671.64355" stroke="#7cf082" stroke-width="0.5" stroke-dasharray="3 3"/>
<line x1="334.4401" y1="671.64355" x2="354.7559" y2="675.60944" stroke="#7cf082" stroke-width="0.5" />
<line x1="354.7559" y1="675.60944" x2="369.6727" y2="683.0801" stroke="#7cf082" stroke-width="0.5" />
<line x1="369.6727" y1="683.0801" x2="381.91785" y2="694.88544" stroke="#7cf082" stroke-width="0.5" />
<line x1="381.91785" y1="694.88544" x2="452.66138" y2="689.9973" stroke="#7bf083" stroke-width="0.5" stroke-dasharray="3 3"/>
<line x1="452.66138" y1="689.9973" x2="468.19046" y2="700.32697" stroke="#7bf083" stroke-width="0.5" />
<line x1="468.19046" y1="700.32697" x2="478.04224" y2="713.7002" stroke="#7af084" stroke-width="0.5" />
<line x1="478.04224" y1="713.7002" x2="472.9772" y2="729.56354" stroke="#77f087" stroke-width="0.5" />
<line x1="472.9772" y1="729.56354" x2="431.78897" y2="705.7685" stroke="#66f098" stroke-width="0.5" stroke-dasharray="3 3"/>
<line x1="431.78897" y1="705.7685" x2="447.59634" y2="695.43884" stroke="#61f09d" stroke-width="0.5" stroke-dasharray="3 3"/>
<line x1="447.59634" y1="695.43884" x2="465.24048" y2="694.4243" stroke="#61f09d" stroke-width="0.5" />
<line x1="465.24048" y1="694.4243" x2="477.48563" y2="705.7685" stroke="#61f09d" stroke-width="0.5" />
<line x1="477.48563" y1="705.7685" x2="493.293" y2="713.2391" stroke="#61f09d" stroke-width="0.5" />
<line x1="493.293" y1="713.2391" x2="481.32614" y2="700.32697" stroke="#60f09e" stroke-width="0.5" />
<line x1="481.32614" y1="700.32697" x2="467.0216" y2="688.9828" stroke="#60f09e" stroke-width="0.5" />
<line x1="467.0216" y1="688.9828" x2="448.82086" y2="696.45337" stroke="#60f09e" stroke-width="0.5" />
<line x1="448.82086" y1="696.45337" x2="432.40125" y2="699.86584" stroke="#60f09e" stroke-width="0.5" />
<line x1="432.40125" y1="699.86584" x2="342.1768" y2="738.9708" stroke="#5ff09f" stroke-width="0.5" stroke-dasharray="3 3"/>
<line x1="342.1768" y1="738.9708" x2="329.37506" y2="749.85376" stroke="#5ff09f" stroke-width="0.5" />
<line x1="329.37506" y1="749.85376" x2="348.74463" y2="738.9708" stroke="#5cf0a2" stroke-width="0.5" />
<line x1="348.74463" y1="738.9708" x2="365.49823" y2="742.93665" stroke="#5cf0a2" stroke-width="0.5" />
<line x1="365.49823" y1="742.93665" x2="440.13794" y2="697.929" stroke="#5cf0a2" stroke-width="0.5" stroke-dasharray="3 3"/>
<line x1="440.13794" y1="697.929" x2="456.27927" y2="691.47296" stroke="#5cf0a2" stroke-width="0.5" />
<line x1="456.27927" y1="691.47296" x2="474.7583" y2="684.0024" stroke="#5cf0a2" stroke-width="0.5" />
<line x1="474.7583" y1="684.0024" x2="490.28738" y2="674.5949" stroke="#5cf0a2" stroke-width="0.5" />
<line x1="490.28738" y1="674.5949" x2="507.59756" y2="345.13626" stroke="#59f0a5" stroke-width="0.5" stroke-dasharray="3 3"/>
<line x1="507.59756" y1="345.13626" x2="492.68076" y2="335.1746" stroke="#59f0a5" stroke-width="0.5" />
<line x1="492.68076" y1="335.1746" x2="476.87338" y2="320.41653" stroke="#59f0a5" stroke-width="0.5" />
<line x1="476.87338" y1="320.41653" x2="461.95657" y2="309.9936" stroke="#59f0a5" stroke-width="0.5" />
<line x1="461.95657" y1="309.9936" x2="447.59634" y2="296.61902" stroke="#59f0a5" stroke-width="0.5" />
<line x1="447.59634" y1="296.61902" x2="512.3843" y2="271.34555" stroke="#57f0a7" stroke-width="0.5" stroke-dasharray="3 3"/>
<line x1="512.3843" y1="271.34555" x2="513.8871" y2="290.16232" stroke="#57f0a7" stroke-width="0.5" />
<line x1="513.8871" y1="290.16232" x2="506.1504" y2="305.01273" stroke="#57f0a7" stroke-width="0.5" />
<line x1="506.1504" y1="305.01273" x2="497.7458" y2="319.8631" stroke="#56f0a8" stroke-width="0.5" />
<line x1="497.7458" y1="319.8631" x2="481.04785" y2="317.9261" stroke="#56f0a8" stroke-width="0.5" />
<line x1="481.04785" y1="317.9261" x2="467.2999" y2="308.5178" stroke="#56f0a8" stroke-width="0.5" />
<line x1="467.2999" y1="308.5178" x2="450.88028" y2="301.5999" stroke="#55f0a9" stroke-width="0.5" />
<line x1="450.88028" y1="301.5999" x2="453.27365" y2="284.25903" stroke="#55f0a9" stroke-width="0.5" />
<line x1="453.27365" y1="284.25903" x2="508.2098" y2="267.9327" stroke="#4af0b4" stroke-width="0.5" stroke-dasharray="3 3"/>
<line x1="508.2098" y1="267.9327" x2="512.3843" y2="287.21066" stroke="#49f0b5" stroke-width="0.5" />
<line x1="512.3843" y1="287.21066" x2="507.04095" y2="303.0757" stroke="#49f0b5" stroke-width="0.5" />
<line x1="507.04095" y1="303.0757" x2="500.4731" y2="320.41653" stroke="#47f0b7" stroke-width="0.5" />
<line x1="500.4731" y1="320.41653" x2="491.17792" y2="334.7134" stroke="#46f0b8" stroke-width="0.5" />
<line x1="491.17792" y1="334.7134" x2="475.37057" y2="340.15543" stroke="#46f0b8" stroke-width="0.5" />
<line x1="475.37057" y1="340.15543" x2="463.12543" y2="328.25674" stroke="#46f0b8" stroke-width="0.5" />
<line x1="463.12543" y1="328.25674" x2="446.70578" y2="320.41653" stroke="#45f0b9" stroke-width="0.5" />
<line x1="446.70578" y1="320.41653" x2="301.60083" y2="383.23016" stroke="#44f0ba" stroke-width="0.5" stroke-dasharray="3 3"/>
<line x1="301.60083" y1="383.23016" x2="283.6784" y2="388.67212" stroke="#44f0ba" stroke-width="0.5" />
<line x1="283.6784" y1="388.67212" x2="269.37384" y2="378.8028" stroke="#43f0bb" stroke-width="0.5" />
<line x1="269.37384" y1="378.8028" x2="267.87103" y2="360.44766" stroke="#43f0bb" stroke-width="0.5" />
<line x1="267.87103" y1="360.44766" x2="253.84477" y2="350.57825" stroke="#42f0bc" stroke-width="0.5" />
<line x1="253.84477" y1="350.57825" x2="257.407" y2="366.90424" stroke="#42f0bc" stroke-width="0.5" />
<line x1="257.407" y1="366.90424" x2="252.34196" y2="351.03946" stroke="#3df0c1" stroke-width="0.5" />
<line x1="252.34196" y1="351.03946" x2="246.66467" y2="366.90424" stroke="#31f0cd" stroke-width="0.5" />
<line x1="246.66467" y1="366.90424" x2="228.74223" y2="360.90884" stroke="#28f0d6" stroke-width="0.5" />
<line x1="228.74223" y1="360.90884" x2="215.32823" y2="351.03946" stroke="#21f0dd" stroke-width="0.5" />
<line x1="215.32823" y1="351.03946" x2="232.02615" y2="345.59744" stroke="#21f0dd" stroke-width="0.5" />
<line x1="232.02615" y1="345.59744" x2="246.94296" y2="333.2376" stroke="#1ef0e0" stroke-width="0.5" />
<line x1="246.94296" y1="333.2376" x2="260.41263" y2="322.8147" stroke="#1ef0e0" stroke-width="0.5" />
<line x1="260.41263" y1="322.8147" x2="272.93607" y2="311.46942" stroke="#1ef0e0" stroke-width="0.5" />
<line x1="272.93607" y1="311.46942" x2="304.88477" y2="251.14511" stroke="#1df0e1" stroke-width="0.5" stroke-dasharray="3 3"/>
<line x1="304.88477" y1="251.14511" x2="315.01483" y2="237.2169" stroke="#19f0e5" stroke-width="0.5" />
<line x1="315.01483" y1="237.2169" x2="332.65897" y2="237.77034" stroke="#12f0ec" stroke-width="0.5" />
<line x1="332.65897" y1="237.77034" x2="348.18805" y2="243.67369" stroke="#12f0ec" stroke-width="0.5" />
<circle cx="358.24817" cy="256.4446" r="12.458623" stroke="#a4f05a" stroke-width="1.0" fill="#0f0" fill-opacity="0.1"/>
<circle cx="147.89493" cy="537.5534" r="20.764372" stroke="#99f065" stroke-width="1.0" fill="#00f" fill-opacity="0.1"/>
<circle cx="132.83434" cy="514.98193" r="8.305749" stroke="#99f065" stroke-width="1.0" fill="#00f" fill-opacity="0.1"/>
<circle cx="98.46735" cy="556.3086" r="16.611498" stroke="#98f066" stroke-width="1.0" fill="#f00" fill-opacity="0.1"/>
<circle cx="158.55777" cy="574.5472" r="12.458623" stroke="#8ef070" stroke-width="1.0" fill="#ff0" fill-opacity="0.1"/>
<circle cx="475.86697" cy="705.36694" r="8.305749" stroke="#7bf083" stroke-width="1.0" fill="#00f" fill-opacity="0.1"/>
<circle cx="251.132" cy="367.17404" r="8.305749" stroke="#42f0bc" stroke-width="1.0" fill="#f00" fill-opacity="0.1"/>
<circle cx="226.46" cy="344.07407" r="8.305749" stroke="#22f0dc" stroke-width="1.0" fill="#ff0" fill-opacity="0.1"/>
<circle cx="316.38135" cy="245.18204" r="12.458623" stroke="#19f0e5" stroke-width="1.0" fill="#0f0" fill-opacity="0.1"/>
</svg>
